<svg width="480" height="480" viewBox="0 0 480 480" fill="none" xmlns="http://www.w3.org/2000/svg" preserveAspectRatio="xMidYMid slice">
<g clip-path="url(#clip0_76_57234)">
<path d="M356.194 226.49C359.897 247.491 346.061 267.484 325.291 271.147C304.521 274.809 284.682 260.753 280.979 239.753C275.36 207.887 287.28 177.029 308.05 173.367C328.82 169.705 350.575 194.625 356.194 226.49Z" fill="#F5EEEB" stroke="#080708" stroke-width="2"/>
<path d="M295.803 267.733C300.07 291.93 284.128 314.967 260.197 319.186C236.266 323.406 213.407 307.211 209.14 283.014C202.666 246.299 216.4 210.744 240.332 206.524C264.263 202.305 289.329 231.018 295.803 267.733Z" fill="#F5EEEB" stroke="#080708" stroke-width="2"/>
<path d="M462.742 99.0618C466.797 114.196 457.951 129.716 442.983 133.727C428.015 137.737 412.594 128.72 408.538 113.586C402.385 90.622 409.134 67.2725 424.102 63.2619C439.07 59.2512 456.589 76.0981 462.742 99.0618Z" fill="#F5EEEB" stroke="#080708" stroke-width="2"/>
<path d="M378.87 308.323C386.819 337.99 369.478 368.412 340.137 376.274C310.796 384.136 280.567 366.46 272.618 336.793C260.556 291.779 273.785 246.009 303.126 238.147C332.467 230.285 366.808 263.309 378.87 308.323Z" fill="#F5EEEB" stroke="#080708" stroke-width="2"/>
<path d="M441.695 160.298C437.716 182.864 416.397 197.967 394.079 194.032C371.761 190.096 356.894 168.613 360.873 146.047C366.911 111.806 390.287 85.0286 412.606 88.9639C434.924 92.8992 447.732 126.057 441.695 160.298Z" fill="#F5EEEB" stroke="#080708" stroke-width="2"/>
<path d="M519.5 155.878C519.5 184.637 496.443 207.95 468 207.95C439.557 207.95 416.5 184.637 416.5 155.878C416.5 112.241 439.557 74.05 468 74.05C496.443 74.05 519.5 112.241 519.5 155.878Z" fill="#F5EEEB" stroke="#080708" stroke-width="2"/>
<path d="M146.033 363.353C139.818 386.547 116.184 400.366 93.2453 394.22C70.3063 388.073 56.7486 364.288 62.9634 341.094C72.3933 305.901 99.2423 280.083 122.181 286.229C145.12 292.376 155.463 328.16 146.033 363.353Z" fill="#F5EEEB" stroke="#080708" stroke-width="2"/>
<path d="M420.497 216.455C427.868 243.964 411.788 272.174 384.582 279.464C357.375 286.754 329.344 270.363 321.973 242.854C310.789 201.114 323.055 158.672 350.262 151.382C377.469 144.092 409.313 174.714 420.497 216.455Z" fill="#F5EEEB" stroke="#080708" stroke-width="2"/>
<path d="M502 239.156C502 266.518 480.062 288.7 453 288.7C425.938 288.7 404 266.518 404 239.156C404 197.637 425.938 161.3 453 161.3C480.062 161.3 502 197.637 502 239.156Z" fill="#F5EEEB" stroke="#080708" stroke-width="2"/>
<path d="M76.9356 411.148C71.0099 433.263 48.4753 446.44 26.6032 440.579C4.73107 434.719 -8.19603 412.04 -2.27029 389.925C6.72101 356.369 32.3212 331.751 54.1933 337.612C76.0654 343.472 85.9269 377.592 76.9356 411.148Z" fill="#F5EEEB" stroke="#080708" stroke-width="2"/>
<path d="M240.458 347.748C233.015 375.527 204.709 392.078 177.236 384.717C149.762 377.355 133.525 348.868 140.968 321.09C152.262 278.94 184.418 248.018 211.892 255.379C239.365 262.741 251.752 305.598 240.458 347.748Z" fill="#F5EEEB" stroke="#080708" stroke-width="2"/>
<path d="M289.957 378.459C285.497 403.756 261.599 420.687 236.58 416.276C211.561 411.864 194.895 387.781 199.355 362.483C206.123 324.099 232.329 294.081 257.348 298.493C282.367 302.904 296.726 340.075 289.957 378.459Z" fill="#F5EEEB" stroke="#080708" stroke-width="2"/>
<path d="M323.323 454.482C319.444 476.479 298.663 491.202 276.907 487.366C255.151 483.53 240.659 462.588 244.538 440.59C250.423 407.212 273.211 381.11 294.967 384.946C316.722 388.782 329.208 421.104 323.323 454.482Z" fill="#F5EEEB" stroke="#080708" stroke-width="2"/>
<path d="M427 324.311C427 353.907 403.271 377.9 374 377.9C344.729 377.9 321 353.907 321 324.311C321 279.404 344.729 240.1 374 240.1C403.271 240.1 427 279.404 427 324.311Z" fill="#F5EEEB" stroke="#080708" stroke-width="2"/>
<path d="M500.996 296.636C494.203 321.987 468.371 337.093 443.298 330.374C418.225 323.656 403.406 297.658 410.199 272.307C420.506 233.84 449.853 205.62 474.926 212.338C499.999 219.056 511.303 258.169 500.996 296.636Z" fill="#F5EEEB" stroke="#080708" stroke-width="2"/>
<path d="M137.174 419.002C130.887 442.466 106.978 456.446 83.7727 450.228C60.5669 444.011 46.8516 419.949 53.1386 396.485C62.6782 360.883 89.8393 334.764 113.045 340.982C136.251 347.2 146.714 383.4 137.174 419.002Z" fill="#F5EEEB" stroke="#080708" stroke-width="2"/>
<path d="M197.276 403.038C201.542 427.235 185.601 450.272 161.67 454.491C137.738 458.711 114.879 442.516 110.613 418.319C104.139 381.604 117.873 346.049 141.804 341.829C165.736 337.61 190.802 366.323 197.276 403.038Z" fill="#F5EEEB" stroke="#080708" stroke-width="2"/>
<path d="M399.213 402.04C407.307 432.246 389.65 463.222 359.776 471.227C329.902 479.232 299.123 461.234 291.029 431.028C278.748 385.195 292.218 338.593 322.092 330.588C351.966 322.583 386.932 356.208 399.213 402.04Z" fill="#F5EEEB" stroke="#080708" stroke-width="2"/>
<path d="M447.76 431.629C439.955 460.756 410.275 478.111 381.468 470.392C352.661 462.673 335.635 432.804 343.44 403.676C355.282 359.481 388.999 327.057 417.806 334.776C446.614 342.495 459.602 387.433 447.76 431.629Z" fill="#F5EEEB" stroke="#080708" stroke-width="2"/>
<path d="M513.334 351.001C520.055 376.083 505.394 401.804 480.588 408.451C455.781 415.098 430.224 400.153 423.503 375.072C413.306 337.014 424.49 298.318 449.296 291.671C474.103 285.024 503.137 312.944 513.334 351.001Z" fill="#F5EEEB" stroke="#080708" stroke-width="2"/>
<path d="M74.4193 469.279C68.1322 492.742 44.2236 506.723 21.0178 500.505C-2.18798 494.287 -15.9033 470.225 -9.61625 446.762C-0.0766992 411.159 27.0845 385.041 50.2902 391.259C73.496 397.477 83.9589 433.677 74.4193 469.279Z" fill="#F5EEEB" stroke="#080708" stroke-width="2"/>
<path d="M255.499 489.253C247.767 518.11 218.362 535.304 189.822 527.657C161.281 520.01 144.413 490.417 152.145 461.559C163.878 417.773 197.283 385.649 225.824 393.297C254.364 400.944 267.232 445.466 255.499 489.253Z" fill="#F5EEEB" stroke="#080708" stroke-width="2"/>
<path d="M337.629 541.11C331.956 573.281 301.564 594.813 269.746 589.203C237.928 583.592 216.734 552.964 222.406 520.793C231.014 471.978 264.34 433.803 296.158 439.413C327.976 445.024 346.236 492.295 337.629 541.11Z" fill="#F5EEEB" stroke="#080708" stroke-width="2"/>
<path d="M167.097 516.93C162.831 541.127 139.972 557.322 116.04 553.103C92.1091 548.883 76.1677 525.846 80.4343 501.649C86.9082 464.934 111.974 436.221 135.906 440.441C159.837 444.66 173.571 480.215 167.097 516.93Z" fill="#F5EEEB" stroke="#080708" stroke-width="2"/>
<path d="M415.451 465.607C423.906 497.161 405.462 529.52 374.254 537.882C343.046 546.244 310.893 527.443 302.438 495.889C289.609 448.01 303.68 399.327 334.888 390.965C366.095 382.603 402.622 417.728 415.451 465.607Z" fill="#F5EEEB" stroke="#080708" stroke-width="2"/>
<path d="M337.085 320.02C336.656 318.42 337.606 316.775 339.206 316.346L415.914 295.793C417.514 295.364 419.159 296.314 419.588 297.914L439.913 373.769L357.41 395.875L337.085 320.02Z" fill="#F5EEEB" stroke="#080708" stroke-width="2"/>
<rect x="370.132" y="368.35" width="46.589" height="27.1769" transform="rotate(-15 370.132 368.35)" stroke="#080708" stroke-width="2"/>
<path d="M385.132 364.331L392.166 390.582" stroke="#080708" stroke-width="2" stroke-linecap="square"/>
<path d="M400.133 360.312L407.167 386.562" stroke="#080708" stroke-width="2" stroke-linecap="square"/>
<path d="M436.531 368.646L447.144 355.754C454.914 384.75 437.706 414.554 408.71 422.323C379.714 430.093 349.91 412.885 342.141 383.889L357.778 389.748L368.391 376.855L384.029 382.714L394.642 369.822L410.28 375.68L420.893 362.788L436.531 368.646Z" fill="#F5EEEB" stroke="#080708" stroke-width="2"/>
<circle cx="364.605" cy="347.725" r="11.6472" transform="rotate(-15 364.605 347.725)" stroke="#080708" stroke-width="2"/>
<circle cx="409.607" cy="335.667" r="11.6472" transform="rotate(-15 409.607 335.667)" stroke="#080708" stroke-width="2"/>
<path d="M334.604 355.763L345.854 352.749" stroke="#080708" stroke-width="2"/>
<path d="M331.589 344.513L337.618 367.014" stroke="#080708" stroke-width="2" stroke-linecap="square"/>
<path d="M373.038 289.194L377.56 306.069" stroke="#080708" stroke-width="2" stroke-linecap="square"/>
<path d="M365.501 261.068L367.009 266.693" stroke="#080708" stroke-width="2" stroke-linecap="square"/>
<path d="M381.705 263.201L378.793 268.244" stroke="#080708" stroke-width="2" stroke-linecap="square"/>
<path d="M391.654 276.167L386.029 277.674" stroke="#080708" stroke-width="2" stroke-linecap="square"/>
<path d="M389.521 292.371L384.477 289.459" stroke="#080708" stroke-width="2" stroke-linecap="square"/>
<path d="M360.352 300.186L363.264 295.143" stroke="#080708" stroke-width="2" stroke-linecap="square"/>
<path d="M350.403 287.22L356.028 285.713" stroke="#080708" stroke-width="2" stroke-linecap="square"/>
<path d="M352.536 271.016L357.579 273.928" stroke="#080708" stroke-width="2" stroke-linecap="square"/>
<path d="M437.559 316.119L437.3 315.153L435.368 315.67L435.627 316.636L437.559 316.119ZM435.627 316.636L441.656 339.137L443.588 338.619L437.559 316.119L435.627 316.636ZM428.616 331.608L439.867 328.594L439.349 326.662L428.099 329.677L428.616 331.608Z" fill="#080708"/>
<circle cx="371.81" cy="282.259" r="7.76483" transform="rotate(-15 371.81 282.259)" fill="var(--highlight)" stroke="#080708" stroke-width="2"/>
<path d="M490.895 474.579C485.464 505.376 456.371 525.988 425.913 520.617C395.455 515.247 375.166 485.927 380.596 455.131C388.836 408.402 420.738 371.859 451.196 377.229C481.654 382.6 499.134 427.851 490.895 474.579Z" fill="#F5EEEB" stroke="#080708" stroke-width="2"/>
</g>
<defs>
<clipPath id="clip0_76_57234">
<rect width="480" height="480" fill="white"/>
</clipPath>
</defs>
</svg>
