<svg width="880" height="529" viewBox="0 0 880 529" fill="none" xmlns="http://www.w3.org/2000/svg">
<g clip-path="url(#clip0_76_56832)">
<path d="M627.031 273.997C637.828 255.137 644 233.289 644 210C644 138.755 586.245 81 515 81C443.755 81 386 138.755 386 210C386 281.245 443.755 339 515 339C555.984 339 592.503 319.888 616.133 290.09L616 290.321L655.641 301.66L627.031 273.997Z" fill="var(--highlight)" stroke="#080708" stroke-width="2"/>
<rect x="732" y="120.765" width="90" height="135" rx="4" transform="rotate(30 732 120.765)" fill="var(--highlight)" stroke="#080708" stroke-width="2"/>
<rect x="754.794" y="99.2846" width="72" height="30" transform="rotate(30 754.794 99.2846)" fill="var(--highlight)" stroke="#080708" stroke-width="2"/>
<rect x="759" y="74" width="90" height="24" rx="4" transform="rotate(30 759 74)" fill="var(--highlight)" stroke="#080708" stroke-width="2"/>
<path d="M680.088 246.679L726.854 273.679V273.679C719.398 286.593 702.885 291.017 689.971 283.561V283.561C677.057 276.106 672.633 259.593 680.088 246.679V246.679Z" fill="var(--highlight)" stroke="#080708" stroke-width="2"/>
<rect x="754.794" y="99.2846" width="72" height="10.5" transform="rotate(30 754.794 99.2846)" fill="#080708"/>
<path d="M789 370C838.706 370 879 329.706 879 280C879 230.294 838.706 190 789 190V214C825.451 214 855 243.549 855 280C855 316.451 825.451 346 789 346V370Z" fill="var(--highlight)" stroke="#080708" stroke-width="2"/>
<path d="M447.677 194.535C446.02 191.665 447.004 187.996 449.873 186.339L523.486 143.839C526.355 142.182 530.025 143.165 531.682 146.035L575.682 222.245L491.677 270.745L447.677 194.535Z" fill="#F5EEEB" stroke="#080708" stroke-width="2"/>
<rect x="496.364" y="236.863" width="55" height="31" transform="rotate(-30 496.364 236.863)" stroke="#080708" stroke-width="2"/>
<path d="M511.952 227.863L527.452 254.709" stroke="#080708" stroke-width="2" stroke-linecap="square"/>
<path d="M527.541 218.863L543.041 245.709" stroke="#080708" stroke-width="2" stroke-linecap="square"/>
<path d="M555.597 284.534C585.324 267.371 595.51 229.358 578.346 199.63L570.439 217.011L551.433 215.169L543.526 232.55L524.52 230.707L516.612 248.088L497.606 246.246L489.699 263.627L470.693 261.784C487.856 291.512 525.869 301.697 555.597 284.534Z" fill="#F5EEEB" stroke="#080708" stroke-width="2"/>
<circle cx="484.73" cy="214.712" r="13" transform="rotate(-30 484.73 214.712)" stroke="#080708" stroke-width="2"/>
<circle cx="530.629" cy="188.212" r="13" transform="rotate(-30 530.629 188.212)" stroke="#080708" stroke-width="2"/>
<circle cx="472.246" cy="141.09" r="9" transform="rotate(-30 472.246 141.09)" fill="#F5EEEB" stroke="#080708" stroke-width="2"/>
<path d="M454.053 233.578L466.177 226.578" stroke="#080708" stroke-width="2"/>
<path d="M447.053 221.454L460.053 243.97" stroke="#080708" stroke-width="2" stroke-linecap="square"/>
<path d="M476.747 148.884L486.247 165.339" stroke="#080708" stroke-width="2" stroke-linecap="square"/>
<path d="M460.146 119.209L463.476 124.976" stroke="#080708" stroke-width="2" stroke-linecap="square"/>
<path d="M478.675 116.769L476.952 123.201" stroke="#080708" stroke-width="2" stroke-linecap="square"/>
<path d="M493.501 128.146L487.734 131.476" stroke="#080708" stroke-width="2" stroke-linecap="square"/>
<path d="M495.941 146.675L489.508 144.952" stroke="#080708" stroke-width="2" stroke-linecap="square"/>
<path d="M466.036 163.94L467.759 157.508" stroke="#080708" stroke-width="2" stroke-linecap="square"/>
<path d="M451.208 152.564L456.976 149.234" stroke="#080708" stroke-width="2" stroke-linecap="square"/>
<path d="M448.769 134.035L455.201 135.759" stroke="#080708" stroke-width="2" stroke-linecap="square"/>
<path d="M555.306 158.954L568.306 181.47" stroke="#080708" stroke-width="2" stroke-linecap="square"/>
<path d="M550.182 178.078L562.306 171.078" stroke="#080708" stroke-width="2"/>
<path d="M127 479.778C127 514.142 99.0178 542 64.5 542C29.9822 542 2 514.142 2 479.778C2 427.636 29.9822 382 64.5 382C99.0178 382 127 427.636 127 479.778Z" fill="#F5EEEB" stroke="#080708" stroke-width="2"/>
<path d="M417 479.778C417 514.142 389.018 542 354.5 542C319.982 542 292 514.142 292 479.778C292 427.636 319.982 382 354.5 382C389.018 382 417 427.636 417 479.778Z" fill="#F5EEEB" stroke="#080708" stroke-width="2"/>
<path d="M368 478L379 486" stroke="#080708" stroke-width="2"/>
<path d="M370 493L385.667 482L401.333 493L417 482" stroke="#080708" stroke-width="2"/>
<path d="M272 479.778C272 514.142 244.018 542 209.5 542C174.982 542 147 514.142 147 479.778C147 427.636 174.982 382 209.5 382C244.018 382 272 427.636 272 479.778Z" fill="#F5EEEB" stroke="#080708" stroke-width="2"/>
<path d="M869 408V413" stroke="#080708" stroke-width="2" stroke-linecap="square"/>
<path d="M869 408H584C575.716 408 569 414.716 569 423V423C569 431.284 575.716 438 584 438H869" stroke="#080708" stroke-width="2"/>
<path d="M869 413H584C578.477 413 574 417.477 574 423V423C574 428.523 578.477 433 584 433H869" stroke="#080708" stroke-width="2"/>
<path d="M869 433V438" stroke="#080708" stroke-width="2" stroke-linecap="square"/>
<path d="M849 413C846.532 415.541 845 419.083 845 423C845 426.917 846.532 430.459 849 433" stroke="#080708" stroke-width="2"/>
<path d="M879 498H594C585.716 498 579 504.716 579 513V513C579 521.284 585.716 528 594 528H879" stroke="#080708" stroke-width="2"/>
<path d="M879 503H594C588.477 503 584 507.477 584 513V513C584 518.523 588.477 523 594 523H879" stroke="#080708" stroke-width="2"/>
<path d="M879 498V503" stroke="#080708" stroke-width="2" stroke-linecap="square"/>
<path d="M879 523V528" stroke="#080708" stroke-width="2" stroke-linecap="square"/>
<path d="M859 503C856.532 505.541 855 509.083 855 513C855 516.917 856.532 520.459 859 523" stroke="#080708" stroke-width="2"/>
<path d="M579 468L864 468C872.284 468 879 461.284 879 453V453C879 444.716 872.284 438 864 438L579 438" stroke="#080708" stroke-width="2"/>
<path d="M579 463L864 463C869.523 463 874 458.523 874 453V453C874 447.477 869.523 443 864 443L579 443" stroke="#080708" stroke-width="2"/>
<path d="M579 468L579 463" stroke="#080708" stroke-width="2" stroke-linecap="square"/>
<path d="M579 443L579 438" stroke="#080708" stroke-width="2" stroke-linecap="square"/>
<path d="M599 443C601.468 445.541 603 449.083 603 453C603 456.917 601.468 460.459 599 463" stroke="#080708" stroke-width="2"/>
<path d="M559 498L844 498C852.284 498 859 491.284 859 483V483C859 474.716 852.284 468 844 468L559 468" stroke="#080708" stroke-width="2"/>
<path d="M559 493L844 493C849.523 493 854 488.523 854 483V483C854 477.477 849.523 473 844 473L559 473" stroke="#080708" stroke-width="2"/>
<path d="M559 498L559 493" stroke="#080708" stroke-width="2" stroke-linecap="square"/>
<path d="M559 473L559 468" stroke="#080708" stroke-width="2" stroke-linecap="square"/>
<path d="M579 473C581.468 475.541 583 479.083 583 483C583 486.917 581.468 490.459 579 493" stroke="#080708" stroke-width="2"/>
<rect x="580" y="393" width="242" height="15" rx="3" fill="var(--highlight)" stroke="#080708" stroke-width="2"/>
<rect x="617" y="345" width="102" height="15" rx="3" fill="var(--highlight)" stroke="#080708" stroke-width="2"/>
<path d="M707 345H797L807 393H697L707 345Z" fill="var(--highlight)" stroke="#080708" stroke-width="2"/>
<path d="M819.347 221.375C822.925 215.782 825 209.133 825 202C825 200.428 824.899 198.879 824.704 197.36C813.758 192.624 801.685 190 789 190V214C799.942 214 810.261 216.663 819.347 221.375Z" fill="#080708"/>
<circle cx="789" cy="202" r="25" fill="var(--highlight)" stroke="#080708" stroke-width="2"/>
<path d="M0 529H880" stroke="#080708" stroke-width="2"/>
</g>
<defs>
<clipPath id="clip0_76_56832">
<rect width="880" height="529" fill="white"/>
</clipPath>
</defs>
</svg>
