<svg width="887" height="400" viewBox="0 0 887 400" fill="none" xmlns="http://www.w3.org/2000/svg">
<rect x="712" y="50" width="170" height="300" rx="24" fill="var(--highlight)" stroke="#080708" stroke-width="2"/>
<rect x="712" y="50" width="150" height="300" rx="24" fill="var(--highlight)" stroke="#080708" stroke-width="2"/>
<rect x="722" y="60" width="130" height="280" rx="16" fill="#080708" stroke="#080708" stroke-width="2"/>
<rect x="771" y="327" width="32" height="2" rx="1" fill="var(--highlight)"/>
<circle cx="787" cy="74" r="4" fill="#080708" stroke="var(--highlight)" stroke-width="2"/>
<path d="M877 165C874.239 165 872 162.761 872 160L872 134C872 131.239 874.239 129 877 129L882 129L882 165L877 165Z" fill="#080708" stroke="#080708" stroke-width="2"/>
<rect x="878" y="165" width="36" height="8" rx="4" transform="rotate(-90 878 165)" fill="var(--highlight)" stroke="#080708" stroke-width="2"/>
<path d="M710 142C708.895 142 708 141.105 708 140L708 108C708 106.895 708.895 106 710 106L712 106L712 142L710 142Z" fill="#080708" stroke="#080708" stroke-width="2"/>
<path d="M710 188C708.895 188 708 187.105 708 186L708 154C708 152.895 708.895 152 710 152L712 152L712 188L710 188Z" fill="#080708" stroke="#080708" stroke-width="2"/>
<path d="M609.775 94.8311C603.332 101.273 603.332 111.716 609.775 118.158L631.669 140.044H603V140L507.5 140C498.387 140 491 147.387 491 156.5C491 165.61 498.384 172.996 507.493 173H487.5C478.387 173 471 180.387 471 189.5C471 198.613 478.387 206 487.5 206H504.5C495.387 206 488 213.387 488 222.5C488 231.613 495.387 239 504.5 239H529.5C520.387 239 513 246.387 513 255.5C513 264.613 520.387 272 529.5 272L651 272C668.011 272 683.52 265.566 695.222 255L787 255C811.853 255 832 234.853 832 210C832 185.147 811.853 165 787 165L702.695 165C701.325 163.277 699.871 161.624 698.338 160.047L698.343 160.042L697.81 159.51C697.716 159.415 697.622 159.321 697.527 159.227L633.11 94.8311C626.666 88.3896 616.219 88.3896 609.775 94.8311Z" fill="var(--highlight)" stroke="#080708" stroke-width="2"/>
<path d="M503 206H603" stroke="#080708" stroke-width="2"/>
<path d="M528 239L603 239" stroke="#080708" stroke-width="2"/>
<path d="M520 173L603 173" stroke="#080708" stroke-width="2"/>
<g clip-path="url(#clip0_74_6994)">
<path d="M735.176 155.577C734.971 154.625 736.098 153.974 736.821 154.627L749.426 166.025C749.749 166.318 750.221 166.369 750.596 166.152L765.217 157.711C766.055 157.227 767.027 158.106 766.635 158.994L759.805 174.48C759.63 174.877 759.73 175.343 760.053 175.635L772.658 187.034C773.38 187.687 772.853 188.881 771.889 188.776L755.063 186.949C754.632 186.902 754.221 187.139 754.046 187.536L747.216 203.021C746.824 203.909 745.526 203.768 745.322 202.816L741.753 186.201C741.662 185.775 741.308 185.455 740.877 185.408L724.05 183.58C723.086 183.476 722.811 182.194 723.649 181.711L738.269 173.269C738.644 173.053 738.836 172.618 738.744 172.192L735.176 155.577Z" fill="var(--highlight)" stroke="#080708" stroke-width="2"/>
<path d="M748.65 177.017L735.65 154.5" stroke="#080708" stroke-width="2" stroke-linejoin="round"/>
<path d="M748.651 177.017L766.048 157.695" stroke="#080708" stroke-width="2" stroke-linejoin="round"/>
<path d="M748.651 177.016L772.403 187.592" stroke="#080708" stroke-width="2" stroke-linejoin="round"/>
<path d="M748.651 177.017L745.933 202.874" stroke="#080708" stroke-width="2" stroke-linejoin="round"/>
<path d="M748.651 177.017L723.219 182.422" stroke="#080708" stroke-width="2" stroke-linejoin="round"/>
<path d="M748.65 177.017L749.905 165.083" stroke="#080708" stroke-width="2" stroke-linejoin="round"/>
<path d="M748.65 177.017L760.388 174.522" stroke="#080708" stroke-width="2" stroke-linejoin="round"/>
<path d="M748.65 177.017L754.65 187.409" stroke="#080708" stroke-width="2" stroke-linejoin="round"/>
<path d="M748.651 177.017L740.621 185.934" stroke="#080708" stroke-width="2" stroke-linejoin="round"/>
<path d="M748.651 177.017L737.688 172.136" stroke="#080708" stroke-width="2" stroke-linejoin="round"/>
<path d="M749.597 166.655L748.833 176.334L747.9 175.718L737.4 157.531L736.833 155.549L749.597 166.655Z" fill="#080708"/>
<path d="M762.904 160.704L749.267 176.084L751.316 176.633L759.927 174.548L765.203 161.687L765.935 158.954L762.904 160.704Z" fill="#080708"/>
<path d="M749.15 177.883L754.4 186.976L770.842 188.453L771.208 187.087L750.266 177.816L749.15 177.883Z" fill="#080708"/>
<path d="M741.307 185.298L745.093 199.855L746.026 200.471L748.169 180.182L747.852 178.633L746.986 179.133L741.307 185.298Z" fill="#080708"/>
<path d="M738.772 172.905L726.031 180.838L726.964 181.454L745.553 177.651L746.852 176.901L738.772 172.905Z" fill="#080708"/>
</g>
<path d="M783.403 206.629C783.407 202.608 785.495 198.698 789.228 196.542C792.961 194.387 797.392 194.533 800.876 196.541C800.873 200.563 798.784 204.473 795.051 206.628C791.318 208.784 786.888 208.637 783.403 206.629Z" fill="var(--highlight)" stroke="#080708" stroke-width="2"/>
<path fill-rule="evenodd" clip-rule="evenodd" d="M789.524 202.675C789.838 204.811 789.458 206.496 788.325 207.149C787.193 207.803 785.544 207.291 783.851 205.951C783.537 203.815 783.918 202.13 785.05 201.476C786.182 200.822 787.832 201.335 789.524 202.675Z" fill="#080708"/>
<path d="M784.078 196.719L779.002 196.719C777.857 201.569 780.769 206.481 785.615 207.779C782.618 204.783 782.106 200.243 784.078 196.719Z" fill="var(--highlight)" stroke="#080708" stroke-width="2"/>
<path d="M764.145 212.476C765.189 208.592 768.218 205.356 772.382 204.24C776.546 203.125 780.787 204.413 783.633 207.254C782.589 211.138 779.56 214.374 775.396 215.489C771.233 216.605 766.991 215.317 764.145 212.476Z" fill="var(--highlight)" stroke="#080708" stroke-width="2"/>
<path fill-rule="evenodd" clip-rule="evenodd" d="M786.756 208.301C785 211.896 781.756 214.739 777.589 215.856C773.421 216.973 769.19 216.132 765.872 213.897C767.628 210.303 770.872 207.459 775.039 206.342C779.207 205.225 783.438 206.066 786.756 208.301Z" fill="#080708"/>
<path d="M783.766 207.259C784.96 204.46 787.037 202.01 789.875 200.371C796.838 196.351 805.741 198.737 809.761 205.699C816.997 218.232 807.529 237.246 802.692 240.038C797.866 242.824 776.748 241.53 769.467 229.074C769.451 229.047 769.435 229.019 769.419 228.991C765.399 222.029 767.784 213.125 774.747 209.105C777.585 207.467 780.746 206.893 783.766 207.259Z" fill="var(--highlight)" stroke="#080708" stroke-width="2"/>
<path d="M796.087 225.48C796.707 223.168 796.746 220.738 796.203 218.407C795.659 216.076 794.549 213.914 792.97 212.114C791.392 210.314 789.394 208.932 787.153 208.088C784.913 207.245 782.499 206.967 780.125 207.28C777.752 207.592 775.492 208.485 773.546 209.88C771.6 211.274 770.028 213.127 768.969 215.274C767.91 217.421 767.398 219.796 767.476 222.189C767.554 224.582 768.221 226.918 769.418 228.991" stroke="#080708" stroke-width="2"/>
<path d="M778.367 231.389C776.974 232.193 775.194 231.716 774.39 230.323C773.586 228.931 774.063 227.15 775.456 226.346" stroke="#080708" stroke-width="2"/>
<path d="M775.456 226.346L812.016 205.238" stroke="#080708" stroke-width="2"/>
<path d="M788.577 233.059L793.62 230.147L795.075 232.669C795.879 234.061 795.402 235.842 794.01 236.646V236.646C792.617 237.45 790.836 236.973 790.032 235.58L788.577 233.059Z" fill="var(--highlight)" stroke="#080708" stroke-width="2"/>
<path d="M793.619 230.147L798.662 227.236L800.118 229.757C800.922 231.15 800.445 232.931 799.052 233.735V233.735C797.66 234.539 795.879 234.061 795.075 232.669L793.619 230.147Z" fill="var(--highlight)" stroke="#080708" stroke-width="2"/>
<path d="M798.662 227.236L803.705 224.324L805.161 226.846C805.965 228.238 805.488 230.019 804.095 230.823V230.823C802.702 231.627 800.922 231.15 800.118 229.757L798.662 227.236Z" fill="var(--highlight)" stroke="#080708" stroke-width="2"/>
<circle cx="802.561" cy="210.697" r="4.36724" transform="rotate(-30 802.561 210.697)" fill="var(--highlight)" stroke="#080708" stroke-width="2"/>
<circle cx="787.433" cy="219.431" r="4.36724" transform="rotate(-30 787.433 219.431)" fill="var(--highlight)" stroke="#080708" stroke-width="2"/>
<path d="M632.227 140C628.07 144.13 624.924 149.154 623.034 154.685C621.144 160.215 620.561 166.103 621.328 171.894C622.095 177.684 624.193 183.222 627.46 188.078C630.726 192.934 635.074 196.979 640.166 199.899C645.257 202.819 650.957 204.536 656.824 204.918C662.691 205.3 668.568 204.337 674 202.102" stroke="#080708" stroke-width="2"/>
<mask id="mask0_74_6994" style="mask-type:alpha" maskUnits="userSpaceOnUse" x="472" y="140" width="132" height="132">
<path fill-rule="evenodd" clip-rule="evenodd" d="M492 156.5C492 165.61 499.384 172.996 508.493 173H488.5C479.387 173 472 180.387 472 189.5C472 198.613 479.387 206 488.5 206H505.5C496.387 206 489 213.387 489 222.5C489 231.613 496.387 239 505.5 239H530.5C521.387 239 514 246.387 514 255.5C514 264.613 521.387 272 530.5 272H604V239V206V173V140L508.5 140C499.387 140 492 147.387 492 156.5Z" fill="#359D72"/>
</mask>
<g mask="url(#mask0_74_6994)">
<path fill-rule="evenodd" clip-rule="evenodd" d="M476.058 96L445 211.911L526.138 233.652L536.901 193.484C536.27 193.385 535.639 193.252 535.008 193.083C525.406 190.51 519.707 180.64 522.28 171.038C524.853 161.435 534.723 155.737 544.326 158.31C544.956 158.479 545.57 158.679 546.165 158.909L557.196 117.741L476.058 96Z" fill="#080708"/>
</g>
<path d="M440.197 204.259L409.138 88.3483L328 110.089L330.396 119.03C332.244 119.175 333.885 120.461 334.392 122.353C334.899 124.245 334.121 126.179 332.593 127.228L334.278 133.519C336.126 133.664 337.767 134.949 338.274 136.842C338.781 138.734 338.003 140.668 336.475 141.717L338.871 150.658C348.473 148.085 358.343 153.784 360.916 163.386C363.489 172.988 357.79 182.858 348.188 185.431L350.584 194.372C352.432 194.517 354.073 195.803 354.58 197.695C355.087 199.588 354.309 201.521 352.781 202.571L354.466 208.861C356.314 209.006 357.955 210.292 358.462 212.184C358.969 214.076 358.191 216.01 356.663 217.059L359.059 226L440.197 204.259Z" fill="#F5EEEB" stroke="#080708" stroke-width="2"/>
<circle cx="404.307" cy="168.841" r="7.5" transform="rotate(-105 404.307 168.841)" fill="#080708"/>
<circle cx="391.107" cy="119.579" r="7.5" transform="rotate(-105 391.107 119.579)" fill="#080708"/>
<path d="M420.614 83.1582L425.841 88.3857" stroke="#080708" stroke-width="2" stroke-linecap="square"/>
<path d="M439.781 75.2192L439.781 82.6121" stroke="#080708" stroke-width="2" stroke-linecap="square"/>
<path d="M458.949 83.1592L453.722 88.3867" stroke="#080708" stroke-width="2" stroke-linecap="square"/>
<path d="M471.255 88.3467L440.196 204.258L521.334 225.999L523.73 217.058C522.201 216.009 521.423 214.075 521.93 212.182C522.437 210.29 524.078 209.004 525.927 208.859L527.612 202.569C526.084 201.52 525.306 199.586 525.813 197.693C526.32 195.801 527.961 194.515 529.809 194.37L532.204 185.43C522.602 182.857 516.904 172.987 519.477 163.384C522.049 153.782 531.92 148.083 541.522 150.656L543.918 141.716C542.389 140.667 541.611 138.732 542.118 136.84C542.625 134.947 544.266 133.661 546.114 133.517L547.8 127.227C546.272 126.178 545.493 124.244 546 122.351C546.508 120.458 548.149 119.172 549.997 119.028L552.392 110.087L471.255 88.3467Z" fill="#F5EEEB" stroke="#080708" stroke-width="2"/>
<path d="M477.202 124.106C486.804 126.678 492.503 136.549 489.93 146.151C487.357 155.753 477.487 161.452 467.884 158.879" stroke="#080708" stroke-width="2"/>
<mask id="mask1_74_6994" style="mask-type:alpha" maskUnits="userSpaceOnUse" x="328" y="88" width="113" height="138">
<rect x="409.138" y="88" width="120" height="84" transform="rotate(75 409.138 88)" fill="#359D72"/>
</mask>
<g mask="url(#mask1_74_6994)">
<path d="M386.5 211C395.613 211 403 203.613 403 194.5V194.5C403 185.387 395.613 178 386.5 178L271 178L271 211L386.5 211Z" fill="#080708"/>
<path d="M365.5 178C374.613 178 382 170.613 382 161.5V161.5C382 152.387 374.613 145 365.5 145L250 145L250 178L365.5 178Z" fill="#080708"/>
<path d="M370.5 237C379.613 237 387 229.613 387 220.5V220.5C387 211.387 379.613 204 370.5 204L272 204L272 237L370.5 237Z" fill="#080708"/>
<path d="M370.5 238C380.165 238 388 230.165 388 220.5C388 210.835 380.165 203 370.5 203L370.5 205C379.06 205 386 211.94 386 220.5C386 229.06 379.06 236 370.5 236L370.5 238ZM272 204L272 237L272 204ZM272 238L370.5 238C380.165 238 388 230.165 388 220.5L386 220.5C386 229.06 379.06 236 370.5 236L272 236L272 238ZM388 220.5C388 210.835 380.165 203 370.5 203L272 203L272 205L370.5 205C379.06 205 386 211.94 386 220.5L388 220.5Z" fill="#080708"/>
</g>
<path d="M261.702 118.158C267.501 111.716 267.501 101.273 261.702 94.8311C255.903 88.3896 246.5 88.3896 240.701 94.8311L182.726 159.227C182.672 159.286 182.618 159.346 182.565 159.405L182.471 159.51L181.991 160.042L181.996 160.047C180.616 161.624 179.307 163.277 178.074 165L23 165V255L184.8 255C195.332 265.566 209.29 272 224.6 272H338.5C347.613 272 355 264.613 355 255.5C355 246.387 347.613 239 338.5 239H363.5C372.613 239 380 231.613 380 222.5C380 213.387 372.613 206 363.5 206H380.5C389.613 206 397 198.613 397 189.5C397 180.387 389.613 173 380.5 173H360.5C369.613 173 377 165.613 377 156.5C377 147.387 369.613 140 360.5 140L241.998 140.044L261.702 118.158Z" fill="var(--highlight)" stroke="#080708" stroke-width="2"/>
<ellipse cx="23.5" cy="210" rx="22.5" ry="45" fill="#080708" stroke="#080708" stroke-width="2"/>
<ellipse cx="23.5" cy="210" rx="7.5" ry="15" fill="var(--highlight)" stroke="#080708" stroke-width="2"/>
<ellipse cx="23.5" cy="210" rx="18.5" ry="41" stroke="var(--highlight)" stroke-width="2"/>
<path d="M96 257C107.172 257 116.229 235.957 116.229 210C116.229 184.043 107.172 163 96 163H124.771C135.943 163 145 184.043 145 210C145 235.957 135.943 257 124.771 257H96Z" fill="#080708"/>
<path fill-rule="evenodd" clip-rule="evenodd" d="M103.173 167.407C100.879 165.152 98.4565 164 96 164V162H124.771C127.9 162 130.799 163.478 133.346 165.98C135.888 168.478 138.131 172.044 139.993 176.371C143.72 185.028 146 196.919 146 210C146 223.081 143.72 234.972 139.993 243.629C138.131 247.956 135.888 251.522 133.346 254.02C130.799 256.522 127.9 258 124.771 258H96V256C98.4565 256 100.879 254.848 103.173 252.593C105.472 250.335 107.587 247.017 109.386 242.839C112.981 234.486 115.229 222.876 115.229 210C115.229 197.124 112.981 185.514 109.386 177.161C107.587 172.983 105.472 169.665 103.173 167.407ZM102.166 256H124.771C127.227 256 129.65 254.848 131.944 252.593C134.242 250.335 136.358 247.017 138.156 242.839C141.752 234.486 144 222.876 144 210C144 197.124 141.752 185.514 138.156 177.161C136.358 172.983 134.242 169.665 131.944 167.407C129.65 165.152 127.227 164 124.771 164H102.166C102.999 164.558 103.803 165.222 104.575 165.98C107.117 168.478 109.36 172.044 111.223 176.371C114.949 185.028 117.229 196.919 117.229 210C117.229 223.081 114.949 234.972 111.223 243.629C109.36 247.956 107.117 251.522 104.575 254.02C103.803 254.778 102.999 255.442 102.166 256Z" fill="#080708"/>
<path d="M104.439 177.198C104.819 175.337 106.457 174 108.357 174H137.643C139.543 174 141.181 175.337 141.561 177.198L144.017 189.198C144.525 191.678 142.63 194 140.098 194H105.902C103.37 194 101.475 191.678 101.983 189.198L104.439 177.198Z" fill="var(--highlight)" stroke="#080708" stroke-width="2"/>
<path d="M104.439 241.802C104.819 243.663 106.457 245 108.357 245H137.643C139.543 245 141.181 243.663 141.561 241.802L144.017 229.802C144.525 227.322 142.63 225 140.098 225H105.902C103.37 225 101.475 227.322 101.983 229.802L104.439 241.802Z" fill="var(--highlight)" stroke="#080708" stroke-width="2"/>
<mask id="mask2_74_6994" style="mask-type:alpha" maskUnits="userSpaceOnUse" x="101" y="225" width="44" height="20">
<path d="M104.439 241.802C104.819 243.663 106.457 245 108.357 245H137.643C139.543 245 141.181 243.663 141.561 241.802L144.017 229.802C144.525 227.322 142.63 225 140.098 225H105.902C103.37 225 101.475 227.322 101.983 229.802L104.439 241.802Z" fill="#359D72"/>
</mask>
<g mask="url(#mask2_74_6994)">
<circle cx="123" cy="213" r="28" fill="#080708"/>
</g>
<circle cx="123" cy="210" r="31" fill="var(--highlight)" stroke="#080708" stroke-width="2"/>
<circle cx="123" cy="210" r="27" fill="var(--highlight)" stroke="#080708" stroke-width="2"/>
<path d="M114.768 199.742C114.216 198.785 114.544 197.562 115.5 197.01V197.01C116.457 196.457 117.68 196.785 118.232 197.742L124.732 209L121.268 211L114.768 199.742Z" fill="#080708"/>
<path d="M123 187V191" stroke="#080708" stroke-width="2" stroke-linecap="round" stroke-linejoin="round"/>
<path d="M134.5 190.082L132.5 193.546" stroke="#080708" stroke-width="2" stroke-linecap="round" stroke-linejoin="round"/>
<path d="M142.918 198.5L139.454 200.5" stroke="#080708" stroke-width="2" stroke-linecap="round" stroke-linejoin="round"/>
<path d="M146 210H142" stroke="#080708" stroke-width="2" stroke-linecap="round" stroke-linejoin="round"/>
<path d="M142.918 221.5L139.454 219.5" stroke="#080708" stroke-width="2" stroke-linecap="round" stroke-linejoin="round"/>
<path d="M134.5 229.918L132.5 226.454" stroke="#080708" stroke-width="2" stroke-linecap="round" stroke-linejoin="round"/>
<path d="M123 233V229" stroke="#080708" stroke-width="2" stroke-linecap="round" stroke-linejoin="round"/>
<path d="M111.5 229.918L113.5 226.454" stroke="#080708" stroke-width="2" stroke-linecap="round" stroke-linejoin="round"/>
<path d="M103.082 221.5L106.546 219.5" stroke="#080708" stroke-width="2" stroke-linecap="round" stroke-linejoin="round"/>
<path d="M100 210H104" stroke="#080708" stroke-width="2" stroke-linecap="round" stroke-linejoin="round"/>
<path d="M103.082 198.5L106.546 200.5" stroke="#080708" stroke-width="2" stroke-linecap="round" stroke-linejoin="round"/>
<path d="M111.5 190.082L113.5 193.546" stroke="#080708" stroke-width="2" stroke-linecap="round" stroke-linejoin="round"/>
<rect x="139.264" y="192.322" width="2" height="24" rx="1" transform="rotate(45 139.264 192.322)" fill="#080708"/>
<circle cx="123" cy="210" r="3" fill="var(--highlight)" stroke="#080708" stroke-width="2"/>
<path d="M123 213C124.657 213 126 211.657 126 210H120C120 211.657 121.343 213 123 213Z" fill="#080708"/>
<path d="M94 165C94 163.895 94.8954 163 96 163V163V165H94V165Z" fill="#080708"/>
<path d="M93 165C93 163.343 94.3431 162 96 162V163V165H93Z" fill="#080708"/>
<path d="M93 165C93 163.343 94.3431 162 96 162V163V165H93Z" fill="#080708"/>
<path d="M93 255C93 256.657 94.3431 258 96 258V255H93Z" fill="#080708"/>
<path d="M0 399H887" stroke="#080708" stroke-width="2"/>
<path d="M708.849 245.307L703.321 238.641L711.858 237.187L710.67 240.392L710.137 241.83L708.849 245.307Z" fill="#080708"/>
<path d="M728.512 209.489L726.33 212.121L723.321 204L731.858 205.454L729.491 208.309L728.512 209.489Z" fill="#080708"/>
<path d="M727.889 207.611C733.785 213.872 735.162 223.49 730.641 231.321C726.072 239.235 716.911 242.844 708.466 240.728" stroke="#080708" stroke-width="2" stroke-linecap="square"/>
<circle cx="699.464" cy="213.321" r="4" transform="rotate(-60 699.464 213.321)" fill="var(--highlight)" stroke="#080708" stroke-width="2"/>
<path d="M702.928 215.321L730.641 231.321" stroke="black" stroke-width="2"/>
<path d="M705.125 223.517L711.125 213.124" stroke="black" stroke-width="2" stroke-linecap="round"/>
<path d="M266 173H362" stroke="#080708" stroke-width="2"/>
<path d="M266 206H366" stroke="#080708" stroke-width="2"/>
<path d="M266 239H341" stroke="#080708" stroke-width="2"/>
<defs>
<clipPath id="clip0_74_6994">
<rect width="53" height="41" fill="white" transform="translate(722 164)"/>
</clipPath>
</defs>
</svg>
