<svg width="1000" height="756" viewBox="0 0 1000 756" fill="none" xmlns="http://www.w3.org/2000/svg">
<path d="M390 523C390 520.239 392.239 518 395 518H605C607.761 518 610 520.239 610 523V568H390V523Z" fill="#F76239"/>
<path d="M471.099 548V538.228H472.583V548H471.099ZM468.649 538.228H475.019V539.488H468.649V538.228ZM468.649 546.74H475.019V548H468.649V546.74ZM477.614 548V538.228H479.462L483.536 546.068L483.424 543.044V538.228H484.852V548H483.018L478.916 540.244L479.042 543.17V548H477.614ZM487.028 548V538.228H490.038C490.747 538.228 491.386 538.345 491.956 538.578C492.525 538.802 493.01 539.129 493.412 539.558C493.813 539.978 494.121 540.487 494.336 541.084C494.55 541.681 494.658 542.349 494.658 543.086C494.658 543.833 494.55 544.509 494.336 545.116C494.121 545.713 493.813 546.231 493.412 546.67C493.01 547.099 492.525 547.431 491.956 547.664C491.386 547.888 490.747 548 490.038 548H487.028ZM488.512 546.74H490.038C490.672 546.74 491.218 546.591 491.676 546.292C492.133 545.984 492.483 545.555 492.726 545.004C492.978 544.453 493.104 543.814 493.104 543.086C493.104 542.349 492.978 541.714 492.726 541.182C492.483 540.641 492.133 540.225 491.676 539.936C491.218 539.637 490.672 539.488 490.038 539.488H488.512V546.74ZM496.609 548V538.228H503.623V539.488H498.093V542.302H501.901V543.562H498.093V546.74H503.679V548H496.609ZM505.393 548L508.361 543.016L505.491 538.228H507.185L508.557 540.51L509.397 541.994L510.237 540.496L511.609 538.228H513.275L510.405 542.96L513.401 548H511.735L510.237 545.494L509.397 543.996L508.557 545.494L507.045 548H505.393ZM515.38 548V538.228H522.394V539.488H516.864V542.302H520.672V543.562H516.864V546.74H522.45V548H515.38ZM528.294 548.168C527.538 548.168 526.88 548.023 526.32 547.734C525.76 547.445 525.326 547.029 525.018 546.488C524.71 545.947 524.556 545.289 524.556 544.514H526.026C526.026 545.279 526.226 545.872 526.628 546.292C527.029 546.703 527.58 546.908 528.28 546.908C528.877 546.908 529.358 546.773 529.722 546.502C530.086 546.222 530.268 545.835 530.268 545.34C530.268 545.004 530.165 544.733 529.96 544.528C529.764 544.323 529.498 544.155 529.162 544.024C528.835 543.893 528.476 543.777 528.084 543.674C527.692 543.571 527.295 543.459 526.894 543.338C526.502 543.207 526.138 543.044 525.802 542.848C525.475 542.652 525.209 542.391 525.004 542.064C524.808 541.737 524.71 541.322 524.71 540.818C524.71 540.286 524.85 539.815 525.13 539.404C525.419 538.984 525.816 538.657 526.32 538.424C526.833 538.181 527.435 538.06 528.126 538.06C528.798 538.06 529.4 538.186 529.932 538.438C530.464 538.681 530.888 539.031 531.206 539.488C531.532 539.936 531.7 540.477 531.71 541.112H530.226C530.216 540.739 530.114 540.421 529.918 540.16C529.731 539.889 529.479 539.684 529.162 539.544C528.854 539.395 528.508 539.32 528.126 539.32C527.575 539.32 527.127 539.451 526.782 539.712C526.436 539.973 526.264 540.328 526.264 540.776C526.264 541.093 526.362 541.345 526.558 541.532C526.763 541.719 527.029 541.873 527.356 541.994C527.692 542.106 528.056 542.213 528.448 542.316C528.849 542.409 529.246 542.521 529.638 542.652C530.03 542.773 530.389 542.941 530.716 543.156C531.052 543.361 531.318 543.641 531.514 543.996C531.719 544.341 531.822 544.785 531.822 545.326C531.822 545.905 531.668 546.409 531.36 546.838C531.052 547.258 530.632 547.585 530.1 547.818C529.568 548.051 528.966 548.168 528.294 548.168Z" fill="#080708"/>
<mask id="path-3-inside-1_484_11095" fill="white">
<path d="M390 568H610V750C610 753.314 607.314 756 604 756H395C392.239 756 390 753.761 390 751V568Z"/>
</mask>
<path d="M390 568H610V750C610 753.314 607.314 756 604 756H395C392.239 756 390 753.761 390 751V568Z" fill="#F76239"/>
<path d="M390 567H610V569H390V567ZM610 756H390H610ZM390 756V568V756ZM610 568V756V568Z" fill="#080708" mask="url(#path-3-inside-1_484_11095)"/>
<rect x="400" y="578" width="200" height="50" rx="5" fill="#080708"/>
<path d="M476.674 608.168C475.918 608.168 475.26 608.023 474.7 607.734C474.14 607.445 473.706 607.029 473.398 606.488C473.09 605.947 472.936 605.289 472.936 604.514H474.406C474.406 605.279 474.606 605.872 475.008 606.292C475.409 606.703 475.96 606.908 476.66 606.908C477.257 606.908 477.738 606.773 478.102 606.502C478.466 606.222 478.648 605.835 478.648 605.34C478.648 605.004 478.545 604.733 478.34 604.528C478.144 604.323 477.878 604.155 477.542 604.024C477.215 603.893 476.856 603.777 476.464 603.674C476.072 603.571 475.675 603.459 475.274 603.338C474.882 603.207 474.518 603.044 474.182 602.848C473.855 602.652 473.589 602.391 473.384 602.064C473.188 601.737 473.09 601.322 473.09 600.818C473.09 600.286 473.23 599.815 473.51 599.404C473.799 598.984 474.196 598.657 474.7 598.424C475.213 598.181 475.815 598.06 476.506 598.06C477.178 598.06 477.78 598.186 478.312 598.438C478.844 598.681 479.268 599.031 479.586 599.488C479.912 599.936 480.08 600.477 480.09 601.112H478.606C478.596 600.739 478.494 600.421 478.298 600.16C478.111 599.889 477.859 599.684 477.542 599.544C477.234 599.395 476.888 599.32 476.506 599.32C475.955 599.32 475.507 599.451 475.162 599.712C474.816 599.973 474.644 600.328 474.644 600.776C474.644 601.093 474.742 601.345 474.938 601.532C475.143 601.719 475.409 601.873 475.736 601.994C476.072 602.106 476.436 602.213 476.828 602.316C477.229 602.409 477.626 602.521 478.018 602.652C478.41 602.773 478.769 602.941 479.096 603.156C479.432 603.361 479.698 603.641 479.894 603.996C480.099 604.341 480.202 604.785 480.202 605.326C480.202 605.905 480.048 606.409 479.74 606.838C479.432 607.258 479.012 607.585 478.48 607.818C477.948 608.051 477.346 608.168 476.674 608.168ZM482.531 608V598.228H489.545V599.488H484.015V602.302H487.823V603.562H484.015V606.74H489.601V608H482.531ZM492.673 605.536V604.276H498.091V605.536H492.673ZM494.241 598.228H496.369L499.393 608H497.867L495.893 601.532L495.305 599.39L494.717 601.546L492.715 608H491.217L494.241 598.228ZM502.394 603.912V602.652H504.872C505.283 602.652 505.642 602.587 505.95 602.456C506.267 602.316 506.515 602.12 506.692 601.868C506.879 601.616 506.972 601.327 506.972 601C506.972 600.683 506.893 600.412 506.734 600.188C506.575 599.964 506.361 599.791 506.09 599.67C505.819 599.549 505.516 599.488 505.18 599.488H502.394V598.228H505.18C505.824 598.228 506.398 598.34 506.902 598.564C507.406 598.779 507.803 599.091 508.092 599.502C508.381 599.913 508.526 600.412 508.526 601C508.526 601.373 508.437 601.733 508.26 602.078C508.092 602.423 507.845 602.736 507.518 603.016C507.201 603.287 506.813 603.506 506.356 603.674C505.899 603.833 505.381 603.912 504.802 603.912H502.394ZM501.33 608V598.228H502.814V608H501.33ZM506.944 608C506.888 607.561 506.767 607.127 506.58 606.698C506.403 606.269 506.16 605.858 505.852 605.466C505.544 605.074 505.161 604.71 504.704 604.374C504.256 604.038 503.733 603.735 503.136 603.464L504.788 603.1C505.404 603.408 505.931 603.753 506.37 604.136C506.818 604.509 507.187 604.906 507.476 605.326C507.775 605.746 507.999 606.18 508.148 606.628C508.307 607.076 508.409 607.533 508.456 608H506.944ZM514.243 608.168C513.385 608.168 512.638 607.953 512.003 607.524C511.378 607.085 510.893 606.488 510.547 605.732C510.211 604.967 510.043 604.089 510.043 603.1C510.043 602.073 510.221 601.182 510.575 600.426C510.93 599.67 511.425 599.087 512.059 598.676C512.703 598.265 513.45 598.06 514.299 598.06C514.981 598.06 515.597 598.195 516.147 598.466C516.707 598.727 517.16 599.11 517.505 599.614C517.86 600.109 518.065 600.701 518.121 601.392H516.497C516.423 600.767 516.189 600.267 515.797 599.894C515.405 599.511 514.901 599.32 514.285 599.32C513.753 599.32 513.282 599.474 512.871 599.782C512.47 600.081 512.157 600.515 511.933 601.084C511.709 601.653 511.597 602.33 511.597 603.114C511.597 603.898 511.709 604.575 511.933 605.144C512.167 605.713 512.484 606.152 512.885 606.46C513.287 606.759 513.739 606.908 514.243 606.908C514.682 606.908 515.065 606.819 515.391 606.642C515.718 606.455 515.979 606.199 516.175 605.872C516.381 605.545 516.502 605.163 516.539 604.724H518.177C518.112 605.415 517.911 606.021 517.575 606.544C517.239 607.057 516.787 607.459 516.217 607.748C515.657 608.028 514.999 608.168 514.243 608.168ZM525.617 608V598.228H527.101V608H525.617ZM519.835 608V598.228H521.319V608H519.835ZM521.109 603.562V602.302H525.813V603.562H521.109Z" fill="#F5EEEB"/>
<rect x="400" y="637" width="200" height="50" rx="5" fill="#080708"/>
<path d="M438.25 667V658.488H435.1V657.228H442.884V658.488H439.734V667H438.25ZM448.391 667.168C447.561 667.168 446.837 666.963 446.221 666.552C445.605 666.132 445.125 665.544 444.779 664.788C444.443 664.032 444.275 663.141 444.275 662.114C444.275 661.078 444.443 660.182 444.779 659.426C445.125 658.67 445.605 658.087 446.221 657.676C446.837 657.265 447.561 657.06 448.391 657.06C449.222 657.06 449.945 657.265 450.561 657.676C451.177 658.087 451.653 658.67 451.989 659.426C452.335 660.182 452.507 661.078 452.507 662.114C452.507 663.141 452.335 664.032 451.989 664.788C451.653 665.544 451.177 666.132 450.561 666.552C449.945 666.963 449.222 667.168 448.391 667.168ZM448.391 665.908C448.905 665.908 449.353 665.754 449.735 665.446C450.118 665.138 450.417 664.699 450.631 664.13C450.846 663.561 450.953 662.889 450.953 662.114C450.953 661.33 450.846 660.658 450.631 660.098C450.417 659.529 450.118 659.09 449.735 658.782C449.353 658.474 448.905 658.32 448.391 658.32C447.887 658.32 447.439 658.474 447.047 658.782C446.665 659.09 446.366 659.529 446.151 660.098C445.937 660.667 445.829 661.339 445.829 662.114C445.829 662.889 445.937 663.561 446.151 664.13C446.366 664.699 446.665 665.138 447.047 665.446C447.439 665.754 447.887 665.908 448.391 665.908ZM455.411 663.43V662.17H457.959C458.584 662.17 459.088 661.997 459.471 661.652C459.853 661.307 460.045 660.854 460.045 660.294C460.045 659.753 459.867 659.319 459.513 658.992C459.158 658.656 458.687 658.488 458.099 658.488H455.411V657.228H458.099C458.808 657.228 459.424 657.354 459.947 657.606C460.469 657.858 460.875 658.213 461.165 658.67C461.454 659.127 461.599 659.669 461.599 660.294C461.599 660.919 461.449 661.47 461.151 661.946C460.852 662.413 460.427 662.777 459.877 663.038C459.335 663.299 458.701 663.43 457.973 663.43H455.411ZM454.347 667V657.228H455.831V667H454.347ZM466.406 667V657.228H467.89V667H466.406ZM463.956 657.228H470.326V658.488H463.956V657.228ZM463.956 665.74H470.326V667H463.956V665.74ZM476.702 667.168C475.843 667.168 475.096 666.953 474.462 666.524C473.836 666.085 473.351 665.488 473.006 664.732C472.67 663.967 472.502 663.089 472.502 662.1C472.502 661.073 472.679 660.182 473.034 659.426C473.388 658.67 473.883 658.087 474.518 657.676C475.162 657.265 475.908 657.06 476.758 657.06C477.439 657.06 478.055 657.195 478.606 657.466C479.166 657.727 479.618 658.11 479.964 658.614C480.318 659.109 480.524 659.701 480.58 660.392H478.956C478.881 659.767 478.648 659.267 478.256 658.894C477.864 658.511 477.36 658.32 476.744 658.32C476.212 658.32 475.74 658.474 475.33 658.782C474.928 659.081 474.616 659.515 474.392 660.084C474.168 660.653 474.056 661.33 474.056 662.114C474.056 662.898 474.168 663.575 474.392 664.144C474.625 664.713 474.942 665.152 475.344 665.46C475.745 665.759 476.198 665.908 476.702 665.908C477.14 665.908 477.523 665.819 477.85 665.642C478.176 665.455 478.438 665.199 478.634 664.872C478.839 664.545 478.96 664.163 478.998 663.724H480.636C480.57 664.415 480.37 665.021 480.034 665.544C479.698 666.057 479.245 666.459 478.676 666.748C478.116 667.028 477.458 667.168 476.702 667.168ZM482.475 668.358L487.893 657.214H489.363L483.945 668.358H482.475ZM495.473 667.168C494.614 667.168 493.867 666.953 493.233 666.524C492.607 666.085 492.122 665.488 491.777 664.732C491.441 663.967 491.273 663.089 491.273 662.1C491.273 661.073 491.45 660.182 491.805 659.426C492.159 658.67 492.654 658.087 493.289 657.676C493.933 657.265 494.679 657.06 495.529 657.06C496.21 657.06 496.826 657.195 497.377 657.466C497.937 657.727 498.389 658.11 498.735 658.614C499.089 659.109 499.295 659.701 499.351 660.392H497.727C497.652 659.767 497.419 659.267 497.027 658.894C496.635 658.511 496.131 658.32 495.515 658.32C494.983 658.32 494.511 658.474 494.101 658.782C493.699 659.081 493.387 659.515 493.163 660.084C492.939 660.653 492.827 661.33 492.827 662.114C492.827 662.898 492.939 663.575 493.163 664.144C493.396 664.713 493.713 665.152 494.115 665.46C494.516 665.759 494.969 665.908 495.473 665.908C495.911 665.908 496.294 665.819 496.621 665.642C496.947 665.455 497.209 665.199 497.405 664.872C497.61 664.545 497.731 664.163 497.769 663.724H499.407C499.341 664.415 499.141 665.021 498.805 665.544C498.469 666.057 498.016 666.459 497.447 666.748C496.887 667.028 496.229 667.168 495.473 667.168ZM502.058 664.536V663.276H507.476V664.536H502.058ZM503.626 657.228H505.754L508.778 667H507.252L505.278 660.532L504.69 658.39L504.102 660.546L502.1 667H500.602L503.626 657.228ZM513.333 667V658.488H510.183V657.228H517.967V658.488H514.817V667H513.333ZM520.073 667V657.228H527.087V658.488H521.557V661.302H525.365V662.562H521.557V665.74H527.143V667H520.073ZM533.042 667.168C532.174 667.168 531.418 666.958 530.774 666.538C530.13 666.118 529.626 665.53 529.262 664.774C528.908 664.018 528.73 663.131 528.73 662.114C528.73 661.106 528.912 660.224 529.276 659.468C529.64 658.712 530.149 658.124 530.802 657.704C531.456 657.275 532.216 657.06 533.084 657.06C533.756 657.06 534.358 657.191 534.89 657.452C535.432 657.713 535.87 658.091 536.206 658.586C536.542 659.081 536.738 659.678 536.794 660.378H535.156C535.082 659.753 534.858 659.253 534.484 658.88C534.12 658.507 533.644 658.32 533.056 658.32C532.534 658.32 532.062 658.474 531.642 658.782C531.232 659.081 530.905 659.515 530.662 660.084C530.42 660.644 530.298 661.321 530.298 662.114C530.298 662.926 530.42 663.617 530.662 664.186C530.914 664.746 531.255 665.175 531.684 665.474C532.123 665.763 532.613 665.908 533.154 665.908C533.63 665.908 534.05 665.824 534.414 665.656C534.778 665.479 535.082 665.255 535.324 664.984V663.052L533.616 663.108L533.672 661.834H536.794V665.418C536.412 665.969 535.894 666.398 535.24 666.706C534.596 667.014 533.864 667.168 533.042 667.168ZM542.246 667.168C541.415 667.168 540.692 666.963 540.076 666.552C539.46 666.132 538.979 665.544 538.634 664.788C538.298 664.032 538.13 663.141 538.13 662.114C538.13 661.078 538.298 660.182 538.634 659.426C538.979 658.67 539.46 658.087 540.076 657.676C540.692 657.265 541.415 657.06 542.246 657.06C543.077 657.06 543.8 657.265 544.416 657.676C545.032 658.087 545.508 658.67 545.844 659.426C546.189 660.182 546.362 661.078 546.362 662.114C546.362 663.141 546.189 664.032 545.844 664.788C545.508 665.544 545.032 666.132 544.416 666.552C543.8 666.963 543.077 667.168 542.246 667.168ZM542.246 665.908C542.759 665.908 543.207 665.754 543.59 665.446C543.973 665.138 544.271 664.699 544.486 664.13C544.701 663.561 544.808 662.889 544.808 662.114C544.808 661.33 544.701 660.658 544.486 660.098C544.271 659.529 543.973 659.09 543.59 658.782C543.207 658.474 542.759 658.32 542.246 658.32C541.742 658.32 541.294 658.474 540.902 658.782C540.519 659.09 540.221 659.529 540.006 660.098C539.791 660.667 539.684 661.339 539.684 662.114C539.684 662.889 539.791 663.561 540.006 664.13C540.221 664.699 540.519 665.138 540.902 665.446C541.294 665.754 541.742 665.908 542.246 665.908ZM549.321 662.912V661.652H551.799C552.21 661.652 552.569 661.587 552.877 661.456C553.195 661.316 553.442 661.12 553.619 660.868C553.806 660.616 553.899 660.327 553.899 660C553.899 659.683 553.82 659.412 553.661 659.188C553.503 658.964 553.288 658.791 553.017 658.67C552.747 658.549 552.443 658.488 552.107 658.488H549.321V657.228H552.107C552.751 657.228 553.325 657.34 553.829 657.564C554.333 657.779 554.73 658.091 555.019 658.502C555.309 658.913 555.453 659.412 555.453 660C555.453 660.373 555.365 660.733 555.187 661.078C555.019 661.423 554.772 661.736 554.445 662.016C554.128 662.287 553.741 662.506 553.283 662.674C552.826 662.833 552.308 662.912 551.729 662.912H549.321ZM548.257 667V657.228H549.741V667H548.257ZM553.871 667C553.815 666.561 553.694 666.127 553.507 665.698C553.33 665.269 553.087 664.858 552.779 664.466C552.471 664.074 552.089 663.71 551.631 663.374C551.183 663.038 550.661 662.735 550.063 662.464L551.715 662.1C552.331 662.408 552.859 662.753 553.297 663.136C553.745 663.509 554.114 663.906 554.403 664.326C554.702 664.746 554.926 665.18 555.075 665.628C555.234 666.076 555.337 666.533 555.383 667H553.871ZM560.233 667V663.038L556.999 657.228H558.623L560.135 659.916L561.003 661.75L561.885 659.902L563.397 657.228H565.007L561.717 663.038V667H560.233Z" fill="#F5EEEB"/>
<rect x="400" y="696" width="200" height="50" rx="5" fill="#080708"/>
<path d="M464.516 723.536V722.276H469.934V723.536H464.516ZM466.084 716.228H468.212L471.236 726H469.71L467.736 719.532L467.148 717.39L466.56 719.546L464.558 726H463.06L466.084 716.228ZM474.238 721.912V720.652H476.716C477.126 720.652 477.486 720.587 477.794 720.456C478.111 720.316 478.358 720.12 478.536 719.868C478.722 719.616 478.816 719.327 478.816 719C478.816 718.683 478.736 718.412 478.578 718.188C478.419 717.964 478.204 717.791 477.934 717.67C477.663 717.549 477.36 717.488 477.024 717.488H474.238V716.228H477.024C477.668 716.228 478.242 716.34 478.746 716.564C479.25 716.779 479.646 717.091 479.936 717.502C480.225 717.913 480.37 718.412 480.37 719C480.37 719.373 480.281 719.733 480.104 720.078C479.936 720.423 479.688 720.736 479.362 721.016C479.044 721.287 478.657 721.506 478.2 721.674C477.742 721.833 477.224 721.912 476.646 721.912H474.238ZM473.174 726V716.228H474.658V726H473.174ZM478.788 726C478.732 725.561 478.61 725.127 478.424 724.698C478.246 724.269 478.004 723.858 477.696 723.466C477.388 723.074 477.005 722.71 476.548 722.374C476.1 722.038 475.577 721.735 474.98 721.464L476.632 721.1C477.248 721.408 477.775 721.753 478.214 722.136C478.662 722.509 479.03 722.906 479.32 723.326C479.618 723.746 479.842 724.18 479.992 724.628C480.15 725.076 480.253 725.533 480.3 726H478.788ZM486.087 726.168C485.228 726.168 484.482 725.953 483.847 725.524C483.222 725.085 482.736 724.488 482.391 723.732C482.055 722.967 481.887 722.089 481.887 721.1C481.887 720.073 482.064 719.182 482.419 718.426C482.774 717.67 483.268 717.087 483.903 716.676C484.547 716.265 485.294 716.06 486.143 716.06C486.824 716.06 487.44 716.195 487.991 716.466C488.551 716.727 489.004 717.11 489.349 717.614C489.704 718.109 489.909 718.701 489.965 719.392H488.341C488.266 718.767 488.033 718.267 487.641 717.894C487.249 717.511 486.745 717.32 486.129 717.32C485.597 717.32 485.126 717.474 484.715 717.782C484.314 718.081 484.001 718.515 483.777 719.084C483.553 719.653 483.441 720.33 483.441 721.114C483.441 721.898 483.553 722.575 483.777 723.144C484.01 723.713 484.328 724.152 484.729 724.46C485.13 724.759 485.583 724.908 486.087 724.908C486.526 724.908 486.908 724.819 487.235 724.642C487.562 724.455 487.823 724.199 488.019 723.872C488.224 723.545 488.346 723.163 488.383 722.724H490.021C489.956 723.415 489.755 724.021 489.419 724.544C489.083 725.057 488.63 725.459 488.061 725.748C487.501 726.028 486.843 726.168 486.087 726.168ZM497.461 726V716.228H498.945V726H497.461ZM491.679 726V716.228H493.163V726H491.679ZM492.953 721.562V720.302H497.657V721.562H492.953ZM503.948 726V716.228H505.432V726H503.948ZM501.498 716.228H507.868V717.488H501.498V716.228ZM501.498 724.74H507.868V726H501.498V724.74ZM513.011 726L509.959 716.228H511.513L513.571 722.64L514.103 724.754L514.621 722.654L516.693 716.228H518.205L515.153 726H513.011ZM520.073 726V716.228H527.087V717.488H521.557V720.302H525.365V721.562H521.557V724.74H527.143V726H520.073ZM532.986 726.168C532.23 726.168 531.572 726.023 531.012 725.734C530.452 725.445 530.018 725.029 529.71 724.488C529.402 723.947 529.248 723.289 529.248 722.514H530.718C530.718 723.279 530.919 723.872 531.32 724.292C531.722 724.703 532.272 724.908 532.972 724.908C533.57 724.908 534.05 724.773 534.414 724.502C534.778 724.222 534.96 723.835 534.96 723.34C534.96 723.004 534.858 722.733 534.652 722.528C534.456 722.323 534.19 722.155 533.854 722.024C533.528 721.893 533.168 721.777 532.776 721.674C532.384 721.571 531.988 721.459 531.586 721.338C531.194 721.207 530.83 721.044 530.494 720.848C530.168 720.652 529.902 720.391 529.696 720.064C529.5 719.737 529.402 719.322 529.402 718.818C529.402 718.286 529.542 717.815 529.822 717.404C530.112 716.984 530.508 716.657 531.012 716.424C531.526 716.181 532.128 716.06 532.818 716.06C533.49 716.06 534.092 716.186 534.624 716.438C535.156 716.681 535.581 717.031 535.898 717.488C536.225 717.936 536.393 718.477 536.402 719.112H534.918C534.909 718.739 534.806 718.421 534.61 718.16C534.424 717.889 534.172 717.684 533.854 717.544C533.546 717.395 533.201 717.32 532.818 717.32C532.268 717.32 531.82 717.451 531.474 717.712C531.129 717.973 530.956 718.328 530.956 718.776C530.956 719.093 531.054 719.345 531.25 719.532C531.456 719.719 531.722 719.873 532.048 719.994C532.384 720.106 532.748 720.213 533.14 720.316C533.542 720.409 533.938 720.521 534.33 720.652C534.722 720.773 535.082 720.941 535.408 721.156C535.744 721.361 536.01 721.641 536.206 721.996C536.412 722.341 536.514 722.785 536.514 723.326C536.514 723.905 536.36 724.409 536.052 724.838C535.744 725.258 535.324 725.585 534.792 725.818C534.26 726.051 533.658 726.168 532.986 726.168Z" fill="#F5EEEB"/>
<rect x="450" width="100" height="100" rx="50" fill="#F5EEEB"/>
<path d="M477.838 55V45.228H484.852V46.488H479.322V49.302H483.13V50.562H479.322V53.74H484.908V55H477.838ZM486.426 55L487.154 45.228H489.1L490.346 51.01L490.64 52.914L490.948 51.01L492.166 45.228H494.084L494.826 55H493.356L493.034 48.882L492.978 46.726L492.558 48.882L491.228 55H489.968L488.652 48.882L488.26 46.698L488.176 48.882L487.868 55H486.426ZM497.365 52.536V51.276H502.783V52.536H497.365ZM498.933 45.228H501.061L504.085 55H502.559L500.585 48.532L499.997 46.39L499.409 48.546L497.407 55H495.909L498.933 45.228ZM508.641 55V45.228H510.125V55H508.641ZM506.191 45.228H512.561V46.488H506.191V45.228ZM506.191 53.74H512.561V55H506.191V53.74ZM515.758 55V45.228H517.242V53.74H522.366V55H515.758Z" fill="#080708"/>
<path d="M390 195C390 192.239 392.239 190 395 190H605C607.761 190 610 192.239 610 195V240H390V195Z" fill="#7895FF"/>
<path d="M445.367 220V210.228H446.851V218.74H451.975V220H445.367ZM455.131 217.536V216.276H460.549V217.536H455.131ZM456.699 210.228H458.827L461.851 220H460.325L458.351 213.532L457.763 211.39L457.175 213.546L455.173 220H453.675L456.699 210.228ZM466.406 220V211.488H463.256V210.228H471.04V211.488H467.89V220H466.406ZM473.146 220V210.228H480.16V211.488H474.63V214.302H478.438V215.562H474.63V218.74H480.216V220H473.146ZM486.059 220.168C485.303 220.168 484.645 220.023 484.085 219.734C483.525 219.445 483.091 219.029 482.783 218.488C482.475 217.947 482.321 217.289 482.321 216.514H483.791C483.791 217.279 483.992 217.872 484.393 218.292C484.794 218.703 485.345 218.908 486.045 218.908C486.642 218.908 487.123 218.773 487.487 218.502C487.851 218.222 488.033 217.835 488.033 217.34C488.033 217.004 487.93 216.733 487.725 216.528C487.529 216.323 487.263 216.155 486.927 216.024C486.6 215.893 486.241 215.777 485.849 215.674C485.457 215.571 485.06 215.459 484.659 215.338C484.267 215.207 483.903 215.044 483.567 214.848C483.24 214.652 482.974 214.391 482.769 214.064C482.573 213.737 482.475 213.322 482.475 212.818C482.475 212.286 482.615 211.815 482.895 211.404C483.184 210.984 483.581 210.657 484.085 210.424C484.598 210.181 485.2 210.06 485.891 210.06C486.563 210.06 487.165 210.186 487.697 210.438C488.229 210.681 488.654 211.031 488.971 211.488C489.298 211.936 489.466 212.477 489.475 213.112H487.991C487.982 212.739 487.879 212.421 487.683 212.16C487.496 211.889 487.244 211.684 486.927 211.544C486.619 211.395 486.274 211.32 485.891 211.32C485.34 211.32 484.892 211.451 484.547 211.712C484.202 211.973 484.029 212.328 484.029 212.776C484.029 213.093 484.127 213.345 484.323 213.532C484.528 213.719 484.794 213.873 485.121 213.994C485.457 214.106 485.821 214.213 486.213 214.316C486.614 214.409 487.011 214.521 487.403 214.652C487.795 214.773 488.154 214.941 488.481 215.156C488.817 215.361 489.083 215.641 489.279 215.996C489.484 216.341 489.587 216.785 489.587 217.326C489.587 217.905 489.433 218.409 489.125 218.838C488.817 219.258 488.397 219.585 487.865 219.818C487.333 220.051 486.731 220.168 486.059 220.168ZM494.563 220V211.488H491.413V210.228H499.197V211.488H496.047V220H494.563ZM513.333 220V210.228H514.817V220H513.333ZM510.883 210.228H517.253V211.488H510.883V210.228ZM510.883 218.74H517.253V220H510.883V218.74ZM523.601 220.168C522.845 220.168 522.187 220.023 521.627 219.734C521.067 219.445 520.633 219.029 520.325 218.488C520.017 217.947 519.863 217.289 519.863 216.514H521.333C521.333 217.279 521.534 217.872 521.935 218.292C522.336 218.703 522.887 218.908 523.587 218.908C524.184 218.908 524.665 218.773 525.029 218.502C525.393 218.222 525.575 217.835 525.575 217.34C525.575 217.004 525.472 216.733 525.267 216.528C525.071 216.323 524.805 216.155 524.469 216.024C524.142 215.893 523.783 215.777 523.391 215.674C522.999 215.571 522.602 215.459 522.201 215.338C521.809 215.207 521.445 215.044 521.109 214.848C520.782 214.652 520.516 214.391 520.311 214.064C520.115 213.737 520.017 213.322 520.017 212.818C520.017 212.286 520.157 211.815 520.437 211.404C520.726 210.984 521.123 210.657 521.627 210.424C522.14 210.181 522.742 210.06 523.433 210.06C524.105 210.06 524.707 210.186 525.239 210.438C525.771 210.681 526.196 211.031 526.513 211.488C526.84 211.936 527.008 212.477 527.017 213.112H525.533C525.524 212.739 525.421 212.421 525.225 212.16C525.038 211.889 524.786 211.684 524.469 211.544C524.161 211.395 523.816 211.32 523.433 211.32C522.882 211.32 522.434 211.451 522.089 211.712C521.744 211.973 521.571 212.328 521.571 212.776C521.571 213.093 521.669 213.345 521.865 213.532C522.07 213.719 522.336 213.873 522.663 213.994C522.999 214.106 523.363 214.213 523.755 214.316C524.156 214.409 524.553 214.521 524.945 214.652C525.337 214.773 525.696 214.941 526.023 215.156C526.359 215.361 526.625 215.641 526.821 215.996C527.026 216.341 527.129 216.785 527.129 217.326C527.129 217.905 526.975 218.409 526.667 218.838C526.359 219.258 525.939 219.585 525.407 219.818C524.875 220.051 524.273 220.168 523.601 220.168ZM532.986 220.168C532.23 220.168 531.572 220.023 531.012 219.734C530.452 219.445 530.018 219.029 529.71 218.488C529.402 217.947 529.248 217.289 529.248 216.514H530.718C530.718 217.279 530.919 217.872 531.32 218.292C531.722 218.703 532.272 218.908 532.972 218.908C533.57 218.908 534.05 218.773 534.414 218.502C534.778 218.222 534.96 217.835 534.96 217.34C534.96 217.004 534.858 216.733 534.652 216.528C534.456 216.323 534.19 216.155 533.854 216.024C533.528 215.893 533.168 215.777 532.776 215.674C532.384 215.571 531.988 215.459 531.586 215.338C531.194 215.207 530.83 215.044 530.494 214.848C530.168 214.652 529.902 214.391 529.696 214.064C529.5 213.737 529.402 213.322 529.402 212.818C529.402 212.286 529.542 211.815 529.822 211.404C530.112 210.984 530.508 210.657 531.012 210.424C531.526 210.181 532.128 210.06 532.818 210.06C533.49 210.06 534.092 210.186 534.624 210.438C535.156 210.681 535.581 211.031 535.898 211.488C536.225 211.936 536.393 212.477 536.402 213.112H534.918C534.909 212.739 534.806 212.421 534.61 212.16C534.424 211.889 534.172 211.684 533.854 211.544C533.546 211.395 533.201 211.32 532.818 211.32C532.268 211.32 531.82 211.451 531.474 211.712C531.129 211.973 530.956 212.328 530.956 212.776C530.956 213.093 531.054 213.345 531.25 213.532C531.456 213.719 531.722 213.873 532.048 213.994C532.384 214.106 532.748 214.213 533.14 214.316C533.542 214.409 533.938 214.521 534.33 214.652C534.722 214.773 535.082 214.941 535.408 215.156C535.744 215.361 536.01 215.641 536.206 215.996C536.412 216.341 536.514 216.785 536.514 217.326C536.514 217.905 536.36 218.409 536.052 218.838C535.744 219.258 535.324 219.585 534.792 219.818C534.26 220.051 533.658 220.168 532.986 220.168ZM542.246 220.168C541.481 220.168 540.813 220.019 540.244 219.72C539.675 219.412 539.231 218.987 538.914 218.446C538.597 217.895 538.438 217.256 538.438 216.528V210.228H539.936V216.528C539.936 217.004 540.029 217.419 540.216 217.774C540.412 218.129 540.683 218.404 541.028 218.6C541.373 218.796 541.779 218.894 542.246 218.894C542.713 218.894 543.114 218.796 543.45 218.6C543.795 218.404 544.061 218.129 544.248 217.774C544.444 217.419 544.542 217.004 544.542 216.528V210.228H546.04V216.528C546.04 217.256 545.881 217.895 545.564 218.446C545.247 218.987 544.803 219.412 544.234 219.72C543.674 220.019 543.011 220.168 542.246 220.168ZM548.229 220V210.228H555.243V211.488H549.713V214.302H553.521V215.562H549.713V218.74H555.299V220H548.229Z" fill="#080708"/>
<mask id="path-15-inside-2_484_11095" fill="white">
<path d="M390 240H610V422C610 425.314 607.314 428 604 428H395C392.239 428 390 425.761 390 423V240Z"/>
</mask>
<path d="M390 240H610V422C610 425.314 607.314 428 604 428H395C392.239 428 390 425.761 390 423V240Z" fill="#7895FF"/>
<path d="M390 239H610V241H390V239ZM610 428H390H610ZM390 428V240V428ZM610 240V428V240Z" fill="#080708" mask="url(#path-15-inside-2_484_11095)"/>
<rect x="400" y="250" width="200" height="50" rx="5" fill="#080708"/>
<path d="M481.366 280.168C480.61 280.168 479.952 280.023 479.392 279.734C478.832 279.445 478.398 279.029 478.09 278.488C477.782 277.947 477.628 277.289 477.628 276.514H479.098C479.098 277.279 479.299 277.872 479.7 278.292C480.102 278.703 480.652 278.908 481.352 278.908C481.95 278.908 482.43 278.773 482.794 278.502C483.158 278.222 483.34 277.835 483.34 277.34C483.34 277.004 483.238 276.733 483.032 276.528C482.836 276.323 482.57 276.155 482.234 276.024C481.908 275.893 481.548 275.777 481.156 275.674C480.764 275.571 480.368 275.459 479.966 275.338C479.574 275.207 479.21 275.044 478.874 274.848C478.548 274.652 478.282 274.391 478.076 274.064C477.88 273.737 477.782 273.322 477.782 272.818C477.782 272.286 477.922 271.815 478.202 271.404C478.492 270.984 478.888 270.657 479.392 270.424C479.906 270.181 480.508 270.06 481.198 270.06C481.87 270.06 482.472 270.186 483.004 270.438C483.536 270.681 483.961 271.031 484.278 271.488C484.605 271.936 484.773 272.477 484.782 273.112H483.298C483.289 272.739 483.186 272.421 482.99 272.16C482.804 271.889 482.552 271.684 482.234 271.544C481.926 271.395 481.581 271.32 481.198 271.32C480.648 271.32 480.2 271.451 479.854 271.712C479.509 271.973 479.336 272.328 479.336 272.776C479.336 273.093 479.434 273.345 479.63 273.532C479.836 273.719 480.102 273.873 480.428 273.994C480.764 274.106 481.128 274.213 481.52 274.316C481.922 274.409 482.318 274.521 482.71 274.652C483.102 274.773 483.462 274.941 483.788 275.156C484.124 275.361 484.39 275.641 484.586 275.996C484.792 276.341 484.894 276.785 484.894 277.326C484.894 277.905 484.74 278.409 484.432 278.838C484.124 279.258 483.704 279.585 483.172 279.818C482.64 280.051 482.038 280.168 481.366 280.168ZM489.87 280V271.488H486.72V270.228H494.504V271.488H491.354V280H489.87ZM500.011 280.168C499.181 280.168 498.457 279.963 497.841 279.552C497.225 279.132 496.745 278.544 496.399 277.788C496.063 277.032 495.895 276.141 495.895 275.114C495.895 274.078 496.063 273.182 496.399 272.426C496.745 271.67 497.225 271.087 497.841 270.676C498.457 270.265 499.181 270.06 500.011 270.06C500.842 270.06 501.565 270.265 502.181 270.676C502.797 271.087 503.273 271.67 503.609 272.426C503.955 273.182 504.127 274.078 504.127 275.114C504.127 276.141 503.955 277.032 503.609 277.788C503.273 278.544 502.797 279.132 502.181 279.552C501.565 279.963 500.842 280.168 500.011 280.168ZM500.011 278.908C500.525 278.908 500.973 278.754 501.355 278.446C501.738 278.138 502.037 277.699 502.251 277.13C502.466 276.561 502.573 275.889 502.573 275.114C502.573 274.33 502.466 273.658 502.251 273.098C502.037 272.529 501.738 272.09 501.355 271.782C500.973 271.474 500.525 271.32 500.011 271.32C499.507 271.32 499.059 271.474 498.667 271.782C498.285 272.09 497.986 272.529 497.771 273.098C497.557 273.667 497.449 274.339 497.449 275.114C497.449 275.889 497.557 276.561 497.771 277.13C497.986 277.699 498.285 278.138 498.667 278.446C499.059 278.754 499.507 278.908 500.011 278.908ZM507.087 275.912V274.652H509.565C509.975 274.652 510.335 274.587 510.643 274.456C510.96 274.316 511.207 274.12 511.385 273.868C511.571 273.616 511.665 273.327 511.665 273C511.665 272.683 511.585 272.412 511.427 272.188C511.268 271.964 511.053 271.791 510.783 271.67C510.512 271.549 510.209 271.488 509.873 271.488H507.087V270.228H509.873C510.517 270.228 511.091 270.34 511.595 270.564C512.099 270.779 512.495 271.091 512.785 271.502C513.074 271.913 513.219 272.412 513.219 273C513.219 273.373 513.13 273.733 512.953 274.078C512.785 274.423 512.537 274.736 512.211 275.016C511.893 275.287 511.506 275.506 511.049 275.674C510.591 275.833 510.073 275.912 509.495 275.912H507.087ZM506.023 280V270.228H507.507V280H506.023ZM511.637 280C511.581 279.561 511.459 279.127 511.273 278.698C511.095 278.269 510.853 277.858 510.545 277.466C510.237 277.074 509.854 276.71 509.397 276.374C508.949 276.038 508.426 275.735 507.829 275.464L509.481 275.1C510.097 275.408 510.624 275.753 511.063 276.136C511.511 276.509 511.879 276.906 512.169 277.326C512.467 277.746 512.691 278.18 512.841 278.628C512.999 279.076 513.102 279.533 513.149 280H511.637ZM517.998 280V276.038L514.764 270.228H516.388L517.9 272.916L518.768 274.75L519.65 272.902L521.162 270.228H522.772L519.482 276.038V280H517.998Z" fill="#F5EEEB"/>
<rect x="400" y="309" width="200" height="50" rx="5" fill="#080708"/>
<path d="M481.366 339.168C480.61 339.168 479.952 339.023 479.392 338.734C478.832 338.445 478.398 338.029 478.09 337.488C477.782 336.947 477.628 336.289 477.628 335.514H479.098C479.098 336.279 479.299 336.872 479.7 337.292C480.102 337.703 480.652 337.908 481.352 337.908C481.95 337.908 482.43 337.773 482.794 337.502C483.158 337.222 483.34 336.835 483.34 336.34C483.34 336.004 483.238 335.733 483.032 335.528C482.836 335.323 482.57 335.155 482.234 335.024C481.908 334.893 481.548 334.777 481.156 334.674C480.764 334.571 480.368 334.459 479.966 334.338C479.574 334.207 479.21 334.044 478.874 333.848C478.548 333.652 478.282 333.391 478.076 333.064C477.88 332.737 477.782 332.322 477.782 331.818C477.782 331.286 477.922 330.815 478.202 330.404C478.492 329.984 478.888 329.657 479.392 329.424C479.906 329.181 480.508 329.06 481.198 329.06C481.87 329.06 482.472 329.186 483.004 329.438C483.536 329.681 483.961 330.031 484.278 330.488C484.605 330.936 484.773 331.477 484.782 332.112H483.298C483.289 331.739 483.186 331.421 482.99 331.16C482.804 330.889 482.552 330.684 482.234 330.544C481.926 330.395 481.581 330.32 481.198 330.32C480.648 330.32 480.2 330.451 479.854 330.712C479.509 330.973 479.336 331.328 479.336 331.776C479.336 332.093 479.434 332.345 479.63 332.532C479.836 332.719 480.102 332.873 480.428 332.994C480.764 333.106 481.128 333.213 481.52 333.316C481.922 333.409 482.318 333.521 482.71 333.652C483.102 333.773 483.462 333.941 483.788 334.156C484.124 334.361 484.39 334.641 484.586 334.996C484.792 335.341 484.894 335.785 484.894 336.326C484.894 336.905 484.74 337.409 484.432 337.838C484.124 338.258 483.704 338.585 483.172 338.818C482.64 339.051 482.038 339.168 481.366 339.168ZM489.87 339V330.488H486.72V329.228H494.504V330.488H491.354V339H489.87ZM500.011 339.168C499.181 339.168 498.457 338.963 497.841 338.552C497.225 338.132 496.745 337.544 496.399 336.788C496.063 336.032 495.895 335.141 495.895 334.114C495.895 333.078 496.063 332.182 496.399 331.426C496.745 330.67 497.225 330.087 497.841 329.676C498.457 329.265 499.181 329.06 500.011 329.06C500.842 329.06 501.565 329.265 502.181 329.676C502.797 330.087 503.273 330.67 503.609 331.426C503.955 332.182 504.127 333.078 504.127 334.114C504.127 335.141 503.955 336.032 503.609 336.788C503.273 337.544 502.797 338.132 502.181 338.552C501.565 338.963 500.842 339.168 500.011 339.168ZM500.011 337.908C500.525 337.908 500.973 337.754 501.355 337.446C501.738 337.138 502.037 336.699 502.251 336.13C502.466 335.561 502.573 334.889 502.573 334.114C502.573 333.33 502.466 332.658 502.251 332.098C502.037 331.529 501.738 331.09 501.355 330.782C500.973 330.474 500.525 330.32 500.011 330.32C499.507 330.32 499.059 330.474 498.667 330.782C498.285 331.09 497.986 331.529 497.771 332.098C497.557 332.667 497.449 333.339 497.449 334.114C497.449 334.889 497.557 335.561 497.771 336.13C497.986 336.699 498.285 337.138 498.667 337.446C499.059 337.754 499.507 337.908 500.011 337.908ZM507.087 334.912V333.652H509.565C509.975 333.652 510.335 333.587 510.643 333.456C510.96 333.316 511.207 333.12 511.385 332.868C511.571 332.616 511.665 332.327 511.665 332C511.665 331.683 511.585 331.412 511.427 331.188C511.268 330.964 511.053 330.791 510.783 330.67C510.512 330.549 510.209 330.488 509.873 330.488H507.087V329.228H509.873C510.517 329.228 511.091 329.34 511.595 329.564C512.099 329.779 512.495 330.091 512.785 330.502C513.074 330.913 513.219 331.412 513.219 332C513.219 332.373 513.13 332.733 512.953 333.078C512.785 333.423 512.537 333.736 512.211 334.016C511.893 334.287 511.506 334.506 511.049 334.674C510.591 334.833 510.073 334.912 509.495 334.912H507.087ZM506.023 339V329.228H507.507V339H506.023ZM511.637 339C511.581 338.561 511.459 338.127 511.273 337.698C511.095 337.269 510.853 336.858 510.545 336.466C510.237 336.074 509.854 335.71 509.397 335.374C508.949 335.038 508.426 334.735 507.829 334.464L509.481 334.1C510.097 334.408 510.624 334.753 511.063 335.136C511.511 335.509 511.879 335.906 512.169 336.326C512.467 336.746 512.691 337.18 512.841 337.628C512.999 338.076 513.102 338.533 513.149 339H511.637ZM517.998 339V335.038L514.764 329.228H516.388L517.9 331.916L518.768 333.75L519.65 331.902L521.162 329.228H522.772L519.482 335.038V339H517.998Z" fill="#F5EEEB"/>
<rect x="400" y="368" width="200" height="50" rx="5" fill="#080708"/>
<path d="M481.366 398.168C480.61 398.168 479.952 398.023 479.392 397.734C478.832 397.445 478.398 397.029 478.09 396.488C477.782 395.947 477.628 395.289 477.628 394.514H479.098C479.098 395.279 479.299 395.872 479.7 396.292C480.102 396.703 480.652 396.908 481.352 396.908C481.95 396.908 482.43 396.773 482.794 396.502C483.158 396.222 483.34 395.835 483.34 395.34C483.34 395.004 483.238 394.733 483.032 394.528C482.836 394.323 482.57 394.155 482.234 394.024C481.908 393.893 481.548 393.777 481.156 393.674C480.764 393.571 480.368 393.459 479.966 393.338C479.574 393.207 479.21 393.044 478.874 392.848C478.548 392.652 478.282 392.391 478.076 392.064C477.88 391.737 477.782 391.322 477.782 390.818C477.782 390.286 477.922 389.815 478.202 389.404C478.492 388.984 478.888 388.657 479.392 388.424C479.906 388.181 480.508 388.06 481.198 388.06C481.87 388.06 482.472 388.186 483.004 388.438C483.536 388.681 483.961 389.031 484.278 389.488C484.605 389.936 484.773 390.477 484.782 391.112H483.298C483.289 390.739 483.186 390.421 482.99 390.16C482.804 389.889 482.552 389.684 482.234 389.544C481.926 389.395 481.581 389.32 481.198 389.32C480.648 389.32 480.2 389.451 479.854 389.712C479.509 389.973 479.336 390.328 479.336 390.776C479.336 391.093 479.434 391.345 479.63 391.532C479.836 391.719 480.102 391.873 480.428 391.994C480.764 392.106 481.128 392.213 481.52 392.316C481.922 392.409 482.318 392.521 482.71 392.652C483.102 392.773 483.462 392.941 483.788 393.156C484.124 393.361 484.39 393.641 484.586 393.996C484.792 394.341 484.894 394.785 484.894 395.326C484.894 395.905 484.74 396.409 484.432 396.838C484.124 397.258 483.704 397.585 483.172 397.818C482.64 398.051 482.038 398.168 481.366 398.168ZM489.87 398V389.488H486.72V388.228H494.504V389.488H491.354V398H489.87ZM500.011 398.168C499.181 398.168 498.457 397.963 497.841 397.552C497.225 397.132 496.745 396.544 496.399 395.788C496.063 395.032 495.895 394.141 495.895 393.114C495.895 392.078 496.063 391.182 496.399 390.426C496.745 389.67 497.225 389.087 497.841 388.676C498.457 388.265 499.181 388.06 500.011 388.06C500.842 388.06 501.565 388.265 502.181 388.676C502.797 389.087 503.273 389.67 503.609 390.426C503.955 391.182 504.127 392.078 504.127 393.114C504.127 394.141 503.955 395.032 503.609 395.788C503.273 396.544 502.797 397.132 502.181 397.552C501.565 397.963 500.842 398.168 500.011 398.168ZM500.011 396.908C500.525 396.908 500.973 396.754 501.355 396.446C501.738 396.138 502.037 395.699 502.251 395.13C502.466 394.561 502.573 393.889 502.573 393.114C502.573 392.33 502.466 391.658 502.251 391.098C502.037 390.529 501.738 390.09 501.355 389.782C500.973 389.474 500.525 389.32 500.011 389.32C499.507 389.32 499.059 389.474 498.667 389.782C498.285 390.09 497.986 390.529 497.771 391.098C497.557 391.667 497.449 392.339 497.449 393.114C497.449 393.889 497.557 394.561 497.771 395.13C497.986 395.699 498.285 396.138 498.667 396.446C499.059 396.754 499.507 396.908 500.011 396.908ZM507.087 393.912V392.652H509.565C509.975 392.652 510.335 392.587 510.643 392.456C510.96 392.316 511.207 392.12 511.385 391.868C511.571 391.616 511.665 391.327 511.665 391C511.665 390.683 511.585 390.412 511.427 390.188C511.268 389.964 511.053 389.791 510.783 389.67C510.512 389.549 510.209 389.488 509.873 389.488H507.087V388.228H509.873C510.517 388.228 511.091 388.34 511.595 388.564C512.099 388.779 512.495 389.091 512.785 389.502C513.074 389.913 513.219 390.412 513.219 391C513.219 391.373 513.13 391.733 512.953 392.078C512.785 392.423 512.537 392.736 512.211 393.016C511.893 393.287 511.506 393.506 511.049 393.674C510.591 393.833 510.073 393.912 509.495 393.912H507.087ZM506.023 398V388.228H507.507V398H506.023ZM511.637 398C511.581 397.561 511.459 397.127 511.273 396.698C511.095 396.269 510.853 395.858 510.545 395.466C510.237 395.074 509.854 394.71 509.397 394.374C508.949 394.038 508.426 393.735 507.829 393.464L509.481 393.1C510.097 393.408 510.624 393.753 511.063 394.136C511.511 394.509 511.879 394.906 512.169 395.326C512.467 395.746 512.691 396.18 512.841 396.628C512.999 397.076 513.102 397.533 513.149 398H511.637ZM517.998 398V394.038L514.764 388.228H516.388L517.9 390.916L518.768 392.75L519.65 390.902L521.162 388.228H522.772L519.482 394.038V398H517.998Z" fill="#F5EEEB"/>
<path d="M670 195C670 192.239 672.239 190 675 190H885C887.761 190 890 192.239 890 195V240H670V195Z" fill="#FFD275"/>
<path d="M711.667 217.536V216.276H717.085V217.536H711.667ZM713.235 210.228H715.363L718.387 220H716.861L714.887 213.532L714.299 211.39L713.711 213.546L711.709 220H710.211L713.235 210.228ZM721.388 215.912V214.652H723.866C724.277 214.652 724.636 214.587 724.944 214.456C725.262 214.316 725.509 214.12 725.686 213.868C725.873 213.616 725.966 213.327 725.966 213C725.966 212.683 725.887 212.412 725.728 212.188C725.57 211.964 725.355 211.791 725.084 211.67C724.814 211.549 724.51 211.488 724.174 211.488H721.388V210.228H724.174C724.818 210.228 725.392 210.34 725.896 210.564C726.4 210.779 726.797 211.091 727.086 211.502C727.376 211.913 727.52 212.412 727.52 213C727.52 213.373 727.432 213.733 727.254 214.078C727.086 214.423 726.839 214.736 726.512 215.016C726.195 215.287 725.808 215.506 725.35 215.674C724.893 215.833 724.375 215.912 723.796 215.912H721.388ZM720.324 220V210.228H721.808V220H720.324ZM725.938 220C725.882 219.561 725.761 219.127 725.574 218.698C725.397 218.269 725.154 217.858 724.846 217.466C724.538 217.074 724.156 216.71 723.698 216.374C723.25 216.038 722.728 215.735 722.13 215.464L723.782 215.1C724.398 215.408 724.926 215.753 725.364 216.136C725.812 216.509 726.181 216.906 726.47 217.326C726.769 217.746 726.993 218.18 727.142 218.628C727.301 219.076 727.404 219.533 727.45 220H725.938ZM733.238 220.168C732.379 220.168 731.633 219.953 730.998 219.524C730.373 219.085 729.887 218.488 729.542 217.732C729.206 216.967 729.038 216.089 729.038 215.1C729.038 214.073 729.215 213.182 729.57 212.426C729.925 211.67 730.419 211.087 731.054 210.676C731.698 210.265 732.445 210.06 733.294 210.06C733.975 210.06 734.591 210.195 735.142 210.466C735.702 210.727 736.155 211.11 736.5 211.614C736.855 212.109 737.06 212.701 737.116 213.392H735.492C735.417 212.767 735.184 212.267 734.792 211.894C734.4 211.511 733.896 211.32 733.28 211.32C732.748 211.32 732.277 211.474 731.866 211.782C731.465 212.081 731.152 212.515 730.928 213.084C730.704 213.653 730.592 214.33 730.592 215.114C730.592 215.898 730.704 216.575 730.928 217.144C731.161 217.713 731.479 218.152 731.88 218.46C732.281 218.759 732.734 218.908 733.238 218.908C733.677 218.908 734.059 218.819 734.386 218.642C734.713 218.455 734.974 218.199 735.17 217.872C735.375 217.545 735.497 217.163 735.534 216.724H737.172C737.107 217.415 736.906 218.021 736.57 218.544C736.234 219.057 735.781 219.459 735.212 219.748C734.652 220.028 733.994 220.168 733.238 220.168ZM744.611 220V210.228H746.095V220H744.611ZM738.829 220V210.228H740.313V220H738.829ZM740.103 215.562V214.302H744.807V215.562H740.103ZM751.099 220V210.228H752.583V220H751.099ZM748.649 210.228H755.019V211.488H748.649V210.228ZM748.649 218.74H755.019V220H748.649V218.74ZM760.162 220L757.11 210.228H758.664L760.722 216.64L761.254 218.754L761.772 216.654L763.844 210.228H765.356L762.304 220H760.162ZM767.224 220V210.228H774.238V211.488H768.708V214.302H772.516V215.562H768.708V218.74H774.294V220H767.224ZM776.413 220V210.228H779.423C780.133 210.228 780.772 210.345 781.341 210.578C781.911 210.802 782.396 211.129 782.797 211.558C783.199 211.978 783.507 212.487 783.721 213.084C783.936 213.681 784.043 214.349 784.043 215.086C784.043 215.833 783.936 216.509 783.721 217.116C783.507 217.713 783.199 218.231 782.797 218.67C782.396 219.099 781.911 219.431 781.341 219.664C780.772 219.888 780.133 220 779.423 220H776.413ZM777.897 218.74H779.423C780.058 218.74 780.604 218.591 781.061 218.292C781.519 217.984 781.869 217.555 782.111 217.004C782.363 216.453 782.489 215.814 782.489 215.086C782.489 214.349 782.363 213.714 782.111 213.182C781.869 212.641 781.519 212.225 781.061 211.936C780.604 211.637 780.058 211.488 779.423 211.488H777.897V218.74ZM798.026 220V210.228H799.51V220H798.026ZM795.576 210.228H801.946V211.488H795.576V210.228ZM795.576 218.74H801.946V220H795.576V218.74ZM808.294 220.168C807.538 220.168 806.88 220.023 806.32 219.734C805.76 219.445 805.326 219.029 805.018 218.488C804.71 217.947 804.556 217.289 804.556 216.514H806.026C806.026 217.279 806.226 217.872 806.628 218.292C807.029 218.703 807.58 218.908 808.28 218.908C808.877 218.908 809.358 218.773 809.722 218.502C810.086 218.222 810.268 217.835 810.268 217.34C810.268 217.004 810.165 216.733 809.96 216.528C809.764 216.323 809.498 216.155 809.162 216.024C808.835 215.893 808.476 215.777 808.084 215.674C807.692 215.571 807.295 215.459 806.894 215.338C806.502 215.207 806.138 215.044 805.802 214.848C805.475 214.652 805.209 214.391 805.004 214.064C804.808 213.737 804.71 213.322 804.71 212.818C804.71 212.286 804.85 211.815 805.13 211.404C805.419 210.984 805.816 210.657 806.32 210.424C806.833 210.181 807.435 210.06 808.126 210.06C808.798 210.06 809.4 210.186 809.932 210.438C810.464 210.681 810.888 211.031 811.206 211.488C811.532 211.936 811.7 212.477 811.71 213.112H810.226C810.216 212.739 810.114 212.421 809.918 212.16C809.731 211.889 809.479 211.684 809.162 211.544C808.854 211.395 808.508 211.32 808.126 211.32C807.575 211.32 807.127 211.451 806.782 211.712C806.436 211.973 806.264 212.328 806.264 212.776C806.264 213.093 806.362 213.345 806.558 213.532C806.763 213.719 807.029 213.873 807.356 213.994C807.692 214.106 808.056 214.213 808.448 214.316C808.849 214.409 809.246 214.521 809.638 214.652C810.03 214.773 810.389 214.941 810.716 215.156C811.052 215.361 811.318 215.641 811.514 215.996C811.719 216.341 811.822 216.785 811.822 217.326C811.822 217.905 811.668 218.409 811.36 218.838C811.052 219.258 810.632 219.585 810.1 219.818C809.568 220.051 808.966 220.168 808.294 220.168ZM817.679 220.168C816.923 220.168 816.265 220.023 815.705 219.734C815.145 219.445 814.711 219.029 814.403 218.488C814.095 217.947 813.941 217.289 813.941 216.514H815.411C815.411 217.279 815.612 217.872 816.013 218.292C816.414 218.703 816.965 218.908 817.665 218.908C818.262 218.908 818.743 218.773 819.107 218.502C819.471 218.222 819.653 217.835 819.653 217.34C819.653 217.004 819.55 216.733 819.345 216.528C819.149 216.323 818.883 216.155 818.547 216.024C818.22 215.893 817.861 215.777 817.469 215.674C817.077 215.571 816.68 215.459 816.279 215.338C815.887 215.207 815.523 215.044 815.187 214.848C814.86 214.652 814.594 214.391 814.389 214.064C814.193 213.737 814.095 213.322 814.095 212.818C814.095 212.286 814.235 211.815 814.515 211.404C814.804 210.984 815.201 210.657 815.705 210.424C816.218 210.181 816.82 210.06 817.511 210.06C818.183 210.06 818.785 210.186 819.317 210.438C819.849 210.681 820.274 211.031 820.591 211.488C820.918 211.936 821.086 212.477 821.095 213.112H819.611C819.602 212.739 819.499 212.421 819.303 212.16C819.116 211.889 818.864 211.684 818.547 211.544C818.239 211.395 817.894 211.32 817.511 211.32C816.96 211.32 816.512 211.451 816.167 211.712C815.822 211.973 815.649 212.328 815.649 212.776C815.649 213.093 815.747 213.345 815.943 213.532C816.148 213.719 816.414 213.873 816.741 213.994C817.077 214.106 817.441 214.213 817.833 214.316C818.234 214.409 818.631 214.521 819.023 214.652C819.415 214.773 819.774 214.941 820.101 215.156C820.437 215.361 820.703 215.641 820.899 215.996C821.104 216.341 821.207 216.785 821.207 217.326C821.207 217.905 821.053 218.409 820.745 218.838C820.437 219.258 820.017 219.585 819.485 219.818C818.953 220.051 818.351 220.168 817.679 220.168ZM826.939 220.168C826.173 220.168 825.506 220.019 824.937 219.72C824.367 219.412 823.924 218.987 823.607 218.446C823.289 217.895 823.131 217.256 823.131 216.528V210.228H824.629V216.528C824.629 217.004 824.722 217.419 824.909 217.774C825.105 218.129 825.375 218.404 825.721 218.6C826.066 218.796 826.472 218.894 826.939 218.894C827.405 218.894 827.807 218.796 828.143 218.6C828.488 218.404 828.754 218.129 828.941 217.774C829.137 217.419 829.235 217.004 829.235 216.528V210.228H830.733V216.528C830.733 217.256 830.574 217.895 830.257 218.446C829.939 218.987 829.496 219.412 828.927 219.72C828.367 220.019 827.704 220.168 826.939 220.168ZM832.922 220V210.228H839.936V211.488H834.406V214.302H838.214V215.562H834.406V218.74H839.992V220H832.922ZM845.836 220.168C845.08 220.168 844.422 220.023 843.862 219.734C843.302 219.445 842.868 219.029 842.56 218.488C842.252 217.947 842.098 217.289 842.098 216.514H843.568C843.568 217.279 843.768 217.872 844.17 218.292C844.571 218.703 845.122 218.908 845.822 218.908C846.419 218.908 846.9 218.773 847.264 218.502C847.628 218.222 847.81 217.835 847.81 217.34C847.81 217.004 847.707 216.733 847.502 216.528C847.306 216.323 847.04 216.155 846.704 216.024C846.377 215.893 846.018 215.777 845.626 215.674C845.234 215.571 844.837 215.459 844.436 215.338C844.044 215.207 843.68 215.044 843.344 214.848C843.017 214.652 842.751 214.391 842.546 214.064C842.35 213.737 842.252 213.322 842.252 212.818C842.252 212.286 842.392 211.815 842.672 211.404C842.961 210.984 843.358 210.657 843.862 210.424C844.375 210.181 844.977 210.06 845.668 210.06C846.34 210.06 846.942 210.186 847.474 210.438C848.006 210.681 848.43 211.031 848.748 211.488C849.074 211.936 849.242 212.477 849.252 213.112H847.768C847.758 212.739 847.656 212.421 847.46 212.16C847.273 211.889 847.021 211.684 846.704 211.544C846.396 211.395 846.05 211.32 845.668 211.32C845.117 211.32 844.669 211.451 844.324 211.712C843.978 211.973 843.806 212.328 843.806 212.776C843.806 213.093 843.904 213.345 844.1 213.532C844.305 213.719 844.571 213.873 844.898 213.994C845.234 214.106 845.598 214.213 845.99 214.316C846.391 214.409 846.788 214.521 847.18 214.652C847.572 214.773 847.931 214.941 848.258 215.156C848.594 215.361 848.86 215.641 849.056 215.996C849.261 216.341 849.364 216.785 849.364 217.326C849.364 217.905 849.21 218.409 848.902 218.838C848.594 219.258 848.174 219.585 847.642 219.818C847.11 220.051 846.508 220.168 845.836 220.168Z" fill="#080708"/>
<mask id="path-25-inside-3_484_11095" fill="white">
<path d="M670 240H890V422C890 425.314 887.314 428 884 428H675C672.239 428 670 425.761 670 423V240Z"/>
</mask>
<path d="M670 240H890V422C890 425.314 887.314 428 884 428H675C672.239 428 670 425.761 670 423V240Z" fill="#FFD275"/>
<path d="M670 239H890V241H670V239ZM890 428H670H890ZM670 428V240V428ZM890 240V428V240Z" fill="#080708" mask="url(#path-25-inside-3_484_11095)"/>
<rect x="680" y="250" width="200" height="50" rx="5" fill="#080708"/>
<path d="M751.099 280V270.228H752.583V280H751.099ZM748.649 270.228H755.019V271.488H748.649V270.228ZM748.649 278.74H755.019V280H748.649V278.74ZM761.366 280.168C760.61 280.168 759.952 280.023 759.392 279.734C758.832 279.445 758.398 279.029 758.09 278.488C757.782 277.947 757.628 277.289 757.628 276.514H759.098C759.098 277.279 759.299 277.872 759.7 278.292C760.102 278.703 760.652 278.908 761.352 278.908C761.95 278.908 762.43 278.773 762.794 278.502C763.158 278.222 763.34 277.835 763.34 277.34C763.34 277.004 763.238 276.733 763.032 276.528C762.836 276.323 762.57 276.155 762.234 276.024C761.908 275.893 761.548 275.777 761.156 275.674C760.764 275.571 760.368 275.459 759.966 275.338C759.574 275.207 759.21 275.044 758.874 274.848C758.548 274.652 758.282 274.391 758.076 274.064C757.88 273.737 757.782 273.322 757.782 272.818C757.782 272.286 757.922 271.815 758.202 271.404C758.492 270.984 758.888 270.657 759.392 270.424C759.906 270.181 760.508 270.06 761.198 270.06C761.87 270.06 762.472 270.186 763.004 270.438C763.536 270.681 763.961 271.031 764.278 271.488C764.605 271.936 764.773 272.477 764.782 273.112H763.298C763.289 272.739 763.186 272.421 762.99 272.16C762.804 271.889 762.552 271.684 762.234 271.544C761.926 271.395 761.581 271.32 761.198 271.32C760.648 271.32 760.2 271.451 759.854 271.712C759.509 271.973 759.336 272.328 759.336 272.776C759.336 273.093 759.434 273.345 759.63 273.532C759.836 273.719 760.102 273.873 760.428 273.994C760.764 274.106 761.128 274.213 761.52 274.316C761.922 274.409 762.318 274.521 762.71 274.652C763.102 274.773 763.462 274.941 763.788 275.156C764.124 275.361 764.39 275.641 764.586 275.996C764.792 276.341 764.894 276.785 764.894 277.326C764.894 277.905 764.74 278.409 764.432 278.838C764.124 279.258 763.704 279.585 763.172 279.818C762.64 280.051 762.038 280.168 761.366 280.168ZM770.752 280.168C769.996 280.168 769.338 280.023 768.778 279.734C768.218 279.445 767.784 279.029 767.476 278.488C767.168 277.947 767.014 277.289 767.014 276.514H768.484C768.484 277.279 768.684 277.872 769.086 278.292C769.487 278.703 770.038 278.908 770.738 278.908C771.335 278.908 771.816 278.773 772.18 278.502C772.544 278.222 772.726 277.835 772.726 277.34C772.726 277.004 772.623 276.733 772.418 276.528C772.222 276.323 771.956 276.155 771.62 276.024C771.293 275.893 770.934 275.777 770.542 275.674C770.15 275.571 769.753 275.459 769.352 275.338C768.96 275.207 768.596 275.044 768.26 274.848C767.933 274.652 767.667 274.391 767.462 274.064C767.266 273.737 767.168 273.322 767.168 272.818C767.168 272.286 767.308 271.815 767.588 271.404C767.877 270.984 768.274 270.657 768.778 270.424C769.291 270.181 769.893 270.06 770.584 270.06C771.256 270.06 771.858 270.186 772.39 270.438C772.922 270.681 773.346 271.031 773.664 271.488C773.99 271.936 774.158 272.477 774.168 273.112H772.684C772.674 272.739 772.572 272.421 772.376 272.16C772.189 271.889 771.937 271.684 771.62 271.544C771.312 271.395 770.966 271.32 770.584 271.32C770.033 271.32 769.585 271.451 769.24 271.712C768.894 271.973 768.722 272.328 768.722 272.776C768.722 273.093 768.82 273.345 769.016 273.532C769.221 273.719 769.487 273.873 769.814 273.994C770.15 274.106 770.514 274.213 770.906 274.316C771.307 274.409 771.704 274.521 772.096 274.652C772.488 274.773 772.847 274.941 773.174 275.156C773.51 275.361 773.776 275.641 773.972 275.996C774.177 276.341 774.28 276.785 774.28 277.326C774.28 277.905 774.126 278.409 773.818 278.838C773.51 279.258 773.09 279.585 772.558 279.818C772.026 280.051 771.424 280.168 770.752 280.168ZM780.011 280.168C779.246 280.168 778.579 280.019 778.009 279.72C777.44 279.412 776.997 278.987 776.679 278.446C776.362 277.895 776.203 277.256 776.203 276.528V270.228H777.701V276.528C777.701 277.004 777.795 277.419 777.981 277.774C778.177 278.129 778.448 278.404 778.793 278.6C779.139 278.796 779.545 278.894 780.011 278.894C780.478 278.894 780.879 278.796 781.215 278.6C781.561 278.404 781.827 278.129 782.013 277.774C782.209 277.419 782.307 277.004 782.307 276.528V270.228H783.805V276.528C783.805 277.256 783.647 277.895 783.329 278.446C783.012 278.987 782.569 279.412 781.999 279.72C781.439 280.019 780.777 280.168 780.011 280.168ZM785.995 280V270.228H793.009V271.488H787.479V274.302H791.287V275.562H787.479V278.74H793.065V280H785.995ZM808.042 280V273.966L808.112 271.978L806.53 273.266L804.78 274.666V272.916L808.448 270.228H809.526V280H808.042ZM804.78 280V278.74H811.696V280H804.78Z" fill="#F5EEEB"/>
<rect x="680" y="309" width="200" height="50" rx="5" fill="#080708"/>
<path d="M751.099 339V329.228H752.583V339H751.099ZM748.649 329.228H755.019V330.488H748.649V329.228ZM748.649 337.74H755.019V339H748.649V337.74ZM761.366 339.168C760.61 339.168 759.952 339.023 759.392 338.734C758.832 338.445 758.398 338.029 758.09 337.488C757.782 336.947 757.628 336.289 757.628 335.514H759.098C759.098 336.279 759.299 336.872 759.7 337.292C760.102 337.703 760.652 337.908 761.352 337.908C761.95 337.908 762.43 337.773 762.794 337.502C763.158 337.222 763.34 336.835 763.34 336.34C763.34 336.004 763.238 335.733 763.032 335.528C762.836 335.323 762.57 335.155 762.234 335.024C761.908 334.893 761.548 334.777 761.156 334.674C760.764 334.571 760.368 334.459 759.966 334.338C759.574 334.207 759.21 334.044 758.874 333.848C758.548 333.652 758.282 333.391 758.076 333.064C757.88 332.737 757.782 332.322 757.782 331.818C757.782 331.286 757.922 330.815 758.202 330.404C758.492 329.984 758.888 329.657 759.392 329.424C759.906 329.181 760.508 329.06 761.198 329.06C761.87 329.06 762.472 329.186 763.004 329.438C763.536 329.681 763.961 330.031 764.278 330.488C764.605 330.936 764.773 331.477 764.782 332.112H763.298C763.289 331.739 763.186 331.421 762.99 331.16C762.804 330.889 762.552 330.684 762.234 330.544C761.926 330.395 761.581 330.32 761.198 330.32C760.648 330.32 760.2 330.451 759.854 330.712C759.509 330.973 759.336 331.328 759.336 331.776C759.336 332.093 759.434 332.345 759.63 332.532C759.836 332.719 760.102 332.873 760.428 332.994C760.764 333.106 761.128 333.213 761.52 333.316C761.922 333.409 762.318 333.521 762.71 333.652C763.102 333.773 763.462 333.941 763.788 334.156C764.124 334.361 764.39 334.641 764.586 334.996C764.792 335.341 764.894 335.785 764.894 336.326C764.894 336.905 764.74 337.409 764.432 337.838C764.124 338.258 763.704 338.585 763.172 338.818C762.64 339.051 762.038 339.168 761.366 339.168ZM770.752 339.168C769.996 339.168 769.338 339.023 768.778 338.734C768.218 338.445 767.784 338.029 767.476 337.488C767.168 336.947 767.014 336.289 767.014 335.514H768.484C768.484 336.279 768.684 336.872 769.086 337.292C769.487 337.703 770.038 337.908 770.738 337.908C771.335 337.908 771.816 337.773 772.18 337.502C772.544 337.222 772.726 336.835 772.726 336.34C772.726 336.004 772.623 335.733 772.418 335.528C772.222 335.323 771.956 335.155 771.62 335.024C771.293 334.893 770.934 334.777 770.542 334.674C770.15 334.571 769.753 334.459 769.352 334.338C768.96 334.207 768.596 334.044 768.26 333.848C767.933 333.652 767.667 333.391 767.462 333.064C767.266 332.737 767.168 332.322 767.168 331.818C767.168 331.286 767.308 330.815 767.588 330.404C767.877 329.984 768.274 329.657 768.778 329.424C769.291 329.181 769.893 329.06 770.584 329.06C771.256 329.06 771.858 329.186 772.39 329.438C772.922 329.681 773.346 330.031 773.664 330.488C773.99 330.936 774.158 331.477 774.168 332.112H772.684C772.674 331.739 772.572 331.421 772.376 331.16C772.189 330.889 771.937 330.684 771.62 330.544C771.312 330.395 770.966 330.32 770.584 330.32C770.033 330.32 769.585 330.451 769.24 330.712C768.894 330.973 768.722 331.328 768.722 331.776C768.722 332.093 768.82 332.345 769.016 332.532C769.221 332.719 769.487 332.873 769.814 332.994C770.15 333.106 770.514 333.213 770.906 333.316C771.307 333.409 771.704 333.521 772.096 333.652C772.488 333.773 772.847 333.941 773.174 334.156C773.51 334.361 773.776 334.641 773.972 334.996C774.177 335.341 774.28 335.785 774.28 336.326C774.28 336.905 774.126 337.409 773.818 337.838C773.51 338.258 773.09 338.585 772.558 338.818C772.026 339.051 771.424 339.168 770.752 339.168ZM780.011 339.168C779.246 339.168 778.579 339.019 778.009 338.72C777.44 338.412 776.997 337.987 776.679 337.446C776.362 336.895 776.203 336.256 776.203 335.528V329.228H777.701V335.528C777.701 336.004 777.795 336.419 777.981 336.774C778.177 337.129 778.448 337.404 778.793 337.6C779.139 337.796 779.545 337.894 780.011 337.894C780.478 337.894 780.879 337.796 781.215 337.6C781.561 337.404 781.827 337.129 782.013 336.774C782.209 336.419 782.307 336.004 782.307 335.528V329.228H783.805V335.528C783.805 336.256 783.647 336.895 783.329 337.446C783.012 337.987 782.569 338.412 781.999 338.72C781.439 339.019 780.777 339.168 780.011 339.168ZM785.995 339V329.228H793.009V330.488H787.479V333.302H791.287V334.562H787.479V337.74H793.065V339H785.995ZM804.682 339V337.936C805.97 336.975 807.006 336.139 807.79 335.43C808.574 334.711 809.143 334.077 809.498 333.526C809.852 332.966 810.03 332.457 810.03 332C810.03 331.496 809.871 331.09 809.554 330.782C809.246 330.474 808.812 330.32 808.252 330.32C807.664 330.32 807.178 330.502 806.796 330.866C806.413 331.221 806.208 331.725 806.18 332.378H804.682C804.728 331.678 804.906 331.081 805.214 330.586C805.531 330.082 805.951 329.704 806.474 329.452C807.006 329.191 807.608 329.06 808.28 329.06C808.952 329.06 809.535 329.181 810.03 329.424C810.524 329.657 810.902 329.993 811.164 330.432C811.434 330.861 811.57 331.361 811.57 331.93C811.57 332.546 811.411 333.153 811.094 333.75C810.786 334.338 810.286 334.959 809.596 335.612C808.914 336.256 808.009 336.965 806.88 337.74H811.598V339H804.682Z" fill="#F5EEEB"/>
<rect x="680" y="368" width="200" height="50" rx="5" fill="#080708"/>
<path d="M751.099 398V388.228H752.583V398H751.099ZM748.649 388.228H755.019V389.488H748.649V388.228ZM748.649 396.74H755.019V398H748.649V396.74ZM761.366 398.168C760.61 398.168 759.952 398.023 759.392 397.734C758.832 397.445 758.398 397.029 758.09 396.488C757.782 395.947 757.628 395.289 757.628 394.514H759.098C759.098 395.279 759.299 395.872 759.7 396.292C760.102 396.703 760.652 396.908 761.352 396.908C761.95 396.908 762.43 396.773 762.794 396.502C763.158 396.222 763.34 395.835 763.34 395.34C763.34 395.004 763.238 394.733 763.032 394.528C762.836 394.323 762.57 394.155 762.234 394.024C761.908 393.893 761.548 393.777 761.156 393.674C760.764 393.571 760.368 393.459 759.966 393.338C759.574 393.207 759.21 393.044 758.874 392.848C758.548 392.652 758.282 392.391 758.076 392.064C757.88 391.737 757.782 391.322 757.782 390.818C757.782 390.286 757.922 389.815 758.202 389.404C758.492 388.984 758.888 388.657 759.392 388.424C759.906 388.181 760.508 388.06 761.198 388.06C761.87 388.06 762.472 388.186 763.004 388.438C763.536 388.681 763.961 389.031 764.278 389.488C764.605 389.936 764.773 390.477 764.782 391.112H763.298C763.289 390.739 763.186 390.421 762.99 390.16C762.804 389.889 762.552 389.684 762.234 389.544C761.926 389.395 761.581 389.32 761.198 389.32C760.648 389.32 760.2 389.451 759.854 389.712C759.509 389.973 759.336 390.328 759.336 390.776C759.336 391.093 759.434 391.345 759.63 391.532C759.836 391.719 760.102 391.873 760.428 391.994C760.764 392.106 761.128 392.213 761.52 392.316C761.922 392.409 762.318 392.521 762.71 392.652C763.102 392.773 763.462 392.941 763.788 393.156C764.124 393.361 764.39 393.641 764.586 393.996C764.792 394.341 764.894 394.785 764.894 395.326C764.894 395.905 764.74 396.409 764.432 396.838C764.124 397.258 763.704 397.585 763.172 397.818C762.64 398.051 762.038 398.168 761.366 398.168ZM770.752 398.168C769.996 398.168 769.338 398.023 768.778 397.734C768.218 397.445 767.784 397.029 767.476 396.488C767.168 395.947 767.014 395.289 767.014 394.514H768.484C768.484 395.279 768.684 395.872 769.086 396.292C769.487 396.703 770.038 396.908 770.738 396.908C771.335 396.908 771.816 396.773 772.18 396.502C772.544 396.222 772.726 395.835 772.726 395.34C772.726 395.004 772.623 394.733 772.418 394.528C772.222 394.323 771.956 394.155 771.62 394.024C771.293 393.893 770.934 393.777 770.542 393.674C770.15 393.571 769.753 393.459 769.352 393.338C768.96 393.207 768.596 393.044 768.26 392.848C767.933 392.652 767.667 392.391 767.462 392.064C767.266 391.737 767.168 391.322 767.168 390.818C767.168 390.286 767.308 389.815 767.588 389.404C767.877 388.984 768.274 388.657 768.778 388.424C769.291 388.181 769.893 388.06 770.584 388.06C771.256 388.06 771.858 388.186 772.39 388.438C772.922 388.681 773.346 389.031 773.664 389.488C773.99 389.936 774.158 390.477 774.168 391.112H772.684C772.674 390.739 772.572 390.421 772.376 390.16C772.189 389.889 771.937 389.684 771.62 389.544C771.312 389.395 770.966 389.32 770.584 389.32C770.033 389.32 769.585 389.451 769.24 389.712C768.894 389.973 768.722 390.328 768.722 390.776C768.722 391.093 768.82 391.345 769.016 391.532C769.221 391.719 769.487 391.873 769.814 391.994C770.15 392.106 770.514 392.213 770.906 392.316C771.307 392.409 771.704 392.521 772.096 392.652C772.488 392.773 772.847 392.941 773.174 393.156C773.51 393.361 773.776 393.641 773.972 393.996C774.177 394.341 774.28 394.785 774.28 395.326C774.28 395.905 774.126 396.409 773.818 396.838C773.51 397.258 773.09 397.585 772.558 397.818C772.026 398.051 771.424 398.168 770.752 398.168ZM780.011 398.168C779.246 398.168 778.579 398.019 778.009 397.72C777.44 397.412 776.997 396.987 776.679 396.446C776.362 395.895 776.203 395.256 776.203 394.528V388.228H777.701V394.528C777.701 395.004 777.795 395.419 777.981 395.774C778.177 396.129 778.448 396.404 778.793 396.6C779.139 396.796 779.545 396.894 780.011 396.894C780.478 396.894 780.879 396.796 781.215 396.6C781.561 396.404 781.827 396.129 782.013 395.774C782.209 395.419 782.307 395.004 782.307 394.528V388.228H783.805V394.528C783.805 395.256 783.647 395.895 783.329 396.446C783.012 396.987 782.569 397.412 781.999 397.72C781.439 398.019 780.777 398.168 780.011 398.168ZM785.995 398V388.228H793.009V389.488H787.479V392.302H791.287V393.562H787.479V396.74H793.065V398H785.995ZM808.238 398.168C807.594 398.168 807.001 398.037 806.46 397.776C805.918 397.515 805.484 397.137 805.158 396.642C804.84 396.147 804.682 395.541 804.682 394.822H806.166C806.175 395.233 806.268 395.597 806.446 395.914C806.623 396.222 806.866 396.46 807.174 396.628C807.491 396.796 807.846 396.88 808.238 396.88C808.835 396.88 809.316 396.726 809.68 396.418C810.044 396.11 810.226 395.713 810.226 395.228C810.226 394.845 810.118 394.533 809.904 394.29C809.698 394.038 809.418 393.851 809.064 393.73C808.718 393.609 808.331 393.548 807.902 393.548H807.384V392.316H807.944C808.326 392.316 808.653 392.246 808.924 392.106C809.204 391.957 809.418 391.761 809.568 391.518C809.717 391.275 809.792 391.014 809.792 390.734C809.792 390.305 809.642 389.964 809.344 389.712C809.054 389.451 808.676 389.32 808.21 389.32C807.64 389.32 807.178 389.488 806.824 389.824C806.469 390.151 806.278 390.627 806.25 391.252H804.766C804.794 390.552 804.966 389.964 805.284 389.488C805.61 389.012 806.03 388.657 806.544 388.424C807.057 388.181 807.617 388.06 808.224 388.06C808.849 388.06 809.39 388.167 809.848 388.382C810.314 388.587 810.678 388.881 810.94 389.264C811.201 389.637 811.332 390.081 811.332 390.594C811.332 390.939 811.257 391.266 811.108 391.574C810.958 391.882 810.753 392.148 810.492 392.372C810.24 392.587 809.946 392.741 809.61 392.834C810.03 392.899 810.398 393.044 810.716 393.268C811.042 393.483 811.299 393.763 811.486 394.108C811.672 394.444 811.766 394.822 811.766 395.242C811.766 395.811 811.621 396.32 811.332 396.768C811.042 397.207 810.632 397.552 810.1 397.804C809.577 398.047 808.956 398.168 808.238 398.168Z" fill="#F5EEEB"/>
<path d="M110 195C110 192.239 112.239 190 115 190H325C327.761 190 330 192.239 330 195V240H110V195Z" fill="#359D72"/>
<path d="M189.304 220V210.228H190.788V220H189.304ZM183.522 220V210.228H185.006V220H183.522ZM184.796 215.562V214.302H189.5V215.562H184.796ZM196.548 220.168C195.717 220.168 194.994 219.963 194.378 219.552C193.762 219.132 193.281 218.544 192.936 217.788C192.6 217.032 192.432 216.141 192.432 215.114C192.432 214.078 192.6 213.182 192.936 212.426C193.281 211.67 193.762 211.087 194.378 210.676C194.994 210.265 195.717 210.06 196.548 210.06C197.378 210.06 198.102 210.265 198.718 210.676C199.334 211.087 199.81 211.67 200.146 212.426C200.491 213.182 200.664 214.078 200.664 215.114C200.664 216.141 200.491 217.032 200.146 217.788C199.81 218.544 199.334 219.132 198.718 219.552C198.102 219.963 197.378 220.168 196.548 220.168ZM196.548 218.908C197.061 218.908 197.509 218.754 197.892 218.446C198.274 218.138 198.573 217.699 198.788 217.13C199.002 216.561 199.11 215.889 199.11 215.114C199.11 214.33 199.002 213.658 198.788 213.098C198.573 212.529 198.274 212.09 197.892 211.782C197.509 211.474 197.061 211.32 196.548 211.32C196.044 211.32 195.596 211.474 195.204 211.782C194.821 212.09 194.522 212.529 194.308 213.098C194.093 213.667 193.986 214.339 193.986 215.114C193.986 215.889 194.093 216.561 194.308 217.13C194.522 217.699 194.821 218.138 195.204 218.446C195.596 218.754 196.044 218.908 196.548 218.908ZM201.733 220L202.461 210.228H204.407L205.653 216.01L205.947 217.914L206.255 216.01L207.473 210.228H209.391L210.133 220H208.663L208.341 213.882L208.285 211.726L207.865 213.882L206.535 220H205.275L203.959 213.882L203.567 211.698L203.483 213.882L203.175 220H201.733ZM211.917 220V210.228H218.931V211.488H213.401V214.302H217.209V215.562H213.401V218.74H218.987V220H211.917ZM222.338 216.43V215.17H224.886C225.511 215.17 226.015 214.997 226.398 214.652C226.781 214.307 226.972 213.854 226.972 213.294C226.972 212.753 226.795 212.319 226.44 211.992C226.085 211.656 225.614 211.488 225.026 211.488H222.338V210.228H225.026C225.735 210.228 226.351 210.354 226.874 210.606C227.397 210.858 227.803 211.213 228.092 211.67C228.381 212.127 228.526 212.669 228.526 213.294C228.526 213.919 228.377 214.47 228.078 214.946C227.779 215.413 227.355 215.777 226.804 216.038C226.263 216.299 225.628 216.43 224.9 216.43H222.338ZM221.274 220V210.228H222.758V220H221.274ZM231.443 217.536V216.276H236.861V217.536H231.443ZM233.011 210.228H235.139L238.163 220H236.637L234.663 213.532L234.075 211.39L233.487 213.546L231.485 220H229.987L233.011 210.228ZM243.657 220.168C242.789 220.168 242.033 219.958 241.389 219.538C240.745 219.118 240.241 218.53 239.877 217.774C239.522 217.018 239.345 216.131 239.345 215.114C239.345 214.106 239.527 213.224 239.891 212.468C240.255 211.712 240.764 211.124 241.417 210.704C242.07 210.275 242.831 210.06 243.699 210.06C244.371 210.06 244.973 210.191 245.505 210.452C246.046 210.713 246.485 211.091 246.821 211.586C247.157 212.081 247.353 212.678 247.409 213.378H245.771C245.696 212.753 245.472 212.253 245.099 211.88C244.735 211.507 244.259 211.32 243.671 211.32C243.148 211.32 242.677 211.474 242.257 211.782C241.846 212.081 241.52 212.515 241.277 213.084C241.034 213.644 240.913 214.321 240.913 215.114C240.913 215.926 241.034 216.617 241.277 217.186C241.529 217.746 241.87 218.175 242.299 218.474C242.738 218.763 243.228 218.908 243.769 218.908C244.245 218.908 244.665 218.824 245.029 218.656C245.393 218.479 245.696 218.255 245.939 217.984V216.052L244.231 216.108L244.287 214.834H247.409V218.418C247.026 218.969 246.508 219.398 245.855 219.706C245.211 220.014 244.478 220.168 243.657 220.168ZM249.458 220V210.228H256.472V211.488H250.942V214.302H254.75V215.562H250.942V218.74H256.528V220H249.458Z" fill="#080708"/>
<mask id="path-35-inside-4_484_11095" fill="white">
<path d="M110 240H330V422C330 425.314 327.314 428 324 428H115C112.239 428 110 425.761 110 423V240Z"/>
</mask>
<path d="M110 240H330V422C330 425.314 327.314 428 324 428H115C112.239 428 110 425.761 110 423V240Z" fill="#359D72"/>
<path d="M110 239H330V241H110V239ZM330 428H110H330ZM110 428V240V428ZM330 240V428V240Z" fill="#080708" mask="url(#path-35-inside-4_484_11095)"/>
<rect x="120" y="250" width="200" height="50" rx="5" fill="#080708"/>
<path d="M169.458 280V270.228H171.306L175.38 278.068L175.268 275.044V270.228H176.696V280H174.862L170.76 272.244L170.886 275.17V280H169.458ZM179.067 280V270.228H186.081V271.488H180.551V274.302H184.359V275.562H180.551V278.74H186.137V280H179.067ZM188.621 280L187.529 270.228H188.943L189.587 276.43L189.741 278.67L190.091 276.43L191.197 270.228H192.555L193.675 276.43L194.039 278.726L194.165 276.43L194.781 270.228H196.181L195.075 280H193.101L192.163 274.582L191.883 272.384L191.575 274.582L190.609 280H188.621ZM210.752 280.168C209.996 280.168 209.338 280.023 208.778 279.734C208.218 279.445 207.784 279.029 207.476 278.488C207.168 277.947 207.014 277.289 207.014 276.514H208.484C208.484 277.279 208.684 277.872 209.086 278.292C209.487 278.703 210.038 278.908 210.738 278.908C211.335 278.908 211.816 278.773 212.18 278.502C212.544 278.222 212.726 277.835 212.726 277.34C212.726 277.004 212.623 276.733 212.418 276.528C212.222 276.323 211.956 276.155 211.62 276.024C211.293 275.893 210.934 275.777 210.542 275.674C210.15 275.571 209.753 275.459 209.352 275.338C208.96 275.207 208.596 275.044 208.26 274.848C207.933 274.652 207.667 274.391 207.462 274.064C207.266 273.737 207.168 273.322 207.168 272.818C207.168 272.286 207.308 271.815 207.588 271.404C207.877 270.984 208.274 270.657 208.778 270.424C209.291 270.181 209.893 270.06 210.584 270.06C211.256 270.06 211.858 270.186 212.39 270.438C212.922 270.681 213.346 271.031 213.664 271.488C213.99 271.936 214.158 272.477 214.168 273.112H212.684C212.674 272.739 212.572 272.421 212.376 272.16C212.189 271.889 211.937 271.684 211.62 271.544C211.312 271.395 210.966 271.32 210.584 271.32C210.033 271.32 209.585 271.451 209.24 271.712C208.894 271.973 208.722 272.328 208.722 272.776C208.722 273.093 208.82 273.345 209.016 273.532C209.221 273.719 209.487 273.873 209.814 273.994C210.15 274.106 210.514 274.213 210.906 274.316C211.307 274.409 211.704 274.521 212.096 274.652C212.488 274.773 212.847 274.941 213.174 275.156C213.51 275.361 213.776 275.641 213.972 275.996C214.177 276.341 214.28 276.785 214.28 277.326C214.28 277.905 214.126 278.409 213.818 278.838C213.51 279.258 213.09 279.585 212.558 279.818C212.026 280.051 211.424 280.168 210.752 280.168ZM219.255 280V271.488H216.105V270.228H223.889V271.488H220.739V280H219.255ZM229.397 280.168C228.566 280.168 227.843 279.963 227.227 279.552C226.611 279.132 226.13 278.544 225.785 277.788C225.449 277.032 225.281 276.141 225.281 275.114C225.281 274.078 225.449 273.182 225.785 272.426C226.13 271.67 226.611 271.087 227.227 270.676C227.843 270.265 228.566 270.06 229.397 270.06C230.227 270.06 230.951 270.265 231.567 270.676C232.183 271.087 232.659 271.67 232.995 272.426C233.34 273.182 233.513 274.078 233.513 275.114C233.513 276.141 233.34 277.032 232.995 277.788C232.659 278.544 232.183 279.132 231.567 279.552C230.951 279.963 230.227 280.168 229.397 280.168ZM229.397 278.908C229.91 278.908 230.358 278.754 230.741 278.446C231.123 278.138 231.422 277.699 231.637 277.13C231.851 276.561 231.959 275.889 231.959 275.114C231.959 274.33 231.851 273.658 231.637 273.098C231.422 272.529 231.123 272.09 230.741 271.782C230.358 271.474 229.91 271.32 229.397 271.32C228.893 271.32 228.445 271.474 228.053 271.782C227.67 272.09 227.371 272.529 227.157 273.098C226.942 273.667 226.835 274.339 226.835 275.114C226.835 275.889 226.942 276.561 227.157 277.13C227.371 277.699 227.67 278.138 228.053 278.446C228.445 278.754 228.893 278.908 229.397 278.908ZM236.472 275.912V274.652H238.95C239.361 274.652 239.72 274.587 240.028 274.456C240.346 274.316 240.593 274.12 240.77 273.868C240.957 273.616 241.05 273.327 241.05 273C241.05 272.683 240.971 272.412 240.812 272.188C240.654 271.964 240.439 271.791 240.168 271.67C239.898 271.549 239.594 271.488 239.258 271.488H236.472V270.228H239.258C239.902 270.228 240.476 270.34 240.98 270.564C241.484 270.779 241.881 271.091 242.17 271.502C242.46 271.913 242.604 272.412 242.604 273C242.604 273.373 242.516 273.733 242.338 274.078C242.17 274.423 241.923 274.736 241.596 275.016C241.279 275.287 240.892 275.506 240.434 275.674C239.977 275.833 239.459 275.912 238.88 275.912H236.472ZM235.408 280V270.228H236.892V280H235.408ZM241.022 280C240.966 279.561 240.845 279.127 240.658 278.698C240.481 278.269 240.238 277.858 239.93 277.466C239.622 277.074 239.24 276.71 238.782 276.374C238.334 276.038 237.812 275.735 237.214 275.464L238.866 275.1C239.482 275.408 240.01 275.753 240.448 276.136C240.896 276.509 241.265 276.906 241.554 277.326C241.853 277.746 242.077 278.18 242.226 278.628C242.385 279.076 242.488 279.533 242.534 280H241.022ZM247.412 280V270.228H248.896V280H247.412ZM244.962 270.228H251.332V271.488H244.962V270.228ZM244.962 278.74H251.332V280H244.962V278.74ZM254.151 280V270.228H261.165V271.488H255.635V274.302H259.443V275.562H255.635V278.74H261.221V280H254.151ZM267.065 280.168C266.309 280.168 265.651 280.023 265.091 279.734C264.531 279.445 264.097 279.029 263.789 278.488C263.481 277.947 263.327 277.289 263.327 276.514H264.797C264.797 277.279 264.997 277.872 265.399 278.292C265.8 278.703 266.351 278.908 267.051 278.908C267.648 278.908 268.129 278.773 268.493 278.502C268.857 278.222 269.039 277.835 269.039 277.34C269.039 277.004 268.936 276.733 268.731 276.528C268.535 276.323 268.269 276.155 267.933 276.024C267.606 275.893 267.247 275.777 266.855 275.674C266.463 275.571 266.066 275.459 265.665 275.338C265.273 275.207 264.909 275.044 264.573 274.848C264.246 274.652 263.98 274.391 263.775 274.064C263.579 273.737 263.481 273.322 263.481 272.818C263.481 272.286 263.621 271.815 263.901 271.404C264.19 270.984 264.587 270.657 265.091 270.424C265.604 270.181 266.206 270.06 266.897 270.06C267.569 270.06 268.171 270.186 268.703 270.438C269.235 270.681 269.659 271.031 269.977 271.488C270.303 271.936 270.471 272.477 270.481 273.112H268.997C268.987 272.739 268.885 272.421 268.689 272.16C268.502 271.889 268.25 271.684 267.933 271.544C267.625 271.395 267.279 271.32 266.897 271.32C266.346 271.32 265.898 271.451 265.553 271.712C265.207 271.973 265.035 272.328 265.035 272.776C265.035 273.093 265.133 273.345 265.329 273.532C265.534 273.719 265.8 273.873 266.127 273.994C266.463 274.106 266.827 274.213 267.219 274.316C267.62 274.409 268.017 274.521 268.409 274.652C268.801 274.773 269.16 274.941 269.487 275.156C269.823 275.361 270.089 275.641 270.285 275.996C270.49 276.341 270.593 276.785 270.593 277.326C270.593 277.905 270.439 278.409 270.131 278.838C269.823 279.258 269.403 279.585 268.871 279.818C268.339 280.051 267.737 280.168 267.065 280.168Z" fill="#F5EEEB"/>
<rect x="120" y="309" width="200" height="50" rx="5" fill="#080708"/>
<path d="M174.151 339V329.228H175.999L180.073 337.068L179.961 334.044V329.228H181.389V339H179.555L175.453 331.244L175.579 334.17V339H174.151ZM183.76 339V329.228H190.774V330.488H185.244V333.302H189.052V334.562H185.244V337.74H190.83V339H183.76ZM193.314 339L192.222 329.228H193.636L194.28 335.43L194.434 337.67L194.784 335.43L195.89 329.228H197.248L198.368 335.43L198.732 337.726L198.858 335.43L199.474 329.228H200.874L199.768 339H197.794L196.856 333.582L196.576 331.384L196.268 333.582L195.302 339H193.314ZM214.563 339V329.228H216.047V339H214.563ZM212.113 329.228H218.483V330.488H212.113V329.228ZM212.113 337.74H218.483V339H212.113V337.74ZM224.83 339.168C224.074 339.168 223.416 339.023 222.856 338.734C222.296 338.445 221.862 338.029 221.554 337.488C221.246 336.947 221.092 336.289 221.092 335.514H222.562C222.562 336.279 222.763 336.872 223.164 337.292C223.565 337.703 224.116 337.908 224.816 337.908C225.413 337.908 225.894 337.773 226.258 337.502C226.622 337.222 226.804 336.835 226.804 336.34C226.804 336.004 226.701 335.733 226.496 335.528C226.3 335.323 226.034 335.155 225.698 335.024C225.371 334.893 225.012 334.777 224.62 334.674C224.228 334.571 223.831 334.459 223.43 334.338C223.038 334.207 222.674 334.044 222.338 333.848C222.011 333.652 221.745 333.391 221.54 333.064C221.344 332.737 221.246 332.322 221.246 331.818C221.246 331.286 221.386 330.815 221.666 330.404C221.955 329.984 222.352 329.657 222.856 329.424C223.369 329.181 223.971 329.06 224.662 329.06C225.334 329.06 225.936 329.186 226.468 329.438C227 329.681 227.425 330.031 227.742 330.488C228.069 330.936 228.237 331.477 228.246 332.112H226.762C226.753 331.739 226.65 331.421 226.454 331.16C226.267 330.889 226.015 330.684 225.698 330.544C225.39 330.395 225.045 330.32 224.662 330.32C224.111 330.32 223.663 330.451 223.318 330.712C222.973 330.973 222.8 331.328 222.8 331.776C222.8 332.093 222.898 332.345 223.094 332.532C223.299 332.719 223.565 332.873 223.892 332.994C224.228 333.106 224.592 333.213 224.984 333.316C225.385 333.409 225.782 333.521 226.174 333.652C226.566 333.773 226.925 333.941 227.252 334.156C227.588 334.361 227.854 334.641 228.05 334.996C228.255 335.341 228.358 335.785 228.358 336.326C228.358 336.905 228.204 337.409 227.896 337.838C227.588 338.258 227.168 338.585 226.636 338.818C226.104 339.051 225.502 339.168 224.83 339.168ZM234.215 339.168C233.459 339.168 232.801 339.023 232.241 338.734C231.681 338.445 231.247 338.029 230.939 337.488C230.631 336.947 230.477 336.289 230.477 335.514H231.947C231.947 336.279 232.148 336.872 232.549 337.292C232.951 337.703 233.501 337.908 234.201 337.908C234.799 337.908 235.279 337.773 235.643 337.502C236.007 337.222 236.189 336.835 236.189 336.34C236.189 336.004 236.087 335.733 235.881 335.528C235.685 335.323 235.419 335.155 235.083 335.024C234.757 334.893 234.397 334.777 234.005 334.674C233.613 334.571 233.217 334.459 232.815 334.338C232.423 334.207 232.059 334.044 231.723 333.848C231.397 333.652 231.131 333.391 230.925 333.064C230.729 332.737 230.631 332.322 230.631 331.818C230.631 331.286 230.771 330.815 231.051 330.404C231.341 329.984 231.737 329.657 232.241 329.424C232.755 329.181 233.357 329.06 234.047 329.06C234.719 329.06 235.321 329.186 235.853 329.438C236.385 329.681 236.81 330.031 237.127 330.488C237.454 330.936 237.622 331.477 237.631 332.112H236.147C236.138 331.739 236.035 331.421 235.839 331.16C235.653 330.889 235.401 330.684 235.083 330.544C234.775 330.395 234.43 330.32 234.047 330.32C233.497 330.32 233.049 330.451 232.703 330.712C232.358 330.973 232.185 331.328 232.185 331.776C232.185 332.093 232.283 332.345 232.479 332.532C232.685 332.719 232.951 332.873 233.277 332.994C233.613 333.106 233.977 333.213 234.369 333.316C234.771 333.409 235.167 333.521 235.559 333.652C235.951 333.773 236.311 333.941 236.637 334.156C236.973 334.361 237.239 334.641 237.435 334.996C237.641 335.341 237.743 335.785 237.743 336.326C237.743 336.905 237.589 337.409 237.281 337.838C236.973 338.258 236.553 338.585 236.021 338.818C235.489 339.051 234.887 339.168 234.215 339.168ZM243.475 339.168C242.71 339.168 242.042 339.019 241.473 338.72C240.904 338.412 240.46 337.987 240.143 337.446C239.826 336.895 239.667 336.256 239.667 335.528V329.228H241.165V335.528C241.165 336.004 241.258 336.419 241.445 336.774C241.641 337.129 241.912 337.404 242.257 337.6C242.602 337.796 243.008 337.894 243.475 337.894C243.942 337.894 244.343 337.796 244.679 337.6C245.024 337.404 245.29 337.129 245.477 336.774C245.673 336.419 245.771 336.004 245.771 335.528V329.228H247.269V335.528C247.269 336.256 247.11 336.895 246.793 337.446C246.476 337.987 246.032 338.412 245.463 338.72C244.903 339.019 244.24 339.168 243.475 339.168ZM249.458 339V329.228H256.472V330.488H250.942V333.302H254.75V334.562H250.942V337.74H256.528V339H249.458ZM262.372 339.168C261.616 339.168 260.958 339.023 260.398 338.734C259.838 338.445 259.404 338.029 259.096 337.488C258.788 336.947 258.634 336.289 258.634 335.514H260.104C260.104 336.279 260.305 336.872 260.706 337.292C261.107 337.703 261.658 337.908 262.358 337.908C262.955 337.908 263.436 337.773 263.8 337.502C264.164 337.222 264.346 336.835 264.346 336.34C264.346 336.004 264.243 335.733 264.038 335.528C263.842 335.323 263.576 335.155 263.24 335.024C262.913 334.893 262.554 334.777 262.162 334.674C261.77 334.571 261.373 334.459 260.972 334.338C260.58 334.207 260.216 334.044 259.88 333.848C259.553 333.652 259.287 333.391 259.082 333.064C258.886 332.737 258.788 332.322 258.788 331.818C258.788 331.286 258.928 330.815 259.208 330.404C259.497 329.984 259.894 329.657 260.398 329.424C260.911 329.181 261.513 329.06 262.204 329.06C262.876 329.06 263.478 329.186 264.01 329.438C264.542 329.681 264.967 330.031 265.284 330.488C265.611 330.936 265.779 331.477 265.788 332.112H264.304C264.295 331.739 264.192 331.421 263.996 331.16C263.809 330.889 263.557 330.684 263.24 330.544C262.932 330.395 262.587 330.32 262.204 330.32C261.653 330.32 261.205 330.451 260.86 330.712C260.515 330.973 260.342 331.328 260.342 331.776C260.342 332.093 260.44 332.345 260.636 332.532C260.841 332.719 261.107 332.873 261.434 332.994C261.77 333.106 262.134 333.213 262.526 333.316C262.927 333.409 263.324 333.521 263.716 333.652C264.108 333.773 264.467 333.941 264.794 334.156C265.13 334.361 265.396 334.641 265.592 334.996C265.797 335.341 265.9 335.785 265.9 336.326C265.9 336.905 265.746 337.409 265.438 337.838C265.13 338.258 264.71 338.585 264.178 338.818C263.646 339.051 263.044 339.168 262.372 339.168Z" fill="#F5EEEB"/>
<rect x="120" y="368" width="200" height="50" rx="5" fill="#080708"/>
<path d="M194.238 393.912V392.652H196.716C197.126 392.652 197.486 392.587 197.794 392.456C198.111 392.316 198.358 392.12 198.536 391.868C198.722 391.616 198.816 391.327 198.816 391C198.816 390.683 198.736 390.412 198.578 390.188C198.419 389.964 198.204 389.791 197.934 389.67C197.663 389.549 197.36 389.488 197.024 389.488H194.238V388.228H197.024C197.668 388.228 198.242 388.34 198.746 388.564C199.25 388.779 199.646 389.091 199.936 389.502C200.225 389.913 200.37 390.412 200.37 391C200.37 391.373 200.281 391.733 200.104 392.078C199.936 392.423 199.688 392.736 199.362 393.016C199.044 393.287 198.657 393.506 198.2 393.674C197.742 393.833 197.224 393.912 196.646 393.912H194.238ZM193.174 398V388.228H194.658V398H193.174ZM198.788 398C198.732 397.561 198.61 397.127 198.424 396.698C198.246 396.269 198.004 395.858 197.696 395.466C197.388 395.074 197.005 394.71 196.548 394.374C196.1 394.038 195.577 393.735 194.98 393.464L196.632 393.1C197.248 393.408 197.775 393.753 198.214 394.136C198.662 394.509 199.03 394.906 199.32 395.326C199.618 395.746 199.842 396.18 199.992 396.628C200.15 397.076 200.253 397.533 200.3 398H198.788ZM202.531 398V388.228H209.545V389.488H204.015V392.302H207.823V393.562H204.015V396.74H209.601V398H202.531ZM215.473 398.168C214.614 398.168 213.867 397.953 213.233 397.524C212.607 397.085 212.122 396.488 211.777 395.732C211.441 394.967 211.273 394.089 211.273 393.1C211.273 392.073 211.45 391.182 211.805 390.426C212.159 389.67 212.654 389.087 213.289 388.676C213.933 388.265 214.679 388.06 215.529 388.06C216.21 388.06 216.826 388.195 217.377 388.466C217.937 388.727 218.389 389.11 218.735 389.614C219.089 390.109 219.295 390.701 219.351 391.392H217.727C217.652 390.767 217.419 390.267 217.027 389.894C216.635 389.511 216.131 389.32 215.515 389.32C214.983 389.32 214.511 389.474 214.101 389.782C213.699 390.081 213.387 390.515 213.163 391.084C212.939 391.653 212.827 392.33 212.827 393.114C212.827 393.898 212.939 394.575 213.163 395.144C213.396 395.713 213.713 396.152 214.115 396.46C214.516 396.759 214.969 396.908 215.473 396.908C215.911 396.908 216.294 396.819 216.621 396.642C216.947 396.455 217.209 396.199 217.405 395.872C217.61 395.545 217.731 395.163 217.769 394.724H219.407C219.341 395.415 219.141 396.021 218.805 396.544C218.469 397.057 218.016 397.459 217.447 397.748C216.887 398.028 216.229 398.168 215.473 398.168ZM223.948 398V388.228H225.432V398H223.948ZM221.498 388.228H227.868V389.488H221.498V388.228ZM221.498 396.74H227.868V398H221.498V396.74ZM231.779 393.912V392.652H234.257C234.668 392.652 235.027 392.587 235.335 392.456C235.653 392.316 235.9 392.12 236.077 391.868C236.264 391.616 236.357 391.327 236.357 391C236.357 390.683 236.278 390.412 236.119 390.188C235.961 389.964 235.746 389.791 235.475 389.67C235.205 389.549 234.901 389.488 234.565 389.488H231.779V388.228H234.565C235.209 388.228 235.783 388.34 236.287 388.564C236.791 388.779 237.188 389.091 237.477 389.502C237.767 389.913 237.911 390.412 237.911 391C237.911 391.373 237.823 391.733 237.645 392.078C237.477 392.423 237.23 392.736 236.903 393.016C236.586 393.287 236.199 393.506 235.741 393.674C235.284 393.833 234.766 393.912 234.187 393.912H231.779ZM230.715 398V388.228H232.199V398H230.715ZM236.329 398C236.273 397.561 236.152 397.127 235.965 396.698C235.788 396.269 235.545 395.858 235.237 395.466C234.929 395.074 234.547 394.71 234.089 394.374C233.641 394.038 233.119 393.735 232.521 393.464L234.173 393.1C234.789 393.408 235.317 393.753 235.755 394.136C236.203 394.509 236.572 394.906 236.861 395.326C237.16 395.746 237.384 396.18 237.533 396.628C237.692 397.076 237.795 397.533 237.841 398H236.329ZM243.629 398.168C242.77 398.168 242.024 397.953 241.389 397.524C240.764 397.085 240.278 396.488 239.933 395.732C239.597 394.967 239.429 394.089 239.429 393.1C239.429 392.073 239.606 391.182 239.961 390.426C240.316 389.67 240.81 389.087 241.445 388.676C242.089 388.265 242.836 388.06 243.685 388.06C244.366 388.06 244.982 388.195 245.533 388.466C246.093 388.727 246.546 389.11 246.891 389.614C247.246 390.109 247.451 390.701 247.507 391.392H245.883C245.808 390.767 245.575 390.267 245.183 389.894C244.791 389.511 244.287 389.32 243.671 389.32C243.139 389.32 242.668 389.474 242.257 389.782C241.856 390.081 241.543 390.515 241.319 391.084C241.095 391.653 240.983 392.33 240.983 393.114C240.983 393.898 241.095 394.575 241.319 395.144C241.552 395.713 241.87 396.152 242.271 396.46C242.672 396.759 243.125 396.908 243.629 396.908C244.068 396.908 244.45 396.819 244.777 396.642C245.104 396.455 245.365 396.199 245.561 395.872C245.766 395.545 245.888 395.163 245.925 394.724H247.563C247.498 395.415 247.297 396.021 246.961 396.544C246.625 397.057 246.172 397.459 245.603 397.748C245.043 398.028 244.385 398.168 243.629 398.168Z" fill="#F5EEEB"/>
<path d="M344.47 308.47C344.177 308.763 344.177 309.237 344.47 309.53L349.243 314.303C349.536 314.596 350.01 314.596 350.303 314.303C350.596 314.01 350.596 313.536 350.303 313.243L346.061 309L350.303 304.757C350.596 304.464 350.596 303.99 350.303 303.697C350.01 303.404 349.536 303.404 349.243 303.697L344.47 308.47ZM375.53 309.53C375.823 309.237 375.823 308.763 375.53 308.47L370.757 303.697C370.464 303.404 369.99 303.404 369.697 303.697C369.404 303.99 369.404 304.464 369.697 304.757L373.939 309L369.697 313.243C369.404 313.536 369.404 314.01 369.697 314.303C369.99 314.596 370.464 314.596 370.757 314.303L375.53 309.53ZM345 309.75H375V308.25H345V309.75Z" fill="#F5EEEB"/>
<path d="M624.47 308.47C624.177 308.763 624.177 309.237 624.47 309.53L629.243 314.303C629.536 314.596 630.01 314.596 630.303 314.303C630.596 314.01 630.596 313.536 630.303 313.243L626.061 309L630.303 304.757C630.596 304.464 630.596 303.99 630.303 303.697C630.01 303.404 629.536 303.404 629.243 303.697L624.47 308.47ZM655.53 309.53C655.823 309.237 655.823 308.763 655.53 308.47L650.757 303.697C650.464 303.404 649.99 303.404 649.697 303.697C649.404 303.99 649.404 304.464 649.697 304.757L653.939 309L649.697 313.243C649.404 313.536 649.404 314.01 649.697 314.303C649.99 314.596 650.464 314.596 650.757 314.303L655.53 309.53ZM625 309.75H655V308.25H625V309.75Z" fill="#F5EEEB"/>
<path d="M495.53 442.47C495.237 442.177 494.763 442.177 494.47 442.47L489.697 447.243C489.404 447.536 489.404 448.01 489.697 448.303C489.99 448.596 490.464 448.596 490.757 448.303L495 444.061L499.243 448.303C499.536 448.596 500.01 448.596 500.303 448.303C500.596 448.01 500.596 447.536 500.303 447.243L495.53 442.47ZM494.47 503.53C494.763 503.823 495.237 503.823 495.53 503.53L500.303 498.757C500.596 498.464 500.596 497.99 500.303 497.697C500.01 497.404 499.536 497.404 499.243 497.697L495 501.939L490.757 497.697C490.464 497.404 489.99 497.404 489.697 497.697C489.404 497.99 489.404 498.464 489.697 498.757L494.47 503.53ZM494.25 443L494.25 503L495.75 503L495.75 443L494.25 443Z" fill="#F5EEEB"/>
<path d="M220.75 473L220.75 473.75L219.25 473.75L219.25 473L220.75 473ZM219.47 442.47C219.763 442.177 220.237 442.177 220.53 442.47L225.303 447.243C225.596 447.536 225.596 448.01 225.303 448.303C225.01 448.596 224.536 448.596 224.243 448.303L220 444.061L215.757 448.303C215.464 448.596 214.99 448.596 214.697 448.303C214.404 448.01 214.404 447.536 214.697 447.243L219.47 442.47ZM219.25 473L219.25 443L220.75 443L220.75 473L219.25 473Z" fill="#F5EEEB"/>
<path d="M780.75 473L780.75 473.75L779.25 473.75L779.25 473L780.75 473ZM779.47 442.47C779.763 442.177 780.237 442.177 780.53 442.47L785.303 447.243C785.596 447.536 785.596 448.01 785.303 448.303C785.01 448.596 784.536 448.596 784.243 448.303L780 444.061L775.757 448.303C775.464 448.596 774.99 448.596 774.697 448.303C774.404 448.01 774.404 447.536 774.697 447.243L779.47 442.47ZM779.25 473L779.25 443L780.75 443L780.75 473L779.25 473Z" fill="#F5EEEB"/>
<path d="M220 473H780" stroke="#F5EEEB" stroke-width="1.5" stroke-linecap="square"/>
<path d="M496 115C496 117.209 497.791 119 500 119C502.209 119 504 117.209 504 115C504 112.791 502.209 111 500 111C497.791 111 496 112.791 496 115ZM499.47 175.53C499.763 175.823 500.237 175.823 500.53 175.53L505.303 170.757C505.596 170.464 505.596 169.99 505.303 169.697C505.01 169.404 504.536 169.404 504.243 169.697L500 173.939L495.757 169.697C495.464 169.404 494.99 169.404 494.697 169.697C494.404 169.99 494.404 170.464 494.697 170.757L499.47 175.53ZM499.25 115L499.25 175L500.75 175L500.75 115L499.25 115Z" fill="#F5EEEB"/>
<path d="M220.75 145L220.75 144.25L219.25 144.25L219.25 145L220.75 145ZM219.47 175.53C219.763 175.823 220.237 175.823 220.53 175.53L225.303 170.757C225.596 170.464 225.596 169.99 225.303 169.697C225.01 169.404 224.536 169.404 224.243 169.697L220 173.939L215.757 169.697C215.464 169.404 214.99 169.404 214.697 169.697C214.404 169.99 214.404 170.464 214.697 170.757L219.47 175.53ZM219.25 145L219.25 175L220.75 175L220.75 145L219.25 145Z" fill="#F5EEEB"/>
<path d="M780.75 145L780.75 144.25L779.25 144.25L779.25 145L780.75 145ZM779.47 175.53C779.763 175.823 780.237 175.823 780.53 175.53L785.303 170.757C785.596 170.464 785.596 169.99 785.303 169.697C785.01 169.404 784.536 169.404 784.243 169.697L780 173.939L775.757 169.697C775.464 169.404 774.99 169.404 774.697 169.697C774.404 169.99 774.404 170.464 774.697 170.757L779.47 175.53ZM779.25 145L779.25 175L780.75 175L780.75 145L779.25 145Z" fill="#F5EEEB"/>
<path d="M220 144H780" stroke="#F5EEEB" stroke-width="1.5" stroke-linecap="square"/>
</svg>
