<svg width="1000" height="378" viewBox="0 0 1000 378" fill="none" xmlns="http://www.w3.org/2000/svg">
<rect x="500" width="200" height="50" rx="5" fill="#F76239"/>
<path d="M542.942 30V20.228H544.426V30H542.942ZM540.492 20.228H546.862V21.488H540.492V20.228ZM540.492 28.74H546.862V30H540.492V28.74ZM553.21 30.168C552.454 30.168 551.796 30.0233 551.236 29.734C550.676 29.4447 550.242 29.0293 549.934 28.488C549.626 27.9467 549.472 27.2887 549.472 26.514H550.942C550.942 27.2793 551.143 27.872 551.544 28.292C551.945 28.7027 552.496 28.908 553.196 28.908C553.793 28.908 554.274 28.7727 554.638 28.502C555.002 28.222 555.184 27.8347 555.184 27.34C555.184 27.004 555.081 26.7333 554.876 26.528C554.68 26.3227 554.414 26.1547 554.078 26.024C553.751 25.8933 553.392 25.7767 553 25.674C552.608 25.5713 552.211 25.4593 551.81 25.338C551.418 25.2073 551.054 25.044 550.718 24.848C550.391 24.652 550.125 24.3907 549.92 24.064C549.724 23.7373 549.626 23.322 549.626 22.818C549.626 22.286 549.766 21.8147 550.046 21.404C550.335 20.984 550.732 20.6573 551.236 20.424C551.749 20.1813 552.351 20.06 553.042 20.06C553.714 20.06 554.316 20.186 554.848 20.438C555.38 20.6807 555.805 21.0307 556.122 21.488C556.449 21.936 556.617 22.4773 556.626 23.112H555.142C555.133 22.7387 555.03 22.4213 554.834 22.16C554.647 21.8893 554.395 21.684 554.078 21.544C553.77 21.3947 553.425 21.32 553.042 21.32C552.491 21.32 552.043 21.4507 551.698 21.712C551.353 21.9733 551.18 22.328 551.18 22.776C551.18 23.0933 551.278 23.3453 551.474 23.532C551.679 23.7187 551.945 23.8727 552.272 23.994C552.608 24.106 552.972 24.2133 553.364 24.316C553.765 24.4093 554.162 24.5213 554.554 24.652C554.946 24.7733 555.305 24.9413 555.632 25.156C555.968 25.3613 556.234 25.6413 556.43 25.996C556.635 26.3413 556.738 26.7847 556.738 27.326C556.738 27.9047 556.584 28.4087 556.276 28.838C555.968 29.258 555.548 29.5847 555.016 29.818C554.484 30.0513 553.882 30.168 553.21 30.168ZM562.595 30.168C561.839 30.168 561.181 30.0233 560.621 29.734C560.061 29.4447 559.627 29.0293 559.319 28.488C559.011 27.9467 558.857 27.2887 558.857 26.514H560.327C560.327 27.2793 560.528 27.872 560.929 28.292C561.331 28.7027 561.881 28.908 562.581 28.908C563.179 28.908 563.659 28.7727 564.023 28.502C564.387 28.222 564.569 27.8347 564.569 27.34C564.569 27.004 564.467 26.7333 564.261 26.528C564.065 26.3227 563.799 26.1547 563.463 26.024C563.137 25.8933 562.777 25.7767 562.385 25.674C561.993 25.5713 561.597 25.4593 561.195 25.338C560.803 25.2073 560.439 25.044 560.103 24.848C559.777 24.652 559.511 24.3907 559.305 24.064C559.109 23.7373 559.011 23.322 559.011 22.818C559.011 22.286 559.151 21.8147 559.431 21.404C559.721 20.984 560.117 20.6573 560.621 20.424C561.135 20.1813 561.737 20.06 562.427 20.06C563.099 20.06 563.701 20.186 564.233 20.438C564.765 20.6807 565.19 21.0307 565.507 21.488C565.834 21.936 566.002 22.4773 566.011 23.112H564.527C564.518 22.7387 564.415 22.4213 564.219 22.16C564.033 21.8893 563.781 21.684 563.463 21.544C563.155 21.3947 562.81 21.32 562.427 21.32C561.877 21.32 561.429 21.4507 561.083 21.712C560.738 21.9733 560.565 22.328 560.565 22.776C560.565 23.0933 560.663 23.3453 560.859 23.532C561.065 23.7187 561.331 23.8727 561.657 23.994C561.993 24.106 562.357 24.2133 562.749 24.316C563.151 24.4093 563.547 24.5213 563.939 24.652C564.331 24.7733 564.691 24.9413 565.017 25.156C565.353 25.3613 565.619 25.6413 565.815 25.996C566.021 26.3413 566.123 26.7847 566.123 27.326C566.123 27.9047 565.969 28.4087 565.661 28.838C565.353 29.258 564.933 29.5847 564.401 29.818C563.869 30.0513 563.267 30.168 562.595 30.168ZM571.855 30.168C571.09 30.168 570.422 30.0187 569.853 29.72C569.284 29.412 568.84 28.9873 568.523 28.446C568.206 27.8953 568.047 27.256 568.047 26.528V20.228H569.545V26.528C569.545 27.004 569.638 27.4193 569.825 27.774C570.021 28.1287 570.292 28.404 570.637 28.6C570.982 28.796 571.388 28.894 571.855 28.894C572.322 28.894 572.723 28.796 573.059 28.6C573.404 28.404 573.67 28.1287 573.857 27.774C574.053 27.4193 574.151 27.004 574.151 26.528V20.228H575.649V26.528C575.649 27.256 575.49 27.8953 575.173 28.446C574.856 28.9873 574.412 29.412 573.843 29.72C573.283 30.0187 572.62 30.168 571.855 30.168ZM577.838 30V20.228H584.852V21.488H579.322V24.302H583.13V25.562H579.322V28.74H584.908V30H577.838ZM597.365 27.536V26.276H602.783V27.536H597.365ZM598.933 20.228H601.061L604.085 30H602.559L600.585 23.532L599.997 21.39L599.409 23.546L597.407 30H595.909L598.933 20.228ZM607.087 25.912V24.652H609.565C609.975 24.652 610.335 24.5867 610.643 24.456C610.96 24.316 611.207 24.12 611.385 23.868C611.571 23.616 611.665 23.3267 611.665 23C611.665 22.6827 611.585 22.412 611.427 22.188C611.268 21.964 611.053 21.7913 610.783 21.67C610.512 21.5487 610.209 21.488 609.873 21.488H607.087V20.228H609.873C610.517 20.228 611.091 20.34 611.595 20.564C612.099 20.7787 612.495 21.0913 612.785 21.502C613.074 21.9127 613.219 22.412 613.219 23C613.219 23.3733 613.13 23.7327 612.953 24.078C612.785 24.4233 612.537 24.736 612.211 25.016C611.893 25.2867 611.506 25.506 611.049 25.674C610.591 25.8327 610.073 25.912 609.495 25.912H607.087ZM606.023 30V20.228H607.507V30H606.023ZM611.637 30C611.581 29.5613 611.459 29.1273 611.273 28.698C611.095 28.2687 610.853 27.858 610.545 27.466C610.237 27.074 609.854 26.71 609.397 26.374C608.949 26.038 608.426 25.7347 607.829 25.464L609.481 25.1C610.097 25.408 610.624 25.7533 611.063 26.136C611.511 26.5093 611.879 26.906 612.169 27.326C612.467 27.746 612.691 28.18 612.841 28.628C612.999 29.076 613.102 29.5333 613.149 30H611.637ZM618.936 30.168C618.078 30.168 617.331 29.9533 616.696 29.524C616.071 29.0853 615.586 28.488 615.24 27.732C614.904 26.9667 614.736 26.0893 614.736 25.1C614.736 24.0733 614.914 23.182 615.268 22.426C615.623 21.67 616.118 21.0867 616.752 20.676C617.396 20.2653 618.143 20.06 618.992 20.06C619.674 20.06 620.29 20.1953 620.84 20.466C621.4 20.7273 621.853 21.11 622.198 21.614C622.553 22.1087 622.758 22.7013 622.814 23.392H621.19C621.116 22.7667 620.882 22.2673 620.49 21.894C620.098 21.5113 619.594 21.32 618.978 21.32C618.446 21.32 617.975 21.474 617.564 21.782C617.163 22.0807 616.85 22.5147 616.626 23.084C616.402 23.6533 616.29 24.33 616.29 25.114C616.29 25.898 616.402 26.5747 616.626 27.144C616.86 27.7133 617.177 28.152 617.578 28.46C617.98 28.7587 618.432 28.908 618.936 28.908C619.375 28.908 619.758 28.8193 620.084 28.642C620.411 28.4553 620.672 28.1987 620.868 27.872C621.074 27.5453 621.195 27.1627 621.232 26.724H622.87C622.805 27.4147 622.604 28.0213 622.268 28.544C621.932 29.0573 621.48 29.4587 620.91 29.748C620.35 30.028 619.692 30.168 618.936 30.168ZM630.31 30V20.228H631.794V30H630.31ZM624.528 30V20.228H626.012V30H624.528ZM625.802 25.562V24.302H630.506V25.562H625.802ZM636.797 30V20.228H638.281V30H636.797ZM634.347 20.228H640.717V21.488H634.347V20.228ZM634.347 28.74H640.717V30H634.347V28.74ZM645.861 30L642.809 20.228H644.363L646.421 26.64L646.953 28.754L647.471 26.654L649.543 20.228H651.055L648.003 30H645.861ZM652.922 30V20.228H659.936V21.488H654.406V24.302H658.214V25.562H654.406V28.74H659.992V30H652.922Z" fill="#080708"/>
<rect x="45" y="209" width="100" height="100" rx="50" fill="#F5EEEB"/>
<path d="M72.8383 264V254.228H79.8523V255.488H74.3223V258.302H78.1303V259.562H74.3223V262.74H79.9083V264H72.8383ZM81.4258 264L82.1538 254.228H84.0998L85.3458 260.01L85.6398 261.914L85.9478 260.01L87.1658 254.228H89.0838L89.8258 264H88.3558L88.0338 257.882L87.9778 255.726L87.5578 257.882L86.2278 264H84.9678L83.6518 257.882L83.2598 255.698L83.1758 257.882L82.8678 264H81.4258ZM92.3653 261.536V260.276H97.7833V261.536H92.3653ZM93.9333 254.228H96.0613L99.0853 264H97.5593L95.5853 257.532L94.9973 255.39L94.4093 257.546L92.4073 264H90.9093L93.9333 254.228ZM103.641 264V254.228H105.125V264H103.641ZM101.191 254.228H107.561V255.488H101.191V254.228ZM101.191 262.74H107.561V264H101.191V262.74ZM110.758 264V254.228H112.242V262.74H117.366V264H110.758Z" fill="#080708"/>
<path d="M235 145C235 142.239 237.239 140 240 140H450C452.761 140 455 142.239 455 145V190H235V145Z" fill="#7895FF"/>
<path d="M290.367 170V160.228H291.851V168.74H296.975V170H290.367ZM300.131 167.536V166.276H305.549V167.536H300.131ZM301.699 160.228H303.827L306.851 170H305.325L303.351 163.532L302.763 161.39L302.175 163.546L300.173 170H298.675L301.699 160.228ZM311.406 170V161.488H308.256V160.228H316.04V161.488H312.89V170H311.406ZM318.146 170V160.228H325.16V161.488H319.63V164.302H323.438V165.562H319.63V168.74H325.216V170H318.146ZM331.059 170.168C330.303 170.168 329.645 170.023 329.085 169.734C328.525 169.445 328.091 169.029 327.783 168.488C327.475 167.947 327.321 167.289 327.321 166.514H328.791C328.791 167.279 328.992 167.872 329.393 168.292C329.794 168.703 330.345 168.908 331.045 168.908C331.642 168.908 332.123 168.773 332.487 168.502C332.851 168.222 333.033 167.835 333.033 167.34C333.033 167.004 332.93 166.733 332.725 166.528C332.529 166.323 332.263 166.155 331.927 166.024C331.6 165.893 331.241 165.777 330.849 165.674C330.457 165.571 330.06 165.459 329.659 165.338C329.267 165.207 328.903 165.044 328.567 164.848C328.24 164.652 327.974 164.391 327.769 164.064C327.573 163.737 327.475 163.322 327.475 162.818C327.475 162.286 327.615 161.815 327.895 161.404C328.184 160.984 328.581 160.657 329.085 160.424C329.598 160.181 330.2 160.06 330.891 160.06C331.563 160.06 332.165 160.186 332.697 160.438C333.229 160.681 333.654 161.031 333.971 161.488C334.298 161.936 334.466 162.477 334.475 163.112H332.991C332.982 162.739 332.879 162.421 332.683 162.16C332.496 161.889 332.244 161.684 331.927 161.544C331.619 161.395 331.274 161.32 330.891 161.32C330.34 161.32 329.892 161.451 329.547 161.712C329.202 161.973 329.029 162.328 329.029 162.776C329.029 163.093 329.127 163.345 329.323 163.532C329.528 163.719 329.794 163.873 330.121 163.994C330.457 164.106 330.821 164.213 331.213 164.316C331.614 164.409 332.011 164.521 332.403 164.652C332.795 164.773 333.154 164.941 333.481 165.156C333.817 165.361 334.083 165.641 334.279 165.996C334.484 166.341 334.587 166.785 334.587 167.326C334.587 167.905 334.433 168.409 334.125 168.838C333.817 169.258 333.397 169.585 332.865 169.818C332.333 170.051 331.731 170.168 331.059 170.168ZM339.563 170V161.488H336.413V160.228H344.197V161.488H341.047V170H339.563ZM358.333 170V160.228H359.817V170H358.333ZM355.883 160.228H362.253V161.488H355.883V160.228ZM355.883 168.74H362.253V170H355.883V168.74ZM368.601 170.168C367.845 170.168 367.187 170.023 366.627 169.734C366.067 169.445 365.633 169.029 365.325 168.488C365.017 167.947 364.863 167.289 364.863 166.514H366.333C366.333 167.279 366.534 167.872 366.935 168.292C367.336 168.703 367.887 168.908 368.587 168.908C369.184 168.908 369.665 168.773 370.029 168.502C370.393 168.222 370.575 167.835 370.575 167.34C370.575 167.004 370.472 166.733 370.267 166.528C370.071 166.323 369.805 166.155 369.469 166.024C369.142 165.893 368.783 165.777 368.391 165.674C367.999 165.571 367.602 165.459 367.201 165.338C366.809 165.207 366.445 165.044 366.109 164.848C365.782 164.652 365.516 164.391 365.311 164.064C365.115 163.737 365.017 163.322 365.017 162.818C365.017 162.286 365.157 161.815 365.437 161.404C365.726 160.984 366.123 160.657 366.627 160.424C367.14 160.181 367.742 160.06 368.433 160.06C369.105 160.06 369.707 160.186 370.239 160.438C370.771 160.681 371.196 161.031 371.513 161.488C371.84 161.936 372.008 162.477 372.017 163.112H370.533C370.524 162.739 370.421 162.421 370.225 162.16C370.038 161.889 369.786 161.684 369.469 161.544C369.161 161.395 368.816 161.32 368.433 161.32C367.882 161.32 367.434 161.451 367.089 161.712C366.744 161.973 366.571 162.328 366.571 162.776C366.571 163.093 366.669 163.345 366.865 163.532C367.07 163.719 367.336 163.873 367.663 163.994C367.999 164.106 368.363 164.213 368.755 164.316C369.156 164.409 369.553 164.521 369.945 164.652C370.337 164.773 370.696 164.941 371.023 165.156C371.359 165.361 371.625 165.641 371.821 165.996C372.026 166.341 372.129 166.785 372.129 167.326C372.129 167.905 371.975 168.409 371.667 168.838C371.359 169.258 370.939 169.585 370.407 169.818C369.875 170.051 369.273 170.168 368.601 170.168ZM377.986 170.168C377.23 170.168 376.572 170.023 376.012 169.734C375.452 169.445 375.018 169.029 374.71 168.488C374.402 167.947 374.248 167.289 374.248 166.514H375.718C375.718 167.279 375.919 167.872 376.32 168.292C376.722 168.703 377.272 168.908 377.972 168.908C378.57 168.908 379.05 168.773 379.414 168.502C379.778 168.222 379.96 167.835 379.96 167.34C379.96 167.004 379.858 166.733 379.652 166.528C379.456 166.323 379.19 166.155 378.854 166.024C378.528 165.893 378.168 165.777 377.776 165.674C377.384 165.571 376.988 165.459 376.586 165.338C376.194 165.207 375.83 165.044 375.494 164.848C375.168 164.652 374.902 164.391 374.696 164.064C374.5 163.737 374.402 163.322 374.402 162.818C374.402 162.286 374.542 161.815 374.822 161.404C375.112 160.984 375.508 160.657 376.012 160.424C376.526 160.181 377.128 160.06 377.818 160.06C378.49 160.06 379.092 160.186 379.624 160.438C380.156 160.681 380.581 161.031 380.898 161.488C381.225 161.936 381.393 162.477 381.402 163.112H379.918C379.909 162.739 379.806 162.421 379.61 162.16C379.424 161.889 379.172 161.684 378.854 161.544C378.546 161.395 378.201 161.32 377.818 161.32C377.268 161.32 376.82 161.451 376.474 161.712C376.129 161.973 375.956 162.328 375.956 162.776C375.956 163.093 376.054 163.345 376.25 163.532C376.456 163.719 376.722 163.873 377.048 163.994C377.384 164.106 377.748 164.213 378.14 164.316C378.542 164.409 378.938 164.521 379.33 164.652C379.722 164.773 380.082 164.941 380.408 165.156C380.744 165.361 381.01 165.641 381.206 165.996C381.412 166.341 381.514 166.785 381.514 167.326C381.514 167.905 381.36 168.409 381.052 168.838C380.744 169.258 380.324 169.585 379.792 169.818C379.26 170.051 378.658 170.168 377.986 170.168ZM387.246 170.168C386.481 170.168 385.813 170.019 385.244 169.72C384.675 169.412 384.231 168.987 383.914 168.446C383.597 167.895 383.438 167.256 383.438 166.528V160.228H384.936V166.528C384.936 167.004 385.029 167.419 385.216 167.774C385.412 168.129 385.683 168.404 386.028 168.6C386.373 168.796 386.779 168.894 387.246 168.894C387.713 168.894 388.114 168.796 388.45 168.6C388.795 168.404 389.061 168.129 389.248 167.774C389.444 167.419 389.542 167.004 389.542 166.528V160.228H391.04V166.528C391.04 167.256 390.881 167.895 390.564 168.446C390.247 168.987 389.803 169.412 389.234 169.72C388.674 170.019 388.011 170.168 387.246 170.168ZM393.229 170V160.228H400.243V161.488H394.713V164.302H398.521V165.562H394.713V168.74H400.299V170H393.229Z" fill="#080708"/>
<mask id="path-7-inside-1_484_10949" fill="white">
<path d="M235 190H455V372C455 375.314 452.314 378 449 378H240C237.239 378 235 375.761 235 373V190Z"/>
</mask>
<path d="M235 190H455V372C455 375.314 452.314 378 449 378H240C237.239 378 235 375.761 235 373V190Z" fill="#7895FF"/>
<path d="M235 189H455V191H235V189ZM455 378H235H455ZM235 378V190V378ZM455 190V378V190Z" fill="#080708" mask="url(#path-7-inside-1_484_10949)"/>
<rect x="245" y="200" width="200" height="50" rx="5" fill="#080708"/>
<path d="M326.366 230.168C325.61 230.168 324.952 230.023 324.392 229.734C323.832 229.445 323.398 229.029 323.09 228.488C322.782 227.947 322.628 227.289 322.628 226.514H324.098C324.098 227.279 324.299 227.872 324.7 228.292C325.102 228.703 325.652 228.908 326.352 228.908C326.95 228.908 327.43 228.773 327.794 228.502C328.158 228.222 328.34 227.835 328.34 227.34C328.34 227.004 328.238 226.733 328.032 226.528C327.836 226.323 327.57 226.155 327.234 226.024C326.908 225.893 326.548 225.777 326.156 225.674C325.764 225.571 325.368 225.459 324.966 225.338C324.574 225.207 324.21 225.044 323.874 224.848C323.548 224.652 323.282 224.391 323.076 224.064C322.88 223.737 322.782 223.322 322.782 222.818C322.782 222.286 322.922 221.815 323.202 221.404C323.492 220.984 323.888 220.657 324.392 220.424C324.906 220.181 325.508 220.06 326.198 220.06C326.87 220.06 327.472 220.186 328.004 220.438C328.536 220.681 328.961 221.031 329.278 221.488C329.605 221.936 329.773 222.477 329.782 223.112H328.298C328.289 222.739 328.186 222.421 327.99 222.16C327.804 221.889 327.552 221.684 327.234 221.544C326.926 221.395 326.581 221.32 326.198 221.32C325.648 221.32 325.2 221.451 324.854 221.712C324.509 221.973 324.336 222.328 324.336 222.776C324.336 223.093 324.434 223.345 324.63 223.532C324.836 223.719 325.102 223.873 325.428 223.994C325.764 224.106 326.128 224.213 326.52 224.316C326.922 224.409 327.318 224.521 327.71 224.652C328.102 224.773 328.462 224.941 328.788 225.156C329.124 225.361 329.39 225.641 329.586 225.996C329.792 226.341 329.894 226.785 329.894 227.326C329.894 227.905 329.74 228.409 329.432 228.838C329.124 229.258 328.704 229.585 328.172 229.818C327.64 230.051 327.038 230.168 326.366 230.168ZM334.87 230V221.488H331.72V220.228H339.504V221.488H336.354V230H334.87ZM345.011 230.168C344.181 230.168 343.457 229.963 342.841 229.552C342.225 229.132 341.745 228.544 341.399 227.788C341.063 227.032 340.895 226.141 340.895 225.114C340.895 224.078 341.063 223.182 341.399 222.426C341.745 221.67 342.225 221.087 342.841 220.676C343.457 220.265 344.181 220.06 345.011 220.06C345.842 220.06 346.565 220.265 347.181 220.676C347.797 221.087 348.273 221.67 348.609 222.426C348.955 223.182 349.127 224.078 349.127 225.114C349.127 226.141 348.955 227.032 348.609 227.788C348.273 228.544 347.797 229.132 347.181 229.552C346.565 229.963 345.842 230.168 345.011 230.168ZM345.011 228.908C345.525 228.908 345.973 228.754 346.355 228.446C346.738 228.138 347.037 227.699 347.251 227.13C347.466 226.561 347.573 225.889 347.573 225.114C347.573 224.33 347.466 223.658 347.251 223.098C347.037 222.529 346.738 222.09 346.355 221.782C345.973 221.474 345.525 221.32 345.011 221.32C344.507 221.32 344.059 221.474 343.667 221.782C343.285 222.09 342.986 222.529 342.771 223.098C342.557 223.667 342.449 224.339 342.449 225.114C342.449 225.889 342.557 226.561 342.771 227.13C342.986 227.699 343.285 228.138 343.667 228.446C344.059 228.754 344.507 228.908 345.011 228.908ZM352.087 225.912V224.652H354.565C354.975 224.652 355.335 224.587 355.643 224.456C355.96 224.316 356.207 224.12 356.385 223.868C356.571 223.616 356.665 223.327 356.665 223C356.665 222.683 356.585 222.412 356.427 222.188C356.268 221.964 356.053 221.791 355.783 221.67C355.512 221.549 355.209 221.488 354.873 221.488H352.087V220.228H354.873C355.517 220.228 356.091 220.34 356.595 220.564C357.099 220.779 357.495 221.091 357.785 221.502C358.074 221.913 358.219 222.412 358.219 223C358.219 223.373 358.13 223.733 357.953 224.078C357.785 224.423 357.537 224.736 357.211 225.016C356.893 225.287 356.506 225.506 356.049 225.674C355.591 225.833 355.073 225.912 354.495 225.912H352.087ZM351.023 230V220.228H352.507V230H351.023ZM356.637 230C356.581 229.561 356.459 229.127 356.273 228.698C356.095 228.269 355.853 227.858 355.545 227.466C355.237 227.074 354.854 226.71 354.397 226.374C353.949 226.038 353.426 225.735 352.829 225.464L354.481 225.1C355.097 225.408 355.624 225.753 356.063 226.136C356.511 226.509 356.879 226.906 357.169 227.326C357.467 227.746 357.691 228.18 357.841 228.628C357.999 229.076 358.102 229.533 358.149 230H356.637ZM362.998 230V226.038L359.764 220.228H361.388L362.9 222.916L363.768 224.75L364.65 222.902L366.162 220.228H367.772L364.482 226.038V230H362.998Z" fill="#F5EEEB"/>
<rect x="245" y="259" width="200" height="50" rx="5" fill="#080708"/>
<path d="M326.366 289.168C325.61 289.168 324.952 289.023 324.392 288.734C323.832 288.445 323.398 288.029 323.09 287.488C322.782 286.947 322.628 286.289 322.628 285.514H324.098C324.098 286.279 324.299 286.872 324.7 287.292C325.102 287.703 325.652 287.908 326.352 287.908C326.95 287.908 327.43 287.773 327.794 287.502C328.158 287.222 328.34 286.835 328.34 286.34C328.34 286.004 328.238 285.733 328.032 285.528C327.836 285.323 327.57 285.155 327.234 285.024C326.908 284.893 326.548 284.777 326.156 284.674C325.764 284.571 325.368 284.459 324.966 284.338C324.574 284.207 324.21 284.044 323.874 283.848C323.548 283.652 323.282 283.391 323.076 283.064C322.88 282.737 322.782 282.322 322.782 281.818C322.782 281.286 322.922 280.815 323.202 280.404C323.492 279.984 323.888 279.657 324.392 279.424C324.906 279.181 325.508 279.06 326.198 279.06C326.87 279.06 327.472 279.186 328.004 279.438C328.536 279.681 328.961 280.031 329.278 280.488C329.605 280.936 329.773 281.477 329.782 282.112H328.298C328.289 281.739 328.186 281.421 327.99 281.16C327.804 280.889 327.552 280.684 327.234 280.544C326.926 280.395 326.581 280.32 326.198 280.32C325.648 280.32 325.2 280.451 324.854 280.712C324.509 280.973 324.336 281.328 324.336 281.776C324.336 282.093 324.434 282.345 324.63 282.532C324.836 282.719 325.102 282.873 325.428 282.994C325.764 283.106 326.128 283.213 326.52 283.316C326.922 283.409 327.318 283.521 327.71 283.652C328.102 283.773 328.462 283.941 328.788 284.156C329.124 284.361 329.39 284.641 329.586 284.996C329.792 285.341 329.894 285.785 329.894 286.326C329.894 286.905 329.74 287.409 329.432 287.838C329.124 288.258 328.704 288.585 328.172 288.818C327.64 289.051 327.038 289.168 326.366 289.168ZM334.87 289V280.488H331.72V279.228H339.504V280.488H336.354V289H334.87ZM345.011 289.168C344.181 289.168 343.457 288.963 342.841 288.552C342.225 288.132 341.745 287.544 341.399 286.788C341.063 286.032 340.895 285.141 340.895 284.114C340.895 283.078 341.063 282.182 341.399 281.426C341.745 280.67 342.225 280.087 342.841 279.676C343.457 279.265 344.181 279.06 345.011 279.06C345.842 279.06 346.565 279.265 347.181 279.676C347.797 280.087 348.273 280.67 348.609 281.426C348.955 282.182 349.127 283.078 349.127 284.114C349.127 285.141 348.955 286.032 348.609 286.788C348.273 287.544 347.797 288.132 347.181 288.552C346.565 288.963 345.842 289.168 345.011 289.168ZM345.011 287.908C345.525 287.908 345.973 287.754 346.355 287.446C346.738 287.138 347.037 286.699 347.251 286.13C347.466 285.561 347.573 284.889 347.573 284.114C347.573 283.33 347.466 282.658 347.251 282.098C347.037 281.529 346.738 281.09 346.355 280.782C345.973 280.474 345.525 280.32 345.011 280.32C344.507 280.32 344.059 280.474 343.667 280.782C343.285 281.09 342.986 281.529 342.771 282.098C342.557 282.667 342.449 283.339 342.449 284.114C342.449 284.889 342.557 285.561 342.771 286.13C342.986 286.699 343.285 287.138 343.667 287.446C344.059 287.754 344.507 287.908 345.011 287.908ZM352.087 284.912V283.652H354.565C354.975 283.652 355.335 283.587 355.643 283.456C355.96 283.316 356.207 283.12 356.385 282.868C356.571 282.616 356.665 282.327 356.665 282C356.665 281.683 356.585 281.412 356.427 281.188C356.268 280.964 356.053 280.791 355.783 280.67C355.512 280.549 355.209 280.488 354.873 280.488H352.087V279.228H354.873C355.517 279.228 356.091 279.34 356.595 279.564C357.099 279.779 357.495 280.091 357.785 280.502C358.074 280.913 358.219 281.412 358.219 282C358.219 282.373 358.13 282.733 357.953 283.078C357.785 283.423 357.537 283.736 357.211 284.016C356.893 284.287 356.506 284.506 356.049 284.674C355.591 284.833 355.073 284.912 354.495 284.912H352.087ZM351.023 289V279.228H352.507V289H351.023ZM356.637 289C356.581 288.561 356.459 288.127 356.273 287.698C356.095 287.269 355.853 286.858 355.545 286.466C355.237 286.074 354.854 285.71 354.397 285.374C353.949 285.038 353.426 284.735 352.829 284.464L354.481 284.1C355.097 284.408 355.624 284.753 356.063 285.136C356.511 285.509 356.879 285.906 357.169 286.326C357.467 286.746 357.691 287.18 357.841 287.628C357.999 288.076 358.102 288.533 358.149 289H356.637ZM362.998 289V285.038L359.764 279.228H361.388L362.9 281.916L363.768 283.75L364.65 281.902L366.162 279.228H367.772L364.482 285.038V289H362.998Z" fill="#F5EEEB"/>
<rect x="245" y="318" width="200" height="50" rx="5" fill="#080708"/>
<path d="M326.366 348.168C325.61 348.168 324.952 348.023 324.392 347.734C323.832 347.445 323.398 347.029 323.09 346.488C322.782 345.947 322.628 345.289 322.628 344.514H324.098C324.098 345.279 324.299 345.872 324.7 346.292C325.102 346.703 325.652 346.908 326.352 346.908C326.95 346.908 327.43 346.773 327.794 346.502C328.158 346.222 328.34 345.835 328.34 345.34C328.34 345.004 328.238 344.733 328.032 344.528C327.836 344.323 327.57 344.155 327.234 344.024C326.908 343.893 326.548 343.777 326.156 343.674C325.764 343.571 325.368 343.459 324.966 343.338C324.574 343.207 324.21 343.044 323.874 342.848C323.548 342.652 323.282 342.391 323.076 342.064C322.88 341.737 322.782 341.322 322.782 340.818C322.782 340.286 322.922 339.815 323.202 339.404C323.492 338.984 323.888 338.657 324.392 338.424C324.906 338.181 325.508 338.06 326.198 338.06C326.87 338.06 327.472 338.186 328.004 338.438C328.536 338.681 328.961 339.031 329.278 339.488C329.605 339.936 329.773 340.477 329.782 341.112H328.298C328.289 340.739 328.186 340.421 327.99 340.16C327.804 339.889 327.552 339.684 327.234 339.544C326.926 339.395 326.581 339.32 326.198 339.32C325.648 339.32 325.2 339.451 324.854 339.712C324.509 339.973 324.336 340.328 324.336 340.776C324.336 341.093 324.434 341.345 324.63 341.532C324.836 341.719 325.102 341.873 325.428 341.994C325.764 342.106 326.128 342.213 326.52 342.316C326.922 342.409 327.318 342.521 327.71 342.652C328.102 342.773 328.462 342.941 328.788 343.156C329.124 343.361 329.39 343.641 329.586 343.996C329.792 344.341 329.894 344.785 329.894 345.326C329.894 345.905 329.74 346.409 329.432 346.838C329.124 347.258 328.704 347.585 328.172 347.818C327.64 348.051 327.038 348.168 326.366 348.168ZM334.87 348V339.488H331.72V338.228H339.504V339.488H336.354V348H334.87ZM345.011 348.168C344.181 348.168 343.457 347.963 342.841 347.552C342.225 347.132 341.745 346.544 341.399 345.788C341.063 345.032 340.895 344.141 340.895 343.114C340.895 342.078 341.063 341.182 341.399 340.426C341.745 339.67 342.225 339.087 342.841 338.676C343.457 338.265 344.181 338.06 345.011 338.06C345.842 338.06 346.565 338.265 347.181 338.676C347.797 339.087 348.273 339.67 348.609 340.426C348.955 341.182 349.127 342.078 349.127 343.114C349.127 344.141 348.955 345.032 348.609 345.788C348.273 346.544 347.797 347.132 347.181 347.552C346.565 347.963 345.842 348.168 345.011 348.168ZM345.011 346.908C345.525 346.908 345.973 346.754 346.355 346.446C346.738 346.138 347.037 345.699 347.251 345.13C347.466 344.561 347.573 343.889 347.573 343.114C347.573 342.33 347.466 341.658 347.251 341.098C347.037 340.529 346.738 340.09 346.355 339.782C345.973 339.474 345.525 339.32 345.011 339.32C344.507 339.32 344.059 339.474 343.667 339.782C343.285 340.09 342.986 340.529 342.771 341.098C342.557 341.667 342.449 342.339 342.449 343.114C342.449 343.889 342.557 344.561 342.771 345.13C342.986 345.699 343.285 346.138 343.667 346.446C344.059 346.754 344.507 346.908 345.011 346.908ZM352.087 343.912V342.652H354.565C354.975 342.652 355.335 342.587 355.643 342.456C355.96 342.316 356.207 342.12 356.385 341.868C356.571 341.616 356.665 341.327 356.665 341C356.665 340.683 356.585 340.412 356.427 340.188C356.268 339.964 356.053 339.791 355.783 339.67C355.512 339.549 355.209 339.488 354.873 339.488H352.087V338.228H354.873C355.517 338.228 356.091 338.34 356.595 338.564C357.099 338.779 357.495 339.091 357.785 339.502C358.074 339.913 358.219 340.412 358.219 341C358.219 341.373 358.13 341.733 357.953 342.078C357.785 342.423 357.537 342.736 357.211 343.016C356.893 343.287 356.506 343.506 356.049 343.674C355.591 343.833 355.073 343.912 354.495 343.912H352.087ZM351.023 348V338.228H352.507V348H351.023ZM356.637 348C356.581 347.561 356.459 347.127 356.273 346.698C356.095 346.269 355.853 345.858 355.545 345.466C355.237 345.074 354.854 344.71 354.397 344.374C353.949 344.038 353.426 343.735 352.829 343.464L354.481 343.1C355.097 343.408 355.624 343.753 356.063 344.136C356.511 344.509 356.879 344.906 357.169 345.326C357.467 345.746 357.691 346.18 357.841 346.628C357.999 347.076 358.102 347.533 358.149 348H356.637ZM362.998 348V344.038L359.764 338.228H361.388L362.9 340.916L363.768 342.75L364.65 340.902L366.162 338.228H367.772L364.482 344.038V348H362.998Z" fill="#F5EEEB"/>
<g opacity="0.55">
<path d="M485 145C485 142.239 487.239 140 490 140H700C702.761 140 705 142.239 705 145V190H485V145Z" fill="#BEBFBD"/>
<path d="M557.469 170.168C556.639 170.168 555.915 169.963 555.299 169.552C554.683 169.132 554.203 168.544 553.857 167.788C553.521 167.032 553.353 166.141 553.353 165.114C553.353 164.078 553.521 163.182 553.857 162.426C554.203 161.67 554.683 161.087 555.299 160.676C555.915 160.265 556.639 160.06 557.469 160.06C558.3 160.06 559.023 160.265 559.639 160.676C560.255 161.087 560.731 161.67 561.067 162.426C561.413 163.182 561.585 164.078 561.585 165.114C561.585 166.141 561.413 167.032 561.067 167.788C560.731 168.544 560.255 169.132 559.639 169.552C559.023 169.963 558.3 170.168 557.469 170.168ZM557.469 168.908C557.983 168.908 558.431 168.754 558.813 168.446C559.196 168.138 559.495 167.699 559.709 167.13C559.924 166.561 560.031 165.889 560.031 165.114C560.031 164.33 559.924 163.658 559.709 163.098C559.495 162.529 559.196 162.09 558.813 161.782C558.431 161.474 557.983 161.32 557.469 161.32C556.965 161.32 556.517 161.474 556.125 161.782C555.743 162.09 555.444 162.529 555.229 163.098C555.015 163.667 554.907 164.339 554.907 165.114C554.907 165.889 555.015 166.561 555.229 167.13C555.444 167.699 555.743 168.138 556.125 168.446C556.517 168.754 556.965 168.908 557.469 168.908ZM563.831 170V160.228H565.315V168.74H570.439V170H563.831ZM572.642 170V160.228H575.652C576.362 160.228 577.001 160.345 577.57 160.578C578.14 160.802 578.625 161.129 579.026 161.558C579.428 161.978 579.736 162.487 579.95 163.084C580.165 163.681 580.272 164.349 580.272 165.086C580.272 165.833 580.165 166.509 579.95 167.116C579.736 167.713 579.428 168.231 579.026 168.67C578.625 169.099 578.14 169.431 577.57 169.664C577.001 169.888 576.362 170 575.652 170H572.642ZM574.126 168.74H575.652C576.287 168.74 576.833 168.591 577.29 168.292C577.748 167.984 578.098 167.555 578.34 167.004C578.592 166.453 578.718 165.814 578.718 165.086C578.718 164.349 578.592 163.714 578.34 163.182C578.098 162.641 577.748 162.225 577.29 161.936C576.833 161.637 576.287 161.488 575.652 161.488H574.126V168.74ZM594.255 170V160.228H595.739V170H594.255ZM591.805 160.228H598.175V161.488H591.805V160.228ZM591.805 168.74H598.175V170H591.805V168.74ZM604.523 170.168C603.767 170.168 603.109 170.023 602.549 169.734C601.989 169.445 601.555 169.029 601.247 168.488C600.939 167.947 600.785 167.289 600.785 166.514H602.255C602.255 167.279 602.455 167.872 602.857 168.292C603.258 168.703 603.809 168.908 604.509 168.908C605.106 168.908 605.587 168.773 605.951 168.502C606.315 168.222 606.497 167.835 606.497 167.34C606.497 167.004 606.394 166.733 606.189 166.528C605.993 166.323 605.727 166.155 605.391 166.024C605.064 165.893 604.705 165.777 604.313 165.674C603.921 165.571 603.524 165.459 603.123 165.338C602.731 165.207 602.367 165.044 602.031 164.848C601.704 164.652 601.438 164.391 601.233 164.064C601.037 163.737 600.939 163.322 600.939 162.818C600.939 162.286 601.079 161.815 601.359 161.404C601.648 160.984 602.045 160.657 602.549 160.424C603.062 160.181 603.664 160.06 604.355 160.06C605.027 160.06 605.629 160.186 606.161 160.438C606.693 160.681 607.117 161.031 607.435 161.488C607.761 161.936 607.929 162.477 607.939 163.112H606.455C606.445 162.739 606.343 162.421 606.147 162.16C605.96 161.889 605.708 161.684 605.391 161.544C605.083 161.395 604.737 161.32 604.355 161.32C603.804 161.32 603.356 161.451 603.011 161.712C602.665 161.973 602.493 162.328 602.493 162.776C602.493 163.093 602.591 163.345 602.787 163.532C602.992 163.719 603.258 163.873 603.585 163.994C603.921 164.106 604.285 164.213 604.677 164.316C605.078 164.409 605.475 164.521 605.867 164.652C606.259 164.773 606.618 164.941 606.945 165.156C607.281 165.361 607.547 165.641 607.743 165.996C607.948 166.341 608.051 166.785 608.051 167.326C608.051 167.905 607.897 168.409 607.589 168.838C607.281 169.258 606.861 169.585 606.329 169.818C605.797 170.051 605.195 170.168 604.523 170.168ZM613.908 170.168C613.152 170.168 612.494 170.023 611.934 169.734C611.374 169.445 610.94 169.029 610.632 168.488C610.324 167.947 610.17 167.289 610.17 166.514H611.64C611.64 167.279 611.841 167.872 612.242 168.292C612.644 168.703 613.194 168.908 613.894 168.908C614.492 168.908 614.972 168.773 615.336 168.502C615.7 168.222 615.882 167.835 615.882 167.34C615.882 167.004 615.78 166.733 615.574 166.528C615.378 166.323 615.112 166.155 614.776 166.024C614.45 165.893 614.09 165.777 613.698 165.674C613.306 165.571 612.91 165.459 612.508 165.338C612.116 165.207 611.752 165.044 611.416 164.848C611.09 164.652 610.824 164.391 610.618 164.064C610.422 163.737 610.324 163.322 610.324 162.818C610.324 162.286 610.464 161.815 610.744 161.404C611.034 160.984 611.43 160.657 611.934 160.424C612.448 160.181 613.05 160.06 613.74 160.06C614.412 160.06 615.014 160.186 615.546 160.438C616.078 160.681 616.503 161.031 616.82 161.488C617.147 161.936 617.315 162.477 617.324 163.112H615.84C615.831 162.739 615.728 162.421 615.532 162.16C615.346 161.889 615.094 161.684 614.776 161.544C614.468 161.395 614.123 161.32 613.74 161.32C613.19 161.32 612.742 161.451 612.396 161.712C612.051 161.973 611.878 162.328 611.878 162.776C611.878 163.093 611.976 163.345 612.172 163.532C612.378 163.719 612.644 163.873 612.97 163.994C613.306 164.106 613.67 164.213 614.062 164.316C614.464 164.409 614.86 164.521 615.252 164.652C615.644 164.773 616.004 164.941 616.33 165.156C616.666 165.361 616.932 165.641 617.128 165.996C617.334 166.341 617.436 166.785 617.436 167.326C617.436 167.905 617.282 168.409 616.974 168.838C616.666 169.258 616.246 169.585 615.714 169.818C615.182 170.051 614.58 170.168 613.908 170.168ZM623.168 170.168C622.402 170.168 621.735 170.019 621.166 169.72C620.596 169.412 620.153 168.987 619.836 168.446C619.518 167.895 619.36 167.256 619.36 166.528V160.228H620.858V166.528C620.858 167.004 620.951 167.419 621.138 167.774C621.334 168.129 621.604 168.404 621.95 168.6C622.295 168.796 622.701 168.894 623.168 168.894C623.634 168.894 624.036 168.796 624.372 168.6C624.717 168.404 624.983 168.129 625.17 167.774C625.366 167.419 625.464 167.004 625.464 166.528V160.228H626.962V166.528C626.962 167.256 626.803 167.895 626.486 168.446C626.168 168.987 625.725 169.412 625.156 169.72C624.596 170.019 623.933 170.168 623.168 170.168ZM629.151 170V160.228H636.165V161.488H630.635V164.302H634.443V165.562H630.635V168.74H636.221V170H629.151Z" fill="#080708"/>
<mask id="path-17-inside-2_484_10949" fill="white">
<path d="M485 190H705V372C705 375.314 702.314 378 699 378H490C487.239 378 485 375.761 485 373V190Z"/>
</mask>
<path d="M485 190H705V372C705 375.314 702.314 378 699 378H490C487.239 378 485 375.761 485 373V190Z" fill="#BEBFBD"/>
<path d="M485 189H705V191H485V189ZM705 378H485H705ZM485 378V190V378ZM705 190V378V190Z" fill="#080708" mask="url(#path-17-inside-2_484_10949)"/>
<rect x="495" y="200" width="200" height="50" rx="5" fill="#080708"/>
<path d="M576.366 230.168C575.61 230.168 574.952 230.023 574.392 229.734C573.832 229.445 573.398 229.029 573.09 228.488C572.782 227.947 572.628 227.289 572.628 226.514H574.098C574.098 227.279 574.299 227.872 574.7 228.292C575.102 228.703 575.652 228.908 576.352 228.908C576.95 228.908 577.43 228.773 577.794 228.502C578.158 228.222 578.34 227.835 578.34 227.34C578.34 227.004 578.238 226.733 578.032 226.528C577.836 226.323 577.57 226.155 577.234 226.024C576.908 225.893 576.548 225.777 576.156 225.674C575.764 225.571 575.368 225.459 574.966 225.338C574.574 225.207 574.21 225.044 573.874 224.848C573.548 224.652 573.282 224.391 573.076 224.064C572.88 223.737 572.782 223.322 572.782 222.818C572.782 222.286 572.922 221.815 573.202 221.404C573.492 220.984 573.888 220.657 574.392 220.424C574.906 220.181 575.508 220.06 576.198 220.06C576.87 220.06 577.472 220.186 578.004 220.438C578.536 220.681 578.961 221.031 579.278 221.488C579.605 221.936 579.773 222.477 579.782 223.112H578.298C578.289 222.739 578.186 222.421 577.99 222.16C577.804 221.889 577.552 221.684 577.234 221.544C576.926 221.395 576.581 221.32 576.198 221.32C575.648 221.32 575.2 221.451 574.854 221.712C574.509 221.973 574.336 222.328 574.336 222.776C574.336 223.093 574.434 223.345 574.63 223.532C574.836 223.719 575.102 223.873 575.428 223.994C575.764 224.106 576.128 224.213 576.52 224.316C576.922 224.409 577.318 224.521 577.71 224.652C578.102 224.773 578.462 224.941 578.788 225.156C579.124 225.361 579.39 225.641 579.586 225.996C579.792 226.341 579.894 226.785 579.894 227.326C579.894 227.905 579.74 228.409 579.432 228.838C579.124 229.258 578.704 229.585 578.172 229.818C577.64 230.051 577.038 230.168 576.366 230.168ZM584.87 230V221.488H581.72V220.228H589.504V221.488H586.354V230H584.87ZM595.011 230.168C594.181 230.168 593.457 229.963 592.841 229.552C592.225 229.132 591.745 228.544 591.399 227.788C591.063 227.032 590.895 226.141 590.895 225.114C590.895 224.078 591.063 223.182 591.399 222.426C591.745 221.67 592.225 221.087 592.841 220.676C593.457 220.265 594.181 220.06 595.011 220.06C595.842 220.06 596.565 220.265 597.181 220.676C597.797 221.087 598.273 221.67 598.609 222.426C598.955 223.182 599.127 224.078 599.127 225.114C599.127 226.141 598.955 227.032 598.609 227.788C598.273 228.544 597.797 229.132 597.181 229.552C596.565 229.963 595.842 230.168 595.011 230.168ZM595.011 228.908C595.525 228.908 595.973 228.754 596.355 228.446C596.738 228.138 597.037 227.699 597.251 227.13C597.466 226.561 597.573 225.889 597.573 225.114C597.573 224.33 597.466 223.658 597.251 223.098C597.037 222.529 596.738 222.09 596.355 221.782C595.973 221.474 595.525 221.32 595.011 221.32C594.507 221.32 594.059 221.474 593.667 221.782C593.285 222.09 592.986 222.529 592.771 223.098C592.557 223.667 592.449 224.339 592.449 225.114C592.449 225.889 592.557 226.561 592.771 227.13C592.986 227.699 593.285 228.138 593.667 228.446C594.059 228.754 594.507 228.908 595.011 228.908ZM602.087 225.912V224.652H604.565C604.975 224.652 605.335 224.587 605.643 224.456C605.96 224.316 606.207 224.12 606.385 223.868C606.571 223.616 606.665 223.327 606.665 223C606.665 222.683 606.585 222.412 606.427 222.188C606.268 221.964 606.053 221.791 605.783 221.67C605.512 221.549 605.209 221.488 604.873 221.488H602.087V220.228H604.873C605.517 220.228 606.091 220.34 606.595 220.564C607.099 220.779 607.495 221.091 607.785 221.502C608.074 221.913 608.219 222.412 608.219 223C608.219 223.373 608.13 223.733 607.953 224.078C607.785 224.423 607.537 224.736 607.211 225.016C606.893 225.287 606.506 225.506 606.049 225.674C605.591 225.833 605.073 225.912 604.495 225.912H602.087ZM601.023 230V220.228H602.507V230H601.023ZM606.637 230C606.581 229.561 606.459 229.127 606.273 228.698C606.095 228.269 605.853 227.858 605.545 227.466C605.237 227.074 604.854 226.71 604.397 226.374C603.949 226.038 603.426 225.735 602.829 225.464L604.481 225.1C605.097 225.408 605.624 225.753 606.063 226.136C606.511 226.509 606.879 226.906 607.169 227.326C607.467 227.746 607.691 228.18 607.841 228.628C607.999 229.076 608.102 229.533 608.149 230H606.637ZM612.998 230V226.038L609.764 220.228H611.388L612.9 222.916L613.768 224.75L614.65 222.902L616.162 220.228H617.772L614.482 226.038V230H612.998Z" fill="#F5EEEB"/>
<rect x="495" y="259" width="200" height="50" rx="5" fill="#080708"/>
<path d="M576.366 289.168C575.61 289.168 574.952 289.023 574.392 288.734C573.832 288.445 573.398 288.029 573.09 287.488C572.782 286.947 572.628 286.289 572.628 285.514H574.098C574.098 286.279 574.299 286.872 574.7 287.292C575.102 287.703 575.652 287.908 576.352 287.908C576.95 287.908 577.43 287.773 577.794 287.502C578.158 287.222 578.34 286.835 578.34 286.34C578.34 286.004 578.238 285.733 578.032 285.528C577.836 285.323 577.57 285.155 577.234 285.024C576.908 284.893 576.548 284.777 576.156 284.674C575.764 284.571 575.368 284.459 574.966 284.338C574.574 284.207 574.21 284.044 573.874 283.848C573.548 283.652 573.282 283.391 573.076 283.064C572.88 282.737 572.782 282.322 572.782 281.818C572.782 281.286 572.922 280.815 573.202 280.404C573.492 279.984 573.888 279.657 574.392 279.424C574.906 279.181 575.508 279.06 576.198 279.06C576.87 279.06 577.472 279.186 578.004 279.438C578.536 279.681 578.961 280.031 579.278 280.488C579.605 280.936 579.773 281.477 579.782 282.112H578.298C578.289 281.739 578.186 281.421 577.99 281.16C577.804 280.889 577.552 280.684 577.234 280.544C576.926 280.395 576.581 280.32 576.198 280.32C575.648 280.32 575.2 280.451 574.854 280.712C574.509 280.973 574.336 281.328 574.336 281.776C574.336 282.093 574.434 282.345 574.63 282.532C574.836 282.719 575.102 282.873 575.428 282.994C575.764 283.106 576.128 283.213 576.52 283.316C576.922 283.409 577.318 283.521 577.71 283.652C578.102 283.773 578.462 283.941 578.788 284.156C579.124 284.361 579.39 284.641 579.586 284.996C579.792 285.341 579.894 285.785 579.894 286.326C579.894 286.905 579.74 287.409 579.432 287.838C579.124 288.258 578.704 288.585 578.172 288.818C577.64 289.051 577.038 289.168 576.366 289.168ZM584.87 289V280.488H581.72V279.228H589.504V280.488H586.354V289H584.87ZM595.011 289.168C594.181 289.168 593.457 288.963 592.841 288.552C592.225 288.132 591.745 287.544 591.399 286.788C591.063 286.032 590.895 285.141 590.895 284.114C590.895 283.078 591.063 282.182 591.399 281.426C591.745 280.67 592.225 280.087 592.841 279.676C593.457 279.265 594.181 279.06 595.011 279.06C595.842 279.06 596.565 279.265 597.181 279.676C597.797 280.087 598.273 280.67 598.609 281.426C598.955 282.182 599.127 283.078 599.127 284.114C599.127 285.141 598.955 286.032 598.609 286.788C598.273 287.544 597.797 288.132 597.181 288.552C596.565 288.963 595.842 289.168 595.011 289.168ZM595.011 287.908C595.525 287.908 595.973 287.754 596.355 287.446C596.738 287.138 597.037 286.699 597.251 286.13C597.466 285.561 597.573 284.889 597.573 284.114C597.573 283.33 597.466 282.658 597.251 282.098C597.037 281.529 596.738 281.09 596.355 280.782C595.973 280.474 595.525 280.32 595.011 280.32C594.507 280.32 594.059 280.474 593.667 280.782C593.285 281.09 592.986 281.529 592.771 282.098C592.557 282.667 592.449 283.339 592.449 284.114C592.449 284.889 592.557 285.561 592.771 286.13C592.986 286.699 593.285 287.138 593.667 287.446C594.059 287.754 594.507 287.908 595.011 287.908ZM602.087 284.912V283.652H604.565C604.975 283.652 605.335 283.587 605.643 283.456C605.96 283.316 606.207 283.12 606.385 282.868C606.571 282.616 606.665 282.327 606.665 282C606.665 281.683 606.585 281.412 606.427 281.188C606.268 280.964 606.053 280.791 605.783 280.67C605.512 280.549 605.209 280.488 604.873 280.488H602.087V279.228H604.873C605.517 279.228 606.091 279.34 606.595 279.564C607.099 279.779 607.495 280.091 607.785 280.502C608.074 280.913 608.219 281.412 608.219 282C608.219 282.373 608.13 282.733 607.953 283.078C607.785 283.423 607.537 283.736 607.211 284.016C606.893 284.287 606.506 284.506 606.049 284.674C605.591 284.833 605.073 284.912 604.495 284.912H602.087ZM601.023 289V279.228H602.507V289H601.023ZM606.637 289C606.581 288.561 606.459 288.127 606.273 287.698C606.095 287.269 605.853 286.858 605.545 286.466C605.237 286.074 604.854 285.71 604.397 285.374C603.949 285.038 603.426 284.735 602.829 284.464L604.481 284.1C605.097 284.408 605.624 284.753 606.063 285.136C606.511 285.509 606.879 285.906 607.169 286.326C607.467 286.746 607.691 287.18 607.841 287.628C607.999 288.076 608.102 288.533 608.149 289H606.637ZM612.998 289V285.038L609.764 279.228H611.388L612.9 281.916L613.768 283.75L614.65 281.902L616.162 279.228H617.772L614.482 285.038V289H612.998Z" fill="#F5EEEB"/>
<rect x="495" y="318" width="200" height="50" rx="5" fill="#080708"/>
<path d="M576.366 348.168C575.61 348.168 574.952 348.023 574.392 347.734C573.832 347.445 573.398 347.029 573.09 346.488C572.782 345.947 572.628 345.289 572.628 344.514H574.098C574.098 345.279 574.299 345.872 574.7 346.292C575.102 346.703 575.652 346.908 576.352 346.908C576.95 346.908 577.43 346.773 577.794 346.502C578.158 346.222 578.34 345.835 578.34 345.34C578.34 345.004 578.238 344.733 578.032 344.528C577.836 344.323 577.57 344.155 577.234 344.024C576.908 343.893 576.548 343.777 576.156 343.674C575.764 343.571 575.368 343.459 574.966 343.338C574.574 343.207 574.21 343.044 573.874 342.848C573.548 342.652 573.282 342.391 573.076 342.064C572.88 341.737 572.782 341.322 572.782 340.818C572.782 340.286 572.922 339.815 573.202 339.404C573.492 338.984 573.888 338.657 574.392 338.424C574.906 338.181 575.508 338.06 576.198 338.06C576.87 338.06 577.472 338.186 578.004 338.438C578.536 338.681 578.961 339.031 579.278 339.488C579.605 339.936 579.773 340.477 579.782 341.112H578.298C578.289 340.739 578.186 340.421 577.99 340.16C577.804 339.889 577.552 339.684 577.234 339.544C576.926 339.395 576.581 339.32 576.198 339.32C575.648 339.32 575.2 339.451 574.854 339.712C574.509 339.973 574.336 340.328 574.336 340.776C574.336 341.093 574.434 341.345 574.63 341.532C574.836 341.719 575.102 341.873 575.428 341.994C575.764 342.106 576.128 342.213 576.52 342.316C576.922 342.409 577.318 342.521 577.71 342.652C578.102 342.773 578.462 342.941 578.788 343.156C579.124 343.361 579.39 343.641 579.586 343.996C579.792 344.341 579.894 344.785 579.894 345.326C579.894 345.905 579.74 346.409 579.432 346.838C579.124 347.258 578.704 347.585 578.172 347.818C577.64 348.051 577.038 348.168 576.366 348.168ZM584.87 348V339.488H581.72V338.228H589.504V339.488H586.354V348H584.87ZM595.011 348.168C594.181 348.168 593.457 347.963 592.841 347.552C592.225 347.132 591.745 346.544 591.399 345.788C591.063 345.032 590.895 344.141 590.895 343.114C590.895 342.078 591.063 341.182 591.399 340.426C591.745 339.67 592.225 339.087 592.841 338.676C593.457 338.265 594.181 338.06 595.011 338.06C595.842 338.06 596.565 338.265 597.181 338.676C597.797 339.087 598.273 339.67 598.609 340.426C598.955 341.182 599.127 342.078 599.127 343.114C599.127 344.141 598.955 345.032 598.609 345.788C598.273 346.544 597.797 347.132 597.181 347.552C596.565 347.963 595.842 348.168 595.011 348.168ZM595.011 346.908C595.525 346.908 595.973 346.754 596.355 346.446C596.738 346.138 597.037 345.699 597.251 345.13C597.466 344.561 597.573 343.889 597.573 343.114C597.573 342.33 597.466 341.658 597.251 341.098C597.037 340.529 596.738 340.09 596.355 339.782C595.973 339.474 595.525 339.32 595.011 339.32C594.507 339.32 594.059 339.474 593.667 339.782C593.285 340.09 592.986 340.529 592.771 341.098C592.557 341.667 592.449 342.339 592.449 343.114C592.449 343.889 592.557 344.561 592.771 345.13C592.986 345.699 593.285 346.138 593.667 346.446C594.059 346.754 594.507 346.908 595.011 346.908ZM602.087 343.912V342.652H604.565C604.975 342.652 605.335 342.587 605.643 342.456C605.96 342.316 606.207 342.12 606.385 341.868C606.571 341.616 606.665 341.327 606.665 341C606.665 340.683 606.585 340.412 606.427 340.188C606.268 339.964 606.053 339.791 605.783 339.67C605.512 339.549 605.209 339.488 604.873 339.488H602.087V338.228H604.873C605.517 338.228 606.091 338.34 606.595 338.564C607.099 338.779 607.495 339.091 607.785 339.502C608.074 339.913 608.219 340.412 608.219 341C608.219 341.373 608.13 341.733 607.953 342.078C607.785 342.423 607.537 342.736 607.211 343.016C606.893 343.287 606.506 343.506 606.049 343.674C605.591 343.833 605.073 343.912 604.495 343.912H602.087ZM601.023 348V338.228H602.507V348H601.023ZM606.637 348C606.581 347.561 606.459 347.127 606.273 346.698C606.095 346.269 605.853 345.858 605.545 345.466C605.237 345.074 604.854 344.71 604.397 344.374C603.949 344.038 603.426 343.735 602.829 343.464L604.481 343.1C605.097 343.408 605.624 343.753 606.063 344.136C606.511 344.509 606.879 344.906 607.169 345.326C607.467 345.746 607.691 346.18 607.841 346.628C607.999 347.076 608.102 347.533 608.149 348H606.637ZM612.998 348V344.038L609.764 338.228H611.388L612.9 340.916L613.768 342.75L614.65 340.902L616.162 338.228H617.772L614.482 344.038V348H612.998Z" fill="#F5EEEB"/>
</g>
<g opacity="0.55">
<path d="M735 145C735 142.239 737.239 140 740 140H950C952.761 140 955 142.239 955 145V190H735V145Z" fill="#BEBFBD"/>
<path d="M807.469 170.168C806.639 170.168 805.915 169.963 805.299 169.552C804.683 169.132 804.203 168.544 803.857 167.788C803.521 167.032 803.353 166.141 803.353 165.114C803.353 164.078 803.521 163.182 803.857 162.426C804.203 161.67 804.683 161.087 805.299 160.676C805.915 160.265 806.639 160.06 807.469 160.06C808.3 160.06 809.023 160.265 809.639 160.676C810.255 161.087 810.731 161.67 811.067 162.426C811.413 163.182 811.585 164.078 811.585 165.114C811.585 166.141 811.413 167.032 811.067 167.788C810.731 168.544 810.255 169.132 809.639 169.552C809.023 169.963 808.3 170.168 807.469 170.168ZM807.469 168.908C807.983 168.908 808.431 168.754 808.813 168.446C809.196 168.138 809.495 167.699 809.709 167.13C809.924 166.561 810.031 165.889 810.031 165.114C810.031 164.33 809.924 163.658 809.709 163.098C809.495 162.529 809.196 162.09 808.813 161.782C808.431 161.474 807.983 161.32 807.469 161.32C806.965 161.32 806.517 161.474 806.125 161.782C805.743 162.09 805.444 162.529 805.229 163.098C805.015 163.667 804.907 164.339 804.907 165.114C804.907 165.889 805.015 166.561 805.229 167.13C805.444 167.699 805.743 168.138 806.125 168.446C806.517 168.754 806.965 168.908 807.469 168.908ZM813.831 170V160.228H815.315V168.74H820.439V170H813.831ZM822.642 170V160.228H825.652C826.362 160.228 827.001 160.345 827.57 160.578C828.14 160.802 828.625 161.129 829.026 161.558C829.428 161.978 829.736 162.487 829.95 163.084C830.165 163.681 830.272 164.349 830.272 165.086C830.272 165.833 830.165 166.509 829.95 167.116C829.736 167.713 829.428 168.231 829.026 168.67C828.625 169.099 828.14 169.431 827.57 169.664C827.001 169.888 826.362 170 825.652 170H822.642ZM824.126 168.74H825.652C826.287 168.74 826.833 168.591 827.29 168.292C827.748 167.984 828.098 167.555 828.34 167.004C828.592 166.453 828.718 165.814 828.718 165.086C828.718 164.349 828.592 163.714 828.34 163.182C828.098 162.641 827.748 162.225 827.29 161.936C826.833 161.637 826.287 161.488 825.652 161.488H824.126V168.74ZM844.255 170V160.228H845.739V170H844.255ZM841.805 160.228H848.175V161.488H841.805V160.228ZM841.805 168.74H848.175V170H841.805V168.74ZM854.523 170.168C853.767 170.168 853.109 170.023 852.549 169.734C851.989 169.445 851.555 169.029 851.247 168.488C850.939 167.947 850.785 167.289 850.785 166.514H852.255C852.255 167.279 852.455 167.872 852.857 168.292C853.258 168.703 853.809 168.908 854.509 168.908C855.106 168.908 855.587 168.773 855.951 168.502C856.315 168.222 856.497 167.835 856.497 167.34C856.497 167.004 856.394 166.733 856.189 166.528C855.993 166.323 855.727 166.155 855.391 166.024C855.064 165.893 854.705 165.777 854.313 165.674C853.921 165.571 853.524 165.459 853.123 165.338C852.731 165.207 852.367 165.044 852.031 164.848C851.704 164.652 851.438 164.391 851.233 164.064C851.037 163.737 850.939 163.322 850.939 162.818C850.939 162.286 851.079 161.815 851.359 161.404C851.648 160.984 852.045 160.657 852.549 160.424C853.062 160.181 853.664 160.06 854.355 160.06C855.027 160.06 855.629 160.186 856.161 160.438C856.693 160.681 857.117 161.031 857.435 161.488C857.761 161.936 857.929 162.477 857.939 163.112H856.455C856.445 162.739 856.343 162.421 856.147 162.16C855.96 161.889 855.708 161.684 855.391 161.544C855.083 161.395 854.737 161.32 854.355 161.32C853.804 161.32 853.356 161.451 853.011 161.712C852.665 161.973 852.493 162.328 852.493 162.776C852.493 163.093 852.591 163.345 852.787 163.532C852.992 163.719 853.258 163.873 853.585 163.994C853.921 164.106 854.285 164.213 854.677 164.316C855.078 164.409 855.475 164.521 855.867 164.652C856.259 164.773 856.618 164.941 856.945 165.156C857.281 165.361 857.547 165.641 857.743 165.996C857.948 166.341 858.051 166.785 858.051 167.326C858.051 167.905 857.897 168.409 857.589 168.838C857.281 169.258 856.861 169.585 856.329 169.818C855.797 170.051 855.195 170.168 854.523 170.168ZM863.908 170.168C863.152 170.168 862.494 170.023 861.934 169.734C861.374 169.445 860.94 169.029 860.632 168.488C860.324 167.947 860.17 167.289 860.17 166.514H861.64C861.64 167.279 861.841 167.872 862.242 168.292C862.644 168.703 863.194 168.908 863.894 168.908C864.492 168.908 864.972 168.773 865.336 168.502C865.7 168.222 865.882 167.835 865.882 167.34C865.882 167.004 865.78 166.733 865.574 166.528C865.378 166.323 865.112 166.155 864.776 166.024C864.45 165.893 864.09 165.777 863.698 165.674C863.306 165.571 862.91 165.459 862.508 165.338C862.116 165.207 861.752 165.044 861.416 164.848C861.09 164.652 860.824 164.391 860.618 164.064C860.422 163.737 860.324 163.322 860.324 162.818C860.324 162.286 860.464 161.815 860.744 161.404C861.034 160.984 861.43 160.657 861.934 160.424C862.448 160.181 863.05 160.06 863.74 160.06C864.412 160.06 865.014 160.186 865.546 160.438C866.078 160.681 866.503 161.031 866.82 161.488C867.147 161.936 867.315 162.477 867.324 163.112H865.84C865.831 162.739 865.728 162.421 865.532 162.16C865.346 161.889 865.094 161.684 864.776 161.544C864.468 161.395 864.123 161.32 863.74 161.32C863.19 161.32 862.742 161.451 862.396 161.712C862.051 161.973 861.878 162.328 861.878 162.776C861.878 163.093 861.976 163.345 862.172 163.532C862.378 163.719 862.644 163.873 862.97 163.994C863.306 164.106 863.67 164.213 864.062 164.316C864.464 164.409 864.86 164.521 865.252 164.652C865.644 164.773 866.004 164.941 866.33 165.156C866.666 165.361 866.932 165.641 867.128 165.996C867.334 166.341 867.436 166.785 867.436 167.326C867.436 167.905 867.282 168.409 866.974 168.838C866.666 169.258 866.246 169.585 865.714 169.818C865.182 170.051 864.58 170.168 863.908 170.168ZM873.168 170.168C872.402 170.168 871.735 170.019 871.166 169.72C870.596 169.412 870.153 168.987 869.836 168.446C869.518 167.895 869.36 167.256 869.36 166.528V160.228H870.858V166.528C870.858 167.004 870.951 167.419 871.138 167.774C871.334 168.129 871.604 168.404 871.95 168.6C872.295 168.796 872.701 168.894 873.168 168.894C873.634 168.894 874.036 168.796 874.372 168.6C874.717 168.404 874.983 168.129 875.17 167.774C875.366 167.419 875.464 167.004 875.464 166.528V160.228H876.962V166.528C876.962 167.256 876.803 167.895 876.486 168.446C876.168 168.987 875.725 169.412 875.156 169.72C874.596 170.019 873.933 170.168 873.168 170.168ZM879.151 170V160.228H886.165V161.488H880.635V164.302H884.443V165.562H880.635V168.74H886.221V170H879.151Z" fill="#080708"/>
<mask id="path-27-inside-3_484_10949" fill="white">
<path d="M735 190H955V372C955 375.314 952.314 378 949 378H740C737.239 378 735 375.761 735 373V190Z"/>
</mask>
<path d="M735 190H955V372C955 375.314 952.314 378 949 378H740C737.239 378 735 375.761 735 373V190Z" fill="#BEBFBD"/>
<path d="M735 189H955V191H735V189ZM955 378H735H955ZM735 378V190V378ZM955 190V378V190Z" fill="#080708" mask="url(#path-27-inside-3_484_10949)"/>
<rect x="745" y="200" width="200" height="50" rx="5" fill="#080708"/>
<path d="M826.366 230.168C825.61 230.168 824.952 230.023 824.392 229.734C823.832 229.445 823.398 229.029 823.09 228.488C822.782 227.947 822.628 227.289 822.628 226.514H824.098C824.098 227.279 824.299 227.872 824.7 228.292C825.102 228.703 825.652 228.908 826.352 228.908C826.95 228.908 827.43 228.773 827.794 228.502C828.158 228.222 828.34 227.835 828.34 227.34C828.34 227.004 828.238 226.733 828.032 226.528C827.836 226.323 827.57 226.155 827.234 226.024C826.908 225.893 826.548 225.777 826.156 225.674C825.764 225.571 825.368 225.459 824.966 225.338C824.574 225.207 824.21 225.044 823.874 224.848C823.548 224.652 823.282 224.391 823.076 224.064C822.88 223.737 822.782 223.322 822.782 222.818C822.782 222.286 822.922 221.815 823.202 221.404C823.492 220.984 823.888 220.657 824.392 220.424C824.906 220.181 825.508 220.06 826.198 220.06C826.87 220.06 827.472 220.186 828.004 220.438C828.536 220.681 828.961 221.031 829.278 221.488C829.605 221.936 829.773 222.477 829.782 223.112H828.298C828.289 222.739 828.186 222.421 827.99 222.16C827.804 221.889 827.552 221.684 827.234 221.544C826.926 221.395 826.581 221.32 826.198 221.32C825.648 221.32 825.2 221.451 824.854 221.712C824.509 221.973 824.336 222.328 824.336 222.776C824.336 223.093 824.434 223.345 824.63 223.532C824.836 223.719 825.102 223.873 825.428 223.994C825.764 224.106 826.128 224.213 826.52 224.316C826.922 224.409 827.318 224.521 827.71 224.652C828.102 224.773 828.462 224.941 828.788 225.156C829.124 225.361 829.39 225.641 829.586 225.996C829.792 226.341 829.894 226.785 829.894 227.326C829.894 227.905 829.74 228.409 829.432 228.838C829.124 229.258 828.704 229.585 828.172 229.818C827.64 230.051 827.038 230.168 826.366 230.168ZM834.87 230V221.488H831.72V220.228H839.504V221.488H836.354V230H834.87ZM845.011 230.168C844.181 230.168 843.457 229.963 842.841 229.552C842.225 229.132 841.745 228.544 841.399 227.788C841.063 227.032 840.895 226.141 840.895 225.114C840.895 224.078 841.063 223.182 841.399 222.426C841.745 221.67 842.225 221.087 842.841 220.676C843.457 220.265 844.181 220.06 845.011 220.06C845.842 220.06 846.565 220.265 847.181 220.676C847.797 221.087 848.273 221.67 848.609 222.426C848.955 223.182 849.127 224.078 849.127 225.114C849.127 226.141 848.955 227.032 848.609 227.788C848.273 228.544 847.797 229.132 847.181 229.552C846.565 229.963 845.842 230.168 845.011 230.168ZM845.011 228.908C845.525 228.908 845.973 228.754 846.355 228.446C846.738 228.138 847.037 227.699 847.251 227.13C847.466 226.561 847.573 225.889 847.573 225.114C847.573 224.33 847.466 223.658 847.251 223.098C847.037 222.529 846.738 222.09 846.355 221.782C845.973 221.474 845.525 221.32 845.011 221.32C844.507 221.32 844.059 221.474 843.667 221.782C843.285 222.09 842.986 222.529 842.771 223.098C842.557 223.667 842.449 224.339 842.449 225.114C842.449 225.889 842.557 226.561 842.771 227.13C842.986 227.699 843.285 228.138 843.667 228.446C844.059 228.754 844.507 228.908 845.011 228.908ZM852.087 225.912V224.652H854.565C854.975 224.652 855.335 224.587 855.643 224.456C855.96 224.316 856.207 224.12 856.385 223.868C856.571 223.616 856.665 223.327 856.665 223C856.665 222.683 856.585 222.412 856.427 222.188C856.268 221.964 856.053 221.791 855.783 221.67C855.512 221.549 855.209 221.488 854.873 221.488H852.087V220.228H854.873C855.517 220.228 856.091 220.34 856.595 220.564C857.099 220.779 857.495 221.091 857.785 221.502C858.074 221.913 858.219 222.412 858.219 223C858.219 223.373 858.13 223.733 857.953 224.078C857.785 224.423 857.537 224.736 857.211 225.016C856.893 225.287 856.506 225.506 856.049 225.674C855.591 225.833 855.073 225.912 854.495 225.912H852.087ZM851.023 230V220.228H852.507V230H851.023ZM856.637 230C856.581 229.561 856.459 229.127 856.273 228.698C856.095 228.269 855.853 227.858 855.545 227.466C855.237 227.074 854.854 226.71 854.397 226.374C853.949 226.038 853.426 225.735 852.829 225.464L854.481 225.1C855.097 225.408 855.624 225.753 856.063 226.136C856.511 226.509 856.879 226.906 857.169 227.326C857.467 227.746 857.691 228.18 857.841 228.628C857.999 229.076 858.102 229.533 858.149 230H856.637ZM862.998 230V226.038L859.764 220.228H861.388L862.9 222.916L863.768 224.75L864.65 222.902L866.162 220.228H867.772L864.482 226.038V230H862.998Z" fill="#F5EEEB"/>
<rect x="745" y="259" width="200" height="50" rx="5" fill="#080708"/>
<path d="M826.366 289.168C825.61 289.168 824.952 289.023 824.392 288.734C823.832 288.445 823.398 288.029 823.09 287.488C822.782 286.947 822.628 286.289 822.628 285.514H824.098C824.098 286.279 824.299 286.872 824.7 287.292C825.102 287.703 825.652 287.908 826.352 287.908C826.95 287.908 827.43 287.773 827.794 287.502C828.158 287.222 828.34 286.835 828.34 286.34C828.34 286.004 828.238 285.733 828.032 285.528C827.836 285.323 827.57 285.155 827.234 285.024C826.908 284.893 826.548 284.777 826.156 284.674C825.764 284.571 825.368 284.459 824.966 284.338C824.574 284.207 824.21 284.044 823.874 283.848C823.548 283.652 823.282 283.391 823.076 283.064C822.88 282.737 822.782 282.322 822.782 281.818C822.782 281.286 822.922 280.815 823.202 280.404C823.492 279.984 823.888 279.657 824.392 279.424C824.906 279.181 825.508 279.06 826.198 279.06C826.87 279.06 827.472 279.186 828.004 279.438C828.536 279.681 828.961 280.031 829.278 280.488C829.605 280.936 829.773 281.477 829.782 282.112H828.298C828.289 281.739 828.186 281.421 827.99 281.16C827.804 280.889 827.552 280.684 827.234 280.544C826.926 280.395 826.581 280.32 826.198 280.32C825.648 280.32 825.2 280.451 824.854 280.712C824.509 280.973 824.336 281.328 824.336 281.776C824.336 282.093 824.434 282.345 824.63 282.532C824.836 282.719 825.102 282.873 825.428 282.994C825.764 283.106 826.128 283.213 826.52 283.316C826.922 283.409 827.318 283.521 827.71 283.652C828.102 283.773 828.462 283.941 828.788 284.156C829.124 284.361 829.39 284.641 829.586 284.996C829.792 285.341 829.894 285.785 829.894 286.326C829.894 286.905 829.74 287.409 829.432 287.838C829.124 288.258 828.704 288.585 828.172 288.818C827.64 289.051 827.038 289.168 826.366 289.168ZM834.87 289V280.488H831.72V279.228H839.504V280.488H836.354V289H834.87ZM845.011 289.168C844.181 289.168 843.457 288.963 842.841 288.552C842.225 288.132 841.745 287.544 841.399 286.788C841.063 286.032 840.895 285.141 840.895 284.114C840.895 283.078 841.063 282.182 841.399 281.426C841.745 280.67 842.225 280.087 842.841 279.676C843.457 279.265 844.181 279.06 845.011 279.06C845.842 279.06 846.565 279.265 847.181 279.676C847.797 280.087 848.273 280.67 848.609 281.426C848.955 282.182 849.127 283.078 849.127 284.114C849.127 285.141 848.955 286.032 848.609 286.788C848.273 287.544 847.797 288.132 847.181 288.552C846.565 288.963 845.842 289.168 845.011 289.168ZM845.011 287.908C845.525 287.908 845.973 287.754 846.355 287.446C846.738 287.138 847.037 286.699 847.251 286.13C847.466 285.561 847.573 284.889 847.573 284.114C847.573 283.33 847.466 282.658 847.251 282.098C847.037 281.529 846.738 281.09 846.355 280.782C845.973 280.474 845.525 280.32 845.011 280.32C844.507 280.32 844.059 280.474 843.667 280.782C843.285 281.09 842.986 281.529 842.771 282.098C842.557 282.667 842.449 283.339 842.449 284.114C842.449 284.889 842.557 285.561 842.771 286.13C842.986 286.699 843.285 287.138 843.667 287.446C844.059 287.754 844.507 287.908 845.011 287.908ZM852.087 284.912V283.652H854.565C854.975 283.652 855.335 283.587 855.643 283.456C855.96 283.316 856.207 283.12 856.385 282.868C856.571 282.616 856.665 282.327 856.665 282C856.665 281.683 856.585 281.412 856.427 281.188C856.268 280.964 856.053 280.791 855.783 280.67C855.512 280.549 855.209 280.488 854.873 280.488H852.087V279.228H854.873C855.517 279.228 856.091 279.34 856.595 279.564C857.099 279.779 857.495 280.091 857.785 280.502C858.074 280.913 858.219 281.412 858.219 282C858.219 282.373 858.13 282.733 857.953 283.078C857.785 283.423 857.537 283.736 857.211 284.016C856.893 284.287 856.506 284.506 856.049 284.674C855.591 284.833 855.073 284.912 854.495 284.912H852.087ZM851.023 289V279.228H852.507V289H851.023ZM856.637 289C856.581 288.561 856.459 288.127 856.273 287.698C856.095 287.269 855.853 286.858 855.545 286.466C855.237 286.074 854.854 285.71 854.397 285.374C853.949 285.038 853.426 284.735 852.829 284.464L854.481 284.1C855.097 284.408 855.624 284.753 856.063 285.136C856.511 285.509 856.879 285.906 857.169 286.326C857.467 286.746 857.691 287.18 857.841 287.628C857.999 288.076 858.102 288.533 858.149 289H856.637ZM862.998 289V285.038L859.764 279.228H861.388L862.9 281.916L863.768 283.75L864.65 281.902L866.162 279.228H867.772L864.482 285.038V289H862.998Z" fill="#F5EEEB"/>
<rect x="745" y="318" width="200" height="50" rx="5" fill="#080708"/>
<path d="M826.366 348.168C825.61 348.168 824.952 348.023 824.392 347.734C823.832 347.445 823.398 347.029 823.09 346.488C822.782 345.947 822.628 345.289 822.628 344.514H824.098C824.098 345.279 824.299 345.872 824.7 346.292C825.102 346.703 825.652 346.908 826.352 346.908C826.95 346.908 827.43 346.773 827.794 346.502C828.158 346.222 828.34 345.835 828.34 345.34C828.34 345.004 828.238 344.733 828.032 344.528C827.836 344.323 827.57 344.155 827.234 344.024C826.908 343.893 826.548 343.777 826.156 343.674C825.764 343.571 825.368 343.459 824.966 343.338C824.574 343.207 824.21 343.044 823.874 342.848C823.548 342.652 823.282 342.391 823.076 342.064C822.88 341.737 822.782 341.322 822.782 340.818C822.782 340.286 822.922 339.815 823.202 339.404C823.492 338.984 823.888 338.657 824.392 338.424C824.906 338.181 825.508 338.06 826.198 338.06C826.87 338.06 827.472 338.186 828.004 338.438C828.536 338.681 828.961 339.031 829.278 339.488C829.605 339.936 829.773 340.477 829.782 341.112H828.298C828.289 340.739 828.186 340.421 827.99 340.16C827.804 339.889 827.552 339.684 827.234 339.544C826.926 339.395 826.581 339.32 826.198 339.32C825.648 339.32 825.2 339.451 824.854 339.712C824.509 339.973 824.336 340.328 824.336 340.776C824.336 341.093 824.434 341.345 824.63 341.532C824.836 341.719 825.102 341.873 825.428 341.994C825.764 342.106 826.128 342.213 826.52 342.316C826.922 342.409 827.318 342.521 827.71 342.652C828.102 342.773 828.462 342.941 828.788 343.156C829.124 343.361 829.39 343.641 829.586 343.996C829.792 344.341 829.894 344.785 829.894 345.326C829.894 345.905 829.74 346.409 829.432 346.838C829.124 347.258 828.704 347.585 828.172 347.818C827.64 348.051 827.038 348.168 826.366 348.168ZM834.87 348V339.488H831.72V338.228H839.504V339.488H836.354V348H834.87ZM845.011 348.168C844.181 348.168 843.457 347.963 842.841 347.552C842.225 347.132 841.745 346.544 841.399 345.788C841.063 345.032 840.895 344.141 840.895 343.114C840.895 342.078 841.063 341.182 841.399 340.426C841.745 339.67 842.225 339.087 842.841 338.676C843.457 338.265 844.181 338.06 845.011 338.06C845.842 338.06 846.565 338.265 847.181 338.676C847.797 339.087 848.273 339.67 848.609 340.426C848.955 341.182 849.127 342.078 849.127 343.114C849.127 344.141 848.955 345.032 848.609 345.788C848.273 346.544 847.797 347.132 847.181 347.552C846.565 347.963 845.842 348.168 845.011 348.168ZM845.011 346.908C845.525 346.908 845.973 346.754 846.355 346.446C846.738 346.138 847.037 345.699 847.251 345.13C847.466 344.561 847.573 343.889 847.573 343.114C847.573 342.33 847.466 341.658 847.251 341.098C847.037 340.529 846.738 340.09 846.355 339.782C845.973 339.474 845.525 339.32 845.011 339.32C844.507 339.32 844.059 339.474 843.667 339.782C843.285 340.09 842.986 340.529 842.771 341.098C842.557 341.667 842.449 342.339 842.449 343.114C842.449 343.889 842.557 344.561 842.771 345.13C842.986 345.699 843.285 346.138 843.667 346.446C844.059 346.754 844.507 346.908 845.011 346.908ZM852.087 343.912V342.652H854.565C854.975 342.652 855.335 342.587 855.643 342.456C855.96 342.316 856.207 342.12 856.385 341.868C856.571 341.616 856.665 341.327 856.665 341C856.665 340.683 856.585 340.412 856.427 340.188C856.268 339.964 856.053 339.791 855.783 339.67C855.512 339.549 855.209 339.488 854.873 339.488H852.087V338.228H854.873C855.517 338.228 856.091 338.34 856.595 338.564C857.099 338.779 857.495 339.091 857.785 339.502C858.074 339.913 858.219 340.412 858.219 341C858.219 341.373 858.13 341.733 857.953 342.078C857.785 342.423 857.537 342.736 857.211 343.016C856.893 343.287 856.506 343.506 856.049 343.674C855.591 343.833 855.073 343.912 854.495 343.912H852.087ZM851.023 348V338.228H852.507V348H851.023ZM856.637 348C856.581 347.561 856.459 347.127 856.273 346.698C856.095 346.269 855.853 345.858 855.545 345.466C855.237 345.074 854.854 344.71 854.397 344.374C853.949 344.038 853.426 343.735 852.829 343.464L854.481 343.1C855.097 343.408 855.624 343.753 856.063 344.136C856.511 344.509 856.879 344.906 857.169 345.326C857.467 345.746 857.691 346.18 857.841 346.628C857.999 347.076 858.102 347.533 858.149 348H856.637ZM862.998 348V344.038L859.764 338.228H861.388L862.9 340.916L863.768 342.75L864.65 340.902L866.162 338.228H867.772L864.482 344.038V348H862.998Z" fill="#F5EEEB"/>
</g>
<path d="M156 259C156 261.209 157.791 263 160 263C162.209 263 164 261.209 164 259C164 256.791 162.209 255 160 255C157.791 255 156 256.791 156 259ZM220.53 259.53C220.823 259.237 220.823 258.763 220.53 258.47L215.757 253.697C215.464 253.404 214.99 253.404 214.697 253.697C214.404 253.99 214.404 254.464 214.697 254.757L218.939 259L214.697 263.243C214.404 263.536 214.404 264.01 214.697 264.303C214.99 264.596 215.464 264.596 215.757 264.303L220.53 259.53ZM160 259.75H220V258.25H160V259.75Z" fill="#F5EEEB"/>
<path d="M600.53 64.4697C600.237 64.1768 599.763 64.1768 599.47 64.4697L594.697 69.2426C594.404 69.5355 594.404 70.0104 594.697 70.3033C594.99 70.5962 595.464 70.5962 595.757 70.3033L600 66.0607L604.243 70.3033C604.536 70.5962 605.01 70.5962 605.303 70.3033C605.596 70.0104 605.596 69.5355 605.303 69.2426L600.53 64.4697ZM599.47 125.53C599.763 125.823 600.237 125.823 600.53 125.53L605.303 120.757C605.596 120.464 605.596 119.99 605.303 119.697C605.01 119.404 604.536 119.404 604.243 119.697L600 123.939L595.757 119.697C595.464 119.404 594.99 119.404 594.697 119.697C594.404 119.99 594.404 120.464 594.697 120.757L599.47 125.53ZM599.25 65L599.25 125L600.75 125L600.75 65L599.25 65Z" fill="#F5EEEB"/>
<path d="M355.75 95L355.75 94.25L354.25 94.25L354.25 95L355.75 95ZM354.47 125.53C354.763 125.823 355.237 125.823 355.53 125.53L360.303 120.757C360.596 120.464 360.596 119.99 360.303 119.697C360.01 119.404 359.536 119.404 359.243 119.697L355 123.939L350.757 119.697C350.464 119.404 349.99 119.404 349.697 119.697C349.404 119.99 349.404 120.464 349.697 120.757L354.47 125.53ZM354.25 95L354.25 125L355.75 125L355.75 95L354.25 95Z" fill="#F5EEEB"/>
<path d="M845.75 95L845.75 94.25L844.25 94.25L844.25 95L845.75 95ZM844.47 125.53C844.763 125.823 845.237 125.823 845.53 125.53L850.303 120.757C850.596 120.464 850.596 119.99 850.303 119.697C850.01 119.404 849.536 119.404 849.243 119.697L845 123.939L840.757 119.697C840.464 119.404 839.99 119.404 839.697 119.697C839.404 119.99 839.404 120.464 839.697 120.757L844.47 125.53ZM844.25 95L844.25 125L845.75 125L845.75 95L844.25 95Z" fill="#F5EEEB"/>
<path d="M355 94H845" stroke="#F5EEEB" stroke-width="1.5" stroke-linecap="square"/>
</svg>
