<svg width="1000" height="602" viewBox="0 0 1000 602" fill="none" xmlns="http://www.w3.org/2000/svg">
<rect width="1000" height="600" transform="translate(0 1)" fill="#F5EEEB"/>
<ellipse cx="499.485" cy="301" rx="257.265" ry="256.849" stroke="#080708"/>
<ellipse cx="499.486" cy="352.369" rx="10.2906" ry="5.13698" fill="#080708"/>
<rect x="416.132" y="249.63" width="166.708" height="102.74" fill="#080708" stroke="#080708"/>
<path d="M422.306 234.219L499.486 244.493V347.233L422.306 336.959V234.219Z" fill="#F5EEEB" stroke="#080708"/>
<path d="M576.665 234.219L499.486 244.493V347.233L576.665 336.959V234.219Z" fill="#F5EEEB" stroke="#080708"/>
<path d="M489.195 257.164L432.597 249.63" stroke="#080708"/>
<path d="M489.195 267.438L432.597 259.904" stroke="#080708"/>
<path d="M489.195 277.712L432.597 270.178" stroke="#080708"/>
<path d="M489.195 287.986L432.597 280.452" stroke="#080708"/>
<path d="M489.195 298.26L432.597 290.726" stroke="#080708"/>
<path d="M489.195 308.534L432.597 301" stroke="#080708"/>
<path d="M489.195 318.808L432.597 311.274" stroke="#080708"/>
<path d="M489.195 329.082L432.597 321.548" stroke="#080708"/>
<path d="M509.776 257.164L566.375 249.63" stroke="#080708"/>
<path d="M509.776 267.438L566.375 259.904" stroke="#080708"/>
<path d="M509.776 277.712L566.375 270.178" stroke="#080708"/>
<path d="M509.776 287.986L566.375 280.452" stroke="#080708"/>
<path d="M509.776 298.26L566.375 290.726" stroke="#080708"/>
<path d="M509.776 308.534L566.375 301" stroke="#080708"/>
<path d="M509.776 318.808L566.375 311.274" stroke="#080708"/>
<path d="M509.776 329.082L538.075 325.315" stroke="#080708"/>
<ellipse cx="499.485" cy="44.1507" rx="43.2205" ry="43.1507" fill="#F5EEEB" stroke="#080708"/>
<ellipse cx="499.485" cy="557.849" rx="43.2205" ry="43.1507" fill="#F5EEEB" stroke="#080708"/>
<ellipse cx="757.78" cy="301" rx="43.2205" ry="43.1507" fill="#F5EEEB" stroke="#080708"/>
<path d="M772.186 321.548V301H741.314V321.548H772.186Z" fill="#F5EEEB" stroke="#080708"/>
<path d="M762.925 312.301V306.137H750.576V312.301H762.925Z" stroke="#080708"/>
<path d="M755.204 317.438H758.296C759.147 317.438 759.837 316.748 759.837 315.897C759.837 315.046 759.147 314.356 758.296 314.356H755.204C754.353 314.356 753.663 315.046 753.663 315.897C753.663 316.748 754.353 317.438 755.204 317.438Z" fill="#080708" stroke="#080708"/>
<path d="M772.186 301V280.452H741.314V301H772.186Z" fill="#F5EEEB" stroke="#080708"/>
<path d="M762.925 291.753V285.589H750.576V291.753H762.925Z" stroke="#080708"/>
<path d="M755.204 296.891H758.296C759.147 296.891 759.837 296.201 759.837 295.349C759.837 294.498 759.147 293.808 758.296 293.808H755.204C754.353 293.808 753.663 294.498 753.663 295.349C753.663 296.201 754.353 296.891 755.204 296.891Z" fill="#080708" stroke="#080708"/>
<ellipse cx="242.221" cy="301" rx="43.2205" ry="43.1507" fill="#F5EEEB" stroke="#080708"/>
<rect x="217.189" y="318.802" width="34.5758" height="50.0624" transform="rotate(-90 217.189 318.802)" fill="#F5EEEB" stroke="#080708"/>
<path d="M217.189 318.802L242.221 293.907L267.252 318.802L217.189 318.802Z" fill="#F5EEEB" stroke="#080708" stroke-linejoin="bevel"/>
<path d="M217.189 284.226L242.221 309.12L267.252 284.226L217.189 284.226Z" fill="#F5EEEB" stroke="#080708" stroke-linejoin="bevel"/>
<ellipse cx="265.166" cy="286.3" rx="6.95311" ry="6.91517" fill="#080708"/>
<ellipse cx="265.166" cy="286.3" rx="2.08593" ry="2.07455" fill="#F5EEEB"/>
<path d="M499.646 499.127C499.842 499.322 500.158 499.322 500.354 499.127L503.536 495.945C503.731 495.75 503.731 495.433 503.536 495.238C503.34 495.043 503.024 495.043 502.828 495.238L500 498.066L497.172 495.238C496.976 495.043 496.66 495.043 496.464 495.238C496.269 495.433 496.269 495.75 496.464 495.945L499.646 499.127ZM499.5 368.294V498.774H500.5V368.294H499.5Z" fill="#080708"/>
<path d="M499.646 499.127C499.842 499.322 500.158 499.322 500.354 499.127L503.536 495.945C503.731 495.75 503.731 495.433 503.536 495.238C503.34 495.043 503.024 495.043 502.828 495.238L500 498.066L497.172 495.238C496.976 495.043 496.66 495.043 496.464 495.238C496.269 495.433 496.269 495.75 496.464 495.945L499.646 499.127ZM499.5 368.294V498.774H500.5V368.294H499.5Z" fill="#080708"/>
<path d="M500.354 103.386C500.158 103.191 499.842 103.191 499.646 103.386L496.464 106.568C496.269 106.763 496.269 107.08 496.464 107.275C496.66 107.471 496.976 107.471 497.172 107.275L500 104.447L502.828 107.275C503.024 107.471 503.34 107.471 503.536 107.275C503.731 107.08 503.731 106.763 503.536 106.568L500.354 103.386ZM499.5 103.74V234.219H500.5V103.74H499.5Z" fill="#080708"/>
<path d="M500.354 103.386C500.158 103.191 499.842 103.191 499.646 103.386L496.464 106.568C496.269 106.763 496.269 107.08 496.464 107.275C496.66 107.471 496.976 107.471 497.172 107.275L500 104.447L502.828 107.275C503.024 107.471 503.34 107.471 503.536 107.275C503.731 107.08 503.731 106.763 503.536 106.568L500.354 103.386ZM499.5 103.74V234.219H500.5V103.74H499.5Z" fill="#080708"/>
<path d="M500.354 103.386C500.158 103.191 499.842 103.191 499.646 103.386L496.464 106.568C496.269 106.763 496.269 107.08 496.464 107.275C496.66 107.471 496.976 107.471 497.172 107.275L500 104.447L502.828 107.275C503.024 107.471 503.34 107.471 503.536 107.275C503.731 107.08 503.731 106.763 503.536 106.568L500.354 103.386ZM499.5 103.74V234.219H500.5V103.74H499.5Z" fill="#080708"/>
<path d="M698.447 301.353C698.643 301.158 698.643 300.841 698.447 300.646L695.266 297.464C695.07 297.269 694.754 297.269 694.558 297.464C694.363 297.659 694.363 297.976 694.558 298.171L697.387 301L694.558 303.828C694.363 304.023 694.363 304.34 694.558 304.535C694.754 304.731 695.07 304.731 695.266 304.535L698.447 301.353ZM698.094 300.5L598.275 300.5L598.275 301.5L698.094 301.5L698.094 300.5Z" fill="#080708"/>
<path d="M698.447 301.353C698.643 301.158 698.643 300.841 698.447 300.646L695.266 297.464C695.07 297.269 694.754 297.269 694.558 297.464C694.363 297.659 694.363 297.976 694.558 298.171L697.387 301L694.558 303.828C694.363 304.023 694.363 304.34 694.558 304.535C694.754 304.731 695.07 304.731 695.266 304.535L698.447 301.353ZM698.094 300.5L598.275 300.5L598.275 301.5L698.094 301.5L698.094 300.5Z" fill="#080708"/>
<path d="M300.523 300.646C300.328 300.841 300.328 301.158 300.523 301.353L303.705 304.535C303.901 304.731 304.217 304.731 304.412 304.535C304.608 304.34 304.608 304.023 304.412 303.828L301.584 301L304.412 298.171C304.608 297.976 304.608 297.659 304.412 297.464C304.217 297.269 303.901 297.269 303.705 297.464L300.523 300.646ZM400.696 300.5L300.877 300.5L300.877 301.5L400.696 301.5L400.696 300.5Z" fill="#080708"/>
<path d="M300.523 300.646C300.328 300.841 300.328 301.158 300.523 301.353L303.705 304.535C303.901 304.731 304.217 304.731 304.412 304.535C304.608 304.34 304.608 304.023 304.412 303.828L301.584 301L304.412 298.171C304.608 297.976 304.608 297.659 304.412 297.464C304.217 297.269 303.901 297.269 303.705 297.464L300.523 300.646ZM400.696 300.5L300.877 300.5L300.877 301.5L400.696 301.5L400.696 300.5Z" fill="#080708"/>
<path d="M484.05 35.9316V66.7535H514.921V35.9316" stroke="#080708"/>
<rect x="494.34" y="52.3699" width="10.2906" height="14.3836" fill="#080708" stroke="#080708"/>
<rect x="494.34" y="35.9316" width="10.2906" height="10.274" fill="#F5EEEB" stroke="#080708"/>
<path d="M499.485 35.9316V46.2056" stroke="#080708"/>
<path d="M494.34 41.0686H504.631" stroke="#080708"/>
<path d="M523.154 43.1234L499.485 21.5481L475.817 43.1234" stroke="#080708"/>
<ellipse cx="501.544" cy="59.5616" rx="1.02906" ry="1.0274" fill="#F5EEEB"/>
<path d="M501.722 543.985C506.55 548.805 506.55 556.62 501.722 561.44C496.894 566.26 489.066 566.26 484.238 561.44C479.41 556.62 479.41 548.805 484.238 543.985C489.066 539.164 496.894 539.164 501.722 543.985Z" fill="#F5EEEB" stroke="#080708"/>
<g clip-path="url(#clip0_483_14781)">
<path d="M499.893 559.614L514.446 574.144" stroke="#080708"/>
<rect width="3.08469" height="12.3387" transform="matrix(0.707678 -0.706535 0.707678 0.706535 504.622 566.516)" fill="#080708"/>
</g>
<path d="M444.04 255.055L546.347 218.2L509.516 320.575L444.04 255.055Z" fill="#F5EEEB"/>
<path d="M476.778 287.815L482.916 314.432L493.147 304.195L476.778 287.815Z" fill="#080708"/>
<path d="M546.347 218.2L444.04 255.055L509.516 320.575L546.347 218.2ZM546.347 218.2L476.778 287.815M476.778 287.815L482.916 314.432L493.147 304.195L476.778 287.815Z" stroke="#080708"/>
<defs>
<clipPath id="clip0_483_14781">
<rect width="5.14114" height="17.4799" fill="white" transform="matrix(0.707678 -0.706535 0.707678 0.706535 500.256 563.61)"/>
</clipPath>
</defs>
</svg>
