<svg width="881" height="178" viewBox="0 0 881 178" fill="none" xmlns="http://www.w3.org/2000/svg">
<ellipse cx="460.727" cy="144.293" rx="11.7878" ry="5.84053" fill="#080708"/>
<rect x="365.244" y="27.4827" width="190.963" height="116.811" fill="#080708" stroke="#080708"/>
<path d="M372.316 9.96118L460.725 21.6422V138.453L372.316 126.772V9.96118Z" fill="#F5EEEB" stroke="#080708"/>
<path d="M549.135 9.96118L460.726 21.6422V138.453L549.135 126.772V9.96118Z" fill="#F5EEEB" stroke="#080708"/>
<path d="M448.939 36.0488L384.105 27.4827" stroke="#080708"/>
<path d="M448.939 47.7299L384.105 39.1638" stroke="#080708"/>
<path d="M448.939 59.4108L384.105 50.8447" stroke="#080708"/>
<path d="M448.939 71.092L384.105 62.5259" stroke="#080708"/>
<path d="M448.939 82.7729L384.105 74.2068" stroke="#080708"/>
<path d="M448.939 94.454L384.105 85.8879" stroke="#080708"/>
<path d="M448.939 106.135L384.105 97.5691" stroke="#080708"/>
<path d="M448.939 117.816L384.105 109.25" stroke="#080708"/>
<path d="M472.515 36.0488L537.348 27.4827" stroke="#080708"/>
<path d="M472.515 47.7299L537.348 39.1638" stroke="#080708"/>
<path d="M472.515 59.4108L537.348 50.8447" stroke="#080708"/>
<path d="M472.515 71.092L537.348 62.5259" stroke="#080708"/>
<path d="M472.515 82.7729L537.348 74.2068" stroke="#080708"/>
<path d="M472.515 94.454L537.348 85.8879" stroke="#080708"/>
<path d="M472.515 106.135L537.348 97.5691" stroke="#080708"/>
<path d="M472.513 117.816L504.93 113.533" stroke="#080708"/>
<rect x="1" y="11.1287" width="223.969" height="142.509" rx="5" fill="#F5EEEB" stroke="#080708"/>
<rect x="70.5508" y="111.586" width="58.4053" height="84.8724" transform="rotate(-90 70.5508 111.586)" fill="#F5EEEB" stroke="#080708"/>
<path d="M70.5508 111.586L112.987 69.5341L155.423 111.586L70.5508 111.586Z" fill="#F5EEEB" stroke="#080708" stroke-linejoin="bevel"/>
<path d="M70.5508 53.1807L112.987 95.2325L155.423 53.1807L70.5508 53.1807Z" fill="#F5EEEB" stroke="#080708" stroke-linejoin="bevel"/>
<ellipse cx="151.885" cy="56.685" rx="11.7878" ry="11.6811" fill="#080708"/>
<ellipse cx="151.886" cy="56.685" rx="3.53635" ry="3.50432" fill="#F5EEEB"/>
<path d="M112.986 153.638V177" stroke="#080708" stroke-linecap="square"/>
<path d="M87.0508 177H140.096" stroke="#080708" stroke-linecap="square"/>
<path d="M248.545 90.5603H339.901" stroke="#080708" stroke-linecap="square"/>
<path d="M335.186 84.7197L341.079 90.5603L335.186 96.4008" stroke="#080708"/>
<path d="M609.252 90.5603H700.608" stroke="#080708" stroke-linecap="square"/>
<path d="M695.893 84.7197L701.786 90.5603L695.893 96.4008" stroke="#080708"/>
<path d="M800.537 117L793.825 141.823" stroke="#080708" stroke-linecap="square"/>
<ellipse cx="2.85879" cy="2.85713" rx="2.85879" ry="2.85713" transform="matrix(0.96651 0.25663 -0.261025 0.965332 786.959 156.259)" fill="#F5EEEB" stroke="#080708"/>
<path d="M801.194 117.175C810.288 119.59 819.868 119.572 828.971 117.125C838.074 114.677 846.38 109.885 853.052 103.231C859.725 96.5768 864.53 88.2947 866.985 79.217C869.439 70.1393 869.457 60.586 867.036 51.5171C864.614 42.4483 859.84 34.1835 853.191 27.5535C846.543 20.9235 838.255 16.1619 829.161 13.7472C820.067 11.3325 810.487 11.3499 801.384 13.7976C792.281 16.2453 783.976 21.037 777.303 27.6912" stroke="#080708" stroke-linecap="square"/>
</svg>
