<svg width="973" height="219" viewBox="0 0 973 219" fill="none" xmlns="http://www.w3.org/2000/svg">
<rect width="973" height="219" fill="#F5EEEB"/>
<ellipse cx="503.831" cy="188.287" rx="10.3033" ry="5.17241" fill="#080708"/>
<rect x="420.374" y="84.8386" width="166.914" height="103.448" fill="#080708" stroke="#080708"/>
<path d="M426.556 69.3214L503.831 79.6662V183.115L426.556 172.77V69.3214Z" fill="#F5EEEB" stroke="#080708"/>
<path d="M581.106 69.3214L503.831 79.6662V183.115L581.106 172.77V69.3214Z" fill="#F5EEEB" stroke="#080708"/>
<path d="M493.527 92.4248L436.859 84.8386M493.527 102.77L436.859 95.1835M493.527 113.114L436.859 105.528M493.527 123.459L436.859 115.873M493.527 133.804L436.859 126.218M493.527 144.149L436.859 136.563M493.527 154.494L436.859 146.908M493.527 164.839L436.859 157.252" stroke="#080708"/>
<path d="M514.134 92.4248L570.803 84.8386M514.134 102.77L570.803 95.1835M514.134 113.114L570.803 105.528M514.134 123.459L570.803 115.873M514.134 133.804L570.803 126.218M514.134 144.149L570.803 136.563M514.134 154.494L570.803 146.908M514.134 164.839L542.468 161.046" stroke="#080708"/>
<rect x="102" y="70.356" width="195.764" height="126.207" fill="#F5EEEB" stroke="#080708"/>
<rect x="162.79" y="159.321" width="51.7241" height="74.1841" transform="rotate(-90 162.79 159.321)" fill="#F5EEEB" stroke="#080708"/>
<path d="M162.79 159.321L199.882 122.08L236.974 159.321L162.79 159.321Z" fill="#F5EEEB" stroke="#080708" stroke-linejoin="bevel"/>
<path d="M162.79 107.597L199.882 144.839L236.974 107.597L162.79 107.597Z" fill="#F5EEEB" stroke="#080708" stroke-linejoin="bevel"/>
<ellipse cx="233.883" cy="110.701" rx="10.3033" ry="10.3448" fill="#080708"/>
<ellipse cx="233.883" cy="110.701" rx="3.09101" ry="3.10345" fill="#F5EEEB"/>
<path d="M199.882 196.563V217.252" stroke="#080708" stroke-linecap="square"/>
<path d="M177.215 217.436H223.58" stroke="#080708" stroke-linecap="square"/>
<path d="M318.37 140.701H398.221" stroke="#080708" stroke-linecap="square"/>
<path d="M394.1 135.528L399.252 140.701L394.1 145.873" stroke="#080708"/>
<path d="M633.653 140.701H713.504" stroke="#080708" stroke-linecap="square"/>
<path d="M709.382 135.528L714.534 140.701L709.382 145.873" stroke="#080708"/>
<path d="M800.846 164.116L794.979 186.099" stroke="#080708" stroke-linecap="square"/>
<ellipse cx="2.50096" cy="2.52806" rx="2.50096" ry="2.52806" transform="matrix(0.965665 0.259791 -0.25785 0.966185 788.979 198.884)" fill="#F5EEEB" stroke="#080708"/>
<path d="M801.421 164.271C809.37 166.409 817.744 166.394 825.7 164.226C833.657 162.059 840.916 157.815 846.748 151.922C852.581 146.029 856.781 138.694 858.926 130.655C861.072 122.616 861.087 114.155 858.971 106.124C856.855 98.0924 852.681 90.773 846.87 84.9015C841.059 79.0299 833.815 74.8129 825.866 72.6745C817.917 70.536 809.544 70.5514 801.587 72.7191C793.63 74.8868 786.371 79.1304 780.539 85.0234" stroke="#080708" stroke-linecap="square"/>
</svg>
