<svg width="880" height="602" viewBox="0 0 880 602" fill="none" xmlns="http://www.w3.org/2000/svg">
<rect width="880" height="602" fill="#F5EEEB"/>
<ellipse cx="439.486" cy="301" rx="257.265" ry="256.849" stroke="#859DFF"/>
<ellipse cx="439.486" cy="352.37" rx="10.2906" ry="5.13698" fill="#080708"/>
<rect x="356.132" y="249.63" width="166.708" height="102.74" fill="#080708" stroke="#080708"/>
<path d="M362.307 234.219L439.486 244.493V347.233L362.307 336.959V234.219Z" fill="#F5EEEB" stroke="#080708"/>
<path d="M516.665 234.219L439.486 244.493V347.233L516.665 336.959V234.219Z" fill="#F5EEEB" stroke="#080708"/>
<path d="M429.195 257.164L372.597 249.63" stroke="#080708"/>
<path d="M429.195 267.438L372.597 259.904" stroke="#080708"/>
<path d="M429.195 277.712L372.597 270.178" stroke="#080708"/>
<path d="M429.195 287.986L372.597 280.452" stroke="#080708"/>
<path d="M429.195 298.26L372.597 290.726" stroke="#080708"/>
<path d="M429.195 308.534L372.597 301" stroke="#080708"/>
<path d="M429.195 318.808L372.597 311.274" stroke="#080708"/>
<path d="M429.195 329.082L372.597 321.548" stroke="#080708"/>
<path d="M449.777 257.164L506.375 249.63" stroke="#080708"/>
<path d="M449.777 267.438L506.375 259.904" stroke="#080708"/>
<path d="M449.777 277.712L506.375 270.178" stroke="#080708"/>
<path d="M449.777 287.986L506.375 280.452" stroke="#080708"/>
<path d="M449.777 298.26L506.375 290.726" stroke="#080708"/>
<path d="M449.777 308.534L506.375 301" stroke="#080708"/>
<path d="M449.777 318.808L506.375 311.274" stroke="#080708"/>
<path d="M449.776 329.082L478.075 325.315" stroke="#080708"/>
<ellipse cx="439.485" cy="44.1507" rx="43.2205" ry="43.1507" fill="#F5EEEB" stroke="#859DFF"/>
<ellipse cx="439.485" cy="557.849" rx="43.2205" ry="43.1507" fill="#F5EEEB" stroke="#859DFF"/>
<ellipse cx="697.779" cy="301" rx="43.2205" ry="43.1507" fill="#F5EEEB" stroke="#859DFF"/>
<rect width="30.8718" height="20.5479" transform="translate(681.314 301)" fill="white"/>
<path d="M712.186 321.548V301H681.314V321.548H712.186Z" fill="#F5EEEB" stroke="#080708"/>
<path d="M703.349 312.301V306.137H691V312.301H703.349Z" fill="#F5EEEB" stroke="#080708"/>
<path d="M695 317H699C699.552 317 700 316.552 700 316C700 315.448 699.552 315 699 315H695C694.448 315 694 315.448 694 316C694 316.552 694.448 317 695 317Z" fill="#080708" stroke="#080708"/>
<rect width="30.8718" height="20.5479" transform="translate(681.314 280.452)" fill="white"/>
<path d="M712.186 301V280.452H681.314V301H712.186Z" fill="#F5EEEB" stroke="#080708"/>
<path d="M703.349 291.753V285.589H691V291.753H703.349Z" fill="#F5EEEB" stroke="#080708"/>
<path d="M695 296H699C699.552 296 700 295.552 700 295C700 294.448 699.552 294 699 294H695C694.448 294 694 294.448 694 295C694 295.552 694.448 296 695 296Z" fill="#080708" stroke="#080708"/>
<ellipse cx="182.221" cy="301" rx="43.2205" ry="43.1507" fill="#F5EEEB" stroke="#859DFF"/>
<rect x="157.189" y="318.802" width="34.5758" height="50.0624" transform="rotate(-90 157.189 318.802)" fill="#F5EEEB" stroke="#080708"/>
<path d="M157.189 318.802L182.221 293.907L207.252 318.802L157.189 318.802Z" fill="#F5EEEB" stroke="#080708" stroke-linejoin="bevel"/>
<path d="M157.189 284.226L182.221 309.12L207.252 284.226L157.189 284.226Z" fill="#F5EEEB" stroke="#080708" stroke-linejoin="bevel"/>
<ellipse cx="205.166" cy="286.3" rx="6.95311" ry="6.91517" fill="#F5EEEB" stroke="#080708"/>
<ellipse cx="205.166" cy="286.3" rx="2.08593" ry="2.07455" fill="#080708"/>
<path d="M439.646 499.127C439.842 499.322 440.158 499.322 440.354 499.127L443.536 495.945C443.731 495.75 443.731 495.433 443.536 495.238C443.34 495.043 443.024 495.043 442.828 495.238L440 498.066L437.172 495.238C436.976 495.043 436.66 495.043 436.464 495.238C436.269 495.433 436.269 495.75 436.464 495.945L439.646 499.127ZM439.5 368.294V498.774H440.5V368.294H439.5Z" fill="#080708"/>
<path d="M439.646 499.127C439.842 499.322 440.158 499.322 440.354 499.127L443.536 495.945C443.731 495.75 443.731 495.433 443.536 495.238C443.34 495.043 443.024 495.043 442.828 495.238L440 498.066L437.172 495.238C436.976 495.043 436.66 495.043 436.464 495.238C436.269 495.433 436.269 495.75 436.464 495.945L439.646 499.127ZM439.5 368.294V498.774H440.5V368.294H439.5Z" fill="#859DFF"/>
<path d="M440.354 103.386C440.158 103.191 439.842 103.191 439.646 103.386L436.464 106.568C436.269 106.763 436.269 107.08 436.464 107.275C436.66 107.47 436.976 107.47 437.172 107.275L440 104.447L442.828 107.275C443.024 107.47 443.34 107.47 443.536 107.275C443.731 107.08 443.731 106.763 443.536 106.568L440.354 103.386ZM439.5 103.74V234.219H440.5V103.74H439.5Z" fill="#080708"/>
<path d="M440.354 103.386C440.158 103.191 439.842 103.191 439.646 103.386L436.464 106.568C436.269 106.763 436.269 107.08 436.464 107.275C436.66 107.47 436.976 107.47 437.172 107.275L440 104.447L442.828 107.275C443.024 107.47 443.34 107.47 443.536 107.275C443.731 107.08 443.731 106.763 443.536 106.568L440.354 103.386ZM439.5 103.74V234.219H440.5V103.74H439.5Z" fill="#080708"/>
<path d="M440.354 103.386C440.158 103.191 439.842 103.191 439.646 103.386L436.464 106.568C436.269 106.763 436.269 107.08 436.464 107.275C436.66 107.47 436.976 107.47 437.172 107.275L440 104.447L442.828 107.275C443.024 107.47 443.34 107.47 443.536 107.275C443.731 107.08 443.731 106.763 443.536 106.568L440.354 103.386ZM439.5 103.74V234.219H440.5V103.74H439.5Z" fill="#859DFF"/>
<path d="M638.448 301.353C638.643 301.158 638.643 300.841 638.448 300.646L635.266 297.464C635.07 297.269 634.754 297.269 634.559 297.464C634.363 297.659 634.363 297.976 634.559 298.171L637.387 301L634.559 303.828C634.363 304.023 634.363 304.34 634.559 304.535C634.754 304.731 635.07 304.731 635.266 304.535L638.448 301.353ZM638.094 300.5L538.275 300.5L538.275 301.5L638.094 301.5V300.5Z" fill="#080708"/>
<path d="M638.448 301.353C638.643 301.158 638.643 300.841 638.448 300.646L635.266 297.464C635.07 297.269 634.754 297.269 634.559 297.464C634.363 297.659 634.363 297.976 634.559 298.171L637.387 301L634.559 303.828C634.363 304.023 634.363 304.34 634.559 304.535C634.754 304.731 635.07 304.731 635.266 304.535L638.448 301.353ZM638.094 300.5L538.275 300.5L538.275 301.5L638.094 301.5V300.5Z" fill="#859DFF"/>
<path d="M240.523 300.646C240.328 300.841 240.328 301.158 240.523 301.353L243.705 304.535C243.901 304.731 244.217 304.731 244.412 304.535C244.608 304.34 244.608 304.023 244.412 303.828L241.584 301L244.412 298.171C244.608 297.976 244.608 297.659 244.412 297.464C244.217 297.269 243.901 297.269 243.705 297.464L240.523 300.646ZM340.696 300.5L240.877 300.5L240.877 301.5L340.696 301.5V300.5Z" fill="#080708"/>
<path d="M240.523 300.646C240.328 300.841 240.328 301.158 240.523 301.353L243.705 304.535C243.901 304.731 244.217 304.731 244.412 304.535C244.608 304.34 244.608 304.023 244.412 303.828L241.584 301L244.412 298.171C244.608 297.976 244.608 297.659 244.412 297.464C244.217 297.269 243.901 297.269 243.705 297.464L240.523 300.646ZM340.696 300.5L240.877 300.5L240.877 301.5L340.696 301.5V300.5Z" fill="#859DFF"/>
<path d="M424.05 35.9317V66.7536H454.922V35.9317" stroke="#080708"/>
<rect x="434.34" y="52.3698" width="10.2906" height="14.3836" fill="#080708" stroke="#080708"/>
<rect x="434.34" y="35.9317" width="10.2906" height="10.274" fill="#F5EEEB" stroke="#080708"/>
<path d="M439.485 35.9317V46.2057" stroke="#080708"/>
<path d="M434.34 41.0686H444.63" stroke="#080708"/>
<path d="M463.154 43.1234L439.486 21.5481L415.817 43.1234" stroke="#080708"/>
<ellipse cx="441.544" cy="59.5616" rx="1.02906" ry="1.0274" fill="#F5EEEB"/>
<path d="M441.933 544.434C446.761 549.254 446.761 557.07 441.933 561.89C437.105 566.71 429.278 566.71 424.45 561.89C419.622 557.07 419.622 549.254 424.45 544.434C429.278 539.614 437.105 539.614 441.933 544.434Z" stroke="#080708"/>
<g clip-path="url(#clip0_583_32329)">
<path d="M439.892 559.614L454.445 574.144" stroke="#080708"/>
<rect width="3.08469" height="12.3387" transform="matrix(0.707678 -0.706535 0.707678 0.706535 444.622 566.516)" fill="#080708"/>
</g>
<path d="M384.04 255.055L486.347 218.2L449.517 320.575L384.04 255.055Z" fill="#F5EEEB"/>
<path d="M416.778 287.815L422.917 314.432L433.147 304.195L416.778 287.815Z" fill="#080708"/>
<path d="M486.347 218.2L384.04 255.055L449.517 320.575L486.347 218.2ZM486.347 218.2L416.778 287.815M416.778 287.815L422.917 314.432L433.147 304.195L416.778 287.815Z" stroke="#080708"/>
<circle cx="418" cy="261" r="8" fill="#7895FF"/>
<defs>
<clipPath id="clip0_583_32329">
<rect width="5.14114" height="17.4799" fill="white" transform="matrix(0.707678 -0.706535 0.707678 0.706535 440.256 563.61)"/>
</clipPath>
</defs>
</svg>
