<svg width="1000" height="588" viewBox="0 0 1000 588" fill="none" xmlns="http://www.w3.org/2000/svg">
<rect width="1000" height="588" fill="#F5EEEB"/>
<circle cx="500" cy="294.293" r="250" stroke="#080708"/>
<ellipse cx="500" cy="344.293" rx="10" ry="5" fill="#080708"/>
<rect x="419" y="244.293" width="162" height="100" fill="#080708" stroke="#080708"/>
<path d="M425 229.293L500 239.293V339.293L425 329.293V229.293Z" fill="#F5EEEB" stroke="#080708"/>
<path d="M575 229.293L500 239.293V339.293L575 329.293V229.293Z" fill="#F5EEEB" stroke="#080708"/>
<path d="M490 251.627L435 244.293" stroke="#080708"/>
<path d="M490 261.627L435 254.293" stroke="#080708"/>
<path d="M490 271.627L435 264.293" stroke="#080708"/>
<path d="M490 281.627L435 274.293" stroke="#080708"/>
<path d="M490 291.627L435 284.293" stroke="#080708"/>
<path d="M490 301.627L435 294.293" stroke="#080708"/>
<path d="M490 311.627L435 304.293" stroke="#080708"/>
<path d="M490 321.627L435 314.293" stroke="#080708"/>
<path d="M510 251.627L565 244.293" stroke="#080708"/>
<path d="M510 261.627L565 254.293" stroke="#080708"/>
<path d="M510 271.627L565 264.293" stroke="#080708"/>
<path d="M510 281.627L565 274.293" stroke="#080708"/>
<path d="M510 291.627L565 284.293" stroke="#080708"/>
<path d="M510 301.627L565 294.293" stroke="#080708"/>
<path d="M510 311.627L565 304.293" stroke="#080708"/>
<path d="M510 321.627L537.5 317.96" stroke="#080708"/>
<circle cx="500" cy="44.2935" r="42" fill="#F5EEEB" stroke="#080708"/>
<circle cx="500" cy="544.294" r="42" fill="#F5EEEB" stroke="#080708"/>
<circle cx="751" cy="294.293" r="42" fill="#F5EEEB" stroke="#080708"/>
<path d="M765 314.293V294.293H735V314.293H765Z" fill="#F5EEEB" stroke="#080708"/>
<path d="M756 305.293V299.293H744V305.293H756Z" stroke="#080708"/>
<path d="M748.5 310.293H751.5C752.328 310.293 753 309.622 753 308.793C753 307.965 752.328 307.293 751.5 307.293H748.5C747.672 307.293 747 307.965 747 308.793C747 309.622 747.672 310.293 748.5 310.293Z" fill="#080708" stroke="#080708"/>
<path d="M765 294.293V274.293H735V294.293H765Z" fill="#F5EEEB" stroke="#080708"/>
<path d="M756 285.293V279.293H744V285.293H756Z" stroke="#080708"/>
<path d="M748.5 290.293H751.5C752.328 290.293 753 289.622 753 288.793C753 287.965 752.328 287.293 751.5 287.293H748.5C747.672 287.293 747 287.965 747 288.793C747 289.622 747.672 290.293 748.5 290.293Z" fill="#080708" stroke="#080708"/>
<circle cx="250" cy="294.293" r="42" fill="#F5EEEB" stroke="#080708"/>
<rect x="225.676" y="311.62" width="33.6538" height="48.6486" transform="rotate(-90 225.676 311.62)" fill="#F5EEEB" stroke="#080708"/>
<path d="M225.676 311.62L250 287.39L274.324 311.62L225.676 311.62Z" fill="#F5EEEB" stroke="#080708" stroke-linejoin="bevel"/>
<path d="M225.676 277.967L250 302.197L274.324 277.967L225.676 277.967Z" fill="#F5EEEB" stroke="#080708" stroke-linejoin="bevel"/>
<ellipse cx="272.297" cy="279.986" rx="6.75676" ry="6.73077" fill="#080708"/>
<ellipse cx="272.298" cy="279.986" rx="2.02703" ry="2.01923" fill="#F5EEEB"/>
<path d="M500.146 487.147C500.342 487.342 500.658 487.342 500.854 487.147L504.036 483.965C504.231 483.77 504.231 483.453 504.036 483.258C503.84 483.063 503.524 483.063 503.328 483.258L500.5 486.086L497.672 483.258C497.476 483.063 497.16 483.063 496.964 483.258C496.769 483.453 496.769 483.77 496.964 483.965L500.146 487.147ZM500 359.793V486.793H501V359.793H500Z" fill="#080708"/>
<path d="M500.854 101.94C500.658 101.745 500.342 101.745 500.146 101.94L496.964 105.122C496.769 105.317 496.769 105.634 496.964 105.829C497.16 106.024 497.476 106.024 497.672 105.829L500.5 103.001L503.328 105.829C503.524 106.024 503.84 106.024 504.036 105.829C504.231 105.634 504.231 105.317 504.036 105.122L500.854 101.94ZM500 102.293V229.293H501V102.293H500Z" fill="#080708"/>
<path d="M693.354 294.647C693.549 294.452 693.549 294.135 693.354 293.94L690.172 290.758C689.976 290.563 689.66 290.563 689.464 290.758C689.269 290.953 689.269 291.27 689.464 291.465L692.293 294.293L689.464 297.122C689.269 297.317 689.269 297.634 689.464 297.829C689.66 298.024 689.976 298.024 690.172 297.829L693.354 294.647ZM693 293.793L596 293.793L596 294.793L693 294.793V293.793Z" fill="#080708"/>
<path d="M306.646 293.94C306.451 294.135 306.451 294.452 306.646 294.647L309.828 297.829C310.024 298.024 310.34 298.024 310.536 297.829C310.731 297.634 310.731 297.317 310.536 297.122L307.707 294.293L310.536 291.465C310.731 291.27 310.731 290.953 310.536 290.758C310.34 290.563 310.024 290.563 309.828 290.758L306.646 293.94ZM404 293.793L307 293.793L307 294.793L404 294.793V293.793Z" fill="#080708"/>
<path d="M485 36.2935V66.2935H515V36.2935" stroke="#080708"/>
<rect x="495" y="52.2935" width="10" height="14" fill="#080708" stroke="#080708"/>
<rect x="495" y="36.2935" width="10" height="10" fill="#F5EEEB" stroke="#080708"/>
<path d="M500 36.2935V46.2935" stroke="#080708"/>
<path d="M495 41.2935H505" stroke="#080708"/>
<path d="M523 43.2935L500 22.2935L477 43.2935" stroke="#080708"/>
<circle cx="502" cy="59.2935" r="1" fill="#F5EEEB"/>
<circle cx="493.678" cy="539.294" r="12" transform="rotate(-45 493.678 539.294)" fill="#F5EEEB" stroke="#080708"/>
<g clip-path="url(#clip0_465_12042)">
<path d="M500.395 546.011L514.537 560.153" stroke="#080708"/>
<rect x="504.991" y="552.729" width="3" height="12" transform="rotate(-45 504.991 552.729)" fill="#080708"/>
</g>
<defs>
<clipPath id="clip0_465_12042">
<rect width="5" height="17" fill="white" transform="translate(500.749 549.9) rotate(-45)"/>
</clipPath>
</defs>
</svg>
