<svg width="480" height="480" viewBox="0 0 480 480" fill="none" xmlns="http://www.w3.org/2000/svg" preserveAspectRatio="xMidYMid slice">
<rect x="41" y="60" width="80" height="60" fill="#F5EEEB" stroke="#080708" stroke-width="2"/>
<rect x="41" y="58.3333" width="80" height="61.6667" fill="#F5EEEB" stroke="#080708" stroke-width="2"/>
<path fill-rule="evenodd" clip-rule="evenodd" d="M41 40H62.3333L65.381 46.6667H121V60H41V40ZM117.667 50H44.3333V58.3333H117.667V50Z" fill="#080708" stroke="#080708" stroke-width="2"/>
<ellipse cx="71.8334" cy="80.8334" rx="4.16667" ry="4.16667" fill="#080708"/>
<circle cx="103.5" cy="80.8334" r="4.16667" fill="#080708"/>
<path d="M97.6667 88.3333C97.6667 93.8562 93.1896 98.3333 87.6667 98.3333C82.1439 98.3333 77.6667 93.8562 77.6667 88.3333" stroke="#080708" stroke-width="2"/>
<rect x="44.3333" y="50" width="73.3333" height="8.33333" fill="#F5EEEB"/>
<rect x="41" y="220" width="80" height="60" fill="#F5EEEB" stroke="#080708" stroke-width="2"/>
<rect x="41" y="218.333" width="80" height="61.6667" fill="#F5EEEB" stroke="#080708" stroke-width="2"/>
<path fill-rule="evenodd" clip-rule="evenodd" d="M41 200H62.3333L65.381 206.667H121V220H41V200ZM117.667 210H44.3333V218.333H117.667V210Z" fill="#080708" stroke="#080708" stroke-width="2"/>
<ellipse cx="71.8334" cy="240.833" rx="4.16667" ry="4.16667" fill="#080708"/>
<circle cx="103.5" cy="240.833" r="4.16667" fill="#080708"/>
<path d="M97.6667 248.333C97.6667 253.856 93.1896 258.333 87.6667 258.333C82.1439 258.333 77.6667 253.856 77.6667 248.333" stroke="#080708" stroke-width="2"/>
<rect x="44.3333" y="210" width="73.3333" height="8.33333" fill="#F5EEEB"/>
<rect x="41" y="380" width="80" height="60" fill="#F5EEEB" stroke="#080708" stroke-width="2"/>
<rect x="41" y="378.333" width="80" height="61.6667" fill="#F5EEEB" stroke="#080708" stroke-width="2"/>
<path fill-rule="evenodd" clip-rule="evenodd" d="M41 360H62.3333L65.381 366.667H121V380H41V360ZM117.667 370H44.3333V378.333H117.667V370Z" fill="#080708" stroke="#080708" stroke-width="2"/>
<ellipse cx="71.8334" cy="400.833" rx="4.16667" ry="4.16667" fill="#080708"/>
<circle cx="103.5" cy="400.833" r="4.16667" fill="#080708"/>
<path d="M97.6667 408.333C97.6667 413.856 93.1896 418.333 87.6667 418.333C82.1439 418.333 77.6667 413.856 77.6667 408.333" stroke="#080708" stroke-width="2"/>
<rect x="44.3333" y="370" width="73.3333" height="8.33333" fill="#F5EEEB"/>
<rect x="201" y="60" width="80" height="60" fill="#F5EEEB" stroke="#080708" stroke-width="2"/>
<rect x="201" y="58.3333" width="80" height="61.6667" fill="#F5EEEB" stroke="#080708" stroke-width="2"/>
<path fill-rule="evenodd" clip-rule="evenodd" d="M201 40H222.333L225.381 46.6667H281V60H201V40ZM277.667 50H204.333V58.3333H277.667V50Z" fill="#080708" stroke="#080708" stroke-width="2"/>
<ellipse cx="231.833" cy="80.8334" rx="4.16667" ry="4.16667" fill="#080708"/>
<circle cx="263.5" cy="80.8334" r="4.16667" fill="#080708"/>
<path d="M257.667 88.3333C257.667 93.8562 253.19 98.3333 247.667 98.3333C242.144 98.3333 237.667 93.8562 237.667 88.3333" stroke="#080708" stroke-width="2"/>
<rect x="204.333" y="50" width="73.3333" height="8.33333" fill="#F5EEEB"/>
<rect x="201" y="220" width="80" height="60" fill="#F5EEEB" stroke="#080708" stroke-width="2"/>
<rect x="201" y="218.333" width="80" height="61.6667" fill="#F5EEEB" stroke="#080708" stroke-width="2"/>
<path fill-rule="evenodd" clip-rule="evenodd" d="M201 200H222.333L225.381 206.667H281V220H201V200ZM277.667 210H204.333V218.333H277.667V210Z" fill="#080708" stroke="#080708" stroke-width="2"/>
<ellipse cx="231.833" cy="240.833" rx="4.16667" ry="4.16667" fill="#080708"/>
<circle cx="263.5" cy="240.833" r="4.16667" fill="#080708"/>
<path d="M257.667 248.333C257.667 253.856 253.19 258.333 247.667 258.333C242.144 258.333 237.667 253.856 237.667 248.333" stroke="#080708" stroke-width="2"/>
<rect x="204.333" y="210" width="73.3333" height="8.33333" fill="#F5EEEB"/>
<rect x="361" y="60" width="80" height="60" fill="#F5EEEB" stroke="#080708" stroke-width="2"/>
<rect x="361" y="58.3333" width="80" height="61.6667" fill="#F5EEEB" stroke="#080708" stroke-width="2"/>
<path fill-rule="evenodd" clip-rule="evenodd" d="M361 40H382.333L385.381 46.6667H441V60H361V40ZM437.667 50H364.333V58.3333H437.667V50Z" fill="#080708" stroke="#080708" stroke-width="2"/>
<ellipse cx="391.833" cy="80.8334" rx="4.16667" ry="4.16667" fill="#080708"/>
<circle cx="423.5" cy="80.8334" r="4.16667" fill="#080708"/>
<path d="M417.667 88.3333C417.667 93.8562 413.19 98.3333 407.667 98.3333C402.144 98.3333 397.667 93.8562 397.667 88.3333" stroke="#080708" stroke-width="2"/>
<rect x="364.333" y="50" width="73.3333" height="8.33333" fill="#F5EEEB"/>
<rect x="361" y="220" width="80" height="60" fill="#F5EEEB" stroke="#080708" stroke-width="2"/>
<rect x="361" y="218.333" width="80" height="61.6667" fill="#F5EEEB" stroke="#080708" stroke-width="2"/>
<path fill-rule="evenodd" clip-rule="evenodd" d="M361 200H382.333L385.381 206.667H441V220H361V200ZM437.667 210H364.333V218.333H437.667V210Z" fill="#080708" stroke="#080708" stroke-width="2"/>
<ellipse cx="391.833" cy="240.833" rx="4.16667" ry="4.16667" fill="#080708"/>
<circle cx="423.5" cy="240.833" r="4.16667" fill="#080708"/>
<path d="M417.667 248.333C417.667 253.856 413.19 258.333 407.667 258.333C402.144 258.333 397.667 253.856 397.667 248.333" stroke="#080708" stroke-width="2"/>
<rect x="364.333" y="210" width="73.3333" height="8.33333" fill="#F5EEEB"/>
<path d="M201 360H223.802L229.502 371.429H201V360Z" fill="#080708" stroke="#080708" stroke-width="2"/>
<rect width="79.8068" height="72.8571" transform="matrix(1 0 0 -1 201 440)" fill="#080708" stroke="#080708" stroke-width="2"/>
<rect width="62.7155" height="45.7069" transform="matrix(0.965769 0.259404 -0.258236 0.966082 233.492 364.286)" fill="#F5EEEB" stroke="#080708" stroke-width="2"/>
<ellipse cx="17.1042" cy="17.1401" rx="17.1042" ry="17.1401" transform="matrix(0.965769 0.259404 -0.258236 0.966082 243.57 381.782)" fill="var(--highlight)" stroke="#080708" stroke-width="2"/>
<rect width="26.5254" height="25.3618" transform="matrix(0.965769 -0.259404 0.258236 0.966082 222.377 385.452)" fill="var(--highlight)" stroke="#080708" stroke-width="2"/>
<path d="M280.572 385.126L286.961 409.026L263.118 402.622L280.572 385.126Z" fill="var(--highlight)" stroke="#080708" stroke-width="2"/>
<path d="M219.526 394.286H299.333L282.232 440H202.425L219.526 394.286Z" fill="#F5EEEB" stroke="#080708" stroke-width="2"/>
<ellipse cx="241.833" cy="419.167" rx="4.16667" ry="2.5" fill="#080708"/>
<ellipse cx="273.5" cy="419.167" rx="4.16666" ry="2.5" fill="#080708"/>
<path d="M267.667 423.333C267.667 427.015 263.19 430 257.667 430C252.144 430 247.667 427.015 247.667 423.333" stroke="#080708" stroke-width="2"/>
<path d="M361 360H383.716L389.395 371.429H361V360Z" fill="#080708" stroke="#080708" stroke-width="2"/>
<rect width="79.5062" height="72.8571" transform="matrix(1 0 0 -1 361 440)" fill="#080708" stroke="#080708" stroke-width="2"/>
<rect width="62.4952" height="40.3782" transform="matrix(0.965523 0.260318 -0.257328 0.966324 396.946 357.143)" fill="#F5EEEB" stroke="#080708" stroke-width="2"/>
<rect width="21.8354" height="20.9459" transform="matrix(0.965523 -0.260318 0.257328 0.966324 378.037 369.97)" fill="var(--highlight)" stroke="#080708" stroke-width="2"/>
<ellipse cx="12.2554" cy="12.3213" rx="12.2554" ry="12.3213" transform="matrix(0.965523 0.260318 -0.257328 0.966324 422.119 353.147)" fill="var(--highlight)" stroke="#080708" stroke-width="2"/>
<path d="M379.457 394.286H458.963L441.926 440H362.42L379.457 394.286Z" fill="#F5EEEB" stroke="#080708" stroke-width="2"/>
<ellipse cx="400.167" cy="419.167" rx="4.16667" ry="2.5" fill="#080708"/>
<ellipse cx="431.833" cy="419.167" rx="4.16667" ry="2.5" fill="#080708"/>
<path d="M426 423.333C426 427.015 421.523 430 416 430C410.477 430 406 427.015 406 423.333" stroke="#080708" stroke-width="2"/>
<path d="M466.365 338.673L460.001 362.573L442.612 345.077L466.365 338.673Z" fill="var(--highlight)" stroke="#080708" stroke-width="2"/>
</svg>
