<svg width="880" height="415" viewBox="0 0 880 415" fill="none" xmlns="http://www.w3.org/2000/svg">
<g clip-path="url(#clip0_74_6452)">
<path d="M533 356.403H881V366.403H533V356.403Z" fill="var(--highlight)"/>
<path d="M533 356.403V355.403H532V356.403H533ZM533 366.403H532V367.403H533V366.403ZM533 357.403H881V355.403H533V357.403ZM881 365.403H533V367.403H881V365.403ZM534 366.403V356.403H532V366.403H534Z" fill="#080708"/>
<path d="M533 356.403L545 344.403" stroke="#080708" stroke-width="2"/>
<rect x="61" y="116.403" width="180" height="300" fill="var(--highlight)" stroke="#080708" stroke-width="2"/>
<rect x="1" y="116.403" width="60" height="300" fill="var(--highlight)" stroke="#080708" stroke-width="2"/>
<rect x="53" y="116.403" width="8" height="100" fill="var(--highlight)" stroke="#080708" stroke-width="2"/>
<rect x="53" y="316.403" width="8" height="100" fill="var(--highlight)" stroke="#080708" stroke-width="2"/>
<rect x="61" y="216.403" width="180" height="100" fill="var(--highlight)" stroke="#080708" stroke-width="2"/>
<rect x="53" y="216.403" width="188" height="100" fill="#080708" stroke="#080708" stroke-width="2"/>
<path d="M136 166.403C136 163.641 138.239 161.403 141 161.403H151V171.403H141C138.239 171.403 136 169.164 136 166.403V166.403Z" fill="#080708" stroke="#080708" stroke-width="2"/>
<rect x="146" y="161.403" width="30" height="10" rx="5" fill="var(--highlight)" stroke="#080708" stroke-width="2"/>
<path d="M136 366.403C136 363.641 138.239 361.403 141 361.403H151V371.403H141C138.239 371.403 136 369.164 136 366.403V366.403Z" fill="#080708" stroke="#080708" stroke-width="2"/>
<rect x="146" y="361.403" width="30" height="10" rx="5" fill="var(--highlight)" stroke="#080708" stroke-width="2"/>
<rect x="96" y="206.403" width="80" height="60" fill="#F5EEEB" stroke="#080708" stroke-width="2"/>
<rect x="96" y="204.736" width="80" height="61.6667" fill="#F5EEEB" stroke="#080708" stroke-width="2"/>
<path fill-rule="evenodd" clip-rule="evenodd" d="M96 186.403H117.333L120.381 193.069H176V206.403H96V186.403ZM172.667 196.403H99.3333V204.736H172.667V196.403Z" fill="#080708" stroke="#080708" stroke-width="2"/>
<rect x="99.3333" y="196.403" width="73.3333" height="8.33333" fill="#F5EEEB"/>
<rect x="136" y="206.403" width="80" height="60" fill="#F5EEEB" stroke="#080708" stroke-width="2"/>
<rect x="136" y="204.736" width="80" height="61.6667" fill="#F5EEEB" stroke="#080708" stroke-width="2"/>
<path fill-rule="evenodd" clip-rule="evenodd" d="M136 186.403H157.333L160.381 193.069H216V206.403H136V186.403ZM212.667 196.403H139.333V204.736H212.667V196.403Z" fill="#080708" stroke="#080708" stroke-width="2"/>
<rect x="139.333" y="196.403" width="73.3333" height="8.33333" fill="#F5EEEB"/>
<rect x="176" y="206.403" width="80" height="60" fill="#F5EEEB" stroke="#080708" stroke-width="2"/>
<rect x="176" y="204.736" width="80" height="61.6667" fill="#F5EEEB" stroke="#080708" stroke-width="2"/>
<path fill-rule="evenodd" clip-rule="evenodd" d="M176 186.403H197.333L200.381 193.069H256V206.403H176V186.403ZM252.667 196.403H179.333V204.736H252.667V196.403Z" fill="#080708" stroke="#080708" stroke-width="2"/>
<rect x="179.333" y="196.403" width="73.3333" height="8.33333" fill="#F5EEEB"/>
<rect x="53" y="236.403" width="253" height="80" fill="var(--highlight)" stroke="#080708" stroke-width="2"/>
<path d="M216 141.403H238.716L244.395 152.831H216V141.403Z" fill="#080708" stroke="#080708" stroke-width="2"/>
<rect width="79.5062" height="72.8571" transform="matrix(1 0 0 -1 216 221.403)" fill="#080708" stroke="#080708" stroke-width="2"/>
<rect width="62.4952" height="40.3782" transform="matrix(0.965523 0.260318 -0.257328 0.966324 251.946 138.545)" fill="#F5EEEB" stroke="#080708" stroke-width="2"/>
<rect width="21.8354" height="20.9459" transform="matrix(0.965523 -0.260318 0.257328 0.966324 233.037 151.373)" fill="#F5EEEB" stroke="#080708" stroke-width="2"/>
<ellipse cx="12.2554" cy="12.3213" rx="12.2554" ry="12.3213" transform="matrix(0.965523 0.260318 -0.257328 0.966324 277.119 134.55)" fill="#F5EEEB" stroke="#080708" stroke-width="2"/>
<path d="M234.457 175.688H313.963L296.926 221.403H217.42L234.457 175.688Z" fill="#F5EEEB" stroke="#080708" stroke-width="2"/>
<ellipse cx="255.167" cy="200.569" rx="4.16667" ry="2.5" fill="#080708"/>
<ellipse cx="286.833" cy="200.569" rx="4.16667" ry="2.5" fill="#080708"/>
<path d="M281 204.736C281 208.418 276.523 211.403 271 211.403C265.477 211.403 261 208.418 261 204.736" stroke="#080708" stroke-width="2"/>
<path d="M321.365 120.076L315.001 143.976L297.612 126.48L321.365 120.076Z" fill="#F5EEEB" stroke="#080708" stroke-width="2"/>
<rect x="156" y="216.403" width="180" height="100" fill="var(--highlight)" stroke="#080708" stroke-width="2"/>
<path d="M545 18.4026H881V344.403H545V18.4026Z" fill="var(--highlight)"/>
<path d="M545 18.4026V17.4026H544V18.4026H545ZM545 344.403H544V345.403H545V344.403ZM545 19.4026H881V17.4026H545V19.4026ZM881 343.403H545V345.403H881V343.403ZM546 344.403V18.4026H544V344.403H546Z" fill="#080708"/>
<rect width="21.4663" height="20.5917" transform="matrix(0.965523 -0.260318 0.257328 0.966324 577 257.991)" fill="#080708" stroke="#080708" stroke-width="2"/>
<path d="M489.62 124.865L487.835 145.628L470.846 133.654L489.62 124.865Z" fill="#080708" stroke="#080708" stroke-width="2"/>
<path d="M429.336 45.7197L423.303 68.3755L406.82 51.7903L429.336 45.7197Z" fill="#080708" stroke="#080708" stroke-width="2"/>
<path d="M520.764 78.7546L526.641 100.553L504.91 94.6581L520.764 78.7546Z" fill="#080708" stroke="#080708" stroke-width="2"/>
<ellipse cx="14.4225" cy="14.5" rx="14.4225" ry="14.5" transform="matrix(0.965523 0.260318 -0.257328 0.966324 621.834 16.2236)" fill="#080708" stroke="#080708" stroke-width="2"/>
<path d="M757.591 8.42938L757.618 25.7962L742.645 17.0896L757.591 8.42938Z" fill="#080708" stroke="#080708" stroke-width="2"/>
<path d="M837.971 5.09327L828.927 20.9276L819.834 5.17757L837.971 5.09327Z" fill="#080708" stroke="#080708" stroke-width="2"/>
<ellipse cx="12.4331" cy="12.5" rx="12.4331" ry="12.5" transform="matrix(0.765046 0.643976 -0.641604 0.767036 358.356 94.9773)" fill="#080708" stroke="#080708" stroke-width="2"/>
<ellipse cx="12.4331" cy="12.5" rx="12.4331" ry="12.5" transform="matrix(0.865248 0.501344 -0.498662 0.866796 562.467 62.4026)" fill="#080708" stroke="#080708" stroke-width="2"/>
<rect width="28.1467" height="27" transform="matrix(0.707107 -0.707107 0.704914 0.709293 517 48.3052)" fill="#080708" stroke="#080708" stroke-width="2"/>
<rect width="30.2316" height="29" transform="matrix(0.965926 -0.258819 0.255827 0.966723 609.92 161.253)" fill="#080708" stroke="#080708" stroke-width="2"/>
<rect width="21.8919" height="21" transform="matrix(0.996329 0.0856094 -0.0886936 0.996059 717.26 36.8875)" fill="#080708" stroke="#080708" stroke-width="2"/>
<path d="M864.453 60.2137L864.484 80.1856L847.265 70.1729L864.453 60.2137Z" fill="#080708" stroke="#080708" stroke-width="2"/>
<rect width="23.9768" height="23" transform="matrix(0.965523 -0.260318 0.257328 0.966324 379.929 112.575)" fill="#080708" stroke="#080708" stroke-width="2"/>
<path d="M481.19 62.5744L474.933 86.0692L457.84 68.8698L481.19 62.5744Z" fill="#080708" stroke="#080708" stroke-width="2"/>
<ellipse cx="14.9198" cy="15" rx="14.9198" ry="15" transform="matrix(0.939161 0.343478 -0.340569 0.94022 640.684 90.2263)" fill="#080708" stroke="#080708" stroke-width="2"/>
<ellipse cx="14.9198" cy="15" rx="14.9198" ry="15" transform="matrix(0.996329 -0.0856094 0.0886936 0.996059 771.035 126.597)" fill="#080708" stroke="#080708" stroke-width="2"/>
<rect width="20.8494" height="20" transform="matrix(0.984537 -0.175177 0.172128 0.985075 732.18 98.9492)" fill="#080708" stroke="#080708" stroke-width="2"/>
<rect width="30.2316" height="29" transform="matrix(0.965523 -0.260318 0.257328 0.966324 773.802 73.5752)" fill="#080708" stroke="#080708" stroke-width="2"/>
<rect width="28.1467" height="27" transform="matrix(0.996058 -0.0887019 0.0856177 0.996328 424.31 111.872)" fill="#080708" stroke="#080708" stroke-width="2"/>
<ellipse cx="13.4278" cy="13.5" rx="13.4278" ry="13.5" transform="matrix(0.905651 0.424024 -0.421219 0.906959 531.373 128.403)" fill="#080708" stroke="#080708" stroke-width="2"/>
<path d="M591.06 160.376L586.725 185.182L567.536 168.979L591.06 160.376Z" fill="#080708" stroke="#080708" stroke-width="2"/>
<ellipse cx="10.4438" cy="10.5" rx="10.4438" ry="10.5" transform="matrix(0.965523 0.260318 -0.257328 0.966324 695.812 128.024)" fill="#080708" stroke="#080708" stroke-width="2"/>
<path d="M817.381 168.917L818.921 186.215L803.246 178.847L817.381 168.917Z" fill="#080708" stroke="#080708" stroke-width="2"/>
<ellipse cx="11.4385" cy="11.5" rx="11.4385" ry="11.5" transform="matrix(0.985076 -0.172119 0.175168 0.984538 428.589 162.299)" fill="#080708" stroke="#080708" stroke-width="2"/>
<ellipse cx="11.9358" cy="12" rx="11.9358" ry="12" transform="matrix(0.999999 0.00155213 0.00154382 0.999999 348.048 155.48)" fill="#080708" stroke="#080708" stroke-width="2"/>
<path d="M483.394 213.265L472.421 236.891L457.585 215.563L483.394 213.265Z" fill="#080708" stroke="#080708" stroke-width="2"/>
<ellipse cx="10.9412" cy="11" rx="10.9412" ry="11" transform="matrix(0.865248 0.501344 -0.498662 0.866796 638.517 213.396)" fill="#080708" stroke="#080708" stroke-width="2"/>
<ellipse cx="12.4331" cy="12.5" rx="12.4331" ry="12.5" transform="matrix(0.939161 0.343478 -0.340569 0.94022 770.512 239.527)" fill="#080708" stroke="#080708" stroke-width="2"/>
<path d="M684.979 206.273L685.02 232.323L662.56 219.263L684.979 206.273Z" fill="#080708" stroke="#080708" stroke-width="2"/>
<path d="M551.716 209.974L557.432 230.916L536.519 225.313L551.716 209.974Z" fill="#080708" stroke="#080708" stroke-width="2"/>
<ellipse cx="11.9358" cy="12" rx="11.9358" ry="12" transform="matrix(0.965523 0.260318 -0.257328 0.966324 836.319 179.124)" fill="#080708" stroke="#080708" stroke-width="2"/>
<rect x="146" y="216.403" width="10" height="100" fill="var(--highlight)" stroke="#080708" stroke-width="2"/>
<path d="M231 266.403C231 263.641 233.239 261.403 236 261.403H246V271.403H236C233.239 271.403 231 269.164 231 266.403V266.403Z" fill="#080708" stroke="#080708" stroke-width="2"/>
<rect x="241" y="261.403" width="30" height="10" rx="5" fill="var(--highlight)" stroke="#080708" stroke-width="2"/>
<rect width="21.4663" height="20.5917" transform="matrix(0.965523 -0.260318 0.257328 0.966324 577 253.991)" fill="#F5EEEB" stroke="#080708" stroke-width="2"/>
<path d="M489.62 120.865L487.835 141.628L470.846 129.654L489.62 120.865Z" fill="#F5EEEB" stroke="#080708" stroke-width="2"/>
<path d="M429.336 41.7197L423.303 64.3755L406.82 47.7903L429.336 41.7197Z" fill="#F5EEEB" stroke="#080708" stroke-width="2"/>
<path d="M520.764 74.7546L526.641 96.5532L504.91 90.6581L520.764 74.7546Z" fill="#F5EEEB" stroke="#080708" stroke-width="2"/>
<ellipse cx="14.4225" cy="14.5" rx="14.4225" ry="14.5" transform="matrix(0.965523 0.260318 -0.257328 0.966324 621.834 12.2236)" fill="#F5EEEB" stroke="#080708" stroke-width="2"/>
<path d="M757.591 4.42938L757.618 21.7962L742.645 13.0896L757.591 4.42938Z" fill="#F5EEEB" stroke="#080708" stroke-width="2"/>
<path d="M837.971 1.09327L828.927 16.9276L819.833 1.17757L837.971 1.09327Z" fill="#F5EEEB" stroke="#080708" stroke-width="2"/>
<ellipse cx="12.4331" cy="12.5" rx="12.4331" ry="12.5" transform="matrix(0.765046 0.643976 -0.641604 0.767036 358.356 90.9773)" fill="#F5EEEB" stroke="#080708" stroke-width="2"/>
<ellipse cx="12.4331" cy="12.5" rx="12.4331" ry="12.5" transform="matrix(0.865248 0.501344 -0.498662 0.866796 562.467 58.4026)" fill="#F5EEEB" stroke="#080708" stroke-width="2"/>
<rect width="28.1467" height="27" transform="matrix(0.707107 -0.707107 0.704914 0.709293 517 44.3052)" fill="#F5EEEB" stroke="#080708" stroke-width="2"/>
<rect width="30.2316" height="29" transform="matrix(0.965926 -0.258819 0.255827 0.966723 609.92 157.253)" fill="#F5EEEB" stroke="#080708" stroke-width="2"/>
<rect width="21.8919" height="21" transform="matrix(0.996329 0.0856094 -0.0886936 0.996059 717.26 32.8875)" fill="#F5EEEB" stroke="#080708" stroke-width="2"/>
<path d="M864.453 56.2137L864.484 76.1856L847.265 66.1729L864.453 56.2137Z" fill="#F5EEEB" stroke="#080708" stroke-width="2"/>
<rect width="23.9768" height="23" transform="matrix(0.965523 -0.260318 0.257328 0.966324 379.929 108.575)" fill="#F5EEEB" stroke="#080708" stroke-width="2"/>
<path d="M481.19 58.5744L474.933 82.0692L457.84 64.8698L481.19 58.5744Z" fill="#F5EEEB" stroke="#080708" stroke-width="2"/>
<ellipse cx="14.9198" cy="15" rx="14.9198" ry="15" transform="matrix(0.939161 0.343478 -0.340569 0.94022 640.684 86.2263)" fill="#F5EEEB" stroke="#080708" stroke-width="2"/>
<ellipse cx="14.9198" cy="15" rx="14.9198" ry="15" transform="matrix(0.996329 -0.0856094 0.0886936 0.996059 771.035 122.597)" fill="#F5EEEB" stroke="#080708" stroke-width="2"/>
<rect width="20.8494" height="20" transform="matrix(0.984537 -0.175177 0.172128 0.985075 732.18 94.9492)" fill="#F5EEEB" stroke="#080708" stroke-width="2"/>
<rect width="30.2316" height="29" transform="matrix(0.965523 -0.260318 0.257328 0.966324 773.802 69.5752)" fill="#F5EEEB" stroke="#080708" stroke-width="2"/>
<rect width="28.1467" height="27" transform="matrix(0.996058 -0.0887019 0.0856177 0.996328 424.31 107.872)" fill="#F5EEEB" stroke="#080708" stroke-width="2"/>
<ellipse cx="13.4278" cy="13.5" rx="13.4278" ry="13.5" transform="matrix(0.905651 0.424024 -0.421219 0.906959 531.373 124.403)" fill="#F5EEEB" stroke="#080708" stroke-width="2"/>
<path d="M591.06 156.376L586.725 181.182L567.536 164.979L591.06 156.376Z" fill="#F5EEEB" stroke="#080708" stroke-width="2"/>
<ellipse cx="10.4438" cy="10.5" rx="10.4438" ry="10.5" transform="matrix(0.965523 0.260318 -0.257328 0.966324 695.812 124.024)" fill="#F5EEEB" stroke="#080708" stroke-width="2"/>
<path d="M817.381 164.917L818.921 182.215L803.246 174.847L817.381 164.917Z" fill="#F5EEEB" stroke="#080708" stroke-width="2"/>
<ellipse cx="11.4385" cy="11.5" rx="11.4385" ry="11.5" transform="matrix(0.985076 -0.172119 0.175168 0.984538 428.589 158.299)" fill="#F5EEEB" stroke="#080708" stroke-width="2"/>
<ellipse cx="11.9358" cy="12" rx="11.9358" ry="12" transform="matrix(0.999999 0.00155213 0.00154382 0.999999 348.048 151.48)" fill="#F5EEEB" stroke="#080708" stroke-width="2"/>
<path d="M483.394 209.265L472.421 232.891L457.585 211.563L483.394 209.265Z" fill="#F5EEEB" stroke="#080708" stroke-width="2"/>
<ellipse cx="10.9412" cy="11" rx="10.9412" ry="11" transform="matrix(0.865248 0.501344 -0.498662 0.866796 638.517 209.396)" fill="#F5EEEB" stroke="#080708" stroke-width="2"/>
<ellipse cx="12.4331" cy="12.5" rx="12.4331" ry="12.5" transform="matrix(0.939161 0.343478 -0.340569 0.94022 770.512 235.527)" fill="#F5EEEB" stroke="#080708" stroke-width="2"/>
<path d="M684.979 202.273L685.02 228.323L662.56 215.263L684.979 202.273Z" fill="#F5EEEB" stroke="#080708" stroke-width="2"/>
<path d="M551.716 205.974L557.432 226.916L536.519 221.313L551.716 205.974Z" fill="#F5EEEB" stroke="#080708" stroke-width="2"/>
<ellipse cx="11.9358" cy="12" rx="11.9358" ry="12" transform="matrix(0.965523 0.260318 -0.257328 0.966324 836.319 175.124)" fill="#F5EEEB" stroke="#080708" stroke-width="2"/>
<circle cx="3" cy="3" r="3" transform="matrix(1 0 0.00309595 0.999995 574 340.403)" fill="#080708" stroke="#080708" stroke-width="2"/>
<rect x="577" y="338.403" width="15" height="10" fill="#080708" stroke="#080708" stroke-width="2"/>
<rect x="592" y="338.403" width="35" height="10" fill="var(--highlight)" stroke="#080708" stroke-width="2"/>
<rect x="597" y="343.403" width="25" height="4" fill="#080708"/>
<path d="M699 332.403C699 330.193 700.791 328.403 703 328.403H755C757.209 328.403 759 330.193 759 332.403V345.403H699V332.403Z" fill="#080708" stroke="#080708" stroke-width="2"/>
<rect x="697" y="344.403" width="64" height="6" rx="3" fill="var(--highlight)" stroke="#080708" stroke-width="2"/>
<circle cx="3" cy="3" r="3" transform="matrix(0.965926 0.258819 -0.255827 0.966722 617.071 327.334)" fill="#080708" stroke="#080708" stroke-width="2"/>
<rect x="620.486" y="326.179" width="15" height="10" transform="rotate(15 620.486 326.179)" fill="#080708" stroke="#080708" stroke-width="2"/>
<rect x="634.975" y="330.061" width="35" height="10" transform="rotate(15 634.975 330.061)" fill="var(--highlight)" stroke="#080708" stroke-width="2"/>
<rect x="639.546" y="332.321" width="25" height="4" transform="rotate(15 639.546 332.321)" fill="#080708"/>
<path d="M737 332.403C737 331.298 737.895 330.403 739 330.403H755C756.105 330.403 757 331.298 757 332.403V345.403H737V332.403Z" fill="#080708" stroke="var(--highlight)" stroke-width="2"/>
<rect x="733" y="344.403" width="28" height="6" rx="3" fill="var(--highlight)" stroke="#080708" stroke-width="2"/>
<rect x="823" y="303.167" width="30" height="30" transform="rotate(-15 823 303.167)" fill="var(--highlight)" stroke="#080708" stroke-width="2"/>
<path d="M830.418 311.532L849.736 306.356" stroke="#080708" stroke-width="2"/>
<path d="M831.712 316.362L851.03 311.186" stroke="#080708" stroke-width="2"/>
<path d="M833.006 321.192L842.665 318.603" stroke="#080708" stroke-width="2"/>
<rect x="845.136" y="276.403" width="30" height="30" transform="rotate(15 845.136 276.403)" fill="var(--highlight)" stroke="#080708" stroke-width="2"/>
<rect x="798" y="263.612" width="30" height="30" transform="rotate(-10 798 263.612)" fill="var(--highlight)" stroke="#080708" stroke-width="2"/>
<path d="M804.661 272.592L824.357 269.119" stroke="#080708" stroke-width="2"/>
<path d="M805.529 277.516L825.225 274.043" stroke="#080708" stroke-width="2"/>
<path d="M806.397 282.44L816.245 280.703" stroke="#080708" stroke-width="2"/>
<rect x="837" y="277.403" width="30" height="30" transform="rotate(-30 837 277.403)" fill="var(--highlight)" stroke="#080708" stroke-width="2"/>
<path d="M846.33 283.563L863.651 273.563" stroke="#080708" stroke-width="2"/>
<path d="M848.83 287.893L866.151 277.893" stroke="#080708" stroke-width="2"/>
<path d="M851.33 292.223L859.99 287.223" stroke="#080708" stroke-width="2"/>
<path d="M0 414H880" stroke="#080708" stroke-width="2"/>
</g>
<defs>
<clipPath id="clip0_74_6452">
<rect width="880" height="415" fill="white"/>
</clipPath>
</defs>
</svg>
