<svg width="880" height="394" viewBox="0 0 880 394" fill="none" xmlns="http://www.w3.org/2000/svg">
<g clip-path="url(#clip0_589_18186)">
<path d="M782.956 34.7646C785.1 42.7665 780.351 50.9916 772.349 53.1357C764.347 55.2799 756.122 50.5311 753.978 42.5291L725 50.2937L758.646 175.864L787.624 168.099C785.48 160.097 790.229 151.872 798.231 149.728C806.233 147.584 814.458 152.333 816.602 160.335L845.58 152.57L811.933 27L782.956 34.7646Z" fill="#F5EEEB" stroke="#080708"/>
<g clip-path="url(#clip1_589_18186)">
<ellipse cx="791.414" cy="121.124" rx="15.3543" ry="4.08" transform="rotate(-15 791.414 121.124)" fill="#080708"/>
<path d="M776.951 90.0534C775.87 86.0027 776.925 81.4996 780.116 78.3181C783.308 75.1367 787.825 74.0844 791.888 75.1628C792.97 79.2135 791.914 83.7167 788.723 86.8981C785.532 90.0795 781.015 91.1318 776.951 90.0534Z" fill="#C64677" stroke="#080708"/>
<path d="M782.07 84.4129C782.964 86.4792 783.034 88.2793 782.066 89.2443C781.098 90.209 779.293 90.1398 777.222 89.2489C776.327 87.1827 776.258 85.3826 777.226 84.4176C778.193 83.4529 779.998 83.5221 782.07 84.4129Z" fill="#080708"/>
<path d="M774.96 79.8909L769.83 81.2655C769.981 86.4587 774.249 90.6172 779.497 90.6125C775.66 88.4065 773.918 83.9735 774.96 79.8909Z" fill="#C64677" stroke="#080708"/>
<path d="M759.066 101.156C759.073 96.9625 761.261 92.8831 765.168 90.632C769.075 88.381 773.709 88.5296 777.352 90.6201C777.345 94.8137 775.157 98.8931 771.25 101.144C767.343 103.395 762.709 103.247 759.066 101.156Z" fill="#C64677" stroke="#080708"/>
<path d="M780.791 90.8291C779.986 94.9245 777.475 98.6667 773.565 100.92C769.654 103.173 765.151 103.472 761.195 102.12C762 98.0245 764.51 94.2822 768.421 92.029C772.332 89.7758 776.835 89.4769 780.791 90.8291Z" fill="#080708"/>
<path d="M777.488 90.5888C777.939 87.4468 779.377 84.417 781.803 81.9983C787.755 76.0646 797.397 76.0561 803.338 81.9793C814.033 92.641 809.594 114.352 805.46 118.474C801.334 122.587 779.643 127.002 768.923 116.43C768.899 116.407 768.876 116.383 768.852 116.36C762.911 110.437 762.919 100.825 768.871 94.8909C771.297 92.4723 774.336 91.0381 777.488 90.5888Z" fill="#F5EEEB" stroke="#080708"/>
<path d="M794.857 105.603C794.859 103.106 794.243 100.649 793.065 98.448C791.886 96.2474 790.181 94.3714 788.1 92.9862C786.019 91.6011 783.627 90.7496 781.135 90.5071C778.643 90.2646 776.129 90.6386 773.814 91.596C771.5 92.5534 769.457 94.0647 767.867 95.9959C766.276 97.9271 765.188 100.219 764.697 102.668C764.206 105.117 764.329 107.647 765.053 110.036C765.778 112.424 767.083 114.596 768.852 116.36" stroke="#080708"/>
<path d="M778.543 116.351C777.353 117.538 775.424 117.54 774.236 116.355C773.048 115.171 773.049 113.248 774.24 112.061" stroke="#080708"/>
<path d="M774.24 112.061L805.493 80.9038" stroke="#080708"/>
<path d="M789.311 115.268L793.622 110.971L795.773 113.116C796.962 114.3 796.96 116.223 795.77 117.409C794.579 118.596 792.651 118.598 791.463 117.413L789.311 115.268Z" fill="#F5EEEB" stroke="#080708"/>
<path d="M793.622 110.971L797.933 106.673L800.084 108.818C801.273 110.003 801.271 111.925 800.081 113.112C798.89 114.299 796.962 114.3 795.774 113.116L793.622 110.971Z" fill="#F5EEEB" stroke="#080708"/>
<path d="M797.933 106.673L802.243 102.375L804.395 104.52C805.583 105.705 805.582 107.627 804.391 108.814C803.201 110.001 801.272 110.003 800.084 108.818L797.933 106.673Z" fill="#F5EEEB" stroke="#080708"/>
<ellipse cx="4.56528" cy="4.5572" rx="4.56528" ry="4.5572" transform="matrix(0.70819 -0.706022 0.708192 0.70602 790.95 88.9678)" fill="#F5EEEB" stroke="#080708"/>
<ellipse cx="4.56528" cy="4.5572" rx="4.56528" ry="4.5572" transform="matrix(0.70819 -0.706022 0.708192 0.70602 778.017 101.86)" fill="#F5EEEB" stroke="#080708"/>
</g>
<path d="M849.602 116.529C847.458 124.531 839.233 129.28 831.231 127.136C823.229 124.992 818.48 116.767 820.624 108.765L791.646 101L758 226.57L786.978 234.335C789.122 226.333 797.347 221.584 805.349 223.728C813.351 225.872 818.1 234.098 815.956 242.1L844.933 249.864L878.58 124.294L849.602 116.529Z" fill="#F5EEEB" stroke="#080708"/>
<g clip-path="url(#clip2_589_18186)">
<ellipse cx="813.748" cy="195.548" rx="15.3543" ry="4.08" transform="rotate(15 813.748 195.548)" fill="#080708"/>
<path d="M816.758 161.409C817.847 157.36 821.012 153.988 825.367 152.828C829.721 151.668 834.159 153.016 837.139 155.981C836.05 160.03 832.884 163.402 828.53 164.562C824.176 165.721 819.738 164.374 816.758 161.409Z" fill="#C64677" stroke="#080708"/>
<path d="M824.011 159.083C823.753 161.32 822.913 162.914 821.592 163.265C820.272 163.617 818.743 162.655 817.395 160.847C817.653 158.611 818.493 157.017 819.814 156.665C821.134 156.313 822.663 157.276 824.011 159.083Z" fill="#080708"/>
<path d="M820.115 151.612L814.985 150.237C812.519 154.811 814.137 160.546 818.683 163.166C816.464 159.337 817.171 154.627 820.115 151.612Z" fill="#C64677" stroke="#080708"/>
<path d="M795.718 162.081C797.821 158.453 801.756 156.014 806.265 156.018C810.774 156.022 814.713 158.468 816.822 162.1C814.719 165.728 810.784 168.167 806.275 168.163C801.766 168.159 797.827 165.713 795.718 162.081Z" fill="#C64677" stroke="#080708"/>
<path d="M819.696 164C816.951 167.145 812.906 169.13 808.392 169.126C803.879 169.122 799.83 167.129 797.08 163.98C799.824 160.836 803.87 158.85 808.383 158.854C812.897 158.858 816.946 160.851 819.696 164Z" fill="#080708"/>
<path d="M816.955 162.141C818.917 159.645 821.677 157.74 824.988 156.859C833.109 154.696 841.463 159.509 843.647 167.61C847.578 182.19 832.878 198.774 827.237 200.276C821.607 201.775 800.615 194.753 796.617 180.238C796.608 180.206 796.6 180.173 796.591 180.141C794.407 172.041 799.22 163.721 807.342 161.558C810.652 160.677 814.001 160.954 816.955 162.141Z" fill="#F5EEEB" stroke="#080708"/>
<path d="M824.49 183.827C825.74 181.666 826.436 179.23 826.516 176.735C826.595 174.24 826.057 171.763 824.947 169.523C823.838 167.283 822.191 165.349 820.155 163.893C818.118 162.437 815.753 161.504 813.27 161.176C810.787 160.848 808.262 161.135 805.92 162.013C803.577 162.89 801.488 164.33 799.839 166.206C798.189 168.081 797.03 170.334 796.463 172.765C795.897 175.196 795.941 177.729 796.591 180.141" stroke="#080708"/>
<path d="M804.988 184.979C803.363 185.412 801.692 184.449 801.256 182.829C800.819 181.209 801.782 179.545 803.406 179.112" stroke="#080708"/>
<path d="M803.406 179.112L846.051 167.756" stroke="#080708"/>
<path d="M814.855 189.425L820.737 187.859L821.527 190.792C821.964 192.412 821.001 194.076 819.377 194.509C817.753 194.941 816.082 193.979 815.645 192.359L814.855 189.425Z" fill="#F5EEEB" stroke="#080708"/>
<path d="M820.737 187.859L826.619 186.292L827.41 189.226C827.846 190.846 826.884 192.51 825.26 192.942C823.635 193.375 821.964 192.412 821.528 190.792L820.737 187.859Z" fill="#F5EEEB" stroke="#080708"/>
<path d="M826.619 186.292L832.501 184.726L833.292 187.659C833.728 189.279 832.766 190.943 831.141 191.376C829.517 191.808 827.846 190.846 827.41 189.226L826.619 186.292Z" fill="#F5EEEB" stroke="#080708"/>
<ellipse cx="4.56528" cy="4.5572" rx="4.56528" ry="4.5572" transform="matrix(0.966322 -0.257337 0.260303 0.965527 829.424 167.468)" fill="#F5EEEB" stroke="#080708"/>
<ellipse cx="4.56528" cy="4.5572" rx="4.56528" ry="4.5572" transform="matrix(0.966322 -0.257337 0.260303 0.965527 811.778 172.167)" fill="#F5EEEB" stroke="#080708"/>
</g>
<path d="M636.088 6.20941C637.527 14.3678 632.079 22.1477 623.921 23.5862C615.763 25.0248 607.983 19.5773 606.544 11.4189L577 16.6283L599.574 144.653L629.118 139.444C627.68 131.285 633.127 123.506 641.286 122.067C649.444 120.628 657.224 126.076 658.663 134.234L688.207 129.025L665.633 0.99996L636.088 6.20941Z" fill="#F5EEEB" stroke="#080708"/>
<g clip-path="url(#clip3_589_18186)">
<ellipse cx="636.988" cy="92.9771" rx="15.3543" ry="4.08" transform="rotate(-10 636.988 92.9771)" fill="#080708"/>
<path d="M625.288 60.7646C624.564 56.635 626.008 52.241 629.464 49.3498C632.92 46.4586 637.512 45.804 641.465 47.2324C642.19 51.362 640.746 55.756 637.29 58.6472C633.833 61.5384 629.242 62.193 625.288 60.7646Z" fill="#C64677" stroke="#080708"/>
<path d="M630.879 55.5917C631.59 57.728 631.503 59.5273 630.454 60.4043C629.406 61.2809 627.614 61.0547 625.628 59.9867C624.917 57.8504 625.004 56.051 626.053 55.1741C627.101 54.2974 628.893 54.5237 630.879 55.5917Z" fill="#080708"/>
<path d="M624.19 50.4671L618.96 51.3894C618.658 56.5761 622.548 61.0907 627.775 61.5434C624.146 59.0114 622.796 54.4434 624.19 50.4671Z" fill="#C64677" stroke="#080708"/>
<path d="M606.504 70.2663C606.876 66.0893 609.412 62.2161 613.5 60.3141C617.588 58.4121 622.192 58.964 625.639 61.3641C625.266 65.5412 622.731 69.4143 618.642 71.3163C614.554 73.2183 609.951 72.6664 606.504 70.2663Z" fill="#C64677" stroke="#080708"/>
<path d="M629.046 61.8719C627.887 65.8816 625.06 69.3908 620.968 71.2946C616.876 73.1984 612.364 73.1037 608.54 71.4118C609.699 67.4022 612.526 63.893 616.619 61.9892C620.711 60.0854 625.223 60.1801 629.046 61.8719Z" fill="#080708"/>
<path d="M625.777 61.3448C626.499 58.254 628.197 55.3611 630.824 53.1631C637.271 47.7707 646.876 48.6025 652.279 55.021C662.003 66.5743 655.689 87.8161 651.211 91.562C646.743 95.2997 624.75 97.8072 614.992 86.3414C614.97 86.3161 614.949 86.2906 614.927 86.2651C609.525 79.8466 610.371 70.272 616.818 64.8796C619.445 62.6815 622.598 61.5177 625.777 61.3448Z" fill="#F5EEEB" stroke="#080708"/>
<path d="M641.77 77.8151C641.99 75.3283 641.591 72.8266 640.609 70.5316C639.627 68.2366 638.092 66.2191 636.139 64.6579C634.187 63.0966 631.878 62.0398 629.417 61.5811C626.955 61.1223 624.418 61.2758 622.029 62.0278C619.64 62.7799 617.473 64.1074 615.72 65.8926C613.968 67.6779 612.683 69.8659 611.981 72.2627C611.279 74.6596 611.18 77.1914 611.694 79.6338C612.208 82.0762 613.319 84.3539 614.927 86.2651" stroke="#080708"/>
<path d="M624.582 87.1012C623.293 88.1797 621.371 88.0133 620.291 86.7296C619.21 85.4459 619.38 83.531 620.669 82.4525" stroke="#080708"/>
<path d="M620.669 82.4524L654.519 54.1374" stroke="#080708"/>
<path d="M635.404 86.9608L640.073 83.0552L642.029 85.3796C643.109 86.6633 642.94 88.5782 641.651 89.6567C640.362 90.7352 638.441 90.5688 637.36 89.2851L635.404 86.9608Z" fill="#F5EEEB" stroke="#080708"/>
<path d="M640.073 83.0551L644.741 79.1496L646.698 81.4739C647.778 82.7576 647.609 84.6726 646.32 85.751C645.031 86.8295 643.109 86.6632 642.029 85.3795L640.073 83.0551Z" fill="#F5EEEB" stroke="#080708"/>
<path d="M644.741 79.1496L649.41 75.2441L651.367 77.5684C652.447 78.8521 652.278 80.767 650.989 81.8455C649.7 82.924 647.778 82.7576 646.698 81.4739L644.741 79.1496Z" fill="#F5EEEB" stroke="#080708"/>
<ellipse cx="4.56528" cy="4.5572" rx="4.56528" ry="4.5572" transform="matrix(0.767029 -0.641612 0.643964 0.765056 639.328 60.9031)" fill="#F5EEEB" stroke="#080708"/>
<ellipse cx="4.56528" cy="4.5572" rx="4.56528" ry="4.5572" transform="matrix(0.767029 -0.641612 0.643964 0.765056 625.321 72.6194)" fill="#F5EEEB" stroke="#080708"/>
</g>
<path d="M734.962 100C730.819 107.174 721.646 109.633 714.471 105.49C707.297 101.348 704.839 92.1744 708.981 85L683 70L618 182.583L643.981 197.583C648.123 190.409 657.297 187.951 664.471 192.093C671.646 196.235 674.104 205.409 669.962 212.583L695.942 227.583L760.942 115L734.962 100Z" fill="#F5EEEB" stroke="#080708"/>
<g clip-path="url(#clip4_589_18186)">
<ellipse cx="679.877" cy="167.046" rx="15.3543" ry="4.08" transform="rotate(30 679.877 167.046)" fill="#080708"/>
<path d="M691.621 134.85C693.72 131.221 697.651 128.783 702.157 128.79C706.663 128.797 710.601 131.246 712.712 134.882C710.612 138.511 706.682 140.949 702.176 140.942C697.669 140.935 693.731 138.485 691.621 134.85Z" fill="#C64677" stroke="#080708"/>
<path d="M699.229 134.481C698.4 136.574 697.177 137.896 695.81 137.894C694.443 137.892 693.216 136.567 692.381 134.472C693.21 132.379 694.433 131.056 695.8 131.058C697.166 131.061 698.394 132.386 699.229 134.481Z" fill="#080708"/>
<path d="M697.399 126.256L692.8 123.6C689.234 127.379 689.312 133.338 693.026 137.045C691.873 132.772 693.775 128.406 697.399 126.256Z" fill="#C64677" stroke="#080708"/>
<path d="M671.124 130.054C674.094 127.094 678.526 125.756 682.88 126.927C687.235 128.098 690.406 131.48 691.504 135.534C688.534 138.494 684.102 139.832 679.747 138.661C675.393 137.49 672.221 134.108 671.124 130.054Z" fill="#C64677" stroke="#080708"/>
<path d="M693.788 138.113C690.323 140.44 685.901 141.311 681.543 140.139C677.184 138.967 673.789 135.994 671.947 132.24C675.412 129.914 679.834 129.043 684.192 130.215C688.551 131.387 691.946 134.36 693.788 138.113Z" fill="#080708"/>
<path d="M691.622 135.608C694.162 133.705 697.322 132.58 700.748 132.585C709.152 132.598 715.976 139.409 715.989 147.799C716.012 162.9 697.521 175.114 691.683 175.105C685.857 175.096 667.398 162.88 667.293 147.824C667.293 147.791 667.293 147.758 667.293 147.724C667.28 139.335 674.082 132.544 682.487 132.557C685.913 132.562 689.076 133.697 691.622 135.608Z" fill="#F5EEEB" stroke="#080708"/>
<path d="M693.287 158.505C695.054 156.742 696.356 154.569 697.079 152.179C697.802 149.79 697.923 147.258 697.431 144.807C696.939 142.356 695.849 140.062 694.259 138.129C692.668 136.195 690.625 134.682 688.312 133.722C685.998 132.763 683.485 132.387 680.995 132.628C678.505 132.869 676.115 133.719 674.036 135.104C671.957 136.489 670.255 138.365 669.078 140.566C667.902 142.767 667.289 145.226 667.292 147.724" stroke="#080708"/>
<path d="M674.151 154.571C672.47 154.568 671.105 153.206 671.103 151.528C671.1 149.85 672.461 148.492 674.142 148.494" stroke="#080708"/>
<path d="M674.142 148.494L718.273 148.562" stroke="#080708"/>
<path d="M682.531 161.419L688.618 161.428L688.623 164.467C688.625 166.144 687.265 167.503 685.584 167.5C683.903 167.497 682.538 166.135 682.536 164.457L682.531 161.419Z" fill="#F5EEEB" stroke="#080708"/>
<path d="M688.618 161.428L694.705 161.438L694.71 164.476C694.712 166.154 693.352 167.512 691.671 167.509C689.99 167.507 688.625 166.144 688.623 164.466L688.618 161.428Z" fill="#F5EEEB" stroke="#080708"/>
<path d="M694.705 161.438L700.792 161.447L700.797 164.485C700.8 166.163 699.439 167.521 697.758 167.519C696.077 167.516 694.713 166.154 694.71 164.476L694.705 161.438Z" fill="#F5EEEB" stroke="#080708"/>
<ellipse cx="4.56528" cy="4.5572" rx="4.56528" ry="4.5572" transform="matrix(0.999999 0.00153359 0.00153633 0.999999 702.287 143.98)" fill="#F5EEEB" stroke="#080708"/>
<ellipse cx="4.56528" cy="4.5572" rx="4.56528" ry="4.5572" transform="matrix(0.999999 0.00153354 0.00153624 0.999999 684.026 143.952)" fill="#F5EEEB" stroke="#080708"/>
</g>
<path d="M696.602 234.529C694.458 242.531 686.233 247.28 678.231 245.136C670.229 242.992 665.48 234.767 667.624 226.765L638.646 219L605 344.57L633.978 352.335C636.122 344.333 644.347 339.584 652.349 341.728C660.351 343.872 665.1 352.098 662.956 360.099L691.933 367.864L725.58 242.294L696.602 234.529Z" fill="#F5EEEB" stroke="#080708"/>
<g clip-path="url(#clip5_589_18186)">
<ellipse cx="660.748" cy="313.548" rx="15.3543" ry="4.08" transform="rotate(15 660.748 313.548)" fill="#080708"/>
<path d="M663.758 279.409C664.847 275.36 668.012 271.988 672.367 270.828C676.721 269.668 681.159 271.016 684.139 273.981C683.05 278.03 679.884 281.402 675.53 282.562C671.176 283.721 666.738 282.374 663.758 279.409Z" fill="#C64677" stroke="#080708"/>
<path d="M671.011 277.083C670.753 279.32 669.913 280.914 668.592 281.265C667.272 281.617 665.743 280.655 664.395 278.847C664.653 276.611 665.493 275.017 666.814 274.665C668.134 274.313 669.663 275.276 671.011 277.083Z" fill="#080708"/>
<path d="M667.115 269.612L661.985 268.237C659.519 272.811 661.137 278.546 665.683 281.166C663.464 277.337 664.171 272.627 667.115 269.612Z" fill="#C64677" stroke="#080708"/>
<path d="M642.718 280.081C644.821 276.453 648.756 274.014 653.265 274.018C657.774 274.022 661.713 276.468 663.822 280.1C661.719 283.728 657.784 286.167 653.275 286.163C648.766 286.159 644.827 283.713 642.718 280.081Z" fill="#C64677" stroke="#080708"/>
<path d="M666.696 282C663.951 285.145 659.906 287.13 655.392 287.126C650.879 287.122 646.83 285.129 644.08 281.98C646.824 278.836 650.87 276.85 655.383 276.854C659.897 276.858 663.946 278.851 666.696 282Z" fill="#080708"/>
<path d="M663.955 280.141C665.917 277.645 668.677 275.74 671.988 274.859C680.109 272.696 688.463 277.509 690.647 285.61C694.578 300.19 679.878 316.774 674.237 318.276C668.607 319.775 647.615 312.753 643.617 298.238C643.608 298.206 643.6 298.173 643.591 298.141C641.407 290.041 646.22 281.721 654.342 279.558C657.652 278.677 661.001 278.954 663.955 280.141Z" fill="#F5EEEB" stroke="#080708"/>
<path d="M671.49 301.827C672.74 299.666 673.436 297.23 673.516 294.735C673.595 292.24 673.057 289.763 671.947 287.523C670.838 285.283 669.191 283.349 667.155 281.893C665.118 280.437 662.753 279.504 660.27 279.176C657.787 278.848 655.262 279.135 652.92 280.013C650.577 280.89 648.488 282.33 646.839 284.206C645.189 286.081 644.03 288.334 643.463 290.765C642.897 293.196 642.941 295.729 643.591 298.141" stroke="#080708"/>
<path d="M651.988 302.979C650.363 303.412 648.692 302.449 648.256 300.829C647.819 299.209 648.782 297.545 650.406 297.112" stroke="#080708"/>
<path d="M650.406 297.112L693.051 285.756" stroke="#080708"/>
<path d="M661.855 307.425L667.737 305.859L668.527 308.792C668.964 310.412 668.001 312.076 666.377 312.509C664.753 312.941 663.082 311.979 662.645 310.359L661.855 307.425Z" fill="#F5EEEB" stroke="#080708"/>
<path d="M667.737 305.859L673.619 304.292L674.41 307.226C674.846 308.846 673.884 310.51 672.26 310.942C670.635 311.375 668.964 310.412 668.528 308.792L667.737 305.859Z" fill="#F5EEEB" stroke="#080708"/>
<path d="M673.619 304.292L679.501 302.726L680.292 305.659C680.728 307.279 679.766 308.943 678.141 309.376C676.517 309.808 674.846 308.846 674.41 307.226L673.619 304.292Z" fill="#F5EEEB" stroke="#080708"/>
<ellipse cx="4.56528" cy="4.5572" rx="4.56528" ry="4.5572" transform="matrix(0.966322 -0.257337 0.260303 0.965527 676.424 285.468)" fill="#F5EEEB" stroke="#080708"/>
<ellipse cx="4.56528" cy="4.5572" rx="4.56528" ry="4.5572" transform="matrix(0.966322 -0.257337 0.260303 0.965527 658.778 290.167)" fill="#F5EEEB" stroke="#080708"/>
</g>
<path d="M843.319 228.357C839.818 235.865 830.893 239.114 823.385 235.612C815.877 232.111 812.629 223.187 816.13 215.679L788.94 203L734 320.82L761.189 333.499C764.69 325.99 773.615 322.742 781.123 326.243C788.631 329.744 791.88 338.669 788.379 346.177L815.568 358.856L870.508 241.036L843.319 228.357Z" fill="#F5EEEB" stroke="#080708"/>
<g clip-path="url(#clip6_589_18186)">
<ellipse cx="794.288" cy="299.949" rx="15.3543" ry="4.08" transform="rotate(25 794.288 299.949)" fill="#080708"/>
<path d="M803.181 266.852C804.956 263.053 808.659 260.282 813.149 259.896C817.638 259.51 821.775 261.608 824.194 265.046C822.419 268.844 818.716 271.615 814.226 272.001C809.737 272.387 805.6 270.289 803.181 266.852Z" fill="#C64677" stroke="#080708"/>
<path d="M810.728 265.821C810.085 267.979 808.981 269.402 807.619 269.519C806.258 269.636 804.92 268.423 803.905 266.409C804.548 264.251 805.652 262.828 807.014 262.711C808.375 262.594 809.713 263.807 810.728 265.821Z" fill="#080708"/>
<path d="M808.188 257.787L803.374 255.542C800.152 259.618 800.749 265.547 804.771 268.916C803.25 264.76 804.765 260.244 808.188 257.787Z" fill="#C64677" stroke="#080708"/>
<path d="M782.343 263.86C785.044 260.653 789.343 258.934 793.783 259.721C798.222 260.508 801.677 263.6 803.124 267.544C800.423 270.751 796.124 272.47 791.684 271.683C787.244 270.896 783.79 267.803 782.343 263.86Z" fill="#C64677" stroke="#080708"/>
<path d="M805.624 269.914C802.375 272.534 798.046 273.787 793.602 272.999C789.158 272.211 785.516 269.546 783.354 265.967C786.603 263.347 790.932 262.094 795.376 262.882C799.82 263.669 803.462 266.335 805.624 269.914Z" fill="#080708"/>
<path d="M803.248 267.607C805.613 265.49 808.662 264.093 812.075 263.8C820.449 263.08 827.84 269.271 828.584 277.628C829.924 292.669 812.568 306.448 806.751 306.948C800.947 307.447 781.493 296.886 780.076 281.897C780.073 281.864 780.07 281.831 780.067 281.797C779.323 273.441 785.508 266.083 793.882 265.364C797.295 265.07 800.545 265.925 803.248 267.607Z" fill="#F5EEEB" stroke="#080708"/>
<path d="M806.902 290.272C808.509 288.361 809.617 286.083 810.129 283.64C810.64 281.196 810.54 278.663 809.836 276.264C809.132 273.866 807.847 271.676 806.094 269.888C804.341 268.101 802.174 266.771 799.786 266.017C797.398 265.262 794.861 265.107 792.402 265.564C789.942 266.021 787.635 267.077 785.685 268.638C783.735 270.198 782.202 272.215 781.222 274.511C780.242 276.806 779.845 279.309 780.067 281.797" stroke="#080708"/>
<path d="M787.496 288.02C785.821 288.164 784.343 286.926 784.194 285.254C784.045 283.583 785.282 282.112 786.957 281.968" stroke="#080708"/>
<path d="M786.957 281.968L830.926 278.189" stroke="#080708"/>
<path d="M796.441 294.112L802.505 293.591L802.775 296.617C802.924 298.288 801.687 299.76 800.012 299.904C798.337 300.048 796.859 298.809 796.71 297.138L796.441 294.112Z" fill="#F5EEEB" stroke="#080708"/>
<path d="M802.506 293.591L808.57 293.07L808.84 296.096C808.989 297.767 807.752 299.239 806.077 299.382C804.402 299.526 802.924 298.288 802.775 296.617L802.506 293.591Z" fill="#F5EEEB" stroke="#080708"/>
<path d="M808.571 293.07L814.635 292.548L814.905 295.574C815.054 297.246 813.817 298.717 812.142 298.861C810.467 299.005 808.989 297.767 808.84 296.096L808.571 293.07Z" fill="#F5EEEB" stroke="#080708"/>
<ellipse cx="4.56528" cy="4.5572" rx="4.56528" ry="4.5572" transform="matrix(0.996327 -0.0856279 0.0886861 0.99606 814.602 275.018)" fill="#F5EEEB" stroke="#080708"/>
<ellipse cx="4.56528" cy="4.5572" rx="4.56528" ry="4.5572" transform="matrix(0.996327 -0.085628 0.088686 0.99606 796.408 276.581)" fill="#F5EEEB" stroke="#080708"/>
</g>
<path d="M591.956 111.765C594.1 119.767 589.351 127.992 581.349 130.136C573.347 132.28 565.122 127.531 562.978 119.529L534 127.294L567.646 252.864L596.624 245.099C594.48 237.097 599.229 228.872 607.231 226.728C615.233 224.584 623.458 229.333 625.602 237.335L654.58 229.57L620.933 104L591.956 111.765Z" fill="#F5EEEB" stroke="#080708"/>
<g clip-path="url(#clip7_589_18186)">
<ellipse cx="600.414" cy="198.124" rx="15.3543" ry="4.08" transform="rotate(-15 600.414 198.124)" fill="#080708"/>
<path d="M585.951 167.053C584.87 163.003 585.925 158.5 589.116 155.318C592.308 152.137 596.825 151.084 600.888 152.163C601.97 156.214 600.914 160.717 597.723 163.898C594.532 167.08 590.015 168.132 585.951 167.053Z" fill="#C64677" stroke="#080708"/>
<path d="M591.07 161.413C591.964 163.479 592.034 165.279 591.066 166.244C590.098 167.209 588.293 167.14 586.222 166.249C585.327 164.183 585.258 162.383 586.226 161.418C587.193 160.453 588.998 160.522 591.07 161.413Z" fill="#080708"/>
<path d="M583.96 156.891L578.83 158.265C578.981 163.459 583.249 167.617 588.497 167.613C584.66 165.407 582.918 160.974 583.96 156.891Z" fill="#C64677" stroke="#080708"/>
<path d="M568.066 178.156C568.073 173.963 570.261 169.883 574.168 167.632C578.075 165.381 582.709 165.53 586.352 167.62C586.345 171.814 584.157 175.893 580.25 178.144C576.343 180.395 571.709 180.247 568.066 178.156Z" fill="#C64677" stroke="#080708"/>
<path d="M589.791 167.829C588.986 171.924 586.475 175.667 582.565 177.92C578.654 180.173 574.151 180.472 570.195 179.12C571 175.024 573.51 171.282 577.421 169.029C581.332 166.776 585.835 166.477 589.791 167.829Z" fill="#080708"/>
<path d="M586.488 167.589C586.939 164.447 588.377 161.417 590.803 158.998C596.755 153.065 606.397 153.056 612.338 158.979C623.033 169.641 618.594 191.352 614.46 195.474C610.334 199.587 588.643 204.002 577.923 193.43C577.899 193.407 577.876 193.383 577.852 193.36C571.911 187.437 571.919 177.825 577.871 171.891C580.297 169.472 583.336 168.038 586.488 167.589Z" fill="#F5EEEB" stroke="#080708"/>
<path d="M603.857 182.603C603.859 180.106 603.243 177.649 602.065 175.448C600.886 173.247 599.181 171.371 597.1 169.986C595.019 168.601 592.627 167.75 590.135 167.507C587.643 167.265 585.129 167.639 582.814 168.596C580.5 169.553 578.457 171.065 576.867 172.996C575.276 174.927 574.188 177.219 573.697 179.668C573.206 182.117 573.329 184.647 574.053 187.036C574.778 189.424 576.083 191.596 577.852 193.36" stroke="#080708"/>
<path d="M587.543 193.351C586.353 194.538 584.424 194.54 583.236 193.355C582.048 192.171 582.049 190.248 583.24 189.061" stroke="#080708"/>
<path d="M583.24 189.061L614.493 157.904" stroke="#080708"/>
<path d="M598.311 192.268L602.622 187.971L604.773 190.116C605.962 191.3 605.96 193.223 604.77 194.409C603.579 195.596 601.651 195.598 600.463 194.413L598.311 192.268Z" fill="#F5EEEB" stroke="#080708"/>
<path d="M602.622 187.971L606.933 183.673L609.084 185.818C610.273 187.003 610.271 188.925 609.081 190.112C607.89 191.299 605.962 191.3 604.774 190.116L602.622 187.971Z" fill="#F5EEEB" stroke="#080708"/>
<path d="M606.933 183.673L611.243 179.375L613.395 181.52C614.583 182.705 614.582 184.627 613.391 185.814C612.201 187.001 610.272 187.003 609.084 185.818L606.933 183.673Z" fill="#F5EEEB" stroke="#080708"/>
<ellipse cx="4.56528" cy="4.5572" rx="4.56528" ry="4.5572" transform="matrix(0.70819 -0.706022 0.708192 0.70602 599.95 165.968)" fill="#F5EEEB" stroke="#080708"/>
<ellipse cx="4.56528" cy="4.5572" rx="4.56528" ry="4.5572" transform="matrix(0.70819 -0.706022 0.708192 0.70602 587.017 178.86)" fill="#F5EEEB" stroke="#080708"/>
</g>
<rect x="407.719" y="16.1115" width="170" height="300" rx="24" transform="rotate(15 407.719 16.1115)" fill="#F5EEEB" stroke="#080708"/>
<rect x="407.719" y="16.1115" width="150" height="300" rx="24" transform="rotate(15 407.719 16.1115)" fill="#F5EEEB" stroke="#080708"/>
<rect x="414.791" y="28.3589" width="130" height="280" rx="16" transform="rotate(15 414.791 28.3589)" fill="#F5EEEB" stroke="#080708"/>
<rect x="393.016" y="298.943" width="32" height="2" rx="1" transform="rotate(15 393.016 298.943)" fill="#080708"/>
<circle cx="473.952" cy="58.7051" r="4" transform="rotate(15 473.952 58.7051)" fill="#080708" stroke="#080708"/>
<path d="M537.333 169.898C534.666 169.183 533.083 166.442 533.798 163.774L540.527 138.66C541.242 135.993 543.983 134.41 546.651 135.125L551.48 136.419L542.163 171.192L537.333 169.898Z" fill="#080708" stroke="#080708"/>
<rect x="538.299" y="170.157" width="36" height="8" rx="4" transform="rotate(-75 538.299 170.157)" fill="#F5EEEB" stroke="#080708"/>
<path d="M381.976 104.459C380.909 104.173 380.276 103.076 380.562 102.009L388.844 71.0998C389.13 70.0329 390.227 69.3997 391.294 69.6856L393.226 70.2032L383.908 104.977L381.976 104.459Z" fill="#080708" stroke="#080708"/>
<path d="M370.071 148.892C369.004 148.606 368.37 147.509 368.656 146.442L376.939 115.532C377.224 114.465 378.321 113.832 379.388 114.118L381.32 114.636L372.002 149.409L370.071 148.892Z" fill="#080708" stroke="#080708"/>
<path d="M470.501 121.528C468.357 129.53 460.132 134.279 452.13 132.135C444.128 129.99 439.379 121.765 441.523 113.763L412.545 105.999L378.899 231.569L407.877 239.334C410.021 231.332 418.246 226.583 426.248 228.727C434.25 230.871 438.999 239.096 436.854 247.098L465.832 254.863L499.479 129.292L470.501 121.528Z" fill="#F5EEEB" stroke="#080708"/>
<g clip-path="url(#clip8_589_18186)">
<ellipse cx="434.647" cy="200.546" rx="15.3543" ry="4.08" transform="rotate(15 434.647 200.546)" fill="#080708"/>
<path d="M437.657 166.407C438.745 162.359 441.911 158.986 446.266 157.827C450.62 156.667 455.058 158.014 458.037 160.98C456.949 165.029 453.783 168.401 449.429 169.561C445.074 170.72 440.637 169.373 437.657 166.407Z" fill="#C64677" stroke="#080708"/>
<path d="M444.91 164.082C444.652 166.319 443.812 167.912 442.491 168.264C441.171 168.616 439.642 167.653 438.293 165.846C438.552 163.609 439.392 162.016 440.713 161.664C442.033 161.312 443.561 162.275 444.91 164.082Z" fill="#080708"/>
<path d="M441.014 156.611L435.884 155.236C433.418 159.809 435.036 165.545 439.582 168.164C437.363 164.336 438.07 159.625 441.014 156.611Z" fill="#C64677" stroke="#080708"/>
<path d="M416.617 167.08C418.72 163.452 422.654 161.013 427.164 161.017C431.673 161.021 435.612 163.467 437.721 167.099C435.618 170.727 431.683 173.166 427.174 173.162C422.665 173.158 418.726 170.712 416.617 167.08Z" fill="#C64677" stroke="#080708"/>
<path d="M440.595 168.999C437.85 172.143 433.805 174.129 429.291 174.125C424.778 174.121 420.729 172.128 417.979 168.979C420.723 165.835 424.769 163.849 429.282 163.853C433.795 163.857 437.845 165.85 440.595 168.999Z" fill="#080708"/>
<path d="M437.854 167.14C439.816 164.644 442.576 162.739 445.887 161.858C454.008 159.695 462.362 164.508 464.546 172.609C468.477 187.189 453.777 203.772 448.136 205.275C442.506 206.774 421.514 199.752 417.516 185.237C417.507 185.204 417.499 185.172 417.49 185.14C415.306 177.04 420.119 168.72 428.241 166.557C431.551 165.675 434.9 165.953 437.854 167.14Z" fill="#F5EEEB" stroke="#080708"/>
<path d="M445.389 188.826C446.639 186.665 447.335 184.229 447.415 181.734C447.494 179.239 446.956 176.762 445.846 174.522C444.736 172.282 443.09 170.348 441.054 168.892C439.017 167.436 436.652 166.503 434.169 166.175C431.686 165.847 429.161 166.134 426.818 167.011C424.476 167.889 422.387 169.329 420.737 171.204C419.088 173.08 417.929 175.333 417.362 177.764C416.796 180.194 416.84 182.728 417.49 185.14" stroke="#080708"/>
<path d="M425.886 189.978C424.262 190.411 422.591 189.448 422.155 187.828C421.718 186.208 422.681 184.544 424.305 184.111" stroke="#080708"/>
<path d="M424.305 184.111L466.95 172.755" stroke="#080708"/>
<path d="M435.753 194.424L441.635 192.858L442.426 195.791C442.863 197.411 441.9 199.075 440.276 199.508C438.652 199.94 436.981 198.978 436.544 197.357L435.753 194.424Z" fill="#F5EEEB" stroke="#080708"/>
<path d="M441.636 192.858L447.518 191.291L448.309 194.225C448.745 195.845 447.783 197.509 446.158 197.941C444.534 198.374 442.863 197.411 442.427 195.791L441.636 192.858Z" fill="#F5EEEB" stroke="#080708"/>
<path d="M447.518 191.291L453.4 189.725L454.19 192.658C454.627 194.278 453.665 195.942 452.04 196.375C450.416 196.807 448.745 195.845 448.308 194.225L447.518 191.291Z" fill="#F5EEEB" stroke="#080708"/>
<ellipse cx="4.56528" cy="4.5572" rx="4.56528" ry="4.5572" transform="matrix(0.966322 -0.257337 0.260303 0.965527 450.323 172.466)" fill="#F5EEEB" stroke="#080708"/>
<ellipse cx="4.56528" cy="4.5572" rx="4.56528" ry="4.5572" transform="matrix(0.966322 -0.257337 0.260303 0.965527 432.677 177.165)" fill="#F5EEEB" stroke="#080708"/>
</g>
<path d="M394.921 121.528C392.777 129.53 384.552 134.279 376.55 132.135C368.548 129.99 363.799 121.765 365.944 113.763L336.966 105.999L303.319 231.569L332.297 239.334C334.441 231.332 342.666 226.583 350.668 228.727C358.67 230.871 363.419 239.096 361.275 247.098L390.253 254.863L423.899 129.292L394.921 121.528Z" fill="#F5EEEB" stroke="#080708"/>
<g clip-path="url(#clip9_589_18186)">
<ellipse cx="359.067" cy="200.546" rx="15.3543" ry="4.08" transform="rotate(15 359.067 200.546)" fill="#080708"/>
<path d="M362.077 166.407C363.166 162.359 366.332 158.986 370.686 157.827C375.04 156.667 379.478 158.014 382.458 160.98C381.369 165.029 378.204 168.401 373.849 169.561C369.495 170.72 365.057 169.373 362.077 166.407Z" fill="#C64677" stroke="#080708"/>
<path d="M369.331 164.082C369.072 166.319 368.232 167.912 366.912 168.264C365.591 168.616 364.063 167.653 362.714 165.846C362.973 163.609 363.812 162.016 365.133 161.664C366.453 161.312 367.982 162.275 369.331 164.082Z" fill="#080708"/>
<path d="M365.434 156.611L360.304 155.236C357.839 159.809 359.456 165.545 364.002 168.164C361.783 164.336 362.49 159.625 365.434 156.611Z" fill="#C64677" stroke="#080708"/>
<path d="M341.037 167.08C343.14 163.452 347.075 161.013 351.584 161.017C356.093 161.021 360.032 163.467 362.142 167.099C360.038 170.727 356.104 173.166 351.595 173.162C347.086 173.158 343.147 170.712 341.037 167.08Z" fill="#C64677" stroke="#080708"/>
<path d="M365.015 168.999C362.271 172.143 358.225 174.129 353.712 174.125C349.198 174.121 345.149 172.128 342.399 168.979C345.144 165.835 349.189 163.849 353.703 163.853C358.216 163.857 362.265 165.85 365.015 168.999Z" fill="#080708"/>
<path d="M362.275 167.14C364.236 164.644 366.997 162.739 370.307 161.858C378.429 159.695 386.783 164.508 388.966 172.609C392.897 187.189 378.198 203.772 372.556 205.275C366.927 206.774 345.934 199.752 341.937 185.237C341.928 185.204 341.919 185.172 341.91 185.14C339.726 177.04 344.54 168.72 352.661 166.557C355.972 165.675 359.321 165.953 362.275 167.14Z" fill="#F5EEEB" stroke="#080708"/>
<path d="M369.809 188.826C371.06 186.665 371.755 184.229 371.835 181.734C371.915 179.239 371.376 176.762 370.266 174.522C369.157 172.282 367.511 170.348 365.474 168.892C363.437 167.436 361.073 166.503 358.59 166.175C356.107 165.847 353.582 166.134 351.239 167.011C348.896 167.889 346.807 169.329 345.158 171.204C343.508 173.08 342.349 175.333 341.783 177.764C341.216 180.194 341.26 182.728 341.91 185.14" stroke="#080708"/>
<path d="M350.307 189.978C348.683 190.411 347.012 189.448 346.575 187.828C346.138 186.208 347.101 184.544 348.725 184.111" stroke="#080708"/>
<path d="M348.726 184.111L391.37 172.755" stroke="#080708"/>
<path d="M360.174 194.424L366.056 192.858L366.847 195.791C367.283 197.411 366.321 199.075 364.697 199.508C363.072 199.94 361.401 198.978 360.965 197.357L360.174 194.424Z" fill="#F5EEEB" stroke="#080708"/>
<path d="M366.056 192.858L371.938 191.291L372.729 194.225C373.166 195.845 372.203 197.509 370.579 197.941C368.955 198.374 367.284 197.411 366.847 195.791L366.056 192.858Z" fill="#F5EEEB" stroke="#080708"/>
<path d="M371.938 191.291L377.82 189.725L378.611 192.658C379.048 194.278 378.085 195.942 376.461 196.375C374.836 196.807 373.166 195.845 372.729 194.225L371.938 191.291Z" fill="#F5EEEB" stroke="#080708"/>
<ellipse cx="4.56528" cy="4.5572" rx="4.56528" ry="4.5572" transform="matrix(0.966322 -0.257337 0.260303 0.965527 374.743 172.466)" fill="#F5EEEB" stroke="#080708"/>
<ellipse cx="4.56528" cy="4.5572" rx="4.56528" ry="4.5572" transform="matrix(0.966322 -0.257337 0.260303 0.965527 357.097 177.165)" fill="#F5EEEB" stroke="#080708"/>
</g>
<path d="M319.341 121.528C317.197 129.53 308.972 134.279 300.97 132.135C292.968 129.99 288.219 121.765 290.364 113.763L261.386 105.999L227.739 231.569L256.717 239.334C258.861 231.332 267.086 226.583 275.088 228.727C283.09 230.871 287.839 239.096 285.695 247.098L314.673 254.863L348.319 129.292L319.341 121.528Z" fill="#F5EEEB" stroke="#080708"/>
<g clip-path="url(#clip10_589_18186)">
<ellipse cx="283.487" cy="200.546" rx="15.3543" ry="4.08" transform="rotate(15 283.487 200.546)" fill="#080708"/>
<path d="M286.497 166.407C287.586 162.359 290.751 158.986 295.106 157.827C299.46 156.667 303.898 158.014 306.878 160.98C305.789 165.029 302.624 168.401 298.269 169.561C293.915 170.72 289.477 169.373 286.497 166.407Z" fill="#C64677" stroke="#080708"/>
<path d="M293.751 164.082C293.492 166.319 292.652 167.912 291.332 168.264C290.011 168.616 288.483 167.653 287.134 165.846C287.392 163.609 288.232 162.016 289.553 161.664C290.873 161.312 292.402 162.275 293.751 164.082Z" fill="#080708"/>
<path d="M289.854 156.611L284.724 155.236C282.259 159.809 283.876 165.545 288.422 168.164C286.203 164.336 286.91 159.625 289.854 156.611Z" fill="#C64677" stroke="#080708"/>
<path d="M265.457 167.08C267.56 163.452 271.495 161.013 276.004 161.017C280.513 161.021 284.452 163.467 286.561 167.099C284.458 170.727 280.524 173.166 276.015 173.162C271.506 173.158 267.567 170.712 265.457 167.08Z" fill="#C64677" stroke="#080708"/>
<path d="M289.435 168.999C286.691 172.143 282.645 174.129 278.132 174.125C273.618 174.121 269.569 172.128 266.819 168.979C269.564 165.835 273.609 163.849 278.122 163.853C282.636 163.857 286.685 165.85 289.435 168.999Z" fill="#080708"/>
<path d="M286.695 167.14C288.656 164.644 291.417 162.739 294.727 161.858C302.848 159.695 311.203 164.508 313.386 172.609C317.317 187.189 302.618 203.772 296.976 205.275C291.347 206.774 270.354 199.752 266.357 185.237C266.348 185.204 266.339 185.172 266.33 185.14C264.146 177.04 268.96 168.72 277.081 166.557C280.392 165.675 283.741 165.953 286.695 167.14Z" fill="#F5EEEB" stroke="#080708"/>
<path d="M294.229 188.826C295.48 186.665 296.175 184.229 296.255 181.734C296.335 179.239 295.796 176.762 294.686 174.522C293.577 172.282 291.931 170.348 289.894 168.892C287.857 167.436 285.493 166.503 283.009 166.175C280.526 165.847 278.002 166.134 275.659 167.011C273.316 167.889 271.227 169.329 269.578 171.204C267.928 173.08 266.769 175.333 266.203 177.764C265.636 180.194 265.68 182.728 266.33 185.14" stroke="#080708"/>
<path d="M274.727 189.978C273.103 190.411 271.432 189.448 270.995 187.828C270.558 186.208 271.521 184.544 273.145 184.111" stroke="#080708"/>
<path d="M273.146 184.111L315.79 172.755" stroke="#080708"/>
<path d="M284.594 194.424L290.476 192.858L291.267 195.791C291.703 197.411 290.741 199.075 289.116 199.508C287.492 199.94 285.821 198.978 285.385 197.357L284.594 194.424Z" fill="#F5EEEB" stroke="#080708"/>
<path d="M290.476 192.858L296.358 191.291L297.149 194.225C297.586 195.845 296.623 197.509 294.999 197.941C293.374 198.374 291.704 197.411 291.267 195.791L290.476 192.858Z" fill="#F5EEEB" stroke="#080708"/>
<path d="M296.358 191.291L302.24 189.725L303.031 192.658C303.468 194.278 302.505 195.942 300.881 196.375C299.256 196.807 297.586 195.845 297.149 194.225L296.358 191.291Z" fill="#F5EEEB" stroke="#080708"/>
<ellipse cx="4.56528" cy="4.5572" rx="4.56528" ry="4.5572" transform="matrix(0.966322 -0.257337 0.260303 0.965527 299.163 172.466)" fill="#F5EEEB" stroke="#080708"/>
<ellipse cx="4.56528" cy="4.5572" rx="4.56528" ry="4.5572" transform="matrix(0.966322 -0.257337 0.260303 0.965527 281.517 177.165)" fill="#F5EEEB" stroke="#080708"/>
</g>
<path d="M243.762 121.528C241.618 129.53 233.393 134.279 225.391 132.135C217.389 129.99 212.64 121.765 214.784 113.763L185.806 105.999L152.16 231.569L181.137 239.334C183.282 231.332 191.507 226.583 199.509 228.727C207.511 230.871 212.259 239.096 210.115 247.098L239.093 254.863L272.739 129.292L243.762 121.528Z" fill="#F5EEEB" stroke="#080708"/>
<g clip-path="url(#clip11_589_18186)">
<ellipse cx="207.907" cy="200.546" rx="15.3543" ry="4.08" transform="rotate(15 207.907 200.546)" fill="#080708"/>
<path d="M210.918 166.407C212.006 162.359 215.172 158.986 219.526 157.827C223.881 156.667 228.319 158.014 231.298 160.98C230.21 165.029 227.044 168.401 222.69 169.561C218.335 170.72 213.897 169.373 210.918 166.407Z" fill="#C64677" stroke="#080708"/>
<path d="M218.171 164.082C217.912 166.319 217.073 167.912 215.752 168.264C214.432 168.616 212.903 167.653 211.554 165.846C211.813 163.609 212.653 162.016 213.973 161.664C215.294 161.312 216.822 162.275 218.171 164.082Z" fill="#080708"/>
<path d="M214.275 156.611L209.145 155.236C206.679 159.809 208.296 165.545 212.843 168.164C210.623 164.336 211.331 159.625 214.275 156.611Z" fill="#C64677" stroke="#080708"/>
<path d="M189.877 167.08C191.981 163.452 195.915 161.013 200.424 161.017C204.933 161.021 208.872 163.467 210.982 167.099C208.879 170.727 204.944 173.166 200.435 173.162C195.926 173.158 191.987 170.712 189.877 167.08Z" fill="#C64677" stroke="#080708"/>
<path d="M213.856 168.999C211.111 172.143 207.065 174.129 202.552 174.125C198.039 174.121 193.99 172.128 191.239 168.979C193.984 165.835 198.03 163.849 202.543 163.853C207.056 163.857 211.105 165.85 213.856 168.999Z" fill="#080708"/>
<path d="M211.115 167.14C213.076 164.644 215.837 162.739 219.148 161.858C227.269 159.695 235.623 164.508 237.807 172.609C241.738 187.189 227.038 203.772 221.396 205.275C215.767 206.774 194.775 199.752 190.777 185.237C190.768 185.204 190.759 185.172 190.751 185.14C188.567 177.04 193.38 168.72 201.502 166.557C204.812 165.675 208.161 165.953 211.115 167.14Z" fill="#F5EEEB" stroke="#080708"/>
<path d="M218.65 188.826C219.9 186.665 220.596 184.229 220.675 181.734C220.755 179.239 220.216 176.762 219.107 174.522C217.997 172.282 216.351 170.348 214.314 168.892C212.278 167.436 209.913 166.503 207.43 166.175C204.947 165.847 202.422 166.134 200.079 167.011C197.736 167.889 195.648 169.329 193.998 171.204C192.349 173.08 191.189 175.333 190.623 177.764C190.056 180.194 190.1 182.728 190.751 185.14" stroke="#080708"/>
<path d="M199.147 189.978C197.523 190.411 195.852 189.448 195.415 187.828C194.979 186.208 195.941 184.544 197.566 184.111" stroke="#080708"/>
<path d="M197.566 184.111L240.211 172.755" stroke="#080708"/>
<path d="M209.014 194.424L214.896 192.858L215.687 195.791C216.124 197.411 215.161 199.075 213.537 199.508C211.913 199.94 210.242 198.978 209.805 197.357L209.014 194.424Z" fill="#F5EEEB" stroke="#080708"/>
<path d="M214.897 192.858L220.779 191.291L221.569 194.225C222.006 195.845 221.043 197.509 219.419 197.941C217.795 198.374 216.124 197.411 215.687 195.791L214.897 192.858Z" fill="#F5EEEB" stroke="#080708"/>
<path d="M220.778 191.291L226.66 189.725L227.451 192.658C227.888 194.278 226.925 195.942 225.301 196.375C223.677 196.807 222.006 195.845 221.569 194.225L220.778 191.291Z" fill="#F5EEEB" stroke="#080708"/>
<ellipse cx="4.56528" cy="4.5572" rx="4.56528" ry="4.5572" transform="matrix(0.966322 -0.257337 0.260303 0.965527 223.583 172.466)" fill="#F5EEEB" stroke="#080708"/>
<ellipse cx="4.56528" cy="4.5572" rx="4.56528" ry="4.5572" transform="matrix(0.966322 -0.257337 0.260303 0.965527 205.938 177.165)" fill="#F5EEEB" stroke="#080708"/>
</g>
<path d="M168.182 121.528C166.037 129.53 157.812 134.279 149.81 132.135C141.808 129.99 137.06 121.765 139.204 113.763L110.226 105.999L76.5796 231.569L105.557 239.334C107.702 231.332 115.927 226.583 123.929 228.727C131.931 230.871 136.679 239.096 134.535 247.098L163.513 254.863L197.159 129.292L168.182 121.528Z" fill="#F5EEEB" stroke="#080708"/>
<g clip-path="url(#clip12_589_18186)">
<ellipse cx="132.327" cy="200.546" rx="15.3543" ry="4.08" transform="rotate(15 132.327 200.546)" fill="#080708"/>
<path d="M135.338 166.407C136.426 162.359 139.592 158.986 143.946 157.827C148.301 156.667 152.739 158.014 155.718 160.98C154.63 165.029 151.464 168.401 147.11 169.561C142.755 170.72 138.317 169.373 135.338 166.407Z" fill="#C64677" stroke="#080708"/>
<path d="M142.591 164.082C142.332 166.319 141.493 167.912 140.172 168.264C138.852 168.616 137.323 167.653 135.974 165.846C136.233 163.609 137.072 162.016 138.393 161.664C139.714 161.312 141.242 162.275 142.591 164.082Z" fill="#080708"/>
<path d="M138.695 156.611L133.565 155.236C131.099 159.809 132.716 165.545 137.263 168.164C135.043 164.336 135.751 159.625 138.695 156.611Z" fill="#C64677" stroke="#080708"/>
<path d="M114.297 167.08C116.4 163.452 120.335 161.013 124.844 161.017C129.353 161.021 133.292 163.467 135.402 167.099C133.299 170.727 129.364 173.166 124.855 173.162C120.346 173.158 116.407 170.712 114.297 167.08Z" fill="#C64677" stroke="#080708"/>
<path d="M138.276 168.999C135.531 172.143 131.485 174.129 126.972 174.125C122.459 174.121 118.41 172.128 115.659 168.979C118.404 165.835 122.449 163.849 126.963 163.853C131.476 163.857 135.525 165.85 138.276 168.999Z" fill="#080708"/>
<path d="M135.535 167.14C137.496 164.644 140.257 162.739 143.567 161.858C151.689 159.695 160.043 164.508 162.227 172.609C166.158 187.189 151.458 203.772 145.816 205.275C140.187 206.774 119.195 199.752 115.197 185.237C115.188 185.204 115.179 185.172 115.171 185.14C112.987 177.04 117.8 168.72 125.921 166.557C129.232 165.675 132.581 165.953 135.535 167.14Z" fill="#F5EEEB" stroke="#080708"/>
<path d="M143.07 188.826C144.32 186.665 145.016 184.229 145.095 181.734C145.175 179.239 144.636 176.762 143.527 174.522C142.417 172.282 140.771 170.348 138.734 168.892C136.697 167.436 134.333 166.503 131.85 166.175C129.367 165.847 126.842 166.134 124.499 167.011C122.156 167.889 120.068 169.329 118.418 171.204C116.769 173.08 115.609 175.333 115.043 177.764C114.476 180.194 114.52 182.728 115.17 185.14" stroke="#080708"/>
<path d="M123.567 189.978C121.943 190.411 120.272 189.448 119.835 187.828C119.399 186.208 120.361 184.544 121.985 184.111" stroke="#080708"/>
<path d="M121.986 184.111L164.631 172.755" stroke="#080708"/>
<path d="M133.434 194.424L139.316 192.858L140.107 195.791C140.544 197.411 139.581 199.075 137.957 199.508C136.333 199.94 134.662 198.978 134.225 197.357L133.434 194.424Z" fill="#F5EEEB" stroke="#080708"/>
<path d="M139.316 192.858L145.198 191.291L145.989 194.225C146.426 195.845 145.463 197.509 143.839 197.941C142.215 198.374 140.544 197.411 140.107 195.791L139.316 192.858Z" fill="#F5EEEB" stroke="#080708"/>
<path d="M145.198 191.291L151.08 189.725L151.871 192.658C152.308 194.278 151.345 195.942 149.721 196.375C148.097 196.807 146.426 195.845 145.989 194.225L145.198 191.291Z" fill="#F5EEEB" stroke="#080708"/>
<ellipse cx="4.56528" cy="4.5572" rx="4.56528" ry="4.5572" transform="matrix(0.966322 -0.257337 0.260303 0.965527 148.003 172.466)" fill="#F5EEEB" stroke="#080708"/>
<ellipse cx="4.56528" cy="4.5572" rx="4.56528" ry="4.5572" transform="matrix(0.966322 -0.257337 0.260303 0.965527 130.357 177.165)" fill="#F5EEEB" stroke="#080708"/>
</g>
<path d="M92.602 121.528C90.4579 129.53 82.2329 134.279 74.2309 132.135C66.2289 129.99 61.4801 121.765 63.6243 113.763L34.6465 105.999L1.00001 231.569L29.9778 239.334C32.1219 231.332 40.347 226.583 48.349 228.727C56.3509 230.871 61.0997 239.096 58.9556 247.098L87.9333 254.863L121.58 129.292L92.602 121.528Z" fill="#F5EEEB" stroke="#080708"/>
<g clip-path="url(#clip13_589_18186)">
<ellipse cx="56.7478" cy="200.546" rx="15.3543" ry="4.08" transform="rotate(15 56.7478 200.546)" fill="#080708"/>
<path d="M59.758 166.407C60.8465 162.359 64.0122 158.986 68.3666 157.827C72.721 156.667 77.159 158.014 80.1386 160.98C79.05 165.029 75.8843 168.401 71.5299 169.561C67.1756 170.72 62.7376 169.373 59.758 166.407Z" fill="#C64677" stroke="#080708"/>
<path d="M67.0114 164.082C66.7527 166.319 65.913 167.912 64.5923 168.264C63.2719 168.616 61.7434 167.653 60.3946 165.846C60.6532 163.609 61.4929 162.016 62.8136 161.664C64.134 161.312 65.6625 162.275 67.0114 164.082Z" fill="#080708"/>
<path d="M63.115 156.611L57.9849 155.236C55.5195 159.809 57.1366 165.545 61.6832 168.164C59.4636 164.336 60.1711 159.625 63.115 156.611Z" fill="#C64677" stroke="#080708"/>
<path d="M38.7177 167.08C40.8208 163.452 44.7555 161.013 49.2646 161.017C53.7736 161.021 57.7127 163.467 59.8222 167.099C57.7191 170.727 53.7844 173.166 49.2754 173.162C44.7663 173.158 40.8273 170.712 38.7177 167.08Z" fill="#C64677" stroke="#080708"/>
<path d="M62.6959 168.999C59.9512 172.143 55.9057 174.129 51.3923 174.125C46.879 174.121 42.8299 172.128 40.0796 168.979C42.8243 165.835 46.8699 163.849 51.3832 163.853C55.8966 163.857 59.9457 165.85 62.6959 168.999Z" fill="#080708"/>
<path d="M59.9554 167.14C61.9167 164.644 64.6775 162.739 67.9878 161.858C76.1092 159.695 84.4633 164.508 86.6471 172.609C90.578 187.189 75.8784 203.772 70.2367 205.275C64.6075 206.774 43.615 199.752 39.6173 185.237C39.6085 185.204 39.5997 185.172 39.591 185.14C37.4071 177.04 42.2205 168.72 50.3419 166.557C53.6523 165.675 57.0013 165.953 59.9554 167.14Z" fill="#F5EEEB" stroke="#080708"/>
<path d="M67.4901 188.826C68.7403 186.665 69.436 184.229 69.5157 181.734C69.5954 179.239 69.0567 176.762 67.9471 174.522C66.8376 172.282 65.1915 170.348 63.1547 168.892C61.1179 167.436 58.7532 166.503 56.2702 166.175C53.7872 165.847 51.2624 166.134 48.9195 167.011C46.5766 167.889 44.488 169.329 42.8385 171.204C41.1891 173.08 40.0297 175.333 39.4633 177.764C38.8968 180.194 38.9406 182.728 39.5909 185.14" stroke="#080708"/>
<path d="M47.9875 189.978C46.3633 190.411 44.6924 189.448 44.2557 187.828C43.8189 186.208 44.7816 184.544 46.4059 184.111" stroke="#080708"/>
<path d="M46.4062 184.111L89.051 172.755" stroke="#080708"/>
<path d="M57.8545 194.424L63.7365 192.858L64.5274 195.791C64.9641 197.411 64.0015 199.075 62.3772 199.508C60.7529 199.94 59.0821 198.978 58.6453 197.357L57.8545 194.424Z" fill="#F5EEEB" stroke="#080708"/>
<path d="M63.7368 192.858L69.6189 191.291L70.4097 194.225C70.8465 195.845 69.8838 197.509 68.2595 197.941C66.6352 198.374 64.9644 197.411 64.5277 195.791L63.7368 192.858Z" fill="#F5EEEB" stroke="#080708"/>
<path d="M69.6187 191.291L75.5007 189.725L76.2915 192.658C76.7283 194.278 75.7656 195.942 74.1414 196.375C72.5171 196.807 70.8463 195.845 70.4095 194.225L69.6187 191.291Z" fill="#F5EEEB" stroke="#080708"/>
<ellipse cx="4.56528" cy="4.5572" rx="4.56528" ry="4.5572" transform="matrix(0.966322 -0.257337 0.260303 0.965527 72.4238 172.466)" fill="#F5EEEB" stroke="#080708"/>
<ellipse cx="4.56528" cy="4.5572" rx="4.56528" ry="4.5572" transform="matrix(0.966322 -0.257337 0.260303 0.965527 54.7778 177.165)" fill="#F5EEEB" stroke="#080708"/>
</g>
<ellipse cx="440" cy="382" rx="100" ry="12" fill="#080708"/>
</g>
<defs>
<clipPath id="clip0_589_18186">
<rect width="880" height="394" fill="white"/>
</clipPath>
<clipPath id="clip1_589_18186">
<rect width="52" height="51" fill="white" transform="translate(753.446 83.0472) rotate(-15)"/>
</clipPath>
<clipPath id="clip2_589_18186">
<rect width="52" height="51" fill="white" transform="translate(799.905 143.589) rotate(15)"/>
</clipPath>
<clipPath id="clip3_589_18186">
<rect width="52" height="51" fill="white" transform="translate(602.483 51.7365) rotate(-10)"/>
</clipPath>
<clipPath id="clip4_589_18186">
<rect width="52" height="51" fill="white" transform="translate(679.955 113.275) rotate(30)"/>
</clipPath>
<clipPath id="clip5_589_18186">
<rect width="52" height="51" fill="white" transform="translate(646.905 261.589) rotate(15)"/>
</clipPath>
<clipPath id="clip6_589_18186">
<rect width="52" height="51" fill="white" transform="translate(789.678 246.376) rotate(25)"/>
</clipPath>
<clipPath id="clip7_589_18186">
<rect width="52" height="51" fill="white" transform="translate(562.446 160.047) rotate(-15)"/>
</clipPath>
<clipPath id="clip8_589_18186">
<rect width="52" height="51" fill="white" transform="translate(420.804 148.587) rotate(15)"/>
</clipPath>
<clipPath id="clip9_589_18186">
<rect width="52" height="51" fill="white" transform="translate(345.225 148.587) rotate(15)"/>
</clipPath>
<clipPath id="clip10_589_18186">
<rect width="52" height="51" fill="white" transform="translate(269.645 148.587) rotate(15)"/>
</clipPath>
<clipPath id="clip11_589_18186">
<rect width="52" height="51" fill="white" transform="translate(194.065 148.587) rotate(15)"/>
</clipPath>
<clipPath id="clip12_589_18186">
<rect width="52" height="51" fill="white" transform="translate(118.485 148.587) rotate(15)"/>
</clipPath>
<clipPath id="clip13_589_18186">
<rect width="52" height="51" fill="white" transform="translate(42.9053 148.587) rotate(15)"/>
</clipPath>
</defs>
</svg>
