<svg width="880" height="469" viewBox="0 0 880 469" fill="none" xmlns="http://www.w3.org/2000/svg">
<g clip-path="url(#clip0_589_18436)">
<path d="M61.6996 164.168C59.053 166.815 54.762 166.815 52.1154 164.168C49.4688 161.522 49.4688 157.231 52.1154 154.584L42.5312 145L0.999752 186.531L10.5839 196.116C13.2305 193.469 17.5215 193.469 20.1681 196.116C22.8147 198.762 22.8147 203.053 20.1681 205.7L29.7523 215.284L71.2838 173.753L61.6996 164.168Z" fill="#F5EEEB" stroke="#080708"/>
<g clip-path="url(#clip1_589_18436)">
<ellipse cx="29.8201" cy="186.987" rx="6.93714" ry="1.84336" transform="rotate(45 29.8201 186.987)" fill="#080708"/>
<path d="M38.7103 174.309C40.0509 172.971 42.0513 172.366 44.017 172.896C45.9827 173.426 47.4149 174.956 47.9108 176.789C46.5702 178.128 44.5698 178.732 42.6041 178.202C40.6384 177.672 39.2063 176.142 38.7103 174.309Z" fill="#C64677" stroke="#080708"/>
<path d="M42.0734 175.038C41.467 175.854 40.7784 176.288 40.1822 176.127C39.5861 175.967 39.2054 175.245 39.086 174.233C39.6924 173.416 40.381 172.982 40.9772 173.143C41.5733 173.304 41.9539 174.026 42.0734 175.038Z" fill="#080708"/>
<path d="M42.2366 171.234L40.5399 169.537C38.5421 170.77 37.8792 173.379 39.0664 175.431C39.0629 173.432 40.4038 171.749 42.2366 171.234Z" fill="#C64677" stroke="#080708"/>
<path d="M30.3255 169.819C31.968 168.875 34.0585 168.809 35.8218 169.829C37.5852 170.85 38.5739 172.696 38.5789 174.594C36.9364 175.539 34.8459 175.604 33.0826 174.584C31.3192 173.564 30.3304 171.717 30.3255 169.819Z" fill="#C64677" stroke="#080708"/>
<path d="M39.2738 175.987C37.4896 176.597 35.4581 176.46 33.6931 175.439C31.9281 174.418 30.7939 172.723 30.4292 170.87C32.2134 170.259 34.2449 170.397 36.0099 171.418C37.7749 172.439 38.9091 174.133 39.2738 175.987Z" fill="#080708"/>
<path d="M38.6217 174.64C39.9529 174.107 41.4634 173.985 42.9578 174.388C46.6241 175.376 48.8054 179.147 47.83 182.81C46.0743 189.403 36.5765 192.57 34.0297 191.884C31.4885 191.199 24.861 183.709 26.5759 177.126C26.5796 177.112 26.5835 177.097 26.5874 177.083C27.5628 173.42 31.3256 171.252 34.9918 172.24C36.4863 172.643 37.734 173.508 38.6217 174.64Z" fill="#F5EEEB" stroke="#080708"/>
<path d="M36.6709 184.827C37.6482 184.264 38.4707 183.468 39.0656 182.51C39.6604 181.552 40.0092 180.461 40.0811 179.334C40.153 178.207 39.9457 177.078 39.4777 176.048C39.0096 175.019 38.2953 174.119 37.3978 173.43C36.5004 172.741 35.4476 172.283 34.3327 172.097C33.2178 171.911 32.0752 172.002 31.0062 172.364C29.9371 172.725 28.9745 173.345 28.2038 174.168C27.433 174.991 26.8778 175.992 26.5874 177.083" stroke="#080708"/>
<path d="M28.7799 180.873C28.0467 180.675 27.6104 179.921 27.8055 179.188C28.0005 178.456 28.7531 178.022 29.4864 178.22" stroke="#080708"/>
<path d="M29.4863 178.22L48.7376 183.41" stroke="#080708"/>
<path d="M31.6362 184.841L34.2916 185.557L33.9383 186.883C33.7432 187.616 32.9907 188.05 32.2574 187.852C31.5242 187.654 31.0879 186.9 31.283 186.168L31.6362 184.841Z" fill="#F5EEEB" stroke="#080708"/>
<path d="M34.2915 185.557L36.9468 186.273L36.5936 187.599C36.3985 188.332 35.646 188.765 34.9127 188.568C34.1795 188.37 33.7432 187.616 33.9383 186.883L34.2915 185.557Z" fill="#F5EEEB" stroke="#080708"/>
<path d="M36.9473 186.273L39.6026 186.989L39.2494 188.315C39.0543 189.048 38.3017 189.481 37.5685 189.284C36.8352 189.086 36.3989 188.332 36.594 187.599L36.9473 186.273Z" fill="#F5EEEB" stroke="#080708"/>
<ellipse cx="2.06261" cy="2.05896" rx="2.06261" ry="2.05896" transform="matrix(0.965528 0.2603 -0.257335 0.966322 42.2974 179.541)" fill="#F5EEEB" stroke="#080708"/>
<ellipse cx="2.06261" cy="2.05896" rx="2.06261" ry="2.05896" transform="matrix(0.965528 0.2603 -0.257335 0.966322 34.3311 177.393)" fill="#F5EEEB" stroke="#080708"/>
</g>
<path d="M47.6368 11.9084C48.9923 16.9669 45.9903 22.1664 40.9318 23.5218C35.8733 24.8772 30.6738 21.8753 29.3184 16.8168L11 21.7252L32.2698 101.105L50.5882 96.1966C49.2328 91.1381 52.2347 85.9386 57.2932 84.5832C62.3517 83.2278 67.5512 86.2297 68.9066 91.2882L87.225 86.3798L65.9553 7L47.6368 11.9084Z" fill="#F5EEEB" stroke="#080708"/>
<g clip-path="url(#clip2_589_18436)">
<ellipse cx="52.9835" cy="66.5007" rx="9.7063" ry="2.57919" transform="rotate(-15 52.9835 66.5007)" fill="#080708"/>
<path d="M43.8411 46.8595C43.1573 44.2988 43.8245 41.4521 45.8418 39.441C47.8592 37.4298 50.7146 36.7646 53.2831 37.4463C53.967 40.007 53.2997 42.8537 51.2824 44.8649C49.2651 46.876 46.4096 47.5412 43.8411 46.8595Z" fill="#C64677" stroke="#080708"/>
<path d="M47.0771 43.2939C47.6424 44.6001 47.6864 45.738 47.0746 46.348C46.4629 46.9579 45.3219 46.9141 44.0121 46.351C43.4468 45.0448 43.4027 43.9069 44.0146 43.2969C44.6263 42.687 45.7673 42.7308 47.0771 43.2939Z" fill="#080708"/>
<path d="M42.5825 40.4353L39.3396 41.3042C39.4353 44.5872 42.1335 47.2159 45.4505 47.213C43.0252 45.8185 41.9237 43.0162 42.5825 40.4353Z" fill="#C64677" stroke="#080708"/>
<path d="M32.535 53.8782C32.5396 51.2272 33.9228 48.6484 36.3926 47.2254C38.8624 45.8024 41.7919 45.8963 44.0948 47.2178C44.0902 49.8689 42.7069 52.4477 40.2372 53.8707C37.7674 55.2937 34.8379 55.1998 32.535 53.8782Z" fill="#C64677" stroke="#080708"/>
<path d="M46.2688 47.3498C45.76 49.9387 44.1728 52.3044 41.7007 53.7288C39.2285 55.1531 36.382 55.3421 33.8809 54.4873C34.3897 51.8984 35.9769 49.5327 38.4491 48.1083C40.9212 46.6839 43.7677 46.495 46.2688 47.3498Z" fill="#080708"/>
<path d="M44.1807 47.1979C44.4656 45.2117 45.375 43.2964 46.9086 41.7675C50.6712 38.0164 56.7661 38.011 60.522 41.7554C67.2826 48.4953 64.4767 62.2201 61.863 64.8259C59.255 67.4258 45.5429 70.2167 38.7664 63.5337C38.7514 63.5189 38.7364 63.5041 38.7214 63.4892C34.9655 59.7448 34.9709 53.6686 38.7335 49.9176C40.2672 48.3886 42.1883 47.482 44.1807 47.1979Z" fill="#F5EEEB" stroke="#080708"/>
<path d="M55.1599 56.689C55.1613 55.1109 54.7722 53.5574 54.0272 52.1662C53.2822 50.7751 52.2043 49.5892 50.8888 48.7135C49.5734 47.8379 48.061 47.2996 46.4858 47.1463C44.9105 46.993 43.3209 47.2295 41.8579 47.8347C40.3948 48.4399 39.1034 49.3953 38.0981 50.6161C37.0928 51.837 36.4045 53.2856 36.0943 54.8337C35.7841 56.3818 35.8615 57.9816 36.3197 59.4914C36.7779 61.0013 37.6027 62.3744 38.7211 63.4894" stroke="#080708"/>
<path d="M44.8475 63.4839C44.0949 64.2341 42.876 64.2352 42.1248 63.4863C41.3736 62.7375 41.3747 61.5222 42.1272 60.772" stroke="#080708"/>
<path d="M42.127 60.7719L61.8838 41.0755" stroke="#080708"/>
<path d="M51.6544 62.7993L54.3794 60.0825L55.7396 61.4385C56.4907 62.1874 56.4897 63.4026 55.7372 64.1528C54.9846 64.903 53.7657 64.9041 53.0145 64.1552L51.6544 62.7993Z" fill="#F5EEEB" stroke="#080708"/>
<path d="M54.3795 60.0825L57.1045 57.3657L58.4647 58.7217C59.2158 59.4706 59.2148 60.6858 58.4623 61.436C57.7097 62.1862 56.4908 62.1873 55.7396 61.4384L54.3795 60.0825Z" fill="#F5EEEB" stroke="#080708"/>
<path d="M57.1045 57.3657L59.8296 54.6489L61.1898 56.0049C61.9409 56.7538 61.9399 57.969 61.1874 58.7192C60.4348 59.4694 59.2159 59.4705 58.4647 58.7216L57.1045 57.3657Z" fill="#F5EEEB" stroke="#080708"/>
<ellipse cx="2.88596" cy="2.88085" rx="2.88596" ry="2.88085" transform="matrix(0.70819 -0.706021 0.708192 0.70602 52.6904 46.1732)" fill="#F5EEEB" stroke="#080708"/>
<ellipse cx="2.88596" cy="2.88085" rx="2.88596" ry="2.88085" transform="matrix(0.70819 -0.706022 0.708192 0.70602 44.5151 54.3232)" fill="#F5EEEB" stroke="#080708"/>
</g>
<path d="M82.2326 208.245C79.8516 212.369 74.5782 213.782 70.4542 211.401C66.3302 209.02 64.9172 203.746 67.2982 199.622L52.3638 191L15.0001 255.716L29.9345 264.338C32.3155 260.214 37.5889 258.801 41.7129 261.182C45.8369 263.563 47.2499 268.837 44.8689 272.961L59.8033 281.583L97.167 216.867L82.2326 208.245Z" fill="#F5EEEB" stroke="#080708"/>
<g clip-path="url(#clip3_589_18436)">
<ellipse cx="50.5691" cy="246.785" rx="8.82608" ry="2.34529" transform="rotate(30 50.5691 246.785)" fill="#080708"/>
<path d="M57.3194 228.277C58.5262 226.191 60.7856 224.79 63.3759 224.794C65.9661 224.798 68.2298 226.206 69.443 228.296C68.2362 230.382 65.9768 231.783 63.3866 231.779C60.7963 231.775 58.5326 230.367 57.3194 228.277Z" fill="#C64677" stroke="#080708"/>
<path d="M61.6928 228.065C61.2165 229.269 60.5131 230.029 59.7275 230.027C58.942 230.026 58.2365 229.264 57.7565 228.06C58.2328 226.857 58.9362 226.097 59.7218 226.098C60.5073 226.099 61.2128 226.861 61.6928 228.065Z" fill="#080708"/>
<path d="M60.6408 223.337L57.9969 221.811C55.9476 223.983 55.9922 227.408 58.1269 229.539C57.4641 227.083 58.5577 224.573 60.6408 223.337Z" fill="#C64677" stroke="#080708"/>
<path d="M45.537 225.52C47.2445 223.819 49.792 223.05 52.295 223.723C54.798 224.396 56.6213 226.34 57.2522 228.671C55.5447 230.372 52.9972 231.141 50.4942 230.468C47.9912 229.795 46.1679 227.851 45.537 225.52Z" fill="#C64677" stroke="#080708"/>
<path d="M58.5651 230.153C56.5734 231.491 54.0317 231.991 51.5263 231.318C49.021 230.644 47.0692 228.935 46.0107 226.777C48.0024 225.44 50.5441 224.939 53.0495 225.613C55.5548 226.287 57.5066 227.996 58.5651 230.153Z" fill="#080708"/>
<path d="M57.3201 228.713C58.7804 227.619 60.5966 226.972 62.5659 226.975C67.397 226.983 71.3193 230.898 71.3268 235.721C71.3401 244.401 60.7111 251.422 57.3551 251.417C54.0065 251.412 43.3954 244.39 43.3352 235.735C43.3351 235.716 43.335 235.697 43.335 235.678C43.3275 230.855 47.2379 226.952 52.069 226.959C54.0382 226.962 55.8565 227.615 57.3201 228.713Z" fill="#F5EEEB" stroke="#080708"/>
<path d="M58.2771 241.875C59.2927 240.861 60.0414 239.612 60.4569 238.239C60.8724 236.865 60.9418 235.41 60.659 234.001C60.3761 232.592 59.7499 231.274 58.8356 230.162C57.9213 229.051 56.7472 228.181 55.4173 227.629C54.0874 227.078 52.6428 226.862 51.2114 227C49.78 227.139 48.4061 227.628 47.2112 228.423C46.0163 229.219 45.0374 230.298 44.3613 231.563C43.6851 232.829 43.3325 234.242 43.3347 235.678" stroke="#080708"/>
<path d="M47.2773 239.613C46.3111 239.612 45.5266 238.829 45.5251 237.864C45.5237 236.9 46.3057 236.119 47.272 236.121" stroke="#080708"/>
<path d="M47.272 236.121L72.6396 236.16" stroke="#080708"/>
<path d="M52.0944 243.55L55.5934 243.555L55.596 245.302C55.5975 246.266 54.8155 247.047 53.8492 247.045C52.883 247.044 52.0985 246.261 52.0971 245.296L52.0944 243.55Z" fill="#F5EEEB" stroke="#080708"/>
<path d="M55.5934 243.555L59.0924 243.561L59.0951 245.307C59.0966 246.272 58.3145 247.052 57.3483 247.051C56.382 247.049 55.5976 246.266 55.5961 245.302L55.5934 243.555Z" fill="#F5EEEB" stroke="#080708"/>
<path d="M59.0924 243.561L62.5914 243.566L62.5941 245.313C62.5956 246.277 61.8135 247.058 60.8473 247.056C59.8811 247.055 59.0966 246.272 59.0951 245.307L59.0924 243.561Z" fill="#F5EEEB" stroke="#080708"/>
<ellipse cx="2.62424" cy="2.6196" rx="2.62424" ry="2.6196" transform="matrix(0.999999 0.00153359 0.0015363 0.999999 63.4507 233.526)" fill="#F5EEEB" stroke="#080708"/>
<ellipse cx="2.62424" cy="2.6196" rx="2.62424" ry="2.6196" transform="matrix(0.999999 0.00153362 0.00153633 0.999999 52.9536 233.51)" fill="#F5EEEB" stroke="#080708"/>
</g>
<rect x="407.73" y="77.162" width="170" height="300" rx="24" transform="rotate(15 407.73 77.162)" fill="#F5EEEB" stroke="#080708"/>
<rect x="407.73" y="77.162" width="150" height="300" rx="24" transform="rotate(15 407.73 77.162)" fill="#F5EEEB" stroke="#080708"/>
<rect x="414.802" y="89.4094" width="130" height="280" rx="16" transform="rotate(15 414.802 89.4094)" fill="#080708" stroke="#080708"/>
<circle cx="441.085" cy="237.472" r="47.5" transform="rotate(15 441.085 237.472)" fill="#080708" stroke="#C64677"/>
<path d="M477.171 226.435L425.598 262.31L417.376 244.819" stroke="#C64677"/>
<rect x="393.027" y="359.994" width="32" height="2" rx="1" transform="rotate(15 393.027 359.994)" fill="#F5EEEB"/>
<circle cx="473.963" cy="119.756" r="4" transform="rotate(15 473.963 119.756)" fill="#080708" stroke="#F5EEEB"/>
<path d="M537.344 230.949C534.677 230.234 533.094 227.492 533.809 224.825L540.538 199.711C541.253 197.043 543.994 195.461 546.662 196.175L551.491 197.469L542.174 232.243L537.344 230.949Z" fill="#080708" stroke="#080708"/>
<rect x="538.31" y="231.207" width="36" height="8" rx="4" transform="rotate(-75 538.31 231.207)" fill="#F5EEEB" stroke="#080708"/>
<path d="M381.988 165.51C380.921 165.224 380.287 164.127 380.573 163.06L388.856 132.15C389.141 131.083 390.238 130.45 391.305 130.736L393.237 131.254L383.919 166.027L381.988 165.51Z" fill="#080708" stroke="#080708"/>
<path d="M370.082 209.942C369.015 209.656 368.382 208.56 368.668 207.493L376.95 176.583C377.236 175.516 378.332 174.883 379.399 175.169L381.331 175.686L372.014 210.46L370.082 209.942Z" fill="#080708" stroke="#080708"/>
<ellipse cx="440" cy="443.889" rx="100" ry="12" fill="#080708"/>
<path d="M441.692 241.553L208.136 282.5L234.018 185.907L259.9 89.3147L441.692 241.553Z" fill="#F5EEEB" stroke="#C64677"/>
<ellipse cx="234.018" cy="185.907" rx="100" ry="12" transform="rotate(-75 234.018 185.907)" fill="#F5EEEB" stroke="#C64677"/>
<path d="M114.578 83.066C112.912 89.2835 106.521 92.9732 100.304 91.3073C94.0861 89.6413 90.3964 83.2505 92.0624 77.033L69.5469 71L43.4038 168.567L65.9193 174.6C67.5853 168.383 73.9761 164.693 80.1936 166.359C86.4111 168.025 90.1008 174.416 88.4348 180.633L110.95 186.666L137.093 89.099L114.578 83.066Z" fill="#F5EEEB" stroke="#080708"/>
<g clip-path="url(#clip4_589_18436)">
<ellipse cx="86.7193" cy="144.463" rx="11.9302" ry="3.17013" transform="rotate(15 86.7193 144.463)" fill="#080708"/>
<path d="M89.0586 117.937C89.9044 114.791 92.3641 112.171 95.7474 111.27C99.1307 110.369 102.579 111.416 104.894 113.72C104.048 116.866 101.589 119.486 98.2053 120.387C94.822 121.288 91.3737 120.241 89.0586 117.937Z" fill="#C64677" stroke="#080708"/>
<path d="M94.6942 116.13C94.4932 117.868 93.8408 119.106 92.8146 119.38C91.7887 119.653 90.601 118.905 89.553 117.501C89.7539 115.763 90.4064 114.525 91.4326 114.251C92.4585 113.978 93.6461 114.726 94.6942 116.13Z" fill="#080708"/>
<path d="M91.6664 110.325L87.6804 109.257C85.7647 112.811 87.0212 117.267 90.5539 119.302C88.8293 116.327 89.379 112.667 91.6664 110.325Z" fill="#C64677" stroke="#080708"/>
<path d="M72.71 118.46C74.3441 115.641 77.4014 113.746 80.9048 113.749C84.4083 113.752 87.4689 115.652 89.108 118.474C87.4739 121.293 84.4167 123.188 80.9132 123.185C77.4097 123.182 74.3491 121.282 72.71 118.46Z" fill="#C64677" stroke="#080708"/>
<path d="M91.3407 119.951C89.208 122.394 86.0647 123.937 82.5579 123.933C79.051 123.93 75.9049 122.382 73.768 119.935C75.9006 117.492 79.0439 115.949 82.5508 115.952C86.0576 115.956 89.2037 117.504 91.3407 119.951Z" fill="#080708"/>
<path d="M89.2116 118.506C90.7355 116.567 92.8806 115.087 95.4527 114.402C101.763 112.722 108.254 116.461 109.951 122.755C113.005 134.084 101.584 146.969 97.2 148.137C92.8262 149.302 76.5152 143.845 73.4091 132.567C73.4021 132.542 73.3953 132.517 73.3886 132.492C71.6917 126.198 75.4317 119.734 81.742 118.053C84.3141 117.368 86.9163 117.584 89.2116 118.506Z" fill="#F5EEEB" stroke="#080708"/>
<path d="M95.0657 135.356C96.0371 133.677 96.5777 131.784 96.6396 129.846C96.7016 127.907 96.283 125.982 95.4208 124.242C94.5587 122.501 93.2797 120.999 91.6972 119.868C90.1146 118.736 88.2773 118.011 86.348 117.756C84.4187 117.501 82.4569 117.725 80.6365 118.406C78.8161 119.088 77.1933 120.207 75.9116 121.664C74.63 123.122 73.7293 124.872 73.2891 126.761C72.849 128.649 72.883 130.618 73.3883 132.492" stroke="#080708"/>
<path d="M79.9125 136.251C78.6505 136.587 77.3523 135.839 77.0129 134.581C76.6735 133.322 77.4215 132.029 78.6836 131.693" stroke="#080708"/>
<path d="M78.6841 131.693L111.819 122.869" stroke="#080708"/>
<path d="M87.5795 139.706L92.1498 138.489L92.7643 140.768C93.1036 142.027 92.3557 143.32 91.0936 143.656C89.8316 143.992 88.5333 143.244 88.194 141.985L87.5795 139.706Z" fill="#F5EEEB" stroke="#080708"/>
<path d="M92.1498 138.489L96.7201 137.272L97.3346 139.551C97.674 140.81 96.926 142.103 95.6639 142.439C94.4019 142.775 93.1037 142.027 92.7643 140.768L92.1498 138.489Z" fill="#F5EEEB" stroke="#080708"/>
<path d="M96.7201 137.272L101.29 136.054L101.905 138.334C102.244 139.592 101.496 140.885 100.234 141.221C98.9722 141.558 97.674 140.81 97.3346 139.551L96.7201 137.272Z" fill="#F5EEEB" stroke="#080708"/>
<ellipse cx="3.54719" cy="3.54091" rx="3.54719" ry="3.54091" transform="matrix(0.966322 -0.257338 0.260303 0.965527 98.8994 122.645)" fill="#F5EEEB" stroke="#080708"/>
<ellipse cx="3.54719" cy="3.54091" rx="3.54719" ry="3.54091" transform="matrix(0.966322 -0.257337 0.260303 0.965527 85.189 126.296)" fill="#F5EEEB" stroke="#080708"/>
</g>
<path d="M167.459 111.236C170.286 116.132 168.608 122.392 163.712 125.219C158.816 128.046 152.556 126.368 149.729 121.472L132 131.708L176.357 208.536L194.086 198.3C191.259 193.404 192.937 187.144 197.833 184.317C202.729 181.491 208.989 183.168 211.815 188.064L229.545 177.828L185.188 101L167.459 111.236Z" fill="#F5EEEB" stroke="#080708"/>
<g clip-path="url(#clip5_589_18436)">
<ellipse cx="188.287" cy="166.666" rx="10.4779" ry="2.78422" transform="rotate(-30 188.287 166.666)" fill="#080708"/>
<path d="M173.266 148.741C171.838 146.262 171.738 143.107 173.28 140.446C174.822 137.785 177.613 136.294 180.482 136.287C181.91 138.766 182.01 141.921 180.468 144.582C178.927 147.242 176.135 148.734 173.266 148.741Z" fill="#C64677" stroke="#080708"/>
<path d="M175.644 144.119C176.599 145.323 176.963 146.497 176.495 147.304C176.027 148.111 174.826 148.384 173.303 148.163C172.348 146.958 171.984 145.784 172.452 144.977C172.919 144.17 174.121 143.897 175.644 144.119Z" fill="#080708"/>
<path d="M170.159 142.394L167.02 144.206C168.038 147.602 171.585 149.589 175.043 148.659C172.125 147.883 170.193 145.269 170.159 142.394Z" fill="#C64677" stroke="#080708"/>
<path d="M163.439 159.218C162.703 156.452 163.424 153.377 165.602 151.203C167.78 149.029 170.861 148.309 173.631 149.043C174.367 151.809 173.645 154.884 171.468 157.058C169.29 159.232 166.209 159.952 163.439 159.218Z" fill="#C64677" stroke="#080708"/>
<path d="M175.935 148.574C176.128 151.415 175.133 154.325 172.954 156.501C170.774 158.677 167.859 159.67 165.012 159.477C164.819 156.635 165.813 153.725 167.993 151.549C170.173 149.373 173.088 148.381 175.935 148.574Z" fill="#080708"/>
<path d="M173.715 148.999C173.457 146.848 173.87 144.597 175.042 142.574C177.918 137.612 184.271 135.903 189.234 138.758C198.166 143.897 199.075 158.992 197.078 162.439C195.085 165.879 181.567 172.62 172.634 167.545C172.614 167.534 172.594 167.522 172.574 167.511C167.612 164.656 165.92 158.319 168.795 153.356C169.967 151.334 171.717 149.851 173.715 148.999Z" fill="#F5EEEB" stroke="#080708"/>
<path d="M187.815 155.827C187.376 154.181 186.536 152.67 185.371 151.428C184.205 150.185 182.75 149.25 181.133 148.705C179.517 148.159 177.79 148.02 176.104 148.301C174.419 148.581 172.828 149.272 171.471 150.311C170.115 151.351 169.035 152.708 168.328 154.262C167.621 155.816 167.308 157.519 167.417 159.22C167.526 160.921 168.054 162.567 168.953 164.013C169.853 165.46 171.097 166.661 172.574 167.511" stroke="#080708"/>
<path d="M178.961 165.794C178.386 166.786 177.115 167.128 176.122 166.557C175.13 165.986 174.791 164.719 175.366 163.726" stroke="#080708"/>
<path d="M175.366 163.726L190.464 137.668" stroke="#080708"/>
<path d="M185.867 163.178L187.95 159.584L189.747 160.618C190.739 161.189 191.078 162.456 190.503 163.449C189.928 164.441 188.657 164.783 187.664 164.212L185.867 163.178Z" fill="#F5EEEB" stroke="#080708"/>
<path d="M187.949 159.584L190.032 155.99L191.829 157.024C192.821 157.595 193.16 158.862 192.585 159.854C192.01 160.847 190.739 161.189 189.746 160.618L187.949 159.584Z" fill="#F5EEEB" stroke="#080708"/>
<path d="M190.032 155.99L192.114 152.395L193.911 153.429C194.904 154 195.242 155.268 194.667 156.26C194.092 157.253 192.821 157.594 191.829 157.023L190.032 155.99Z" fill="#F5EEEB" stroke="#080708"/>
<ellipse cx="3.11538" cy="3.10987" rx="3.11538" ry="3.10987" transform="matrix(0.501327 -0.865258 0.866793 0.498669 182.302 145.552)" fill="#F5EEEB" stroke="#080708"/>
<ellipse cx="3.11538" cy="3.10987" rx="3.11538" ry="3.10987" transform="matrix(0.501328 -0.865258 0.866793 0.498669 176.055 156.335)" fill="#F5EEEB" stroke="#080708"/>
</g>
<path d="M118.967 15.4834C123.242 19.7591 123.242 26.6912 118.967 30.9668C114.691 35.2424 107.759 35.2424 103.483 30.9668L88 46.4502L155.095 113.545L170.578 98.0615C166.302 93.7859 166.302 86.8537 170.578 82.5781C174.854 78.3025 181.786 78.3025 186.061 82.5781L201.545 67.0947L134.45 5.40541e-05L118.967 15.4834Z" fill="#F5EEEB" stroke="#080708"/>
<g clip-path="url(#clip6_589_18436)">
<ellipse cx="155.83" cy="66.9848" rx="11.207" ry="2.97797" transform="rotate(-45 155.83 66.9848)" fill="#080708"/>
<path d="M135.349 52.623C133.187 50.4573 132.211 47.2257 133.067 44.05C133.923 40.8744 136.394 38.5608 139.356 37.7596C141.518 39.9253 142.495 43.157 141.638 46.3326C140.782 49.5083 138.311 51.8219 135.349 52.623Z" fill="#C64677" stroke="#080708"/>
<path d="M136.526 47.1896C137.845 48.1693 138.546 49.2817 138.287 50.2449C138.027 51.2079 136.861 51.8228 135.226 52.0159C133.907 51.0361 133.206 49.9237 133.466 48.9605C133.725 47.9976 134.891 47.3826 136.526 47.1896Z" fill="#080708"/>
<path d="M130.382 46.9259L127.641 49.667C129.632 52.8944 133.847 53.9653 137.162 52.0475C133.932 52.0532 131.213 49.887 130.382 46.9259Z" fill="#C64677" stroke="#080708"/>
<path d="M128.096 66.1683C126.57 63.5149 126.464 60.1377 128.112 57.2889C129.76 54.4402 132.744 52.8429 135.81 52.8349C137.335 55.4884 137.441 58.8655 135.793 61.7143C134.145 64.563 131.161 66.1603 128.096 66.1683Z" fill="#C64677" stroke="#080708"/>
<path d="M138.059 51.7119C139.045 54.5944 138.824 57.8762 137.174 60.7276C135.524 63.5791 132.787 65.4114 129.793 66.0005C128.807 63.1181 129.028 59.8363 130.678 56.9848C132.328 54.1334 135.065 52.3011 138.059 51.7119Z" fill="#080708"/>
<path d="M135.884 52.7656C135.022 50.615 134.826 48.1749 135.476 45.7606C137.073 39.8377 143.165 36.3137 149.082 37.8895C159.733 40.7259 164.851 56.0696 163.741 60.1841C162.635 64.2894 150.535 74.9962 139.901 72.2258C139.877 72.2197 139.854 72.2135 139.83 72.2073C133.913 70.6315 130.41 64.5526 132.007 58.6297C132.658 56.2155 134.056 54.1998 135.884 52.7656Z" fill="#F5EEEB" stroke="#080708"/>
<path d="M152.342 55.9173C151.432 54.3384 150.146 53.0097 148.598 52.0487C147.05 51.0877 145.287 50.5242 143.467 50.4081C141.646 50.292 139.823 50.6268 138.159 51.3829C136.495 52.139 135.042 53.2931 133.929 54.7429C132.815 56.1928 132.076 57.8936 131.775 59.6947C131.475 61.4958 131.623 63.3417 132.206 65.0688C132.79 66.7958 133.791 68.3508 135.121 69.596C136.45 70.8412 138.068 71.7381 139.83 72.2073" stroke="#080708"/>
<path d="M145.953 68.6652C145.633 69.8498 144.415 70.5546 143.232 70.2395C142.048 69.9243 141.348 68.7085 141.667 67.524" stroke="#080708"/>
<path d="M141.667 67.5239L150.052 36.4233" stroke="#080708"/>
<path d="M152.364 64.0509L153.52 59.7611L155.663 60.3318C156.847 60.6469 157.547 61.8627 157.228 63.0473C156.909 64.2319 155.69 64.9367 154.507 64.6215L152.364 64.0509Z" fill="#F5EEEB" stroke="#080708"/>
<path d="M153.52 59.7611L154.677 55.4713L156.82 56.042C158.003 56.3571 158.704 57.5729 158.384 58.7575C158.065 59.9421 156.847 60.6469 155.663 60.3317L153.52 59.7611Z" fill="#F5EEEB" stroke="#080708"/>
<path d="M154.677 55.4713L155.833 51.1816L157.976 51.7522C159.16 52.0674 159.86 53.2831 159.541 54.4677C159.222 55.6523 158.003 56.3571 156.82 56.0419L154.677 55.4713Z" fill="#F5EEEB" stroke="#080708"/>
<ellipse cx="3.33217" cy="3.32627" rx="3.33217" ry="3.32627" transform="matrix(0.2603 -0.965528 0.966322 0.257335 143.801 46.8281)" fill="#F5EEEB" stroke="#080708"/>
<ellipse cx="3.33217" cy="3.32627" rx="3.33217" ry="3.32627" transform="matrix(0.2603 -0.965528 0.966322 0.257335 140.332 59.6971)" fill="#F5EEEB" stroke="#080708"/>
</g>
<path d="M157.239 257.132C154.255 260.117 149.416 260.117 146.431 257.132C143.446 254.147 143.446 249.308 146.431 246.323L135.622 235.515L88.7844 282.352L99.5931 293.161C102.578 290.176 107.417 290.176 110.402 293.161C113.387 296.146 113.387 300.985 110.402 303.97L121.21 314.778L168.048 267.941L157.239 257.132Z" fill="#F5EEEB" stroke="#080708"/>
<g clip-path="url(#clip7_589_18436)">
<ellipse cx="121.288" cy="282.866" rx="7.82344" ry="2.07887" transform="rotate(45 121.288 282.866)" fill="#080708"/>
<path d="M131.313 268.568C132.825 267.059 135.081 266.377 137.298 266.975C139.515 267.573 141.13 269.298 141.689 271.365C140.177 272.875 137.921 273.556 135.704 272.959C133.488 272.361 131.873 270.636 131.313 268.568Z" fill="#C64677" stroke="#080708"/>
<path d="M135.106 269.39C134.422 270.311 133.646 270.8 132.973 270.619C132.301 270.438 131.872 269.624 131.737 268.483C132.421 267.561 133.198 267.072 133.87 267.253C134.542 267.435 134.972 268.249 135.106 269.39Z" fill="#080708"/>
<path d="M135.29 265.1L133.377 263.187C131.124 264.577 130.376 267.52 131.715 269.834C131.711 267.579 133.223 265.681 135.29 265.1Z" fill="#C64677" stroke="#080708"/>
<path d="M121.857 263.505C123.71 262.44 126.067 262.366 128.056 263.516C130.045 264.667 131.16 266.75 131.165 268.89C129.313 269.955 126.955 270.029 124.967 268.878C122.978 267.728 121.863 265.645 121.857 263.505Z" fill="#C64677" stroke="#080708"/>
<path d="M131.949 270.46C129.937 271.148 127.646 270.994 125.655 269.842C123.665 268.691 122.386 266.78 121.974 264.69C123.987 264.001 126.278 264.156 128.268 265.307C130.259 266.459 131.538 268.37 131.949 270.46Z" fill="#080708"/>
<path d="M131.214 268.941C132.715 268.34 134.418 268.203 136.104 268.657C140.238 269.772 142.698 274.024 141.598 278.155C139.618 285.59 128.907 289.163 126.035 288.388C123.169 287.616 115.695 279.169 117.629 271.746C117.633 271.729 117.637 271.713 117.642 271.696C118.742 267.566 122.985 265.121 127.12 266.235C128.805 266.69 130.212 267.665 131.214 268.941Z" fill="#F5EEEB" stroke="#080708"/>
<path d="M129.013 280.43C130.116 279.795 131.043 278.898 131.714 277.817C132.385 276.736 132.778 275.506 132.859 274.235C132.94 272.964 132.707 271.691 132.179 270.53C131.651 269.368 130.845 268.354 129.833 267.577C128.821 266.8 127.634 266.283 126.376 266.073C125.119 265.864 123.83 265.967 122.625 266.374C121.419 266.782 120.334 267.481 119.464 268.409C118.595 269.337 117.969 270.466 117.642 271.696" stroke="#080708"/>
<path d="M120.114 275.97C119.287 275.747 118.795 274.897 119.015 274.071C119.235 273.245 120.084 272.756 120.911 272.979" stroke="#080708"/>
<path d="M120.911 272.979L142.622 278.832" stroke="#080708"/>
<path d="M123.336 280.446L126.33 281.253L125.932 282.749C125.712 283.575 124.863 284.064 124.036 283.841C123.209 283.618 122.717 282.768 122.937 281.942L123.336 280.446Z" fill="#F5EEEB" stroke="#080708"/>
<path d="M126.33 281.253L129.325 282.061L128.926 283.557C128.706 284.383 127.858 284.872 127.031 284.649C126.204 284.426 125.712 283.575 125.932 282.749L126.33 281.253Z" fill="#F5EEEB" stroke="#080708"/>
<path d="M129.325 282.061L132.319 282.868L131.921 284.364C131.701 285.19 130.852 285.679 130.025 285.456C129.198 285.233 128.706 284.383 128.926 283.556L129.325 282.061Z" fill="#F5EEEB" stroke="#080708"/>
<ellipse cx="2.32613" cy="2.32201" rx="2.32613" ry="2.32201" transform="matrix(0.965528 0.2603 -0.257335 0.966322 135.358 274.469)" fill="#F5EEEB" stroke="#080708"/>
<ellipse cx="2.32613" cy="2.32201" rx="2.32613" ry="2.32201" transform="matrix(0.965528 0.2603 -0.257335 0.966322 126.375 272.047)" fill="#F5EEEB" stroke="#080708"/>
</g>
<path d="M80.4553 282.617C77.4705 285.602 72.6313 285.602 69.6466 282.617C66.6618 279.633 66.6618 274.793 69.6466 271.809L58.8379 261L12.0002 307.838L22.8089 318.646C25.7936 315.662 30.6329 315.662 33.6176 318.646C36.6023 321.631 36.6023 326.47 33.6176 329.455L44.4263 340.264L91.264 293.426L80.4553 282.617Z" fill="#F5EEEB" stroke="#080708"/>
<g clip-path="url(#clip8_589_18436)">
<ellipse cx="44.5034" cy="308.351" rx="7.82344" ry="2.07887" transform="rotate(45 44.5034 308.351)" fill="#080708"/>
<path d="M54.5291 294.054C56.0409 292.544 58.2969 291.863 60.5137 292.46C62.7306 293.058 64.3457 294.783 64.905 296.851C63.3931 298.36 61.1372 299.042 58.9203 298.444C56.7035 297.846 55.0883 296.121 54.5291 294.054Z" fill="#C64677" stroke="#080708"/>
<path d="M58.3221 294.875C57.6382 295.796 56.8616 296.286 56.1892 296.104C55.517 295.923 55.0877 295.109 54.953 293.968C55.6369 293.047 56.4134 292.558 57.0858 292.739C57.758 292.92 58.1873 293.734 58.3221 294.875Z" fill="#080708"/>
<path d="M58.5059 290.586L56.5924 288.672C54.3394 290.062 53.5918 293.005 54.9307 295.319C54.9267 293.064 56.4389 291.166 58.5059 290.586Z" fill="#C64677" stroke="#080708"/>
<path d="M45.0733 288.99C46.9256 287.925 49.2832 287.851 51.2718 289.002C53.2605 290.152 54.3755 292.235 54.3811 294.375C52.5288 295.44 50.1712 295.514 48.1826 294.363C46.1939 293.213 45.0789 291.13 45.0733 288.99Z" fill="#C64677" stroke="#080708"/>
<path d="M55.1649 295.946C53.1527 296.634 50.8617 296.479 48.8712 295.328C46.8806 294.176 45.6016 292.265 45.1903 290.175C47.2025 289.487 49.4935 289.641 51.484 290.793C53.4746 291.944 54.7536 293.855 55.1649 295.946Z" fill="#080708"/>
<path d="M54.4295 294.427C55.9307 293.825 57.6341 293.688 59.3195 294.143C63.4542 295.257 65.9142 299.51 64.8142 303.64C62.8341 311.076 52.123 314.648 49.2507 313.874C46.3848 313.101 38.9106 304.655 40.8446 297.231C40.8488 297.215 40.8532 297.198 40.8575 297.182C41.9576 293.051 46.2011 290.606 50.3358 291.721C52.0212 292.175 53.4283 293.151 54.4295 294.427Z" fill="#F5EEEB" stroke="#080708"/>
<path d="M52.2292 305.916C53.3313 305.281 54.2589 304.383 54.9298 303.303C55.6006 302.222 55.994 300.991 56.075 299.72C56.1561 298.449 55.9224 297.177 55.3945 296.015C54.8667 294.854 54.061 293.84 53.0489 293.062C52.0369 292.285 50.8496 291.769 49.5922 291.559C48.3349 291.349 47.0463 291.452 45.8407 291.86C44.635 292.267 43.5495 292.966 42.6803 293.894C41.811 294.823 41.1849 295.952 40.8573 297.182" stroke="#080708"/>
<path d="M43.33 301.456C42.503 301.233 42.011 300.382 42.231 299.556C42.451 298.73 43.2998 298.241 44.1267 298.464" stroke="#080708"/>
<path d="M44.127 298.464L65.8378 304.317" stroke="#080708"/>
<path d="M46.5514 305.931L49.546 306.739L49.1476 308.235C48.9276 309.061 48.0789 309.55 47.252 309.327C46.425 309.104 45.933 308.253 46.153 307.427L46.5514 305.931Z" fill="#F5EEEB" stroke="#080708"/>
<path d="M49.546 306.739L52.5406 307.546L52.1423 309.042C51.9222 309.868 51.0735 310.357 50.2466 310.134C49.4197 309.911 48.9276 309.061 49.1477 308.235L49.546 306.739Z" fill="#F5EEEB" stroke="#080708"/>
<path d="M52.5406 307.546L55.5352 308.353L55.1369 309.849C54.9169 310.675 54.0682 311.164 53.2412 310.941C52.4143 310.719 51.9223 309.868 52.1423 309.042L52.5406 307.546Z" fill="#F5EEEB" stroke="#080708"/>
<ellipse cx="2.32613" cy="2.32201" rx="2.32613" ry="2.32201" transform="matrix(0.965528 0.2603 -0.257335 0.966322 58.5742 299.954)" fill="#F5EEEB" stroke="#080708"/>
<ellipse cx="2.32613" cy="2.32201" rx="2.32613" ry="2.32201" transform="matrix(0.965528 0.2603 -0.257335 0.966322 49.5908 297.532)" fill="#F5EEEB" stroke="#080708"/>
</g>
<path d="M192.355 205.112C189.025 208.441 183.628 208.441 180.299 205.112C176.969 201.783 176.969 196.385 180.299 193.056L168.243 181L116 233.243L128.056 245.299C131.385 241.969 136.783 241.969 140.112 245.299C143.441 248.628 143.441 254.025 140.112 257.355L152.168 269.411L204.411 217.168L192.355 205.112Z" fill="#F5EEEB" stroke="#080708"/>
<g clip-path="url(#clip9_589_18436)">
<ellipse cx="152.254" cy="233.815" rx="8.72625" ry="2.31877" transform="rotate(45 152.254 233.815)" fill="#080708"/>
<path d="M163.437 217.868C165.123 216.184 167.639 215.424 170.112 216.091C172.585 216.758 174.386 218.682 175.01 220.988C173.324 222.671 170.807 223.432 168.335 222.765C165.862 222.098 164.061 220.174 163.437 217.868Z" fill="#C64677" stroke="#080708"/>
<path d="M167.667 218.784C166.904 219.812 166.038 220.358 165.288 220.155C164.538 219.953 164.059 219.045 163.909 217.772C164.672 216.745 165.538 216.199 166.288 216.401C167.038 216.604 167.517 217.512 167.667 218.784Z" fill="#080708"/>
<path d="M167.873 214L165.738 211.866C163.225 213.416 162.391 216.698 163.885 219.28C163.88 216.764 165.567 214.647 167.873 214Z" fill="#C64677" stroke="#080708"/>
<path d="M152.889 212.22C154.955 211.032 157.585 210.95 159.803 212.233C162.021 213.516 163.265 215.839 163.271 218.226C161.205 219.415 158.576 219.497 156.357 218.213C154.139 216.93 152.896 214.607 152.889 212.22Z" fill="#C64677" stroke="#080708"/>
<path d="M164.146 219.978C161.901 220.746 159.346 220.573 157.126 219.289C154.906 218.004 153.479 215.873 153.02 213.542C155.265 212.774 157.82 212.946 160.04 214.231C162.26 215.515 163.687 217.647 164.146 219.978Z" fill="#080708"/>
<path d="M163.326 218.284C165 217.613 166.9 217.46 168.78 217.967C173.392 219.21 176.136 223.953 174.909 228.561C172.7 236.854 160.753 240.839 157.549 239.975C154.353 239.114 146.016 229.692 148.173 221.412C148.178 221.394 148.183 221.375 148.188 221.357C149.415 216.75 154.148 214.022 158.76 215.266C160.639 215.772 162.209 216.861 163.326 218.284Z" fill="#F5EEEB" stroke="#080708"/>
<path d="M160.872 231.099C162.101 230.391 163.136 229.389 163.884 228.184C164.632 226.979 165.071 225.606 165.161 224.189C165.252 222.771 164.991 221.351 164.402 220.056C163.814 218.761 162.915 217.629 161.786 216.762C160.657 215.895 159.333 215.319 157.93 215.085C156.528 214.851 155.091 214.966 153.746 215.421C152.401 215.875 151.19 216.655 150.221 217.69C149.251 218.726 148.553 219.985 148.188 221.357" stroke="#080708"/>
<path d="M150.945 226.124C150.023 225.875 149.474 224.927 149.72 224.005C149.965 223.084 150.912 222.538 151.834 222.787" stroke="#080708"/>
<path d="M151.834 222.787L176.05 229.316" stroke="#080708"/>
<path d="M154.538 231.116L157.879 232.017L157.434 233.685C157.189 234.607 156.242 235.152 155.32 234.904C154.398 234.655 153.849 233.706 154.094 232.785L154.538 231.116Z" fill="#F5EEEB" stroke="#080708"/>
<path d="M157.878 232.017L161.218 232.917L160.774 234.586C160.529 235.507 159.582 236.053 158.66 235.804C157.737 235.555 157.189 234.607 157.434 233.685L157.878 232.017Z" fill="#F5EEEB" stroke="#080708"/>
<path d="M161.219 232.917L164.559 233.818L164.114 235.486C163.869 236.408 162.922 236.953 162 236.705C161.078 236.456 160.529 235.507 160.774 234.586L161.219 232.917Z" fill="#F5EEEB" stroke="#080708"/>
<ellipse cx="2.59456" cy="2.58997" rx="2.59456" ry="2.58997" transform="matrix(0.965528 0.2603 -0.257335 0.966322 167.949 224.449)" fill="#F5EEEB" stroke="#080708"/>
<ellipse cx="2.59456" cy="2.58997" rx="2.59456" ry="2.58997" transform="matrix(0.965528 0.2603 -0.257335 0.966322 157.928 221.748)" fill="#F5EEEB" stroke="#080708"/>
</g>
<path d="M158.878 167.31C155.66 172.884 148.532 174.794 142.957 171.576C137.383 168.357 135.473 161.229 138.691 155.655L118.504 144L67.9999 231.476L88.1868 243.131C91.4052 237.557 98.5332 235.647 104.108 238.865C109.682 242.084 111.592 249.212 108.374 254.786L128.56 266.441L179.065 178.965L158.878 167.31Z" fill="#F5EEEB" stroke="#080708"/>
<g clip-path="url(#clip10_589_18436)">
<ellipse cx="116.078" cy="219.404" rx="11.9302" ry="3.17013" transform="rotate(30 116.078 219.404)" fill="#080708"/>
<path d="M125.203 194.388C126.834 191.568 129.888 189.674 133.39 189.679C136.891 189.684 139.951 191.588 141.591 194.413C139.959 197.233 136.905 199.127 133.404 199.121C129.903 199.116 126.843 197.213 125.203 194.388Z" fill="#C64677" stroke="#080708"/>
<path d="M131.114 194.101C130.47 195.728 129.52 196.755 128.458 196.753C127.396 196.752 126.442 195.722 125.794 194.094C126.437 192.468 127.388 191.44 128.45 191.442C129.512 191.444 130.465 192.473 131.114 194.101Z" fill="#080708"/>
<path d="M129.692 187.71L126.118 185.647C123.348 188.583 123.409 193.213 126.294 196.093C125.398 192.774 126.876 189.381 129.692 187.71Z" fill="#C64677" stroke="#080708"/>
<path d="M109.276 190.661C111.584 188.361 115.028 187.322 118.411 188.232C121.795 189.142 124.259 191.769 125.112 194.919C122.804 197.22 119.36 198.259 115.977 197.349C112.594 196.439 110.129 193.811 109.276 190.661Z" fill="#C64677" stroke="#080708"/>
<path d="M126.886 196.923C124.194 198.731 120.759 199.408 117.372 198.497C113.986 197.587 111.347 195.277 109.917 192.36C112.609 190.552 116.044 189.876 119.431 190.786C122.817 191.697 125.456 194.007 126.886 196.923Z" fill="#080708"/>
<path d="M125.204 194.977C127.177 193.498 129.632 192.624 132.294 192.628C138.824 192.638 144.126 197.93 144.136 204.449C144.154 216.183 129.787 225.672 125.251 225.666C120.724 225.659 106.381 216.167 106.3 204.469C106.3 204.443 106.3 204.417 106.3 204.391C106.29 197.872 111.575 192.596 118.106 192.606C120.767 192.61 123.225 193.492 125.204 194.977Z" fill="#F5EEEB" stroke="#080708"/>
<path d="M126.497 212.768C127.87 211.398 128.882 209.709 129.444 207.853C130.005 205.996 130.099 204.029 129.717 202.124C129.335 200.22 128.488 198.438 127.252 196.935C126.016 195.433 124.429 194.257 122.632 193.512C120.834 192.766 118.882 192.474 116.947 192.661C115.012 192.849 113.155 193.509 111.54 194.585C109.925 195.661 108.601 197.119 107.687 198.829C106.773 200.54 106.297 202.45 106.3 204.391" stroke="#080708"/>
<path d="M111.629 209.711C110.323 209.709 109.262 208.65 109.26 207.346C109.258 206.043 110.316 204.987 111.622 204.989" stroke="#080708"/>
<path d="M111.622 204.989L145.911 205.042" stroke="#080708"/>
<path d="M118.14 215.032L122.87 215.039L122.873 217.4C122.875 218.703 121.818 219.759 120.512 219.757C119.206 219.755 118.146 218.696 118.144 217.392L118.14 215.032Z" fill="#F5EEEB" stroke="#080708"/>
<path d="M122.87 215.039L127.599 215.046L127.603 217.407C127.605 218.711 126.548 219.766 125.242 219.764C123.936 219.762 122.875 218.703 122.873 217.4L122.87 215.039Z" fill="#F5EEEB" stroke="#080708"/>
<path d="M127.6 215.046L132.329 215.054L132.333 217.414C132.335 218.718 131.278 219.773 129.972 219.771C128.666 219.769 127.605 218.711 127.603 217.407L127.6 215.046Z" fill="#F5EEEB" stroke="#080708"/>
<ellipse cx="3.54719" cy="3.54091" rx="3.54719" ry="3.54091" transform="matrix(0.999999 0.00153346 0.00153616 0.999999 133.49 201.482)" fill="#F5EEEB" stroke="#080708"/>
<ellipse cx="3.54719" cy="3.54091" rx="3.54719" ry="3.54091" transform="matrix(0.999999 0.00153354 0.00153624 0.999999 119.302 201.46)" fill="#F5EEEB" stroke="#080708"/>
</g>
<path d="M47.3737 104.655C50.5921 110.229 48.6821 117.357 43.1077 120.576C37.5333 123.794 30.4052 121.884 27.1868 116.31L7 127.965L57.5045 215.441L77.6913 203.786C74.4729 198.212 76.3829 191.084 81.9573 187.865C87.5317 184.647 94.6598 186.557 97.8782 192.131L118.065 180.476L67.5605 93L47.3737 104.655Z" fill="#F5EEEB" stroke="#080708"/>
<g clip-path="url(#clip11_589_18436)">
<ellipse cx="71.0888" cy="167.768" rx="11.9302" ry="3.17013" transform="rotate(-30 71.0888 167.768)" fill="#080708"/>
<path d="M53.9863 147.357C52.3599 144.535 52.2465 140.943 54.0017 137.913C55.757 134.884 58.9355 133.186 62.2018 133.178C63.8283 136.001 63.9417 139.593 62.1864 142.622C60.4311 145.652 57.2527 147.35 53.9863 147.357Z" fill="#C64677" stroke="#080708"/>
<path d="M56.6939 142.095C57.7806 143.466 58.1949 144.803 57.6625 145.722C57.1303 146.64 55.7617 146.951 54.0276 146.699C52.941 145.328 52.5266 143.991 53.059 143.073C53.5913 142.154 54.9598 141.843 56.6939 142.095Z" fill="#080708"/>
<path d="M50.4483 140.131L46.8746 142.194C48.0326 146.061 52.0722 148.324 56.0094 147.265C52.6864 146.381 50.4872 143.404 50.4483 140.131Z" fill="#C64677" stroke="#080708"/>
<path d="M42.7959 159.287C41.958 156.138 42.7799 152.636 45.2594 150.161C47.739 147.686 51.2469 146.866 54.4013 147.702C55.2392 150.851 54.4173 154.353 51.9378 156.828C49.4583 159.303 45.9503 160.123 42.7959 159.287Z" fill="#C64677" stroke="#080708"/>
<path d="M57.0241 147.167C57.2437 150.403 56.1118 153.716 53.63 156.194C51.1481 158.671 47.8286 159.801 44.5874 159.582C44.3678 156.347 45.4997 153.033 47.9815 150.556C50.4634 148.078 53.7829 146.948 57.0241 147.167Z" fill="#080708"/>
<path d="M54.4972 147.651C54.2036 145.203 54.674 142.639 56.0084 140.336C59.2822 134.686 66.5165 132.741 72.1668 135.991C82.3374 141.842 83.3722 159.03 81.098 162.955C78.8289 166.871 63.4372 174.547 53.2659 168.768C53.2434 168.755 53.2208 168.743 53.1983 168.73C47.548 165.479 45.6215 158.263 48.8952 152.613C50.2297 150.31 52.2222 148.622 54.4972 147.651Z" fill="#F5EEEB" stroke="#080708"/>
<path d="M70.5515 155.427C70.0511 153.553 69.095 151.832 67.768 150.417C66.441 149.003 64.7839 147.938 62.9436 147.317C61.1033 146.695 59.1365 146.537 57.2176 146.857C55.2986 147.176 53.4866 147.962 51.9422 149.146C50.3977 150.33 49.1684 151.875 48.3632 153.644C47.558 155.414 47.2017 157.352 47.3259 159.289C47.4501 161.226 48.051 163.1 49.0752 164.747C50.0995 166.394 51.5156 167.762 53.1981 168.73" stroke="#080708"/>
<path d="M60.4692 166.774C59.8145 167.904 58.3676 168.294 57.2376 167.643C56.1075 166.993 55.7222 165.55 56.3769 164.42" stroke="#080708"/>
<path d="M56.377 164.42L73.5672 134.751" stroke="#080708"/>
<path d="M68.3336 163.796L70.7046 159.704L72.7508 160.881C73.8808 161.531 74.2661 162.974 73.6114 164.104C72.9566 165.234 71.5098 165.623 70.3797 164.973L68.3336 163.796Z" fill="#F5EEEB" stroke="#080708"/>
<path d="M70.7046 159.704L73.0757 155.611L75.1219 156.789C76.2519 157.439 76.6372 158.882 75.9825 160.012C75.3277 161.142 73.8809 161.531 72.7508 160.881L70.7046 159.704Z" fill="#F5EEEB" stroke="#080708"/>
<path d="M73.0757 155.611L75.4468 151.519L77.493 152.696C78.623 153.346 79.0083 154.789 78.3536 155.919C77.6988 157.05 76.252 157.439 75.1219 156.788L73.0757 155.611Z" fill="#F5EEEB" stroke="#080708"/>
<ellipse cx="3.54719" cy="3.54091" rx="3.54719" ry="3.54091" transform="matrix(0.501327 -0.865258 0.866793 0.498669 64.2739 143.728)" fill="#F5EEEB" stroke="#080708"/>
<ellipse cx="3.54719" cy="3.54091" rx="3.54719" ry="3.54091" transform="matrix(0.501327 -0.865258 0.866793 0.498669 57.1606 156.004)" fill="#F5EEEB" stroke="#080708"/>
</g>
<path d="M659.92 173.194C658.704 177.735 654.036 180.43 649.495 179.213C644.954 177.996 642.259 173.329 643.476 168.787L627.031 164.381L607.936 235.642L624.381 240.048C625.598 235.507 630.266 232.812 634.807 234.029C639.348 235.246 642.043 239.914 640.826 244.455L657.271 248.861L676.365 177.6L659.92 173.194Z" fill="#C64677"/>
<g clip-path="url(#clip12_589_18436)">
<ellipse cx="639.573" cy="218.037" rx="8.71354" ry="2.31539" transform="rotate(15 639.573 218.037)" fill="#080708"/>
<path d="M641.281 198.663C641.899 196.365 643.695 194.451 646.166 193.793C648.638 193.135 651.156 193.9 652.847 195.583C652.229 197.88 650.433 199.794 647.962 200.452C645.491 201.11 642.972 200.346 641.281 198.663Z" fill="#C64677" stroke="#080708"/>
<path d="M645.397 197.343C645.251 198.612 644.774 199.517 644.024 199.716C643.275 199.916 642.408 199.37 641.642 198.344C641.789 197.075 642.266 196.17 643.015 195.971C643.764 195.771 644.632 196.317 645.397 197.343Z" fill="#080708"/>
<path d="M643.186 193.103L640.275 192.323C638.876 194.918 639.793 198.173 642.373 199.66C641.114 197.487 641.515 194.814 643.186 193.103Z" fill="#C64677" stroke="#080708"/>
<path d="M629.341 199.045C630.534 196.986 632.767 195.602 635.326 195.604C637.885 195.606 640.12 196.994 641.317 199.055C640.124 201.114 637.891 202.498 635.332 202.496C632.773 202.494 630.538 201.106 629.341 199.045Z" fill="#C64677" stroke="#080708"/>
<path d="M642.948 200.134C641.391 201.918 639.095 203.045 636.533 203.042C633.972 203.04 631.674 201.909 630.113 200.122C631.671 198.338 633.967 197.211 636.528 197.213C639.09 197.216 641.387 198.346 642.948 200.134Z" fill="#080708"/>
<path d="M641.393 199.078C642.506 197.662 644.073 196.581 645.951 196.081C650.56 194.853 655.301 197.585 656.54 202.182C658.771 210.456 650.429 219.867 647.228 220.72C644.033 221.571 632.12 217.586 629.851 209.348C629.846 209.33 629.841 209.312 629.836 209.293C628.597 204.697 631.328 199.975 635.937 198.748C637.816 198.247 639.717 198.405 641.393 199.078Z" fill="#F5EEEB" stroke="#080708"/>
<path d="M645.669 211.385C646.378 210.159 646.773 208.777 646.819 207.361C646.864 205.945 646.558 204.539 645.928 203.268C645.299 201.996 644.365 200.899 643.209 200.073C642.053 199.247 640.711 198.717 639.302 198.531C637.893 198.345 636.46 198.508 635.13 199.006C633.801 199.503 632.615 200.321 631.679 201.385C630.743 202.449 630.085 203.728 629.764 205.107C629.442 206.487 629.467 207.925 629.836 209.293" stroke="#080708"/>
<path d="M634.601 212.039C633.68 212.285 632.731 211.738 632.483 210.819C632.236 209.899 632.782 208.955 633.704 208.71" stroke="#080708"/>
<path d="M633.704 208.71L657.905 202.265" stroke="#080708"/>
<path d="M640.201 214.562L643.539 213.673L643.988 215.338C644.236 216.257 643.69 217.202 642.768 217.447C641.846 217.693 640.898 217.146 640.65 216.227L640.201 214.562Z" fill="#F5EEEB" stroke="#080708"/>
<path d="M643.539 213.673L646.877 212.784L647.326 214.449C647.574 215.368 647.027 216.313 646.106 216.558C645.184 216.804 644.236 216.257 643.988 215.338L643.539 213.673Z" fill="#F5EEEB" stroke="#080708"/>
<path d="M646.877 212.784L650.215 211.895L650.664 213.56C650.912 214.479 650.366 215.424 649.444 215.669C648.522 215.915 647.574 215.368 647.326 214.449L646.877 212.784Z" fill="#F5EEEB" stroke="#080708"/>
<ellipse cx="2.59078" cy="2.5862" rx="2.59078" ry="2.5862" transform="matrix(0.966322 -0.257338 0.260303 0.965527 648.469 202.101)" fill="#F5EEEB" stroke="#080708"/>
<ellipse cx="2.59078" cy="2.5862" rx="2.59078" ry="2.5862" transform="matrix(0.966322 -0.257337 0.260303 0.965527 638.455 204.768)" fill="#F5EEEB" stroke="#080708"/>
</g>
<path d="M720.218 189.35C719.001 193.892 714.333 196.586 709.792 195.37C705.251 194.153 702.556 189.485 703.773 184.944L687.328 180.538L668.234 251.799L684.679 256.205C685.895 251.664 690.563 248.969 695.104 250.186C699.645 251.402 702.34 256.07 701.123 260.611L717.568 265.018L736.663 193.757L720.218 189.35Z" fill="#C64677"/>
<g clip-path="url(#clip13_589_18436)">
<ellipse cx="699.87" cy="234.193" rx="8.71354" ry="2.31539" transform="rotate(15 699.87 234.193)" fill="#080708"/>
<path d="M701.578 214.82C702.196 212.522 703.993 210.608 706.464 209.95C708.935 209.292 711.453 210.057 713.144 211.739C712.527 214.037 710.73 215.951 708.259 216.609C705.788 217.267 703.269 216.502 701.578 214.82Z" fill="#C64677" stroke="#080708"/>
<path d="M705.695 213.5C705.548 214.769 705.071 215.674 704.322 215.873C703.573 216.073 702.705 215.526 701.94 214.501C702.086 213.232 702.563 212.327 703.312 212.127C704.062 211.928 704.929 212.474 705.695 213.5Z" fill="#080708"/>
<path d="M703.483 209.26L700.572 208.48C699.173 211.075 700.091 214.33 702.671 215.817C701.411 213.644 701.813 210.971 703.483 209.26Z" fill="#C64677" stroke="#080708"/>
<path d="M689.638 215.201C690.832 213.142 693.065 211.758 695.623 211.761C698.182 211.763 700.418 213.151 701.615 215.212C700.421 217.271 698.188 218.655 695.63 218.653C693.071 218.65 690.835 217.262 689.638 215.201Z" fill="#C64677" stroke="#080708"/>
<path d="M703.246 216.29C701.688 218.075 699.392 219.201 696.831 219.199C694.269 219.197 691.972 218.066 690.411 216.279C691.968 214.494 694.264 213.368 696.826 213.37C699.387 213.372 701.685 214.503 703.246 216.29Z" fill="#080708"/>
<path d="M701.69 215.235C702.803 213.819 704.37 212.738 706.249 212.238C710.858 211.01 715.598 213.742 716.838 218.339C719.069 226.613 710.727 236.024 707.525 236.877C704.33 237.727 692.417 233.742 690.149 225.505C690.143 225.487 690.139 225.468 690.134 225.45C688.894 220.853 691.626 216.132 696.235 214.904C698.113 214.404 700.014 214.562 701.69 215.235Z" fill="#F5EEEB" stroke="#080708"/>
<path d="M705.966 227.542C706.676 226.316 707.071 224.933 707.116 223.517C707.161 222.101 706.855 220.695 706.226 219.424C705.596 218.153 704.662 217.056 703.506 216.23C702.35 215.403 701.008 214.874 699.599 214.687C698.19 214.501 696.757 214.664 695.428 215.162C694.098 215.66 692.913 216.477 691.977 217.542C691.041 218.606 690.383 219.885 690.061 221.264C689.74 222.644 689.765 224.081 690.134 225.45" stroke="#080708"/>
<path d="M694.899 228.196C693.977 228.441 693.029 227.895 692.781 226.975C692.533 226.056 693.079 225.112 694.001 224.866" stroke="#080708"/>
<path d="M694.001 224.866L718.202 218.421" stroke="#080708"/>
<path d="M700.498 230.719L703.837 229.83L704.285 231.495C704.533 232.414 703.987 233.358 703.065 233.604C702.143 233.849 701.195 233.303 700.947 232.384L700.498 230.719Z" fill="#F5EEEB" stroke="#080708"/>
<path d="M703.836 229.83L707.174 228.941L707.623 230.606C707.871 231.525 707.325 232.469 706.403 232.715C705.481 232.96 704.533 232.414 704.285 231.495L703.836 229.83Z" fill="#F5EEEB" stroke="#080708"/>
<path d="M707.175 228.941L710.513 228.052L710.962 229.717C711.209 230.636 710.663 231.58 709.741 231.826C708.82 232.071 707.871 231.525 707.624 230.606L707.175 228.941Z" fill="#F5EEEB" stroke="#080708"/>
<ellipse cx="2.59078" cy="2.5862" rx="2.59078" ry="2.5862" transform="matrix(0.966322 -0.257338 0.260303 0.965527 708.767 218.258)" fill="#F5EEEB" stroke="#080708"/>
<ellipse cx="2.59078" cy="2.5862" rx="2.59078" ry="2.5862" transform="matrix(0.966322 -0.257337 0.260303 0.965527 698.752 220.925)" fill="#F5EEEB" stroke="#080708"/>
</g>
<path d="M780.516 205.507C779.299 210.048 774.631 212.743 770.09 211.526C765.549 210.31 762.854 205.642 764.071 201.101L747.626 196.694L728.532 267.955L744.977 272.362C746.193 267.821 750.861 265.126 755.402 266.342C759.943 267.559 762.638 272.227 761.421 276.768L777.866 281.174L796.96 209.914L780.516 205.507Z" fill="#C64677"/>
<g clip-path="url(#clip14_589_18436)">
<ellipse cx="760.168" cy="250.35" rx="8.71354" ry="2.31539" transform="rotate(15 760.168 250.35)" fill="#080708"/>
<path d="M761.876 230.976C762.494 228.679 764.291 226.765 766.762 226.107C769.233 225.449 771.751 226.213 773.442 227.896C772.824 230.194 771.028 232.108 768.557 232.766C766.086 233.424 763.567 232.659 761.876 230.976Z" fill="#C64677" stroke="#080708"/>
<path d="M765.993 229.657C765.846 230.926 765.369 231.83 764.62 232.03C763.87 232.229 763.003 231.683 762.237 230.658C762.384 229.388 762.861 228.484 763.61 228.284C764.36 228.085 765.227 228.631 765.993 229.657Z" fill="#080708"/>
<path d="M763.781 225.417L760.87 224.637C759.471 227.232 760.388 230.487 762.969 231.973C761.709 229.801 762.111 227.127 763.781 225.417Z" fill="#C64677" stroke="#080708"/>
<path d="M749.936 231.358C751.129 229.299 753.362 227.915 755.921 227.917C758.48 227.92 760.716 229.307 761.913 231.369C760.719 233.428 758.486 234.812 755.927 234.809C753.369 234.807 751.133 233.419 749.936 231.358Z" fill="#C64677" stroke="#080708"/>
<path d="M763.543 232.447C761.986 234.231 759.69 235.358 757.129 235.356C754.567 235.354 752.269 234.223 750.709 232.436C752.266 230.651 754.562 229.524 757.123 229.527C759.685 229.529 761.983 230.66 763.543 232.447Z" fill="#080708"/>
<path d="M761.988 231.392C763.101 229.975 764.668 228.895 766.547 228.394C771.155 227.167 775.896 229.898 777.136 234.495C779.366 242.77 771.024 252.181 767.823 253.033C764.628 253.884 752.715 249.899 750.446 241.662C750.441 241.643 750.436 241.625 750.431 241.607C749.192 237.01 751.924 232.288 756.533 231.061C758.411 230.561 760.312 230.718 761.988 231.392Z" fill="#F5EEEB" stroke="#080708"/>
<path d="M766.264 243.699C766.974 242.472 767.369 241.09 767.414 239.674C767.459 238.258 767.153 236.852 766.524 235.581C765.894 234.31 764.96 233.213 763.804 232.386C762.648 231.56 761.306 231.03 759.897 230.844C758.488 230.658 757.055 230.821 755.725 231.319C754.396 231.817 753.211 232.634 752.274 233.698C751.338 234.763 750.681 236.041 750.359 237.421C750.038 238.8 750.062 240.238 750.431 241.607" stroke="#080708"/>
<path d="M755.196 244.352C754.275 244.598 753.327 244.052 753.079 243.132C752.831 242.213 753.377 241.269 754.299 241.023" stroke="#080708"/>
<path d="M754.299 241.023L778.5 234.578" stroke="#080708"/>
<path d="M760.796 246.876L764.134 245.987L764.583 247.651C764.831 248.571 764.285 249.515 763.363 249.76C762.441 250.006 761.493 249.46 761.245 248.54L760.796 246.876Z" fill="#F5EEEB" stroke="#080708"/>
<path d="M764.134 245.987L767.472 245.098L767.921 246.762C768.169 247.682 767.623 248.626 766.701 248.872C765.779 249.117 764.831 248.571 764.583 247.651L764.134 245.987Z" fill="#F5EEEB" stroke="#080708"/>
<path d="M767.473 245.098L770.811 244.209L771.259 245.873C771.507 246.793 770.961 247.737 770.039 247.983C769.117 248.228 768.169 247.682 767.921 246.762L767.473 245.098Z" fill="#F5EEEB" stroke="#080708"/>
<ellipse cx="2.59078" cy="2.5862" rx="2.59078" ry="2.5862" transform="matrix(0.966322 -0.257338 0.260303 0.965527 769.064 234.415)" fill="#F5EEEB" stroke="#080708"/>
<ellipse cx="2.59078" cy="2.5862" rx="2.59078" ry="2.5862" transform="matrix(0.966322 -0.257337 0.260303 0.965527 759.05 237.081)" fill="#F5EEEB" stroke="#080708"/>
</g>
<path d="M840.813 221.664C839.597 226.205 834.929 228.9 830.388 227.683C825.847 226.466 823.152 221.799 824.369 217.258L807.924 212.851L788.83 284.112L805.274 288.518C806.491 283.977 811.159 281.282 815.7 282.499C820.241 283.716 822.936 288.384 821.719 292.925L838.164 297.331L857.258 226.07L840.813 221.664Z" fill="#C64677"/>
<g clip-path="url(#clip15_589_18436)">
<ellipse cx="820.466" cy="266.507" rx="8.71354" ry="2.31539" transform="rotate(15 820.466 266.507)" fill="#080708"/>
<path d="M822.174 247.133C822.792 244.835 824.588 242.922 827.06 242.263C829.531 241.605 832.049 242.37 833.74 244.053C833.122 246.351 831.326 248.264 828.855 248.922C826.384 249.58 823.865 248.816 822.174 247.133Z" fill="#C64677" stroke="#080708"/>
<path d="M826.29 245.813C826.144 247.082 825.667 247.987 824.918 248.187C824.168 248.386 823.301 247.84 822.535 246.814C822.682 245.545 823.159 244.64 823.908 244.441C824.657 244.241 825.525 244.788 826.29 245.813Z" fill="#080708"/>
<path d="M824.079 241.573L821.168 240.793C819.769 243.389 820.686 246.643 823.266 248.13C822.007 245.957 822.408 243.284 824.079 241.573Z" fill="#C64677" stroke="#080708"/>
<path d="M810.234 247.515C811.427 245.456 813.66 244.072 816.219 244.074C818.778 244.076 821.013 245.464 822.211 247.525C821.017 249.584 818.784 250.968 816.225 250.966C813.666 250.964 811.431 249.576 810.234 247.515Z" fill="#C64677" stroke="#080708"/>
<path d="M823.841 248.604C822.284 250.388 819.988 251.515 817.426 251.512C814.865 251.51 812.567 250.379 811.007 248.592C812.564 246.808 814.86 245.681 817.421 245.683C819.983 245.686 822.28 246.816 823.841 248.604Z" fill="#080708"/>
<path d="M822.286 247.548C823.399 246.132 824.966 245.051 826.844 244.551C831.453 243.324 836.194 246.055 837.434 250.652C839.664 258.927 831.322 268.337 828.121 269.19C824.926 270.041 813.013 266.056 810.744 257.818C810.739 257.8 810.734 257.782 810.729 257.764C809.49 253.167 812.222 248.445 816.83 247.218C818.709 246.717 820.61 246.875 822.286 247.548Z" fill="#F5EEEB" stroke="#080708"/>
<path d="M826.562 259.855C827.272 258.629 827.666 257.247 827.712 255.831C827.757 254.415 827.451 253.009 826.821 251.738C826.192 250.467 825.258 249.369 824.102 248.543C822.946 247.717 821.604 247.187 820.195 247.001C818.786 246.815 817.353 246.978 816.023 247.476C814.694 247.973 813.508 248.791 812.572 249.855C811.636 250.919 810.978 252.198 810.657 253.577C810.335 254.957 810.36 256.395 810.729 257.764" stroke="#080708"/>
<path d="M815.494 260.509C814.573 260.755 813.624 260.208 813.377 259.289C813.129 258.37 813.675 257.425 814.597 257.18" stroke="#080708"/>
<path d="M814.597 257.18L838.798 250.735" stroke="#080708"/>
<path d="M821.094 263.032L824.432 262.143L824.881 263.808C825.129 264.727 824.583 265.672 823.661 265.917C822.739 266.163 821.791 265.616 821.543 264.697L821.094 263.032Z" fill="#F5EEEB" stroke="#080708"/>
<path d="M824.432 262.143L827.77 261.254L828.219 262.919C828.467 263.838 827.92 264.783 826.999 265.028C826.077 265.274 825.129 264.727 824.881 263.808L824.432 262.143Z" fill="#F5EEEB" stroke="#080708"/>
<path d="M827.77 261.254L831.109 260.365L831.557 262.03C831.805 262.949 831.259 263.894 830.337 264.139C829.415 264.385 828.467 263.838 828.219 262.919L827.77 261.254Z" fill="#F5EEEB" stroke="#080708"/>
<ellipse cx="2.59078" cy="2.5862" rx="2.59078" ry="2.5862" transform="matrix(0.966322 -0.257338 0.260303 0.965527 829.362 250.571)" fill="#F5EEEB" stroke="#080708"/>
<ellipse cx="2.59078" cy="2.5862" rx="2.59078" ry="2.5862" transform="matrix(0.966322 -0.257337 0.260303 0.965527 819.348 253.238)" fill="#F5EEEB" stroke="#080708"/>
</g>
<path d="M637.889 255.418C636.672 259.959 632.004 262.654 627.463 261.437C622.922 260.22 620.227 255.553 621.444 251.011L604.999 246.605L585.905 317.866L602.35 322.272C603.566 317.731 608.234 315.036 612.775 316.253C617.316 317.47 620.011 322.138 618.794 326.679L635.239 331.085L654.333 259.824L637.889 255.418Z" fill="#C64677"/>
<g clip-path="url(#clip16_589_18436)">
<ellipse cx="617.541" cy="300.261" rx="8.71354" ry="2.31539" transform="rotate(15 617.541 300.261)" fill="#080708"/>
<path d="M619.249 280.887C619.867 278.589 621.664 276.676 624.135 276.017C626.606 275.359 629.124 276.124 630.815 277.807C630.198 280.105 628.401 282.018 625.93 282.676C623.459 283.334 620.94 282.57 619.249 280.887Z" fill="#C64677" stroke="#080708"/>
<path d="M623.366 279.567C623.219 280.836 622.742 281.741 621.993 281.94C621.243 282.14 620.376 281.594 619.611 280.568C619.757 279.299 620.234 278.394 620.983 278.195C621.733 277.995 622.6 278.541 623.366 279.567Z" fill="#080708"/>
<path d="M621.154 275.327L618.243 274.547C616.844 277.143 617.762 280.397 620.342 281.884C619.082 279.711 619.484 277.038 621.154 275.327Z" fill="#C64677" stroke="#080708"/>
<path d="M607.309 281.269C608.503 279.21 610.735 277.826 613.294 277.828C615.853 277.83 618.089 279.218 619.286 281.279C618.092 283.338 615.859 284.722 613.3 284.72C610.742 284.718 608.506 283.33 607.309 281.269Z" fill="#C64677" stroke="#080708"/>
<path d="M620.916 282.358C619.359 284.142 617.063 285.269 614.502 285.266C611.94 285.264 609.643 284.133 608.082 282.346C609.639 280.562 611.935 279.435 614.496 279.437C617.058 279.44 619.356 280.57 620.916 282.358Z" fill="#080708"/>
<path d="M619.361 281.302C620.474 279.886 622.041 278.805 623.92 278.305C628.528 277.078 633.269 279.809 634.509 284.406C636.739 292.681 628.397 302.091 625.196 302.944C622.001 303.795 610.088 299.81 607.819 291.572C607.814 291.554 607.809 291.536 607.804 291.518C606.565 286.921 609.297 282.199 613.906 280.972C615.784 280.471 617.685 280.629 619.361 281.302Z" fill="#F5EEEB" stroke="#080708"/>
<path d="M623.637 293.609C624.347 292.383 624.742 291.001 624.787 289.585C624.832 288.169 624.526 286.763 623.897 285.492C623.267 284.22 622.333 283.123 621.177 282.297C620.021 281.471 618.679 280.941 617.27 280.755C615.861 280.569 614.428 280.732 613.098 281.23C611.769 281.727 610.584 282.545 609.648 283.609C608.711 284.673 608.054 285.952 607.732 287.331C607.411 288.711 607.436 290.149 607.805 291.518" stroke="#080708"/>
<path d="M612.57 294.263C611.648 294.509 610.7 293.962 610.452 293.043C610.204 292.123 610.75 291.179 611.672 290.934" stroke="#080708"/>
<path d="M611.672 290.934L635.873 284.489" stroke="#080708"/>
<path d="M618.169 296.786L621.507 295.897L621.956 297.562C622.204 298.481 621.658 299.426 620.736 299.671C619.814 299.917 618.866 299.37 618.618 298.451L618.169 296.786Z" fill="#F5EEEB" stroke="#080708"/>
<path d="M621.507 295.897L624.845 295.008L625.294 296.673C625.542 297.592 624.996 298.537 624.074 298.782C623.152 299.028 622.204 298.481 621.956 297.562L621.507 295.897Z" fill="#F5EEEB" stroke="#080708"/>
<path d="M624.846 295.008L628.184 294.119L628.632 295.784C628.88 296.703 628.334 297.648 627.412 297.893C626.491 298.139 625.542 297.592 625.294 296.673L624.846 295.008Z" fill="#F5EEEB" stroke="#080708"/>
<ellipse cx="2.59078" cy="2.5862" rx="2.59078" ry="2.5862" transform="matrix(0.966322 -0.257338 0.260303 0.965527 626.438 284.325)" fill="#F5EEEB" stroke="#080708"/>
<ellipse cx="2.59078" cy="2.5862" rx="2.59078" ry="2.5862" transform="matrix(0.966322 -0.257337 0.260303 0.965527 616.423 286.992)" fill="#F5EEEB" stroke="#080708"/>
</g>
<path d="M615.856 337.642C614.64 342.183 609.972 344.878 605.431 343.661C600.89 342.444 598.195 337.777 599.412 333.235L582.967 328.829L563.873 400.09L580.317 404.496C581.534 399.955 586.202 397.26 590.743 398.477C595.284 399.694 597.979 404.362 596.762 408.903L613.207 413.309L632.301 342.048L615.856 337.642Z" fill="#C64677"/>
<g clip-path="url(#clip17_589_18436)">
<ellipse cx="595.509" cy="382.485" rx="8.71354" ry="2.31539" transform="rotate(15 595.509 382.485)" fill="#080708"/>
<path d="M597.217 363.111C597.835 360.813 599.631 358.9 602.102 358.241C604.574 357.583 607.092 358.348 608.783 360.031C608.165 362.329 606.369 364.242 603.898 364.9C601.427 365.558 598.908 364.794 597.217 363.111Z" fill="#C64677" stroke="#080708"/>
<path d="M601.333 361.791C601.187 363.06 600.71 363.965 599.961 364.164C599.211 364.364 598.344 363.818 597.578 362.792C597.725 361.523 598.202 360.618 598.951 360.419C599.7 360.219 600.568 360.765 601.333 361.791Z" fill="#080708"/>
<path d="M599.122 357.551L596.211 356.771C594.812 359.367 595.729 362.621 598.309 364.108C597.05 361.935 597.451 359.262 599.122 357.551Z" fill="#C64677" stroke="#080708"/>
<path d="M585.277 363.493C586.47 361.434 588.703 360.05 591.262 360.052C593.821 360.054 596.056 361.442 597.254 363.503C596.06 365.562 593.827 366.946 591.268 366.944C588.709 366.942 586.474 365.554 585.277 363.493Z" fill="#C64677" stroke="#080708"/>
<path d="M598.884 364.582C597.327 366.366 595.031 367.493 592.469 367.49C589.908 367.488 587.61 366.357 586.05 364.57C587.607 362.786 589.903 361.659 592.464 361.661C595.026 361.664 597.323 362.794 598.884 364.582Z" fill="#080708"/>
<path d="M597.329 363.526C598.442 362.11 600.009 361.029 601.887 360.529C606.496 359.302 611.237 362.033 612.476 366.63C614.707 374.905 606.365 384.315 603.164 385.168C599.969 386.019 588.056 382.034 585.787 373.796C585.782 373.778 585.777 373.76 585.772 373.742C584.533 369.145 587.264 364.423 591.873 363.196C593.752 362.695 595.653 362.853 597.329 363.526Z" fill="#F5EEEB" stroke="#080708"/>
<path d="M601.605 375.833C602.314 374.607 602.709 373.225 602.755 371.809C602.8 370.393 602.494 368.987 601.864 367.716C601.235 366.444 600.301 365.347 599.145 364.521C597.989 363.695 596.647 363.165 595.238 362.979C593.829 362.793 592.396 362.956 591.066 363.454C589.737 363.951 588.551 364.769 587.615 365.833C586.679 366.897 586.021 368.176 585.7 369.555C585.378 370.935 585.403 372.373 585.772 373.742" stroke="#080708"/>
<path d="M590.537 376.487C589.616 376.733 588.667 376.186 588.419 375.267C588.172 374.347 588.718 373.403 589.64 373.158" stroke="#080708"/>
<path d="M589.64 373.158L613.841 366.713" stroke="#080708"/>
<path d="M596.137 379.01L599.475 378.121L599.924 379.786C600.172 380.705 599.626 381.65 598.704 381.895C597.782 382.141 596.834 381.594 596.586 380.675L596.137 379.01Z" fill="#F5EEEB" stroke="#080708"/>
<path d="M599.475 378.121L602.813 377.232L603.262 378.897C603.51 379.816 602.963 380.761 602.042 381.006C601.12 381.252 600.172 380.705 599.924 379.786L599.475 378.121Z" fill="#F5EEEB" stroke="#080708"/>
<path d="M602.813 377.232L606.151 376.343L606.6 378.008C606.848 378.927 606.302 379.872 605.38 380.117C604.458 380.363 603.51 379.816 603.262 378.897L602.813 377.232Z" fill="#F5EEEB" stroke="#080708"/>
<ellipse cx="2.59078" cy="2.5862" rx="2.59078" ry="2.5862" transform="matrix(0.966322 -0.257338 0.260303 0.965527 604.405 366.549)" fill="#F5EEEB" stroke="#080708"/>
<ellipse cx="2.59078" cy="2.5862" rx="2.59078" ry="2.5862" transform="matrix(0.966322 -0.257337 0.260303 0.965527 594.391 369.216)" fill="#F5EEEB" stroke="#080708"/>
</g>
<path d="M698.186 271.575C696.969 276.116 692.302 278.811 687.76 277.594C683.219 276.377 680.524 271.709 681.741 267.168L665.296 262.762L646.202 334.023L662.647 338.429C663.864 333.888 668.531 331.193 673.073 332.41C677.614 333.627 680.309 338.294 679.092 342.835L695.537 347.242L714.631 275.981L698.186 271.575Z" fill="#C64677"/>
<g clip-path="url(#clip18_589_18436)">
<ellipse cx="677.838" cy="316.417" rx="8.71354" ry="2.31539" transform="rotate(15 677.838 316.417)" fill="#080708"/>
<path d="M679.547 297.044C680.164 294.746 681.961 292.832 684.432 292.174C686.903 291.516 689.422 292.281 691.113 293.963C690.495 296.261 688.698 298.175 686.227 298.833C683.756 299.491 681.238 298.726 679.547 297.044Z" fill="#C64677" stroke="#080708"/>
<path d="M683.663 295.724C683.516 296.993 683.04 297.898 682.29 298.097C681.541 298.297 680.673 297.751 679.908 296.725C680.055 295.456 680.531 294.551 681.281 294.352C682.03 294.152 682.897 294.698 683.663 295.724Z" fill="#080708"/>
<path d="M681.452 291.484L678.54 290.704C677.141 293.299 678.059 296.554 680.639 298.041C679.379 295.868 679.781 293.195 681.452 291.484Z" fill="#C64677" stroke="#080708"/>
<path d="M667.606 297.425C668.8 295.366 671.033 293.982 673.592 293.985C676.151 293.987 678.386 295.375 679.583 297.436C678.39 299.495 676.157 300.879 673.598 300.877C671.039 300.874 668.804 299.486 667.606 297.425Z" fill="#C64677" stroke="#080708"/>
<path d="M681.214 298.514C679.656 300.299 677.36 301.425 674.799 301.423C672.238 301.421 669.94 300.29 668.379 298.503C669.937 296.719 672.233 295.592 674.794 295.594C677.355 295.596 679.653 296.727 681.214 298.514Z" fill="#080708"/>
<path d="M679.659 297.459C680.772 296.043 682.338 294.962 684.217 294.462C688.826 293.234 693.567 295.966 694.806 300.563C697.037 308.837 688.695 318.248 685.493 319.101C682.299 319.951 670.385 315.966 668.117 307.729C668.112 307.711 668.107 307.693 668.102 307.674C666.863 303.077 669.594 298.356 674.203 297.128C676.082 296.628 677.982 296.786 679.659 297.459Z" fill="#F5EEEB" stroke="#080708"/>
<path d="M683.935 309.766C684.644 308.54 685.039 307.157 685.084 305.741C685.129 304.325 684.824 302.92 684.194 301.648C683.564 300.377 682.63 299.28 681.474 298.454C680.318 297.627 678.976 297.098 677.567 296.911C676.158 296.725 674.725 296.888 673.396 297.386C672.066 297.884 670.881 298.701 669.945 299.766C669.009 300.83 668.351 302.109 668.029 303.488C667.708 304.868 667.733 306.305 668.102 307.674" stroke="#080708"/>
<path d="M672.867 310.42C671.945 310.665 670.997 310.119 670.749 309.2C670.501 308.28 671.048 307.336 671.969 307.09" stroke="#080708"/>
<path d="M671.97 307.09L696.171 300.646" stroke="#080708"/>
<path d="M678.467 312.943L681.805 312.054L682.254 313.719C682.501 314.638 681.955 315.582 681.033 315.828C680.112 316.073 679.163 315.527 678.916 314.608L678.467 312.943Z" fill="#F5EEEB" stroke="#080708"/>
<path d="M681.805 312.054L685.143 311.165L685.591 312.83C685.839 313.749 685.293 314.693 684.371 314.939C683.449 315.184 682.501 314.638 682.253 313.719L681.805 312.054Z" fill="#F5EEEB" stroke="#080708"/>
<path d="M685.143 311.165L688.481 310.276L688.93 311.941C689.178 312.86 688.631 313.804 687.71 314.05C686.788 314.295 685.84 313.749 685.592 312.83L685.143 311.165Z" fill="#F5EEEB" stroke="#080708"/>
<ellipse cx="2.59078" cy="2.5862" rx="2.59078" ry="2.5862" transform="matrix(0.966322 -0.257338 0.260303 0.965527 686.735 300.482)" fill="#F5EEEB" stroke="#080708"/>
<ellipse cx="2.59078" cy="2.5862" rx="2.59078" ry="2.5862" transform="matrix(0.966322 -0.257337 0.260303 0.965527 676.721 303.149)" fill="#F5EEEB" stroke="#080708"/>
</g>
<path d="M676.154 353.799C674.937 358.34 670.27 361.035 665.729 359.818C661.188 358.601 658.493 353.933 659.709 349.392L643.265 344.986L624.17 416.247L640.615 420.653C641.832 416.112 646.5 413.417 651.041 414.634C655.582 415.851 658.277 420.518 657.06 425.059L673.505 429.466L692.599 358.205L676.154 353.799Z" fill="#C64677"/>
<g clip-path="url(#clip19_589_18436)">
<ellipse cx="655.807" cy="398.641" rx="8.71354" ry="2.31539" transform="rotate(15 655.807 398.641)" fill="#080708"/>
<path d="M657.515 379.268C658.133 376.97 659.929 375.056 662.4 374.398C664.871 373.74 667.39 374.505 669.081 376.188C668.463 378.485 666.667 380.399 664.196 381.057C661.724 381.715 659.206 380.951 657.515 379.268Z" fill="#C64677" stroke="#080708"/>
<path d="M661.631 377.948C661.484 379.217 661.008 380.122 660.258 380.321C659.509 380.521 658.642 379.975 657.876 378.949C658.023 377.68 658.499 376.775 659.249 376.576C659.998 376.376 660.866 376.922 661.631 377.948Z" fill="#080708"/>
<path d="M659.42 373.708L656.509 372.928C655.109 375.523 656.027 378.778 658.607 380.265C657.348 378.092 657.749 375.419 659.42 373.708Z" fill="#C64677" stroke="#080708"/>
<path d="M645.575 379.649C646.768 377.59 649.001 376.206 651.56 376.209C654.119 376.211 656.354 377.599 657.551 379.66C656.358 381.719 654.125 383.103 651.566 383.101C649.007 383.098 646.772 381.71 645.575 379.649Z" fill="#C64677" stroke="#080708"/>
<path d="M659.182 380.738C657.624 382.523 655.329 383.649 652.767 383.647C650.206 383.645 647.908 382.514 646.347 380.727C647.905 378.943 650.201 377.816 652.762 377.818C655.323 377.82 657.621 378.951 659.182 380.738Z" fill="#080708"/>
<path d="M657.627 379.683C658.74 378.267 660.307 377.186 662.185 376.686C666.794 375.458 671.535 378.19 672.774 382.787C675.005 391.061 666.663 400.472 663.461 401.325C660.267 402.175 648.354 398.19 646.085 389.953C646.08 389.935 646.075 389.917 646.07 389.898C644.831 385.301 647.562 380.58 652.171 379.352C654.05 378.852 655.95 379.01 657.627 379.683Z" fill="#F5EEEB" stroke="#080708"/>
<path d="M661.903 391.99C662.612 390.764 663.007 389.381 663.052 387.965C663.098 386.549 662.792 385.144 662.162 383.872C661.533 382.601 660.598 381.504 659.443 380.678C658.287 379.851 656.945 379.322 655.536 379.136C654.127 378.949 652.694 379.112 651.364 379.61C650.035 380.108 648.849 380.926 647.913 381.99C646.977 383.054 646.319 384.333 645.998 385.712C645.676 387.092 645.701 388.529 646.07 389.898" stroke="#080708"/>
<path d="M650.835 392.644C649.913 392.889 648.965 392.343 648.717 391.424C648.469 390.504 649.016 389.56 649.938 389.314" stroke="#080708"/>
<path d="M649.938 389.314L674.139 382.87" stroke="#080708"/>
<path d="M656.435 395.167L659.773 394.278L660.222 395.943C660.47 396.862 659.923 397.806 659.002 398.052C658.08 398.297 657.132 397.751 656.884 396.832L656.435 395.167Z" fill="#F5EEEB" stroke="#080708"/>
<path d="M659.773 394.278L663.111 393.389L663.56 395.054C663.808 395.973 663.261 396.917 662.34 397.163C661.418 397.408 660.47 396.862 660.222 395.943L659.773 394.278Z" fill="#F5EEEB" stroke="#080708"/>
<path d="M663.111 393.389L666.449 392.5L666.898 394.165C667.146 395.084 666.6 396.029 665.678 396.274C664.756 396.519 663.808 395.973 663.56 395.054L663.111 393.389Z" fill="#F5EEEB" stroke="#080708"/>
<ellipse cx="2.59078" cy="2.5862" rx="2.59078" ry="2.5862" transform="matrix(0.966322 -0.257338 0.260303 0.965527 664.703 382.706)" fill="#F5EEEB" stroke="#080708"/>
<ellipse cx="2.59078" cy="2.5862" rx="2.59078" ry="2.5862" transform="matrix(0.966322 -0.257337 0.260303 0.965527 654.689 385.373)" fill="#F5EEEB" stroke="#080708"/>
</g>
<path d="M758.484 287.731C757.267 292.272 752.599 294.967 748.058 293.75C743.517 292.534 740.822 287.866 742.039 283.325L725.594 278.918L706.5 350.179L722.945 354.586C724.162 350.045 728.829 347.35 733.37 348.566C737.911 349.783 740.606 354.451 739.39 358.992L755.834 363.398L774.929 292.138L758.484 287.731Z" fill="#C64677"/>
<g clip-path="url(#clip20_589_18436)">
<ellipse cx="738.136" cy="332.574" rx="8.71354" ry="2.31539" transform="rotate(15 738.136 332.574)" fill="#080708"/>
<path d="M739.845 313.2C740.462 310.903 742.259 308.989 744.73 308.331C747.201 307.673 749.72 308.437 751.41 310.12C750.793 312.418 748.996 314.332 746.525 314.99C744.054 315.648 741.535 314.883 739.845 313.2Z" fill="#C64677" stroke="#080708"/>
<path d="M743.961 311.881C743.814 313.15 743.337 314.054 742.588 314.254C741.839 314.453 740.971 313.907 740.206 312.882C740.353 311.612 740.829 310.708 741.579 310.508C742.328 310.309 743.195 310.855 743.961 311.881Z" fill="#080708"/>
<path d="M741.749 307.641L738.838 306.861C737.439 309.456 738.357 312.711 740.937 314.197C739.677 312.025 740.079 309.351 741.749 307.641Z" fill="#C64677" stroke="#080708"/>
<path d="M727.904 313.582C729.098 311.523 731.331 310.139 733.89 310.141C736.448 310.144 738.684 311.531 739.881 313.593C738.687 315.652 736.455 317.036 733.896 317.033C731.337 317.031 729.101 315.643 727.904 313.582Z" fill="#C64677" stroke="#080708"/>
<path d="M741.512 314.671C739.954 316.455 737.658 317.582 735.097 317.58C732.536 317.578 730.238 316.447 728.677 314.66C730.235 312.875 732.53 311.748 735.092 311.751C737.653 311.753 739.951 312.884 741.512 314.671Z" fill="#080708"/>
<path d="M739.956 313.616C741.069 312.199 742.636 311.119 744.515 310.618C749.124 309.391 753.865 312.122 755.104 316.719C757.335 324.994 748.993 334.405 745.791 335.257C742.596 336.108 730.683 332.123 728.415 323.886C728.41 323.867 728.405 323.849 728.4 323.831C727.16 319.234 729.892 314.512 734.501 313.285C736.379 312.785 738.28 312.942 739.956 313.616Z" fill="#F5EEEB" stroke="#080708"/>
<path d="M744.232 325.923C744.942 324.696 745.337 323.314 745.382 321.898C745.427 320.482 745.121 319.076 744.492 317.805C743.862 316.534 742.928 315.437 741.772 314.61C740.616 313.784 739.274 313.254 737.865 313.068C736.456 312.882 735.023 313.045 733.694 313.543C732.364 314.041 731.179 314.858 730.243 315.922C729.307 316.987 728.649 318.265 728.327 319.645C728.006 321.024 728.031 322.462 728.4 323.831" stroke="#080708"/>
<path d="M733.165 326.576C732.243 326.822 731.295 326.276 731.047 325.356C730.799 324.437 731.345 323.493 732.267 323.247" stroke="#080708"/>
<path d="M732.268 323.247L756.468 316.802" stroke="#080708"/>
<path d="M738.765 329.1L742.103 328.211L742.551 329.875C742.799 330.795 742.253 331.739 741.331 331.984C740.409 332.23 739.461 331.684 739.213 330.764L738.765 329.1Z" fill="#F5EEEB" stroke="#080708"/>
<path d="M742.102 328.211L745.441 327.322L745.889 328.986C746.137 329.906 745.591 330.85 744.669 331.096C743.747 331.341 742.799 330.795 742.551 329.875L742.102 328.211Z" fill="#F5EEEB" stroke="#080708"/>
<path d="M745.441 327.322L748.779 326.433L749.228 328.097C749.476 329.017 748.929 329.961 748.007 330.207C747.086 330.452 746.138 329.906 745.89 328.986L745.441 327.322Z" fill="#F5EEEB" stroke="#080708"/>
<ellipse cx="2.59078" cy="2.5862" rx="2.59078" ry="2.5862" transform="matrix(0.966322 -0.257338 0.260303 0.965527 747.033 316.639)" fill="#F5EEEB" stroke="#080708"/>
<ellipse cx="2.59078" cy="2.5862" rx="2.59078" ry="2.5862" transform="matrix(0.966322 -0.257337 0.260303 0.965527 737.019 319.305)" fill="#F5EEEB" stroke="#080708"/>
</g>
<path d="M736.452 369.955C735.235 374.496 730.567 377.191 726.026 375.974C721.485 374.758 718.79 370.09 720.007 365.549L703.562 361.143L684.468 432.403L700.913 436.81C702.129 432.269 706.797 429.574 711.338 430.791C715.879 432.007 718.574 436.675 717.357 441.216L733.802 445.622L752.896 374.362L736.452 369.955Z" fill="#C64677"/>
<g clip-path="url(#clip21_589_18436)">
<ellipse cx="716.104" cy="414.798" rx="8.71354" ry="2.31539" transform="rotate(15 716.104 414.798)" fill="#080708"/>
<path d="M717.812 395.424C718.43 393.127 720.227 391.213 722.698 390.555C725.169 389.897 727.687 390.661 729.378 392.344C728.761 394.642 726.964 396.556 724.493 397.214C722.022 397.872 719.503 397.107 717.812 395.424Z" fill="#C64677" stroke="#080708"/>
<path d="M721.929 394.105C721.782 395.374 721.305 396.278 720.556 396.478C719.806 396.677 718.939 396.131 718.174 395.106C718.32 393.836 718.797 392.932 719.546 392.732C720.296 392.533 721.163 393.079 721.929 394.105Z" fill="#080708"/>
<path d="M719.717 389.865L716.806 389.085C715.407 391.68 716.325 394.935 718.905 396.421C717.645 394.249 718.047 391.575 719.717 389.865Z" fill="#C64677" stroke="#080708"/>
<path d="M705.872 395.806C707.066 393.747 709.298 392.363 711.857 392.365C714.416 392.368 716.652 393.756 717.849 395.817C716.655 397.876 714.422 399.26 711.863 399.257C709.305 399.255 707.069 397.867 705.872 395.806Z" fill="#C64677" stroke="#080708"/>
<path d="M719.479 396.895C717.922 398.679 715.626 399.806 713.065 399.804C710.503 399.802 708.206 398.671 706.645 396.884C708.202 395.099 710.498 393.972 713.059 393.975C715.621 393.977 717.919 395.108 719.479 396.895Z" fill="#080708"/>
<path d="M717.924 395.84C719.037 394.423 720.604 393.343 722.483 392.842C727.091 391.615 731.832 394.347 733.072 398.943C735.302 407.218 726.96 416.629 723.759 417.481C720.564 418.332 708.651 414.347 706.382 406.11C706.377 406.092 706.372 406.073 706.367 406.055C705.128 401.458 707.86 396.736 712.469 395.509C714.347 395.009 716.248 395.166 717.924 395.84Z" fill="#F5EEEB" stroke="#080708"/>
<path d="M722.2 408.147C722.91 406.92 723.305 405.538 723.35 404.122C723.395 402.706 723.089 401.3 722.46 400.029C721.83 398.758 720.896 397.661 719.74 396.834C718.584 396.008 717.242 395.478 715.833 395.292C714.424 395.106 712.991 395.269 711.661 395.767C710.332 396.265 709.147 397.082 708.211 398.147C707.274 399.211 706.617 400.489 706.295 401.869C705.974 403.248 705.998 404.686 706.368 406.055" stroke="#080708"/>
<path d="M711.133 408.801C710.211 409.046 709.263 408.5 709.015 407.58C708.767 406.661 709.313 405.717 710.235 405.471" stroke="#080708"/>
<path d="M710.235 405.471L734.436 399.026" stroke="#080708"/>
<path d="M716.732 411.324L720.07 410.435L720.519 412.099C720.767 413.019 720.221 413.963 719.299 414.209C718.377 414.454 717.429 413.908 717.181 412.988L716.732 411.324Z" fill="#F5EEEB" stroke="#080708"/>
<path d="M720.07 410.435L723.408 409.546L723.857 411.21C724.105 412.13 723.559 413.074 722.637 413.32C721.715 413.565 720.767 413.019 720.519 412.099L720.07 410.435Z" fill="#F5EEEB" stroke="#080708"/>
<path d="M723.409 409.546L726.747 408.657L727.195 410.321C727.443 411.241 726.897 412.185 725.975 412.431C725.053 412.676 724.105 412.13 723.857 411.21L723.409 409.546Z" fill="#F5EEEB" stroke="#080708"/>
<ellipse cx="2.59078" cy="2.5862" rx="2.59078" ry="2.5862" transform="matrix(0.966322 -0.257338 0.260303 0.965527 725 398.863)" fill="#F5EEEB" stroke="#080708"/>
<ellipse cx="2.59078" cy="2.5862" rx="2.59078" ry="2.5862" transform="matrix(0.966322 -0.257337 0.260303 0.965527 714.986 401.529)" fill="#F5EEEB" stroke="#080708"/>
</g>
<path d="M818.781 303.888C817.564 308.429 812.897 311.124 808.356 309.907C803.815 308.69 801.12 304.023 802.336 299.482L785.892 295.075L766.797 366.336L783.242 370.742C784.459 366.201 789.127 363.506 793.668 364.723C798.209 365.94 800.904 370.608 799.687 375.149L816.132 379.555L835.226 308.294L818.781 303.888Z" fill="#C64677"/>
<g clip-path="url(#clip22_589_18436)">
<ellipse cx="798.434" cy="348.731" rx="8.71354" ry="2.31539" transform="rotate(15 798.434 348.731)" fill="#080708"/>
<path d="M800.142 329.357C800.76 327.059 802.556 325.146 805.027 324.488C807.498 323.829 810.017 324.594 811.708 326.277C811.09 328.575 809.294 330.488 806.822 331.146C804.351 331.804 801.833 331.04 800.142 329.357Z" fill="#C64677" stroke="#080708"/>
<path d="M804.258 328.037C804.111 329.306 803.635 330.211 802.885 330.411C802.136 330.61 801.269 330.064 800.503 329.038C800.65 327.769 801.126 326.865 801.876 326.665C802.625 326.465 803.493 327.012 804.258 328.037Z" fill="#080708"/>
<path d="M802.047 323.797L799.136 323.017C797.736 325.613 798.654 328.867 801.234 330.354C799.975 328.181 800.376 325.508 802.047 323.797Z" fill="#C64677" stroke="#080708"/>
<path d="M788.202 329.739C789.395 327.68 791.628 326.296 794.187 326.298C796.746 326.3 798.981 327.688 800.178 329.749C798.985 331.808 796.752 333.192 794.193 333.19C791.634 333.188 789.399 331.8 788.202 329.739Z" fill="#C64677" stroke="#080708"/>
<path d="M801.809 330.828C800.251 332.612 797.956 333.739 795.394 333.737C792.833 333.734 790.535 332.603 788.974 330.816C790.532 329.032 792.828 327.905 795.389 327.907C797.95 327.91 800.248 329.041 801.809 330.828Z" fill="#080708"/>
<path d="M800.254 329.772C801.367 328.356 802.934 327.275 804.812 326.775C809.421 325.548 814.162 328.279 815.401 332.876C817.632 341.151 809.29 350.561 806.088 351.414C802.894 352.265 790.981 348.28 788.712 340.042C788.707 340.024 788.702 340.006 788.697 339.988C787.458 335.391 790.189 330.669 794.798 329.442C796.677 328.942 798.577 329.099 800.254 329.772Z" fill="#F5EEEB" stroke="#080708"/>
<path d="M804.53 342.079C805.239 340.853 805.634 339.471 805.679 338.055C805.725 336.639 805.419 335.233 804.789 333.962C804.16 332.691 803.225 331.593 802.069 330.767C800.914 329.941 799.572 329.411 798.163 329.225C796.753 329.039 795.321 329.202 793.991 329.7C792.661 330.198 791.476 331.015 790.54 332.079C789.604 333.144 788.946 334.422 788.625 335.802C788.303 337.181 788.328 338.619 788.697 339.988" stroke="#080708"/>
<path d="M793.462 342.733C792.54 342.979 791.592 342.432 791.344 341.513C791.096 340.594 791.643 339.649 792.565 339.404" stroke="#080708"/>
<path d="M792.565 339.404L816.766 332.959" stroke="#080708"/>
<path d="M799.062 345.256L802.4 344.367L802.849 346.032C803.097 346.951 802.55 347.896 801.629 348.141C800.707 348.387 799.759 347.84 799.511 346.921L799.062 345.256Z" fill="#F5EEEB" stroke="#080708"/>
<path d="M802.4 344.367L805.738 343.478L806.187 345.143C806.435 346.063 805.888 347.007 804.966 347.252C804.045 347.498 803.097 346.951 802.849 346.032L802.4 344.367Z" fill="#F5EEEB" stroke="#080708"/>
<path d="M805.738 343.478L809.076 342.589L809.525 344.254C809.773 345.174 809.227 346.118 808.305 346.363C807.383 346.609 806.435 346.062 806.187 345.143L805.738 343.478Z" fill="#F5EEEB" stroke="#080708"/>
<ellipse cx="2.59078" cy="2.5862" rx="2.59078" ry="2.5862" transform="matrix(0.966322 -0.257338 0.260303 0.965527 807.33 332.795)" fill="#F5EEEB" stroke="#080708"/>
<ellipse cx="2.59078" cy="2.5862" rx="2.59078" ry="2.5862" transform="matrix(0.966322 -0.257337 0.260303 0.965527 797.316 335.462)" fill="#F5EEEB" stroke="#080708"/>
</g>
<path d="M796.749 386.112C795.533 390.653 790.865 393.348 786.324 392.131C781.783 390.914 779.088 386.247 780.305 381.706L763.86 377.299L744.766 448.56L761.21 452.966C762.427 448.425 767.095 445.73 771.636 446.947C776.177 448.164 778.872 452.832 777.655 457.373L794.1 461.779L813.194 390.518L796.749 386.112Z" fill="#C64677"/>
<g clip-path="url(#clip23_589_18436)">
<ellipse cx="776.402" cy="430.955" rx="8.71354" ry="2.31539" transform="rotate(15 776.402 430.955)" fill="#080708"/>
<path d="M778.11 411.581C778.728 409.283 780.524 407.37 782.996 406.712C785.467 406.053 787.985 406.818 789.676 408.501C789.058 410.799 787.262 412.712 784.791 413.37C782.32 414.028 779.801 413.264 778.11 411.581Z" fill="#C64677" stroke="#080708"/>
<path d="M782.226 410.261C782.08 411.53 781.603 412.435 780.854 412.635C780.104 412.834 779.237 412.288 778.471 411.262C778.618 409.993 779.095 409.089 779.844 408.889C780.593 408.689 781.461 409.236 782.226 410.261Z" fill="#080708"/>
<path d="M780.015 406.021L777.104 405.241C775.705 407.837 776.622 411.091 779.203 412.578C777.943 410.405 778.344 407.732 780.015 406.021Z" fill="#C64677" stroke="#080708"/>
<path d="M766.17 411.963C767.363 409.904 769.596 408.52 772.155 408.522C774.714 408.524 776.949 409.912 778.147 411.973C776.953 414.032 774.72 415.416 772.161 415.414C769.602 415.412 767.367 414.024 766.17 411.963Z" fill="#C64677" stroke="#080708"/>
<path d="M779.777 413.052C778.22 414.836 775.924 415.963 773.363 415.961C770.801 415.958 768.503 414.827 766.943 413.04C768.5 411.256 770.796 410.129 773.357 410.131C775.919 410.134 778.216 411.265 779.777 413.052Z" fill="#080708"/>
<path d="M778.222 411.996C779.335 410.58 780.902 409.499 782.78 408.999C787.389 407.772 792.13 410.503 793.37 415.1C795.6 423.375 787.258 432.785 784.057 433.638C780.862 434.489 768.949 430.504 766.68 422.266C766.675 422.248 766.67 422.23 766.665 422.212C765.426 417.615 768.158 412.893 772.766 411.666C774.645 411.165 776.546 411.323 778.222 411.996Z" fill="#F5EEEB" stroke="#080708"/>
<path d="M782.498 424.303C783.208 423.077 783.602 421.695 783.648 420.279C783.693 418.863 783.387 417.457 782.757 416.186C782.128 414.915 781.194 413.817 780.038 412.991C778.882 412.165 777.54 411.635 776.131 411.449C774.722 411.263 773.289 411.426 771.959 411.924C770.63 412.422 769.444 413.239 768.508 414.303C767.572 415.368 766.914 416.646 766.593 418.026C766.271 419.405 766.296 420.843 766.665 422.212" stroke="#080708"/>
<path d="M771.43 424.957C770.509 425.203 769.56 424.656 769.313 423.737C769.065 422.818 769.611 421.873 770.533 421.628" stroke="#080708"/>
<path d="M770.533 421.628L794.734 415.183" stroke="#080708"/>
<path d="M777.03 427.48L780.368 426.591L780.817 428.256C781.065 429.175 780.519 430.12 779.597 430.365C778.675 430.611 777.727 430.064 777.479 429.145L777.03 427.48Z" fill="#F5EEEB" stroke="#080708"/>
<path d="M780.368 426.591L783.706 425.702L784.155 427.367C784.403 428.287 783.857 429.231 782.935 429.476C782.013 429.722 781.065 429.175 780.817 428.256L780.368 426.591Z" fill="#F5EEEB" stroke="#080708"/>
<path d="M783.707 425.702L787.045 424.813L787.493 426.478C787.741 427.398 787.195 428.342 786.273 428.587C785.351 428.833 784.403 428.286 784.155 427.367L783.707 425.702Z" fill="#F5EEEB" stroke="#080708"/>
<ellipse cx="2.59078" cy="2.5862" rx="2.59078" ry="2.5862" transform="matrix(0.966322 -0.257338 0.260303 0.965527 785.298 415.019)" fill="#F5EEEB" stroke="#080708"/>
<ellipse cx="2.59078" cy="2.5862" rx="2.59078" ry="2.5862" transform="matrix(0.966322 -0.257337 0.260303 0.965527 775.284 417.686)" fill="#F5EEEB" stroke="#080708"/>
</g>
<path d="M655.977 253.691L665.636 256.279" stroke="black"/>
<path d="M662.101 250.155L659.512 259.814" stroke="black"/>
<path d="M633.945 335.915L643.604 338.503" stroke="black"/>
<path d="M640.068 332.379L637.48 342.038" stroke="black"/>
<path d="M716.274 269.847L725.934 272.436" stroke="black"/>
<path d="M722.398 266.312L719.81 275.971" stroke="black"/>
<path d="M694.243 352.071L703.902 354.66" stroke="black"/>
<path d="M700.366 348.536L697.778 358.195" stroke="black"/>
<path d="M776.572 286.004L786.232 288.592" stroke="black"/>
<path d="M782.696 282.468L780.108 292.128" stroke="black"/>
<path d="M754.541 368.228L764.2 370.816" stroke="black"/>
<path d="M760.664 364.693L758.076 374.352" stroke="black"/>
<path d="M616.068 161.443L605.104 158.506L541.946 394.215L552.91 397.152" stroke="#C64677"/>
<path d="M868.221 229.008L879.185 231.945L816.027 467.654L805.063 464.717" stroke="#C64677"/>
<path d="M562.416 273.971L573.379 276.908" stroke="#C64677"/>
</g>
<defs>
<clipPath id="clip0_589_18436">
<rect width="880" height="469" fill="white"/>
</clipPath>
<clipPath id="clip1_589_18436">
<rect width="23.4938" height="23.042" fill="white" transform="translate(36.1416 163.529) rotate(45)"/>
</clipPath>
<clipPath id="clip2_589_18436">
<rect width="32.872" height="32.2399" fill="white" transform="translate(28.9824 42.4305) rotate(-15)"/>
</clipPath>
<clipPath id="clip3_589_18436">
<rect width="29.891" height="29.3161" fill="white" transform="translate(50.6133 215.876) rotate(30)"/>
</clipPath>
<clipPath id="clip4_589_18436">
<rect width="40.4036" height="39.6266" fill="white" transform="translate(75.9639 104.091) rotate(15)"/>
</clipPath>
<clipPath id="clip5_589_18436">
<rect width="35.4852" height="34.8028" fill="white" transform="translate(156.536 148.274) rotate(-30)"/>
</clipPath>
<clipPath id="clip6_589_18436">
<rect width="37.9545" height="37.2246" fill="white" transform="translate(117.935 56.7725) rotate(-45)"/>
</clipPath>
<clipPath id="clip7_589_18436">
<rect width="26.4954" height="25.9859" fill="white" transform="translate(128.417 256.411) rotate(45)"/>
</clipPath>
<clipPath id="clip8_589_18436">
<rect width="26.4954" height="25.9859" fill="white" transform="translate(51.6323 281.897) rotate(45)"/>
</clipPath>
<clipPath id="clip9_589_18436">
<rect width="29.5529" height="28.9846" fill="white" transform="translate(160.206 204.308) rotate(45)"/>
</clipPath>
<clipPath id="clip10_589_18436">
<rect width="40.4036" height="39.6266" fill="white" transform="translate(116.138 177.624) rotate(30)"/>
</clipPath>
<clipPath id="clip11_589_18436">
<rect width="40.4036" height="39.6266" fill="white" transform="translate(34.9365 146.826) rotate(-30)"/>
</clipPath>
<clipPath id="clip12_589_18436">
<rect width="29.5099" height="28.9424" fill="white" transform="translate(631.717 188.55) rotate(15)"/>
</clipPath>
<clipPath id="clip13_589_18436">
<rect width="29.5099" height="28.9424" fill="white" transform="translate(692.015 204.707) rotate(15)"/>
</clipPath>
<clipPath id="clip14_589_18436">
<rect width="29.5099" height="28.9424" fill="white" transform="translate(752.312 220.863) rotate(15)"/>
</clipPath>
<clipPath id="clip15_589_18436">
<rect width="29.5099" height="28.9424" fill="white" transform="translate(812.61 237.02) rotate(15)"/>
</clipPath>
<clipPath id="clip16_589_18436">
<rect width="29.5099" height="28.9424" fill="white" transform="translate(609.686 270.774) rotate(15)"/>
</clipPath>
<clipPath id="clip17_589_18436">
<rect width="29.5099" height="28.9424" fill="white" transform="translate(587.653 352.998) rotate(15)"/>
</clipPath>
<clipPath id="clip18_589_18436">
<rect width="29.5099" height="28.9424" fill="white" transform="translate(669.983 286.931) rotate(15)"/>
</clipPath>
<clipPath id="clip19_589_18436">
<rect width="29.5099" height="28.9424" fill="white" transform="translate(647.951 369.155) rotate(15)"/>
</clipPath>
<clipPath id="clip20_589_18436">
<rect width="29.5099" height="28.9424" fill="white" transform="translate(730.281 303.087) rotate(15)"/>
</clipPath>
<clipPath id="clip21_589_18436">
<rect width="29.5099" height="28.9424" fill="white" transform="translate(708.249 385.311) rotate(15)"/>
</clipPath>
<clipPath id="clip22_589_18436">
<rect width="29.5099" height="28.9424" fill="white" transform="translate(790.578 319.244) rotate(15)"/>
</clipPath>
<clipPath id="clip23_589_18436">
<rect width="29.5099" height="28.9424" fill="white" transform="translate(768.546 401.468) rotate(15)"/>
</clipPath>
</defs>
</svg>
