<svg width="1000" height="1600" viewBox="0 0 1000 1600" fill="none" xmlns="http://www.w3.org/2000/svg">
<g clip-path="url(#clip0_491_13740)">
<path opacity="0.25" d="M0 50H1000" stroke="#F5EEEB"/>
<path opacity="0.25" d="M3 325H1003" stroke="#F5EEEB"/>
<rect x="65" y="95" width="150" height="150" rx="75" fill="#F5EEEB"/>
<path d="M125.793 155.168C125.028 155.168 124.36 155.019 123.791 154.72C123.222 154.412 122.778 153.987 122.461 153.446C122.144 152.895 121.985 152.256 121.985 151.528V145.228H123.483V151.528C123.483 152.004 123.576 152.419 123.763 152.774C123.959 153.129 124.23 153.404 124.575 153.6C124.92 153.796 125.326 153.894 125.793 153.894C126.26 153.894 126.661 153.796 126.997 153.6C127.342 153.404 127.608 153.129 127.795 152.774C127.991 152.419 128.089 152.004 128.089 151.528V145.228H129.587V151.528C129.587 152.256 129.428 152.895 129.111 153.446C128.794 153.987 128.35 154.412 127.781 154.72C127.221 155.019 126.558 155.168 125.793 155.168ZM135.305 155.168C134.549 155.168 133.891 155.023 133.331 154.734C132.771 154.445 132.337 154.029 132.029 153.488C131.721 152.947 131.567 152.289 131.567 151.514H133.037C133.037 152.279 133.237 152.872 133.639 153.292C134.04 153.703 134.591 153.908 135.291 153.908C135.888 153.908 136.369 153.773 136.733 153.502C137.097 153.222 137.279 152.835 137.279 152.34C137.279 152.004 137.176 151.733 136.971 151.528C136.775 151.323 136.509 151.155 136.173 151.024C135.846 150.893 135.487 150.777 135.095 150.674C134.703 150.571 134.306 150.459 133.905 150.338C133.513 150.207 133.149 150.044 132.813 149.848C132.486 149.652 132.22 149.391 132.015 149.064C131.819 148.737 131.721 148.322 131.721 147.818C131.721 147.286 131.861 146.815 132.141 146.404C132.43 145.984 132.827 145.657 133.331 145.424C133.844 145.181 134.446 145.06 135.137 145.06C135.809 145.06 136.411 145.186 136.943 145.438C137.475 145.681 137.899 146.031 138.217 146.488C138.543 146.936 138.711 147.477 138.721 148.112H137.237C137.227 147.739 137.125 147.421 136.929 147.16C136.742 146.889 136.49 146.684 136.173 146.544C135.865 146.395 135.519 146.32 135.137 146.32C134.586 146.32 134.138 146.451 133.793 146.712C133.447 146.973 133.275 147.328 133.275 147.776C133.275 148.093 133.373 148.345 133.569 148.532C133.774 148.719 134.04 148.873 134.367 148.994C134.703 149.106 135.067 149.213 135.459 149.316C135.86 149.409 136.257 149.521 136.649 149.652C137.041 149.773 137.4 149.941 137.727 150.156C138.063 150.361 138.329 150.641 138.525 150.996C138.73 151.341 138.833 151.785 138.833 152.326C138.833 152.905 138.679 153.409 138.371 153.838C138.063 154.258 137.643 154.585 137.111 154.818C136.579 155.051 135.977 155.168 135.305 155.168ZM141.162 155V145.228H148.176V146.488H142.646V149.302H146.454V150.562H142.646V153.74H148.232V155H141.162ZM151.639 150.912V149.652H154.117C154.528 149.652 154.887 149.587 155.195 149.456C155.513 149.316 155.76 149.12 155.937 148.868C156.124 148.616 156.217 148.327 156.217 148C156.217 147.683 156.138 147.412 155.979 147.188C155.821 146.964 155.606 146.791 155.335 146.67C155.065 146.549 154.761 146.488 154.425 146.488H151.639V145.228H154.425C155.069 145.228 155.643 145.34 156.147 145.564C156.651 145.779 157.048 146.091 157.337 146.502C157.627 146.913 157.771 147.412 157.771 148C157.771 148.373 157.683 148.733 157.505 149.078C157.337 149.423 157.09 149.736 156.763 150.016C156.446 150.287 156.059 150.506 155.601 150.674C155.144 150.833 154.626 150.912 154.047 150.912H151.639ZM150.575 155V145.228H152.059V155H150.575ZM156.189 155C156.133 154.561 156.012 154.127 155.825 153.698C155.648 153.269 155.405 152.858 155.097 152.466C154.789 152.074 154.407 151.71 153.949 151.374C153.501 151.038 152.979 150.735 152.381 150.464L154.033 150.1C154.649 150.408 155.177 150.753 155.615 151.136C156.063 151.509 156.432 151.906 156.721 152.326C157.02 152.746 157.244 153.18 157.393 153.628C157.552 154.076 157.655 154.533 157.701 155H156.189ZM98.9274 175V165.228H105.941V166.488H100.411V169.302H104.219V170.562H100.411V173.74H105.997V175H98.9274ZM108.089 175V165.228H109.937L114.011 173.068L113.899 170.044V165.228H115.327V175H113.493L109.391 167.244L109.517 170.17V175H108.089ZM120.344 175V166.488H117.194V165.228H124.978V166.488H121.828V175H120.344ZM127.084 175V165.228H134.098V166.488H128.568V169.302H132.376V170.562H128.568V173.74H134.154V175H127.084ZM137.561 170.912V169.652H140.039C140.45 169.652 140.809 169.587 141.117 169.456C141.435 169.316 141.682 169.12 141.859 168.868C142.046 168.616 142.139 168.327 142.139 168C142.139 167.683 142.06 167.412 141.901 167.188C141.743 166.964 141.528 166.791 141.257 166.67C140.987 166.549 140.683 166.488 140.347 166.488H137.561V165.228H140.347C140.991 165.228 141.565 165.34 142.069 165.564C142.573 165.779 142.97 166.091 143.259 166.502C143.549 166.913 143.693 167.412 143.693 168C143.693 168.373 143.605 168.733 143.427 169.078C143.259 169.423 143.012 169.736 142.685 170.016C142.368 170.287 141.981 170.506 141.523 170.674C141.066 170.833 140.548 170.912 139.969 170.912H137.561ZM136.497 175V165.228H137.981V175H136.497ZM142.111 175C142.055 174.561 141.934 174.127 141.747 173.698C141.57 173.269 141.327 172.858 141.019 172.466C140.711 172.074 140.329 171.71 139.871 171.374C139.423 171.038 138.901 170.735 138.303 170.464L139.955 170.1C140.571 170.408 141.099 170.753 141.537 171.136C141.985 171.509 142.354 171.906 142.643 172.326C142.942 172.746 143.166 173.18 143.315 173.628C143.474 174.076 143.577 174.533 143.623 175H142.111ZM149.383 175.168C148.627 175.168 147.969 175.023 147.409 174.734C146.849 174.445 146.415 174.029 146.107 173.488C145.799 172.947 145.645 172.289 145.645 171.514H147.115C147.115 172.279 147.315 172.872 147.717 173.292C148.118 173.703 148.669 173.908 149.369 173.908C149.966 173.908 150.447 173.773 150.811 173.502C151.175 173.222 151.357 172.835 151.357 172.34C151.357 172.004 151.254 171.733 151.049 171.528C150.853 171.323 150.587 171.155 150.251 171.024C149.924 170.893 149.565 170.777 149.173 170.674C148.781 170.571 148.384 170.459 147.983 170.338C147.591 170.207 147.227 170.044 146.891 169.848C146.564 169.652 146.298 169.391 146.093 169.064C145.897 168.737 145.799 168.322 145.799 167.818C145.799 167.286 145.939 166.815 146.219 166.404C146.508 165.984 146.905 165.657 147.409 165.424C147.922 165.181 148.524 165.06 149.215 165.06C149.887 165.06 150.489 165.186 151.021 165.438C151.553 165.681 151.977 166.031 152.295 166.488C152.621 166.936 152.789 167.477 152.799 168.112H151.315C151.305 167.739 151.203 167.421 151.007 167.16C150.82 166.889 150.568 166.684 150.251 166.544C149.943 166.395 149.597 166.32 149.215 166.32C148.664 166.32 148.216 166.451 147.871 166.712C147.525 166.973 147.353 167.328 147.353 167.776C147.353 168.093 147.451 168.345 147.647 168.532C147.852 168.719 148.118 168.873 148.445 168.994C148.781 169.106 149.145 169.213 149.537 169.316C149.938 169.409 150.335 169.521 150.727 169.652C151.119 169.773 151.478 169.941 151.805 170.156C152.141 170.361 152.407 170.641 152.603 170.996C152.808 171.341 152.911 171.785 152.911 172.326C152.911 172.905 152.757 173.409 152.449 173.838C152.141 174.258 151.721 174.585 151.189 174.818C150.657 175.051 150.055 175.168 149.383 175.168ZM163.828 175L164.556 165.228H166.502L167.748 171.01L168.042 172.914L168.35 171.01L169.568 165.228H171.486L172.228 175H170.758L170.436 168.882L170.38 166.726L169.96 168.882L168.63 175H167.37L166.054 168.882L165.662 166.698L165.578 168.882L165.27 175H163.828ZM176.629 175V171.038L173.395 165.228H175.019L176.531 167.916L177.399 169.75L178.281 167.902L179.793 165.228H181.403L178.113 171.038V175H176.629ZM111.099 195V186.488H107.949V185.228H115.733V186.488H112.583V195H111.099ZM120.484 195V185.228H121.968V195H120.484ZM118.034 185.228H124.404V186.488H118.034V185.228ZM118.034 193.74H124.404V195H118.034V193.74ZM130.78 195.168C129.921 195.168 129.174 194.953 128.54 194.524C127.914 194.085 127.429 193.488 127.084 192.732C126.748 191.967 126.58 191.089 126.58 190.1C126.58 189.073 126.757 188.182 127.112 187.426C127.466 186.67 127.961 186.087 128.596 185.676C129.24 185.265 129.986 185.06 130.836 185.06C131.517 185.06 132.133 185.195 132.684 185.466C133.244 185.727 133.696 186.11 134.042 186.614C134.396 187.109 134.602 187.701 134.658 188.392H133.034C132.959 187.767 132.726 187.267 132.334 186.894C131.942 186.511 131.438 186.32 130.822 186.32C130.29 186.32 129.818 186.474 129.408 186.782C129.006 187.081 128.694 187.515 128.47 188.084C128.246 188.653 128.134 189.33 128.134 190.114C128.134 190.898 128.246 191.575 128.47 192.144C128.703 192.713 129.02 193.152 129.422 193.46C129.823 193.759 130.276 193.908 130.78 193.908C131.218 193.908 131.601 193.819 131.928 193.642C132.254 193.455 132.516 193.199 132.712 192.872C132.917 192.545 133.038 192.163 133.076 191.724H134.714C134.648 192.415 134.448 193.021 134.112 193.544C133.776 194.057 133.323 194.459 132.754 194.748C132.194 195.028 131.536 195.168 130.78 195.168ZM136.553 195V185.228H138.037V187.748L137.939 189.624L139.339 188.028L141.985 185.228H143.833L138.037 191.528V195H136.553ZM142.391 195L138.765 189.526L140.011 188.756L144.169 195H142.391ZM145.995 195V185.228H153.009V186.488H147.479V189.302H151.287V190.562H147.479V193.74H153.065V195H145.995ZM158.026 195V186.488H154.876V185.228H162.66V186.488H159.51V195H158.026ZM168.294 195.168C167.538 195.168 166.88 195.023 166.32 194.734C165.76 194.445 165.326 194.029 165.018 193.488C164.71 192.947 164.556 192.289 164.556 191.514H166.026C166.026 192.279 166.226 192.872 166.628 193.292C167.029 193.703 167.58 193.908 168.28 193.908C168.877 193.908 169.358 193.773 169.722 193.502C170.086 193.222 170.268 192.835 170.268 192.34C170.268 192.004 170.165 191.733 169.96 191.528C169.764 191.323 169.498 191.155 169.162 191.024C168.835 190.893 168.476 190.777 168.084 190.674C167.692 190.571 167.295 190.459 166.894 190.338C166.502 190.207 166.138 190.044 165.802 189.848C165.475 189.652 165.209 189.391 165.004 189.064C164.808 188.737 164.71 188.322 164.71 187.818C164.71 187.286 164.85 186.815 165.13 186.404C165.419 185.984 165.816 185.657 166.32 185.424C166.833 185.181 167.435 185.06 168.126 185.06C168.798 185.06 169.4 185.186 169.932 185.438C170.464 185.681 170.888 186.031 171.206 186.488C171.532 186.936 171.7 187.477 171.71 188.112H170.226C170.216 187.739 170.114 187.421 169.918 187.16C169.731 186.889 169.479 186.684 169.162 186.544C168.854 186.395 168.508 186.32 168.126 186.32C167.575 186.32 167.127 186.451 166.782 186.712C166.436 186.973 166.264 187.328 166.264 187.776C166.264 188.093 166.362 188.345 166.558 188.532C166.763 188.719 167.029 188.873 167.356 188.994C167.692 189.106 168.056 189.213 168.448 189.316C168.849 189.409 169.246 189.521 169.638 189.652C170.03 189.773 170.389 189.941 170.716 190.156C171.052 190.361 171.318 190.641 171.514 190.996C171.719 191.341 171.822 191.785 171.822 192.326C171.822 192.905 171.668 193.409 171.36 193.838C171.052 194.258 170.632 194.585 170.1 194.818C169.568 195.051 168.966 195.168 168.294 195.168Z" fill="#080708"/>
<rect x="305" y="95" width="150" height="150" rx="5" fill="#F5EEEB"/>
<path d="M357.698 165V155.228H364.712V156.488H359.182V159.302H362.99V160.562H359.182V163.74H364.768V165H357.698ZM369.408 165L366.356 155.228H367.91L369.968 161.64L370.5 163.754L371.018 161.654L373.09 155.228H374.602L371.55 165H369.408ZM376.469 165V155.228H383.483V156.488H377.953V159.302H381.761V160.562H377.953V163.74H383.539V165H376.469ZM385.631 165V155.228H387.479L391.553 163.068L391.441 160.044V155.228H392.869V165H391.035L386.933 157.244L387.059 160.17V165H385.631ZM397.886 165V156.488H394.736V155.228H402.52V156.488H399.37V165H397.886ZM348.257 185V175.228H351.267C351.976 175.228 352.616 175.345 353.185 175.578C353.754 175.802 354.24 176.129 354.641 176.558C355.042 176.978 355.35 177.487 355.565 178.084C355.78 178.681 355.887 179.349 355.887 180.086C355.887 180.833 355.78 181.509 355.565 182.116C355.35 182.713 355.042 183.231 354.641 183.67C354.24 184.099 353.754 184.431 353.185 184.664C352.616 184.888 351.976 185 351.267 185H348.257ZM349.741 183.74H351.267C351.902 183.74 352.448 183.591 352.905 183.292C353.362 182.984 353.712 182.555 353.955 182.004C354.207 181.453 354.333 180.814 354.333 180.086C354.333 179.349 354.207 178.714 353.955 178.182C353.712 177.641 353.362 177.225 352.905 176.936C352.448 176.637 351.902 176.488 351.267 176.488H349.741V183.74ZM357.838 185V175.228H364.852V176.488H359.322V179.302H363.13V180.562H359.322V183.74H364.908V185H357.838ZM369.87 185V176.488H366.72V175.228H374.504V176.488H371.354V185H369.87ZM377.365 182.536V181.276H382.783V182.536H377.365ZM378.933 175.228H381.061L384.085 185H382.559L380.585 178.532L379.997 176.39L379.409 178.546L377.407 185H375.909L378.933 175.228ZM388.641 185V175.228H390.125V185H388.641ZM386.191 175.228H392.561V176.488H386.191V175.228ZM386.191 183.74H392.561V185H386.191V183.74ZM395.758 185V175.228H397.242V183.74H402.366V185H395.758ZM408.294 185.168C407.538 185.168 406.88 185.023 406.32 184.734C405.76 184.445 405.326 184.029 405.018 183.488C404.71 182.947 404.556 182.289 404.556 181.514H406.026C406.026 182.279 406.226 182.872 406.628 183.292C407.029 183.703 407.58 183.908 408.28 183.908C408.877 183.908 409.358 183.773 409.722 183.502C410.086 183.222 410.268 182.835 410.268 182.34C410.268 182.004 410.165 181.733 409.96 181.528C409.764 181.323 409.498 181.155 409.162 181.024C408.835 180.893 408.476 180.777 408.084 180.674C407.692 180.571 407.295 180.459 406.894 180.338C406.502 180.207 406.138 180.044 405.802 179.848C405.475 179.652 405.209 179.391 405.004 179.064C404.808 178.737 404.71 178.322 404.71 177.818C404.71 177.286 404.85 176.815 405.13 176.404C405.419 175.984 405.816 175.657 406.32 175.424C406.833 175.181 407.435 175.06 408.126 175.06C408.798 175.06 409.4 175.186 409.932 175.438C410.464 175.681 410.888 176.031 411.206 176.488C411.532 176.936 411.7 177.477 411.71 178.112H410.226C410.216 177.739 410.114 177.421 409.918 177.16C409.731 176.889 409.479 176.684 409.162 176.544C408.854 176.395 408.508 176.32 408.126 176.32C407.575 176.32 407.127 176.451 406.782 176.712C406.436 176.973 406.264 177.328 406.264 177.776C406.264 178.093 406.362 178.345 406.558 178.532C406.763 178.719 407.029 178.873 407.356 178.994C407.692 179.106 408.056 179.213 408.448 179.316C408.849 179.409 409.246 179.521 409.638 179.652C410.03 179.773 410.389 179.941 410.716 180.156C411.052 180.361 411.318 180.641 411.514 180.996C411.719 181.341 411.822 181.785 411.822 182.326C411.822 182.905 411.668 183.409 411.36 183.838C411.052 184.258 410.632 184.585 410.1 184.818C409.568 185.051 408.966 185.168 408.294 185.168Z" fill="#080708"/>
<rect x="545" y="670" width="150" height="150" rx="5" fill="#F5EEEB"/>
<path d="M596.534 730.168C595.778 730.168 595.12 730.023 594.56 729.734C594 729.445 593.566 729.029 593.258 728.488C592.95 727.947 592.796 727.289 592.796 726.514H594.266C594.266 727.279 594.466 727.872 594.868 728.292C595.269 728.703 595.82 728.908 596.52 728.908C597.117 728.908 597.598 728.773 597.962 728.502C598.326 728.222 598.508 727.835 598.508 727.34C598.508 727.004 598.405 726.733 598.2 726.528C598.004 726.323 597.738 726.155 597.402 726.024C597.075 725.893 596.716 725.777 596.324 725.674C595.932 725.571 595.535 725.459 595.134 725.338C594.742 725.207 594.378 725.044 594.042 724.848C593.715 724.652 593.449 724.391 593.244 724.064C593.048 723.737 592.95 723.322 592.95 722.818C592.95 722.286 593.09 721.815 593.37 721.404C593.659 720.984 594.056 720.657 594.56 720.424C595.073 720.181 595.675 720.06 596.366 720.06C597.038 720.06 597.64 720.186 598.172 720.438C598.704 720.681 599.128 721.031 599.446 721.488C599.772 721.936 599.94 722.477 599.95 723.112H598.466C598.456 722.739 598.354 722.421 598.158 722.16C597.971 721.889 597.719 721.684 597.402 721.544C597.094 721.395 596.748 721.32 596.366 721.32C595.815 721.32 595.367 721.451 595.022 721.712C594.676 721.973 594.504 722.328 594.504 722.776C594.504 723.093 594.602 723.345 594.798 723.532C595.003 723.719 595.269 723.873 595.596 723.994C595.932 724.106 596.296 724.213 596.688 724.316C597.089 724.409 597.486 724.521 597.878 724.652C598.27 724.773 598.629 724.941 598.956 725.156C599.292 725.361 599.558 725.641 599.754 725.996C599.959 726.341 600.062 726.785 600.062 727.326C600.062 727.905 599.908 728.409 599.6 728.838C599.292 729.258 598.872 729.585 598.34 729.818C597.808 730.051 597.206 730.168 596.534 730.168ZM605.037 730V720.228H606.521V730H605.037ZM602.587 720.228H608.957V721.488H602.587V720.228ZM602.587 728.74H608.957V730H602.587V728.74ZM611.553 730V720.228H613.401L617.475 728.068L617.363 725.044V720.228H618.791V730H616.957L612.855 722.244L612.981 725.17V730H611.553ZM624.746 730.168C623.878 730.168 623.122 729.958 622.478 729.538C621.834 729.118 621.33 728.53 620.966 727.774C620.611 727.018 620.434 726.131 620.434 725.114C620.434 724.106 620.616 723.224 620.98 722.468C621.344 721.712 621.853 721.124 622.506 720.704C623.159 720.275 623.92 720.06 624.788 720.06C625.46 720.06 626.062 720.191 626.594 720.452C627.135 720.713 627.574 721.091 627.91 721.586C628.246 722.081 628.442 722.678 628.498 723.378H626.86C626.785 722.753 626.561 722.253 626.188 721.88C625.824 721.507 625.348 721.32 624.76 721.32C624.237 721.32 623.766 721.474 623.346 721.782C622.935 722.081 622.609 722.515 622.366 723.084C622.123 723.644 622.002 724.321 622.002 725.114C622.002 725.926 622.123 726.617 622.366 727.186C622.618 727.746 622.959 728.175 623.388 728.474C623.827 728.763 624.317 728.908 624.858 728.908C625.334 728.908 625.754 728.824 626.118 728.656C626.482 728.479 626.785 728.255 627.028 727.984V726.052L625.32 726.108L625.376 724.834H628.498V728.418C628.115 728.969 627.597 729.398 626.944 729.706C626.3 730.014 625.567 730.168 624.746 730.168ZM630.925 730V720.228H632.409V728.74H637.533V730H630.925ZM639.933 730V720.228H646.947V721.488H641.417V724.302H645.225V725.562H641.417V728.74H647.003V730H639.933ZM588.691 750V740.228H590.175V748.74H595.299V750H588.691ZM600.344 750V740.228H601.828V750H600.344ZM597.894 740.228H604.264V741.488H597.894V740.228ZM597.894 748.74H604.264V750H597.894V748.74ZM610.612 750.168C609.856 750.168 609.198 750.023 608.638 749.734C608.078 749.445 607.644 749.029 607.336 748.488C607.028 747.947 606.874 747.289 606.874 746.514H608.344C608.344 747.279 608.544 747.872 608.946 748.292C609.347 748.703 609.898 748.908 610.598 748.908C611.195 748.908 611.676 748.773 612.04 748.502C612.404 748.222 612.586 747.835 612.586 747.34C612.586 747.004 612.483 746.733 612.278 746.528C612.082 746.323 611.816 746.155 611.48 746.024C611.153 745.893 610.794 745.777 610.402 745.674C610.01 745.571 609.613 745.459 609.212 745.338C608.82 745.207 608.456 745.044 608.12 744.848C607.793 744.652 607.527 744.391 607.322 744.064C607.126 743.737 607.028 743.322 607.028 742.818C607.028 742.286 607.168 741.815 607.448 741.404C607.737 740.984 608.134 740.657 608.638 740.424C609.151 740.181 609.753 740.06 610.444 740.06C611.116 740.06 611.718 740.186 612.25 740.438C612.782 740.681 613.206 741.031 613.524 741.488C613.85 741.936 614.018 742.477 614.028 743.112H612.544C612.534 742.739 612.432 742.421 612.236 742.16C612.049 741.889 611.797 741.684 611.48 741.544C611.172 741.395 610.826 741.32 610.444 741.32C609.893 741.32 609.445 741.451 609.1 741.712C608.754 741.973 608.582 742.328 608.582 742.776C608.582 743.093 608.68 743.345 608.876 743.532C609.081 743.719 609.347 743.873 609.674 743.994C610.01 744.106 610.374 744.213 610.766 744.316C611.167 744.409 611.564 744.521 611.956 744.652C612.348 744.773 612.707 744.941 613.034 745.156C613.37 745.361 613.636 745.641 613.832 745.996C614.037 746.341 614.14 746.785 614.14 747.326C614.14 747.905 613.986 748.409 613.678 748.838C613.37 749.258 612.95 749.585 612.418 749.818C611.886 750.051 611.284 750.168 610.612 750.168ZM619.115 750V741.488H615.965V740.228H623.749V741.488H620.599V750H619.115ZM628.501 750V740.228H629.985V750H628.501ZM626.051 740.228H632.421V741.488H626.051V740.228ZM626.051 748.74H632.421V750H626.051V748.74ZM635.016 750V740.228H636.864L640.938 748.068L640.826 745.044V740.228H642.254V750H640.42L636.318 742.244L636.444 745.17V750H635.016ZM648.21 750.168C647.342 750.168 646.586 749.958 645.942 749.538C645.298 749.118 644.794 748.53 644.43 747.774C644.075 747.018 643.898 746.131 643.898 745.114C643.898 744.106 644.08 743.224 644.444 742.468C644.808 741.712 645.316 741.124 645.97 740.704C646.623 740.275 647.384 740.06 648.252 740.06C648.924 740.06 649.526 740.191 650.058 740.452C650.599 740.713 651.038 741.091 651.374 741.586C651.71 742.081 651.906 742.678 651.962 743.378H650.324C650.249 742.753 650.025 742.253 649.652 741.88C649.288 741.507 648.812 741.32 648.224 741.32C647.701 741.32 647.23 741.474 646.81 741.782C646.399 742.081 646.072 742.515 645.83 743.084C645.587 743.644 645.466 744.321 645.466 745.114C645.466 745.926 645.587 746.617 645.83 747.186C646.082 747.746 646.422 748.175 646.852 748.474C647.29 748.763 647.78 748.908 648.322 748.908C648.798 748.908 649.218 748.824 649.582 748.656C649.946 748.479 650.249 748.255 650.492 747.984V746.052L648.784 746.108L648.84 744.834H651.962V748.418C651.579 748.969 651.061 749.398 650.408 749.706C649.764 750.014 649.031 750.168 648.21 750.168ZM602.447 770V760.228H609.531V761.488H603.931V764.302H607.809V765.562H603.931V770H602.447ZM612.295 770V760.228H613.779V768.74H618.903V770H612.295ZM624.704 770.168C623.873 770.168 623.15 769.963 622.534 769.552C621.918 769.132 621.437 768.544 621.092 767.788C620.756 767.032 620.588 766.141 620.588 765.114C620.588 764.078 620.756 763.182 621.092 762.426C621.437 761.67 621.918 761.087 622.534 760.676C623.15 760.265 623.873 760.06 624.704 760.06C625.535 760.06 626.258 760.265 626.874 760.676C627.49 761.087 627.966 761.67 628.302 762.426C628.647 763.182 628.82 764.078 628.82 765.114C628.82 766.141 628.647 767.032 628.302 767.788C627.966 768.544 627.49 769.132 626.874 769.552C626.258 769.963 625.535 770.168 624.704 770.168ZM624.704 768.908C625.217 768.908 625.665 768.754 626.048 768.446C626.431 768.138 626.729 767.699 626.944 767.13C627.159 766.561 627.266 765.889 627.266 765.114C627.266 764.33 627.159 763.658 626.944 763.098C626.729 762.529 626.431 762.09 626.048 761.782C625.665 761.474 625.217 761.32 624.704 761.32C624.2 761.32 623.752 761.474 623.36 761.782C622.977 762.09 622.679 762.529 622.464 763.098C622.249 763.667 622.142 764.339 622.142 765.114C622.142 765.889 622.249 766.561 622.464 767.13C622.679 767.699 622.977 768.138 623.36 768.446C623.752 768.754 624.2 768.908 624.704 768.908ZM630.855 770L629.763 760.228H631.177L631.821 766.43L631.975 768.67L632.325 766.43L633.431 760.228H634.789L635.909 766.43L636.273 768.726L636.399 766.43L637.015 760.228H638.415L637.309 770H635.335L634.397 764.582L634.117 762.384L633.809 764.582L632.843 770H630.855Z" fill="#080708"/>
<rect x="545" y="910" width="150" height="150" rx="5" fill="#F5EEEB"/>
<path d="M597.838 980V970.228H604.852V971.488H599.322V974.302H603.13V975.562H599.322V978.74H604.908V980H597.838ZM609.548 980L606.496 970.228H608.05L610.108 976.64L610.64 978.754L611.158 976.654L613.23 970.228H614.742L611.69 980H609.548ZM616.609 980V970.228H623.623V971.488H618.093V974.302H621.901V975.562H618.093V978.74H623.679V980H616.609ZM625.771 980V970.228H627.619L631.693 978.068L631.581 975.044V970.228H633.009V980H631.175L627.073 972.244L627.199 975.17V980H625.771ZM638.026 980V971.488H634.876V970.228H642.66V971.488H639.51V980H638.026ZM593.524 1000V990.228H595.008V998.74H600.132V1000H593.524ZM605.177 1000V990.228H606.661V1000H605.177ZM602.727 990.228H609.097V991.488H602.727V990.228ZM602.727 998.74H609.097V1000H602.727V998.74ZM615.445 1000.17C614.689 1000.17 614.031 1000.02 613.471 999.734C612.911 999.445 612.477 999.029 612.169 998.488C611.861 997.947 611.707 997.289 611.707 996.514H613.177C613.177 997.279 613.377 997.872 613.779 998.292C614.18 998.703 614.731 998.908 615.431 998.908C616.028 998.908 616.509 998.773 616.873 998.502C617.237 998.222 617.419 997.835 617.419 997.34C617.419 997.004 617.316 996.733 617.111 996.528C616.915 996.323 616.649 996.155 616.313 996.024C615.986 995.893 615.627 995.777 615.235 995.674C614.843 995.571 614.446 995.459 614.045 995.338C613.653 995.207 613.289 995.044 612.953 994.848C612.626 994.652 612.36 994.391 612.155 994.064C611.959 993.737 611.861 993.322 611.861 992.818C611.861 992.286 612.001 991.815 612.281 991.404C612.57 990.984 612.967 990.657 613.471 990.424C613.984 990.181 614.586 990.06 615.277 990.06C615.949 990.06 616.551 990.186 617.083 990.438C617.615 990.681 618.039 991.031 618.357 991.488C618.683 991.936 618.851 992.477 618.861 993.112H617.377C617.367 992.739 617.265 992.421 617.069 992.16C616.882 991.889 616.63 991.684 616.313 991.544C616.005 991.395 615.659 991.32 615.277 991.32C614.726 991.32 614.278 991.451 613.933 991.712C613.587 991.973 613.415 992.328 613.415 992.776C613.415 993.093 613.513 993.345 613.709 993.532C613.914 993.719 614.18 993.873 614.507 993.994C614.843 994.106 615.207 994.213 615.599 994.316C616 994.409 616.397 994.521 616.789 994.652C617.181 994.773 617.54 994.941 617.867 995.156C618.203 995.361 618.469 995.641 618.665 995.996C618.87 996.341 618.973 996.785 618.973 997.326C618.973 997.905 618.819 998.409 618.511 998.838C618.203 999.258 617.783 999.585 617.251 999.818C616.719 1000.05 616.117 1000.17 615.445 1000.17ZM623.948 1000V991.488H620.798V990.228H628.582V991.488H625.432V1000H623.948ZM630.687 1000V990.228H637.701V991.488H632.171V994.302H635.979V995.562H632.171V998.74H637.757V1000H630.687ZM639.877 1000V990.228H642.887C643.596 990.228 644.236 990.345 644.805 990.578C645.374 990.802 645.86 991.129 646.261 991.558C646.662 991.978 646.97 992.487 647.185 993.084C647.4 993.681 647.507 994.349 647.507 995.086C647.507 995.833 647.4 996.509 647.185 997.116C646.97 997.713 646.662 998.231 646.261 998.67C645.86 999.099 645.374 999.431 644.805 999.664C644.236 999.888 643.596 1000 642.887 1000H639.877ZM641.361 998.74H642.887C643.522 998.74 644.068 998.591 644.525 998.292C644.982 997.984 645.332 997.555 645.575 997.004C645.827 996.453 645.953 995.814 645.953 995.086C645.953 994.349 645.827 993.714 645.575 993.182C645.332 992.641 644.982 992.225 644.525 991.936C644.068 991.637 643.522 991.488 642.887 991.488H641.361V998.74Z" fill="#080708"/>
<rect x="545" y="95" width="150" height="150" rx="75" fill="#141214"/>
<rect x="545" y="95" width="150" height="150" rx="75" stroke="#F5EEEB" stroke-width="1.5"/>
<path d="M605.919 165.168C605.163 165.168 604.505 165.023 603.945 164.734C603.385 164.445 602.951 164.029 602.643 163.488C602.335 162.947 602.181 162.289 602.181 161.514H603.651C603.651 162.279 603.852 162.872 604.253 163.292C604.654 163.703 605.205 163.908 605.905 163.908C606.502 163.908 606.983 163.773 607.347 163.502C607.711 163.222 607.893 162.835 607.893 162.34C607.893 162.004 607.79 161.733 607.585 161.528C607.389 161.323 607.123 161.155 606.787 161.024C606.46 160.893 606.101 160.777 605.709 160.674C605.317 160.571 604.92 160.459 604.519 160.338C604.127 160.207 603.763 160.044 603.427 159.848C603.1 159.652 602.834 159.391 602.629 159.064C602.433 158.737 602.335 158.322 602.335 157.818C602.335 157.286 602.475 156.815 602.755 156.404C603.044 155.984 603.441 155.657 603.945 155.424C604.458 155.181 605.06 155.06 605.751 155.06C606.423 155.06 607.025 155.186 607.557 155.438C608.089 155.681 608.514 156.031 608.831 156.488C609.158 156.936 609.326 157.477 609.335 158.112H607.851C607.842 157.739 607.739 157.421 607.543 157.16C607.356 156.889 607.104 156.684 606.787 156.544C606.479 156.395 606.134 156.32 605.751 156.32C605.2 156.32 604.752 156.451 604.407 156.712C604.062 156.973 603.889 157.328 603.889 157.776C603.889 158.093 603.987 158.345 604.183 158.532C604.388 158.719 604.654 158.873 604.981 158.994C605.317 159.106 605.681 159.213 606.073 159.316C606.474 159.409 606.871 159.521 607.263 159.652C607.655 159.773 608.014 159.941 608.341 160.156C608.677 160.361 608.943 160.641 609.139 160.996C609.344 161.341 609.447 161.785 609.447 162.326C609.447 162.905 609.293 163.409 608.985 163.838C608.677 164.258 608.257 164.585 607.725 164.818C607.193 165.051 606.591 165.168 605.919 165.168ZM611.777 165V155.228H618.791V156.488H613.261V159.302H617.069V160.562H613.261V163.74H618.847V165H611.777ZM621.54 165V155.228H623.024V163.74H628.148V165H621.54ZM630.925 165V155.228H632.409V163.74H637.533V165H630.925ZM598.466 179.876C598.82 179.979 599.133 180.133 599.404 180.338C599.684 180.543 599.903 180.809 600.062 181.136C600.23 181.453 600.314 181.827 600.314 182.256C600.314 182.807 600.174 183.287 599.894 183.698C599.623 184.109 599.236 184.431 598.732 184.664C598.228 184.888 597.63 185 596.94 185H593.16V175.228H596.8C597.826 175.228 598.629 175.452 599.208 175.9C599.786 176.348 600.076 176.936 600.076 177.664C600.076 178.009 600.01 178.331 599.88 178.63C599.758 178.929 599.576 179.185 599.334 179.4C599.091 179.615 598.802 179.773 598.466 179.876ZM596.73 176.488H594.644V179.372H596.73C597.28 179.372 597.714 179.237 598.032 178.966C598.358 178.695 598.522 178.336 598.522 177.888C598.522 177.449 598.358 177.109 598.032 176.866C597.705 176.614 597.271 176.488 596.73 176.488ZM594.644 183.74H596.912C597.481 183.74 597.929 183.6 598.256 183.32C598.592 183.04 598.76 182.662 598.76 182.186C598.76 181.691 598.582 181.309 598.228 181.038C597.882 180.767 597.397 180.632 596.772 180.632H594.644V183.74ZM605.933 185.168C605.168 185.168 604.5 185.019 603.931 184.72C603.362 184.412 602.918 183.987 602.601 183.446C602.284 182.895 602.125 182.256 602.125 181.528V175.228H603.623V181.528C603.623 182.004 603.716 182.419 603.903 182.774C604.099 183.129 604.37 183.404 604.715 183.6C605.06 183.796 605.466 183.894 605.933 183.894C606.4 183.894 606.801 183.796 607.137 183.6C607.482 183.404 607.748 183.129 607.935 182.774C608.131 182.419 608.229 182.004 608.229 181.528V175.228H609.727V181.528C609.727 182.256 609.568 182.895 609.251 183.446C608.934 183.987 608.49 184.412 607.921 184.72C607.361 185.019 606.698 185.168 605.933 185.168ZM614.563 185V176.488H611.413V175.228H619.197V176.488H616.047V185H614.563ZM623.948 185V176.488H620.798V175.228H628.582V176.488H625.432V185H623.948ZM634.089 185.168C633.259 185.168 632.535 184.963 631.919 184.552C631.303 184.132 630.823 183.544 630.477 182.788C630.141 182.032 629.973 181.141 629.973 180.114C629.973 179.078 630.141 178.182 630.477 177.426C630.823 176.67 631.303 176.087 631.919 175.676C632.535 175.265 633.259 175.06 634.089 175.06C634.92 175.06 635.643 175.265 636.259 175.676C636.875 176.087 637.351 176.67 637.687 177.426C638.033 178.182 638.205 179.078 638.205 180.114C638.205 181.141 638.033 182.032 637.687 182.788C637.351 183.544 636.875 184.132 636.259 184.552C635.643 184.963 634.92 185.168 634.089 185.168ZM634.089 183.908C634.603 183.908 635.051 183.754 635.433 183.446C635.816 183.138 636.115 182.699 636.329 182.13C636.544 181.561 636.651 180.889 636.651 180.114C636.651 179.33 636.544 178.658 636.329 178.098C636.115 177.529 635.816 177.09 635.433 176.782C635.051 176.474 634.603 176.32 634.089 176.32C633.585 176.32 633.137 176.474 632.745 176.782C632.363 177.09 632.064 177.529 631.849 178.098C631.635 178.667 631.527 179.339 631.527 180.114C631.527 180.889 631.635 181.561 631.849 182.13C632.064 182.699 632.363 183.138 632.745 183.446C633.137 183.754 633.585 183.908 634.089 183.908ZM639.849 185V175.228H641.697L645.771 183.068L645.659 180.044V175.228H647.087V185H645.253L641.151 177.244L641.277 180.17V185H639.849Z" fill="#F5EEEB"/>
<path d="M230 169.25H229.25V170.75H230V169.25ZM290.53 170.53C290.823 170.237 290.823 169.763 290.53 169.47L285.757 164.697C285.464 164.404 284.99 164.404 284.697 164.697C284.404 164.99 284.404 165.464 284.697 165.757L288.939 170L284.697 174.243C284.404 174.536 284.404 175.01 284.697 175.303C284.99 175.596 285.464 175.596 285.757 175.303L290.53 170.53ZM230 170.75H290V169.25H230V170.75Z" fill="#727372"/>
<path d="M470 169.25H469.25V170.75H470V169.25ZM530.53 170.53C530.823 170.237 530.823 169.763 530.53 169.47L525.757 164.697C525.464 164.404 524.99 164.404 524.697 164.697C524.404 164.99 524.404 165.464 524.697 165.757L528.939 170L524.697 174.243C524.404 174.536 524.404 175.01 524.697 175.303C524.99 175.596 525.464 175.596 525.757 175.303L530.53 170.53ZM470 170.75H530V169.25H470V170.75Z" fill="#727372"/>
<path d="M530 445H380" stroke="#727372" stroke-width="1.5" stroke-linecap="square"/>
<path d="M860 1225H710" stroke="#727372" stroke-width="1.5" stroke-linecap="square"/>
<path d="M860 170.75H860.75V169.25H860V170.75ZM709.47 169.47C709.177 169.763 709.177 170.237 709.47 170.53L714.243 175.303C714.536 175.596 715.01 175.596 715.303 175.303C715.596 175.01 715.596 174.536 715.303 174.243L711.061 170L715.303 165.757C715.596 165.464 715.596 164.99 715.303 164.697C715.01 164.404 714.536 164.404 714.243 164.697L709.47 169.47ZM860 169.25H710V170.75H860V169.25Z" fill="#727372"/>
<path d="M530.53 745.53C530.823 745.237 530.823 744.763 530.53 744.47L525.757 739.697C525.464 739.404 524.99 739.404 524.697 739.697C524.404 739.99 524.404 740.464 524.697 740.757L528.939 745L524.697 749.243C524.404 749.536 524.404 750.01 524.697 750.303C524.99 750.596 525.464 750.596 525.757 750.303L530.53 745.53ZM380 744.25H379.25V745.75H380V744.25ZM530 744.25H380V745.75H530V744.25Z" fill="#727372"/>
<path d="M620.75 260L620.75 259.25L619.25 259.25L619.25 260L620.75 260ZM619.47 355.53C619.763 355.823 620.237 355.823 620.53 355.53L625.303 350.757C625.596 350.464 625.596 349.99 625.303 349.697C625.01 349.404 624.536 349.404 624.243 349.697L620 353.939L615.757 349.697C615.464 349.404 614.99 349.404 614.697 349.697C614.404 349.99 614.404 350.464 614.697 350.757L619.47 355.53ZM619.25 260L619.25 355L620.75 355L620.75 260L619.25 260Z" fill="#727372"/>
<path d="M620.75 835L620.75 834.25L619.25 834.25L619.25 835L620.75 835ZM619.47 895.53C619.763 895.823 620.237 895.823 620.53 895.53L625.303 890.757C625.596 890.464 625.596 889.99 625.303 889.697C625.01 889.404 624.536 889.404 624.243 889.697L620 893.939L615.757 889.697C615.464 889.404 614.99 889.404 614.697 889.697C614.404 889.99 614.404 890.464 614.697 890.757L619.47 895.53ZM619.25 835L619.25 895L620.75 895L620.75 835L619.25 835Z" fill="#727372"/>
<path d="M620.75 1075L620.75 1074.25L619.25 1074.25L619.25 1075L620.75 1075ZM619.47 1135.53C619.763 1135.82 620.237 1135.82 620.53 1135.53L625.303 1130.76C625.596 1130.46 625.596 1129.99 625.303 1129.7C625.01 1129.4 624.536 1129.4 624.243 1129.7L620 1133.94L615.757 1129.7C615.464 1129.4 614.99 1129.4 614.697 1129.7C614.404 1129.99 614.404 1130.46 614.697 1130.76L619.47 1135.53ZM619.25 1075L619.25 1135L620.75 1135L620.75 1075L619.25 1075Z" fill="#727372"/>
<path d="M380 445L380 745" stroke="#727372" stroke-width="1.5" stroke-linecap="square"/>
<path d="M860 170L860 1225" stroke="#727372" stroke-width="1.5" stroke-linecap="square"/>
<path d="M620.75 535L620.75 534.25L619.25 534.25L619.25 535L620.75 535ZM619.47 655.53C619.763 655.823 620.237 655.823 620.53 655.53L625.303 650.757C625.596 650.464 625.596 649.99 625.303 649.697C625.01 649.404 624.536 649.404 624.243 649.697L620 653.939L615.757 649.697C615.464 649.404 614.99 649.404 614.697 649.697C614.404 649.99 614.404 650.464 614.697 650.757L619.47 655.53ZM619.25 535L619.25 655H620.75L620.75 535L619.25 535Z" fill="#727372"/>
<path d="M620.75 1315L620.75 1314.25L619.25 1314.25L619.25 1315L620.75 1315ZM619.47 1435.53C619.763 1435.82 620.237 1435.82 620.53 1435.53L625.303 1430.76C625.596 1430.46 625.596 1429.99 625.303 1429.7C625.01 1429.4 624.536 1429.4 624.243 1429.7L620 1433.94L615.757 1429.7C615.464 1429.4 614.99 1429.4 614.697 1429.7C614.404 1429.99 614.404 1430.46 614.697 1430.76L619.47 1435.53ZM619.25 1315L619.25 1435H620.75L620.75 1315L619.25 1315Z" fill="#727372"/>
<path d="M546.061 445L620 371.061L693.939 445L620 518.939L546.061 445Z" fill="#141214" stroke="#F5EEEB" stroke-width="1.5"/>
<path d="M588.691 430V420.228H590.175V428.74H595.299V430H588.691ZM600.344 430V420.228H601.828V430H600.344ZM597.894 420.228H604.264V421.488H597.894V420.228ZM597.894 428.74H604.264V430H597.894V428.74ZM610.612 430.168C609.856 430.168 609.198 430.023 608.638 429.734C608.078 429.445 607.644 429.029 607.336 428.488C607.028 427.947 606.874 427.289 606.874 426.514H608.344C608.344 427.279 608.544 427.872 608.946 428.292C609.347 428.703 609.898 428.908 610.598 428.908C611.195 428.908 611.676 428.773 612.04 428.502C612.404 428.222 612.586 427.835 612.586 427.34C612.586 427.004 612.483 426.733 612.278 426.528C612.082 426.323 611.816 426.155 611.48 426.024C611.153 425.893 610.794 425.777 610.402 425.674C610.01 425.571 609.613 425.459 609.212 425.338C608.82 425.207 608.456 425.044 608.12 424.848C607.793 424.652 607.527 424.391 607.322 424.064C607.126 423.737 607.028 423.322 607.028 422.818C607.028 422.286 607.168 421.815 607.448 421.404C607.737 420.984 608.134 420.657 608.638 420.424C609.151 420.181 609.753 420.06 610.444 420.06C611.116 420.06 611.718 420.186 612.25 420.438C612.782 420.681 613.206 421.031 613.524 421.488C613.85 421.936 614.018 422.477 614.028 423.112H612.544C612.534 422.739 612.432 422.421 612.236 422.16C612.049 421.889 611.797 421.684 611.48 421.544C611.172 421.395 610.826 421.32 610.444 421.32C609.893 421.32 609.445 421.451 609.1 421.712C608.754 421.973 608.582 422.328 608.582 422.776C608.582 423.093 608.68 423.345 608.876 423.532C609.081 423.719 609.347 423.873 609.674 423.994C610.01 424.106 610.374 424.213 610.766 424.316C611.167 424.409 611.564 424.521 611.956 424.652C612.348 424.773 612.707 424.941 613.034 425.156C613.37 425.361 613.636 425.641 613.832 425.996C614.037 426.341 614.14 426.785 614.14 427.326C614.14 427.905 613.986 428.409 613.678 428.838C613.37 429.258 612.95 429.585 612.418 429.818C611.886 430.051 611.284 430.168 610.612 430.168ZM619.115 430V421.488H615.965V420.228H623.749V421.488H620.599V430H619.115ZM628.501 430V420.228H629.985V430H628.501ZM626.051 420.228H632.421V421.488H626.051V420.228ZM626.051 428.74H632.421V430H626.051V428.74ZM635.016 430V420.228H636.864L640.938 428.068L640.826 425.044V420.228H642.254V430H640.42L636.318 422.244L636.444 425.17V430H635.016ZM648.21 430.168C647.342 430.168 646.586 429.958 645.942 429.538C645.298 429.118 644.794 428.53 644.43 427.774C644.075 427.018 643.898 426.131 643.898 425.114C643.898 424.106 644.08 423.224 644.444 422.468C644.808 421.712 645.316 421.124 645.97 420.704C646.623 420.275 647.384 420.06 648.252 420.06C648.924 420.06 649.526 420.191 650.058 420.452C650.599 420.713 651.038 421.091 651.374 421.586C651.71 422.081 651.906 422.678 651.962 423.378H650.324C650.249 422.753 650.025 422.253 649.652 421.88C649.288 421.507 648.812 421.32 648.224 421.32C647.701 421.32 647.23 421.474 646.81 421.782C646.399 422.081 646.072 422.515 645.83 423.084C645.587 423.644 645.466 424.321 645.466 425.114C645.466 425.926 645.587 426.617 645.83 427.186C646.082 427.746 646.422 428.175 646.852 428.474C647.29 428.763 647.78 428.908 648.322 428.908C648.798 428.908 649.218 428.824 649.582 428.656C649.946 428.479 650.249 428.255 650.492 427.984V426.052L648.784 426.108L648.84 424.834H651.962V428.418C651.579 428.969 651.061 429.398 650.408 429.706C649.764 430.014 649.031 430.168 648.21 430.168ZM582.962 450L583.69 440.228H585.636L586.882 446.01L587.176 447.914L587.484 446.01L588.702 440.228H590.62L591.362 450H589.892L589.57 443.882L589.514 441.726L589.094 443.882L587.764 450H586.504L585.188 443.882L584.796 441.698L584.712 443.882L584.404 450H582.962ZM596.548 450.168C595.782 450.168 595.115 450.019 594.546 449.72C593.976 449.412 593.533 448.987 593.216 448.446C592.898 447.895 592.74 447.256 592.74 446.528V440.228H594.238V446.528C594.238 447.004 594.331 447.419 594.518 447.774C594.714 448.129 594.984 448.404 595.33 448.6C595.675 448.796 596.081 448.894 596.548 448.894C597.014 448.894 597.416 448.796 597.752 448.6C598.097 448.404 598.363 448.129 598.55 447.774C598.746 447.419 598.844 447.004 598.844 446.528V440.228H600.342V446.528C600.342 447.256 600.183 447.895 599.866 448.446C599.548 448.987 599.105 449.412 598.536 449.72C597.976 450.019 597.313 450.168 596.548 450.168ZM602.909 450V440.228H604.393V448.74H609.517V450H602.909ZM614.563 450V441.488H611.413V440.228H619.197V441.488H616.047V450H614.563ZM623.948 450V440.228H625.432V450H623.948ZM621.498 440.228H627.868V441.488H621.498V440.228ZM621.498 448.74H627.868V450H621.498V448.74ZM631.723 446.43V445.17H634.271C634.897 445.17 635.401 444.997 635.783 444.652C636.166 444.307 636.357 443.854 636.357 443.294C636.357 442.753 636.18 442.319 635.825 441.992C635.471 441.656 634.999 441.488 634.411 441.488H631.723V440.228H634.411C635.121 440.228 635.737 440.354 636.259 440.606C636.782 440.858 637.188 441.213 637.477 441.67C637.767 442.127 637.911 442.669 637.911 443.294C637.911 443.919 637.762 444.47 637.463 444.946C637.165 445.413 636.74 445.777 636.189 446.038C635.648 446.299 635.013 446.43 634.285 446.43H631.723ZM630.659 450V440.228H632.143V450H630.659ZM640.451 450V440.228H641.935V448.74H647.059V450H640.451ZM649.458 450V440.228H656.472V441.488H650.942V444.302H654.75V445.562H650.942V448.74H656.528V450H649.458ZM588.453 470V460.228H595.467V461.488H589.937V464.302H593.745V465.562H589.937V468.74H595.523V470H588.453ZM600.162 470L597.11 460.228H598.664L600.722 466.64L601.254 468.754L601.772 466.654L603.844 460.228H605.356L602.304 470H600.162ZM607.224 470V460.228H614.238V461.488H608.708V464.302H612.516V465.562H608.708V468.74H614.294V470H607.224ZM616.385 470V460.228H618.233L622.307 468.068L622.195 465.044V460.228H623.623V470H621.789L617.687 462.244L617.813 465.17V470H616.385ZM628.641 470V461.488H625.491V460.228H633.275V461.488H630.125V470H628.641ZM638.908 470.168C638.152 470.168 637.494 470.023 636.934 469.734C636.374 469.445 635.94 469.029 635.632 468.488C635.324 467.947 635.17 467.289 635.17 466.514H636.64C636.64 467.279 636.841 467.872 637.242 468.292C637.644 468.703 638.194 468.908 638.894 468.908C639.492 468.908 639.972 468.773 640.336 468.502C640.7 468.222 640.882 467.835 640.882 467.34C640.882 467.004 640.78 466.733 640.574 466.528C640.378 466.323 640.112 466.155 639.776 466.024C639.45 465.893 639.09 465.777 638.698 465.674C638.306 465.571 637.91 465.459 637.508 465.338C637.116 465.207 636.752 465.044 636.416 464.848C636.09 464.652 635.824 464.391 635.618 464.064C635.422 463.737 635.324 463.322 635.324 462.818C635.324 462.286 635.464 461.815 635.744 461.404C636.034 460.984 636.43 460.657 636.934 460.424C637.448 460.181 638.05 460.06 638.74 460.06C639.412 460.06 640.014 460.186 640.546 460.438C641.078 460.681 641.503 461.031 641.82 461.488C642.147 461.936 642.315 462.477 642.324 463.112H640.84C640.831 462.739 640.728 462.421 640.532 462.16C640.346 461.889 640.094 461.684 639.776 461.544C639.468 461.395 639.123 461.32 638.74 461.32C638.19 461.32 637.742 461.451 637.396 461.712C637.051 461.973 636.878 462.328 636.878 462.776C636.878 463.093 636.976 463.345 637.172 463.532C637.378 463.719 637.644 463.873 637.97 463.994C638.306 464.106 638.67 464.213 639.062 464.316C639.464 464.409 639.86 464.521 640.252 464.652C640.644 464.773 641.004 464.941 641.33 465.156C641.666 465.361 641.932 465.641 642.128 465.996C642.334 466.341 642.436 466.785 642.436 467.326C642.436 467.905 642.282 468.409 641.974 468.838C641.666 469.258 641.246 469.585 640.714 469.818C640.182 470.051 639.58 470.168 638.908 470.168ZM647.468 467.396V467.032C647.468 466.621 647.528 466.281 647.65 466.01C647.771 465.73 647.925 465.497 648.112 465.31C648.308 465.114 648.513 464.941 648.728 464.792C648.952 464.633 649.157 464.47 649.344 464.302C649.53 464.125 649.684 463.919 649.806 463.686C649.936 463.453 650.002 463.163 650.002 462.818C650.002 462.51 649.927 462.239 649.778 462.006C649.638 461.773 649.437 461.591 649.176 461.46C648.914 461.32 648.616 461.25 648.28 461.25C647.71 461.25 647.239 461.446 646.866 461.838C646.492 462.23 646.306 462.748 646.306 463.392H644.85C644.859 462.72 645.008 462.137 645.298 461.642C645.587 461.138 645.988 460.751 646.502 460.48C647.024 460.2 647.617 460.06 648.28 460.06C648.933 460.06 649.493 460.177 649.96 460.41C650.436 460.634 650.804 460.956 651.066 461.376C651.327 461.787 651.458 462.263 651.458 462.804C651.458 463.252 651.392 463.63 651.262 463.938C651.14 464.237 650.977 464.489 650.772 464.694C650.576 464.899 650.361 465.086 650.128 465.254C649.904 465.413 649.689 465.571 649.484 465.73C649.288 465.889 649.124 466.071 648.994 466.276C648.863 466.472 648.793 466.724 648.784 467.032L648.77 467.396H647.468ZM647.23 470V468.264H648.966V470H647.23Z" fill="#F5EEEB"/>
<rect x="595" y="574" width="49" height="40" rx="5" fill="#141214"/>
<rect x="595" y="574" width="49" height="40" rx="5" stroke="#727372" stroke-width="1.5"/>
<path d="M611.193 599V589.228H613.041L617.115 597.068L617.003 594.044V589.228H618.431V599H616.597L612.495 591.244L612.621 594.17V599H611.193ZM624.204 599.168C623.373 599.168 622.65 598.963 622.034 598.552C621.418 598.132 620.937 597.544 620.592 596.788C620.256 596.032 620.088 595.141 620.088 594.114C620.088 593.078 620.256 592.182 620.592 591.426C620.937 590.67 621.418 590.087 622.034 589.676C622.65 589.265 623.373 589.06 624.204 589.06C625.035 589.06 625.758 589.265 626.374 589.676C626.99 590.087 627.466 590.67 627.802 591.426C628.147 592.182 628.32 593.078 628.32 594.114C628.32 595.141 628.147 596.032 627.802 596.788C627.466 597.544 626.99 598.132 626.374 598.552C625.758 598.963 625.035 599.168 624.204 599.168ZM624.204 597.908C624.717 597.908 625.165 597.754 625.548 597.446C625.931 597.138 626.229 596.699 626.444 596.13C626.659 595.561 626.766 594.889 626.766 594.114C626.766 593.33 626.659 592.658 626.444 592.098C626.229 591.529 625.931 591.09 625.548 590.782C625.165 590.474 624.717 590.32 624.204 590.32C623.7 590.32 623.252 590.474 622.86 590.782C622.477 591.09 622.179 591.529 621.964 592.098C621.749 592.667 621.642 593.339 621.642 594.114C621.642 594.889 621.749 595.561 621.964 596.13C622.179 596.699 622.477 597.138 622.86 597.446C623.252 597.754 623.7 597.908 624.204 597.908Z" fill="#F5EEEB"/>
<path d="M546.061 1225L620 1151.06L693.939 1225L620 1298.94L546.061 1225Z" fill="#141214" stroke="#F5EEEB" stroke-width="1.5"/>
<path d="M601.593 1220L602.321 1210.23H604.267L605.513 1216.01L605.807 1217.91L606.115 1216.01L607.333 1210.23H609.251L609.993 1220H608.523L608.201 1213.88L608.145 1211.73L607.725 1213.88L606.395 1220H605.135L603.819 1213.88L603.427 1211.7L603.343 1213.88L603.035 1220H601.593ZM615.179 1220.17C614.348 1220.17 613.625 1219.96 613.009 1219.55C612.393 1219.13 611.912 1218.54 611.567 1217.79C611.231 1217.03 611.063 1216.14 611.063 1215.11C611.063 1214.08 611.231 1213.18 611.567 1212.43C611.912 1211.67 612.393 1211.09 613.009 1210.68C613.625 1210.27 614.348 1210.06 615.179 1210.06C616.009 1210.06 616.733 1210.27 617.349 1210.68C617.965 1211.09 618.441 1211.67 618.777 1212.43C619.122 1213.18 619.295 1214.08 619.295 1215.11C619.295 1216.14 619.122 1217.03 618.777 1217.79C618.441 1218.54 617.965 1219.13 617.349 1219.55C616.733 1219.96 616.009 1220.17 615.179 1220.17ZM615.179 1218.91C615.692 1218.91 616.14 1218.75 616.523 1218.45C616.905 1218.14 617.204 1217.7 617.419 1217.13C617.633 1216.56 617.741 1215.89 617.741 1215.11C617.741 1214.33 617.633 1213.66 617.419 1213.1C617.204 1212.53 616.905 1212.09 616.523 1211.78C616.14 1211.47 615.692 1211.32 615.179 1211.32C614.675 1211.32 614.227 1211.47 613.835 1211.78C613.452 1212.09 613.153 1212.53 612.939 1213.1C612.724 1213.67 612.617 1214.34 612.617 1215.11C612.617 1215.89 612.724 1216.56 612.939 1217.13C613.153 1217.7 613.452 1218.14 613.835 1218.45C614.227 1218.75 614.675 1218.91 615.179 1218.91ZM622.254 1215.91V1214.65H624.732C625.143 1214.65 625.502 1214.59 625.81 1214.46C626.127 1214.32 626.375 1214.12 626.552 1213.87C626.739 1213.62 626.832 1213.33 626.832 1213C626.832 1212.68 626.753 1212.41 626.594 1212.19C626.435 1211.96 626.221 1211.79 625.95 1211.67C625.679 1211.55 625.376 1211.49 625.04 1211.49H622.254V1210.23H625.04C625.684 1210.23 626.258 1210.34 626.762 1210.56C627.266 1210.78 627.663 1211.09 627.952 1211.5C628.241 1211.91 628.386 1212.41 628.386 1213C628.386 1213.37 628.297 1213.73 628.12 1214.08C627.952 1214.42 627.705 1214.74 627.378 1215.02C627.061 1215.29 626.673 1215.51 626.216 1215.67C625.759 1215.83 625.241 1215.91 624.662 1215.91H622.254ZM621.19 1220V1210.23H622.674V1220H621.19ZM626.804 1220C626.748 1219.56 626.627 1219.13 626.44 1218.7C626.263 1218.27 626.02 1217.86 625.712 1217.47C625.404 1217.07 625.021 1216.71 624.564 1216.37C624.116 1216.04 623.593 1215.73 622.996 1215.46L624.648 1215.1C625.264 1215.41 625.791 1215.75 626.23 1216.14C626.678 1216.51 627.047 1216.91 627.336 1217.33C627.635 1217.75 627.859 1218.18 628.008 1218.63C628.167 1219.08 628.269 1219.53 628.316 1220H626.804ZM630.547 1220V1210.23H637.561V1211.49H632.031V1214.3H635.839V1215.56H632.031V1218.74H637.617V1220H630.547ZM588.453 1240V1230.23H595.467V1231.49H589.937V1234.3H593.745V1235.56H589.937V1238.74H595.523V1240H588.453ZM600.162 1240L597.11 1230.23H598.664L600.722 1236.64L601.254 1238.75L601.772 1236.65L603.844 1230.23H605.356L602.304 1240H600.162ZM607.224 1240V1230.23H614.238V1231.49H608.708V1234.3H612.516V1235.56H608.708V1238.74H614.294V1240H607.224ZM616.385 1240V1230.23H618.233L622.307 1238.07L622.195 1235.04V1230.23H623.623V1240H621.789L617.687 1232.24L617.813 1235.17V1240H616.385ZM628.641 1240V1231.49H625.491V1230.23H633.275V1231.49H630.125V1240H628.641ZM638.908 1240.17C638.152 1240.17 637.494 1240.02 636.934 1239.73C636.374 1239.44 635.94 1239.03 635.632 1238.49C635.324 1237.95 635.17 1237.29 635.17 1236.51H636.64C636.64 1237.28 636.841 1237.87 637.242 1238.29C637.644 1238.7 638.194 1238.91 638.894 1238.91C639.492 1238.91 639.972 1238.77 640.336 1238.5C640.7 1238.22 640.882 1237.83 640.882 1237.34C640.882 1237 640.78 1236.73 640.574 1236.53C640.378 1236.32 640.112 1236.15 639.776 1236.02C639.45 1235.89 639.09 1235.78 638.698 1235.67C638.306 1235.57 637.91 1235.46 637.508 1235.34C637.116 1235.21 636.752 1235.04 636.416 1234.85C636.09 1234.65 635.824 1234.39 635.618 1234.06C635.422 1233.74 635.324 1233.32 635.324 1232.82C635.324 1232.29 635.464 1231.81 635.744 1231.4C636.034 1230.98 636.43 1230.66 636.934 1230.42C637.448 1230.18 638.05 1230.06 638.74 1230.06C639.412 1230.06 640.014 1230.19 640.546 1230.44C641.078 1230.68 641.503 1231.03 641.82 1231.49C642.147 1231.94 642.315 1232.48 642.324 1233.11H640.84C640.831 1232.74 640.728 1232.42 640.532 1232.16C640.346 1231.89 640.094 1231.68 639.776 1231.54C639.468 1231.39 639.123 1231.32 638.74 1231.32C638.19 1231.32 637.742 1231.45 637.396 1231.71C637.051 1231.97 636.878 1232.33 636.878 1232.78C636.878 1233.09 636.976 1233.35 637.172 1233.53C637.378 1233.72 637.644 1233.87 637.97 1233.99C638.306 1234.11 638.67 1234.21 639.062 1234.32C639.464 1234.41 639.86 1234.52 640.252 1234.65C640.644 1234.77 641.004 1234.94 641.33 1235.16C641.666 1235.36 641.932 1235.64 642.128 1236C642.334 1236.34 642.436 1236.78 642.436 1237.33C642.436 1237.9 642.282 1238.41 641.974 1238.84C641.666 1239.26 641.246 1239.58 640.714 1239.82C640.182 1240.05 639.58 1240.17 638.908 1240.17ZM647.468 1237.4V1237.03C647.468 1236.62 647.528 1236.28 647.65 1236.01C647.771 1235.73 647.925 1235.5 648.112 1235.31C648.308 1235.11 648.513 1234.94 648.728 1234.79C648.952 1234.63 649.157 1234.47 649.344 1234.3C649.53 1234.12 649.684 1233.92 649.806 1233.69C649.936 1233.45 650.002 1233.16 650.002 1232.82C650.002 1232.51 649.927 1232.24 649.778 1232.01C649.638 1231.77 649.437 1231.59 649.176 1231.46C648.914 1231.32 648.616 1231.25 648.28 1231.25C647.71 1231.25 647.239 1231.45 646.866 1231.84C646.492 1232.23 646.306 1232.75 646.306 1233.39H644.85C644.859 1232.72 645.008 1232.14 645.298 1231.64C645.587 1231.14 645.988 1230.75 646.502 1230.48C647.024 1230.2 647.617 1230.06 648.28 1230.06C648.933 1230.06 649.493 1230.18 649.96 1230.41C650.436 1230.63 650.804 1230.96 651.066 1231.38C651.327 1231.79 651.458 1232.26 651.458 1232.8C651.458 1233.25 651.392 1233.63 651.262 1233.94C651.14 1234.24 650.977 1234.49 650.772 1234.69C650.576 1234.9 650.361 1235.09 650.128 1235.25C649.904 1235.41 649.689 1235.57 649.484 1235.73C649.288 1235.89 649.124 1236.07 648.994 1236.28C648.863 1236.47 648.793 1236.72 648.784 1237.03L648.77 1237.4H647.468ZM647.23 1240V1238.26H648.966V1240H647.23Z" fill="#F5EEEB"/>
<rect x="595" y="1354" width="49" height="40" rx="5" fill="#141214"/>
<rect x="595" y="1354" width="49" height="40" rx="5" stroke="#727372" stroke-width="1.5"/>
<path d="M611.193 1379V1369.23H613.041L617.115 1377.07L617.003 1374.04V1369.23H618.431V1379H616.597L612.495 1371.24L612.621 1374.17V1379H611.193ZM624.204 1379.17C623.373 1379.17 622.65 1378.96 622.034 1378.55C621.418 1378.13 620.937 1377.54 620.592 1376.79C620.256 1376.03 620.088 1375.14 620.088 1374.11C620.088 1373.08 620.256 1372.18 620.592 1371.43C620.937 1370.67 621.418 1370.09 622.034 1369.68C622.65 1369.27 623.373 1369.06 624.204 1369.06C625.035 1369.06 625.758 1369.27 626.374 1369.68C626.99 1370.09 627.466 1370.67 627.802 1371.43C628.147 1372.18 628.32 1373.08 628.32 1374.11C628.32 1375.14 628.147 1376.03 627.802 1376.79C627.466 1377.54 626.99 1378.13 626.374 1378.55C625.758 1378.96 625.035 1379.17 624.204 1379.17ZM624.204 1377.91C624.717 1377.91 625.165 1377.75 625.548 1377.45C625.931 1377.14 626.229 1376.7 626.444 1376.13C626.659 1375.56 626.766 1374.89 626.766 1374.11C626.766 1373.33 626.659 1372.66 626.444 1372.1C626.229 1371.53 625.931 1371.09 625.548 1370.78C625.165 1370.47 624.717 1370.32 624.204 1370.32C623.7 1370.32 623.252 1370.47 622.86 1370.78C622.477 1371.09 622.179 1371.53 621.964 1372.1C621.749 1372.67 621.642 1373.34 621.642 1374.11C621.642 1374.89 621.749 1375.56 621.964 1376.13C622.179 1376.7 622.477 1377.14 622.86 1377.45C623.252 1377.75 623.7 1377.91 624.204 1377.91Z" fill="#F5EEEB"/>
<rect x="426" y="425" width="58" height="40" rx="5" fill="#141214"/>
<rect x="426" y="425" width="58" height="40" rx="5" stroke="#727372" stroke-width="1.5"/>
<path d="M444.842 450V446.038L441.608 440.228H443.232L444.744 442.916L445.612 444.75L446.494 442.902L448.006 440.228H449.616L446.326 446.038V450H444.842ZM451.609 450V440.228H458.623V441.488H453.093V444.302H456.901V445.562H453.093V448.74H458.679V450H451.609ZM464.523 450.168C463.767 450.168 463.109 450.023 462.549 449.734C461.989 449.445 461.555 449.029 461.247 448.488C460.939 447.947 460.785 447.289 460.785 446.514H462.255C462.255 447.279 462.455 447.872 462.857 448.292C463.258 448.703 463.809 448.908 464.509 448.908C465.106 448.908 465.587 448.773 465.951 448.502C466.315 448.222 466.497 447.835 466.497 447.34C466.497 447.004 466.394 446.733 466.189 446.528C465.993 446.323 465.727 446.155 465.391 446.024C465.064 445.893 464.705 445.777 464.313 445.674C463.921 445.571 463.524 445.459 463.123 445.338C462.731 445.207 462.367 445.044 462.031 444.848C461.704 444.652 461.438 444.391 461.233 444.064C461.037 443.737 460.939 443.322 460.939 442.818C460.939 442.286 461.079 441.815 461.359 441.404C461.648 440.984 462.045 440.657 462.549 440.424C463.062 440.181 463.664 440.06 464.355 440.06C465.027 440.06 465.629 440.186 466.161 440.438C466.693 440.681 467.117 441.031 467.435 441.488C467.761 441.936 467.929 442.477 467.939 443.112H466.455C466.445 442.739 466.343 442.421 466.147 442.16C465.96 441.889 465.708 441.684 465.391 441.544C465.083 441.395 464.737 441.32 464.355 441.32C463.804 441.32 463.356 441.451 463.011 441.712C462.665 441.973 462.493 442.328 462.493 442.776C462.493 443.093 462.591 443.345 462.787 443.532C462.992 443.719 463.258 443.873 463.585 443.994C463.921 444.106 464.285 444.213 464.677 444.316C465.078 444.409 465.475 444.521 465.867 444.652C466.259 444.773 466.618 444.941 466.945 445.156C467.281 445.361 467.547 445.641 467.743 445.996C467.948 446.341 468.051 446.785 468.051 447.326C468.051 447.905 467.897 448.409 467.589 448.838C467.281 449.258 466.861 449.585 466.329 449.818C465.797 450.051 465.195 450.168 464.523 450.168Z" fill="#F5EEEB"/>
<rect x="756" y="1205" width="58" height="40" rx="5" fill="#141214"/>
<rect x="756" y="1205" width="58" height="40" rx="5" stroke="#727372" stroke-width="1.5"/>
<path d="M774.842 1230V1226.04L771.608 1220.23H773.232L774.744 1222.92L775.612 1224.75L776.494 1222.9L778.006 1220.23H779.616L776.326 1226.04V1230H774.842ZM781.609 1230V1220.23H788.623V1221.49H783.093V1224.3H786.901V1225.56H783.093V1228.74H788.679V1230H781.609ZM794.523 1230.17C793.767 1230.17 793.109 1230.02 792.549 1229.73C791.989 1229.44 791.555 1229.03 791.247 1228.49C790.939 1227.95 790.785 1227.29 790.785 1226.51H792.255C792.255 1227.28 792.455 1227.87 792.857 1228.29C793.258 1228.7 793.809 1228.91 794.509 1228.91C795.106 1228.91 795.587 1228.77 795.951 1228.5C796.315 1228.22 796.497 1227.83 796.497 1227.34C796.497 1227 796.394 1226.73 796.189 1226.53C795.993 1226.32 795.727 1226.15 795.391 1226.02C795.064 1225.89 794.705 1225.78 794.313 1225.67C793.921 1225.57 793.524 1225.46 793.123 1225.34C792.731 1225.21 792.367 1225.04 792.031 1224.85C791.704 1224.65 791.438 1224.39 791.233 1224.06C791.037 1223.74 790.939 1223.32 790.939 1222.82C790.939 1222.29 791.079 1221.81 791.359 1221.4C791.648 1220.98 792.045 1220.66 792.549 1220.42C793.062 1220.18 793.664 1220.06 794.355 1220.06C795.027 1220.06 795.629 1220.19 796.161 1220.44C796.693 1220.68 797.117 1221.03 797.435 1221.49C797.761 1221.94 797.929 1222.48 797.939 1223.11H796.455C796.445 1222.74 796.343 1222.42 796.147 1222.16C795.96 1221.89 795.708 1221.68 795.391 1221.54C795.083 1221.39 794.737 1221.32 794.355 1221.32C793.804 1221.32 793.356 1221.45 793.011 1221.71C792.665 1221.97 792.493 1222.33 792.493 1222.78C792.493 1223.09 792.591 1223.35 792.787 1223.53C792.992 1223.72 793.258 1223.87 793.585 1223.99C793.921 1224.11 794.285 1224.21 794.677 1224.32C795.078 1224.41 795.475 1224.52 795.867 1224.65C796.259 1224.77 796.618 1224.94 796.945 1225.16C797.281 1225.36 797.547 1225.64 797.743 1226C797.948 1226.34 798.051 1226.78 798.051 1227.33C798.051 1227.9 797.897 1228.41 797.589 1228.84C797.281 1229.26 796.861 1229.58 796.329 1229.82C795.797 1230.05 795.195 1230.17 794.523 1230.17Z" fill="#F5EEEB"/>
<rect x="332" y="575" width="96" height="40" rx="5" fill="#141214"/>
<rect x="332" y="575" width="96" height="40" rx="5" stroke="#727372" stroke-width="1.5"/>
<path d="M351.099 600V591.488H347.949V590.228H355.733V591.488H352.583V600H351.099ZM361.24 600.168C360.41 600.168 359.686 599.963 359.07 599.552C358.454 599.132 357.974 598.544 357.628 597.788C357.292 597.032 357.124 596.141 357.124 595.114C357.124 594.078 357.292 593.182 357.628 592.426C357.974 591.67 358.454 591.087 359.07 590.676C359.686 590.265 360.41 590.06 361.24 590.06C362.071 590.06 362.794 590.265 363.41 590.676C364.026 591.087 364.502 591.67 364.838 592.426C365.184 593.182 365.356 594.078 365.356 595.114C365.356 596.141 365.184 597.032 364.838 597.788C364.502 598.544 364.026 599.132 363.41 599.552C362.794 599.963 362.071 600.168 361.24 600.168ZM361.24 598.908C361.754 598.908 362.202 598.754 362.584 598.446C362.967 598.138 363.266 597.699 363.48 597.13C363.695 596.561 363.802 595.889 363.802 595.114C363.802 594.33 363.695 593.658 363.48 593.098C363.266 592.529 362.967 592.09 362.584 591.782C362.202 591.474 361.754 591.32 361.24 591.32C360.736 591.32 360.288 591.474 359.896 591.782C359.514 592.09 359.215 592.529 359 593.098C358.786 593.667 358.678 594.339 358.678 595.114C358.678 595.889 358.786 596.561 359 597.13C359.215 597.699 359.514 598.138 359.896 598.446C360.288 598.754 360.736 598.908 361.24 598.908ZM370.626 600.168C369.795 600.168 369.072 599.963 368.456 599.552C367.84 599.132 367.359 598.544 367.014 597.788C366.678 597.032 366.51 596.141 366.51 595.114C366.51 594.078 366.678 593.182 367.014 592.426C367.359 591.67 367.84 591.087 368.456 590.676C369.072 590.265 369.795 590.06 370.626 590.06C371.456 590.06 372.18 590.265 372.796 590.676C373.412 591.087 373.888 591.67 374.224 592.426C374.569 593.182 374.742 594.078 374.742 595.114C374.742 596.141 374.569 597.032 374.224 597.788C373.888 598.544 373.412 599.132 372.796 599.552C372.18 599.963 371.456 600.168 370.626 600.168ZM370.626 598.908C371.139 598.908 371.587 598.754 371.97 598.446C372.352 598.138 372.651 597.699 372.866 597.13C373.08 596.561 373.188 595.889 373.188 595.114C373.188 594.33 373.08 593.658 372.866 593.098C372.651 592.529 372.352 592.09 371.97 591.782C371.587 591.474 371.139 591.32 370.626 591.32C370.122 591.32 369.674 591.474 369.282 591.782C368.899 592.09 368.6 592.529 368.386 593.098C368.171 593.667 368.064 594.339 368.064 595.114C368.064 595.889 368.171 596.561 368.386 597.13C368.6 597.699 368.899 598.138 369.282 598.446C369.674 598.754 370.122 598.908 370.626 598.908ZM391.315 594.876C391.669 594.979 391.982 595.133 392.253 595.338C392.533 595.543 392.752 595.809 392.911 596.136C393.079 596.453 393.163 596.827 393.163 597.256C393.163 597.807 393.023 598.287 392.743 598.698C392.472 599.109 392.085 599.431 391.581 599.664C391.077 599.888 390.479 600 389.789 600H386.009V590.228H389.649C390.675 590.228 391.478 590.452 392.057 590.9C392.635 591.348 392.925 591.936 392.925 592.664C392.925 593.009 392.859 593.331 392.729 593.63C392.607 593.929 392.425 594.185 392.183 594.4C391.94 594.615 391.651 594.773 391.315 594.876ZM389.579 591.488H387.493V594.372H389.579C390.129 594.372 390.563 594.237 390.881 593.966C391.207 593.695 391.371 593.336 391.371 592.888C391.371 592.449 391.207 592.109 390.881 591.866C390.554 591.614 390.12 591.488 389.579 591.488ZM387.493 598.74H389.761C390.33 598.74 390.778 598.6 391.105 598.32C391.441 598.04 391.609 597.662 391.609 597.186C391.609 596.691 391.431 596.309 391.077 596.038C390.731 595.767 390.246 595.632 389.621 595.632H387.493V598.74ZM396.136 597.536V596.276H401.554V597.536H396.136ZM397.704 590.228H399.832L402.856 600H401.33L399.356 593.532L398.768 591.39L398.18 593.546L396.178 600H394.68L397.704 590.228ZM404.57 600V590.228H407.58C408.289 590.228 408.928 590.345 409.498 590.578C410.067 590.802 410.552 591.129 410.954 591.558C411.355 591.978 411.663 592.487 411.878 593.084C412.092 593.681 412.2 594.349 412.2 595.086C412.2 595.833 412.092 596.509 411.878 597.116C411.663 597.713 411.355 598.231 410.954 598.67C410.552 599.099 410.067 599.431 409.498 599.664C408.928 599.888 408.289 600 407.58 600H404.57ZM406.054 598.74H407.58C408.214 598.74 408.76 598.591 409.218 598.292C409.675 597.984 410.025 597.555 410.268 597.004C410.52 596.453 410.646 595.814 410.646 595.086C410.646 594.349 410.52 593.714 410.268 593.182C410.025 592.641 409.675 592.225 409.218 591.936C408.76 591.637 408.214 591.488 407.58 591.488H406.054V598.74Z" fill="#F5EEEB"/>
<rect x="790.5" y="575" width="143" height="40" rx="5" fill="#141214"/>
<rect x="790.5" y="575" width="143" height="40" rx="5" stroke="#727372" stroke-width="1.5"/>
<path d="M809.635 600V591.488H806.485V590.228H814.269V591.488H811.119V600H809.635ZM821.919 600V590.228H823.403V600H821.919ZM816.137 600V590.228H817.621V600H816.137ZM817.411 595.562V594.302H822.115V595.562H817.411ZM828.406 600V590.228H829.89V600H828.406ZM825.956 590.228H832.326V591.488H825.956V590.228ZM825.956 598.74H832.326V600H825.956V598.74ZM838.674 600.168C837.918 600.168 837.26 600.023 836.7 599.734C836.14 599.445 835.706 599.029 835.398 598.488C835.09 597.947 834.936 597.289 834.936 596.514H836.406C836.406 597.279 836.606 597.872 837.008 598.292C837.409 598.703 837.96 598.908 838.66 598.908C839.257 598.908 839.738 598.773 840.102 598.502C840.466 598.222 840.648 597.835 840.648 597.34C840.648 597.004 840.545 596.733 840.34 596.528C840.144 596.323 839.878 596.155 839.542 596.024C839.215 595.893 838.856 595.777 838.464 595.674C838.072 595.571 837.675 595.459 837.274 595.338C836.882 595.207 836.518 595.044 836.182 594.848C835.855 594.652 835.589 594.391 835.384 594.064C835.188 593.737 835.09 593.322 835.09 592.818C835.09 592.286 835.23 591.815 835.51 591.404C835.799 590.984 836.196 590.657 836.7 590.424C837.213 590.181 837.815 590.06 838.506 590.06C839.178 590.06 839.78 590.186 840.312 590.438C840.844 590.681 841.268 591.031 841.586 591.488C841.912 591.936 842.08 592.477 842.09 593.112H840.606C840.596 592.739 840.494 592.421 840.298 592.16C840.111 591.889 839.859 591.684 839.542 591.544C839.234 591.395 838.888 591.32 838.506 591.32C837.955 591.32 837.507 591.451 837.162 591.712C836.816 591.973 836.644 592.328 836.644 592.776C836.644 593.093 836.742 593.345 836.938 593.532C837.143 593.719 837.409 593.873 837.736 593.994C838.072 594.106 838.436 594.213 838.828 594.316C839.229 594.409 839.626 594.521 840.018 594.652C840.41 594.773 840.769 594.941 841.096 595.156C841.432 595.361 841.698 595.641 841.894 595.996C842.099 596.341 842.202 596.785 842.202 597.326C842.202 597.905 842.048 598.409 841.74 598.838C841.432 599.258 841.012 599.585 840.48 599.818C839.948 600.051 839.346 600.168 838.674 600.168ZM856.563 600V590.228H858.047V600H856.563ZM854.113 590.228H860.483V591.488H854.113V590.228ZM854.113 598.74H860.483V600H854.113V598.74ZM866.83 600.168C866.074 600.168 865.416 600.023 864.856 599.734C864.296 599.445 863.862 599.029 863.554 598.488C863.246 597.947 863.092 597.289 863.092 596.514H864.562C864.562 597.279 864.763 597.872 865.164 598.292C865.565 598.703 866.116 598.908 866.816 598.908C867.413 598.908 867.894 598.773 868.258 598.502C868.622 598.222 868.804 597.835 868.804 597.34C868.804 597.004 868.701 596.733 868.496 596.528C868.3 596.323 868.034 596.155 867.698 596.024C867.371 595.893 867.012 595.777 866.62 595.674C866.228 595.571 865.831 595.459 865.43 595.338C865.038 595.207 864.674 595.044 864.338 594.848C864.011 594.652 863.745 594.391 863.54 594.064C863.344 593.737 863.246 593.322 863.246 592.818C863.246 592.286 863.386 591.815 863.666 591.404C863.955 590.984 864.352 590.657 864.856 590.424C865.369 590.181 865.971 590.06 866.662 590.06C867.334 590.06 867.936 590.186 868.468 590.438C869 590.681 869.425 591.031 869.742 591.488C870.069 591.936 870.237 592.477 870.246 593.112H868.762C868.753 592.739 868.65 592.421 868.454 592.16C868.267 591.889 868.015 591.684 867.698 591.544C867.39 591.395 867.045 591.32 866.662 591.32C866.111 591.32 865.663 591.451 865.318 591.712C864.973 591.973 864.8 592.328 864.8 592.776C864.8 593.093 864.898 593.345 865.094 593.532C865.299 593.719 865.565 593.873 865.892 593.994C866.228 594.106 866.592 594.213 866.984 594.316C867.385 594.409 867.782 594.521 868.174 594.652C868.566 594.773 868.925 594.941 869.252 595.156C869.588 595.361 869.854 595.641 870.05 595.996C870.255 596.341 870.358 596.785 870.358 597.326C870.358 597.905 870.204 598.409 869.896 598.838C869.588 599.258 869.168 599.585 868.636 599.818C868.104 600.051 867.502 600.168 866.83 600.168ZM881.989 600V590.228H889.073V591.488H883.473V594.302H887.351V595.562H883.473V600H881.989ZM894.104 600V590.228H895.588V600H894.104ZM891.654 590.228H898.024V591.488H891.654V590.228ZM891.654 598.74H898.024V600H891.654V598.74ZM900.62 600V590.228H902.468L906.542 598.068L906.43 595.044V590.228H907.858V600H906.024L901.922 592.244L902.048 595.17V600H900.62ZM910.229 600V590.228H917.243V591.488H911.713V594.302H915.521V595.562H911.713V598.74H917.299V600H910.229Z" fill="#F5EEEB"/>
<path d="M620 1450L628.291 1459.37L638.652 1452.36L644.351 1463.5L656.132 1459.28L658.882 1471.48L671.341 1470.33L670.969 1482.83L683.325 1484.81L679.854 1496.83L691.329 1501.82L684.978 1512.6L694.852 1520.29L686.019 1529.15L693.672 1539.05L682.912 1545.44L687.862 1556.93L675.852 1560.44L677.788 1572.81L665.283 1573.22L664.084 1585.68L651.868 1582.97L647.609 1594.73L636.451 1589.07L629.4 1599.41L620 1591.15L610.6 1599.41L603.549 1589.07L592.391 1594.73L588.132 1582.97L575.916 1585.68L574.717 1573.22L562.212 1572.81L564.148 1560.44L552.138 1556.93L557.088 1545.44L546.328 1539.05L553.981 1529.15L545.148 1520.29L555.022 1512.6L548.671 1501.82L560.146 1496.83L556.675 1484.81L569.031 1482.83L568.659 1470.33L581.118 1471.48L583.868 1459.28L595.649 1463.5L601.348 1452.36L611.709 1459.37L620 1450Z" fill="#F5EEEB"/>
<path d="M606.087 1520.17C605.228 1520.17 604.482 1519.95 603.847 1519.52C603.222 1519.09 602.736 1518.49 602.391 1517.73C602.055 1516.97 601.887 1516.09 601.887 1515.1C601.887 1514.07 602.064 1513.18 602.419 1512.43C602.774 1511.67 603.268 1511.09 603.903 1510.68C604.547 1510.27 605.294 1510.06 606.143 1510.06C606.824 1510.06 607.44 1510.2 607.991 1510.47C608.551 1510.73 609.004 1511.11 609.349 1511.61C609.704 1512.11 609.909 1512.7 609.965 1513.39H608.341C608.266 1512.77 608.033 1512.27 607.641 1511.89C607.249 1511.51 606.745 1511.32 606.129 1511.32C605.597 1511.32 605.126 1511.47 604.715 1511.78C604.314 1512.08 604.001 1512.51 603.777 1513.08C603.553 1513.65 603.441 1514.33 603.441 1515.11C603.441 1515.9 603.553 1516.57 603.777 1517.14C604.01 1517.71 604.328 1518.15 604.729 1518.46C605.13 1518.76 605.583 1518.91 606.087 1518.91C606.526 1518.91 606.908 1518.82 607.235 1518.64C607.562 1518.46 607.823 1518.2 608.019 1517.87C608.224 1517.55 608.346 1517.16 608.383 1516.72H610.021C609.956 1517.41 609.755 1518.02 609.419 1518.54C609.083 1519.06 608.63 1519.46 608.061 1519.75C607.501 1520.03 606.843 1520.17 606.087 1520.17ZM615.319 1520.17C614.488 1520.17 613.765 1519.96 613.149 1519.55C612.533 1519.13 612.052 1518.54 611.707 1517.79C611.371 1517.03 611.203 1516.14 611.203 1515.11C611.203 1514.08 611.371 1513.18 611.707 1512.43C612.052 1511.67 612.533 1511.09 613.149 1510.68C613.765 1510.27 614.488 1510.06 615.319 1510.06C616.149 1510.06 616.873 1510.27 617.489 1510.68C618.105 1511.09 618.581 1511.67 618.917 1512.43C619.262 1513.18 619.435 1514.08 619.435 1515.11C619.435 1516.14 619.262 1517.03 618.917 1517.79C618.581 1518.54 618.105 1519.13 617.489 1519.55C616.873 1519.96 616.149 1520.17 615.319 1520.17ZM615.319 1518.91C615.832 1518.91 616.28 1518.75 616.663 1518.45C617.045 1518.14 617.344 1517.7 617.559 1517.13C617.773 1516.56 617.881 1515.89 617.881 1515.11C617.881 1514.33 617.773 1513.66 617.559 1513.1C617.344 1512.53 617.045 1512.09 616.663 1511.78C616.28 1511.47 615.832 1511.32 615.319 1511.32C614.815 1511.32 614.367 1511.47 613.975 1511.78C613.592 1512.09 613.293 1512.53 613.079 1513.1C612.864 1513.67 612.757 1514.34 612.757 1515.11C612.757 1515.89 612.864 1516.56 613.079 1517.13C613.293 1517.7 613.592 1518.14 613.975 1518.45C614.367 1518.75 614.815 1518.91 615.319 1518.91ZM624.704 1520.17C623.873 1520.17 623.15 1519.96 622.534 1519.55C621.918 1519.13 621.437 1518.54 621.092 1517.79C620.756 1517.03 620.588 1516.14 620.588 1515.11C620.588 1514.08 620.756 1513.18 621.092 1512.43C621.437 1511.67 621.918 1511.09 622.534 1510.68C623.15 1510.27 623.873 1510.06 624.704 1510.06C625.535 1510.06 626.258 1510.27 626.874 1510.68C627.49 1511.09 627.966 1511.67 628.302 1512.43C628.647 1513.18 628.82 1514.08 628.82 1515.11C628.82 1516.14 628.647 1517.03 628.302 1517.79C627.966 1518.54 627.49 1519.13 626.874 1519.55C626.258 1519.96 625.535 1520.17 624.704 1520.17ZM624.704 1518.91C625.217 1518.91 625.665 1518.75 626.048 1518.45C626.431 1518.14 626.729 1517.7 626.944 1517.13C627.159 1516.56 627.266 1515.89 627.266 1515.11C627.266 1514.33 627.159 1513.66 626.944 1513.1C626.729 1512.53 626.431 1512.09 626.048 1511.78C625.665 1511.47 625.217 1511.32 624.704 1511.32C624.2 1511.32 623.752 1511.47 623.36 1511.78C622.977 1512.09 622.679 1512.53 622.464 1513.1C622.249 1513.67 622.142 1514.34 622.142 1515.11C622.142 1515.89 622.249 1516.56 622.464 1517.13C622.679 1517.7 622.977 1518.14 623.36 1518.45C623.752 1518.75 624.2 1518.91 624.704 1518.91ZM631.065 1520V1510.23H632.549V1518.74H637.673V1520H631.065ZM591.099 1540V1530.23H592.583V1540H591.099ZM588.649 1530.23H595.019V1531.49H588.649V1530.23ZM588.649 1538.74H595.019V1540H588.649V1538.74ZM610.808 1540.17C609.94 1540.17 609.184 1539.96 608.54 1539.54C607.896 1539.12 607.392 1538.53 607.028 1537.77C606.673 1537.02 606.496 1536.13 606.496 1535.11C606.496 1534.11 606.678 1533.22 607.042 1532.47C607.406 1531.71 607.914 1531.12 608.568 1530.7C609.221 1530.27 609.982 1530.06 610.85 1530.06C611.522 1530.06 612.124 1530.19 612.656 1530.45C613.197 1530.71 613.636 1531.09 613.972 1531.59C614.308 1532.08 614.504 1532.68 614.56 1533.38H612.922C612.847 1532.75 612.623 1532.25 612.25 1531.88C611.886 1531.51 611.41 1531.32 610.822 1531.32C610.299 1531.32 609.828 1531.47 609.408 1531.78C608.997 1532.08 608.67 1532.51 608.428 1533.08C608.185 1533.64 608.064 1534.32 608.064 1535.11C608.064 1535.93 608.185 1536.62 608.428 1537.19C608.68 1537.75 609.02 1538.18 609.45 1538.47C609.888 1538.76 610.378 1538.91 610.92 1538.91C611.396 1538.91 611.816 1538.82 612.18 1538.66C612.544 1538.48 612.847 1538.25 613.09 1537.98V1536.05L611.382 1536.11L611.438 1534.83H614.56V1538.42C614.177 1538.97 613.659 1539.4 613.006 1539.71C612.362 1540.01 611.629 1540.17 610.808 1540.17ZM620.011 1540.17C619.246 1540.17 618.579 1540.02 618.009 1539.72C617.44 1539.41 616.997 1538.99 616.679 1538.45C616.362 1537.9 616.203 1537.26 616.203 1536.53V1530.23H617.701V1536.53C617.701 1537 617.795 1537.42 617.981 1537.77C618.177 1538.13 618.448 1538.4 618.793 1538.6C619.139 1538.8 619.545 1538.89 620.011 1538.89C620.478 1538.89 620.879 1538.8 621.215 1538.6C621.561 1538.4 621.827 1538.13 622.013 1537.77C622.209 1537.42 622.307 1537 622.307 1536.53V1530.23H623.805V1536.53C623.805 1537.26 623.647 1537.9 623.329 1538.45C623.012 1538.99 622.569 1539.41 621.999 1539.72C621.439 1540.02 620.777 1540.17 620.011 1540.17ZM625.995 1540V1530.23H633.009V1531.49H627.479V1534.3H631.287V1535.56H627.479V1538.74H633.065V1540H625.995ZM638.908 1540.17C638.152 1540.17 637.494 1540.02 636.934 1539.73C636.374 1539.44 635.94 1539.03 635.632 1538.49C635.324 1537.95 635.17 1537.29 635.17 1536.51H636.64C636.64 1537.28 636.841 1537.87 637.242 1538.29C637.644 1538.7 638.194 1538.91 638.894 1538.91C639.492 1538.91 639.972 1538.77 640.336 1538.5C640.7 1538.22 640.882 1537.83 640.882 1537.34C640.882 1537 640.78 1536.73 640.574 1536.53C640.378 1536.32 640.112 1536.15 639.776 1536.02C639.45 1535.89 639.09 1535.78 638.698 1535.67C638.306 1535.57 637.91 1535.46 637.508 1535.34C637.116 1535.21 636.752 1535.04 636.416 1534.85C636.09 1534.65 635.824 1534.39 635.618 1534.06C635.422 1533.74 635.324 1533.32 635.324 1532.82C635.324 1532.29 635.464 1531.81 635.744 1531.4C636.034 1530.98 636.43 1530.66 636.934 1530.42C637.448 1530.18 638.05 1530.06 638.74 1530.06C639.412 1530.06 640.014 1530.19 640.546 1530.44C641.078 1530.68 641.503 1531.03 641.82 1531.49C642.147 1531.94 642.315 1532.48 642.324 1533.11H640.84C640.831 1532.74 640.728 1532.42 640.532 1532.16C640.346 1531.89 640.094 1531.68 639.776 1531.54C639.468 1531.39 639.123 1531.32 638.74 1531.32C638.19 1531.32 637.742 1531.45 637.396 1531.71C637.051 1531.97 636.878 1532.33 636.878 1532.78C636.878 1533.09 636.976 1533.35 637.172 1533.53C637.378 1533.72 637.644 1533.87 637.97 1533.99C638.306 1534.11 638.67 1534.21 639.062 1534.32C639.464 1534.41 639.86 1534.52 640.252 1534.65C640.644 1534.77 641.004 1534.94 641.33 1535.16C641.666 1535.36 641.932 1535.64 642.128 1536C642.334 1536.34 642.436 1536.78 642.436 1537.33C642.436 1537.9 642.282 1538.41 641.974 1538.84C641.666 1539.26 641.246 1539.58 640.714 1539.82C640.182 1540.05 639.58 1540.17 638.908 1540.17ZM648.294 1540.17C647.538 1540.17 646.88 1540.02 646.32 1539.73C645.76 1539.44 645.326 1539.03 645.018 1538.49C644.71 1537.95 644.556 1537.29 644.556 1536.51H646.026C646.026 1537.28 646.226 1537.87 646.628 1538.29C647.029 1538.7 647.58 1538.91 648.28 1538.91C648.877 1538.91 649.358 1538.77 649.722 1538.5C650.086 1538.22 650.268 1537.83 650.268 1537.34C650.268 1537 650.165 1536.73 649.96 1536.53C649.764 1536.32 649.498 1536.15 649.162 1536.02C648.835 1535.89 648.476 1535.78 648.084 1535.67C647.692 1535.57 647.295 1535.46 646.894 1535.34C646.502 1535.21 646.138 1535.04 645.802 1534.85C645.475 1534.65 645.209 1534.39 645.004 1534.06C644.808 1533.74 644.71 1533.32 644.71 1532.82C644.71 1532.29 644.85 1531.81 645.13 1531.4C645.419 1530.98 645.816 1530.66 646.32 1530.42C646.833 1530.18 647.435 1530.06 648.126 1530.06C648.798 1530.06 649.4 1530.19 649.932 1530.44C650.464 1530.68 650.888 1531.03 651.206 1531.49C651.532 1531.94 651.7 1532.48 651.71 1533.11H650.226C650.216 1532.74 650.114 1532.42 649.918 1532.16C649.731 1531.89 649.479 1531.68 649.162 1531.54C648.854 1531.39 648.508 1531.32 648.126 1531.32C647.575 1531.32 647.127 1531.45 646.782 1531.71C646.436 1531.97 646.264 1532.33 646.264 1532.78C646.264 1533.09 646.362 1533.35 646.558 1533.53C646.763 1533.72 647.029 1533.87 647.356 1533.99C647.692 1534.11 648.056 1534.21 648.448 1534.32C648.849 1534.41 649.246 1534.52 649.638 1534.65C650.03 1534.77 650.389 1534.94 650.716 1535.16C651.052 1535.36 651.318 1535.64 651.514 1536C651.719 1536.34 651.822 1536.78 651.822 1537.33C651.822 1537.9 651.668 1538.41 651.36 1538.84C651.052 1539.26 650.632 1539.58 650.1 1539.82C649.568 1540.05 648.966 1540.17 648.294 1540.17Z" fill="#080708"/>
<path d="M2.56044 30V22.02L-0.701557 24.666V22.916L2.96644 20.228H4.04444V30H2.56044ZM-0.701557 30V28.74H6.21444V30H-0.701557ZM10.9099 30V28.264H12.6459V30H10.9099ZM22.918 27.536V26.276H28.336V27.536H22.918ZM24.486 20.228H26.614L29.638 30H28.112L26.138 23.532L25.55 21.39L24.962 23.546L22.96 30H21.462L24.486 20.228ZM31.9255 30V20.228H33.4095V28.74H38.5335V30H31.9255ZM41.3109 30V20.228H42.7949V28.74H47.9189V30H41.3109ZM59.7039 30V20.228H66.7179V21.488H61.1879V24.302H64.9959V25.562H61.1879V28.74H66.7739V30H59.7039ZM71.4133 30L68.3613 20.228H69.9153L71.9733 26.64L72.5053 28.754L73.0233 26.654L75.0953 20.228H76.6073L73.5553 30H71.4133ZM78.4748 30V20.228H85.4888V21.488H79.9588V24.302H83.7668V25.562H79.9588V28.74H85.5448V30H78.4748ZM87.6363 30V20.228H89.4843L93.5583 28.068L93.4463 25.044V20.228H94.8743V30H93.0403L88.9383 22.244L89.0643 25.17V30H87.6363ZM99.8917 30V21.488H96.7417V20.228H104.526V21.488H101.376V30H99.8917ZM110.159 30.168C109.403 30.168 108.745 30.0233 108.185 29.734C107.625 29.4447 107.191 29.0293 106.883 28.488C106.575 27.9467 106.421 27.2887 106.421 26.514H107.891C107.891 27.2793 108.092 27.872 108.493 28.292C108.895 28.7027 109.445 28.908 110.145 28.908C110.743 28.908 111.223 28.7727 111.587 28.502C111.951 28.222 112.133 27.8347 112.133 27.34C112.133 27.004 112.031 26.7333 111.825 26.528C111.629 26.3227 111.363 26.1547 111.027 26.024C110.701 25.8933 110.341 25.7767 109.949 25.674C109.557 25.5713 109.161 25.4593 108.759 25.338C108.367 25.2073 108.003 25.044 107.667 24.848C107.341 24.652 107.075 24.3907 106.869 24.064C106.673 23.7373 106.575 23.322 106.575 22.818C106.575 22.286 106.715 21.8147 106.995 21.404C107.285 20.984 107.681 20.6573 108.185 20.424C108.699 20.1813 109.301 20.06 109.991 20.06C110.663 20.06 111.265 20.186 111.797 20.438C112.329 20.6807 112.754 21.0307 113.071 21.488C113.398 21.936 113.566 22.4773 113.575 23.112H112.091C112.082 22.7387 111.979 22.4213 111.783 22.16C111.597 21.8893 111.345 21.684 111.027 21.544C110.719 21.3947 110.374 21.32 109.991 21.32C109.441 21.32 108.993 21.4507 108.647 21.712C108.302 21.9733 108.129 22.328 108.129 22.776C108.129 23.0933 108.227 23.3453 108.423 23.532C108.629 23.7187 108.895 23.8727 109.221 23.994C109.557 24.106 109.921 24.2133 110.313 24.316C110.715 24.4093 111.111 24.5213 111.503 24.652C111.895 24.7733 112.255 24.9413 112.581 25.156C112.917 25.3613 113.183 25.6413 113.379 25.996C113.585 26.3413 113.687 26.7847 113.687 27.326C113.687 27.9047 113.533 28.4087 113.225 28.838C112.917 29.258 112.497 29.5847 111.965 29.818C111.433 30.0513 110.831 30.168 110.159 30.168Z" fill="#F5EEEB"/>
<path d="M2.39644 305V303.936C3.68444 302.975 4.72044 302.139 5.50444 301.43C6.28844 300.711 6.85778 300.077 7.21244 299.526C7.56711 298.966 7.74444 298.457 7.74444 298C7.74444 297.496 7.58578 297.09 7.26844 296.782C6.96044 296.474 6.52644 296.32 5.96644 296.32C5.37844 296.32 4.89311 296.502 4.51044 296.866C4.12778 297.221 3.92244 297.725 3.89444 298.378H2.39644C2.44311 297.678 2.62044 297.081 2.92844 296.586C3.24578 296.082 3.66578 295.704 4.18844 295.452C4.72044 295.191 5.32244 295.06 5.99444 295.06C6.66644 295.06 7.24978 295.181 7.74444 295.424C8.23911 295.657 8.61711 295.993 8.87844 296.432C9.14911 296.861 9.28444 297.361 9.28444 297.93C9.28444 298.546 9.12578 299.153 8.80844 299.75C8.50044 300.338 8.00111 300.959 7.31044 301.612C6.62911 302.256 5.72378 302.965 4.59444 303.74H9.31244V305H2.39644ZM13.9099 305V303.264H15.6459V305H13.9099ZM28.69 305.168C27.934 305.168 27.276 305.023 26.716 304.734C26.156 304.445 25.722 304.029 25.414 303.488C25.106 302.947 24.952 302.289 24.952 301.514H26.422C26.422 302.279 26.6227 302.872 27.024 303.292C27.4253 303.703 27.976 303.908 28.676 303.908C29.2733 303.908 29.754 303.773 30.118 303.502C30.482 303.222 30.664 302.835 30.664 302.34C30.664 302.004 30.5613 301.733 30.356 301.528C30.16 301.323 29.894 301.155 29.558 301.024C29.2313 300.893 28.872 300.777 28.48 300.674C28.088 300.571 27.6913 300.459 27.29 300.338C26.898 300.207 26.534 300.044 26.198 299.848C25.8713 299.652 25.6053 299.391 25.4 299.064C25.204 298.737 25.106 298.322 25.106 297.818C25.106 297.286 25.246 296.815 25.526 296.404C25.8153 295.984 26.212 295.657 26.716 295.424C27.2293 295.181 27.8313 295.06 28.522 295.06C29.194 295.06 29.796 295.186 30.328 295.438C30.86 295.681 31.2847 296.031 31.602 296.488C31.9287 296.936 32.0967 297.477 32.106 298.112H30.622C30.6127 297.739 30.51 297.421 30.314 297.16C30.1273 296.889 29.8753 296.684 29.558 296.544C29.25 296.395 28.9047 296.32 28.522 296.32C27.9713 296.32 27.5233 296.451 27.178 296.712C26.8327 296.973 26.66 297.328 26.66 297.776C26.66 298.093 26.758 298.345 26.954 298.532C27.1593 298.719 27.4253 298.873 27.752 298.994C28.088 299.106 28.452 299.213 28.844 299.316C29.2453 299.409 29.642 299.521 30.034 299.652C30.426 299.773 30.7853 299.941 31.112 300.156C31.448 300.361 31.714 300.641 31.91 300.996C32.1153 301.341 32.218 301.785 32.218 302.326C32.218 302.905 32.064 303.409 31.756 303.838C31.448 304.258 31.028 304.585 30.496 304.818C29.964 305.051 29.362 305.168 28.69 305.168ZM37.1935 305V295.228H38.6775V305H37.1935ZM34.7435 295.228H41.1135V296.488H34.7435V295.228ZM34.7435 303.74H41.1135V305H34.7435V303.74ZM43.7089 305V295.228H45.5569L49.6309 303.068L49.5189 300.044V295.228H50.9469V305H49.1129L45.0109 297.244L45.1369 300.17V305H43.7089ZM56.9024 305.168C56.0344 305.168 55.2784 304.958 54.6344 304.538C53.9904 304.118 53.4864 303.53 53.1224 302.774C52.7677 302.018 52.5904 301.131 52.5904 300.114C52.5904 299.106 52.7724 298.224 53.1364 297.468C53.5004 296.712 54.0091 296.124 54.6624 295.704C55.3157 295.275 56.0764 295.06 56.9444 295.06C57.6164 295.06 58.2184 295.191 58.7504 295.452C59.2917 295.713 59.7304 296.091 60.0664 296.586C60.4024 297.081 60.5984 297.678 60.6544 298.378H59.0164C58.9417 297.753 58.7177 297.253 58.3444 296.88C57.9804 296.507 57.5044 296.32 56.9164 296.32C56.3937 296.32 55.9224 296.474 55.5024 296.782C55.0917 297.081 54.7651 297.515 54.5224 298.084C54.2797 298.644 54.1584 299.321 54.1584 300.114C54.1584 300.926 54.2797 301.617 54.5224 302.186C54.7744 302.746 55.1151 303.175 55.5444 303.474C55.9831 303.763 56.4731 303.908 57.0144 303.908C57.4904 303.908 57.9104 303.824 58.2744 303.656C58.6384 303.479 58.9417 303.255 59.1844 302.984V301.052L57.4764 301.108L57.5324 299.834H60.6544V303.418C60.2717 303.969 59.7537 304.398 59.1004 304.706C58.4564 305.014 57.7237 305.168 56.9024 305.168ZM63.0819 305V295.228H64.5659V303.74H69.6899V305H63.0819ZM72.0893 305V295.228H79.1033V296.488H73.5733V299.302H77.3813V300.562H73.5733V303.74H79.1593V305H72.0893ZM90.8603 305V295.228H97.8743V296.488H92.3443V299.302H96.1523V300.562H92.3443V303.74H97.9303V305H90.8603ZM102.57 305L99.5177 295.228H101.072L103.13 301.64L103.662 303.754L104.18 301.654L106.252 295.228H107.764L104.712 305H102.57ZM109.631 305V295.228H116.645V296.488H111.115V299.302H114.923V300.562H111.115V303.74H116.701V305H109.631ZM118.793 305V295.228H120.641L124.715 303.068L124.603 300.044V295.228H126.031V305H124.197L120.095 297.244L120.221 300.17V305H118.793ZM131.048 305V296.488H127.898V295.228H135.682V296.488H132.532V305H131.048Z" fill="#F5EEEB"/>
</g>
<defs>
<clipPath id="clip0_491_13740">
<rect width="1000" height="1600" fill="white"/>
</clipPath>
</defs>
</svg>
