<svg width="1000" height="1471" viewBox="0 0 1000 1471" fill="none" xmlns="http://www.w3.org/2000/svg">
<rect x="65" y="1" width="150" height="150" rx="75" fill="#F5EEEB"/>
<path d="M125.793 61.168C125.028 61.168 124.36 61.0187 123.791 60.72C123.222 60.412 122.778 59.9873 122.461 59.446C122.144 58.8953 121.985 58.256 121.985 57.528V51.228H123.483V57.528C123.483 58.004 123.576 58.4193 123.763 58.774C123.959 59.1287 124.23 59.404 124.575 59.6C124.92 59.796 125.326 59.894 125.793 59.894C126.26 59.894 126.661 59.796 126.997 59.6C127.342 59.404 127.608 59.1287 127.795 58.774C127.991 58.4193 128.089 58.004 128.089 57.528V51.228H129.587V57.528C129.587 58.256 129.428 58.8953 129.111 59.446C128.794 59.9873 128.35 60.412 127.781 60.72C127.221 61.0187 126.558 61.168 125.793 61.168ZM135.305 61.168C134.549 61.168 133.891 61.0233 133.331 60.734C132.771 60.4447 132.337 60.0293 132.029 59.488C131.721 58.9467 131.567 58.2887 131.567 57.514H133.037C133.037 58.2793 133.237 58.872 133.639 59.292C134.04 59.7027 134.591 59.908 135.291 59.908C135.888 59.908 136.369 59.7727 136.733 59.502C137.097 59.222 137.279 58.8347 137.279 58.34C137.279 58.004 137.176 57.7333 136.971 57.528C136.775 57.3227 136.509 57.1547 136.173 57.024C135.846 56.8933 135.487 56.7767 135.095 56.674C134.703 56.5713 134.306 56.4593 133.905 56.338C133.513 56.2073 133.149 56.044 132.813 55.848C132.486 55.652 132.22 55.3907 132.015 55.064C131.819 54.7373 131.721 54.322 131.721 53.818C131.721 53.286 131.861 52.8147 132.141 52.404C132.43 51.984 132.827 51.6573 133.331 51.424C133.844 51.1813 134.446 51.06 135.137 51.06C135.809 51.06 136.411 51.186 136.943 51.438C137.475 51.6807 137.899 52.0307 138.217 52.488C138.543 52.936 138.711 53.4773 138.721 54.112H137.237C137.227 53.7387 137.125 53.4213 136.929 53.16C136.742 52.8893 136.49 52.684 136.173 52.544C135.865 52.3947 135.519 52.32 135.137 52.32C134.586 52.32 134.138 52.4507 133.793 52.712C133.447 52.9733 133.275 53.328 133.275 53.776C133.275 54.0933 133.373 54.3453 133.569 54.532C133.774 54.7187 134.04 54.8727 134.367 54.994C134.703 55.106 135.067 55.2133 135.459 55.316C135.86 55.4093 136.257 55.5213 136.649 55.652C137.041 55.7733 137.4 55.9413 137.727 56.156C138.063 56.3613 138.329 56.6413 138.525 56.996C138.73 57.3413 138.833 57.7847 138.833 58.326C138.833 58.9047 138.679 59.4087 138.371 59.838C138.063 60.258 137.643 60.5847 137.111 60.818C136.579 61.0513 135.977 61.168 135.305 61.168ZM141.162 61V51.228H148.176V52.488H142.646V55.302H146.454V56.562H142.646V59.74H148.232V61H141.162ZM151.639 56.912V55.652H154.117C154.528 55.652 154.887 55.5867 155.195 55.456C155.513 55.316 155.76 55.12 155.937 54.868C156.124 54.616 156.217 54.3267 156.217 54C156.217 53.6827 156.138 53.412 155.979 53.188C155.821 52.964 155.606 52.7913 155.335 52.67C155.065 52.5487 154.761 52.488 154.425 52.488H151.639V51.228H154.425C155.069 51.228 155.643 51.34 156.147 51.564C156.651 51.7787 157.048 52.0913 157.337 52.502C157.627 52.9127 157.771 53.412 157.771 54C157.771 54.3733 157.683 54.7327 157.505 55.078C157.337 55.4233 157.09 55.736 156.763 56.016C156.446 56.2867 156.059 56.506 155.601 56.674C155.144 56.8327 154.626 56.912 154.047 56.912H151.639ZM150.575 61V51.228H152.059V61H150.575ZM156.189 61C156.133 60.5613 156.012 60.1273 155.825 59.698C155.648 59.2687 155.405 58.858 155.097 58.466C154.789 58.074 154.407 57.71 153.949 57.374C153.501 57.038 152.979 56.7347 152.381 56.464L154.033 56.1C154.649 56.408 155.177 56.7533 155.615 57.136C156.063 57.5093 156.432 57.906 156.721 58.326C157.02 58.746 157.244 59.18 157.393 59.628C157.552 60.076 157.655 60.5333 157.701 61H156.189ZM98.9274 81V71.228H105.941V72.488H100.411V75.302H104.219V76.562H100.411V79.74H105.997V81H98.9274ZM108.089 81V71.228H109.937L114.011 79.068L113.899 76.044V71.228H115.327V81H113.493L109.391 73.244L109.517 76.17V81H108.089ZM120.344 81V72.488H117.194V71.228H124.978V72.488H121.828V81H120.344ZM127.084 81V71.228H134.098V72.488H128.568V75.302H132.376V76.562H128.568V79.74H134.154V81H127.084ZM137.561 76.912V75.652H140.039C140.45 75.652 140.809 75.5867 141.117 75.456C141.435 75.316 141.682 75.12 141.859 74.868C142.046 74.616 142.139 74.3267 142.139 74C142.139 73.6827 142.06 73.412 141.901 73.188C141.743 72.964 141.528 72.7913 141.257 72.67C140.987 72.5487 140.683 72.488 140.347 72.488H137.561V71.228H140.347C140.991 71.228 141.565 71.34 142.069 71.564C142.573 71.7787 142.97 72.0913 143.259 72.502C143.549 72.9127 143.693 73.412 143.693 74C143.693 74.3733 143.605 74.7327 143.427 75.078C143.259 75.4233 143.012 75.736 142.685 76.016C142.368 76.2867 141.981 76.506 141.523 76.674C141.066 76.8327 140.548 76.912 139.969 76.912H137.561ZM136.497 81V71.228H137.981V81H136.497ZM142.111 81C142.055 80.5613 141.934 80.1273 141.747 79.698C141.57 79.2687 141.327 78.858 141.019 78.466C140.711 78.074 140.329 77.71 139.871 77.374C139.423 77.038 138.901 76.7347 138.303 76.464L139.955 76.1C140.571 76.408 141.099 76.7533 141.537 77.136C141.985 77.5093 142.354 77.906 142.643 78.326C142.942 78.746 143.166 79.18 143.315 79.628C143.474 80.076 143.577 80.5333 143.623 81H142.111ZM149.383 81.168C148.627 81.168 147.969 81.0233 147.409 80.734C146.849 80.4447 146.415 80.0293 146.107 79.488C145.799 78.9467 145.645 78.2887 145.645 77.514H147.115C147.115 78.2793 147.315 78.872 147.717 79.292C148.118 79.7027 148.669 79.908 149.369 79.908C149.966 79.908 150.447 79.7727 150.811 79.502C151.175 79.222 151.357 78.8347 151.357 78.34C151.357 78.004 151.254 77.7333 151.049 77.528C150.853 77.3227 150.587 77.1547 150.251 77.024C149.924 76.8933 149.565 76.7767 149.173 76.674C148.781 76.5713 148.384 76.4593 147.983 76.338C147.591 76.2073 147.227 76.044 146.891 75.848C146.564 75.652 146.298 75.3907 146.093 75.064C145.897 74.7373 145.799 74.322 145.799 73.818C145.799 73.286 145.939 72.8147 146.219 72.404C146.508 71.984 146.905 71.6573 147.409 71.424C147.922 71.1813 148.524 71.06 149.215 71.06C149.887 71.06 150.489 71.186 151.021 71.438C151.553 71.6807 151.977 72.0307 152.295 72.488C152.621 72.936 152.789 73.4773 152.799 74.112H151.315C151.305 73.7387 151.203 73.4213 151.007 73.16C150.82 72.8893 150.568 72.684 150.251 72.544C149.943 72.3947 149.597 72.32 149.215 72.32C148.664 72.32 148.216 72.4507 147.871 72.712C147.525 72.9733 147.353 73.328 147.353 73.776C147.353 74.0933 147.451 74.3453 147.647 74.532C147.852 74.7187 148.118 74.8727 148.445 74.994C148.781 75.106 149.145 75.2133 149.537 75.316C149.938 75.4093 150.335 75.5213 150.727 75.652C151.119 75.7733 151.478 75.9413 151.805 76.156C152.141 76.3613 152.407 76.6413 152.603 76.996C152.808 77.3413 152.911 77.7847 152.911 78.326C152.911 78.9047 152.757 79.4087 152.449 79.838C152.141 80.258 151.721 80.5847 151.189 80.818C150.657 81.0513 150.055 81.168 149.383 81.168ZM163.828 81L164.556 71.228H166.502L167.748 77.01L168.042 78.914L168.35 77.01L169.568 71.228H171.486L172.228 81H170.758L170.436 74.882L170.38 72.726L169.96 74.882L168.63 81H167.37L166.054 74.882L165.662 72.698L165.578 74.882L165.27 81H163.828ZM176.629 81V77.038L173.395 71.228H175.019L176.531 73.916L177.399 75.75L178.281 73.902L179.793 71.228H181.403L178.113 77.038V81H176.629ZM111.099 101V92.488H107.949V91.228H115.733V92.488H112.583V101H111.099ZM120.484 101V91.228H121.968V101H120.484ZM118.034 91.228H124.404V92.488H118.034V91.228ZM118.034 99.74H124.404V101H118.034V99.74ZM130.78 101.168C129.921 101.168 129.174 100.953 128.54 100.524C127.914 100.085 127.429 99.488 127.084 98.732C126.748 97.9667 126.58 97.0893 126.58 96.1C126.58 95.0733 126.757 94.182 127.112 93.426C127.466 92.67 127.961 92.0867 128.596 91.676C129.24 91.2653 129.986 91.06 130.836 91.06C131.517 91.06 132.133 91.1953 132.684 91.466C133.244 91.7273 133.696 92.11 134.042 92.614C134.396 93.1087 134.602 93.7013 134.658 94.392H133.034C132.959 93.7667 132.726 93.2673 132.334 92.894C131.942 92.5113 131.438 92.32 130.822 92.32C130.29 92.32 129.818 92.474 129.408 92.782C129.006 93.0807 128.694 93.5147 128.47 94.084C128.246 94.6533 128.134 95.33 128.134 96.114C128.134 96.898 128.246 97.5747 128.47 98.144C128.703 98.7133 129.02 99.152 129.422 99.46C129.823 99.7587 130.276 99.908 130.78 99.908C131.218 99.908 131.601 99.8193 131.928 99.642C132.254 99.4553 132.516 99.1987 132.712 98.872C132.917 98.5453 133.038 98.1627 133.076 97.724H134.714C134.648 98.4147 134.448 99.0213 134.112 99.544C133.776 100.057 133.323 100.459 132.754 100.748C132.194 101.028 131.536 101.168 130.78 101.168ZM136.553 101V91.228H138.037V93.748L137.939 95.624L139.339 94.028L141.985 91.228H143.833L138.037 97.528V101H136.553ZM142.391 101L138.765 95.526L140.011 94.756L144.169 101H142.391ZM145.995 101V91.228H153.009V92.488H147.479V95.302H151.287V96.562H147.479V99.74H153.065V101H145.995ZM158.026 101V92.488H154.876V91.228H162.66V92.488H159.51V101H158.026ZM168.294 101.168C167.538 101.168 166.88 101.023 166.32 100.734C165.76 100.445 165.326 100.029 165.018 99.488C164.71 98.9467 164.556 98.2887 164.556 97.514H166.026C166.026 98.2793 166.226 98.872 166.628 99.292C167.029 99.7027 167.58 99.908 168.28 99.908C168.877 99.908 169.358 99.7727 169.722 99.502C170.086 99.222 170.268 98.8347 170.268 98.34C170.268 98.004 170.165 97.7333 169.96 97.528C169.764 97.3227 169.498 97.1547 169.162 97.024C168.835 96.8933 168.476 96.7767 168.084 96.674C167.692 96.5713 167.295 96.4593 166.894 96.338C166.502 96.2073 166.138 96.044 165.802 95.848C165.475 95.652 165.209 95.3907 165.004 95.064C164.808 94.7373 164.71 94.322 164.71 93.818C164.71 93.286 164.85 92.8147 165.13 92.404C165.419 91.984 165.816 91.6573 166.32 91.424C166.833 91.1813 167.435 91.06 168.126 91.06C168.798 91.06 169.4 91.186 169.932 91.438C170.464 91.6807 170.888 92.0307 171.206 92.488C171.532 92.936 171.7 93.4773 171.71 94.112H170.226C170.216 93.7387 170.114 93.4213 169.918 93.16C169.731 92.8893 169.479 92.684 169.162 92.544C168.854 92.3947 168.508 92.32 168.126 92.32C167.575 92.32 167.127 92.4507 166.782 92.712C166.436 92.9733 166.264 93.328 166.264 93.776C166.264 94.0933 166.362 94.3453 166.558 94.532C166.763 94.7187 167.029 94.8727 167.356 94.994C167.692 95.106 168.056 95.2133 168.448 95.316C168.849 95.4093 169.246 95.5213 169.638 95.652C170.03 95.7733 170.389 95.9413 170.716 96.156C171.052 96.3613 171.318 96.6413 171.514 96.996C171.719 97.3413 171.822 97.7847 171.822 98.326C171.822 98.9047 171.668 99.4087 171.36 99.838C171.052 100.258 170.632 100.585 170.1 100.818C169.568 101.051 168.966 101.168 168.294 101.168Z" fill="#080708"/>
<rect x="305" y="1" width="150" height="150" rx="5" fill="#F5EEEB"/>
<path d="M357.698 71V61.228H364.712V62.488H359.182V65.302H362.99V66.562H359.182V69.74H364.768V71H357.698ZM369.408 71L366.356 61.228H367.91L369.968 67.64L370.5 69.754L371.018 67.654L373.09 61.228H374.602L371.55 71H369.408ZM376.469 71V61.228H383.483V62.488H377.953V65.302H381.761V66.562H377.953V69.74H383.539V71H376.469ZM385.631 71V61.228H387.479L391.553 69.068L391.441 66.044V61.228H392.869V71H391.035L386.933 63.244L387.059 66.17V71H385.631ZM397.886 71V62.488H394.736V61.228H402.52V62.488H399.37V71H397.886ZM348.257 91V81.228H351.267C351.976 81.228 352.616 81.3447 353.185 81.578C353.754 81.802 354.24 82.1287 354.641 82.558C355.042 82.978 355.35 83.4867 355.565 84.084C355.78 84.6813 355.887 85.3487 355.887 86.086C355.887 86.8327 355.78 87.5093 355.565 88.116C355.35 88.7133 355.042 89.2313 354.641 89.67C354.24 90.0993 353.754 90.4307 353.185 90.664C352.616 90.888 351.976 91 351.267 91H348.257ZM349.741 89.74H351.267C351.902 89.74 352.448 89.5907 352.905 89.292C353.362 88.984 353.712 88.5547 353.955 88.004C354.207 87.4533 354.333 86.814 354.333 86.086C354.333 85.3487 354.207 84.714 353.955 84.182C353.712 83.6407 353.362 83.2253 352.905 82.936C352.448 82.6373 351.902 82.488 351.267 82.488H349.741V89.74ZM357.838 91V81.228H364.852V82.488H359.322V85.302H363.13V86.562H359.322V89.74H364.908V91H357.838ZM369.87 91V82.488H366.72V81.228H374.504V82.488H371.354V91H369.87ZM377.365 88.536V87.276H382.783V88.536H377.365ZM378.933 81.228H381.061L384.085 91H382.559L380.585 84.532L379.997 82.39L379.409 84.546L377.407 91H375.909L378.933 81.228ZM388.641 91V81.228H390.125V91H388.641ZM386.191 81.228H392.561V82.488H386.191V81.228ZM386.191 89.74H392.561V91H386.191V89.74ZM395.758 91V81.228H397.242V89.74H402.366V91H395.758ZM408.294 91.168C407.538 91.168 406.88 91.0233 406.32 90.734C405.76 90.4447 405.326 90.0293 405.018 89.488C404.71 88.9467 404.556 88.2887 404.556 87.514H406.026C406.026 88.2793 406.226 88.872 406.628 89.292C407.029 89.7027 407.58 89.908 408.28 89.908C408.877 89.908 409.358 89.7727 409.722 89.502C410.086 89.222 410.268 88.8347 410.268 88.34C410.268 88.004 410.165 87.7333 409.96 87.528C409.764 87.3227 409.498 87.1547 409.162 87.024C408.835 86.8933 408.476 86.7767 408.084 86.674C407.692 86.5713 407.295 86.4593 406.894 86.338C406.502 86.2073 406.138 86.044 405.802 85.848C405.475 85.652 405.209 85.3907 405.004 85.064C404.808 84.7373 404.71 84.322 404.71 83.818C404.71 83.286 404.85 82.8147 405.13 82.404C405.419 81.984 405.816 81.6573 406.32 81.424C406.833 81.1813 407.435 81.06 408.126 81.06C408.798 81.06 409.4 81.186 409.932 81.438C410.464 81.6807 410.888 82.0307 411.206 82.488C411.532 82.936 411.7 83.4773 411.71 84.112H410.226C410.216 83.7387 410.114 83.4213 409.918 83.16C409.731 82.8893 409.479 82.684 409.162 82.544C408.854 82.3947 408.508 82.32 408.126 82.32C407.575 82.32 407.127 82.4507 406.782 82.712C406.436 82.9733 406.264 83.328 406.264 83.776C406.264 84.0933 406.362 84.3453 406.558 84.532C406.763 84.7187 407.029 84.8727 407.356 84.994C407.692 85.106 408.056 85.2133 408.448 85.316C408.849 85.4093 409.246 85.5213 409.638 85.652C410.03 85.7733 410.389 85.9413 410.716 86.156C411.052 86.3613 411.318 86.6413 411.514 86.996C411.719 87.3413 411.822 87.7847 411.822 88.326C411.822 88.9047 411.668 89.4087 411.36 89.838C411.052 90.258 410.632 90.5847 410.1 90.818C409.568 91.0513 408.966 91.168 408.294 91.168Z" fill="#080708"/>
<rect x="545" y="541" width="150" height="150" rx="5" fill="#F5EEEB"/>
<path d="M596.534 601.168C595.778 601.168 595.12 601.023 594.56 600.734C594 600.445 593.566 600.029 593.258 599.488C592.95 598.947 592.796 598.289 592.796 597.514H594.266C594.266 598.279 594.466 598.872 594.868 599.292C595.269 599.703 595.82 599.908 596.52 599.908C597.117 599.908 597.598 599.773 597.962 599.502C598.326 599.222 598.508 598.835 598.508 598.34C598.508 598.004 598.405 597.733 598.2 597.528C598.004 597.323 597.738 597.155 597.402 597.024C597.075 596.893 596.716 596.777 596.324 596.674C595.932 596.571 595.535 596.459 595.134 596.338C594.742 596.207 594.378 596.044 594.042 595.848C593.715 595.652 593.449 595.391 593.244 595.064C593.048 594.737 592.95 594.322 592.95 593.818C592.95 593.286 593.09 592.815 593.37 592.404C593.659 591.984 594.056 591.657 594.56 591.424C595.073 591.181 595.675 591.06 596.366 591.06C597.038 591.06 597.64 591.186 598.172 591.438C598.704 591.681 599.128 592.031 599.446 592.488C599.772 592.936 599.94 593.477 599.95 594.112H598.466C598.456 593.739 598.354 593.421 598.158 593.16C597.971 592.889 597.719 592.684 597.402 592.544C597.094 592.395 596.748 592.32 596.366 592.32C595.815 592.32 595.367 592.451 595.022 592.712C594.676 592.973 594.504 593.328 594.504 593.776C594.504 594.093 594.602 594.345 594.798 594.532C595.003 594.719 595.269 594.873 595.596 594.994C595.932 595.106 596.296 595.213 596.688 595.316C597.089 595.409 597.486 595.521 597.878 595.652C598.27 595.773 598.629 595.941 598.956 596.156C599.292 596.361 599.558 596.641 599.754 596.996C599.959 597.341 600.062 597.785 600.062 598.326C600.062 598.905 599.908 599.409 599.6 599.838C599.292 600.258 598.872 600.585 598.34 600.818C597.808 601.051 597.206 601.168 596.534 601.168ZM605.037 601V591.228H606.521V601H605.037ZM602.587 591.228H608.957V592.488H602.587V591.228ZM602.587 599.74H608.957V601H602.587V599.74ZM611.553 601V591.228H613.401L617.475 599.068L617.363 596.044V591.228H618.791V601H616.957L612.855 593.244L612.981 596.17V601H611.553ZM624.746 601.168C623.878 601.168 623.122 600.958 622.478 600.538C621.834 600.118 621.33 599.53 620.966 598.774C620.611 598.018 620.434 597.131 620.434 596.114C620.434 595.106 620.616 594.224 620.98 593.468C621.344 592.712 621.853 592.124 622.506 591.704C623.159 591.275 623.92 591.06 624.788 591.06C625.46 591.06 626.062 591.191 626.594 591.452C627.135 591.713 627.574 592.091 627.91 592.586C628.246 593.081 628.442 593.678 628.498 594.378H626.86C626.785 593.753 626.561 593.253 626.188 592.88C625.824 592.507 625.348 592.32 624.76 592.32C624.237 592.32 623.766 592.474 623.346 592.782C622.935 593.081 622.609 593.515 622.366 594.084C622.123 594.644 622.002 595.321 622.002 596.114C622.002 596.926 622.123 597.617 622.366 598.186C622.618 598.746 622.959 599.175 623.388 599.474C623.827 599.763 624.317 599.908 624.858 599.908C625.334 599.908 625.754 599.824 626.118 599.656C626.482 599.479 626.785 599.255 627.028 598.984V597.052L625.32 597.108L625.376 595.834H628.498V599.418C628.115 599.969 627.597 600.398 626.944 600.706C626.3 601.014 625.567 601.168 624.746 601.168ZM630.925 601V591.228H632.409V599.74H637.533V601H630.925ZM639.933 601V591.228H646.947V592.488H641.417V595.302H645.225V596.562H641.417V599.74H647.003V601H639.933ZM588.691 621V611.228H590.175V619.74H595.299V621H588.691ZM600.344 621V611.228H601.828V621H600.344ZM597.894 611.228H604.264V612.488H597.894V611.228ZM597.894 619.74H604.264V621H597.894V619.74ZM610.612 621.168C609.856 621.168 609.198 621.023 608.638 620.734C608.078 620.445 607.644 620.029 607.336 619.488C607.028 618.947 606.874 618.289 606.874 617.514H608.344C608.344 618.279 608.544 618.872 608.946 619.292C609.347 619.703 609.898 619.908 610.598 619.908C611.195 619.908 611.676 619.773 612.04 619.502C612.404 619.222 612.586 618.835 612.586 618.34C612.586 618.004 612.483 617.733 612.278 617.528C612.082 617.323 611.816 617.155 611.48 617.024C611.153 616.893 610.794 616.777 610.402 616.674C610.01 616.571 609.613 616.459 609.212 616.338C608.82 616.207 608.456 616.044 608.12 615.848C607.793 615.652 607.527 615.391 607.322 615.064C607.126 614.737 607.028 614.322 607.028 613.818C607.028 613.286 607.168 612.815 607.448 612.404C607.737 611.984 608.134 611.657 608.638 611.424C609.151 611.181 609.753 611.06 610.444 611.06C611.116 611.06 611.718 611.186 612.25 611.438C612.782 611.681 613.206 612.031 613.524 612.488C613.85 612.936 614.018 613.477 614.028 614.112H612.544C612.534 613.739 612.432 613.421 612.236 613.16C612.049 612.889 611.797 612.684 611.48 612.544C611.172 612.395 610.826 612.32 610.444 612.32C609.893 612.32 609.445 612.451 609.1 612.712C608.754 612.973 608.582 613.328 608.582 613.776C608.582 614.093 608.68 614.345 608.876 614.532C609.081 614.719 609.347 614.873 609.674 614.994C610.01 615.106 610.374 615.213 610.766 615.316C611.167 615.409 611.564 615.521 611.956 615.652C612.348 615.773 612.707 615.941 613.034 616.156C613.37 616.361 613.636 616.641 613.832 616.996C614.037 617.341 614.14 617.785 614.14 618.326C614.14 618.905 613.986 619.409 613.678 619.838C613.37 620.258 612.95 620.585 612.418 620.818C611.886 621.051 611.284 621.168 610.612 621.168ZM619.115 621V612.488H615.965V611.228H623.749V612.488H620.599V621H619.115ZM628.501 621V611.228H629.985V621H628.501ZM626.051 611.228H632.421V612.488H626.051V611.228ZM626.051 619.74H632.421V621H626.051V619.74ZM635.016 621V611.228H636.864L640.938 619.068L640.826 616.044V611.228H642.254V621H640.42L636.318 613.244L636.444 616.17V621H635.016ZM648.21 621.168C647.342 621.168 646.586 620.958 645.942 620.538C645.298 620.118 644.794 619.53 644.43 618.774C644.075 618.018 643.898 617.131 643.898 616.114C643.898 615.106 644.08 614.224 644.444 613.468C644.808 612.712 645.316 612.124 645.97 611.704C646.623 611.275 647.384 611.06 648.252 611.06C648.924 611.06 649.526 611.191 650.058 611.452C650.599 611.713 651.038 612.091 651.374 612.586C651.71 613.081 651.906 613.678 651.962 614.378H650.324C650.249 613.753 650.025 613.253 649.652 612.88C649.288 612.507 648.812 612.32 648.224 612.32C647.701 612.32 647.23 612.474 646.81 612.782C646.399 613.081 646.072 613.515 645.83 614.084C645.587 614.644 645.466 615.321 645.466 616.114C645.466 616.926 645.587 617.617 645.83 618.186C646.082 618.746 646.422 619.175 646.852 619.474C647.29 619.763 647.78 619.908 648.322 619.908C648.798 619.908 649.218 619.824 649.582 619.656C649.946 619.479 650.249 619.255 650.492 618.984V617.052L648.784 617.108L648.84 615.834H651.962V619.418C651.579 619.969 651.061 620.398 650.408 620.706C649.764 621.014 649.031 621.168 648.21 621.168ZM602.447 641V631.228H609.531V632.488H603.931V635.302H607.809V636.562H603.931V641H602.447ZM612.295 641V631.228H613.779V639.74H618.903V641H612.295ZM624.704 641.168C623.873 641.168 623.15 640.963 622.534 640.552C621.918 640.132 621.437 639.544 621.092 638.788C620.756 638.032 620.588 637.141 620.588 636.114C620.588 635.078 620.756 634.182 621.092 633.426C621.437 632.67 621.918 632.087 622.534 631.676C623.15 631.265 623.873 631.06 624.704 631.06C625.535 631.06 626.258 631.265 626.874 631.676C627.49 632.087 627.966 632.67 628.302 633.426C628.647 634.182 628.82 635.078 628.82 636.114C628.82 637.141 628.647 638.032 628.302 638.788C627.966 639.544 627.49 640.132 626.874 640.552C626.258 640.963 625.535 641.168 624.704 641.168ZM624.704 639.908C625.217 639.908 625.665 639.754 626.048 639.446C626.431 639.138 626.729 638.699 626.944 638.13C627.159 637.561 627.266 636.889 627.266 636.114C627.266 635.33 627.159 634.658 626.944 634.098C626.729 633.529 626.431 633.09 626.048 632.782C625.665 632.474 625.217 632.32 624.704 632.32C624.2 632.32 623.752 632.474 623.36 632.782C622.977 633.09 622.679 633.529 622.464 634.098C622.249 634.667 622.142 635.339 622.142 636.114C622.142 636.889 622.249 637.561 622.464 638.13C622.679 638.699 622.977 639.138 623.36 639.446C623.752 639.754 624.2 639.908 624.704 639.908ZM630.855 641L629.763 631.228H631.177L631.821 637.43L631.975 639.67L632.325 637.43L633.431 631.228H634.789L635.909 637.43L636.273 639.726L636.399 637.43L637.015 631.228H638.415L637.309 641H635.335L634.397 635.582L634.117 633.384L633.809 635.582L632.843 641H630.855Z" fill="#080708"/>
<rect x="545" y="781" width="150" height="150" rx="5" fill="#F5EEEB"/>
<path d="M597.838 851V841.228H604.852V842.488H599.322V845.302H603.13V846.562H599.322V849.74H604.908V851H597.838ZM609.548 851L606.496 841.228H608.05L610.108 847.64L610.64 849.754L611.158 847.654L613.23 841.228H614.742L611.69 851H609.548ZM616.609 851V841.228H623.623V842.488H618.093V845.302H621.901V846.562H618.093V849.74H623.679V851H616.609ZM625.771 851V841.228H627.619L631.693 849.068L631.581 846.044V841.228H633.009V851H631.175L627.073 843.244L627.199 846.17V851H625.771ZM638.026 851V842.488H634.876V841.228H642.66V842.488H639.51V851H638.026ZM593.524 871V861.228H595.008V869.74H600.132V871H593.524ZM605.177 871V861.228H606.661V871H605.177ZM602.727 861.228H609.097V862.488H602.727V861.228ZM602.727 869.74H609.097V871H602.727V869.74ZM615.445 871.168C614.689 871.168 614.031 871.023 613.471 870.734C612.911 870.445 612.477 870.029 612.169 869.488C611.861 868.947 611.707 868.289 611.707 867.514H613.177C613.177 868.279 613.377 868.872 613.779 869.292C614.18 869.703 614.731 869.908 615.431 869.908C616.028 869.908 616.509 869.773 616.873 869.502C617.237 869.222 617.419 868.835 617.419 868.34C617.419 868.004 617.316 867.733 617.111 867.528C616.915 867.323 616.649 867.155 616.313 867.024C615.986 866.893 615.627 866.777 615.235 866.674C614.843 866.571 614.446 866.459 614.045 866.338C613.653 866.207 613.289 866.044 612.953 865.848C612.626 865.652 612.36 865.391 612.155 865.064C611.959 864.737 611.861 864.322 611.861 863.818C611.861 863.286 612.001 862.815 612.281 862.404C612.57 861.984 612.967 861.657 613.471 861.424C613.984 861.181 614.586 861.06 615.277 861.06C615.949 861.06 616.551 861.186 617.083 861.438C617.615 861.681 618.039 862.031 618.357 862.488C618.683 862.936 618.851 863.477 618.861 864.112H617.377C617.367 863.739 617.265 863.421 617.069 863.16C616.882 862.889 616.63 862.684 616.313 862.544C616.005 862.395 615.659 862.32 615.277 862.32C614.726 862.32 614.278 862.451 613.933 862.712C613.587 862.973 613.415 863.328 613.415 863.776C613.415 864.093 613.513 864.345 613.709 864.532C613.914 864.719 614.18 864.873 614.507 864.994C614.843 865.106 615.207 865.213 615.599 865.316C616 865.409 616.397 865.521 616.789 865.652C617.181 865.773 617.54 865.941 617.867 866.156C618.203 866.361 618.469 866.641 618.665 866.996C618.87 867.341 618.973 867.785 618.973 868.326C618.973 868.905 618.819 869.409 618.511 869.838C618.203 870.258 617.783 870.585 617.251 870.818C616.719 871.051 616.117 871.168 615.445 871.168ZM623.948 871V862.488H620.798V861.228H628.582V862.488H625.432V871H623.948ZM630.687 871V861.228H637.701V862.488H632.171V865.302H635.979V866.562H632.171V869.74H637.757V871H630.687ZM639.877 871V861.228H642.887C643.596 861.228 644.236 861.345 644.805 861.578C645.374 861.802 645.86 862.129 646.261 862.558C646.662 862.978 646.97 863.487 647.185 864.084C647.4 864.681 647.507 865.349 647.507 866.086C647.507 866.833 647.4 867.509 647.185 868.116C646.97 868.713 646.662 869.231 646.261 869.67C645.86 870.099 645.374 870.431 644.805 870.664C644.236 870.888 643.596 871 642.887 871H639.877ZM641.361 869.74H642.887C643.522 869.74 644.068 869.591 644.525 869.292C644.982 868.984 645.332 868.555 645.575 868.004C645.827 867.453 645.953 866.814 645.953 866.086C645.953 865.349 645.827 864.714 645.575 864.182C645.332 863.641 644.982 863.225 644.525 862.936C644.068 862.637 643.522 862.488 642.887 862.488H641.361V869.74Z" fill="#080708"/>
<rect x="545" y="1" width="150" height="150" rx="75" fill="#141214"/>
<rect x="545" y="1" width="150" height="150" rx="75" stroke="#C74677" stroke-width="1.5"/>
<path d="M605.919 71.168C605.163 71.168 604.505 71.0233 603.945 70.734C603.385 70.4447 602.951 70.0293 602.643 69.488C602.335 68.9467 602.181 68.2887 602.181 67.514H603.651C603.651 68.2793 603.852 68.872 604.253 69.292C604.654 69.7027 605.205 69.908 605.905 69.908C606.502 69.908 606.983 69.7727 607.347 69.502C607.711 69.222 607.893 68.8347 607.893 68.34C607.893 68.004 607.79 67.7333 607.585 67.528C607.389 67.3227 607.123 67.1547 606.787 67.024C606.46 66.8933 606.101 66.7767 605.709 66.674C605.317 66.5713 604.92 66.4593 604.519 66.338C604.127 66.2073 603.763 66.044 603.427 65.848C603.1 65.652 602.834 65.3907 602.629 65.064C602.433 64.7373 602.335 64.322 602.335 63.818C602.335 63.286 602.475 62.8147 602.755 62.404C603.044 61.984 603.441 61.6573 603.945 61.424C604.458 61.1813 605.06 61.06 605.751 61.06C606.423 61.06 607.025 61.186 607.557 61.438C608.089 61.6807 608.514 62.0307 608.831 62.488C609.158 62.936 609.326 63.4773 609.335 64.112H607.851C607.842 63.7387 607.739 63.4213 607.543 63.16C607.356 62.8893 607.104 62.684 606.787 62.544C606.479 62.3947 606.134 62.32 605.751 62.32C605.2 62.32 604.752 62.4507 604.407 62.712C604.062 62.9733 603.889 63.328 603.889 63.776C603.889 64.0933 603.987 64.3453 604.183 64.532C604.388 64.7187 604.654 64.8727 604.981 64.994C605.317 65.106 605.681 65.2133 606.073 65.316C606.474 65.4093 606.871 65.5213 607.263 65.652C607.655 65.7733 608.014 65.9413 608.341 66.156C608.677 66.3613 608.943 66.6413 609.139 66.996C609.344 67.3413 609.447 67.7847 609.447 68.326C609.447 68.9047 609.293 69.4087 608.985 69.838C608.677 70.258 608.257 70.5847 607.725 70.818C607.193 71.0513 606.591 71.168 605.919 71.168ZM611.777 71V61.228H618.791V62.488H613.261V65.302H617.069V66.562H613.261V69.74H618.847V71H611.777ZM621.54 71V61.228H623.024V69.74H628.148V71H621.54ZM630.925 71V61.228H632.409V69.74H637.533V71H630.925ZM598.466 85.876C598.82 85.9787 599.133 86.1327 599.404 86.338C599.684 86.5433 599.903 86.8093 600.062 87.136C600.23 87.4533 600.314 87.8267 600.314 88.256C600.314 88.8067 600.174 89.2873 599.894 89.698C599.623 90.1087 599.236 90.4307 598.732 90.664C598.228 90.888 597.63 91 596.94 91H593.16V81.228H596.8C597.826 81.228 598.629 81.452 599.208 81.9C599.786 82.348 600.076 82.936 600.076 83.664C600.076 84.0093 600.01 84.3313 599.88 84.63C599.758 84.9287 599.576 85.1853 599.334 85.4C599.091 85.6147 598.802 85.7733 598.466 85.876ZM596.73 82.488H594.644V85.372H596.73C597.28 85.372 597.714 85.2367 598.032 84.966C598.358 84.6953 598.522 84.336 598.522 83.888C598.522 83.4493 598.358 83.1087 598.032 82.866C597.705 82.614 597.271 82.488 596.73 82.488ZM594.644 89.74H596.912C597.481 89.74 597.929 89.6 598.256 89.32C598.592 89.04 598.76 88.662 598.76 88.186C598.76 87.6913 598.582 87.3087 598.228 87.038C597.882 86.7673 597.397 86.632 596.772 86.632H594.644V89.74ZM605.933 91.168C605.168 91.168 604.5 91.0187 603.931 90.72C603.362 90.412 602.918 89.9873 602.601 89.446C602.284 88.8953 602.125 88.256 602.125 87.528V81.228H603.623V87.528C603.623 88.004 603.716 88.4193 603.903 88.774C604.099 89.1287 604.37 89.404 604.715 89.6C605.06 89.796 605.466 89.894 605.933 89.894C606.4 89.894 606.801 89.796 607.137 89.6C607.482 89.404 607.748 89.1287 607.935 88.774C608.131 88.4193 608.229 88.004 608.229 87.528V81.228H609.727V87.528C609.727 88.256 609.568 88.8953 609.251 89.446C608.934 89.9873 608.49 90.412 607.921 90.72C607.361 91.0187 606.698 91.168 605.933 91.168ZM614.563 91V82.488H611.413V81.228H619.197V82.488H616.047V91H614.563ZM623.948 91V82.488H620.798V81.228H628.582V82.488H625.432V91H623.948ZM634.089 91.168C633.259 91.168 632.535 90.9627 631.919 90.552C631.303 90.132 630.823 89.544 630.477 88.788C630.141 88.032 629.973 87.1407 629.973 86.114C629.973 85.078 630.141 84.182 630.477 83.426C630.823 82.67 631.303 82.0867 631.919 81.676C632.535 81.2653 633.259 81.06 634.089 81.06C634.92 81.06 635.643 81.2653 636.259 81.676C636.875 82.0867 637.351 82.67 637.687 83.426C638.033 84.182 638.205 85.078 638.205 86.114C638.205 87.1407 638.033 88.032 637.687 88.788C637.351 89.544 636.875 90.132 636.259 90.552C635.643 90.9627 634.92 91.168 634.089 91.168ZM634.089 89.908C634.603 89.908 635.051 89.754 635.433 89.446C635.816 89.138 636.115 88.6993 636.329 88.13C636.544 87.5607 636.651 86.8887 636.651 86.114C636.651 85.33 636.544 84.658 636.329 84.098C636.115 83.5287 635.816 83.09 635.433 82.782C635.051 82.474 634.603 82.32 634.089 82.32C633.585 82.32 633.137 82.474 632.745 82.782C632.363 83.09 632.064 83.5287 631.849 84.098C631.635 84.6673 631.527 85.3393 631.527 86.114C631.527 86.8887 631.635 87.5607 631.849 88.13C632.064 88.6993 632.363 89.138 632.745 89.446C633.137 89.754 633.585 89.908 634.089 89.908ZM639.849 91V81.228H641.697L645.771 89.068L645.659 86.044V81.228H647.087V91H645.253L641.151 83.244L641.277 86.17V91H639.849Z" fill="#F5EEEB"/>
<path d="M230 75.25H229.25V76.75H230V75.25ZM290.53 76.5303C290.823 76.2374 290.823 75.7626 290.53 75.4697L285.757 70.6967C285.464 70.4038 284.99 70.4038 284.697 70.6967C284.404 70.9896 284.404 71.4645 284.697 71.7574L288.939 76L284.697 80.2426C284.404 80.5355 284.404 81.0104 284.697 81.3033C284.99 81.5962 285.464 81.5962 285.757 81.3033L290.53 76.5303ZM230 76.75H290V75.25H230V76.75Z" fill="#BEBFBD"/>
<path d="M470 75.25H469.25V76.75H470V75.25ZM530.53 76.5303C530.823 76.2374 530.823 75.7626 530.53 75.4697L525.757 70.6967C525.464 70.4038 524.99 70.4038 524.697 70.6967C524.404 70.9896 524.404 71.4645 524.697 71.7574L528.939 76L524.697 80.2426C524.404 80.5355 524.404 81.0104 524.697 81.3033C524.99 81.5962 525.464 81.5962 525.757 81.3033L530.53 76.5303ZM470 76.75H530V75.25H470V76.75Z" fill="#BEBFBD"/>
<path d="M530 316H380" stroke="#BEBFBD" stroke-width="1.5" stroke-linecap="square"/>
<path d="M860 1096H710" stroke="#BEBFBD" stroke-width="1.5" stroke-linecap="square"/>
<path d="M860 76.75H860.75V75.25H860V76.75ZM709.47 75.4697C709.177 75.7626 709.177 76.2374 709.47 76.5303L714.243 81.3033C714.536 81.5962 715.01 81.5962 715.303 81.3033C715.596 81.0104 715.596 80.5355 715.303 80.2426L711.061 76L715.303 71.7574C715.596 71.4645 715.596 70.9896 715.303 70.6967C715.01 70.4038 714.536 70.4038 714.243 70.6967L709.47 75.4697ZM860 75.25H710V76.75H860V75.25Z" fill="#BEBFBD"/>
<path d="M530.53 616.53C530.823 616.237 530.823 615.763 530.53 615.47L525.757 610.697C525.464 610.404 524.99 610.404 524.697 610.697C524.404 610.99 524.404 611.464 524.697 611.757L528.939 616L524.697 620.243C524.404 620.536 524.404 621.01 524.697 621.303C524.99 621.596 525.464 621.596 525.757 621.303L530.53 616.53ZM380 615.25H379.25V616.75H380V615.25ZM530 615.25H380V616.75H530V615.25Z" fill="#BEBFBD"/>
<path d="M620.75 166L620.75 165.25L619.25 165.25L619.25 166L620.75 166ZM619.47 226.53C619.763 226.823 620.237 226.823 620.53 226.53L625.303 221.757C625.596 221.464 625.596 220.99 625.303 220.697C625.01 220.404 624.536 220.404 624.243 220.697L620 224.939L615.757 220.697C615.464 220.404 614.99 220.404 614.697 220.697C614.404 220.99 614.404 221.464 614.697 221.757L619.47 226.53ZM619.25 166L619.25 226L620.75 226L620.75 166L619.25 166Z" fill="#C74677"/>
<path d="M620.75 706L620.75 705.25L619.25 705.25L619.25 706L620.75 706ZM619.47 766.53C619.763 766.823 620.237 766.823 620.53 766.53L625.303 761.757C625.596 761.464 625.596 760.99 625.303 760.697C625.01 760.404 624.536 760.404 624.243 760.697L620 764.939L615.757 760.697C615.464 760.404 614.99 760.404 614.697 760.697C614.404 760.99 614.404 761.464 614.697 761.757L619.47 766.53ZM619.25 706L619.25 766L620.75 766L620.75 706L619.25 706Z" fill="#C74677"/>
<path d="M620.75 946L620.75 945.25L619.25 945.25L619.25 946L620.75 946ZM619.47 1006.53C619.763 1006.82 620.237 1006.82 620.53 1006.53L625.303 1001.76C625.596 1001.46 625.596 1000.99 625.303 1000.7C625.01 1000.4 624.536 1000.4 624.243 1000.7L620 1004.94L615.757 1000.7C615.464 1000.4 614.99 1000.4 614.697 1000.7C614.404 1000.99 614.404 1001.46 614.697 1001.76L619.47 1006.53ZM619.25 946L619.25 1006L620.75 1006L620.75 946L619.25 946Z" fill="#C74677"/>
<path d="M380 316L380 616" stroke="#BEBFBD" stroke-width="1.5" stroke-linecap="square"/>
<path d="M860 76L860 1096" stroke="#BEBFBD" stroke-width="1.5" stroke-linecap="square"/>
<path d="M620.75 406L620.75 405.25L619.25 405.25L619.25 406L620.75 406ZM619.47 526.53C619.763 526.823 620.237 526.823 620.53 526.53L625.303 521.757C625.596 521.464 625.596 520.99 625.303 520.697C625.01 520.404 624.536 520.404 624.243 520.697L620 524.939L615.757 520.697C615.464 520.404 614.99 520.404 614.697 520.697C614.404 520.99 614.404 521.464 614.697 521.757L619.47 526.53ZM619.25 406L619.25 526H620.75L620.75 406L619.25 406Z" fill="#C74677"/>
<path d="M620.75 1186L620.75 1185.25L619.25 1185.25L619.25 1186L620.75 1186ZM619.47 1306.53C619.763 1306.82 620.237 1306.82 620.53 1306.53L625.303 1301.76C625.596 1301.46 625.596 1300.99 625.303 1300.7C625.01 1300.4 624.536 1300.4 624.243 1300.7L620 1304.94L615.757 1300.7C615.464 1300.4 614.99 1300.4 614.697 1300.7C614.404 1300.99 614.404 1301.46 614.697 1301.76L619.47 1306.53ZM619.25 1186L619.25 1306H620.75L620.75 1186L619.25 1186Z" fill="#C74677"/>
<path d="M546.061 316L620 242.061L693.939 316L620 389.939L546.061 316Z" fill="#141214" stroke="#C74677" stroke-width="1.5"/>
<path d="M588.691 301V291.228H590.175V299.74H595.299V301H588.691ZM600.344 301V291.228H601.828V301H600.344ZM597.894 291.228H604.264V292.488H597.894V291.228ZM597.894 299.74H604.264V301H597.894V299.74ZM610.612 301.168C609.856 301.168 609.198 301.023 608.638 300.734C608.078 300.445 607.644 300.029 607.336 299.488C607.028 298.947 606.874 298.289 606.874 297.514H608.344C608.344 298.279 608.544 298.872 608.946 299.292C609.347 299.703 609.898 299.908 610.598 299.908C611.195 299.908 611.676 299.773 612.04 299.502C612.404 299.222 612.586 298.835 612.586 298.34C612.586 298.004 612.483 297.733 612.278 297.528C612.082 297.323 611.816 297.155 611.48 297.024C611.153 296.893 610.794 296.777 610.402 296.674C610.01 296.571 609.613 296.459 609.212 296.338C608.82 296.207 608.456 296.044 608.12 295.848C607.793 295.652 607.527 295.391 607.322 295.064C607.126 294.737 607.028 294.322 607.028 293.818C607.028 293.286 607.168 292.815 607.448 292.404C607.737 291.984 608.134 291.657 608.638 291.424C609.151 291.181 609.753 291.06 610.444 291.06C611.116 291.06 611.718 291.186 612.25 291.438C612.782 291.681 613.206 292.031 613.524 292.488C613.85 292.936 614.018 293.477 614.028 294.112H612.544C612.534 293.739 612.432 293.421 612.236 293.16C612.049 292.889 611.797 292.684 611.48 292.544C611.172 292.395 610.826 292.32 610.444 292.32C609.893 292.32 609.445 292.451 609.1 292.712C608.754 292.973 608.582 293.328 608.582 293.776C608.582 294.093 608.68 294.345 608.876 294.532C609.081 294.719 609.347 294.873 609.674 294.994C610.01 295.106 610.374 295.213 610.766 295.316C611.167 295.409 611.564 295.521 611.956 295.652C612.348 295.773 612.707 295.941 613.034 296.156C613.37 296.361 613.636 296.641 613.832 296.996C614.037 297.341 614.14 297.785 614.14 298.326C614.14 298.905 613.986 299.409 613.678 299.838C613.37 300.258 612.95 300.585 612.418 300.818C611.886 301.051 611.284 301.168 610.612 301.168ZM619.115 301V292.488H615.965V291.228H623.749V292.488H620.599V301H619.115ZM628.501 301V291.228H629.985V301H628.501ZM626.051 291.228H632.421V292.488H626.051V291.228ZM626.051 299.74H632.421V301H626.051V299.74ZM635.016 301V291.228H636.864L640.938 299.068L640.826 296.044V291.228H642.254V301H640.42L636.318 293.244L636.444 296.17V301H635.016ZM648.21 301.168C647.342 301.168 646.586 300.958 645.942 300.538C645.298 300.118 644.794 299.53 644.43 298.774C644.075 298.018 643.898 297.131 643.898 296.114C643.898 295.106 644.08 294.224 644.444 293.468C644.808 292.712 645.316 292.124 645.97 291.704C646.623 291.275 647.384 291.06 648.252 291.06C648.924 291.06 649.526 291.191 650.058 291.452C650.599 291.713 651.038 292.091 651.374 292.586C651.71 293.081 651.906 293.678 651.962 294.378H650.324C650.249 293.753 650.025 293.253 649.652 292.88C649.288 292.507 648.812 292.32 648.224 292.32C647.701 292.32 647.23 292.474 646.81 292.782C646.399 293.081 646.072 293.515 645.83 294.084C645.587 294.644 645.466 295.321 645.466 296.114C645.466 296.926 645.587 297.617 645.83 298.186C646.082 298.746 646.422 299.175 646.852 299.474C647.29 299.763 647.78 299.908 648.322 299.908C648.798 299.908 649.218 299.824 649.582 299.656C649.946 299.479 650.249 299.255 650.492 298.984V297.052L648.784 297.108L648.84 295.834H651.962V299.418C651.579 299.969 651.061 300.398 650.408 300.706C649.764 301.014 649.031 301.168 648.21 301.168ZM582.962 321L583.69 311.228H585.636L586.882 317.01L587.176 318.914L587.484 317.01L588.702 311.228H590.62L591.362 321H589.892L589.57 314.882L589.514 312.726L589.094 314.882L587.764 321H586.504L585.188 314.882L584.796 312.698L584.712 314.882L584.404 321H582.962ZM596.548 321.168C595.782 321.168 595.115 321.019 594.546 320.72C593.976 320.412 593.533 319.987 593.216 319.446C592.898 318.895 592.74 318.256 592.74 317.528V311.228H594.238V317.528C594.238 318.004 594.331 318.419 594.518 318.774C594.714 319.129 594.984 319.404 595.33 319.6C595.675 319.796 596.081 319.894 596.548 319.894C597.014 319.894 597.416 319.796 597.752 319.6C598.097 319.404 598.363 319.129 598.55 318.774C598.746 318.419 598.844 318.004 598.844 317.528V311.228H600.342V317.528C600.342 318.256 600.183 318.895 599.866 319.446C599.548 319.987 599.105 320.412 598.536 320.72C597.976 321.019 597.313 321.168 596.548 321.168ZM602.909 321V311.228H604.393V319.74H609.517V321H602.909ZM614.563 321V312.488H611.413V311.228H619.197V312.488H616.047V321H614.563ZM623.948 321V311.228H625.432V321H623.948ZM621.498 311.228H627.868V312.488H621.498V311.228ZM621.498 319.74H627.868V321H621.498V319.74ZM631.723 317.43V316.17H634.271C634.897 316.17 635.401 315.997 635.783 315.652C636.166 315.307 636.357 314.854 636.357 314.294C636.357 313.753 636.18 313.319 635.825 312.992C635.471 312.656 634.999 312.488 634.411 312.488H631.723V311.228H634.411C635.121 311.228 635.737 311.354 636.259 311.606C636.782 311.858 637.188 312.213 637.477 312.67C637.767 313.127 637.911 313.669 637.911 314.294C637.911 314.919 637.762 315.47 637.463 315.946C637.165 316.413 636.74 316.777 636.189 317.038C635.648 317.299 635.013 317.43 634.285 317.43H631.723ZM630.659 321V311.228H632.143V321H630.659ZM640.451 321V311.228H641.935V319.74H647.059V321H640.451ZM649.458 321V311.228H656.472V312.488H650.942V315.302H654.75V316.562H650.942V319.74H656.528V321H649.458ZM588.453 341V331.228H595.467V332.488H589.937V335.302H593.745V336.562H589.937V339.74H595.523V341H588.453ZM600.162 341L597.11 331.228H598.664L600.722 337.64L601.254 339.754L601.772 337.654L603.844 331.228H605.356L602.304 341H600.162ZM607.224 341V331.228H614.238V332.488H608.708V335.302H612.516V336.562H608.708V339.74H614.294V341H607.224ZM616.385 341V331.228H618.233L622.307 339.068L622.195 336.044V331.228H623.623V341H621.789L617.687 333.244L617.813 336.17V341H616.385ZM628.641 341V332.488H625.491V331.228H633.275V332.488H630.125V341H628.641ZM638.908 341.168C638.152 341.168 637.494 341.023 636.934 340.734C636.374 340.445 635.94 340.029 635.632 339.488C635.324 338.947 635.17 338.289 635.17 337.514H636.64C636.64 338.279 636.841 338.872 637.242 339.292C637.644 339.703 638.194 339.908 638.894 339.908C639.492 339.908 639.972 339.773 640.336 339.502C640.7 339.222 640.882 338.835 640.882 338.34C640.882 338.004 640.78 337.733 640.574 337.528C640.378 337.323 640.112 337.155 639.776 337.024C639.45 336.893 639.09 336.777 638.698 336.674C638.306 336.571 637.91 336.459 637.508 336.338C637.116 336.207 636.752 336.044 636.416 335.848C636.09 335.652 635.824 335.391 635.618 335.064C635.422 334.737 635.324 334.322 635.324 333.818C635.324 333.286 635.464 332.815 635.744 332.404C636.034 331.984 636.43 331.657 636.934 331.424C637.448 331.181 638.05 331.06 638.74 331.06C639.412 331.06 640.014 331.186 640.546 331.438C641.078 331.681 641.503 332.031 641.82 332.488C642.147 332.936 642.315 333.477 642.324 334.112H640.84C640.831 333.739 640.728 333.421 640.532 333.16C640.346 332.889 640.094 332.684 639.776 332.544C639.468 332.395 639.123 332.32 638.74 332.32C638.19 332.32 637.742 332.451 637.396 332.712C637.051 332.973 636.878 333.328 636.878 333.776C636.878 334.093 636.976 334.345 637.172 334.532C637.378 334.719 637.644 334.873 637.97 334.994C638.306 335.106 638.67 335.213 639.062 335.316C639.464 335.409 639.86 335.521 640.252 335.652C640.644 335.773 641.004 335.941 641.33 336.156C641.666 336.361 641.932 336.641 642.128 336.996C642.334 337.341 642.436 337.785 642.436 338.326C642.436 338.905 642.282 339.409 641.974 339.838C641.666 340.258 641.246 340.585 640.714 340.818C640.182 341.051 639.58 341.168 638.908 341.168ZM647.468 338.396V338.032C647.468 337.621 647.528 337.281 647.65 337.01C647.771 336.73 647.925 336.497 648.112 336.31C648.308 336.114 648.513 335.941 648.728 335.792C648.952 335.633 649.157 335.47 649.344 335.302C649.53 335.125 649.684 334.919 649.806 334.686C649.936 334.453 650.002 334.163 650.002 333.818C650.002 333.51 649.927 333.239 649.778 333.006C649.638 332.773 649.437 332.591 649.176 332.46C648.914 332.32 648.616 332.25 648.28 332.25C647.71 332.25 647.239 332.446 646.866 332.838C646.492 333.23 646.306 333.748 646.306 334.392H644.85C644.859 333.72 645.008 333.137 645.298 332.642C645.587 332.138 645.988 331.751 646.502 331.48C647.024 331.2 647.617 331.06 648.28 331.06C648.933 331.06 649.493 331.177 649.96 331.41C650.436 331.634 650.804 331.956 651.066 332.376C651.327 332.787 651.458 333.263 651.458 333.804C651.458 334.252 651.392 334.63 651.262 334.938C651.14 335.237 650.977 335.489 650.772 335.694C650.576 335.899 650.361 336.086 650.128 336.254C649.904 336.413 649.689 336.571 649.484 336.73C649.288 336.889 649.124 337.071 648.994 337.276C648.863 337.472 648.793 337.724 648.784 338.032L648.77 338.396H647.468ZM647.23 341V339.264H648.966V341H647.23Z" fill="#F5EEEB"/>
<rect x="595" y="445" width="49" height="40" rx="5" fill="#141214"/>
<rect x="595" y="445" width="49" height="40" rx="5" stroke="#C74677" stroke-width="1.5"/>
<path d="M611.193 470V460.228H613.041L617.115 468.068L617.003 465.044V460.228H618.431V470H616.597L612.495 462.244L612.621 465.17V470H611.193ZM624.204 470.168C623.373 470.168 622.65 469.963 622.034 469.552C621.418 469.132 620.937 468.544 620.592 467.788C620.256 467.032 620.088 466.141 620.088 465.114C620.088 464.078 620.256 463.182 620.592 462.426C620.937 461.67 621.418 461.087 622.034 460.676C622.65 460.265 623.373 460.06 624.204 460.06C625.035 460.06 625.758 460.265 626.374 460.676C626.99 461.087 627.466 461.67 627.802 462.426C628.147 463.182 628.32 464.078 628.32 465.114C628.32 466.141 628.147 467.032 627.802 467.788C627.466 468.544 626.99 469.132 626.374 469.552C625.758 469.963 625.035 470.168 624.204 470.168ZM624.204 468.908C624.717 468.908 625.165 468.754 625.548 468.446C625.931 468.138 626.229 467.699 626.444 467.13C626.659 466.561 626.766 465.889 626.766 465.114C626.766 464.33 626.659 463.658 626.444 463.098C626.229 462.529 625.931 462.09 625.548 461.782C625.165 461.474 624.717 461.32 624.204 461.32C623.7 461.32 623.252 461.474 622.86 461.782C622.477 462.09 622.179 462.529 621.964 463.098C621.749 463.667 621.642 464.339 621.642 465.114C621.642 465.889 621.749 466.561 621.964 467.13C622.179 467.699 622.477 468.138 622.86 468.446C623.252 468.754 623.7 468.908 624.204 468.908Z" fill="#F5EEEB"/>
<path d="M546.061 1096L620 1022.06L693.939 1096L620 1169.94L546.061 1096Z" fill="#141214" stroke="#C74677" stroke-width="1.5"/>
<path d="M601.593 1091L602.321 1081.23H604.267L605.513 1087.01L605.807 1088.91L606.115 1087.01L607.333 1081.23H609.251L609.993 1091H608.523L608.201 1084.88L608.145 1082.73L607.725 1084.88L606.395 1091H605.135L603.819 1084.88L603.427 1082.7L603.343 1084.88L603.035 1091H601.593ZM615.179 1091.17C614.348 1091.17 613.625 1090.96 613.009 1090.55C612.393 1090.13 611.912 1089.54 611.567 1088.79C611.231 1088.03 611.063 1087.14 611.063 1086.11C611.063 1085.08 611.231 1084.18 611.567 1083.43C611.912 1082.67 612.393 1082.09 613.009 1081.68C613.625 1081.27 614.348 1081.06 615.179 1081.06C616.009 1081.06 616.733 1081.27 617.349 1081.68C617.965 1082.09 618.441 1082.67 618.777 1083.43C619.122 1084.18 619.295 1085.08 619.295 1086.11C619.295 1087.14 619.122 1088.03 618.777 1088.79C618.441 1089.54 617.965 1090.13 617.349 1090.55C616.733 1090.96 616.009 1091.17 615.179 1091.17ZM615.179 1089.91C615.692 1089.91 616.14 1089.75 616.523 1089.45C616.905 1089.14 617.204 1088.7 617.419 1088.13C617.633 1087.56 617.741 1086.89 617.741 1086.11C617.741 1085.33 617.633 1084.66 617.419 1084.1C617.204 1083.53 616.905 1083.09 616.523 1082.78C616.14 1082.47 615.692 1082.32 615.179 1082.32C614.675 1082.32 614.227 1082.47 613.835 1082.78C613.452 1083.09 613.153 1083.53 612.939 1084.1C612.724 1084.67 612.617 1085.34 612.617 1086.11C612.617 1086.89 612.724 1087.56 612.939 1088.13C613.153 1088.7 613.452 1089.14 613.835 1089.45C614.227 1089.75 614.675 1089.91 615.179 1089.91ZM622.254 1086.91V1085.65H624.732C625.143 1085.65 625.502 1085.59 625.81 1085.46C626.127 1085.32 626.375 1085.12 626.552 1084.87C626.739 1084.62 626.832 1084.33 626.832 1084C626.832 1083.68 626.753 1083.41 626.594 1083.19C626.435 1082.96 626.221 1082.79 625.95 1082.67C625.679 1082.55 625.376 1082.49 625.04 1082.49H622.254V1081.23H625.04C625.684 1081.23 626.258 1081.34 626.762 1081.56C627.266 1081.78 627.663 1082.09 627.952 1082.5C628.241 1082.91 628.386 1083.41 628.386 1084C628.386 1084.37 628.297 1084.73 628.12 1085.08C627.952 1085.42 627.705 1085.74 627.378 1086.02C627.061 1086.29 626.673 1086.51 626.216 1086.67C625.759 1086.83 625.241 1086.91 624.662 1086.91H622.254ZM621.19 1091V1081.23H622.674V1091H621.19ZM626.804 1091C626.748 1090.56 626.627 1090.13 626.44 1089.7C626.263 1089.27 626.02 1088.86 625.712 1088.47C625.404 1088.07 625.021 1087.71 624.564 1087.37C624.116 1087.04 623.593 1086.73 622.996 1086.46L624.648 1086.1C625.264 1086.41 625.791 1086.75 626.23 1087.14C626.678 1087.51 627.047 1087.91 627.336 1088.33C627.635 1088.75 627.859 1089.18 628.008 1089.63C628.167 1090.08 628.269 1090.53 628.316 1091H626.804ZM630.547 1091V1081.23H637.561V1082.49H632.031V1085.3H635.839V1086.56H632.031V1089.74H637.617V1091H630.547ZM588.453 1111V1101.23H595.467V1102.49H589.937V1105.3H593.745V1106.56H589.937V1109.74H595.523V1111H588.453ZM600.162 1111L597.11 1101.23H598.664L600.722 1107.64L601.254 1109.75L601.772 1107.65L603.844 1101.23H605.356L602.304 1111H600.162ZM607.224 1111V1101.23H614.238V1102.49H608.708V1105.3H612.516V1106.56H608.708V1109.74H614.294V1111H607.224ZM616.385 1111V1101.23H618.233L622.307 1109.07L622.195 1106.04V1101.23H623.623V1111H621.789L617.687 1103.24L617.813 1106.17V1111H616.385ZM628.641 1111V1102.49H625.491V1101.23H633.275V1102.49H630.125V1111H628.641ZM638.908 1111.17C638.152 1111.17 637.494 1111.02 636.934 1110.73C636.374 1110.44 635.94 1110.03 635.632 1109.49C635.324 1108.95 635.17 1108.29 635.17 1107.51H636.64C636.64 1108.28 636.841 1108.87 637.242 1109.29C637.644 1109.7 638.194 1109.91 638.894 1109.91C639.492 1109.91 639.972 1109.77 640.336 1109.5C640.7 1109.22 640.882 1108.83 640.882 1108.34C640.882 1108 640.78 1107.73 640.574 1107.53C640.378 1107.32 640.112 1107.15 639.776 1107.02C639.45 1106.89 639.09 1106.78 638.698 1106.67C638.306 1106.57 637.91 1106.46 637.508 1106.34C637.116 1106.21 636.752 1106.04 636.416 1105.85C636.09 1105.65 635.824 1105.39 635.618 1105.06C635.422 1104.74 635.324 1104.32 635.324 1103.82C635.324 1103.29 635.464 1102.81 635.744 1102.4C636.034 1101.98 636.43 1101.66 636.934 1101.42C637.448 1101.18 638.05 1101.06 638.74 1101.06C639.412 1101.06 640.014 1101.19 640.546 1101.44C641.078 1101.68 641.503 1102.03 641.82 1102.49C642.147 1102.94 642.315 1103.48 642.324 1104.11H640.84C640.831 1103.74 640.728 1103.42 640.532 1103.16C640.346 1102.89 640.094 1102.68 639.776 1102.54C639.468 1102.39 639.123 1102.32 638.74 1102.32C638.19 1102.32 637.742 1102.45 637.396 1102.71C637.051 1102.97 636.878 1103.33 636.878 1103.78C636.878 1104.09 636.976 1104.35 637.172 1104.53C637.378 1104.72 637.644 1104.87 637.97 1104.99C638.306 1105.11 638.67 1105.21 639.062 1105.32C639.464 1105.41 639.86 1105.52 640.252 1105.65C640.644 1105.77 641.004 1105.94 641.33 1106.16C641.666 1106.36 641.932 1106.64 642.128 1107C642.334 1107.34 642.436 1107.78 642.436 1108.33C642.436 1108.9 642.282 1109.41 641.974 1109.84C641.666 1110.26 641.246 1110.58 640.714 1110.82C640.182 1111.05 639.58 1111.17 638.908 1111.17ZM647.468 1108.4V1108.03C647.468 1107.62 647.528 1107.28 647.65 1107.01C647.771 1106.73 647.925 1106.5 648.112 1106.31C648.308 1106.11 648.513 1105.94 648.728 1105.79C648.952 1105.63 649.157 1105.47 649.344 1105.3C649.53 1105.12 649.684 1104.92 649.806 1104.69C649.936 1104.45 650.002 1104.16 650.002 1103.82C650.002 1103.51 649.927 1103.24 649.778 1103.01C649.638 1102.77 649.437 1102.59 649.176 1102.46C648.914 1102.32 648.616 1102.25 648.28 1102.25C647.71 1102.25 647.239 1102.45 646.866 1102.84C646.492 1103.23 646.306 1103.75 646.306 1104.39H644.85C644.859 1103.72 645.008 1103.14 645.298 1102.64C645.587 1102.14 645.988 1101.75 646.502 1101.48C647.024 1101.2 647.617 1101.06 648.28 1101.06C648.933 1101.06 649.493 1101.18 649.96 1101.41C650.436 1101.63 650.804 1101.96 651.066 1102.38C651.327 1102.79 651.458 1103.26 651.458 1103.8C651.458 1104.25 651.392 1104.63 651.262 1104.94C651.14 1105.24 650.977 1105.49 650.772 1105.69C650.576 1105.9 650.361 1106.09 650.128 1106.25C649.904 1106.41 649.689 1106.57 649.484 1106.73C649.288 1106.89 649.124 1107.07 648.994 1107.28C648.863 1107.47 648.793 1107.72 648.784 1108.03L648.77 1108.4H647.468ZM647.23 1111V1109.26H648.966V1111H647.23Z" fill="#F5EEEB"/>
<rect x="595" y="1225" width="49" height="40" rx="5" fill="#141214"/>
<rect x="595" y="1225" width="49" height="40" rx="5" stroke="#C74677" stroke-width="1.5"/>
<path d="M611.193 1250V1240.23H613.041L617.115 1248.07L617.003 1245.04V1240.23H618.431V1250H616.597L612.495 1242.24L612.621 1245.17V1250H611.193ZM624.204 1250.17C623.373 1250.17 622.65 1249.96 622.034 1249.55C621.418 1249.13 620.937 1248.54 620.592 1247.79C620.256 1247.03 620.088 1246.14 620.088 1245.11C620.088 1244.08 620.256 1243.18 620.592 1242.43C620.937 1241.67 621.418 1241.09 622.034 1240.68C622.65 1240.27 623.373 1240.06 624.204 1240.06C625.035 1240.06 625.758 1240.27 626.374 1240.68C626.99 1241.09 627.466 1241.67 627.802 1242.43C628.147 1243.18 628.32 1244.08 628.32 1245.11C628.32 1246.14 628.147 1247.03 627.802 1247.79C627.466 1248.54 626.99 1249.13 626.374 1249.55C625.758 1249.96 625.035 1250.17 624.204 1250.17ZM624.204 1248.91C624.717 1248.91 625.165 1248.75 625.548 1248.45C625.931 1248.14 626.229 1247.7 626.444 1247.13C626.659 1246.56 626.766 1245.89 626.766 1245.11C626.766 1244.33 626.659 1243.66 626.444 1243.1C626.229 1242.53 625.931 1242.09 625.548 1241.78C625.165 1241.47 624.717 1241.32 624.204 1241.32C623.7 1241.32 623.252 1241.47 622.86 1241.78C622.477 1242.09 622.179 1242.53 621.964 1243.1C621.749 1243.67 621.642 1244.34 621.642 1245.11C621.642 1245.89 621.749 1246.56 621.964 1247.13C622.179 1247.7 622.477 1248.14 622.86 1248.45C623.252 1248.75 623.7 1248.91 624.204 1248.91Z" fill="#F5EEEB"/>
<rect x="426" y="296" width="58" height="40" rx="5" fill="#141214"/>
<rect x="426" y="296" width="58" height="40" rx="5" stroke="#BEBFBD" stroke-width="1.5"/>
<path d="M444.842 321V317.038L441.608 311.228H443.232L444.744 313.916L445.612 315.75L446.494 313.902L448.006 311.228H449.616L446.326 317.038V321H444.842ZM451.609 321V311.228H458.623V312.488H453.093V315.302H456.901V316.562H453.093V319.74H458.679V321H451.609ZM464.523 321.168C463.767 321.168 463.109 321.023 462.549 320.734C461.989 320.445 461.555 320.029 461.247 319.488C460.939 318.947 460.785 318.289 460.785 317.514H462.255C462.255 318.279 462.455 318.872 462.857 319.292C463.258 319.703 463.809 319.908 464.509 319.908C465.106 319.908 465.587 319.773 465.951 319.502C466.315 319.222 466.497 318.835 466.497 318.34C466.497 318.004 466.394 317.733 466.189 317.528C465.993 317.323 465.727 317.155 465.391 317.024C465.064 316.893 464.705 316.777 464.313 316.674C463.921 316.571 463.524 316.459 463.123 316.338C462.731 316.207 462.367 316.044 462.031 315.848C461.704 315.652 461.438 315.391 461.233 315.064C461.037 314.737 460.939 314.322 460.939 313.818C460.939 313.286 461.079 312.815 461.359 312.404C461.648 311.984 462.045 311.657 462.549 311.424C463.062 311.181 463.664 311.06 464.355 311.06C465.027 311.06 465.629 311.186 466.161 311.438C466.693 311.681 467.117 312.031 467.435 312.488C467.761 312.936 467.929 313.477 467.939 314.112H466.455C466.445 313.739 466.343 313.421 466.147 313.16C465.96 312.889 465.708 312.684 465.391 312.544C465.083 312.395 464.737 312.32 464.355 312.32C463.804 312.32 463.356 312.451 463.011 312.712C462.665 312.973 462.493 313.328 462.493 313.776C462.493 314.093 462.591 314.345 462.787 314.532C462.992 314.719 463.258 314.873 463.585 314.994C463.921 315.106 464.285 315.213 464.677 315.316C465.078 315.409 465.475 315.521 465.867 315.652C466.259 315.773 466.618 315.941 466.945 316.156C467.281 316.361 467.547 316.641 467.743 316.996C467.948 317.341 468.051 317.785 468.051 318.326C468.051 318.905 467.897 319.409 467.589 319.838C467.281 320.258 466.861 320.585 466.329 320.818C465.797 321.051 465.195 321.168 464.523 321.168Z" fill="#F5EEEB"/>
<rect x="756" y="1076" width="58" height="40" rx="5" fill="#141214"/>
<rect x="756" y="1076" width="58" height="40" rx="5" stroke="#BEBFBD" stroke-width="1.5"/>
<path d="M774.842 1101V1097.04L771.608 1091.23H773.232L774.744 1093.92L775.612 1095.75L776.494 1093.9L778.006 1091.23H779.616L776.326 1097.04V1101H774.842ZM781.609 1101V1091.23H788.623V1092.49H783.093V1095.3H786.901V1096.56H783.093V1099.74H788.679V1101H781.609ZM794.523 1101.17C793.767 1101.17 793.109 1101.02 792.549 1100.73C791.989 1100.44 791.555 1100.03 791.247 1099.49C790.939 1098.95 790.785 1098.29 790.785 1097.51H792.255C792.255 1098.28 792.455 1098.87 792.857 1099.29C793.258 1099.7 793.809 1099.91 794.509 1099.91C795.106 1099.91 795.587 1099.77 795.951 1099.5C796.315 1099.22 796.497 1098.83 796.497 1098.34C796.497 1098 796.394 1097.73 796.189 1097.53C795.993 1097.32 795.727 1097.15 795.391 1097.02C795.064 1096.89 794.705 1096.78 794.313 1096.67C793.921 1096.57 793.524 1096.46 793.123 1096.34C792.731 1096.21 792.367 1096.04 792.031 1095.85C791.704 1095.65 791.438 1095.39 791.233 1095.06C791.037 1094.74 790.939 1094.32 790.939 1093.82C790.939 1093.29 791.079 1092.81 791.359 1092.4C791.648 1091.98 792.045 1091.66 792.549 1091.42C793.062 1091.18 793.664 1091.06 794.355 1091.06C795.027 1091.06 795.629 1091.19 796.161 1091.44C796.693 1091.68 797.117 1092.03 797.435 1092.49C797.761 1092.94 797.929 1093.48 797.939 1094.11H796.455C796.445 1093.74 796.343 1093.42 796.147 1093.16C795.96 1092.89 795.708 1092.68 795.391 1092.54C795.083 1092.39 794.737 1092.32 794.355 1092.32C793.804 1092.32 793.356 1092.45 793.011 1092.71C792.665 1092.97 792.493 1093.33 792.493 1093.78C792.493 1094.09 792.591 1094.35 792.787 1094.53C792.992 1094.72 793.258 1094.87 793.585 1094.99C793.921 1095.11 794.285 1095.21 794.677 1095.32C795.078 1095.41 795.475 1095.52 795.867 1095.65C796.259 1095.77 796.618 1095.94 796.945 1096.16C797.281 1096.36 797.547 1096.64 797.743 1097C797.948 1097.34 798.051 1097.78 798.051 1098.33C798.051 1098.9 797.897 1099.41 797.589 1099.84C797.281 1100.26 796.861 1100.58 796.329 1100.82C795.797 1101.05 795.195 1101.17 794.523 1101.17Z" fill="#F5EEEB"/>
<rect x="332" y="446" width="96" height="40" rx="5" fill="#141214"/>
<rect x="332" y="446" width="96" height="40" rx="5" stroke="#BEBFBD" stroke-width="1.5"/>
<path d="M351.099 471V462.488H347.949V461.228H355.733V462.488H352.583V471H351.099ZM361.24 471.168C360.41 471.168 359.686 470.963 359.07 470.552C358.454 470.132 357.974 469.544 357.628 468.788C357.292 468.032 357.124 467.141 357.124 466.114C357.124 465.078 357.292 464.182 357.628 463.426C357.974 462.67 358.454 462.087 359.07 461.676C359.686 461.265 360.41 461.06 361.24 461.06C362.071 461.06 362.794 461.265 363.41 461.676C364.026 462.087 364.502 462.67 364.838 463.426C365.184 464.182 365.356 465.078 365.356 466.114C365.356 467.141 365.184 468.032 364.838 468.788C364.502 469.544 364.026 470.132 363.41 470.552C362.794 470.963 362.071 471.168 361.24 471.168ZM361.24 469.908C361.754 469.908 362.202 469.754 362.584 469.446C362.967 469.138 363.266 468.699 363.48 468.13C363.695 467.561 363.802 466.889 363.802 466.114C363.802 465.33 363.695 464.658 363.48 464.098C363.266 463.529 362.967 463.09 362.584 462.782C362.202 462.474 361.754 462.32 361.24 462.32C360.736 462.32 360.288 462.474 359.896 462.782C359.514 463.09 359.215 463.529 359 464.098C358.786 464.667 358.678 465.339 358.678 466.114C358.678 466.889 358.786 467.561 359 468.13C359.215 468.699 359.514 469.138 359.896 469.446C360.288 469.754 360.736 469.908 361.24 469.908ZM370.626 471.168C369.795 471.168 369.072 470.963 368.456 470.552C367.84 470.132 367.359 469.544 367.014 468.788C366.678 468.032 366.51 467.141 366.51 466.114C366.51 465.078 366.678 464.182 367.014 463.426C367.359 462.67 367.84 462.087 368.456 461.676C369.072 461.265 369.795 461.06 370.626 461.06C371.456 461.06 372.18 461.265 372.796 461.676C373.412 462.087 373.888 462.67 374.224 463.426C374.569 464.182 374.742 465.078 374.742 466.114C374.742 467.141 374.569 468.032 374.224 468.788C373.888 469.544 373.412 470.132 372.796 470.552C372.18 470.963 371.456 471.168 370.626 471.168ZM370.626 469.908C371.139 469.908 371.587 469.754 371.97 469.446C372.352 469.138 372.651 468.699 372.866 468.13C373.08 467.561 373.188 466.889 373.188 466.114C373.188 465.33 373.08 464.658 372.866 464.098C372.651 463.529 372.352 463.09 371.97 462.782C371.587 462.474 371.139 462.32 370.626 462.32C370.122 462.32 369.674 462.474 369.282 462.782C368.899 463.09 368.6 463.529 368.386 464.098C368.171 464.667 368.064 465.339 368.064 466.114C368.064 466.889 368.171 467.561 368.386 468.13C368.6 468.699 368.899 469.138 369.282 469.446C369.674 469.754 370.122 469.908 370.626 469.908ZM391.315 465.876C391.669 465.979 391.982 466.133 392.253 466.338C392.533 466.543 392.752 466.809 392.911 467.136C393.079 467.453 393.163 467.827 393.163 468.256C393.163 468.807 393.023 469.287 392.743 469.698C392.472 470.109 392.085 470.431 391.581 470.664C391.077 470.888 390.479 471 389.789 471H386.009V461.228H389.649C390.675 461.228 391.478 461.452 392.057 461.9C392.635 462.348 392.925 462.936 392.925 463.664C392.925 464.009 392.859 464.331 392.729 464.63C392.607 464.929 392.425 465.185 392.183 465.4C391.94 465.615 391.651 465.773 391.315 465.876ZM389.579 462.488H387.493V465.372H389.579C390.129 465.372 390.563 465.237 390.881 464.966C391.207 464.695 391.371 464.336 391.371 463.888C391.371 463.449 391.207 463.109 390.881 462.866C390.554 462.614 390.12 462.488 389.579 462.488ZM387.493 469.74H389.761C390.33 469.74 390.778 469.6 391.105 469.32C391.441 469.04 391.609 468.662 391.609 468.186C391.609 467.691 391.431 467.309 391.077 467.038C390.731 466.767 390.246 466.632 389.621 466.632H387.493V469.74ZM396.136 468.536V467.276H401.554V468.536H396.136ZM397.704 461.228H399.832L402.856 471H401.33L399.356 464.532L398.768 462.39L398.18 464.546L396.178 471H394.68L397.704 461.228ZM404.57 471V461.228H407.58C408.289 461.228 408.928 461.345 409.498 461.578C410.067 461.802 410.552 462.129 410.954 462.558C411.355 462.978 411.663 463.487 411.878 464.084C412.092 464.681 412.2 465.349 412.2 466.086C412.2 466.833 412.092 467.509 411.878 468.116C411.663 468.713 411.355 469.231 410.954 469.67C410.552 470.099 410.067 470.431 409.498 470.664C408.928 470.888 408.289 471 407.58 471H404.57ZM406.054 469.74H407.58C408.214 469.74 408.76 469.591 409.218 469.292C409.675 468.984 410.025 468.555 410.268 468.004C410.52 467.453 410.646 466.814 410.646 466.086C410.646 465.349 410.52 464.714 410.268 464.182C410.025 463.641 409.675 463.225 409.218 462.936C408.76 462.637 408.214 462.488 407.58 462.488H406.054V469.74Z" fill="#F5EEEB"/>
<rect x="790.5" y="446" width="143" height="40" rx="5" fill="#141214"/>
<rect x="790.5" y="446" width="143" height="40" rx="5" stroke="#BEBFBD" stroke-width="1.5"/>
<path d="M809.635 471V462.488H806.485V461.228H814.269V462.488H811.119V471H809.635ZM821.919 471V461.228H823.403V471H821.919ZM816.137 471V461.228H817.621V471H816.137ZM817.411 466.562V465.302H822.115V466.562H817.411ZM828.406 471V461.228H829.89V471H828.406ZM825.956 461.228H832.326V462.488H825.956V461.228ZM825.956 469.74H832.326V471H825.956V469.74ZM838.674 471.168C837.918 471.168 837.26 471.023 836.7 470.734C836.14 470.445 835.706 470.029 835.398 469.488C835.09 468.947 834.936 468.289 834.936 467.514H836.406C836.406 468.279 836.606 468.872 837.008 469.292C837.409 469.703 837.96 469.908 838.66 469.908C839.257 469.908 839.738 469.773 840.102 469.502C840.466 469.222 840.648 468.835 840.648 468.34C840.648 468.004 840.545 467.733 840.34 467.528C840.144 467.323 839.878 467.155 839.542 467.024C839.215 466.893 838.856 466.777 838.464 466.674C838.072 466.571 837.675 466.459 837.274 466.338C836.882 466.207 836.518 466.044 836.182 465.848C835.855 465.652 835.589 465.391 835.384 465.064C835.188 464.737 835.09 464.322 835.09 463.818C835.09 463.286 835.23 462.815 835.51 462.404C835.799 461.984 836.196 461.657 836.7 461.424C837.213 461.181 837.815 461.06 838.506 461.06C839.178 461.06 839.78 461.186 840.312 461.438C840.844 461.681 841.268 462.031 841.586 462.488C841.912 462.936 842.08 463.477 842.09 464.112H840.606C840.596 463.739 840.494 463.421 840.298 463.16C840.111 462.889 839.859 462.684 839.542 462.544C839.234 462.395 838.888 462.32 838.506 462.32C837.955 462.32 837.507 462.451 837.162 462.712C836.816 462.973 836.644 463.328 836.644 463.776C836.644 464.093 836.742 464.345 836.938 464.532C837.143 464.719 837.409 464.873 837.736 464.994C838.072 465.106 838.436 465.213 838.828 465.316C839.229 465.409 839.626 465.521 840.018 465.652C840.41 465.773 840.769 465.941 841.096 466.156C841.432 466.361 841.698 466.641 841.894 466.996C842.099 467.341 842.202 467.785 842.202 468.326C842.202 468.905 842.048 469.409 841.74 469.838C841.432 470.258 841.012 470.585 840.48 470.818C839.948 471.051 839.346 471.168 838.674 471.168ZM856.563 471V461.228H858.047V471H856.563ZM854.113 461.228H860.483V462.488H854.113V461.228ZM854.113 469.74H860.483V471H854.113V469.74ZM866.83 471.168C866.074 471.168 865.416 471.023 864.856 470.734C864.296 470.445 863.862 470.029 863.554 469.488C863.246 468.947 863.092 468.289 863.092 467.514H864.562C864.562 468.279 864.763 468.872 865.164 469.292C865.565 469.703 866.116 469.908 866.816 469.908C867.413 469.908 867.894 469.773 868.258 469.502C868.622 469.222 868.804 468.835 868.804 468.34C868.804 468.004 868.701 467.733 868.496 467.528C868.3 467.323 868.034 467.155 867.698 467.024C867.371 466.893 867.012 466.777 866.62 466.674C866.228 466.571 865.831 466.459 865.43 466.338C865.038 466.207 864.674 466.044 864.338 465.848C864.011 465.652 863.745 465.391 863.54 465.064C863.344 464.737 863.246 464.322 863.246 463.818C863.246 463.286 863.386 462.815 863.666 462.404C863.955 461.984 864.352 461.657 864.856 461.424C865.369 461.181 865.971 461.06 866.662 461.06C867.334 461.06 867.936 461.186 868.468 461.438C869 461.681 869.425 462.031 869.742 462.488C870.069 462.936 870.237 463.477 870.246 464.112H868.762C868.753 463.739 868.65 463.421 868.454 463.16C868.267 462.889 868.015 462.684 867.698 462.544C867.39 462.395 867.045 462.32 866.662 462.32C866.111 462.32 865.663 462.451 865.318 462.712C864.973 462.973 864.8 463.328 864.8 463.776C864.8 464.093 864.898 464.345 865.094 464.532C865.299 464.719 865.565 464.873 865.892 464.994C866.228 465.106 866.592 465.213 866.984 465.316C867.385 465.409 867.782 465.521 868.174 465.652C868.566 465.773 868.925 465.941 869.252 466.156C869.588 466.361 869.854 466.641 870.05 466.996C870.255 467.341 870.358 467.785 870.358 468.326C870.358 468.905 870.204 469.409 869.896 469.838C869.588 470.258 869.168 470.585 868.636 470.818C868.104 471.051 867.502 471.168 866.83 471.168ZM881.989 471V461.228H889.073V462.488H883.473V465.302H887.351V466.562H883.473V471H881.989ZM894.104 471V461.228H895.588V471H894.104ZM891.654 461.228H898.024V462.488H891.654V461.228ZM891.654 469.74H898.024V471H891.654V469.74ZM900.62 471V461.228H902.468L906.542 469.068L906.43 466.044V461.228H907.858V471H906.024L901.922 463.244L902.048 466.17V471H900.62ZM910.229 471V461.228H917.243V462.488H911.713V465.302H915.521V466.562H911.713V469.74H917.299V471H910.229Z" fill="#F5EEEB"/>
<path d="M620 1321L628.291 1330.37L638.652 1323.36L644.351 1334.5L656.132 1330.28L658.882 1342.48L671.341 1341.33L670.969 1353.83L683.325 1355.81L679.854 1367.83L691.329 1372.82L684.978 1383.6L694.852 1391.29L686.019 1400.15L693.672 1410.05L682.912 1416.44L687.862 1427.93L675.852 1431.44L677.788 1443.81L665.283 1444.22L664.084 1456.68L651.868 1453.97L647.609 1465.73L636.451 1460.07L629.4 1470.41L620 1462.15L610.6 1470.41L603.549 1460.07L592.391 1465.73L588.132 1453.97L575.916 1456.68L574.717 1444.22L562.212 1443.81L564.148 1431.44L552.138 1427.93L557.088 1416.44L546.328 1410.05L553.981 1400.15L545.148 1391.29L555.022 1383.6L548.671 1372.82L560.146 1367.83L556.675 1355.81L569.031 1353.83L568.659 1341.33L581.118 1342.48L583.868 1330.28L595.649 1334.5L601.348 1323.36L611.709 1330.37L620 1321Z" fill="#C74677"/>
<path d="M606.087 1391.17C605.228 1391.17 604.482 1390.95 603.847 1390.52C603.222 1390.09 602.736 1389.49 602.391 1388.73C602.055 1387.97 601.887 1387.09 601.887 1386.1C601.887 1385.07 602.064 1384.18 602.419 1383.43C602.774 1382.67 603.268 1382.09 603.903 1381.68C604.547 1381.27 605.294 1381.06 606.143 1381.06C606.824 1381.06 607.44 1381.2 607.991 1381.47C608.551 1381.73 609.004 1382.11 609.349 1382.61C609.704 1383.11 609.909 1383.7 609.965 1384.39H608.341C608.266 1383.77 608.033 1383.27 607.641 1382.89C607.249 1382.51 606.745 1382.32 606.129 1382.32C605.597 1382.32 605.126 1382.47 604.715 1382.78C604.314 1383.08 604.001 1383.51 603.777 1384.08C603.553 1384.65 603.441 1385.33 603.441 1386.11C603.441 1386.9 603.553 1387.57 603.777 1388.14C604.01 1388.71 604.328 1389.15 604.729 1389.46C605.13 1389.76 605.583 1389.91 606.087 1389.91C606.526 1389.91 606.908 1389.82 607.235 1389.64C607.562 1389.46 607.823 1389.2 608.019 1388.87C608.224 1388.55 608.346 1388.16 608.383 1387.72H610.021C609.956 1388.41 609.755 1389.02 609.419 1389.54C609.083 1390.06 608.63 1390.46 608.061 1390.75C607.501 1391.03 606.843 1391.17 606.087 1391.17ZM615.319 1391.17C614.488 1391.17 613.765 1390.96 613.149 1390.55C612.533 1390.13 612.052 1389.54 611.707 1388.79C611.371 1388.03 611.203 1387.14 611.203 1386.11C611.203 1385.08 611.371 1384.18 611.707 1383.43C612.052 1382.67 612.533 1382.09 613.149 1381.68C613.765 1381.27 614.488 1381.06 615.319 1381.06C616.149 1381.06 616.873 1381.27 617.489 1381.68C618.105 1382.09 618.581 1382.67 618.917 1383.43C619.262 1384.18 619.435 1385.08 619.435 1386.11C619.435 1387.14 619.262 1388.03 618.917 1388.79C618.581 1389.54 618.105 1390.13 617.489 1390.55C616.873 1390.96 616.149 1391.17 615.319 1391.17ZM615.319 1389.91C615.832 1389.91 616.28 1389.75 616.663 1389.45C617.045 1389.14 617.344 1388.7 617.559 1388.13C617.773 1387.56 617.881 1386.89 617.881 1386.11C617.881 1385.33 617.773 1384.66 617.559 1384.1C617.344 1383.53 617.045 1383.09 616.663 1382.78C616.28 1382.47 615.832 1382.32 615.319 1382.32C614.815 1382.32 614.367 1382.47 613.975 1382.78C613.592 1383.09 613.293 1383.53 613.079 1384.1C612.864 1384.67 612.757 1385.34 612.757 1386.11C612.757 1386.89 612.864 1387.56 613.079 1388.13C613.293 1388.7 613.592 1389.14 613.975 1389.45C614.367 1389.75 614.815 1389.91 615.319 1389.91ZM624.704 1391.17C623.873 1391.17 623.15 1390.96 622.534 1390.55C621.918 1390.13 621.437 1389.54 621.092 1388.79C620.756 1388.03 620.588 1387.14 620.588 1386.11C620.588 1385.08 620.756 1384.18 621.092 1383.43C621.437 1382.67 621.918 1382.09 622.534 1381.68C623.15 1381.27 623.873 1381.06 624.704 1381.06C625.535 1381.06 626.258 1381.27 626.874 1381.68C627.49 1382.09 627.966 1382.67 628.302 1383.43C628.647 1384.18 628.82 1385.08 628.82 1386.11C628.82 1387.14 628.647 1388.03 628.302 1388.79C627.966 1389.54 627.49 1390.13 626.874 1390.55C626.258 1390.96 625.535 1391.17 624.704 1391.17ZM624.704 1389.91C625.217 1389.91 625.665 1389.75 626.048 1389.45C626.431 1389.14 626.729 1388.7 626.944 1388.13C627.159 1387.56 627.266 1386.89 627.266 1386.11C627.266 1385.33 627.159 1384.66 626.944 1384.1C626.729 1383.53 626.431 1383.09 626.048 1382.78C625.665 1382.47 625.217 1382.32 624.704 1382.32C624.2 1382.32 623.752 1382.47 623.36 1382.78C622.977 1383.09 622.679 1383.53 622.464 1384.1C622.249 1384.67 622.142 1385.34 622.142 1386.11C622.142 1386.89 622.249 1387.56 622.464 1388.13C622.679 1388.7 622.977 1389.14 623.36 1389.45C623.752 1389.75 624.2 1389.91 624.704 1389.91ZM631.065 1391V1381.23H632.549V1389.74H637.673V1391H631.065ZM591.099 1411V1401.23H592.583V1411H591.099ZM588.649 1401.23H595.019V1402.49H588.649V1401.23ZM588.649 1409.74H595.019V1411H588.649V1409.74ZM610.808 1411.17C609.94 1411.17 609.184 1410.96 608.54 1410.54C607.896 1410.12 607.392 1409.53 607.028 1408.77C606.673 1408.02 606.496 1407.13 606.496 1406.11C606.496 1405.11 606.678 1404.22 607.042 1403.47C607.406 1402.71 607.914 1402.12 608.568 1401.7C609.221 1401.27 609.982 1401.06 610.85 1401.06C611.522 1401.06 612.124 1401.19 612.656 1401.45C613.197 1401.71 613.636 1402.09 613.972 1402.59C614.308 1403.08 614.504 1403.68 614.56 1404.38H612.922C612.847 1403.75 612.623 1403.25 612.25 1402.88C611.886 1402.51 611.41 1402.32 610.822 1402.32C610.299 1402.32 609.828 1402.47 609.408 1402.78C608.997 1403.08 608.67 1403.51 608.428 1404.08C608.185 1404.64 608.064 1405.32 608.064 1406.11C608.064 1406.93 608.185 1407.62 608.428 1408.19C608.68 1408.75 609.02 1409.18 609.45 1409.47C609.888 1409.76 610.378 1409.91 610.92 1409.91C611.396 1409.91 611.816 1409.82 612.18 1409.66C612.544 1409.48 612.847 1409.25 613.09 1408.98V1407.05L611.382 1407.11L611.438 1405.83H614.56V1409.42C614.177 1409.97 613.659 1410.4 613.006 1410.71C612.362 1411.01 611.629 1411.17 610.808 1411.17ZM620.011 1411.17C619.246 1411.17 618.579 1411.02 618.009 1410.72C617.44 1410.41 616.997 1409.99 616.679 1409.45C616.362 1408.9 616.203 1408.26 616.203 1407.53V1401.23H617.701V1407.53C617.701 1408 617.795 1408.42 617.981 1408.77C618.177 1409.13 618.448 1409.4 618.793 1409.6C619.139 1409.8 619.545 1409.89 620.011 1409.89C620.478 1409.89 620.879 1409.8 621.215 1409.6C621.561 1409.4 621.827 1409.13 622.013 1408.77C622.209 1408.42 622.307 1408 622.307 1407.53V1401.23H623.805V1407.53C623.805 1408.26 623.647 1408.9 623.329 1409.45C623.012 1409.99 622.569 1410.41 621.999 1410.72C621.439 1411.02 620.777 1411.17 620.011 1411.17ZM625.995 1411V1401.23H633.009V1402.49H627.479V1405.3H631.287V1406.56H627.479V1409.74H633.065V1411H625.995ZM638.908 1411.17C638.152 1411.17 637.494 1411.02 636.934 1410.73C636.374 1410.44 635.94 1410.03 635.632 1409.49C635.324 1408.95 635.17 1408.29 635.17 1407.51H636.64C636.64 1408.28 636.841 1408.87 637.242 1409.29C637.644 1409.7 638.194 1409.91 638.894 1409.91C639.492 1409.91 639.972 1409.77 640.336 1409.5C640.7 1409.22 640.882 1408.83 640.882 1408.34C640.882 1408 640.78 1407.73 640.574 1407.53C640.378 1407.32 640.112 1407.15 639.776 1407.02C639.45 1406.89 639.09 1406.78 638.698 1406.67C638.306 1406.57 637.91 1406.46 637.508 1406.34C637.116 1406.21 636.752 1406.04 636.416 1405.85C636.09 1405.65 635.824 1405.39 635.618 1405.06C635.422 1404.74 635.324 1404.32 635.324 1403.82C635.324 1403.29 635.464 1402.81 635.744 1402.4C636.034 1401.98 636.43 1401.66 636.934 1401.42C637.448 1401.18 638.05 1401.06 638.74 1401.06C639.412 1401.06 640.014 1401.19 640.546 1401.44C641.078 1401.68 641.503 1402.03 641.82 1402.49C642.147 1402.94 642.315 1403.48 642.324 1404.11H640.84C640.831 1403.74 640.728 1403.42 640.532 1403.16C640.346 1402.89 640.094 1402.68 639.776 1402.54C639.468 1402.39 639.123 1402.32 638.74 1402.32C638.19 1402.32 637.742 1402.45 637.396 1402.71C637.051 1402.97 636.878 1403.33 636.878 1403.78C636.878 1404.09 636.976 1404.35 637.172 1404.53C637.378 1404.72 637.644 1404.87 637.97 1404.99C638.306 1405.11 638.67 1405.21 639.062 1405.32C639.464 1405.41 639.86 1405.52 640.252 1405.65C640.644 1405.77 641.004 1405.94 641.33 1406.16C641.666 1406.36 641.932 1406.64 642.128 1407C642.334 1407.34 642.436 1407.78 642.436 1408.33C642.436 1408.9 642.282 1409.41 641.974 1409.84C641.666 1410.26 641.246 1410.58 640.714 1410.82C640.182 1411.05 639.58 1411.17 638.908 1411.17ZM648.294 1411.17C647.538 1411.17 646.88 1411.02 646.32 1410.73C645.76 1410.44 645.326 1410.03 645.018 1409.49C644.71 1408.95 644.556 1408.29 644.556 1407.51H646.026C646.026 1408.28 646.226 1408.87 646.628 1409.29C647.029 1409.7 647.58 1409.91 648.28 1409.91C648.877 1409.91 649.358 1409.77 649.722 1409.5C650.086 1409.22 650.268 1408.83 650.268 1408.34C650.268 1408 650.165 1407.73 649.96 1407.53C649.764 1407.32 649.498 1407.15 649.162 1407.02C648.835 1406.89 648.476 1406.78 648.084 1406.67C647.692 1406.57 647.295 1406.46 646.894 1406.34C646.502 1406.21 646.138 1406.04 645.802 1405.85C645.475 1405.65 645.209 1405.39 645.004 1405.06C644.808 1404.74 644.71 1404.32 644.71 1403.82C644.71 1403.29 644.85 1402.81 645.13 1402.4C645.419 1401.98 645.816 1401.66 646.32 1401.42C646.833 1401.18 647.435 1401.06 648.126 1401.06C648.798 1401.06 649.4 1401.19 649.932 1401.44C650.464 1401.68 650.888 1402.03 651.206 1402.49C651.532 1402.94 651.7 1403.48 651.71 1404.11H650.226C650.216 1403.74 650.114 1403.42 649.918 1403.16C649.731 1402.89 649.479 1402.68 649.162 1402.54C648.854 1402.39 648.508 1402.32 648.126 1402.32C647.575 1402.32 647.127 1402.45 646.782 1402.71C646.436 1402.97 646.264 1403.33 646.264 1403.78C646.264 1404.09 646.362 1404.35 646.558 1404.53C646.763 1404.72 647.029 1404.87 647.356 1404.99C647.692 1405.11 648.056 1405.21 648.448 1405.32C648.849 1405.41 649.246 1405.52 649.638 1405.65C650.03 1405.77 650.389 1405.94 650.716 1406.16C651.052 1406.36 651.318 1406.64 651.514 1407C651.719 1407.34 651.822 1407.78 651.822 1408.33C651.822 1408.9 651.668 1409.41 651.36 1409.84C651.052 1410.26 650.632 1410.58 650.1 1410.82C649.568 1411.05 648.966 1411.17 648.294 1411.17Z" fill="#080708"/>
</svg>
