<svg width="910" height="415" viewBox="0 0 910 415" fill="none" xmlns="http://www.w3.org/2000/svg">
<g clip-path="url(#clip0_487_4206)">
<rect x="563" y="356.403" width="348" height="10" fill="#F5EEEB" stroke="#080708"/>
<path d="M563 356.403L575 344.403" stroke="#080708"/>
<rect x="91" y="116.403" width="180" height="300" fill="#F5EEEB" stroke="#080708"/>
<rect x="31" y="116.403" width="60" height="300" fill="#F5EEEB" stroke="#080708"/>
<rect x="83" y="116.403" width="8" height="100" fill="#F5EEEB" stroke="#080708"/>
<rect x="83" y="316.403" width="8" height="100" fill="#F5EEEB" stroke="#080708"/>
<rect x="91" y="216.403" width="180" height="100" fill="#F5EEEB" stroke="#080708"/>
<rect x="83" y="216.403" width="188" height="100" fill="#080708" stroke="#080708"/>
<path d="M166 166.403C166 163.641 168.239 161.403 171 161.403H181V171.403H171C168.239 171.403 166 169.164 166 166.403V166.403Z" fill="#080708" stroke="#080708"/>
<rect x="176" y="161.403" width="30" height="10" rx="5" fill="#F5EEEB" stroke="#080708"/>
<path d="M166 366.403C166 363.641 168.239 361.403 171 361.403H181V371.403H171C168.239 371.403 166 369.164 166 366.403V366.403Z" fill="#080708" stroke="#080708"/>
<rect x="176" y="361.403" width="30" height="10" rx="5" fill="#F5EEEB" stroke="#080708"/>
<rect x="126" y="206.403" width="80" height="60" fill="#F5EEEB" stroke="#080708"/>
<rect x="126" y="204.736" width="80" height="61.6667" fill="#F5EEEB" stroke="#080708"/>
<path fill-rule="evenodd" clip-rule="evenodd" d="M126 186.403H147.333L150.381 193.069H206V206.403H126V186.403ZM202.667 196.403H129.333V204.736H202.667V196.403Z" fill="#080708" stroke="#080708"/>
<rect x="129.333" y="196.403" width="73.3333" height="8.33333" fill="#F5EEEB"/>
<rect x="166" y="206.403" width="80" height="60" fill="#F5EEEB" stroke="#080708"/>
<rect x="166" y="204.736" width="80" height="61.6667" fill="#F5EEEB" stroke="#080708"/>
<path fill-rule="evenodd" clip-rule="evenodd" d="M166 186.403H187.333L190.381 193.069H246V206.403H166V186.403ZM242.667 196.403H169.333V204.736H242.667V196.403Z" fill="#080708" stroke="#080708"/>
<rect x="169.333" y="196.403" width="73.3333" height="8.33333" fill="#F5EEEB"/>
<rect x="206" y="206.403" width="80" height="60" fill="#F5EEEB" stroke="#080708"/>
<rect x="206" y="204.736" width="80" height="61.6667" fill="#F5EEEB" stroke="#080708"/>
<path fill-rule="evenodd" clip-rule="evenodd" d="M206 186.403H227.333L230.381 193.069H286V206.403H206V186.403ZM282.667 196.403H209.333V204.736H282.667V196.403Z" fill="#080708" stroke="#080708"/>
<rect x="209.333" y="196.403" width="73.3333" height="8.33333" fill="#F5EEEB"/>
<rect x="83" y="236.403" width="253" height="80" fill="#F5EEEB" stroke="#080708"/>
<path d="M246 141.403H268.716L274.395 152.831H246V141.403Z" fill="#080708" stroke="#080708"/>
<rect width="79.5062" height="72.8571" transform="matrix(1 0 0 -1 246 221.403)" fill="#080708" stroke="#080708"/>
<rect width="62.4952" height="40.3782" transform="matrix(0.965523 0.260318 -0.257328 0.966324 281.946 138.545)" fill="#F5EEEB" stroke="#080708"/>
<rect width="21.8354" height="20.9459" transform="matrix(0.965523 -0.260318 0.257328 0.966324 263.037 151.373)" fill="#F5EEEB" stroke="#080708"/>
<ellipse cx="12.2554" cy="12.3213" rx="12.2554" ry="12.3213" transform="matrix(0.965523 0.260318 -0.257328 0.966324 307.119 134.55)" fill="#F5EEEB" stroke="#080708"/>
<path d="M264.457 175.688H343.963L326.926 221.403H247.42L264.457 175.688Z" fill="#F5EEEB" stroke="#080708"/>
<path d="M351.365 120.076L345.001 143.976L327.612 126.48L351.365 120.076Z" fill="#F5EEEB" stroke="#080708"/>
<rect x="186" y="216.403" width="180" height="100" fill="#F5EEEB" stroke="#080708"/>
<rect x="575" y="18.4026" width="336" height="326" fill="#F5EEEB" stroke="#080708"/>
<rect width="21.4663" height="20.5917" transform="matrix(0.965523 -0.260318 0.257328 0.966324 607 257.991)" fill="#080708" stroke="#080708"/>
<path d="M519.62 124.865L517.835 145.628L500.846 133.654L519.62 124.865Z" fill="#080708" stroke="#080708"/>
<path d="M459.336 45.7197L453.303 68.3755L436.82 51.7903L459.336 45.7197Z" fill="#080708" stroke="#080708"/>
<path d="M550.764 78.7546L556.641 100.553L534.91 94.6581L550.764 78.7546Z" fill="#080708" stroke="#080708"/>
<ellipse cx="14.4225" cy="14.5" rx="14.4225" ry="14.5" transform="matrix(0.965523 0.260318 -0.257328 0.966324 651.834 16.2236)" fill="#080708" stroke="#080708"/>
<path d="M787.591 8.42938L787.618 25.7962L772.645 17.0896L787.591 8.42938Z" fill="#080708" stroke="#080708"/>
<path d="M867.971 5.09327L858.927 20.9276L849.834 5.17757L867.971 5.09327Z" fill="#080708" stroke="#080708"/>
<ellipse cx="12.4331" cy="12.5" rx="12.4331" ry="12.5" transform="matrix(0.765046 0.643976 -0.641604 0.767036 388.356 94.9773)" fill="#080708" stroke="#080708"/>
<ellipse cx="12.4331" cy="12.5" rx="12.4331" ry="12.5" transform="matrix(0.865248 0.501344 -0.498662 0.866796 592.467 62.4026)" fill="#080708" stroke="#080708"/>
<rect width="28.1467" height="27" transform="matrix(0.707107 -0.707107 0.704914 0.709293 547 48.3052)" fill="#080708" stroke="#080708"/>
<rect width="30.2316" height="29" transform="matrix(0.965926 -0.258819 0.255827 0.966723 639.92 161.253)" fill="#080708" stroke="#080708"/>
<rect width="21.8919" height="21" transform="matrix(0.996329 0.0856094 -0.0886936 0.996059 747.26 36.8875)" fill="#080708" stroke="#080708"/>
<path d="M894.453 60.2137L894.484 80.1856L877.265 70.1729L894.453 60.2137Z" fill="#080708" stroke="#080708"/>
<rect width="23.9768" height="23" transform="matrix(0.965523 -0.260318 0.257328 0.966324 409.929 112.575)" fill="#080708" stroke="#080708"/>
<path d="M511.19 62.5744L504.933 86.0692L487.84 68.8698L511.19 62.5744Z" fill="#080708" stroke="#080708"/>
<ellipse cx="14.9198" cy="15" rx="14.9198" ry="15" transform="matrix(0.939161 0.343478 -0.340569 0.94022 670.684 90.2263)" fill="#080708" stroke="#080708"/>
<ellipse cx="14.9198" cy="15" rx="14.9198" ry="15" transform="matrix(0.996329 -0.0856094 0.0886936 0.996059 801.035 126.597)" fill="#080708" stroke="#080708"/>
<rect width="20.8494" height="20" transform="matrix(0.984537 -0.175177 0.172128 0.985075 762.18 98.9492)" fill="#080708" stroke="#080708"/>
<rect width="30.2316" height="29" transform="matrix(0.965523 -0.260318 0.257328 0.966324 803.802 73.5752)" fill="#080708" stroke="#080708"/>
<rect width="28.1467" height="27" transform="matrix(0.996058 -0.0887019 0.0856177 0.996328 454.31 111.872)" fill="#080708" stroke="#080708"/>
<ellipse cx="13.4278" cy="13.5" rx="13.4278" ry="13.5" transform="matrix(0.905651 0.424024 -0.421219 0.906959 561.373 128.403)" fill="#080708" stroke="#080708"/>
<path d="M621.06 160.376L616.725 185.182L597.536 168.979L621.06 160.376Z" fill="#080708" stroke="#080708"/>
<ellipse cx="10.4438" cy="10.5" rx="10.4438" ry="10.5" transform="matrix(0.965523 0.260318 -0.257328 0.966324 725.812 128.024)" fill="#080708" stroke="#080708"/>
<path d="M847.381 168.917L848.921 186.215L833.246 178.847L847.381 168.917Z" fill="#080708" stroke="#080708"/>
<ellipse cx="11.4385" cy="11.5" rx="11.4385" ry="11.5" transform="matrix(0.985076 -0.172119 0.175168 0.984538 458.589 162.299)" fill="#080708" stroke="#080708"/>
<ellipse cx="11.9358" cy="12" rx="11.9358" ry="12" transform="matrix(0.999999 0.00155213 0.00154382 0.999999 378.048 155.48)" fill="#080708" stroke="#080708"/>
<path d="M513.394 213.265L502.421 236.891L487.585 215.563L513.394 213.265Z" fill="#080708" stroke="#080708"/>
<ellipse cx="10.9412" cy="11" rx="10.9412" ry="11" transform="matrix(0.865248 0.501344 -0.498662 0.866796 668.517 213.396)" fill="#080708" stroke="#080708"/>
<ellipse cx="12.4331" cy="12.5" rx="12.4331" ry="12.5" transform="matrix(0.939161 0.343478 -0.340569 0.94022 800.512 239.527)" fill="#080708" stroke="#080708"/>
<path d="M714.979 206.273L715.02 232.323L692.56 219.263L714.979 206.273Z" fill="#080708" stroke="#080708"/>
<path d="M581.716 209.974L587.432 230.916L566.519 225.313L581.716 209.974Z" fill="#080708" stroke="#080708"/>
<ellipse cx="11.9358" cy="12" rx="11.9358" ry="12" transform="matrix(0.965523 0.260318 -0.257328 0.966324 866.319 179.124)" fill="#080708" stroke="#080708"/>
<rect x="176" y="216.403" width="10" height="100" fill="#F5EEEB" stroke="#080708"/>
<path d="M261 266.403C261 263.641 263.239 261.403 266 261.403H276V271.403H266C263.239 271.403 261 269.164 261 266.403V266.403Z" fill="#080708" stroke="#080708"/>
<rect x="271" y="261.403" width="30" height="10" rx="5" fill="#F5EEEB" stroke="#080708"/>
<rect width="21.4663" height="20.5917" transform="matrix(0.965523 -0.260318 0.257328 0.966324 607 253.991)" fill="#F5EEEB" stroke="#080708"/>
<path d="M519.62 120.865L517.835 141.628L500.846 129.654L519.62 120.865Z" fill="#F5EEEB" stroke="#080708"/>
<path d="M459.336 41.7197L453.303 64.3755L436.82 47.7903L459.336 41.7197Z" fill="#F5EEEB" stroke="#080708"/>
<path d="M550.764 74.7546L556.641 96.5532L534.91 90.6581L550.764 74.7546Z" fill="#F5EEEB" stroke="#080708"/>
<ellipse cx="14.4225" cy="14.5" rx="14.4225" ry="14.5" transform="matrix(0.965523 0.260318 -0.257328 0.966324 651.834 12.2236)" fill="#F5EEEB" stroke="#080708"/>
<path d="M787.591 4.42938L787.618 21.7962L772.645 13.0896L787.591 4.42938Z" fill="#F5EEEB" stroke="#080708"/>
<path d="M867.971 1.09327L858.927 16.9276L849.833 1.17757L867.971 1.09327Z" fill="#F5EEEB" stroke="#080708"/>
<ellipse cx="12.4331" cy="12.5" rx="12.4331" ry="12.5" transform="matrix(0.765046 0.643976 -0.641604 0.767036 388.356 90.9773)" fill="#F5EEEB" stroke="#080708"/>
<ellipse cx="12.4331" cy="12.5" rx="12.4331" ry="12.5" transform="matrix(0.865248 0.501344 -0.498662 0.866796 592.467 58.4026)" fill="#F5EEEB" stroke="#080708"/>
<rect width="28.1467" height="27" transform="matrix(0.707107 -0.707107 0.704914 0.709293 547 44.3052)" fill="#F5EEEB" stroke="#080708"/>
<rect width="30.2316" height="29" transform="matrix(0.965926 -0.258819 0.255827 0.966723 639.92 157.253)" fill="#F5EEEB" stroke="#080708"/>
<rect width="21.8919" height="21" transform="matrix(0.996329 0.0856094 -0.0886936 0.996059 747.26 32.8875)" fill="#F5EEEB" stroke="#080708"/>
<path d="M894.453 56.2137L894.484 76.1856L877.265 66.1729L894.453 56.2137Z" fill="#F5EEEB" stroke="#080708"/>
<rect width="23.9768" height="23" transform="matrix(0.965523 -0.260318 0.257328 0.966324 409.929 108.575)" fill="#F5EEEB" stroke="#080708"/>
<path d="M511.19 58.5744L504.933 82.0692L487.84 64.8698L511.19 58.5744Z" fill="#F5EEEB" stroke="#080708"/>
<ellipse cx="14.9198" cy="15" rx="14.9198" ry="15" transform="matrix(0.939161 0.343478 -0.340569 0.94022 670.684 86.2263)" fill="#F5EEEB" stroke="#080708"/>
<ellipse cx="14.9198" cy="15" rx="14.9198" ry="15" transform="matrix(0.996329 -0.0856094 0.0886936 0.996059 801.035 122.597)" fill="#F5EEEB" stroke="#080708"/>
<rect width="20.8494" height="20" transform="matrix(0.984537 -0.175177 0.172128 0.985075 762.18 94.9492)" fill="#F5EEEB" stroke="#080708"/>
<rect width="30.2316" height="29" transform="matrix(0.965523 -0.260318 0.257328 0.966324 803.802 69.5752)" fill="#F5EEEB" stroke="#080708"/>
<rect width="28.1467" height="27" transform="matrix(0.996058 -0.0887019 0.0856177 0.996328 454.31 107.872)" fill="#F5EEEB" stroke="#080708"/>
<ellipse cx="13.4278" cy="13.5" rx="13.4278" ry="13.5" transform="matrix(0.905651 0.424024 -0.421219 0.906959 561.373 124.403)" fill="#F5EEEB" stroke="#080708"/>
<path d="M621.06 156.376L616.725 181.182L597.536 164.979L621.06 156.376Z" fill="#F5EEEB" stroke="#080708"/>
<ellipse cx="10.4438" cy="10.5" rx="10.4438" ry="10.5" transform="matrix(0.965523 0.260318 -0.257328 0.966324 725.812 124.024)" fill="#F5EEEB" stroke="#080708"/>
<path d="M847.381 164.917L848.921 182.215L833.246 174.847L847.381 164.917Z" fill="#F5EEEB" stroke="#080708"/>
<ellipse cx="11.4385" cy="11.5" rx="11.4385" ry="11.5" transform="matrix(0.985076 -0.172119 0.175168 0.984538 458.589 158.299)" fill="#F5EEEB" stroke="#080708"/>
<ellipse cx="11.9358" cy="12" rx="11.9358" ry="12" transform="matrix(0.999999 0.00155213 0.00154382 0.999999 378.048 151.48)" fill="#F5EEEB" stroke="#080708"/>
<path d="M513.394 209.265L502.421 232.891L487.585 211.563L513.394 209.265Z" fill="#F5EEEB" stroke="#080708"/>
<ellipse cx="10.9412" cy="11" rx="10.9412" ry="11" transform="matrix(0.865248 0.501344 -0.498662 0.866796 668.517 209.396)" fill="#F5EEEB" stroke="#080708"/>
<ellipse cx="12.4331" cy="12.5" rx="12.4331" ry="12.5" transform="matrix(0.939161 0.343478 -0.340569 0.94022 800.512 235.527)" fill="#F5EEEB" stroke="#080708"/>
<path d="M714.979 202.273L715.02 228.323L692.56 215.263L714.979 202.273Z" fill="#F5EEEB" stroke="#080708"/>
<path d="M581.716 205.974L587.432 226.916L566.519 221.313L581.716 205.974Z" fill="#F5EEEB" stroke="#080708"/>
<ellipse cx="11.9358" cy="12" rx="11.9358" ry="12" transform="matrix(0.965523 0.260318 -0.257328 0.966324 866.319 175.124)" fill="#F5EEEB" stroke="#080708"/>
<circle cx="3" cy="3" r="3" transform="matrix(1 0 0.00309595 0.999995 604 340.403)" fill="#080708" stroke="#080708"/>
<rect x="607" y="338.403" width="15" height="10" fill="#080708" stroke="#080708"/>
<rect x="622" y="338.403" width="35" height="10" fill="#F5EEEB" stroke="#080708"/>
<rect x="627" y="343.403" width="25" height="4" fill="#080708"/>
<path d="M729 332.403C729 330.193 730.791 328.403 733 328.403H785C787.209 328.403 789 330.193 789 332.403V345.403H729V332.403Z" fill="#080708" stroke="#080708"/>
<rect x="727" y="344.403" width="64" height="6" rx="3" fill="#F5EEEB" stroke="#080708"/>
<circle cx="3" cy="3" r="3" transform="matrix(0.965926 0.258819 -0.255827 0.966722 647.071 327.334)" fill="#080708" stroke="#080708"/>
<rect x="650.486" y="326.179" width="15" height="10" transform="rotate(15 650.486 326.179)" fill="#080708" stroke="#080708"/>
<rect x="664.975" y="330.061" width="35" height="10" transform="rotate(15 664.975 330.061)" fill="#F5EEEB" stroke="#080708"/>
<rect x="669.546" y="332.321" width="25" height="4" transform="rotate(15 669.546 332.321)" fill="#080708"/>
<path d="M767 332.403C767 331.298 767.895 330.403 769 330.403H785C786.105 330.403 787 331.298 787 332.403V345.403H767V332.403Z" fill="#080708" stroke="#F5EEEB"/>
<rect x="763" y="344.403" width="28" height="6" rx="3" fill="#F5EEEB" stroke="#080708"/>
<rect x="853" y="303.167" width="30" height="30" transform="rotate(-15 853 303.167)" fill="#F5EEEB" stroke="#080708"/>
<path d="M860.418 311.532L879.736 306.356" stroke="#080708"/>
<path d="M861.712 316.362L881.03 311.186" stroke="#080708"/>
<path d="M863.006 321.192L872.665 318.603" stroke="#080708"/>
<rect x="875.136" y="276.403" width="30" height="30" transform="rotate(15 875.136 276.403)" fill="#F5EEEB" stroke="#080708"/>
<rect x="828" y="263.612" width="30" height="30" transform="rotate(-10 828 263.612)" fill="#F5EEEB" stroke="#080708"/>
<path d="M834.661 272.592L854.357 269.119" stroke="#080708"/>
<path d="M835.529 277.516L855.225 274.043" stroke="#080708"/>
<path d="M836.397 282.44L846.245 280.703" stroke="#080708"/>
<rect x="867" y="277.403" width="30" height="30" transform="rotate(-30 867 277.403)" fill="#F5EEEB" stroke="#080708"/>
<path d="M876.33 283.563L893.651 273.563" stroke="#080708"/>
<path d="M878.83 287.893L896.151 277.893" stroke="#080708"/>
<path d="M881.33 292.223L889.99 287.223" stroke="#080708"/>
</g>
<defs>
<clipPath id="clip0_487_4206">
<rect width="910" height="415" fill="white"/>
</clipPath>
</defs>
</svg>
