<svg width="2000" height="2000" viewBox="0 0 2000 2000" fill="none" xmlns="http://www.w3.org/2000/svg">
<g clip-path="url(#clip0_325_9232)">
<g opacity="0.15">
<path d="M8.19246 1162.23L-65.9857 1078.57L-259.171 1130.34L-233.289 1226.93" stroke="#080708"/>
<path d="M42.6182 324.781L-31.56 241.13L-224.745 292.893L-198.863 389.486" stroke="#080708"/>
<path d="M94.3819 517.966L20.2037 434.315L-172.981 486.078L-147.1 582.671" stroke="#080708"/>
<path d="M146.147 711.151L71.9684 627.5L-121.217 679.264L-95.3349 775.856" stroke="#080708"/>
<path d="M197.91 904.336L123.732 820.685L-69.4531 872.449L-43.5712 969.041" stroke="#080708"/>
<path d="M249.674 1097.52L175.496 1013.87L-17.6895 1065.63L8.19245 1162.23" stroke="#080708"/>
<path d="M-0.476482 646.911L-74.6547 563.26L-267.84 615.023L-241.958 711.616" stroke="#080708"/>
<path d="M51.2872 840.096L-22.891 756.445L-216.076 808.209L-190.194 904.801" stroke="#080708"/>
<path d="M103.051 1033.28L28.8727 949.63L-164.312 1001.39L-138.431 1097.99" stroke="#080708"/>
<path d="M154.815 1226.47L80.6363 1142.82L-112.549 1194.58L-86.6669 1291.17" stroke="#080708"/>
<path d="M232.336 66.8911L158.158 -16.7605L-35.0273 35.0033L-9.14544 131.596" stroke="#080708"/>
<path d="M284.1 260.076L209.921 176.425L16.7363 228.188L42.6182 324.781" stroke="#080708"/>
<path d="M335.863 453.261L261.685 369.61L68.5 421.374L94.3819 517.966" stroke="#080708"/>
<path d="M387.628 646.447L313.45 562.795L120.265 614.559L146.147 711.151" stroke="#080708"/>
<path d="M439.392 839.632L365.213 755.98L172.028 807.744L197.91 904.337" stroke="#080708"/>
<path d="M491.155 1032.82L416.977 949.165L223.792 1000.93L249.674 1097.52" stroke="#080708"/>
<path d="M85.7139 2.65101L11.5357 -81.0006L-181.649 -29.2368L-155.768 67.3558" stroke="#080708"/>
<path d="M137.478 195.836L63.2994 112.184L-129.886 163.948L-104.004 260.541" stroke="#080708"/>
<path d="M189.241 389.021L115.063 305.37L-78.1221 357.133L-52.2402 453.726" stroke="#080708"/>
<path d="M241.005 582.206L166.827 498.555L-26.3584 550.319L-0.476493 646.911" stroke="#080708"/>
<path d="M292.769 775.392L218.59 691.74L25.4053 743.504L51.2872 840.096" stroke="#080708"/>
<path d="M344.532 968.577L270.354 884.925L77.1689 936.689L103.051 1033.28" stroke="#080708"/>
<path d="M396.296 1161.76L322.118 1078.11L128.933 1129.87L154.815 1226.47" stroke="#080708"/>
<path d="M473.817 2.18641L399.639 -81.4652L206.454 -29.7014L232.336 66.8912" stroke="#080708"/>
<path d="M525.581 195.372L451.403 111.72L258.218 163.484L284.1 260.076" stroke="#080708"/>
<path d="M577.345 388.557L503.167 304.905L309.981 356.669L335.863 453.262" stroke="#080708"/>
<path d="M629.109 581.742L554.931 498.09L361.746 549.854L387.628 646.447" stroke="#080708"/>
<path d="M680.873 774.927L606.695 691.275L413.51 743.039L439.392 839.632" stroke="#080708"/>
<path d="M732.637 968.112L658.459 884.461L465.273 936.224L491.155 1032.82" stroke="#080708"/>
<path d="M327.195 -62.0538L253.017 -145.705L59.832 -93.9417L85.7139 2.65093" stroke="#080708"/>
<path d="M378.959 131.131L304.781 47.4797L111.596 99.2435L137.478 195.836" stroke="#080708"/>
<path d="M430.723 324.317L356.545 240.665L163.359 292.429L189.241 389.021" stroke="#080708"/>
<path d="M482.486 517.502L408.308 433.85L215.123 485.614L241.005 582.206" stroke="#080708"/>
<path d="M534.25 710.687L460.072 627.035L266.887 678.799L292.769 775.392" stroke="#080708"/>
<path d="M586.014 903.872L511.836 820.22L318.65 871.984L344.532 968.577" stroke="#080708"/>
<path d="M637.777 1097.06L563.599 1013.41L370.414 1065.17L396.296 1161.76" stroke="#080708"/>
<path d="M715.299 -62.5183L641.121 -146.17L447.936 -94.4061L473.817 2.18646" stroke="#080708"/>
<path d="M767.063 130.667L692.884 47.0151L499.699 98.7789L525.581 195.372" stroke="#080708"/>
<path d="M818.826 323.852L744.648 240.2L551.463 291.964L577.345 388.557" stroke="#080708"/>
<path d="M870.591 517.037L796.413 433.385L603.228 485.149L629.109 581.742" stroke="#080708"/>
<path d="M922.355 710.222L848.176 626.571L654.991 678.334L680.873 774.927" stroke="#080708"/>
<path d="M974.118 903.407L899.94 819.756L706.755 871.52L732.637 968.112" stroke="#080708"/>
<path d="M620.441 66.4266L546.262 -17.225L353.077 34.5388L378.959 131.131" stroke="#080708"/>
<path d="M672.204 259.612L598.026 175.96L404.841 227.724L430.723 324.317" stroke="#080708"/>
<path d="M723.968 452.797L649.79 369.145L456.604 420.909L482.486 517.502" stroke="#080708"/>
<path d="M775.732 645.982L701.553 562.331L508.368 614.094L534.25 710.687" stroke="#080708"/>
<path d="M827.495 839.167L753.317 755.516L560.132 807.279L586.014 903.872" stroke="#080708"/>
<path d="M879.259 1032.35L805.081 948.701L611.896 1000.46L637.777 1097.06" stroke="#080708"/>
<path d="M861.922 1.72181L787.744 -81.9298L594.559 -30.166L620.44 66.4266" stroke="#080708"/>
<path d="M913.686 194.907L839.507 111.255L646.322 163.019L672.204 259.612" stroke="#080708"/>
<path d="M965.449 388.092L891.271 304.441L698.086 356.204L723.968 452.797" stroke="#080708"/>
<path d="M1017.21 581.277L943.035 497.626L749.85 549.39L775.732 645.982" stroke="#080708"/>
<path d="M1068.98 774.462L994.798 690.811L801.613 742.575L827.495 839.167" stroke="#080708"/>
<path d="M1120.74 967.648L1046.56 883.996L853.377 935.76L879.259 1032.35" stroke="#080708"/>
<path d="M1008.54 65.962L934.366 -17.6896L741.181 34.0742L767.063 130.667" stroke="#080708"/>
<path d="M1060.31 259.147L986.129 175.496L792.944 227.259L818.826 323.852" stroke="#080708"/>
<path d="M1112.07 452.332L1037.89 368.681L844.709 420.445L870.591 517.037" stroke="#080708"/>
<path d="M1163.84 645.518L1089.66 561.866L896.473 613.63L922.355 710.222" stroke="#080708"/>
<path d="M1215.6 838.703L1141.42 755.051L948.236 806.815L974.118 903.407" stroke="#080708"/>
<path d="M861.922 1.72181L787.744 -81.9298L594.559 -30.166L620.44 66.4266" stroke="#080708"/>
<path d="M913.686 194.907L839.507 111.255L646.322 163.019L672.204 259.612" stroke="#080708"/>
<path d="M965.449 388.092L891.271 304.441L698.086 356.204L723.968 452.797" stroke="#080708"/>
<path d="M1017.21 581.277L943.035 497.626L749.85 549.39L775.732 645.982" stroke="#080708"/>
<path d="M1068.98 774.462L994.798 690.811L801.613 742.575L827.495 839.167" stroke="#080708"/>
<path d="M1120.74 967.648L1046.56 883.996L853.377 935.76L879.259 1032.35" stroke="#080708"/>
<path d="M1250.03 1.25733L1175.85 -82.3943L982.662 -30.6305L1008.54 65.9621" stroke="#080708"/>
<path d="M1301.79 194.443L1227.61 110.791L1034.43 162.555L1060.31 259.147" stroke="#080708"/>
<path d="M1353.55 387.628L1279.37 303.976L1086.19 355.74L1112.07 452.332" stroke="#080708"/>
<path d="M1405.32 580.813L1331.14 497.161L1137.95 548.925L1163.84 645.518" stroke="#080708"/>
<path d="M1457.08 773.998L1382.9 690.346L1189.72 742.11L1215.6 838.703" stroke="#080708"/>
<path d="M1103.4 -62.9829L1029.23 -146.635L836.04 -94.8707L861.922 1.72186" stroke="#080708"/>
<path d="M1155.17 130.202L1080.99 46.5506L887.804 98.3145L913.686 194.907" stroke="#080708"/>
<path d="M1206.93 323.387L1132.75 239.736L939.567 291.5L965.449 388.092" stroke="#080708"/>
<path d="M1258.69 516.573L1184.52 432.921L991.331 484.685L1017.21 581.277" stroke="#080708"/>
<path d="M1310.46 709.758L1236.28 626.106L1043.09 677.87L1068.98 774.463" stroke="#080708"/>
<path d="M1362.22 902.943L1288.04 819.291L1094.86 871.055L1120.74 967.648" stroke="#080708"/>
<path d="M1491.51 -63.4475L1417.33 -147.099L1224.14 -95.3353L1250.03 1.25726" stroke="#080708"/>
<path d="M1543.27 129.738L1469.09 46.086L1275.91 97.8499L1301.79 194.442" stroke="#080708"/>
<path d="M1595.04 322.923L1520.86 239.271L1327.67 291.035L1353.55 387.628" stroke="#080708"/>
<path d="M1646.8 516.108L1572.62 432.456L1379.44 484.22L1405.32 580.813" stroke="#080708"/>
<path d="M1698.56 709.293L1624.38 625.642L1431.2 677.405L1457.08 773.998" stroke="#080708"/>
<path d="M1396.65 65.4974L1322.47 -18.1542L1129.29 33.6096L1155.17 130.202" stroke="#080708"/>
<path d="M1448.41 258.683L1374.23 175.031L1181.05 226.795L1206.93 323.387" stroke="#080708"/>
<path d="M1500.18 451.868L1426 368.216L1232.81 419.98L1258.69 516.573" stroke="#080708"/>
<path d="M1551.94 645.053L1477.76 561.401L1284.58 613.165L1310.46 709.758" stroke="#080708"/>
<path d="M1603.7 838.238L1529.53 754.586L1336.34 806.35L1362.22 902.943" stroke="#080708"/>
<path d="M1784.75 65.033L1710.57 -18.6187L1517.39 33.1451L1543.27 129.738" stroke="#080708"/>
<path d="M1836.52 258.218L1762.34 174.567L1569.15 226.33L1595.04 322.923" stroke="#080708"/>
<path d="M1888.28 451.403L1814.1 367.752L1620.92 419.515L1646.8 516.108" stroke="#080708"/>
<path d="M1940.04 644.588L1865.87 560.937L1672.68 612.701L1698.56 709.293" stroke="#080708"/>
<path d="M1638.13 0.79273L1563.95 -82.8589L1370.77 -31.0951L1396.65 65.4975" stroke="#080708"/>
<path d="M1689.89 193.978L1615.72 110.326L1422.53 162.09L1448.41 258.683" stroke="#080708"/>
<path d="M1741.66 387.163L1667.48 303.511L1474.29 355.275L1500.18 451.868" stroke="#080708"/>
<path d="M1793.42 580.348L1719.24 496.697L1526.06 548.46L1551.94 645.053" stroke="#080708"/>
<path d="M1845.18 773.533L1771.01 689.882L1577.82 741.646L1603.7 838.238" stroke="#080708"/>
<path d="M2026.23 0.32813L1952.06 -83.3235L1758.87 -31.5597L1784.75 65.0329" stroke="#080708"/>
<path d="M2078 193.513L2003.82 109.862L1810.63 161.625L1836.52 258.218" stroke="#080708"/>
<path d="M2129.76 386.698L2055.58 303.047L1862.4 354.811L1888.28 451.403" stroke="#080708"/>
<path d="M2181.53 579.884L2107.35 496.232L1914.16 547.996L1940.04 644.588" stroke="#080708"/>
<path d="M1879.61 -63.912L1805.43 -147.564L1612.25 -95.7998L1638.13 0.79278" stroke="#080708"/>
<path d="M1931.38 129.273L1857.2 45.6216L1664.01 97.3854L1689.89 193.978" stroke="#080708"/>
<path d="M1983.14 322.458L1908.96 238.807L1715.78 290.57L1741.66 387.163" stroke="#080708"/>
<path d="M2034.9 515.643L1960.72 431.992L1767.54 483.756L1793.42 580.348" stroke="#080708"/>
<path d="M2086.67 708.829L2012.49 625.177L1819.3 676.941L1845.18 773.533" stroke="#080708"/>
<path d="M2267.71 -64.3766L2193.54 -148.028L2000.35 -96.2644L2026.23 0.32818" stroke="#080708"/>
<path d="M2172.86 64.5684L2098.68 -19.0833L1905.49 32.6805L1931.38 129.273" stroke="#080708"/>
<path d="M2224.62 257.754L2150.44 174.102L1957.26 225.866L1983.14 322.458" stroke="#080708"/>
<path d="M111.72 1548.6L37.5416 1464.95L-155.644 1516.71L-129.762 1613.3" stroke="#080708"/>
<path d="M163.483 1741.78L89.3053 1658.13L-103.88 1709.89L-77.998 1806.49" stroke="#080708"/>
<path d="M215.247 1934.97L141.069 1851.32L-52.1162 1903.08L-26.2343 1999.67" stroke="#080708"/>
<path d="M16.8614 1677.54L-57.3168 1593.89L-250.502 1645.65L-224.62 1742.25" stroke="#080708"/>
<path d="M68.6251 1870.73L-5.55312 1787.08L-198.738 1838.84L-172.856 1935.43" stroke="#080708"/>
<path d="M120.389 2063.91L46.2106 1980.26L-146.975 2032.02L-121.093 2128.62" stroke="#080708"/>
<path d="M353.201 1483.89L279.023 1400.24L85.8379 1452L111.72 1548.6" stroke="#080708"/>
<path d="M404.965 1677.08L330.787 1593.43L137.602 1645.19L163.483 1741.78" stroke="#080708"/>
<path d="M456.729 1870.26L382.55 1786.61L189.365 1838.37L215.247 1934.97" stroke="#080708"/>
<path d="M508.492 2063.45L434.314 1979.8L241.129 2031.56L267.011 2128.15" stroke="#080708"/>
<path d="M258.343 1612.84L184.165 1529.19L-9.02051 1580.95L16.8614 1677.54" stroke="#080708"/>
<path d="M310.107 1806.02L235.928 1722.37L42.7432 1774.13L68.6251 1870.73" stroke="#080708"/>
<path d="M361.87 1999.21L287.692 1915.56L94.5068 1967.32L120.389 2063.91" stroke="#080708"/>
<path d="M594.683 1419.19L520.504 1335.54L327.319 1387.3L353.201 1483.89" stroke="#080708"/>
<path d="M646.446 1612.37L572.268 1528.72L379.083 1580.48L404.965 1677.08" stroke="#080708"/>
<path d="M698.21 1805.56L624.032 1721.91L430.847 1773.67L456.729 1870.26" stroke="#080708"/>
<path d="M749.974 1998.74L675.796 1915.09L482.61 1966.85L508.492 2063.45" stroke="#080708"/>
<path d="M499.824 1548.13L425.646 1464.48L232.461 1516.24L258.343 1612.84" stroke="#080708"/>
<path d="M551.588 1741.32L477.41 1657.67L284.225 1709.43L310.107 1806.02" stroke="#080708"/>
<path d="M603.352 1934.5L529.173 1850.85L335.988 1902.61L361.87 1999.21" stroke="#080708"/>
<path d="M836.164 1354.48L761.986 1270.83L568.801 1322.59L594.683 1419.19" stroke="#080708"/>
<path d="M887.928 1547.67L813.75 1464.02L620.564 1515.78L646.446 1612.37" stroke="#080708"/>
<path d="M939.691 1740.85L865.513 1657.2L672.328 1708.96L698.21 1805.56" stroke="#080708"/>
<path d="M991.455 1934.04L917.277 1850.39L724.092 1902.15L749.974 1998.74" stroke="#080708"/>
<path d="M741.306 1483.43L667.128 1399.78L473.942 1451.54L499.824 1548.13" stroke="#080708"/>
<path d="M793.069 1676.61L718.891 1592.96L525.706 1644.72L551.588 1741.32" stroke="#080708"/>
<path d="M844.833 1869.8L770.655 1786.15L577.47 1837.91L603.352 1934.5" stroke="#080708"/>
<path d="M896.597 2062.98L822.419 1979.33L629.233 2031.1L655.115 2127.69" stroke="#080708"/>
<path d="M1077.65 1289.78L1003.47 1206.13L810.282 1257.89L836.164 1354.48" stroke="#080708"/>
<path d="M1129.41 1482.96L1055.23 1399.31L862.046 1451.08L887.928 1547.67" stroke="#080708"/>
<path d="M1181.17 1676.15L1106.99 1592.5L913.81 1644.26L939.691 1740.85" stroke="#080708"/>
<path d="M1232.94 1869.33L1158.76 1785.68L965.574 1837.45L991.456 1934.04" stroke="#080708"/>
<path d="M1284.7 2062.52L1210.52 1978.87L1017.34 2030.63L1043.22 2127.22" stroke="#080708"/>
<path d="M982.787 1418.72L908.609 1335.07L715.424 1386.83L741.306 1483.43" stroke="#080708"/>
<path d="M1034.55 1611.91L960.373 1528.26L767.188 1580.02L793.069 1676.61" stroke="#080708"/>
<path d="M1086.31 1805.09L1012.14 1721.44L818.951 1773.21L844.833 1869.8" stroke="#080708"/>
<path d="M1138.08 1998.28L1063.9 1914.63L870.715 1966.39L896.597 2062.98" stroke="#080708"/>
<path d="M59.9561 1355.41L-14.2221 1271.76L-207.407 1323.52L-181.525 1420.12" stroke="#080708"/>
<path d="M301.438 1290.71L227.259 1207.06L34.0742 1258.82L59.9561 1355.41" stroke="#080708"/>
<path d="M206.578 1419.65L132.4 1336L-60.7852 1387.76L-34.9033 1484.36" stroke="#080708"/>
<path d="M542.919 1226L468.741 1142.35L275.556 1194.11L301.438 1290.71" stroke="#080708"/>
<path d="M448.06 1354.95L373.881 1271.3L180.696 1323.06L206.578 1419.65" stroke="#080708"/>
<path d="M784.4 1161.3L710.222 1077.65L517.037 1129.41L542.919 1226" stroke="#080708"/>
<path d="M689.541 1290.24L615.363 1206.59L422.178 1258.35L448.06 1354.95" stroke="#080708"/>
<path d="M1025.88 1096.59L951.704 1012.94L758.519 1064.7L784.4 1161.3" stroke="#080708"/>
<path d="M931.024 1225.54L856.845 1141.89L663.66 1193.65L689.542 1290.24" stroke="#080708"/>
<path d="M1172.5 1160.83L1098.33 1077.18L905.141 1128.94L931.023 1225.54" stroke="#080708"/>
<path d="M1224.27 1354.02L1150.09 1270.37L956.905 1322.13L982.787 1418.72" stroke="#080708"/>
<path d="M1276.03 1547.2L1201.85 1463.55L1008.67 1515.32L1034.55 1611.91" stroke="#080708"/>
<path d="M1327.8 1740.39L1253.62 1656.74L1060.43 1708.5L1086.31 1805.09" stroke="#080708"/>
<path d="M1379.56 1933.57L1305.38 1849.92L1112.2 1901.69L1138.08 1998.28" stroke="#080708"/>
<path d="M1319.13 1225.07L1244.95 1141.42L1051.76 1193.19L1077.65 1289.78" stroke="#080708"/>
<path d="M1370.89 1418.26L1296.71 1334.61L1103.53 1386.37L1129.41 1482.96" stroke="#080708"/>
<path d="M1422.65 1611.44L1348.48 1527.79L1155.29 1579.56L1181.17 1676.15" stroke="#080708"/>
<path d="M1474.42 1804.63L1400.24 1720.98L1207.05 1772.74L1232.94 1869.33" stroke="#080708"/>
<path d="M1526.18 1997.81L1452 1914.16L1258.82 1965.93L1284.7 2062.52" stroke="#080708"/>
<path d="M1224.27 1354.02L1150.09 1270.37L956.905 1322.13L982.787 1418.72" stroke="#080708"/>
<path d="M1276.03 1547.2L1201.85 1463.55L1008.67 1515.32L1034.55 1611.91" stroke="#080708"/>
<path d="M1327.8 1740.39L1253.62 1656.74L1060.43 1708.5L1086.31 1805.09" stroke="#080708"/>
<path d="M1379.56 1933.57L1305.38 1849.92L1112.2 1901.69L1138.08 1998.28" stroke="#080708"/>
<path d="M1560.61 1160.37L1486.43 1076.72L1293.25 1128.48L1319.13 1225.07" stroke="#080708"/>
<path d="M1612.37 1353.55L1538.19 1269.9L1345.01 1321.67L1370.89 1418.26" stroke="#080708"/>
<path d="M1664.14 1546.74L1589.96 1463.09L1396.77 1514.85L1422.65 1611.44" stroke="#080708"/>
<path d="M1715.9 1739.92L1641.72 1656.27L1448.54 1708.04L1474.42 1804.63" stroke="#080708"/>
<path d="M1767.66 1933.11L1693.49 1849.46L1500.3 1901.22L1526.18 1997.81" stroke="#080708"/>
<path d="M1465.75 1289.31L1391.57 1205.66L1198.39 1257.43L1224.27 1354.02" stroke="#080708"/>
<path d="M1517.51 1482.5L1443.34 1398.85L1250.15 1450.61L1276.03 1547.2" stroke="#080708"/>
<path d="M1569.28 1675.68L1495.1 1592.03L1301.91 1643.8L1327.8 1740.39" stroke="#080708"/>
<path d="M1621.04 1868.87L1546.86 1785.22L1353.68 1836.98L1379.56 1933.57" stroke="#080708"/>
<path d="M1672.8 2062.05L1598.63 1978.4L1405.44 2030.17L1431.32 2126.76" stroke="#080708"/>
<path d="M1802.09 1095.66L1727.91 1012.01L1534.73 1063.78L1560.61 1160.37" stroke="#080708"/>
<path d="M1853.85 1288.85L1779.68 1205.2L1586.49 1256.96L1612.37 1353.55" stroke="#080708"/>
<path d="M1905.62 1482.03L1831.44 1398.38L1638.25 1450.15L1664.14 1546.74" stroke="#080708"/>
<path d="M1957.38 1675.22L1883.2 1591.57L1690.02 1643.33L1715.9 1739.92" stroke="#080708"/>
<path d="M2009.15 1868.4L1934.97 1784.75L1741.78 1836.52L1767.66 1933.11" stroke="#080708"/>
<path d="M2060.91 2061.59L1986.73 1977.94L1793.55 2029.7L1819.43 2126.29" stroke="#080708"/>
<path d="M1707.23 1224.61L1633.05 1140.96L1439.87 1192.72L1465.75 1289.31" stroke="#080708"/>
<path d="M1759 1417.79L1684.82 1334.14L1491.63 1385.91L1517.51 1482.5" stroke="#080708"/>
<path d="M1810.76 1610.98L1736.58 1527.33L1543.4 1579.09L1569.28 1675.68" stroke="#080708"/>
<path d="M1862.52 1804.16L1788.34 1720.51L1595.16 1772.28L1621.04 1868.87" stroke="#080708"/>
<path d="M1914.29 1997.35L1840.11 1913.7L1646.92 1965.46L1672.8 2062.05" stroke="#080708"/>
<path d="M2043.57 1030.96L1969.39 947.307L1776.21 999.071L1802.09 1095.66" stroke="#080708"/>
<path d="M2095.34 1224.14L2021.16 1140.49L1827.97 1192.26L1853.85 1288.85" stroke="#080708"/>
<path d="M2147.1 1417.33L2072.92 1333.68L1879.74 1385.44L1905.62 1482.03" stroke="#080708"/>
<path d="M2198.86 1610.51L2124.69 1526.86L1931.5 1578.63L1957.38 1675.22" stroke="#080708"/>
<path d="M2250.63 1803.7L2176.45 1720.05L1983.26 1771.81L2009.15 1868.4" stroke="#080708"/>
<path d="M1948.71 1159.9L1874.53 1076.25L1681.35 1128.02L1707.23 1224.61" stroke="#080708"/>
<path d="M2000.48 1353.09L1926.3 1269.44L1733.11 1321.2L1759 1417.79" stroke="#080708"/>
<path d="M2052.24 1546.27L1978.06 1462.62L1784.88 1514.39L1810.76 1610.98" stroke="#080708"/>
<path d="M2104 1739.46L2029.83 1655.81L1836.64 1707.57L1862.52 1804.16" stroke="#080708"/>
<path d="M2155.77 1932.64L2081.59 1848.99L1888.4 1900.76L1914.29 1997.35" stroke="#080708"/>
<path d="M2190.19 1095.2L2116.02 1011.55L1922.83 1063.31L1948.71 1159.9" stroke="#080708"/>
<path d="M2241.96 1288.38L2167.78 1204.73L1974.59 1256.5L2000.48 1353.09" stroke="#080708"/>
<path d="M1267.36 1031.89L1193.19 948.236L1000 1000L1025.88 1096.59" stroke="#080708"/>
<path d="M1172.5 1160.83L1098.33 1077.18L905.141 1128.94L931.023 1225.54" stroke="#080708"/>
<path d="M1508.84 967.183L1434.67 883.531L1241.48 935.295L1267.36 1031.89" stroke="#080708"/>
<path d="M1413.99 1096.13L1339.81 1012.48L1146.62 1064.24L1172.5 1160.83" stroke="#080708"/>
<path d="M1750.33 902.478L1676.15 818.827L1482.96 870.59L1508.84 967.183" stroke="#080708"/>
<path d="M1655.47 1031.42L1581.29 947.772L1388.1 999.536L1413.99 1096.13" stroke="#080708"/>
<path d="M1991.81 837.774L1917.63 754.122L1724.44 805.886L1750.33 902.478" stroke="#080708"/>
<path d="M1896.95 966.719L1822.77 883.067L1629.59 934.831L1655.47 1031.42" stroke="#080708"/>
<path d="M2233.29 773.069L2159.11 689.417L1965.93 741.181L1991.81 837.774" stroke="#080708"/>
<path d="M2138.43 902.014L2064.25 818.362L1871.07 870.126L1896.95 966.718" stroke="#080708"/>
</g>
</g>
<defs>
<clipPath id="clip0_325_9232">
<rect width="2000" height="2000" fill="white"/>
</clipPath>
</defs>
</svg>
