<svg width="151" height="220" viewBox="0 0 151 220" fill="none" xmlns="http://www.w3.org/2000/svg">
<g clip-path="url(#clip0_324_6650)">
<path d="M1 70.7642L32.5417 62.3126L44.6791 76.0685L5.25203 86.6329L1 70.7642Z" fill="#080708" stroke="#080708" stroke-width="1.5"/>
<rect width="114.29" height="104.732" transform="matrix(0.965926 -0.258819 -0.258819 -0.965926 30.7642 181.846)" fill="#080708" stroke="#080708" stroke-width="1.5"/>
<rect width="89.8368" height="58.0436" transform="matrix(0.999999 0.00155213 0.00154385 0.999999 49.8484 53.4233)" fill="#F5EEEB" stroke="#080708" stroke-width="1.5"/>
<rect width="31.3884" height="30.1097" transform="matrix(0.865248 -0.501344 0.498662 0.866796 28.3656 78.269)" fill="#359D72" stroke="#080708" stroke-width="1.5"/>
<path d="M118.577 56.2764C118.592 66.0584 110.717 73.976 100.987 73.9609C91.2571 73.9458 83.3574 66.0037 83.3423 56.2217C83.3272 46.4397 91.2024 38.522 100.932 38.5371C110.662 38.5522 118.562 46.4944 118.577 56.2764Z" fill="#359D72" stroke="#080708" stroke-width="1.5"/>
<path d="M39.3837 111.504L149.779 81.9232L143.131 151.737L32.7355 181.317L39.3837 111.504Z" fill="#F5EEEB" stroke="#080708" stroke-width="1.5"/>
<ellipse cx="77.3968" cy="138.346" rx="5.98958" ry="3.59375" transform="rotate(-15 77.3968 138.346)" fill="#080708"/>
<ellipse cx="121.367" cy="126.565" rx="5.98958" ry="3.59375" transform="rotate(-15 121.367 126.565)" fill="#080708"/>
<path d="M114.817 134.52C116.187 139.633 111.081 145.443 103.412 147.498C95.7436 149.552 88.4165 147.074 87.0466 141.961" stroke="#080708" stroke-width="1.5"/>
<path d="M139.367 1.94975L139.421 37.5039L108.768 19.6793L139.367 1.94975Z" fill="#359D72" stroke="#080708" stroke-width="1.5"/>
</g>
<defs>
<clipPath id="clip0_324_6650">
<rect width="151" height="220" fill="white"/>
</clipPath>
</defs>
</svg>
