<svg width="2000" height="2000" viewBox="0 0 2000 2000" fill="none" xmlns="http://www.w3.org/2000/svg">
<g clip-path="url(#clip0_325_9232)">
<path d="M250 300L200 200H0L0 300" stroke="#080708"/>
<path d="M250 500L200 400H0L0 500" stroke="#080708"/>
<path d="M250 700L200 600H0L0 700" stroke="#080708"/>
<path d="M250 900L200 800H0L0 900" stroke="#080708"/>
<path d="M250 1100L200 1000H0L0 1100" stroke="#080708"/>
<path d="M250 1300L200 1200H0L0 1300" stroke="#080708"/>
<path d="M250 1500L200 1400H0L0 1500" stroke="#080708"/>
<path d="M250 1700L200 1600H0L0 1700" stroke="#080708"/>
<path d="M250 1900L200 1800H0L0 1900" stroke="#080708"/>
<path d="M125 400L75 300H-125V400" stroke="#080708"/>
<path d="M125 600L75 500H-125V600" stroke="#080708"/>
<path d="M125 800L75 700H-125V800" stroke="#080708"/>
<path d="M125 1000L75 900H-125V1000" stroke="#080708"/>
<path d="M125 1200L75 1100H-125V1200" stroke="#080708"/>
<path d="M125 1400L75 1300H-125V1400" stroke="#080708"/>
<path d="M125 1600L75 1500H-125V1600" stroke="#080708"/>
<path d="M125 1800L75 1700H-125V1800" stroke="#080708"/>
<path d="M125 2000L75 1900H-125V2000" stroke="#080708"/>
<path d="M500 300L450 200H250V300" stroke="#080708"/>
<path d="M500 500L450 400H250V500" stroke="#080708"/>
<path d="M500 700L450 600H250V700" stroke="#080708"/>
<path d="M500 900L450 800H250V900" stroke="#080708"/>
<path d="M500 1100L450 1000H250V1100" stroke="#080708"/>
<path d="M500 1300L450 1200H250V1300" stroke="#080708"/>
<path d="M500 1500L450 1400H250V1500" stroke="#080708"/>
<path d="M500 1700L450 1600H250V1700" stroke="#080708"/>
<path d="M500 1900L450 1800H250V1900" stroke="#080708"/>
<path d="M375 400L325 300H125V400" stroke="#080708"/>
<path d="M375 600L325 500H125V600" stroke="#080708"/>
<path d="M375 800L325 700H125V800" stroke="#080708"/>
<path d="M375 1000L325 900H125V1000" stroke="#080708"/>
<path d="M375 1200L325 1100H125V1200" stroke="#080708"/>
<path d="M375 1400L325 1300H125V1400" stroke="#080708"/>
<path d="M375 1600L325 1500H125V1600" stroke="#080708"/>
<path d="M375 1800L325 1700H125V1800" stroke="#080708"/>
<path d="M375 2000L325 1900H125V2000" stroke="#080708"/>
<path d="M750 300L700 200H500V300" stroke="#080708"/>
<path d="M750 500L700 400H500V500" stroke="#080708"/>
<path d="M750 700L700 600H500V700" stroke="#080708"/>
<path d="M750 900L700 800H500V900" stroke="#080708"/>
<path d="M750 1100L700 1000H500V1100" stroke="#080708"/>
<path d="M750 1300L700 1200H500V1300" stroke="#080708"/>
<path d="M750 1500L700 1400H500V1500" stroke="#080708"/>
<path d="M750 1700L700 1600H500V1700" stroke="#080708"/>
<path d="M750 1900L700 1800H500V1900" stroke="#080708"/>
<path d="M625 400L575 300H375V400" stroke="#080708"/>
<path d="M625 600L575 500H375V600" stroke="#080708"/>
<path d="M625 800L575 700H375V800" stroke="#080708"/>
<path d="M625 1000L575 900H375V1000" stroke="#080708"/>
<path d="M625 1200L575 1100H375V1200" stroke="#080708"/>
<path d="M625 1400L575 1300H375V1400" stroke="#080708"/>
<path d="M625 1600L575 1500H375V1600" stroke="#080708"/>
<path d="M625 1800L575 1700H375V1800" stroke="#080708"/>
<path d="M625 2000L575 1900H375V2000" stroke="#080708"/>
<path d="M1000 300L950 200H750V300" stroke="#080708"/>
<path d="M1000 500L950 400H750V500" stroke="#080708"/>
<path d="M1000 700L950 600H750V700" stroke="#080708"/>
<path d="M1000 900L950 800H750V900" stroke="#080708"/>
<path d="M1000 1100L950 1000H750V1100" stroke="#080708"/>
<path d="M1000 1300L950 1200H750V1300" stroke="#080708"/>
<path d="M1000 1500L950 1400H750V1500" stroke="#080708"/>
<path d="M1000 1700L950 1600H750V1700" stroke="#080708"/>
<path d="M1000 1900L950 1800H750V1900" stroke="#080708"/>
<path d="M875 400L825 300H625V400" stroke="#080708"/>
<path d="M875 600L825 500H625V600" stroke="#080708"/>
<path d="M875 800L825 700H625V800" stroke="#080708"/>
<path d="M875 1000L825 900H625V1000" stroke="#080708"/>
<path d="M875 1200L825 1100H625V1200" stroke="#080708"/>
<path d="M875 1400L825 1300H625V1400" stroke="#080708"/>
<path d="M875 1600L825 1500H625V1600" stroke="#080708"/>
<path d="M875 1800L825 1700H625V1800" stroke="#080708"/>
<path d="M875 2000L825 1900H625V2000" stroke="#080708"/>
<path d="M1250 300L1200 200H1000V300" stroke="#080708"/>
<path d="M1250 500L1200 400H1000V500" stroke="#080708"/>
<path d="M1250 700L1200 600H1000V700" stroke="#080708"/>
<path d="M1250 900L1200 800H1000V900" stroke="#080708"/>
<path d="M1250 1100L1200 1000H1000V1100" stroke="#080708"/>
<path d="M1250 1300L1200 1200H1000V1300" stroke="#080708"/>
<path d="M1250 1500L1200 1400H1000V1500" stroke="#080708"/>
<path d="M1250 1700L1200 1600H1000V1700" stroke="#080708"/>
<path d="M1250 1900L1200 1800H1000V1900" stroke="#080708"/>
<path d="M1125 400L1075 300H875V400" stroke="#080708"/>
<path d="M1125 600L1075 500H875V600" stroke="#080708"/>
<path d="M1125 800L1075 700H875V800" stroke="#080708"/>
<path d="M1125 1000L1075 900H875V1000" stroke="#080708"/>
<path d="M1125 1200L1075 1100H875V1200" stroke="#080708"/>
<path d="M1125 1400L1075 1300H875V1400" stroke="#080708"/>
<path d="M1125 1600L1075 1500H875V1600" stroke="#080708"/>
<path d="M1125 1800L1075 1700H875V1800" stroke="#080708"/>
<path d="M1125 2000L1075 1900H875V2000" stroke="#080708"/>
<path d="M1500 300L1450 200H1250V300" stroke="#080708"/>
<path d="M1500 500L1450 400H1250V500" stroke="#080708"/>
<path d="M1500 700L1450 600H1250V700" stroke="#080708"/>
<path d="M1500 900L1450 800H1250V900" stroke="#080708"/>
<path d="M1500 1100L1450 1000H1250V1100" stroke="#080708"/>
<path d="M1500 1300L1450 1200H1250V1300" stroke="#080708"/>
<path d="M1500 1500L1450 1400H1250V1500" stroke="#080708"/>
<path d="M1500 1700L1450 1600H1250V1700" stroke="#080708"/>
<path d="M1500 1900L1450 1800H1250V1900" stroke="#080708"/>
<path d="M1375 400L1325 300H1125V400" stroke="#080708"/>
<path d="M1375 600L1325 500H1125V600" stroke="#080708"/>
<path d="M1375 800L1325 700H1125V800" stroke="#080708"/>
<path d="M1375 1000L1325 900H1125V1000" stroke="#080708"/>
<path d="M1375 1200L1325 1100H1125V1200" stroke="#080708"/>
<path d="M1375 1400L1325 1300H1125V1400" stroke="#080708"/>
<path d="M1375 1600L1325 1500H1125V1600" stroke="#080708"/>
<path d="M1375 1800L1325 1700H1125V1800" stroke="#080708"/>
<path d="M1375 2000L1325 1900H1125V2000" stroke="#080708"/>
<path d="M1750 300L1700 200H1500V300" stroke="#080708"/>
<path d="M1750 500L1700 400H1500V500" stroke="#080708"/>
<path d="M1750 700L1700 600H1500V700" stroke="#080708"/>
<path d="M1750 900L1700 800H1500V900" stroke="#080708"/>
<path d="M1750 1100L1700 1000H1500V1100" stroke="#080708"/>
<path d="M1750 1300L1700 1200H1500V1300" stroke="#080708"/>
<path d="M1750 1500L1700 1400H1500V1500" stroke="#080708"/>
<path d="M1750 1700L1700 1600H1500V1700" stroke="#080708"/>
<path d="M1750 1900L1700 1800H1500V1900" stroke="#080708"/>
<path d="M1625 400L1575 300H1375V400" stroke="#080708"/>
<path d="M1625 600L1575 500H1375V600" stroke="#080708"/>
<path d="M1625 800L1575 700H1375V800" stroke="#080708"/>
<path d="M1625 1000L1575 900H1375V1000" stroke="#080708"/>
<path d="M1625 1200L1575 1100H1375V1200" stroke="#080708"/>
<path d="M1625 1400L1575 1300H1375V1400" stroke="#080708"/>
<path d="M1625 1600L1575 1500H1375V1600" stroke="#080708"/>
<path d="M1625 1800L1575 1700H1375V1800" stroke="#080708"/>
<path d="M1625 2000L1575 1900H1375V2000" stroke="#080708"/>
<path d="M2000 300L1950 200H1750V300" stroke="#080708"/>
<path d="M2000 500L1950 400H1750V500" stroke="#080708"/>
<path d="M2000 700L1950 600H1750V700" stroke="#080708"/>
<path d="M2000 900L1950 800H1750V900" stroke="#080708"/>
<path d="M2000 1100L1950 1000H1750V1100" stroke="#080708"/>
<path d="M2000 1300L1950 1200H1750V1300" stroke="#080708"/>
<path d="M2000 1500L1950 1400H1750V1500" stroke="#080708"/>
<path d="M2000 1700L1950 1600H1750V1700" stroke="#080708"/>
<path d="M2000 1900L1950 1800H1750V1900" stroke="#080708"/>
<path d="M1875 400L1825 300H1625V400" stroke="#080708"/>
<path d="M1875 600L1825 500H1625V600" stroke="#080708"/>
<path d="M1875 800L1825 700H1625V800" stroke="#080708"/>
<path d="M1875 1000L1825 900H1625V1000" stroke="#080708"/>
<path d="M1875 1200L1825 1100H1625V1200" stroke="#080708"/>
<path d="M1875 1400L1825 1300H1625V1400" stroke="#080708"/>
<path d="M1875 1600L1825 1500H1625V1600" stroke="#080708"/>
<path d="M1875 1800L1825 1700H1625V1800" stroke="#080708"/>
<path d="M1875 2000L1825 1900H1625V2000" stroke="#080708"/>
<path d="M250 100L200 0L0 0L0 100" stroke="#080708"/>
<path d="M125 200L75 100H-125V200" stroke="#080708"/>
<path d="M500 100L450 0L250 0V100" stroke="#080708"/>
<path d="M375 200L325 100H125V200" stroke="#080708"/>
<path d="M750 100L700 0L500 0V100" stroke="#080708"/>
<path d="M625 200L575 100H375V200" stroke="#080708"/>
<path d="M1000 100L950 0L750 0V100" stroke="#080708"/>
<path d="M875 200L825 100H625V200" stroke="#080708"/>
<path d="M1250 100L1200 0L1000 0V100" stroke="#080708"/>
<path d="M1125 200L1075 100H875V200" stroke="#080708"/>
<path d="M1500 100L1450 0L1250 0V100" stroke="#080708"/>
<path d="M1375 200L1325 100H1125V200" stroke="#080708"/>
<path d="M1750 100L1700 0L1500 0V100" stroke="#080708"/>
<path d="M1625 200L1575 100H1375V200" stroke="#080708"/>
<path d="M2000 100L1950 0L1750 0V100" stroke="#080708"/>
<path d="M1875 200L1825 100H1625V200" stroke="#080708"/>
<path d="M2125 200L2075 100H1875V200" stroke="#080708"/>
<path d="M2125 400L2075 300H1875V400" stroke="#080708"/>
<path d="M2125 600L2075 500H1875V600" stroke="#080708"/>
<path d="M2125 800L2075 700H1875V800" stroke="#080708"/>
<path d="M2125 1000L2075 900H1875V1000" stroke="#080708"/>
<path d="M2125 1200L2075 1100H1875V1200" stroke="#080708"/>
<path d="M2125 1400L2075 1300H1875V1400" stroke="#080708"/>
<path d="M2125 1600L2075 1500H1875V1600" stroke="#080708"/>
<path d="M2125 1800L2075 1700H1875V1800" stroke="#080708"/>
<path d="M2125 2000L2075 1900H1875V2000" stroke="#080708"/>
</g>
<defs>
<clipPath id="clip0_325_9232">
<rect width="2000" height="2000" fill="white"/>
</clipPath>
</defs>
</svg>
