<svg width="880" height="415" viewBox="0 0 880 415" fill="none" xmlns="http://www.w3.org/2000/svg">
<g clip-path="url(#clip0_325_1735)">
<rect x="533" y="356.403" width="348" height="10" fill="#F5EEEB" stroke="#080708"/>
<path d="M533 356.403L545 344.403" stroke="#080708"/>
<rect x="91" y="116.403" width="180" height="300" fill="#F5EEEB" stroke="#080708"/>
<rect x="31" y="116.403" width="60" height="300" fill="#F5EEEB" stroke="#080708"/>
<rect x="83" y="116.403" width="8" height="100" fill="#F5EEEB" stroke="#080708"/>
<rect x="83" y="316.403" width="8" height="100" fill="#F5EEEB" stroke="#080708"/>
<rect x="91" y="216.403" width="180" height="100" fill="#F5EEEB" stroke="#080708"/>
<rect x="83" y="216.403" width="188" height="100" fill="#080708" stroke="#080708"/>
<path d="M166 166.403C166 163.641 168.239 161.403 171 161.403H181V171.403H171C168.239 171.403 166 169.164 166 166.403V166.403Z" fill="#080708" stroke="#080708"/>
<rect x="176" y="161.403" width="30" height="10" rx="5" fill="#F5EEEB" stroke="#080708"/>
<path d="M166 366.403C166 363.641 168.239 361.403 171 361.403H181V371.403H171C168.239 371.403 166 369.164 166 366.403V366.403Z" fill="#080708" stroke="#080708"/>
<rect x="176" y="361.403" width="30" height="10" rx="5" fill="#F5EEEB" stroke="#080708"/>
<rect x="126" y="206.403" width="80" height="60" fill="#F5EEEB" stroke="#080708"/>
<rect x="126" y="204.736" width="80" height="61.6667" fill="#F5EEEB" stroke="#080708"/>
<path fill-rule="evenodd" clip-rule="evenodd" d="M126 186.403H147.333L150.381 193.069H206V206.403H126V186.403ZM202.667 196.403H129.333V204.736H202.667V196.403Z" fill="#080708" stroke="#080708"/>
<rect x="129.333" y="196.403" width="73.3333" height="8.33333" fill="#F5EEEB"/>
<rect x="166" y="206.403" width="80" height="60" fill="#F5EEEB" stroke="#080708"/>
<rect x="166" y="204.736" width="80" height="61.6667" fill="#F5EEEB" stroke="#080708"/>
<path fill-rule="evenodd" clip-rule="evenodd" d="M166 186.403H187.333L190.381 193.069H246V206.403H166V186.403ZM242.667 196.403H169.333V204.736H242.667V196.403Z" fill="#080708" stroke="#080708"/>
<rect x="169.333" y="196.403" width="73.3333" height="8.33333" fill="#F5EEEB"/>
<rect x="206" y="206.403" width="80" height="60" fill="#F5EEEB" stroke="#080708"/>
<rect x="206" y="204.736" width="80" height="61.6667" fill="#F5EEEB" stroke="#080708"/>
<path fill-rule="evenodd" clip-rule="evenodd" d="M206 186.403H227.333L230.381 193.069H286V206.403H206V186.403ZM282.667 196.403H209.333V204.736H282.667V196.403Z" fill="#080708" stroke="#080708"/>
<rect x="209.333" y="196.403" width="73.3333" height="8.33333" fill="#F5EEEB"/>
<rect x="83" y="236.403" width="253" height="80" fill="#F5EEEB" stroke="#080708"/>
<path d="M246 141.403H268.716L274.395 152.831H246V141.403Z" fill="#080708" stroke="#080708"/>
<rect width="79.5062" height="72.8571" transform="matrix(1 0 0 -1 246 221.403)" fill="#080708" stroke="#080708"/>
<rect width="62.4952" height="40.3782" transform="matrix(0.965523 0.260318 -0.257328 0.966324 281.946 138.545)" fill="#F5EEEB" stroke="#080708"/>
<rect width="21.8354" height="20.9459" transform="matrix(0.965523 -0.260318 0.257328 0.966324 263.037 151.373)" fill="#359D72" stroke="#080708"/>
<ellipse cx="12.2554" cy="12.3213" rx="12.2554" ry="12.3213" transform="matrix(0.965523 0.260318 -0.257328 0.966324 307.119 134.55)" fill="#359D72" stroke="#080708"/>
<path d="M264.457 175.688H343.963L326.926 221.403H247.42L264.457 175.688Z" fill="#F5EEEB" stroke="#080708"/>
<ellipse cx="285.167" cy="200.569" rx="4.16667" ry="2.5" fill="#080708"/>
<ellipse cx="316.833" cy="200.569" rx="4.16667" ry="2.5" fill="#080708"/>
<path d="M311 204.736C311 208.418 306.523 211.403 301 211.403C295.477 211.403 291 208.418 291 204.736" stroke="#080708"/>
<path d="M351.365 120.076L345.001 143.976L327.612 126.48L351.365 120.076Z" fill="#359D72" stroke="#080708"/>
<rect x="186" y="216.403" width="180" height="100" fill="#F5EEEB" stroke="#080708"/>
<rect x="545" y="18.4023" width="336" height="326" fill="#F5EEEB" stroke="#080708"/>
<rect width="21.4663" height="20.5917" transform="matrix(0.965523 -0.260318 0.257328 0.966324 577 257.991)" fill="#080708" stroke="#080708"/>
<path d="M489.62 124.865L487.835 145.628L470.846 133.654L489.62 124.865Z" fill="#080708" stroke="#080708"/>
<path d="M429.336 45.72L423.303 68.3757L406.82 51.7906L429.336 45.72Z" fill="#080708" stroke="#080708"/>
<path d="M520.764 78.7546L526.641 100.553L504.91 94.6581L520.764 78.7546Z" fill="#080708" stroke="#080708"/>
<ellipse cx="14.4225" cy="14.5" rx="14.4225" ry="14.5" transform="matrix(0.965523 0.260318 -0.257328 0.966324 621.834 16.2236)" fill="#080708" stroke="#080708"/>
<path d="M757.591 8.42913L757.618 25.796L742.645 17.0893L757.591 8.42913Z" fill="#080708" stroke="#080708"/>
<path d="M837.971 5.09327L828.927 20.9276L819.834 5.17757L837.971 5.09327Z" fill="#080708" stroke="#080708"/>
<ellipse cx="12.4331" cy="12.5" rx="12.4331" ry="12.5" transform="matrix(0.865248 0.501344 -0.498662 0.866796 562.467 62.4023)" fill="#080708" stroke="#080708"/>
<rect width="28.1467" height="27" transform="matrix(0.707107 -0.707107 0.704914 0.709293 517 48.3052)" fill="#080708" stroke="#080708"/>
<rect width="30.2316" height="29" transform="matrix(0.965926 -0.258819 0.255827 0.966723 609.92 161.253)" fill="#080708" stroke="#080708"/>
<rect width="21.8919" height="21" transform="matrix(0.996329 0.0856094 -0.0886936 0.996059 717.26 36.8877)" fill="#080708" stroke="#080708"/>
<path d="M864.453 60.2134L864.484 80.1853L847.265 70.1727L864.453 60.2134Z" fill="#080708" stroke="#080708"/>
<rect width="23.9768" height="23" transform="matrix(0.965523 -0.260318 0.257328 0.966324 379.929 112.575)" fill="#080708" stroke="#080708"/>
<path d="M481.19 62.5746L474.933 86.0695L457.84 68.8701L481.19 62.5746Z" fill="#080708" stroke="#080708"/>
<ellipse cx="14.9198" cy="15" rx="14.9198" ry="15" transform="matrix(0.939161 0.343478 -0.340569 0.94022 640.684 90.2266)" fill="#080708" stroke="#080708"/>
<ellipse cx="14.9198" cy="15" rx="14.9198" ry="15" transform="matrix(0.996329 -0.0856094 0.0886936 0.996059 771.035 126.597)" fill="#080708" stroke="#080708"/>
<rect width="20.8494" height="20" transform="matrix(0.984537 -0.175177 0.172128 0.985075 732.18 98.9492)" fill="#080708" stroke="#080708"/>
<rect width="30.2316" height="29" transform="matrix(0.965523 -0.260318 0.257328 0.966324 773.802 73.5752)" fill="#080708" stroke="#080708"/>
<rect width="28.1467" height="27" transform="matrix(0.996058 -0.0887019 0.0856177 0.996328 424.31 111.872)" fill="#080708" stroke="#080708"/>
<ellipse cx="13.4278" cy="13.5" rx="13.4278" ry="13.5" transform="matrix(0.905651 0.424024 -0.421219 0.906959 531.373 128.403)" fill="#080708" stroke="#080708"/>
<path d="M591.06 160.376L586.725 185.182L567.536 168.979L591.06 160.376Z" fill="#080708" stroke="#080708"/>
<ellipse cx="10.4438" cy="10.5" rx="10.4438" ry="10.5" transform="matrix(0.965523 0.260318 -0.257328 0.966324 695.812 128.024)" fill="#080708" stroke="#080708"/>
<path d="M817.381 168.917L818.921 186.215L803.246 178.847L817.381 168.917Z" fill="#080708" stroke="#080708"/>
<ellipse cx="11.4385" cy="11.5" rx="11.4385" ry="11.5" transform="matrix(0.985076 -0.172119 0.175168 0.984538 428.589 162.299)" fill="#080708" stroke="#080708"/>
<path d="M483.394 213.265L472.421 236.891L457.585 215.563L483.394 213.265Z" fill="#080708" stroke="#080708"/>
<ellipse cx="10.9412" cy="11" rx="10.9412" ry="11" transform="matrix(0.865248 0.501344 -0.498662 0.866796 638.517 213.396)" fill="#080708" stroke="#080708"/>
<ellipse cx="12.4331" cy="12.5" rx="12.4331" ry="12.5" transform="matrix(0.939161 0.343478 -0.340569 0.94022 770.512 239.527)" fill="#080708" stroke="#080708"/>
<path d="M684.979 206.273L685.02 232.323L662.56 219.263L684.979 206.273Z" fill="#080708" stroke="#080708"/>
<path d="M551.716 209.974L557.432 230.916L536.519 225.313L551.716 209.974Z" fill="#080708" stroke="#080708"/>
<ellipse cx="11.9358" cy="12" rx="11.9358" ry="12" transform="matrix(0.965523 0.260318 -0.257328 0.966324 836.319 179.124)" fill="#080708" stroke="#080708"/>
<rect x="176" y="216.403" width="10" height="100" fill="#F5EEEB" stroke="#080708"/>
<path d="M261 266.403C261 263.641 263.239 261.403 266 261.403H276V271.403H266C263.239 271.403 261 269.164 261 266.403V266.403Z" fill="#080708" stroke="#080708"/>
<rect x="271" y="261.403" width="30" height="10" rx="5" fill="#F5EEEB" stroke="#080708"/>
<rect width="21.4663" height="20.5917" transform="matrix(0.965523 -0.260318 0.257328 0.966324 577 253.991)" fill="#359D72" stroke="#080708"/>
<path d="M489.62 120.865L487.835 141.628L470.846 129.654L489.62 120.865Z" fill="#359D72" stroke="#080708"/>
<path d="M429.336 41.72L423.303 64.3757L406.82 47.7906L429.336 41.72Z" fill="#359D72" stroke="#080708"/>
<path d="M520.764 74.7546L526.641 96.5532L504.91 90.6581L520.764 74.7546Z" fill="#359D72" stroke="#080708"/>
<ellipse cx="14.4225" cy="14.5" rx="14.4225" ry="14.5" transform="matrix(0.965523 0.260318 -0.257328 0.966324 621.834 12.2236)" fill="#359D72" stroke="#080708"/>
<path d="M757.591 4.42913L757.618 21.796L742.645 13.0893L757.591 4.42913Z" fill="#359D72" stroke="#080708"/>
<path d="M837.971 1.09327L828.927 16.9276L819.833 1.17757L837.971 1.09327Z" fill="#359D72" stroke="#080708"/>
<ellipse cx="12.4331" cy="12.5" rx="12.4331" ry="12.5" transform="matrix(0.865248 0.501344 -0.498662 0.866796 562.467 58.4023)" fill="#359D72" stroke="#080708"/>
<rect width="28.1467" height="27" transform="matrix(0.707107 -0.707107 0.704914 0.709293 517 44.3052)" fill="#359D72" stroke="#080708"/>
<rect width="30.2316" height="29" transform="matrix(0.965926 -0.258819 0.255827 0.966723 609.92 157.253)" fill="#359D72" stroke="#080708"/>
<rect width="21.8919" height="21" transform="matrix(0.996329 0.0856094 -0.0886936 0.996059 717.26 32.8877)" fill="#359D72" stroke="#080708"/>
<path d="M864.453 56.2134L864.484 76.1853L847.265 66.1727L864.453 56.2134Z" fill="#359D72" stroke="#080708"/>
<rect width="23.9768" height="23" transform="matrix(0.965523 -0.260318 0.257328 0.966324 379.929 108.575)" fill="#359D72" stroke="#080708"/>
<path d="M481.19 58.5746L474.933 82.0695L457.84 64.8701L481.19 58.5746Z" fill="#359D72" stroke="#080708"/>
<ellipse cx="14.9198" cy="15" rx="14.9198" ry="15" transform="matrix(0.939161 0.343478 -0.340569 0.94022 640.684 86.2266)" fill="#359D72" stroke="#080708"/>
<ellipse cx="14.9198" cy="15" rx="14.9198" ry="15" transform="matrix(0.996329 -0.0856094 0.0886936 0.996059 771.035 122.597)" fill="#359D72" stroke="#080708"/>
<rect width="20.8494" height="20" transform="matrix(0.984537 -0.175177 0.172128 0.985075 732.18 94.9492)" fill="#359D72" stroke="#080708"/>
<rect width="30.2316" height="29" transform="matrix(0.965523 -0.260318 0.257328 0.966324 773.802 69.5752)" fill="#359D72" stroke="#080708"/>
<rect width="28.1467" height="27" transform="matrix(0.996058 -0.0887019 0.0856177 0.996328 424.31 107.872)" fill="#359D72" stroke="#080708"/>
<ellipse cx="13.4278" cy="13.5" rx="13.4278" ry="13.5" transform="matrix(0.905651 0.424024 -0.421219 0.906959 531.373 124.403)" fill="#359D72" stroke="#080708"/>
<path d="M591.06 156.376L586.725 181.182L567.536 164.979L591.06 156.376Z" fill="#359D72" stroke="#080708"/>
<ellipse cx="10.4438" cy="10.5" rx="10.4438" ry="10.5" transform="matrix(0.965523 0.260318 -0.257328 0.966324 695.812 124.024)" fill="#359D72" stroke="#080708"/>
<path d="M817.381 164.917L818.921 182.215L803.246 174.847L817.381 164.917Z" fill="#359D72" stroke="#080708"/>
<ellipse cx="11.4385" cy="11.5" rx="11.4385" ry="11.5" transform="matrix(0.985076 -0.172119 0.175168 0.984538 428.589 158.299)" fill="#359D72" stroke="#080708"/>
<path d="M483.394 209.265L472.421 232.891L457.585 211.563L483.394 209.265Z" fill="#359D72" stroke="#080708"/>
<ellipse cx="10.9412" cy="11" rx="10.9412" ry="11" transform="matrix(0.865248 0.501344 -0.498662 0.866796 638.517 209.396)" fill="#359D72" stroke="#080708"/>
<ellipse cx="12.4331" cy="12.5" rx="12.4331" ry="12.5" transform="matrix(0.939161 0.343478 -0.340569 0.94022 770.512 235.527)" fill="#359D72" stroke="#080708"/>
<path d="M684.979 202.273L685.02 228.323L662.56 215.263L684.979 202.273Z" fill="#359D72" stroke="#080708"/>
<path d="M551.716 205.974L557.432 226.916L536.519 221.313L551.716 205.974Z" fill="#359D72" stroke="#080708"/>
<ellipse cx="11.9358" cy="12" rx="11.9358" ry="12" transform="matrix(0.965523 0.260318 -0.257328 0.966324 836.319 175.124)" fill="#359D72" stroke="#080708"/>
<circle cx="3" cy="3" r="3" transform="matrix(1 0 0.00309595 0.999995 574 340.403)" fill="#080708" stroke="#080708"/>
<rect x="577" y="338.403" width="15" height="10" fill="#080708" stroke="#080708"/>
<rect x="592" y="338.403" width="35" height="10" fill="#F5EEEB" stroke="#080708"/>
<rect x="597" y="343.403" width="25" height="4" fill="#080708"/>
<path d="M699 332.403C699 330.193 700.791 328.403 703 328.403H755C757.209 328.403 759 330.193 759 332.403V345.403H699V332.403Z" fill="#080708" stroke="#080708"/>
<rect x="697" y="344.403" width="64" height="6" rx="3" fill="#F5EEEB" stroke="#080708"/>
<circle cx="3" cy="3" r="3" transform="matrix(0.965926 0.258819 -0.255827 0.966722 617.071 327.334)" fill="#080708" stroke="#080708"/>
<rect x="620.486" y="326.179" width="15" height="10" transform="rotate(15 620.486 326.179)" fill="#080708" stroke="#080708"/>
<rect x="634.975" y="330.061" width="35" height="10" transform="rotate(15 634.975 330.061)" fill="#F5EEEB" stroke="#080708"/>
<rect x="639.546" y="332.322" width="25" height="4" transform="rotate(15 639.546 332.322)" fill="#080708"/>
<path d="M737 332.403C737 331.298 737.895 330.403 739 330.403H755C756.105 330.403 757 331.298 757 332.403V345.403H737V332.403Z" fill="#080708" stroke="#F5EEEB"/>
<rect x="733" y="344.403" width="28" height="6" rx="3" fill="#F5EEEB" stroke="#080708"/>
<rect x="823" y="303.167" width="30" height="30" transform="rotate(-15 823 303.167)" fill="#F5EEEB" stroke="#080708"/>
<path d="M830.418 311.532L849.736 306.356" stroke="#080708"/>
<path d="M831.712 316.362L851.03 311.186" stroke="#080708"/>
<path d="M833.006 321.192L842.665 318.603" stroke="#080708"/>
<rect x="845.136" y="276.403" width="30" height="30" transform="rotate(15 845.136 276.403)" fill="#F5EEEB" stroke="#080708"/>
<rect x="798" y="263.612" width="30" height="30" transform="rotate(-10 798 263.612)" fill="#F5EEEB" stroke="#080708"/>
<path d="M804.66 272.592L824.357 269.119" stroke="#080708"/>
<path d="M805.529 277.516L825.225 274.043" stroke="#080708"/>
<path d="M806.397 282.44L816.245 280.703" stroke="#080708"/>
<rect x="837" y="277.403" width="30" height="30" transform="rotate(-30 837 277.403)" fill="#F5EEEB" stroke="#080708"/>
<path d="M846.33 283.563L863.651 273.563" stroke="#080708"/>
<path d="M848.83 287.893L866.151 277.893" stroke="#080708"/>
<path d="M851.33 292.223L859.99 287.223" stroke="#080708"/>
<path d="M71.5882 75.8355C70.1588 70.5009 73.3246 65.0175 78.6593 63.5881V63.5881C83.9939 62.1587 89.4773 65.3245 90.9067 70.6591L94.789 85.148L75.4705 90.3244L71.5882 75.8355Z" fill="#F5EEEB" stroke="#080708"/>
<rect x="69" y="86" width="56" height="10" rx="2" fill="#F5EEEB" stroke="#080708"/>
<path d="M74 96H120L116 116H78L74 96Z" fill="#F5EEEB" stroke="#080708"/>
<path d="M87 61C87 55.4772 91.4772 51 97 51V51C102.523 51 107 55.4772 107 61V86H87V61Z" fill="#F5EEEB" stroke="#080708"/>
<path d="M99 71C99 65.4772 103.477 61 109 61V61C114.523 61 119 65.4772 119 71V86H99V71Z" fill="#F5EEEB" stroke="#080708"/>
<path d="M117 76.5L122.5 74" stroke="#080708"/>
<path d="M101.5 70.5L96.5 66.5M113 64.5L117 60M101.5 78.5L96.5 77M117 82H121M94 54.5L90 50M103 53.5L106 51M89 62L85 59M94 60L96.5 58M73.5 70.5L70 67.5M80.5 64.5V60M74.5 78.5L70 82M80.5 77L84 74M94 73L92 70.5M109.5 74L113 71.5" stroke="#080708"/>
<path d="M120 96H74L75 101H119L120 96Z" fill="#080708" stroke="#080708"/>
</g>
<defs>
<clipPath id="clip0_325_1735">
<rect width="880" height="415" fill="white"/>
</clipPath>
</defs>
</svg>
