<svg width="1802" height="101" viewBox="0 0 1802 101" fill="none" xmlns="http://www.w3.org/2000/svg">
<g clip-path="url(#clip0_366_2558)">
<path d="M201 101C201 45.7715 156.228 1 101 1C45.7715 1 1 45.7715 1 101" stroke="#359D72"/>
<path d="M401 101V1H201V101" stroke="#359D72"/>
<path d="M601 101L501 1L401 101" stroke="#359D72"/>
<path d="M801 101C801 45.7715 756.228 1 701 1C645.772 1 601 45.7715 601 101" stroke="#359D72"/>
<path d="M1001 101V1H801V101" stroke="#359D72"/>
<path d="M1201 101L1101 1L1001 101" stroke="#359D72"/>
<path d="M1401 101C1401 45.7715 1356.23 1 1301 1C1245.77 1 1201 45.7715 1201 101" stroke="#359D72"/>
<path d="M1601 101V1H1401V101" stroke="#359D72"/>
<path d="M1801 101L1701 1L1601 101" stroke="#359D72"/>
</g>
<defs>
<clipPath id="clip0_366_2558">
<rect width="1802" height="101" fill="white"/>
</clipPath>
</defs>
</svg>
