<svg width="880" height="445" viewBox="0 0 880 445" fill="none" xmlns="http://www.w3.org/2000/svg">
<g clip-path="url(#clip0_589_17912)">
<rect x="641.259" y="48.6527" width="85.431" height="64.0733" transform="rotate(-10 641.259 48.6527)" fill="#F5EEEB" stroke="#080708"/>
<rect x="640.949" y="46.8999" width="85.431" height="65.8531" transform="rotate(-10 640.949 46.8999)" fill="#F5EEEB" stroke="#080708"/>
<path fill-rule="evenodd" clip-rule="evenodd" d="M637.55 27.6194L659.985 23.6634L664.427 30.1094L722.919 19.7955L725.392 33.8177L641.259 48.6527L637.55 27.6194Z" fill="#080708" stroke="#080708"/>
<rect x="645.034" y="39.3121" width="74.7522" height="8.54311" transform="rotate(-10 645.034 39.3121)" fill="#F5EEEB" stroke="#080708"/>
<rect x="659.802" y="153.819" width="85.431" height="64.0733" transform="rotate(-10 659.802 153.819)" fill="#F5EEEB" stroke="#080708"/>
<rect x="659.492" y="152.066" width="85.431" height="65.8531" transform="rotate(-10 659.492 152.066)" fill="#F5EEEB" stroke="#080708"/>
<path fill-rule="evenodd" clip-rule="evenodd" d="M656.093 132.786L678.528 128.83L682.97 135.276L741.462 124.962L743.935 138.984L659.802 153.819L656.093 132.786Z" fill="#080708" stroke="#080708"/>
<rect x="663.577" y="144.479" width="74.7522" height="8.54311" transform="rotate(-10 663.577 144.479)" fill="#F5EEEB" stroke="#080708"/>
<rect x="678.346" y="258.986" width="85.431" height="64.0733" transform="rotate(-10 678.346 258.986)" fill="#F5EEEB" stroke="#080708"/>
<rect x="678.036" y="257.233" width="85.431" height="65.8531" transform="rotate(-10 678.036 257.233)" fill="#F5EEEB" stroke="#080708"/>
<path fill-rule="evenodd" clip-rule="evenodd" d="M674.637 237.952L697.072 233.996L701.514 240.442L760.006 230.128L762.479 244.151L678.345 258.986L674.637 237.952Z" fill="#080708" stroke="#080708"/>
<rect x="682.121" y="249.645" width="74.7522" height="8.54311" transform="rotate(-10 682.121 249.645)" fill="#F5EEEB" stroke="#080708"/>
<rect x="783.513" y="240.442" width="85.431" height="64.0733" transform="rotate(-10 783.513 240.442)" fill="#F5EEEB" stroke="#080708"/>
<rect x="783.203" y="238.689" width="85.431" height="65.8531" transform="rotate(-10 783.203 238.689)" fill="#F5EEEB" stroke="#080708"/>
<path fill-rule="evenodd" clip-rule="evenodd" d="M779.804 219.409L802.239 215.453L806.681 221.899L865.173 211.585L867.646 225.607L783.512 240.442L779.804 219.409Z" fill="#080708" stroke="#080708"/>
<rect x="787.288" y="231.101" width="74.7522" height="8.54311" transform="rotate(-10 787.288 231.101)" fill="#F5EEEB" stroke="#080708"/>
<rect x="746.425" y="30.109" width="85.431" height="64.0733" transform="rotate(-10 746.425 30.109)" fill="#F5EEEB" stroke="#080708"/>
<rect x="746.115" y="28.3562" width="85.431" height="65.8531" transform="rotate(-10 746.115 28.3562)" fill="#F5EEEB" stroke="#080708"/>
<path fill-rule="evenodd" clip-rule="evenodd" d="M742.716 9.07568L765.151 5.1197L769.593 11.5657L828.085 1.25183L830.558 15.274L746.425 30.109L742.716 9.07568Z" fill="#080708" stroke="#080708"/>
<rect x="750.2" y="20.7684" width="74.7522" height="8.54311" transform="rotate(-10 750.2 20.7684)" fill="#F5EEEB" stroke="#080708"/>
<path d="M761.26 114.242L785.149 110.03L793.241 120.996L763.379 126.261L761.26 114.242Z" fill="#080708" stroke="#080708"/>
<rect width="84.9037" height="77.8033" transform="matrix(0.984808 -0.173648 -0.173648 -0.984808 776.095 198.375)" fill="#080708" stroke="#080708"/>
<rect width="66.7379" height="43.1194" transform="matrix(0.996058 0.0887019 -0.0856177 0.996328 798.533 104.572)" fill="#F5EEEB" stroke="#080708"/>
<rect width="23.3178" height="22.3678" transform="matrix(0.905651 -0.424024 0.421219 0.906959 781.025 121.568)" fill="#359D72" stroke="#080708"/>
<ellipse cx="13.0874" cy="13.1578" rx="13.0874" ry="13.1578" transform="matrix(0.996058 0.0887018 -0.0856177 0.996328 824.266 95.7018)" fill="#359D72" stroke="#080708"/>
<path d="M787.028 146.877L870.641 132.133L861.201 183.369L777.587 198.112L787.028 146.877Z" fill="#F5EEEB" stroke="#080708"/>
<path d="M868.114 72.2747L865.852 98.5902L844.321 83.4144L868.114 72.2747Z" fill="#359D72" stroke="#080708"/>
<rect x="536.093" y="67.1964" width="85.431" height="64.0733" transform="rotate(-10 536.093 67.1964)" fill="#F5EEEB" stroke="#080708"/>
<rect x="535.783" y="65.4436" width="85.431" height="65.8531" transform="rotate(-10 535.783 65.4436)" fill="#F5EEEB" stroke="#080708"/>
<path fill-rule="evenodd" clip-rule="evenodd" d="M532.384 46.1631L554.819 42.2071L559.261 48.6531L617.753 38.3392L620.226 52.3614L536.093 67.1964L532.384 46.1631Z" fill="#080708" stroke="#080708"/>
<rect x="539.868" y="57.8558" width="74.7522" height="8.54311" transform="rotate(-10 539.868 57.8558)" fill="#F5EEEB" stroke="#080708"/>
<rect x="554.637" y="172.363" width="85.431" height="64.0733" transform="rotate(-10 554.637 172.363)" fill="#F5EEEB" stroke="#080708"/>
<rect x="554.327" y="170.61" width="85.431" height="65.8531" transform="rotate(-10 554.327 170.61)" fill="#F5EEEB" stroke="#080708"/>
<path fill-rule="evenodd" clip-rule="evenodd" d="M550.928 151.33L573.363 147.374L577.805 153.819L636.297 143.506L638.77 157.528L554.636 172.363L550.928 151.33Z" fill="#080708" stroke="#080708"/>
<rect x="558.412" y="163.022" width="74.7522" height="8.54311" transform="rotate(-10 558.412 163.022)" fill="#F5EEEB" stroke="#080708"/>
<rect x="573.18" y="277.529" width="85.431" height="64.0733" transform="rotate(-10 573.18 277.529)" fill="#F5EEEB" stroke="#080708"/>
<rect x="572.87" y="275.776" width="85.431" height="65.8531" transform="rotate(-10 572.87 275.776)" fill="#F5EEEB" stroke="#080708"/>
<path fill-rule="evenodd" clip-rule="evenodd" d="M569.471 256.496L591.906 252.54L596.348 258.986L654.84 248.672L657.313 262.694L573.179 277.529L569.471 256.496Z" fill="#080708" stroke="#080708"/>
<rect x="576.955" y="268.189" width="74.7522" height="8.54311" transform="rotate(-10 576.955 268.189)" fill="#F5EEEB" stroke="#080708"/>
<rect x="67.7969" y="117.239" width="192.22" height="320.366" transform="rotate(-10 67.7969 117.239)" fill="#F5EEEB" stroke="#359D72"/>
<rect x="4.69727" y="128.365" width="64.0733" height="320.366" transform="rotate(-10 4.69727 128.365)" fill="#F5EEEB" stroke="#359D72"/>
<rect x="59.3838" y="118.722" width="8.5431" height="106.789" transform="rotate(-10 59.3838 118.722)" fill="#F5EEEB" stroke="#359D72"/>
<rect x="96.4707" y="329.055" width="8.5431" height="106.789" transform="rotate(-10 96.4707 329.055)" fill="#F5EEEB" stroke="#359D72"/>
<rect x="86.3408" y="222.405" width="192.22" height="106.789" transform="rotate(-10 86.3408 222.405)" fill="#F5EEEB" stroke="#359D72"/>
<rect x="77.9268" y="223.888" width="200.763" height="106.789" transform="rotate(-10 77.9268 223.888)" fill="#359D72" stroke="#359D72"/>
<path d="M155.884 155.58C155.404 152.86 157.22 150.267 159.94 149.788L169.788 148.051L171.524 157.899L161.676 159.636C158.957 160.115 156.363 158.299 155.884 155.58V155.58Z" fill="#359D72" stroke="#359D72"/>
<rect x="164.863" y="148.919" width="30" height="10" rx="5" transform="rotate(-10 164.863 148.919)" fill="#F5EEEB" stroke="#359D72"/>
<path d="M192.972 365.913C192.492 363.193 194.308 360.6 197.028 360.12L206.876 358.384L208.612 368.232L198.764 369.968C196.045 370.448 193.451 368.632 192.972 365.913V365.913Z" fill="#359D72" stroke="#359D72"/>
<rect x="201.951" y="359.252" width="30" height="10" rx="5" transform="rotate(-10 201.951 359.252)" fill="#F5EEEB" stroke="#359D72"/>
<rect x="125.809" y="218.699" width="85.431" height="64.0733" transform="rotate(-10 125.809 218.699)" fill="#F5EEEB" stroke="#359D72"/>
<rect x="125.499" y="216.946" width="85.431" height="65.8531" transform="rotate(-10 125.499 216.946)" fill="#F5EEEB" stroke="#359D72"/>
<path fill-rule="evenodd" clip-rule="evenodd" d="M122.1 197.666L144.535 193.71L148.976 200.156L207.469 189.842L209.942 203.864L125.808 218.699L122.1 197.666Z" fill="#359D72" stroke="#359D72"/>
<rect x="129.584" y="209.358" width="74.7522" height="8.54311" transform="rotate(-10 129.584 209.358)" fill="#F5EEEB" stroke="#359D72"/>
<rect x="162.616" y="212.209" width="85.431" height="64.0733" transform="rotate(-10 162.616 212.209)" fill="#F5EEEB" stroke="#359D72"/>
<rect x="162.307" y="210.456" width="85.431" height="65.8531" transform="rotate(-10 162.307 210.456)" fill="#F5EEEB" stroke="#359D72"/>
<path fill-rule="evenodd" clip-rule="evenodd" d="M158.907 191.175L181.343 187.219L185.784 193.665L244.277 183.351L246.749 197.374L162.616 212.209L158.907 191.175Z" fill="#359D72" stroke="#359D72"/>
<rect x="166.392" y="202.868" width="74.7522" height="8.54311" transform="rotate(-10 166.392 202.868)" fill="#F5EEEB" stroke="#359D72"/>
<rect x="199.425" y="205.718" width="85.431" height="64.0733" transform="rotate(-10 199.425 205.718)" fill="#F5EEEB" stroke="#359D72"/>
<rect x="199.115" y="203.966" width="85.431" height="65.8531" transform="rotate(-10 199.115 203.966)" fill="#F5EEEB" stroke="#359D72"/>
<path fill-rule="evenodd" clip-rule="evenodd" d="M195.716 184.685L218.151 180.729L222.593 187.175L281.085 176.861L283.558 190.883L199.425 205.718L195.716 184.685Z" fill="#359D72" stroke="#359D72"/>
<rect x="203.2" y="196.378" width="74.7522" height="8.54311" transform="rotate(-10 203.2 196.378)" fill="#F5EEEB" stroke="#359D72"/>
<rect x="236.232" y="199.228" width="85.431" height="64.0733" transform="rotate(-10 236.232 199.228)" fill="#F5EEEB" stroke="#359D72"/>
<rect x="235.923" y="197.475" width="85.431" height="65.8531" transform="rotate(-10 235.923 197.475)" fill="#F5EEEB" stroke="#359D72"/>
<path fill-rule="evenodd" clip-rule="evenodd" d="M232.523 178.195L254.959 174.239L259.4 180.685L317.893 170.371L320.365 184.393L236.232 199.228L232.523 178.195Z" fill="#359D72" stroke="#359D72"/>
<rect x="240.008" y="189.887" width="74.7522" height="8.54311" transform="rotate(-10 240.008 189.887)" fill="#F5EEEB" stroke="#359D72"/>
<rect x="83.4902" y="255.438" width="99.3136" height="74.7522" transform="rotate(-10 83.4902 255.438)" fill="#F5EEEB" stroke="#359D72"/>
<rect x="189.288" y="225.94" width="150" height="80" transform="rotate(-10 189.288 225.94)" fill="#F5EEEB" stroke="#359D72"/>
<rect x="179.44" y="227.676" width="10" height="80" transform="rotate(-10 179.44 227.676)" fill="#F5EEEB" stroke="#359D72"/>
<path d="M268.358 242.46C267.879 239.741 269.695 237.148 272.414 236.668L282.262 234.932L283.999 244.78L274.151 246.516C271.431 246.996 268.838 245.18 268.358 242.46V242.46Z" fill="#359D72" stroke="#359D72"/>
<rect x="277.338" y="235.8" width="30" height="10" rx="5" transform="rotate(-10 277.338 235.8)" fill="#F5EEEB" stroke="#359D72"/>
<path d="M9.14355 63.3874C9.14355 57.8646 13.6207 53.3874 19.1436 53.3874H20.5013C26.0242 53.3874 30.5013 57.8646 30.5013 63.3874L30.5013 80.0846H9.14355L9.14355 63.3874Z" fill="#F5EEEB" stroke="#359D72"/>
<rect x="3.66406" y="73.8354" width="59.8017" height="10.6789" rx="2" transform="rotate(15 3.66406 73.8354)" fill="#F5EEEB" stroke="#359D72"/>
<path d="M6.05762 85.5324L53.5066 98.2463L43.8528 117.771L4.65582 107.268L6.05762 85.5324Z" fill="#F5EEEB" stroke="#359D72"/>
<path d="M29.3171 52.3672C30.7465 47.0325 36.2299 43.8667 41.5645 45.2961L42.876 45.6475C48.2107 47.077 51.3765 52.5603 49.9471 57.895L42.8616 84.3383L22.2316 78.8105L29.3171 52.3672Z" fill="#F5EEEB" stroke="#359D72"/>
<path d="M38.9304 65.9987C40.3598 60.6641 45.8432 57.4983 51.1778 58.9277L52.4893 59.2791C57.824 60.7085 60.9898 66.1919 59.5604 71.5265L55.2388 87.6548L34.6088 82.127L38.9304 65.9987Z" fill="#F5EEEB" stroke="#359D72"/>
<path d="M55.8022 77.3029L62.1665 76.2443" stroke="#359D72"/>
<path d="M41.4718 66.8296L37.4198 61.3217M54.9924 63.8191L60.3621 60.2829M39.2607 75.0816L34.5177 72.1524M54.2816 82.9759L58.4076 84.0815M38.1578 48.2527L35.2755 42.5054M47.7177 49.7087L51.5031 47.9591M30.9273 54.607L27.6305 50.407M36.6376 53.926L39.7691 52.5539M12.5898 59.0907L9.80869 55.0289M21.4686 54.8364L22.7124 50.1947M11.4102 67.6191L5.80104 69.9856M18.0137 67.7302L22.4532 65.6031M33.0446 67.3355L31.6725 64.2039M48.7564 72.651L53.0576 71.0396" stroke="#359D72"/>
<path d="M53.5066 98.2463L6.05762 85.5324L5.70717 90.9663L51.0932 103.127L53.5066 98.2463Z" fill="#359D72" stroke="#359D72"/>
<circle cx="384.82" cy="223.993" r="4.83944" transform="rotate(-10 384.82 223.993)" fill="#359D72" stroke="#359D72"/>
<path d="M384.82 223.993L526.795 198.959" stroke="#359D72" stroke-linecap="square"/>
<path d="M429.376 107.701L508.251 93.7927" stroke="#359D72" stroke-linecap="square"/>
<path d="M466.463 318.033L545.338 304.126" stroke="#359D72" stroke-linecap="square"/>
<path d="M429.376 107.701L466.463 318.033" stroke="#359D72" stroke-linecap="square"/>
<path d="M507.323 88.5344L509.178 99.0511" stroke="#359D72"/>
<path d="M525.867 193.701L527.722 204.218" stroke="#359D72"/>
<path d="M544.411 298.867L546.266 309.384" stroke="#359D72"/>
</g>
<defs>
<clipPath id="clip0_589_17912">
<rect width="880" height="445" fill="white"/>
</clipPath>
</defs>
</svg>
