<svg width="880" height="435" viewBox="0 0 880 435" fill="none" xmlns="http://www.w3.org/2000/svg">
<rect x="682" y="261" width="80" height="60" fill="#F5EEEB" stroke="#080708"/>
<rect x="682" y="259.333" width="80" height="61.6667" fill="#F5EEEB" stroke="#080708"/>
<path fill-rule="evenodd" clip-rule="evenodd" d="M682 241H703.333L706.381 247.667H762V261H682V241Z" fill="#080708" stroke="#080708"/>
<rect x="687" y="253" width="70" height="8" fill="#F5EEEB" stroke="#080708"/>
<rect x="58.9551" y="112.587" width="180" height="100" transform="rotate(-15 58.9551 112.587)" fill="#F5EEEB" stroke="#080708"/>
<rect x="110.72" y="305.773" width="180" height="100" transform="rotate(-15 110.72 305.773)" fill="#F5EEEB" stroke="#080708"/>
<rect x="1" y="128.117" width="60" height="300" transform="rotate(-15 1 128.117)" fill="#F5EEEB" stroke="#080708"/>
<rect x="51.2285" y="114.658" width="8" height="100" transform="rotate(-15 51.2285 114.658)" fill="#F5EEEB" stroke="#080708"/>
<rect x="77.1104" y="211.251" width="8" height="100" transform="rotate(-15 77.1104 211.251)" fill="#F5EEEB" stroke="#080708"/>
<rect x="102.992" y="307.843" width="8" height="100" transform="rotate(-15 102.992 307.843)" fill="#F5EEEB" stroke="#080708"/>
<rect x="84.8379" y="209.18" width="180" height="100" transform="rotate(-15 84.8379 209.18)" fill="#F5EEEB" stroke="#080708"/>
<path d="M144.341 141.472C143.626 138.805 145.209 136.063 147.877 135.349L157.536 132.76L160.124 142.42L150.465 145.008C147.797 145.723 145.056 144.14 144.341 141.472V141.472Z" fill="#080708" stroke="#080708"/>
<rect x="152.706" y="134.054" width="30" height="10" rx="5" transform="rotate(-15 152.706 134.054)" fill="#F5EEEB" stroke="#080708"/>
<path d="M170.223 238.065C169.508 235.398 171.091 232.656 173.758 231.941L183.418 229.353L186.006 239.012L176.347 241.6C173.679 242.315 170.938 240.732 170.223 238.065V238.065Z" fill="#080708" stroke="#080708"/>
<rect x="178.588" y="230.647" width="30" height="10" rx="5" transform="rotate(-15 178.588 230.647)" fill="#F5EEEB" stroke="#080708"/>
<path d="M196.105 334.657C195.39 331.99 196.973 329.248 199.64 328.534L209.299 325.946L211.888 335.605L202.228 338.193C199.561 338.908 196.819 337.325 196.105 334.657V334.657Z" fill="#080708" stroke="#080708"/>
<rect x="204.47" y="327.24" width="30" height="10" rx="5" transform="rotate(-15 204.47 327.24)" fill="#F5EEEB" stroke="#080708"/>
<rect x="317.601" y="81.5291" width="180" height="100" transform="rotate(15 317.601 81.5291)" fill="#F5EEEB" stroke="#080708"/>
<rect x="265.837" y="274.714" width="180" height="100" transform="rotate(15 265.837 274.714)" fill="#F5EEEB" stroke="#080708"/>
<rect x="259.646" y="66" width="60" height="300" transform="rotate(15 259.646 66)" fill="#F5EEEB" stroke="#080708"/>
<rect x="309.874" y="79.4586" width="8" height="100" transform="rotate(15 309.874 79.4586)" fill="#F5EEEB" stroke="#080708"/>
<rect x="283.992" y="176.051" width="8" height="100" transform="rotate(15 283.992 176.051)" fill="#F5EEEB" stroke="#080708"/>
<rect x="258.109" y="272.644" width="8" height="100" transform="rotate(15 258.109 272.644)" fill="#F5EEEB" stroke="#080708"/>
<rect x="291.719" y="178.122" width="180" height="100" transform="rotate(15 291.719 178.122)" fill="#F5EEEB" stroke="#080708"/>
<path d="M377.104 149.237C377.819 146.57 380.561 144.987 383.228 145.701L392.887 148.29L390.299 157.949L380.64 155.361C377.973 154.646 376.39 151.904 377.104 149.237V149.237Z" fill="#080708" stroke="#080708"/>
<rect x="388.058" y="146.995" width="30" height="10" rx="5" transform="rotate(15 388.058 146.995)" fill="#F5EEEB" stroke="#080708"/>
<path d="M351.223 245.829C351.937 243.162 354.679 241.579 357.346 242.294L367.005 244.882L364.417 254.541L354.758 251.953C352.091 251.238 350.508 248.497 351.223 245.829V245.829Z" fill="#080708" stroke="#080708"/>
<rect x="362.176" y="243.588" width="30" height="10" rx="5" transform="rotate(15 362.176 243.588)" fill="#F5EEEB" stroke="#080708"/>
<path d="M325.341 342.422C326.055 339.755 328.797 338.172 331.464 338.887L341.124 341.475L338.535 351.134L328.876 348.546C326.209 347.831 324.626 345.089 325.341 342.422V342.422Z" fill="#080708" stroke="#080708"/>
<rect x="336.294" y="340.181" width="30" height="10" rx="5" transform="rotate(15 336.294 340.181)" fill="#F5EEEB" stroke="#080708"/>
<rect x="281.177" y="374.024" width="80" height="60" transform="rotate(-15 281.177 374.024)" fill="#F5EEEB" stroke="#080708"/>
<rect x="280.745" y="372.414" width="80" height="61.6667" transform="rotate(-15 280.745 372.414)" fill="#F5EEEB" stroke="#080708"/>
<path fill-rule="evenodd" clip-rule="evenodd" d="M276 354.706L296.606 349.184L301.276 354.835L355 340.439L358.45 353.318L281.176 374.024L276 354.706Z" fill="#080708" stroke="#080708"/>
<rect x="283.936" y="365.003" width="70" height="8" transform="rotate(-15 283.936 365.003)" fill="#F5EEEB" stroke="#080708"/>
<rect x="385.857" y="333.574" width="80" height="60" transform="rotate(45 385.857 333.574)" fill="#F5EEEB" stroke="#080708"/>
<rect x="387.036" y="332.395" width="80" height="61.6667" transform="rotate(45 387.036 332.395)" fill="#F5EEEB" stroke="#080708"/>
<path fill-rule="evenodd" clip-rule="evenodd" d="M400 319.431L415.085 334.516L412.526 341.385L451.854 380.714L442.426 390.142L385.858 333.574L400 319.431Z" fill="#080708" stroke="#080708"/>
<rect x="395.05" y="331.452" width="70" height="8" transform="rotate(45 395.05 331.452)" fill="#F5EEEB" stroke="#080708"/>
<path d="M376.544 94.6348C372.638 90.7295 372.638 84.3979 376.544 80.4927V80.4927C380.449 76.5874 386.781 76.5874 390.686 80.4927L401.292 91.0993L387.15 105.241L376.544 94.6348Z" fill="#359D72" stroke="#080708"/>
<rect x="379.385" y="104.732" width="56" height="10" rx="2" transform="rotate(-30 379.385 104.732)" fill="#F5EEEB" stroke="#080708"/>
<path d="M388.715 110.892L428.552 87.8918L435.088 107.212L402.179 126.212L388.715 110.892Z" fill="#F5EEEB" stroke="#080708"/>
<path d="M382.474 74.081C379.712 69.298 381.351 63.1821 386.134 60.4207V60.4207C390.917 57.6593 397.033 59.298 399.794 64.081L412.294 85.7316L394.974 95.7316L382.474 74.081Z" fill="#359D72" stroke="#080708"/>
<path d="M397.865 76.7412C395.104 71.9583 396.743 65.8424 401.525 63.081V63.081C406.308 60.3196 412.424 61.9583 415.186 66.7412L422.686 79.7316L405.365 89.7316L397.865 76.7412Z" fill="#359D72" stroke="#080708"/>
<path d="M416.204 72.5044L419.717 67.5893" stroke="#080708"/>
<path d="M399.781 75.0582L393.451 74.0941M406.74 64.1121L407.954 58.2149M403.781 81.9864L398.701 83.1874M418.954 77.2675L422.418 75.2675M385.286 64.9518L379.571 63.0547M392.58 59.5858L393.928 55.9207M384.705 73.947L379.741 73.3489M388.036 69.7149L389.201 66.7329M375.532 89.0582L371.001 88.2101M378.594 80.3621L376.344 76.4649M380.398 95.4864L378.251 100.767M384.844 91.1874L386.375 86.8393M394.536 80.9733L391.554 79.8082M408.459 74.0893L410.24 70.1742" stroke="#080708"/>
<path d="M428.552 87.8918L388.715 110.892L392.081 114.722L430.186 92.722L428.552 87.8918Z" fill="#080708" stroke="#080708"/>
<rect x="599.177" y="373.024" width="80" height="60" transform="rotate(-15 599.177 373.024)" fill="#F5EEEB" stroke="#080708"/>
<rect x="598.745" y="371.414" width="80" height="61.6667" transform="rotate(-15 598.745 371.414)" fill="#F5EEEB" stroke="#080708"/>
<path fill-rule="evenodd" clip-rule="evenodd" d="M594 353.706L614.606 348.184L619.276 353.835L673 339.439L676.45 352.318L599.176 373.024L594 353.706Z" fill="#080708" stroke="#080708"/>
<rect x="601.936" y="364.003" width="70" height="8" transform="rotate(-15 601.936 364.003)" fill="#F5EEEB" stroke="#080708"/>
<rect x="406.955" y="112.587" width="180" height="100" transform="rotate(-15 406.955 112.587)" fill="#F5EEEB" stroke="#080708"/>
<rect x="458.72" y="305.773" width="180" height="100" transform="rotate(-15 458.72 305.773)" fill="#F5EEEB" stroke="#080708"/>
<rect x="349" y="128.117" width="60" height="300" transform="rotate(-15 349 128.117)" fill="#F5EEEB" stroke="#080708"/>
<rect x="399.229" y="114.658" width="8" height="100" transform="rotate(-15 399.229 114.658)" fill="#F5EEEB" stroke="#080708"/>
<rect x="425.11" y="211.251" width="8" height="100" transform="rotate(-15 425.11 211.251)" fill="#F5EEEB" stroke="#080708"/>
<rect x="450.992" y="307.843" width="8" height="100" transform="rotate(-15 450.992 307.843)" fill="#F5EEEB" stroke="#080708"/>
<rect x="432.838" y="209.18" width="180" height="100" transform="rotate(-15 432.838 209.18)" fill="#F5EEEB" stroke="#080708"/>
<path d="M492.341 141.472C491.626 138.805 493.209 136.063 495.877 135.349L505.536 132.76L508.124 142.42L498.465 145.008C495.797 145.723 493.056 144.14 492.341 141.472V141.472Z" fill="#080708" stroke="#080708"/>
<rect x="500.706" y="134.054" width="30" height="10" rx="5" transform="rotate(-15 500.706 134.054)" fill="#F5EEEB" stroke="#080708"/>
<path d="M518.223 238.065C517.508 235.398 519.091 232.656 521.758 231.941L531.418 229.353L534.006 239.012L524.347 241.6C521.679 242.315 518.938 240.732 518.223 238.065V238.065Z" fill="#080708" stroke="#080708"/>
<rect x="526.588" y="230.647" width="30" height="10" rx="5" transform="rotate(-15 526.588 230.647)" fill="#F5EEEB" stroke="#080708"/>
<path d="M544.105 334.657C543.39 331.99 544.973 329.248 547.64 328.534L557.299 325.946L559.888 335.605L550.228 338.193C547.561 338.908 544.819 337.325 544.105 334.657V334.657Z" fill="#080708" stroke="#080708"/>
<rect x="552.47" y="327.24" width="30" height="10" rx="5" transform="rotate(-15 552.47 327.24)" fill="#F5EEEB" stroke="#080708"/>
<rect x="509.529" y="348.319" width="80" height="60" transform="rotate(15 509.529 348.319)" fill="#F5EEEB" stroke="#080708"/>
<rect x="509.961" y="346.709" width="80" height="61.6667" transform="rotate(15 509.961 346.709)" fill="#F5EEEB" stroke="#080708"/>
<path fill-rule="evenodd" clip-rule="evenodd" d="M514.706 329L535.312 334.521L536.531 341.75L590.255 356.145L586.804 369.024L509.53 348.319L514.706 329Z" fill="#080708" stroke="#080708"/>
<rect x="516.43" y="341.885" width="70" height="8" transform="rotate(15 516.43 341.885)" fill="#F5EEEB" stroke="#080708"/>
<rect x="564" y="355.32" width="80" height="60" transform="rotate(-30 564 355.32)" fill="#F5EEEB" stroke="#080708"/>
<rect x="563.167" y="353.877" width="80" height="61.6667" transform="rotate(-30 563.167 353.877)" fill="#F5EEEB" stroke="#080708"/>
<path fill-rule="evenodd" clip-rule="evenodd" d="M554 338L572.475 327.333L578.448 331.583L626.615 303.774L633.282 315.321L564 355.321L554 338Z" fill="#080708" stroke="#080708"/>
<rect x="564.33" y="345.892" width="70" height="8" transform="rotate(-30 564.33 345.892)" fill="#F5EEEB" stroke="#080708"/>
<rect x="614.528" y="265.319" width="80" height="60" transform="rotate(15 614.528 265.319)" fill="#F5EEEB" stroke="#080708"/>
<rect x="614.96" y="263.709" width="80" height="61.6667" transform="rotate(15 614.96 263.709)" fill="#F5EEEB" stroke="#080708"/>
<path fill-rule="evenodd" clip-rule="evenodd" d="M619.705 246L640.311 251.521L641.53 258.75L695.254 273.145L691.803 286.024L614.529 265.319L619.705 246Z" fill="#080708" stroke="#080708"/>
<rect x="621.429" y="258.885" width="70" height="8" transform="rotate(15 621.429 258.885)" fill="#F5EEEB" stroke="#080708"/>
<rect x="621.828" y="312.034" width="80" height="60" transform="rotate(-15 621.828 312.034)" fill="#F5EEEB" stroke="#080708"/>
<rect x="621.396" y="310.424" width="80" height="61.6667" transform="rotate(-15 621.396 310.424)" fill="#F5EEEB" stroke="#080708"/>
<path fill-rule="evenodd" clip-rule="evenodd" d="M616.651 292.716L637.258 287.194L641.927 292.845L695.651 278.45L699.102 291.329L621.828 312.034L616.651 292.716Z" fill="#080708" stroke="#080708"/>
<rect x="624.587" y="303.013" width="70" height="8" transform="rotate(-15 624.587 303.013)" fill="#F5EEEB" stroke="#080708"/>
<rect x="710.528" y="285.319" width="80" height="60" transform="rotate(15 710.528 285.319)" fill="#F5EEEB" stroke="#080708"/>
<rect x="710.96" y="283.709" width="80" height="61.6667" transform="rotate(15 710.96 283.709)" fill="#F5EEEB" stroke="#080708"/>
<path fill-rule="evenodd" clip-rule="evenodd" d="M715.705 266L736.311 271.521L737.53 278.75L791.254 293.145L787.803 306.024L710.529 285.319L715.705 266Z" fill="#080708" stroke="#080708"/>
<rect x="717.429" y="278.885" width="70" height="8" transform="rotate(15 717.429 278.885)" fill="#F5EEEB" stroke="#080708"/>
<rect x="661.185" y="274.951" width="80" height="60" transform="rotate(4 661.185 274.951)" fill="#F5EEEB" stroke="#080708"/>
<rect x="661.301" y="273.289" width="80" height="61.6667" transform="rotate(4 661.301 273.289)" fill="#F5EEEB" stroke="#080708"/>
<path fill-rule="evenodd" clip-rule="evenodd" d="M662.58 255L683.861 256.488L686.437 263.351L741.92 267.231L740.99 280.532L661.185 274.951L662.58 255Z" fill="#080708" stroke="#080708"/>
<rect x="666.73" y="267.32" width="70" height="8" transform="rotate(4 666.73 267.32)" fill="#F5EEEB" stroke="#080708"/>
<rect x="635" y="214.32" width="80" height="60" transform="rotate(-30 635 214.32)" fill="#F5EEEB" stroke="#080708"/>
<rect x="634.167" y="212.877" width="80" height="61.6667" transform="rotate(-30 634.167 212.877)" fill="#F5EEEB" stroke="#080708"/>
<path fill-rule="evenodd" clip-rule="evenodd" d="M625 197L643.475 186.333L649.448 190.583L697.615 162.774L704.282 174.321L635 214.321L625 197Z" fill="#080708" stroke="#080708"/>
<rect x="635.33" y="204.892" width="70" height="8" transform="rotate(-30 635.33 204.892)" fill="#F5EEEB" stroke="#080708"/>
<rect x="589" y="210.32" width="80" height="60" transform="rotate(30 589 210.32)" fill="#F5EEEB" stroke="#080708"/>
<rect x="589.833" y="208.877" width="80" height="61.6667" transform="rotate(30 589.833 208.877)" fill="#F5EEEB" stroke="#080708"/>
<path fill-rule="evenodd" clip-rule="evenodd" d="M599 193L617.475 203.667L616.781 210.964L664.949 238.774L658.282 250.321L589 210.321L599 193Z" fill="#080708" stroke="#080708"/>
<rect x="597.33" y="205.892" width="70" height="8" transform="rotate(30 597.33 205.892)" fill="#F5EEEB" stroke="#080708"/>
<rect x="768.528" y="297.319" width="80" height="60" transform="rotate(15 768.528 297.319)" fill="#F5EEEB" stroke="#080708"/>
<rect x="768.96" y="295.709" width="80" height="61.6667" transform="rotate(15 768.96 295.709)" fill="#F5EEEB" stroke="#080708"/>
<path fill-rule="evenodd" clip-rule="evenodd" d="M773.705 278L794.311 283.521L795.53 290.75L849.254 305.145L845.803 318.024L768.529 297.319L773.705 278Z" fill="#080708" stroke="#080708"/>
<rect x="775.429" y="290.885" width="70" height="8" transform="rotate(15 775.429 290.885)" fill="#F5EEEB" stroke="#080708"/>
<rect x="639.215" y="391.142" width="80" height="60" transform="rotate(-45 639.215 391.142)" fill="#F5EEEB" stroke="#080708"/>
<rect x="638.036" y="389.964" width="80" height="61.6667" transform="rotate(-45 638.036 389.964)" fill="#F5EEEB" stroke="#080708"/>
<path fill-rule="evenodd" clip-rule="evenodd" d="M625.072 377L640.157 361.915L647.026 364.474L686.355 325.146L695.783 334.574L639.214 391.142L625.072 377Z" fill="#080708" stroke="#080708"/>
<rect x="637.093" y="381.95" width="70" height="8" transform="rotate(-45 637.093 381.95)" fill="#F5EEEB" stroke="#080708"/>
<rect x="709.187" y="360.034" width="80" height="60" transform="rotate(-15 709.187 360.034)" fill="#F5EEEB" stroke="#080708"/>
<rect x="708.755" y="358.424" width="80" height="61.6667" transform="rotate(-15 708.755 358.424)" fill="#F5EEEB" stroke="#080708"/>
<path fill-rule="evenodd" clip-rule="evenodd" d="M704.01 340.716L724.616 335.194L729.285 340.845L783.009 326.45L786.46 339.329L709.186 360.034L704.01 340.716Z" fill="#080708" stroke="#080708"/>
<rect x="711.945" y="351.013" width="70" height="8" transform="rotate(-15 711.945 351.013)" fill="#F5EEEB" stroke="#080708"/>
<rect x="793.743" y="366.562" width="80" height="60" transform="rotate(-5 793.743 366.562)" fill="#F5EEEB" stroke="#080708"/>
<rect x="793.598" y="364.902" width="80" height="61.6667" transform="rotate(-5 793.598 364.902)" fill="#F5EEEB" stroke="#080708"/>
<path fill-rule="evenodd" clip-rule="evenodd" d="M792 346.638L813.252 344.779L816.869 351.155L872.277 346.307L873.439 359.59L793.743 366.562L792 346.638Z" fill="#080708" stroke="#080708"/>
<rect x="798.026" y="358.157" width="70" height="8" transform="rotate(-5 798.026 358.157)" fill="#F5EEEB" stroke="#080708"/>
<rect x="573.17" y="259.319" width="80" height="60" transform="rotate(15 573.17 259.319)" fill="#F5EEEB" stroke="#080708"/>
<rect x="573.602" y="257.709" width="80" height="61.6667" transform="rotate(15 573.602 257.709)" fill="#F5EEEB" stroke="#080708"/>
<path fill-rule="evenodd" clip-rule="evenodd" d="M578.347 240L598.953 245.521L600.171 252.75L653.895 267.145L650.444 280.024L573.17 259.319L578.347 240Z" fill="#080708" stroke="#080708"/>
<rect x="580.07" y="252.885" width="70" height="8" transform="rotate(15 580.07 252.885)" fill="#F5EEEB" stroke="#080708"/>
<rect x="456" y="192.167" width="30" height="30" transform="rotate(-15 456 192.167)" fill="#F5EEEB" stroke="#080708"/>
<path d="M463.418 200.532L482.736 195.356" stroke="#080708"/>
<path d="M464.712 205.362L484.03 200.186" stroke="#080708"/>
<path d="M466.006 210.192L475.665 207.603" stroke="#080708"/>
<rect x="478.136" y="165.403" width="30" height="30" transform="rotate(15 478.136 165.403)" fill="#F5EEEB" stroke="#080708"/>
<rect x="431" y="152.612" width="30" height="30" transform="rotate(-10 431 152.612)" fill="#F5EEEB" stroke="#080708"/>
<path d="M437.66 161.592L457.356 158.119" stroke="#080708"/>
<path d="M438.529 166.516L458.225 163.043" stroke="#080708"/>
<path d="M439.396 171.44L449.245 169.704" stroke="#080708"/>
<rect x="470" y="166.403" width="30" height="30" transform="rotate(-30 470 166.403)" fill="#F5EEEB" stroke="#080708"/>
<path d="M479.33 172.563L496.651 162.563" stroke="#080708"/>
<path d="M481.83 176.893L499.151 166.893" stroke="#080708"/>
<path d="M484.33 181.223L492.99 176.223" stroke="#080708"/>
</svg>
