<svg width="2000" height="2000" viewBox="0 0 2000 2000" fill="none" xmlns="http://www.w3.org/2000/svg">
<g clip-path="url(#clip0_344_11850)">
<rect x="-47.9678" y="-13.293" width="100" height="100" transform="rotate(-15 -47.9678 -13.293)" stroke="#323332"/>
<rect x="48.624" y="-39.1748" width="100" height="100" transform="rotate(-15 48.624 -39.1748)" stroke="#323332"/>
<rect x="145.217" y="-65.0566" width="100" height="100" transform="rotate(-15 145.217 -65.0566)" stroke="#323332"/>
<rect x="241.81" y="-90.9385" width="100" height="100" transform="rotate(-15 241.81 -90.9385)" stroke="#323332"/>
<rect x="-118.679" y="109.182" width="100" height="100" transform="rotate(-15 -118.679 109.182)" stroke="#323332"/>
<rect x="-22.0859" y="83.2998" width="100" height="100" transform="rotate(-15 -22.0859 83.2998)" stroke="#323332"/>
<rect x="74.5059" y="57.4175" width="100" height="100" transform="rotate(-15 74.5059 57.4175)" stroke="#323332"/>
<rect x="171.099" y="31.5356" width="100" height="100" transform="rotate(-15 171.099 31.5356)" stroke="#323332"/>
<rect x="267.691" y="5.65381" width="100" height="100" transform="rotate(-15 267.691 5.65381)" stroke="#323332"/>
<rect x="364.284" y="-20.228" width="100" height="100" transform="rotate(-15 364.284 -20.228)" stroke="#323332"/>
<rect x="460.877" y="-46.1099" width="100" height="100" transform="rotate(-15 460.877 -46.1099)" stroke="#323332"/>
<rect x="557.469" y="-71.9917" width="100" height="100" transform="rotate(-15 557.469 -71.9917)" stroke="#323332"/>
<rect x="-92.7969" y="205.774" width="100" height="100" transform="rotate(-15 -92.7969 205.774)" stroke="#323332"/>
<rect x="3.7959" y="179.892" width="100" height="100" transform="rotate(-15 3.7959 179.892)" stroke="#323332"/>
<rect x="100.389" y="154.01" width="100" height="100" transform="rotate(-15 100.389 154.01)" stroke="#323332"/>
<rect x="196.98" y="128.128" width="100" height="100" transform="rotate(-15 196.98 128.128)" stroke="#323332"/>
<rect x="293.573" y="102.247" width="100" height="100" transform="rotate(-15 293.573 102.247)" stroke="#323332"/>
<rect x="390.166" y="76.3647" width="100" height="100" transform="rotate(-15 390.166 76.3647)" stroke="#323332"/>
<rect x="486.759" y="50.4824" width="100" height="100" transform="rotate(-15 486.759 50.4824)" stroke="#323332"/>
<rect x="583.352" y="24.6006" width="100" height="100" transform="rotate(-15 583.352 24.6006)" stroke="#323332"/>
<rect x="679.943" y="-1.28125" width="100" height="100" transform="rotate(-15 679.943 -1.28125)" stroke="#323332"/>
<rect x="776.536" y="-27.1631" width="100" height="100" transform="rotate(-15 776.536 -27.1631)" stroke="#323332"/>
<rect x="873.129" y="-53.0449" width="100" height="100" transform="rotate(-15 873.129 -53.0449)" stroke="#323332"/>
<rect x="969.722" y="-78.9268" width="100" height="100" transform="rotate(-15 969.722 -78.9268)" stroke="#323332"/>
<rect x="-66.915" y="302.367" width="100" height="100" transform="rotate(-15 -66.915 302.367)" stroke="#323332"/>
<rect x="29.6777" y="276.485" width="100" height="100" transform="rotate(-15 29.6777 276.485)" stroke="#323332"/>
<rect x="126.271" y="250.603" width="100" height="100" transform="rotate(-15 126.271 250.603)" stroke="#323332"/>
<rect x="222.862" y="224.721" width="100" height="100" transform="rotate(-15 222.862 224.721)" stroke="#323332"/>
<rect x="319.455" y="198.839" width="100" height="100" transform="rotate(-15 319.455 198.839)" stroke="#323332"/>
<rect x="416.048" y="172.957" width="100" height="100" transform="rotate(-15 416.048 172.957)" stroke="#323332"/>
<rect x="512.641" y="147.075" width="100" height="100" transform="rotate(-15 512.641 147.075)" stroke="#323332"/>
<rect x="609.233" y="121.193" width="100" height="100" transform="rotate(-15 609.233 121.193)" stroke="#323332"/>
<rect x="705.825" y="95.3115" width="100" height="100" transform="rotate(-15 705.825 95.3115)" stroke="#323332"/>
<rect x="802.418" y="69.4297" width="100" height="100" transform="rotate(-15 802.418 69.4297)" stroke="#323332"/>
<rect x="899.011" y="43.5479" width="100" height="100" transform="rotate(-15 899.011 43.5479)" stroke="#323332"/>
<rect x="995.604" y="17.6655" width="100" height="100" transform="rotate(-15 995.604 17.6655)" stroke="#323332"/>
<rect x="1092.2" y="-8.21631" width="100" height="100" transform="rotate(-15 1092.2 -8.21631)" stroke="#323332"/>
<rect x="1188.79" y="-34.0981" width="100" height="100" transform="rotate(-15 1188.79 -34.0981)" stroke="#323332"/>
<rect x="1285.38" y="-59.98" width="100" height="100" transform="rotate(-15 1285.38 -59.98)" stroke="#323332"/>
<rect x="1381.97" y="-85.8618" width="100" height="100" transform="rotate(-15 1381.97 -85.8618)" stroke="#323332"/>
<rect x="-41.0332" y="398.959" width="100" height="100" transform="rotate(-15 -41.0332 398.959)" stroke="#323332"/>
<rect x="55.5596" y="373.077" width="100" height="100" transform="rotate(-15 55.5596 373.077)" stroke="#323332"/>
<rect x="152.152" y="347.195" width="100" height="100" transform="rotate(-15 152.152 347.195)" stroke="#323332"/>
<rect x="248.744" y="321.313" width="100" height="100" transform="rotate(-15 248.744 321.313)" stroke="#323332"/>
<rect x="345.337" y="295.432" width="100" height="100" transform="rotate(-15 345.337 295.432)" stroke="#323332"/>
<rect x="441.93" y="269.55" width="100" height="100" transform="rotate(-15 441.93 269.55)" stroke="#323332"/>
<rect x="538.522" y="243.668" width="100" height="100" transform="rotate(-15 538.522 243.668)" stroke="#323332"/>
<rect x="635.115" y="217.786" width="100" height="100" transform="rotate(-15 635.115 217.786)" stroke="#323332"/>
<rect x="731.707" y="191.904" width="100" height="100" transform="rotate(-15 731.707 191.904)" stroke="#323332"/>
<rect x="828.3" y="166.022" width="100" height="100" transform="rotate(-15 828.3 166.022)" stroke="#323332"/>
<rect x="924.893" y="140.14" width="100" height="100" transform="rotate(-15 924.893 140.14)" stroke="#323332"/>
<rect x="1021.49" y="114.258" width="100" height="100" transform="rotate(-15 1021.49 114.258)" stroke="#323332"/>
<rect x="1118.08" y="88.3765" width="100" height="100" transform="rotate(-15 1118.08 88.3765)" stroke="#323332"/>
<rect x="1214.67" y="62.4946" width="100" height="100" transform="rotate(-15 1214.67 62.4946)" stroke="#323332"/>
<rect x="1311.26" y="36.6128" width="100" height="100" transform="rotate(-15 1311.26 36.6128)" stroke="#323332"/>
<rect x="1407.86" y="10.7305" width="100" height="100" transform="rotate(-15 1407.86 10.7305)" stroke="#323332"/>
<rect x="1504.45" y="-15.1514" width="100" height="100" transform="rotate(-15 1504.45 -15.1514)" stroke="#323332"/>
<rect x="1601.04" y="-41.0332" width="100" height="100" transform="rotate(-15 1601.04 -41.0332)" stroke="#323332"/>
<rect x="1697.63" y="-66.915" width="100" height="100" transform="rotate(-15 1697.63 -66.915)" stroke="#323332"/>
<rect x="1794.23" y="-92.7969" width="100" height="100" transform="rotate(-15 1794.23 -92.7969)" stroke="#323332"/>
<rect x="-111.744" y="521.434" width="100" height="100" transform="rotate(-15 -111.744 521.434)" stroke="#323332"/>
<rect x="-15.1514" y="495.552" width="100" height="100" transform="rotate(-15 -15.1514 495.552)" stroke="#323332"/>
<rect x="81.4414" y="469.67" width="100" height="100" transform="rotate(-15 81.4414 469.67)" stroke="#323332"/>
<rect x="178.034" y="443.788" width="100" height="100" transform="rotate(-15 178.034 443.788)" stroke="#323332"/>
<rect x="274.627" y="417.906" width="100" height="100" transform="rotate(-15 274.627 417.906)" stroke="#323332"/>
<rect x="371.219" y="392.024" width="100" height="100" transform="rotate(-15 371.219 392.024)" stroke="#323332"/>
<rect x="467.812" y="366.142" width="100" height="100" transform="rotate(-15 467.812 366.142)" stroke="#323332"/>
<rect x="564.404" y="340.26" width="100" height="100" transform="rotate(-15 564.404 340.26)" stroke="#323332"/>
<rect x="660.997" y="314.378" width="100" height="100" transform="rotate(-15 660.997 314.378)" stroke="#323332"/>
<rect x="757.59" y="288.497" width="100" height="100" transform="rotate(-15 757.59 288.497)" stroke="#323332"/>
<rect x="854.182" y="262.615" width="100" height="100" transform="rotate(-15 854.182 262.615)" stroke="#323332"/>
<rect x="950.774" y="236.733" width="100" height="100" transform="rotate(-15 950.774 236.733)" stroke="#323332"/>
<rect x="1047.37" y="210.851" width="100" height="100" transform="rotate(-15 1047.37 210.851)" stroke="#323332"/>
<rect x="1143.96" y="184.969" width="100" height="100" transform="rotate(-15 1143.96 184.969)" stroke="#323332"/>
<rect x="1240.55" y="159.087" width="100" height="100" transform="rotate(-15 1240.55 159.087)" stroke="#323332"/>
<rect x="1337.14" y="133.205" width="100" height="100" transform="rotate(-15 1337.14 133.205)" stroke="#323332"/>
<rect x="1433.74" y="107.323" width="100" height="100" transform="rotate(-15 1433.74 107.323)" stroke="#323332"/>
<rect x="1530.33" y="81.4414" width="100" height="100" transform="rotate(-15 1530.33 81.4414)" stroke="#323332"/>
<rect x="1626.92" y="55.5596" width="100" height="100" transform="rotate(-15 1626.92 55.5596)" stroke="#323332"/>
<rect x="1723.52" y="29.6777" width="100" height="100" transform="rotate(-15 1723.52 29.6777)" stroke="#323332"/>
<rect x="1820.11" y="3.79541" width="100" height="100" transform="rotate(-15 1820.11 3.79541)" stroke="#323332"/>
<rect x="1916.7" y="-22.0864" width="100" height="100" transform="rotate(-15 1916.7 -22.0864)" stroke="#323332"/>
<rect x="-85.8623" y="618.026" width="100" height="100" transform="rotate(-15 -85.8623 618.026)" stroke="#323332"/>
<rect x="10.7305" y="592.145" width="100" height="100" transform="rotate(-15 10.7305 592.145)" stroke="#323332"/>
<rect x="107.323" y="566.262" width="100" height="100" transform="rotate(-15 107.323 566.262)" stroke="#323332"/>
<rect x="203.916" y="540.381" width="100" height="100" transform="rotate(-15 203.916 540.381)" stroke="#323332"/>
<rect x="300.509" y="514.499" width="100" height="100" transform="rotate(-15 300.509 514.499)" stroke="#323332"/>
<rect x="397.101" y="488.617" width="100" height="100" transform="rotate(-15 397.101 488.617)" stroke="#323332"/>
<rect x="493.693" y="462.735" width="100" height="100" transform="rotate(-15 493.693 462.735)" stroke="#323332"/>
<rect x="590.286" y="436.853" width="100" height="100" transform="rotate(-15 590.286 436.853)" stroke="#323332"/>
<rect x="686.879" y="410.971" width="100" height="100" transform="rotate(-15 686.879 410.971)" stroke="#323332"/>
<rect x="783.472" y="385.089" width="100" height="100" transform="rotate(-15 783.472 385.089)" stroke="#323332"/>
<rect x="880.063" y="359.207" width="100" height="100" transform="rotate(-15 880.063 359.207)" stroke="#323332"/>
<rect x="976.656" y="333.325" width="100" height="100" transform="rotate(-15 976.656 333.325)" stroke="#323332"/>
<rect x="1073.25" y="307.443" width="100" height="100" transform="rotate(-15 1073.25 307.443)" stroke="#323332"/>
<rect x="1169.84" y="281.562" width="100" height="100" transform="rotate(-15 1169.84 281.562)" stroke="#323332"/>
<rect x="1266.43" y="255.68" width="100" height="100" transform="rotate(-15 1266.43 255.68)" stroke="#323332"/>
<rect x="1363.03" y="229.798" width="100" height="100" transform="rotate(-15 1363.03 229.798)" stroke="#323332"/>
<rect x="1459.62" y="203.916" width="100" height="100" transform="rotate(-15 1459.62 203.916)" stroke="#323332"/>
<rect x="1556.21" y="178.034" width="100" height="100" transform="rotate(-15 1556.21 178.034)" stroke="#323332"/>
<rect x="1652.8" y="152.152" width="100" height="100" transform="rotate(-15 1652.8 152.152)" stroke="#323332"/>
<rect x="1749.4" y="126.27" width="100" height="100" transform="rotate(-15 1749.4 126.27)" stroke="#323332"/>
<rect x="1845.99" y="100.388" width="100" height="100" transform="rotate(-15 1845.99 100.388)" stroke="#323332"/>
<rect x="1942.58" y="74.5063" width="100" height="100" transform="rotate(-15 1942.58 74.5063)" stroke="#323332"/>
<rect x="-59.9805" y="714.619" width="100" height="100" transform="rotate(-15 -59.9805 714.619)" stroke="#323332"/>
<rect x="36.6123" y="688.737" width="100" height="100" transform="rotate(-15 36.6123 688.737)" stroke="#323332"/>
<rect x="133.205" y="662.855" width="100" height="100" transform="rotate(-15 133.205 662.855)" stroke="#323332"/>
<rect x="229.798" y="636.973" width="100" height="100" transform="rotate(-15 229.798 636.973)" stroke="#323332"/>
<rect x="326.391" y="611.091" width="100" height="100" transform="rotate(-15 326.391 611.091)" stroke="#323332"/>
<rect x="422.982" y="585.209" width="100" height="100" transform="rotate(-15 422.982 585.209)" stroke="#323332"/>
<rect x="519.575" y="559.327" width="100" height="100" transform="rotate(-15 519.575 559.327)" stroke="#323332"/>
<rect x="616.168" y="533.446" width="100" height="100" transform="rotate(-15 616.168 533.446)" stroke="#323332"/>
<rect x="712.761" y="507.564" width="100" height="100" transform="rotate(-15 712.761 507.564)" stroke="#323332"/>
<rect x="809.354" y="481.682" width="100" height="100" transform="rotate(-15 809.354 481.682)" stroke="#323332"/>
<rect x="905.945" y="455.8" width="100" height="100" transform="rotate(-15 905.945 455.8)" stroke="#323332"/>
<rect x="1002.54" y="429.918" width="100" height="100" transform="rotate(-15 1002.54 429.918)" stroke="#323332"/>
<rect x="1099.13" y="404.036" width="100" height="100" transform="rotate(-15 1099.13 404.036)" stroke="#323332"/>
<rect x="1195.72" y="378.154" width="100" height="100" transform="rotate(-15 1195.72 378.154)" stroke="#323332"/>
<rect x="1292.32" y="352.272" width="100" height="100" transform="rotate(-15 1292.32 352.272)" stroke="#323332"/>
<rect x="1388.91" y="326.39" width="100" height="100" transform="rotate(-15 1388.91 326.39)" stroke="#323332"/>
<rect x="1485.5" y="300.508" width="100" height="100" transform="rotate(-15 1485.5 300.508)" stroke="#323332"/>
<rect x="1582.09" y="274.626" width="100" height="100" transform="rotate(-15 1582.09 274.626)" stroke="#323332"/>
<rect x="1678.69" y="248.745" width="100" height="100" transform="rotate(-15 1678.69 248.745)" stroke="#323332"/>
<rect x="1775.28" y="222.863" width="100" height="100" transform="rotate(-15 1775.28 222.863)" stroke="#323332"/>
<rect x="1871.87" y="196.981" width="100" height="100" transform="rotate(-15 1871.87 196.981)" stroke="#323332"/>
<rect x="1968.46" y="171.099" width="100" height="100" transform="rotate(-15 1968.46 171.099)" stroke="#323332"/>
<rect x="-34.0977" y="811.211" width="100" height="100" transform="rotate(-15 -34.0977 811.211)" stroke="#323332"/>
<rect x="62.4941" y="785.33" width="100" height="100" transform="rotate(-15 62.4941 785.33)" stroke="#323332"/>
<rect x="159.087" y="759.448" width="100" height="100" transform="rotate(-15 159.087 759.448)" stroke="#323332"/>
<rect x="255.68" y="733.566" width="100" height="100" transform="rotate(-15 255.68 733.566)" stroke="#323332"/>
<rect x="352.272" y="707.684" width="100" height="100" transform="rotate(-15 352.272 707.684)" stroke="#323332"/>
<rect x="448.865" y="681.802" width="100" height="100" transform="rotate(-15 448.865 681.802)" stroke="#323332"/>
<rect x="545.457" y="655.92" width="100" height="100" transform="rotate(-15 545.457 655.92)" stroke="#323332"/>
<rect x="642.05" y="630.038" width="100" height="100" transform="rotate(-15 642.05 630.038)" stroke="#323332"/>
<rect x="738.643" y="604.156" width="100" height="100" transform="rotate(-15 738.643 604.156)" stroke="#323332"/>
<rect x="835.235" y="578.274" width="100" height="100" transform="rotate(-15 835.235 578.274)" stroke="#323332"/>
<rect x="931.828" y="552.392" width="100" height="100" transform="rotate(-15 931.828 552.392)" stroke="#323332"/>
<rect x="1028.42" y="526.51" width="100" height="100" transform="rotate(-15 1028.42 526.51)" stroke="#323332"/>
<rect x="1125.01" y="500.629" width="100" height="100" transform="rotate(-15 1125.01 500.629)" stroke="#323332"/>
<rect x="1221.61" y="474.747" width="100" height="100" transform="rotate(-15 1221.61 474.747)" stroke="#323332"/>
<rect x="1318.2" y="448.865" width="100" height="100" transform="rotate(-15 1318.2 448.865)" stroke="#323332"/>
<rect x="1414.79" y="422.983" width="100" height="100" transform="rotate(-15 1414.79 422.983)" stroke="#323332"/>
<rect x="1511.38" y="397.101" width="100" height="100" transform="rotate(-15 1511.38 397.101)" stroke="#323332"/>
<rect x="1607.98" y="371.219" width="100" height="100" transform="rotate(-15 1607.98 371.219)" stroke="#323332"/>
<rect x="1704.57" y="345.337" width="100" height="100" transform="rotate(-15 1704.57 345.337)" stroke="#323332"/>
<rect x="1801.16" y="319.455" width="100" height="100" transform="rotate(-15 1801.16 319.455)" stroke="#323332"/>
<rect x="1897.75" y="293.573" width="100" height="100" transform="rotate(-15 1897.75 293.573)" stroke="#323332"/>
<rect x="1994.35" y="267.691" width="100" height="100" transform="rotate(-15 1994.35 267.691)" stroke="#323332"/>
<rect x="-104.809" y="933.686" width="100" height="100" transform="rotate(-15 -104.809 933.686)" stroke="#323332"/>
<rect x="-8.21582" y="907.804" width="100" height="100" transform="rotate(-15 -8.21582 907.804)" stroke="#323332"/>
<rect x="88.376" y="881.922" width="100" height="100" transform="rotate(-15 88.376 881.922)" stroke="#323332"/>
<rect x="184.969" y="856.04" width="100" height="100" transform="rotate(-15 184.969 856.04)" stroke="#323332"/>
<rect x="281.562" y="830.158" width="100" height="100" transform="rotate(-15 281.562 830.158)" stroke="#323332"/>
<rect x="378.154" y="804.276" width="100" height="100" transform="rotate(-15 378.154 804.276)" stroke="#323332"/>
<rect x="474.747" y="778.395" width="100" height="100" transform="rotate(-15 474.747 778.395)" stroke="#323332"/>
<rect x="571.339" y="752.513" width="100" height="100" transform="rotate(-15 571.339 752.513)" stroke="#323332"/>
<rect x="667.932" y="726.631" width="100" height="100" transform="rotate(-15 667.932 726.631)" stroke="#323332"/>
<rect x="764.524" y="700.749" width="100" height="100" transform="rotate(-15 764.524 700.749)" stroke="#323332"/>
<rect x="861.117" y="674.867" width="100" height="100" transform="rotate(-15 861.117 674.867)" stroke="#323332"/>
<rect x="957.71" y="648.985" width="100" height="100" transform="rotate(-15 957.71 648.985)" stroke="#323332"/>
<rect x="1054.3" y="623.103" width="100" height="100" transform="rotate(-15 1054.3 623.103)" stroke="#323332"/>
<rect x="1150.89" y="597.221" width="100" height="100" transform="rotate(-15 1150.89 597.221)" stroke="#323332"/>
<rect x="1247.49" y="571.339" width="100" height="100" transform="rotate(-15 1247.49 571.339)" stroke="#323332"/>
<rect x="1344.08" y="545.458" width="100" height="100" transform="rotate(-15 1344.08 545.458)" stroke="#323332"/>
<rect x="1440.67" y="519.575" width="100" height="100" transform="rotate(-15 1440.67 519.575)" stroke="#323332"/>
<rect x="1537.27" y="493.694" width="100" height="100" transform="rotate(-15 1537.27 493.694)" stroke="#323332"/>
<rect x="1633.86" y="467.812" width="100" height="100" transform="rotate(-15 1633.86 467.812)" stroke="#323332"/>
<rect x="1730.45" y="441.93" width="100" height="100" transform="rotate(-15 1730.45 441.93)" stroke="#323332"/>
<rect x="1827.04" y="416.048" width="100" height="100" transform="rotate(-15 1827.04 416.048)" stroke="#323332"/>
<rect x="1923.63" y="390.166" width="100" height="100" transform="rotate(-15 1923.63 390.166)" stroke="#323332"/>
<rect x="-78.9268" y="1030.28" width="100" height="100" transform="rotate(-15 -78.9268 1030.28)" stroke="#323332"/>
<rect x="17.666" y="1004.4" width="100" height="100" transform="rotate(-15 17.666 1004.4)" stroke="#323332"/>
<rect x="114.258" y="978.515" width="100" height="100" transform="rotate(-15 114.258 978.515)" stroke="#323332"/>
<rect x="210.851" y="952.633" width="100" height="100" transform="rotate(-15 210.851 952.633)" stroke="#323332"/>
<rect x="307.443" y="926.751" width="100" height="100" transform="rotate(-15 307.443 926.751)" stroke="#323332"/>
<rect x="404.036" y="900.869" width="100" height="100" transform="rotate(-15 404.036 900.869)" stroke="#323332"/>
<rect x="500.629" y="874.987" width="100" height="100" transform="rotate(-15 500.629 874.987)" stroke="#323332"/>
<rect x="597.221" y="849.105" width="100" height="100" transform="rotate(-15 597.221 849.105)" stroke="#323332"/>
<rect x="693.813" y="823.223" width="100" height="100" transform="rotate(-15 693.813 823.223)" stroke="#323332"/>
<rect x="790.406" y="797.341" width="100" height="100" transform="rotate(-15 790.406 797.341)" stroke="#323332"/>
<rect x="886.999" y="771.459" width="100" height="100" transform="rotate(-15 886.999 771.459)" stroke="#323332"/>
<rect x="983.592" y="745.578" width="100" height="100" transform="rotate(-15 983.592 745.578)" stroke="#323332"/>
<rect x="1080.18" y="719.696" width="100" height="100" transform="rotate(-15 1080.18 719.696)" stroke="#323332"/>
<rect x="1176.78" y="693.814" width="100" height="100" transform="rotate(-15 1176.78 693.814)" stroke="#323332"/>
<rect x="1273.37" y="667.932" width="100" height="100" transform="rotate(-15 1273.37 667.932)" stroke="#323332"/>
<rect x="1369.96" y="642.05" width="100" height="100" transform="rotate(-15 1369.96 642.05)" stroke="#323332"/>
<rect x="1466.55" y="616.168" width="100" height="100" transform="rotate(-15 1466.55 616.168)" stroke="#323332"/>
<rect x="1563.15" y="590.286" width="100" height="100" transform="rotate(-15 1563.15 590.286)" stroke="#323332"/>
<rect x="1659.74" y="564.404" width="100" height="100" transform="rotate(-15 1659.74 564.404)" stroke="#323332"/>
<rect x="1756.33" y="538.522" width="100" height="100" transform="rotate(-15 1756.33 538.522)" stroke="#323332"/>
<rect x="1852.92" y="512.64" width="100" height="100" transform="rotate(-15 1852.92 512.64)" stroke="#323332"/>
<rect x="1949.52" y="486.759" width="100" height="100" transform="rotate(-15 1949.52 486.759)" stroke="#323332"/>
<rect x="-53.0449" y="1126.87" width="100" height="100" transform="rotate(-15 -53.0449 1126.87)" stroke="#323332"/>
<rect x="43.5479" y="1100.99" width="100" height="100" transform="rotate(-15 43.5479 1100.99)" stroke="#323332"/>
<rect x="140.141" y="1075.11" width="100" height="100" transform="rotate(-15 140.141 1075.11)" stroke="#323332"/>
<rect x="236.732" y="1049.23" width="100" height="100" transform="rotate(-15 236.732 1049.23)" stroke="#323332"/>
<rect x="333.325" y="1023.34" width="100" height="100" transform="rotate(-15 333.325 1023.34)" stroke="#323332"/>
<rect x="429.918" y="997.462" width="100" height="100" transform="rotate(-15 429.918 997.462)" stroke="#323332"/>
<rect x="526.511" y="971.58" width="100" height="100" transform="rotate(-15 526.511 971.58)" stroke="#323332"/>
<rect x="623.104" y="945.698" width="100" height="100" transform="rotate(-15 623.104 945.698)" stroke="#323332"/>
<rect x="719.695" y="919.816" width="100" height="100" transform="rotate(-15 719.695 919.816)" stroke="#323332"/>
<rect x="816.288" y="893.934" width="100" height="100" transform="rotate(-15 816.288 893.934)" stroke="#323332"/>
<rect x="912.881" y="868.052" width="100" height="100" transform="rotate(-15 912.881 868.052)" stroke="#323332"/>
<rect x="1009.47" y="842.17" width="100" height="100" transform="rotate(-15 1009.47 842.17)" stroke="#323332"/>
<rect x="1106.07" y="816.288" width="100" height="100" transform="rotate(-15 1106.07 816.288)" stroke="#323332"/>
<rect x="1202.66" y="790.406" width="100" height="100" transform="rotate(-15 1202.66 790.406)" stroke="#323332"/>
<rect x="1299.25" y="764.524" width="100" height="100" transform="rotate(-15 1299.25 764.524)" stroke="#323332"/>
<rect x="1395.84" y="738.643" width="100" height="100" transform="rotate(-15 1395.84 738.643)" stroke="#323332"/>
<rect x="1492.44" y="712.761" width="100" height="100" transform="rotate(-15 1492.44 712.761)" stroke="#323332"/>
<rect x="1589.03" y="686.879" width="100" height="100" transform="rotate(-15 1589.03 686.879)" stroke="#323332"/>
<rect x="1685.62" y="660.997" width="100" height="100" transform="rotate(-15 1685.62 660.997)" stroke="#323332"/>
<rect x="1782.21" y="635.115" width="100" height="100" transform="rotate(-15 1782.21 635.115)" stroke="#323332"/>
<rect x="1878.81" y="609.233" width="100" height="100" transform="rotate(-15 1878.81 609.233)" stroke="#323332"/>
<rect x="1975.4" y="583.351" width="100" height="100" transform="rotate(-15 1975.4 583.351)" stroke="#323332"/>
<rect x="-27.1631" y="1223.46" width="100" height="100" transform="rotate(-15 -27.1631 1223.46)" stroke="#323332"/>
<rect x="69.4297" y="1197.58" width="100" height="100" transform="rotate(-15 69.4297 1197.58)" stroke="#323332"/>
<rect x="166.022" y="1171.7" width="100" height="100" transform="rotate(-15 166.022 1171.7)" stroke="#323332"/>
<rect x="262.614" y="1145.82" width="100" height="100" transform="rotate(-15 262.614 1145.82)" stroke="#323332"/>
<rect x="359.207" y="1119.94" width="100" height="100" transform="rotate(-15 359.207 1119.94)" stroke="#323332"/>
<rect x="455.8" y="1094.05" width="100" height="100" transform="rotate(-15 455.8 1094.05)" stroke="#323332"/>
<rect x="552.393" y="1068.17" width="100" height="100" transform="rotate(-15 552.393 1068.17)" stroke="#323332"/>
<rect x="648.985" y="1042.29" width="100" height="100" transform="rotate(-15 648.985 1042.29)" stroke="#323332"/>
<rect x="745.577" y="1016.41" width="100" height="100" transform="rotate(-15 745.577 1016.41)" stroke="#323332"/>
<rect x="842.17" y="990.527" width="100" height="100" transform="rotate(-15 842.17 990.527)" stroke="#323332"/>
<rect x="938.763" y="964.645" width="100" height="100" transform="rotate(-15 938.763 964.645)" stroke="#323332"/>
<rect x="1035.36" y="938.763" width="100" height="100" transform="rotate(-15 1035.36 938.763)" stroke="#323332"/>
<rect x="1131.95" y="912.881" width="100" height="100" transform="rotate(-15 1131.95 912.881)" stroke="#323332"/>
<rect x="1228.54" y="886.999" width="100" height="100" transform="rotate(-15 1228.54 886.999)" stroke="#323332"/>
<rect x="1325.13" y="861.117" width="100" height="100" transform="rotate(-15 1325.13 861.117)" stroke="#323332"/>
<rect x="1421.73" y="835.235" width="100" height="100" transform="rotate(-15 1421.73 835.235)" stroke="#323332"/>
<rect x="1518.32" y="809.353" width="100" height="100" transform="rotate(-15 1518.32 809.353)" stroke="#323332"/>
<rect x="1614.91" y="783.471" width="100" height="100" transform="rotate(-15 1614.91 783.471)" stroke="#323332"/>
<rect x="1711.5" y="757.589" width="100" height="100" transform="rotate(-15 1711.5 757.589)" stroke="#323332"/>
<rect x="1808.1" y="731.708" width="100" height="100" transform="rotate(-15 1808.1 731.708)" stroke="#323332"/>
<rect x="1904.69" y="705.826" width="100" height="100" transform="rotate(-15 1904.69 705.826)" stroke="#323332"/>
<rect x="-97.874" y="1345.94" width="100" height="100" transform="rotate(-15 -97.874 1345.94)" stroke="#323332"/>
<rect x="-1.28125" y="1320.06" width="100" height="100" transform="rotate(-15 -1.28125 1320.06)" stroke="#323332"/>
<rect x="95.3115" y="1294.17" width="100" height="100" transform="rotate(-15 95.3115 1294.17)" stroke="#323332"/>
<rect x="191.904" y="1268.29" width="100" height="100" transform="rotate(-15 191.904 1268.29)" stroke="#323332"/>
<rect x="288.496" y="1242.41" width="100" height="100" transform="rotate(-15 288.496 1242.41)" stroke="#323332"/>
<rect x="385.089" y="1216.53" width="100" height="100" transform="rotate(-15 385.089 1216.53)" stroke="#323332"/>
<rect x="481.682" y="1190.65" width="100" height="100" transform="rotate(-15 481.682 1190.65)" stroke="#323332"/>
<rect x="578.274" y="1164.76" width="100" height="100" transform="rotate(-15 578.274 1164.76)" stroke="#323332"/>
<rect x="674.867" y="1138.88" width="100" height="100" transform="rotate(-15 674.867 1138.88)" stroke="#323332"/>
<rect x="771.459" y="1113" width="100" height="100" transform="rotate(-15 771.459 1113)" stroke="#323332"/>
<rect x="868.052" y="1087.12" width="100" height="100" transform="rotate(-15 868.052 1087.12)" stroke="#323332"/>
<rect x="964.645" y="1061.24" width="100" height="100" transform="rotate(-15 964.645 1061.24)" stroke="#323332"/>
<rect x="1061.24" y="1035.36" width="100" height="100" transform="rotate(-15 1061.24 1035.36)" stroke="#323332"/>
<rect x="1157.83" y="1009.47" width="100" height="100" transform="rotate(-15 1157.83 1009.47)" stroke="#323332"/>
<rect x="1254.42" y="983.592" width="100" height="100" transform="rotate(-15 1254.42 983.592)" stroke="#323332"/>
<rect x="1351.01" y="957.709" width="100" height="100" transform="rotate(-15 1351.01 957.709)" stroke="#323332"/>
<rect x="1447.61" y="931.828" width="100" height="100" transform="rotate(-15 1447.61 931.828)" stroke="#323332"/>
<rect x="1544.2" y="905.946" width="100" height="100" transform="rotate(-15 1544.2 905.946)" stroke="#323332"/>
<rect x="1640.79" y="880.064" width="100" height="100" transform="rotate(-15 1640.79 880.064)" stroke="#323332"/>
<rect x="1737.38" y="854.182" width="100" height="100" transform="rotate(-15 1737.38 854.182)" stroke="#323332"/>
<rect x="1833.98" y="828.3" width="100" height="100" transform="rotate(-15 1833.98 828.3)" stroke="#323332"/>
<rect x="1930.57" y="802.418" width="100" height="100" transform="rotate(-15 1930.57 802.418)" stroke="#323332"/>
<rect x="-71.9922" y="1442.53" width="100" height="100" transform="rotate(-15 -71.9922 1442.53)" stroke="#323332"/>
<rect x="24.6006" y="1416.65" width="100" height="100" transform="rotate(-15 24.6006 1416.65)" stroke="#323332"/>
<rect x="121.193" y="1390.77" width="100" height="100" transform="rotate(-15 121.193 1390.77)" stroke="#323332"/>
<rect x="217.786" y="1364.89" width="100" height="100" transform="rotate(-15 217.786 1364.89)" stroke="#323332"/>
<rect x="314.379" y="1339" width="100" height="100" transform="rotate(-15 314.379 1339)" stroke="#323332"/>
<rect x="410.971" y="1313.12" width="100" height="100" transform="rotate(-15 410.971 1313.12)" stroke="#323332"/>
<rect x="507.563" y="1287.24" width="100" height="100" transform="rotate(-15 507.563 1287.24)" stroke="#323332"/>
<rect x="604.156" y="1261.36" width="100" height="100" transform="rotate(-15 604.156 1261.36)" stroke="#323332"/>
<rect x="700.749" y="1235.48" width="100" height="100" transform="rotate(-15 700.749 1235.48)" stroke="#323332"/>
<rect x="797.342" y="1209.59" width="100" height="100" transform="rotate(-15 797.342 1209.59)" stroke="#323332"/>
<rect x="893.934" y="1183.71" width="100" height="100" transform="rotate(-15 893.934 1183.71)" stroke="#323332"/>
<rect x="990.526" y="1157.83" width="100" height="100" transform="rotate(-15 990.526 1157.83)" stroke="#323332"/>
<rect x="1087.12" y="1131.95" width="100" height="100" transform="rotate(-15 1087.12 1131.95)" stroke="#323332"/>
<rect x="1183.71" y="1106.07" width="100" height="100" transform="rotate(-15 1183.71 1106.07)" stroke="#323332"/>
<rect x="1280.3" y="1080.18" width="100" height="100" transform="rotate(-15 1280.3 1080.18)" stroke="#323332"/>
<rect x="1376.9" y="1054.3" width="100" height="100" transform="rotate(-15 1376.9 1054.3)" stroke="#323332"/>
<rect x="1473.49" y="1028.42" width="100" height="100" transform="rotate(-15 1473.49 1028.42)" stroke="#323332"/>
<rect x="1570.08" y="1002.54" width="100" height="100" transform="rotate(-15 1570.08 1002.54)" stroke="#323332"/>
<rect x="1666.67" y="976.656" width="100" height="100" transform="rotate(-15 1666.67 976.656)" stroke="#323332"/>
<rect x="1763.27" y="950.775" width="100" height="100" transform="rotate(-15 1763.27 950.775)" stroke="#323332"/>
<rect x="1859.86" y="924.893" width="100" height="100" transform="rotate(-15 1859.86 924.893)" stroke="#323332"/>
<rect x="1956.45" y="899.011" width="100" height="100" transform="rotate(-15 1956.45 899.011)" stroke="#323332"/>
<rect x="-46.1104" y="1539.12" width="100" height="100" transform="rotate(-15 -46.1104 1539.12)" stroke="#323332"/>
<rect x="50.4824" y="1513.24" width="100" height="100" transform="rotate(-15 50.4824 1513.24)" stroke="#323332"/>
<rect x="147.075" y="1487.36" width="100" height="100" transform="rotate(-15 147.075 1487.36)" stroke="#323332"/>
<rect x="243.668" y="1461.48" width="100" height="100" transform="rotate(-15 243.668 1461.48)" stroke="#323332"/>
<rect x="340.261" y="1435.6" width="100" height="100" transform="rotate(-15 340.261 1435.6)" stroke="#323332"/>
<rect x="436.853" y="1409.71" width="100" height="100" transform="rotate(-15 436.853 1409.71)" stroke="#323332"/>
<rect x="533.445" y="1383.83" width="100" height="100" transform="rotate(-15 533.445 1383.83)" stroke="#323332"/>
<rect x="630.038" y="1357.95" width="100" height="100" transform="rotate(-15 630.038 1357.95)" stroke="#323332"/>
<rect x="726.631" y="1332.07" width="100" height="100" transform="rotate(-15 726.631 1332.07)" stroke="#323332"/>
<rect x="823.224" y="1306.19" width="100" height="100" transform="rotate(-15 823.224 1306.19)" stroke="#323332"/>
<rect x="919.815" y="1280.3" width="100" height="100" transform="rotate(-15 919.815 1280.3)" stroke="#323332"/>
<rect x="1016.41" y="1254.42" width="100" height="100" transform="rotate(-15 1016.41 1254.42)" stroke="#323332"/>
<rect x="1113" y="1228.54" width="100" height="100" transform="rotate(-15 1113 1228.54)" stroke="#323332"/>
<rect x="1209.59" y="1202.66" width="100" height="100" transform="rotate(-15 1209.59 1202.66)" stroke="#323332"/>
<rect x="1306.19" y="1176.78" width="100" height="100" transform="rotate(-15 1306.19 1176.78)" stroke="#323332"/>
<rect x="1402.78" y="1150.89" width="100" height="100" transform="rotate(-15 1402.78 1150.89)" stroke="#323332"/>
<rect x="1499.37" y="1125.01" width="100" height="100" transform="rotate(-15 1499.37 1125.01)" stroke="#323332"/>
<rect x="1595.96" y="1099.13" width="100" height="100" transform="rotate(-15 1595.96 1099.13)" stroke="#323332"/>
<rect x="1692.56" y="1073.25" width="100" height="100" transform="rotate(-15 1692.56 1073.25)" stroke="#323332"/>
<rect x="1789.15" y="1047.37" width="100" height="100" transform="rotate(-15 1789.15 1047.37)" stroke="#323332"/>
<rect x="1885.74" y="1021.49" width="100" height="100" transform="rotate(-15 1885.74 1021.49)" stroke="#323332"/>
<rect x="1982.33" y="995.603" width="100" height="100" transform="rotate(-15 1982.33 995.603)" stroke="#323332"/>
<rect x="-116.82" y="1661.6" width="100" height="100" transform="rotate(-15 -116.82 1661.6)" stroke="#323332"/>
<rect x="-20.2285" y="1635.72" width="100" height="100" transform="rotate(-15 -20.2285 1635.72)" stroke="#323332"/>
<rect x="76.3643" y="1609.83" width="100" height="100" transform="rotate(-15 76.3643 1609.83)" stroke="#323332"/>
<rect x="172.957" y="1583.95" width="100" height="100" transform="rotate(-15 172.957 1583.95)" stroke="#323332"/>
<rect x="269.55" y="1558.07" width="100" height="100" transform="rotate(-15 269.55 1558.07)" stroke="#323332"/>
<rect x="366.143" y="1532.19" width="100" height="100" transform="rotate(-15 366.143 1532.19)" stroke="#323332"/>
<rect x="462.734" y="1506.31" width="100" height="100" transform="rotate(-15 462.734 1506.31)" stroke="#323332"/>
<rect x="559.327" y="1480.42" width="100" height="100" transform="rotate(-15 559.327 1480.42)" stroke="#323332"/>
<rect x="655.92" y="1454.54" width="100" height="100" transform="rotate(-15 655.92 1454.54)" stroke="#323332"/>
<rect x="752.513" y="1428.66" width="100" height="100" transform="rotate(-15 752.513 1428.66)" stroke="#323332"/>
<rect x="849.105" y="1402.78" width="100" height="100" transform="rotate(-15 849.105 1402.78)" stroke="#323332"/>
<rect x="945.697" y="1376.9" width="100" height="100" transform="rotate(-15 945.697 1376.9)" stroke="#323332"/>
<rect x="1042.29" y="1351.02" width="100" height="100" transform="rotate(-15 1042.29 1351.02)" stroke="#323332"/>
<rect x="1138.88" y="1325.13" width="100" height="100" transform="rotate(-15 1138.88 1325.13)" stroke="#323332"/>
<rect x="1235.48" y="1299.25" width="100" height="100" transform="rotate(-15 1235.48 1299.25)" stroke="#323332"/>
<rect x="1332.07" y="1273.37" width="100" height="100" transform="rotate(-15 1332.07 1273.37)" stroke="#323332"/>
<rect x="1428.66" y="1247.49" width="100" height="100" transform="rotate(-15 1428.66 1247.49)" stroke="#323332"/>
<rect x="1525.25" y="1221.61" width="100" height="100" transform="rotate(-15 1525.25 1221.61)" stroke="#323332"/>
<rect x="1621.85" y="1195.72" width="100" height="100" transform="rotate(-15 1621.85 1195.72)" stroke="#323332"/>
<rect x="1718.44" y="1169.84" width="100" height="100" transform="rotate(-15 1718.44 1169.84)" stroke="#323332"/>
<rect x="1815.03" y="1143.96" width="100" height="100" transform="rotate(-15 1815.03 1143.96)" stroke="#323332"/>
<rect x="1911.62" y="1118.08" width="100" height="100" transform="rotate(-15 1911.62 1118.08)" stroke="#323332"/>
<rect x="-90.9385" y="1758.19" width="100" height="100" transform="rotate(-15 -90.9385 1758.19)" stroke="#323332"/>
<rect x="5.6543" y="1732.31" width="100" height="100" transform="rotate(-15 5.6543 1732.31)" stroke="#323332"/>
<rect x="102.246" y="1706.43" width="100" height="100" transform="rotate(-15 102.246 1706.43)" stroke="#323332"/>
<rect x="198.839" y="1680.54" width="100" height="100" transform="rotate(-15 198.839 1680.54)" stroke="#323332"/>
<rect x="295.432" y="1654.66" width="100" height="100" transform="rotate(-15 295.432 1654.66)" stroke="#323332"/>
<rect x="392.024" y="1628.78" width="100" height="100" transform="rotate(-15 392.024 1628.78)" stroke="#323332"/>
<rect x="488.617" y="1602.9" width="100" height="100" transform="rotate(-15 488.617 1602.9)" stroke="#323332"/>
<rect x="585.209" y="1577.02" width="100" height="100" transform="rotate(-15 585.209 1577.02)" stroke="#323332"/>
<rect x="681.802" y="1551.14" width="100" height="100" transform="rotate(-15 681.802 1551.14)" stroke="#323332"/>
<rect x="778.395" y="1525.25" width="100" height="100" transform="rotate(-15 778.395 1525.25)" stroke="#323332"/>
<rect x="874.987" y="1499.37" width="100" height="100" transform="rotate(-15 874.987 1499.37)" stroke="#323332"/>
<rect x="971.58" y="1473.49" width="100" height="100" transform="rotate(-15 971.58 1473.49)" stroke="#323332"/>
<rect x="1068.17" y="1447.61" width="100" height="100" transform="rotate(-15 1068.17 1447.61)" stroke="#323332"/>
<rect x="1164.76" y="1421.73" width="100" height="100" transform="rotate(-15 1164.76 1421.73)" stroke="#323332"/>
<rect x="1261.36" y="1395.84" width="100" height="100" transform="rotate(-15 1261.36 1395.84)" stroke="#323332"/>
<rect x="1357.95" y="1369.96" width="100" height="100" transform="rotate(-15 1357.95 1369.96)" stroke="#323332"/>
<rect x="1454.54" y="1344.08" width="100" height="100" transform="rotate(-15 1454.54 1344.08)" stroke="#323332"/>
<rect x="1551.13" y="1318.2" width="100" height="100" transform="rotate(-15 1551.13 1318.2)" stroke="#323332"/>
<rect x="1647.73" y="1292.32" width="100" height="100" transform="rotate(-15 1647.73 1292.32)" stroke="#323332"/>
<rect x="1744.32" y="1266.43" width="100" height="100" transform="rotate(-15 1744.32 1266.43)" stroke="#323332"/>
<rect x="1840.91" y="1240.55" width="100" height="100" transform="rotate(-15 1840.91 1240.55)" stroke="#323332"/>
<rect x="1937.51" y="1214.67" width="100" height="100" transform="rotate(-15 1937.51 1214.67)" stroke="#323332"/>
<rect x="-65.0566" y="1854.78" width="100" height="100" transform="rotate(-15 -65.0566 1854.78)" stroke="#323332"/>
<rect x="31.5361" y="1828.9" width="100" height="100" transform="rotate(-15 31.5361 1828.9)" stroke="#323332"/>
<rect x="128.128" y="1803.02" width="100" height="100" transform="rotate(-15 128.128 1803.02)" stroke="#323332"/>
<rect x="224.721" y="1777.14" width="100" height="100" transform="rotate(-15 224.721 1777.14)" stroke="#323332"/>
<rect x="321.313" y="1751.26" width="100" height="100" transform="rotate(-15 321.313 1751.26)" stroke="#323332"/>
<rect x="417.906" y="1725.37" width="100" height="100" transform="rotate(-15 417.906 1725.37)" stroke="#323332"/>
<rect x="514.499" y="1699.49" width="100" height="100" transform="rotate(-15 514.499 1699.49)" stroke="#323332"/>
<rect x="611.091" y="1673.61" width="100" height="100" transform="rotate(-15 611.091 1673.61)" stroke="#323332"/>
<rect x="707.684" y="1647.73" width="100" height="100" transform="rotate(-15 707.684 1647.73)" stroke="#323332"/>
<rect x="804.276" y="1621.85" width="100" height="100" transform="rotate(-15 804.276 1621.85)" stroke="#323332"/>
<rect x="900.869" y="1595.96" width="100" height="100" transform="rotate(-15 900.869 1595.96)" stroke="#323332"/>
<rect x="997.462" y="1570.08" width="100" height="100" transform="rotate(-15 997.462 1570.08)" stroke="#323332"/>
<rect x="1094.05" y="1544.2" width="100" height="100" transform="rotate(-15 1094.05 1544.2)" stroke="#323332"/>
<rect x="1190.65" y="1518.32" width="100" height="100" transform="rotate(-15 1190.65 1518.32)" stroke="#323332"/>
<rect x="1287.24" y="1492.44" width="100" height="100" transform="rotate(-15 1287.24 1492.44)" stroke="#323332"/>
<rect x="1383.83" y="1466.55" width="100" height="100" transform="rotate(-15 1383.83 1466.55)" stroke="#323332"/>
<rect x="1480.42" y="1440.67" width="100" height="100" transform="rotate(-15 1480.42 1440.67)" stroke="#323332"/>
<rect x="1577.02" y="1414.79" width="100" height="100" transform="rotate(-15 1577.02 1414.79)" stroke="#323332"/>
<rect x="1673.61" y="1388.91" width="100" height="100" transform="rotate(-15 1673.61 1388.91)" stroke="#323332"/>
<rect x="1770.2" y="1363.03" width="100" height="100" transform="rotate(-15 1770.2 1363.03)" stroke="#323332"/>
<rect x="1866.79" y="1337.15" width="100" height="100" transform="rotate(-15 1866.79 1337.15)" stroke="#323332"/>
<rect x="1963.39" y="1311.26" width="100" height="100" transform="rotate(-15 1963.39 1311.26)" stroke="#323332"/>
<rect x="-39.1748" y="1951.38" width="100" height="100" transform="rotate(-15 -39.1748 1951.38)" stroke="#323332"/>
<rect x="57.418" y="1925.49" width="100" height="100" transform="rotate(-15 57.418 1925.49)" stroke="#323332"/>
<rect x="154.01" y="1899.61" width="100" height="100" transform="rotate(-15 154.01 1899.61)" stroke="#323332"/>
<rect x="250.603" y="1873.73" width="100" height="100" transform="rotate(-15 250.603 1873.73)" stroke="#323332"/>
<rect x="347.195" y="1847.85" width="100" height="100" transform="rotate(-15 347.195 1847.85)" stroke="#323332"/>
<rect x="443.788" y="1821.97" width="100" height="100" transform="rotate(-15 443.788 1821.97)" stroke="#323332"/>
<rect x="540.381" y="1796.08" width="100" height="100" transform="rotate(-15 540.381 1796.08)" stroke="#323332"/>
<rect x="636.973" y="1770.2" width="100" height="100" transform="rotate(-15 636.973 1770.2)" stroke="#323332"/>
<rect x="733.565" y="1744.32" width="100" height="100" transform="rotate(-15 733.565 1744.32)" stroke="#323332"/>
<rect x="830.158" y="1718.44" width="100" height="100" transform="rotate(-15 830.158 1718.44)" stroke="#323332"/>
<rect x="926.751" y="1692.56" width="100" height="100" transform="rotate(-15 926.751 1692.56)" stroke="#323332"/>
<rect x="1023.34" y="1666.67" width="100" height="100" transform="rotate(-15 1023.34 1666.67)" stroke="#323332"/>
<rect x="1119.94" y="1640.79" width="100" height="100" transform="rotate(-15 1119.94 1640.79)" stroke="#323332"/>
<rect x="1216.53" y="1614.91" width="100" height="100" transform="rotate(-15 1216.53 1614.91)" stroke="#323332"/>
<rect x="1313.12" y="1589.03" width="100" height="100" transform="rotate(-15 1313.12 1589.03)" stroke="#323332"/>
<rect x="1409.71" y="1563.15" width="100" height="100" transform="rotate(-15 1409.71 1563.15)" stroke="#323332"/>
<rect x="1506.31" y="1537.27" width="100" height="100" transform="rotate(-15 1506.31 1537.27)" stroke="#323332"/>
<rect x="1602.9" y="1511.38" width="100" height="100" transform="rotate(-15 1602.9 1511.38)" stroke="#323332"/>
<rect x="1699.49" y="1485.5" width="100" height="100" transform="rotate(-15 1699.49 1485.5)" stroke="#323332"/>
<rect x="1796.08" y="1459.62" width="100" height="100" transform="rotate(-15 1796.08 1459.62)" stroke="#323332"/>
<rect x="1892.68" y="1433.74" width="100" height="100" transform="rotate(-15 1892.68 1433.74)" stroke="#323332"/>
<rect x="1989.27" y="1407.86" width="100" height="100" transform="rotate(-15 1989.27 1407.86)" stroke="#323332"/>
<rect x="83.2998" y="2022.09" width="100" height="100" transform="rotate(-15 83.2998 2022.09)" stroke="#323332"/>
<rect x="179.893" y="1996.2" width="100" height="100" transform="rotate(-15 179.893 1996.2)" stroke="#323332"/>
<rect x="276.484" y="1970.32" width="100" height="100" transform="rotate(-15 276.484 1970.32)" stroke="#323332"/>
<rect x="373.077" y="1944.44" width="100" height="100" transform="rotate(-15 373.077 1944.44)" stroke="#323332"/>
<rect x="469.67" y="1918.56" width="100" height="100" transform="rotate(-15 469.67 1918.56)" stroke="#323332"/>
<rect x="566.263" y="1892.68" width="100" height="100" transform="rotate(-15 566.263 1892.68)" stroke="#323332"/>
<rect x="662.855" y="1866.79" width="100" height="100" transform="rotate(-15 662.855 1866.79)" stroke="#323332"/>
<rect x="759.447" y="1840.91" width="100" height="100" transform="rotate(-15 759.447 1840.91)" stroke="#323332"/>
<rect x="856.04" y="1815.03" width="100" height="100" transform="rotate(-15 856.04 1815.03)" stroke="#323332"/>
<rect x="952.633" y="1789.15" width="100" height="100" transform="rotate(-15 952.633 1789.15)" stroke="#323332"/>
<rect x="1049.23" y="1763.27" width="100" height="100" transform="rotate(-15 1049.23 1763.27)" stroke="#323332"/>
<rect x="1145.82" y="1737.39" width="100" height="100" transform="rotate(-15 1145.82 1737.39)" stroke="#323332"/>
<rect x="1242.41" y="1711.5" width="100" height="100" transform="rotate(-15 1242.41 1711.5)" stroke="#323332"/>
<rect x="1339" y="1685.62" width="100" height="100" transform="rotate(-15 1339 1685.62)" stroke="#323332"/>
<rect x="1435.6" y="1659.74" width="100" height="100" transform="rotate(-15 1435.6 1659.74)" stroke="#323332"/>
<rect x="1532.19" y="1633.86" width="100" height="100" transform="rotate(-15 1532.19 1633.86)" stroke="#323332"/>
<rect x="1628.78" y="1607.98" width="100" height="100" transform="rotate(-15 1628.78 1607.98)" stroke="#323332"/>
<rect x="1725.37" y="1582.09" width="100" height="100" transform="rotate(-15 1725.37 1582.09)" stroke="#323332"/>
<rect x="1821.97" y="1556.21" width="100" height="100" transform="rotate(-15 1821.97 1556.21)" stroke="#323332"/>
<rect x="1918.56" y="1530.33" width="100" height="100" transform="rotate(-15 1918.56 1530.33)" stroke="#323332"/>
<rect x="495.552" y="2015.15" width="100" height="100" transform="rotate(-15 495.552 2015.15)" stroke="#323332"/>
<rect x="592.145" y="1989.27" width="100" height="100" transform="rotate(-15 592.145 1989.27)" stroke="#323332"/>
<rect x="688.737" y="1963.39" width="100" height="100" transform="rotate(-15 688.737 1963.39)" stroke="#323332"/>
<rect x="785.329" y="1937.51" width="100" height="100" transform="rotate(-15 785.329 1937.51)" stroke="#323332"/>
<rect x="881.922" y="1911.62" width="100" height="100" transform="rotate(-15 881.922 1911.62)" stroke="#323332"/>
<rect x="978.515" y="1885.74" width="100" height="100" transform="rotate(-15 978.515 1885.74)" stroke="#323332"/>
<rect x="1075.11" y="1859.86" width="100" height="100" transform="rotate(-15 1075.11 1859.86)" stroke="#323332"/>
<rect x="1171.7" y="1833.98" width="100" height="100" transform="rotate(-15 1171.7 1833.98)" stroke="#323332"/>
<rect x="1268.29" y="1808.1" width="100" height="100" transform="rotate(-15 1268.29 1808.1)" stroke="#323332"/>
<rect x="1364.88" y="1782.21" width="100" height="100" transform="rotate(-15 1364.88 1782.21)" stroke="#323332"/>
<rect x="1461.48" y="1756.33" width="100" height="100" transform="rotate(-15 1461.48 1756.33)" stroke="#323332"/>
<rect x="1558.07" y="1730.45" width="100" height="100" transform="rotate(-15 1558.07 1730.45)" stroke="#323332"/>
<rect x="1654.66" y="1704.57" width="100" height="100" transform="rotate(-15 1654.66 1704.57)" stroke="#323332"/>
<rect x="1751.26" y="1678.69" width="100" height="100" transform="rotate(-15 1751.26 1678.69)" stroke="#323332"/>
<rect x="1847.85" y="1652.8" width="100" height="100" transform="rotate(-15 1847.85 1652.8)" stroke="#323332"/>
<rect x="1944.44" y="1626.92" width="100" height="100" transform="rotate(-15 1944.44 1626.92)" stroke="#323332"/>
<rect x="907.804" y="2008.22" width="100" height="100" transform="rotate(-15 907.804 2008.22)" stroke="#323332"/>
<rect x="1004.4" y="1982.33" width="100" height="100" transform="rotate(-15 1004.4 1982.33)" stroke="#323332"/>
<rect x="1100.99" y="1956.45" width="100" height="100" transform="rotate(-15 1100.99 1956.45)" stroke="#323332"/>
<rect x="1197.58" y="1930.57" width="100" height="100" transform="rotate(-15 1197.58 1930.57)" stroke="#323332"/>
<rect x="1294.17" y="1904.69" width="100" height="100" transform="rotate(-15 1294.17 1904.69)" stroke="#323332"/>
<rect x="1390.77" y="1878.81" width="100" height="100" transform="rotate(-15 1390.77 1878.81)" stroke="#323332"/>
<rect x="1487.36" y="1852.92" width="100" height="100" transform="rotate(-15 1487.36 1852.92)" stroke="#323332"/>
<rect x="1583.95" y="1827.04" width="100" height="100" transform="rotate(-15 1583.95 1827.04)" stroke="#323332"/>
<rect x="1680.54" y="1801.16" width="100" height="100" transform="rotate(-15 1680.54 1801.16)" stroke="#323332"/>
<rect x="1777.14" y="1775.28" width="100" height="100" transform="rotate(-15 1777.14 1775.28)" stroke="#323332"/>
<rect x="1873.73" y="1749.4" width="100" height="100" transform="rotate(-15 1873.73 1749.4)" stroke="#323332"/>
<rect x="1970.32" y="1723.52" width="100" height="100" transform="rotate(-15 1970.32 1723.52)" stroke="#323332"/>
<rect x="1320.06" y="2001.28" width="100" height="100" transform="rotate(-15 1320.06 2001.28)" stroke="#323332"/>
<rect x="1416.65" y="1975.4" width="100" height="100" transform="rotate(-15 1416.65 1975.4)" stroke="#323332"/>
<rect x="1513.24" y="1949.52" width="100" height="100" transform="rotate(-15 1513.24 1949.52)" stroke="#323332"/>
<rect x="1609.83" y="1923.64" width="100" height="100" transform="rotate(-15 1609.83 1923.64)" stroke="#323332"/>
<rect x="1706.43" y="1897.75" width="100" height="100" transform="rotate(-15 1706.43 1897.75)" stroke="#323332"/>
<rect x="1803.02" y="1871.87" width="100" height="100" transform="rotate(-15 1803.02 1871.87)" stroke="#323332"/>
<rect x="1899.61" y="1845.99" width="100" height="100" transform="rotate(-15 1899.61 1845.99)" stroke="#323332"/>
<rect x="1996.21" y="1820.11" width="100" height="100" transform="rotate(-15 1996.21 1820.11)" stroke="#323332"/>
<rect x="1635.72" y="2020.23" width="100" height="100" transform="rotate(-15 1635.72 2020.23)" stroke="#323332"/>
<rect x="1732.31" y="1994.35" width="100" height="100" transform="rotate(-15 1732.31 1994.35)" stroke="#323332"/>
<rect x="1828.9" y="1968.46" width="100" height="100" transform="rotate(-15 1828.9 1968.46)" stroke="#323332"/>
<rect x="1925.49" y="1942.58" width="100" height="100" transform="rotate(-15 1925.49 1942.58)" stroke="#323332"/>
</g>
<defs>
<clipPath id="clip0_344_11850">
<rect width="2000" height="2000" fill="white"/>
</clipPath>
</defs>
</svg>
