<svg width="492" height="285" viewBox="0 0 492 285" fill="none" xmlns="http://www.w3.org/2000/svg">
<path d="M321.192 279.281L298.761 195.567C298.494 195.859 298.229 196.152 297.964 196.446L320.312 279.847C320.608 279.664 320.901 279.475 321.192 279.281Z" fill="#BEBFBD"/>
<path d="M318.934 280.651L296.742 197.828C296.478 198.132 296.216 198.436 295.955 198.742L318.03 281.127C318.333 280.974 318.635 280.815 318.934 280.651Z" fill="#BEBFBD"/>
<path d="M316.617 281.797L294.747 200.18C294.486 200.496 294.227 200.813 293.97 201.131L315.689 282.19C316 282.065 316.309 281.934 316.617 281.797Z" fill="#BEBFBD"/>
<path d="M314.242 282.733L292.778 202.628C292.521 202.956 292.265 203.286 292.011 203.617L313.293 283.045C313.611 282.946 313.927 282.842 314.242 282.733Z" fill="#BEBFBD"/>
<path d="M311.813 283.464L290.836 205.176C290.582 205.518 290.33 205.862 290.08 206.207L310.843 283.696C311.167 283.624 311.491 283.547 311.813 283.464Z" fill="#BEBFBD"/>
<path d="M309.33 283.993L288.922 207.831C288.672 208.189 288.424 208.547 288.178 208.907L308.338 284.145C308.669 284.1 309 284.049 309.33 283.993Z" fill="#BEBFBD"/>
<path d="M306.792 284.318L287.039 210.602C286.794 210.975 286.55 211.349 286.308 211.724L305.778 284.388C306.116 284.37 306.454 284.347 306.792 284.318Z" fill="#BEBFBD"/>
<path d="M304.197 284.431C304.087 284.431 303.976 284.431 303.866 284.43C303.408 282.269 302.891 280.108 302.312 277.949C301.036 273.183 299.496 268.559 297.713 264.086L284.472 214.669C284.709 214.276 284.948 213.885 285.19 213.495L304.197 284.431Z" fill="#BEBFBD"/>
<path d="M300.804 193.392L322.248 273.422C322.289 274.763 322.304 276.104 322.293 277.444L299.998 194.237C300.265 193.954 300.534 193.672 300.804 193.392Z" fill="#BEBFBD"/>
<path d="M302.868 191.299L320.017 255.299C320.74 258.625 321.287 261.961 321.664 265.301L302.053 192.113C302.324 191.84 302.595 191.569 302.868 191.299Z" fill="#BEBFBD"/>
<path d="M283.376 216.522L293.718 255.122C293.03 253.73 292.318 252.356 291.581 250.999L282.673 217.751C282.905 217.34 283.139 216.93 283.376 216.522Z" fill="#BEBFBD"/>
<path d="M288.598 245.808L281.6 219.693C281.369 220.122 281.14 220.551 280.914 220.983L286.795 242.934C287.408 243.882 288.009 244.84 288.598 245.808Z" fill="#BEBFBD"/>
<path d="M279.868 223.023L284.153 239.015C283.613 238.247 283.065 237.486 282.509 236.733L279.199 224.38C279.419 223.927 279.642 223.474 279.868 223.023Z" fill="#BEBFBD"/>
<path d="M280.055 233.52L278.182 226.53L278.099 226.711L278.015 226.895L278.133 226.992C277.719 227.895 277.316 228.804 276.924 229.718C277.991 230.962 279.035 232.23 280.055 233.52Z" fill="#BEBFBD"/>
<path d="M320.564 251.4L304.131 190.068C304.404 189.806 304.678 189.545 304.953 189.286L321.711 251.826C321.328 251.685 320.946 251.543 320.564 251.4Z" fill="#BEBFBD"/>
<path d="M306.229 188.101L323.474 252.462C323.853 252.596 324.233 252.729 324.613 252.86L307.059 187.348C306.781 187.598 306.504 187.849 306.229 188.101Z" fill="#BEBFBD"/>
<path d="M326.365 253.453L308.347 186.209C308.625 185.966 308.904 185.724 309.185 185.484L327.496 253.824C327.119 253.701 326.741 253.578 326.365 253.453Z" fill="#BEBFBD"/>
<path d="M310.484 184.388L329.237 254.375C329.611 254.491 329.986 254.606 330.361 254.719L311.329 183.691C311.046 183.922 310.765 184.154 310.484 184.388Z" fill="#BEBFBD"/>
<path d="M332.091 255.23L312.64 182.636C312.923 182.412 313.207 182.188 313.492 181.966L333.209 255.549C332.836 255.444 332.463 255.338 332.091 255.23Z" fill="#BEBFBD"/>
<path d="M314.813 180.952L334.928 256.022C335.298 256.122 335.669 256.22 336.04 256.317L315.673 180.308C315.385 180.522 315.099 180.736 314.813 180.952Z" fill="#BEBFBD"/>
<path d="M337.749 256.752L317.005 179.334C317.293 179.126 317.581 178.92 317.871 178.715L338.854 257.023C338.485 256.934 338.117 256.844 337.749 256.752Z" fill="#BEBFBD"/>
<path d="M319.213 177.779L340.554 257.423C340.92 257.507 341.286 257.589 341.653 257.671L320.086 177.185C319.794 177.382 319.503 177.58 319.213 177.779Z" fill="#BEBFBD"/>
<path d="M343.343 258.036L321.438 176.286C321.731 176.095 322.024 175.905 322.318 175.716L344.436 258.261C344.071 258.188 343.707 258.112 343.343 258.036Z" fill="#BEBFBD"/>
<path d="M323.68 174.855L346.117 258.593C346.479 258.662 346.842 258.73 347.204 258.797L324.566 174.308C324.27 174.489 323.974 174.672 323.68 174.855Z" fill="#BEBFBD"/>
<path d="M348.877 259.095L325.937 173.483C326.234 173.307 326.531 173.133 326.829 172.959L349.958 259.278C349.598 259.218 349.237 259.157 348.877 259.095Z" fill="#BEBFBD"/>
<path d="M328.21 172.169L351.622 259.544C351.981 259.6 352.339 259.654 352.698 259.707L329.109 171.669C328.808 171.834 328.509 172.001 328.21 172.169Z" fill="#BEBFBD"/>
<path d="M354.354 259.942L330.499 170.913C330.799 170.752 331.101 170.593 331.403 170.435L355.425 260.085C355.067 260.038 354.711 259.991 354.354 259.942Z" fill="#BEBFBD"/>
<path d="M332.802 169.713L357.072 260.289C357.427 260.331 357.782 260.372 358.137 260.412L333.712 169.257C333.408 169.408 333.105 169.56 332.802 169.713Z" fill="#BEBFBD"/>
<path d="M359.777 260.587L335.121 168.569C335.425 168.423 335.731 168.278 336.037 168.134L360.837 260.691C360.484 260.657 360.13 260.623 359.777 260.587Z" fill="#BEBFBD"/>
<path d="M337.454 167.48L362.469 260.836C362.82 260.866 363.172 260.894 363.524 260.922L338.376 167.066C338.068 167.203 337.76 167.341 337.454 167.48Z" fill="#BEBFBD"/>
<path d="M365.148 261.039L339.802 166.444C340.11 166.312 340.419 166.181 340.729 166.052L366.198 261.105C365.848 261.084 365.498 261.062 365.148 261.039Z" fill="#BEBFBD"/>
<path d="M342.164 165.462L367.815 261.194C368.163 261.212 368.512 261.228 368.86 261.243L343.096 165.091C342.785 165.213 342.474 165.337 342.164 165.462Z" fill="#BEBFBD"/>
<path d="M370.47 261.305L344.54 164.533C344.852 164.415 345.165 164.298 345.478 164.182L371.51 261.336C371.163 261.326 370.816 261.316 370.47 261.305Z" fill="#BEBFBD"/>
<path d="M346.93 163.657L373.112 261.37C373.457 261.375 373.803 261.38 374.148 261.383L347.874 163.326C347.558 163.435 347.244 163.545 346.93 163.657Z" fill="#BEBFBD"/>
<path d="M375.743 261.391L349.334 162.832C349.65 162.727 349.966 162.624 350.283 162.521L376.774 261.387C376.43 261.39 376.086 261.391 375.743 261.391Z" fill="#BEBFBD"/>
<path d="M351.752 162.058L378.362 261.369C378.704 261.363 379.046 261.356 379.389 261.348L352.706 161.768C352.387 161.864 352.069 161.96 351.752 162.058Z" fill="#BEBFBD"/>
<path d="M380.97 261.304L354.183 161.336C354.503 161.245 354.823 161.155 355.143 161.066L381.992 261.267C381.651 261.28 381.31 261.292 380.97 261.304Z" fill="#BEBFBD"/>
<path d="M356.628 160.665L383.566 261.196C383.905 261.18 384.244 261.162 384.584 261.143L357.594 160.415C357.272 160.497 356.95 160.58 356.628 160.665Z" fill="#BEBFBD"/>
<path d="M386.151 261.047L359.087 160.044C359.411 159.966 359.734 159.889 360.058 159.814L387.165 260.977C386.827 261.002 386.489 261.025 386.151 261.047Z" fill="#BEBFBD"/>
<path d="M361.56 159.474L388.725 260.857C389.061 260.83 389.398 260.801 389.734 260.771L362.536 159.264C362.21 159.333 361.885 159.403 361.56 159.474Z" fill="#BEBFBD"/>
<path d="M391.288 260.626L364.046 158.956C364.373 158.891 364.7 158.828 365.027 158.766L392.293 260.524C391.958 260.559 391.623 260.593 391.288 260.626Z" fill="#BEBFBD"/>
<path d="M366.546 158.489L393.841 260.355C394.174 260.317 394.508 260.277 394.841 260.237L367.533 158.32C367.204 158.375 366.875 158.431 366.546 158.489Z" fill="#BEBFBD"/>
<path d="M396.382 260.043L369.06 158.075C369.391 158.024 369.721 157.974 370.052 157.926L397.379 259.91C397.047 259.956 396.714 260 396.382 260.043Z" fill="#BEBFBD"/>
<path d="M371.588 157.713L398.913 259.693C399.244 259.644 399.575 259.594 399.906 259.544L372.586 157.585C372.253 157.626 371.921 157.668 371.588 157.713Z" fill="#BEBFBD"/>
<path d="M401.434 259.302L374.13 157.404C374.465 157.366 374.799 157.331 375.134 157.297L402.422 259.138C402.093 259.194 401.763 259.249 401.434 259.302Z" fill="#BEBFBD"/>
<path d="M376.687 157.148L403.944 258.873C404.272 258.814 404.6 258.755 404.928 258.694L377.696 157.063C377.36 157.09 377.023 157.118 376.687 157.148Z" fill="#BEBFBD"/>
<path d="M406.443 258.405L379.258 156.947C379.596 156.924 379.935 156.903 380.273 156.883L407.424 258.211C407.097 258.277 406.77 258.341 406.443 258.405Z" fill="#BEBFBD"/>
<path d="M381.844 156.801L408.933 257.899C409.258 257.83 409.584 257.76 409.909 257.689L382.865 156.759C382.525 156.772 382.184 156.786 381.844 156.801Z" fill="#BEBFBD"/>
<path d="M411.412 257.354L384.445 156.711C384.787 156.703 385.13 156.696 385.472 156.691L412.384 257.13C412.06 257.206 411.736 257.28 411.412 257.354Z" fill="#BEBFBD"/>
<path d="M387.061 156.678L413.881 256.772C414.204 256.693 414.526 256.613 414.849 256.532L388.094 156.681C387.75 156.678 387.405 156.677 387.061 156.678Z" fill="#BEBFBD"/>
<path d="M416.34 256.151L389.693 156.702C390.039 156.71 390.386 156.718 390.732 156.728L417.304 255.897C416.983 255.983 416.661 256.067 416.34 256.151Z" fill="#BEBFBD"/>
<path d="M392.34 156.786L418.788 255.493C419.109 255.404 419.429 255.315 419.749 255.224L393.385 156.835C393.037 156.817 392.689 156.801 392.34 156.786Z" fill="#BEBFBD"/>
<path d="M421.227 254.797L395.003 156.929C395.354 156.952 395.705 156.977 396.055 157.003L422.183 254.513C421.865 254.609 421.546 254.703 421.227 254.797Z" fill="#BEBFBD"/>
<path d="M397.683 157.134L423.655 254.063C423.973 253.965 424.291 253.865 424.608 253.764L398.742 157.232C398.389 157.198 398.037 157.165 397.683 157.134Z" fill="#BEBFBD"/>
<path d="M426.074 253.292L400.38 157.402C400.736 157.442 401.091 157.482 401.445 157.525L427.022 252.978C426.706 253.083 426.39 253.188 426.074 253.292Z" fill="#BEBFBD"/>
<path d="M403.094 157.734L428.482 252.482C428.797 252.373 429.112 252.263 429.426 252.152L404.167 157.883C403.809 157.832 403.452 157.782 403.094 157.734Z" fill="#BEBFBD"/>
<path d="M430.879 251.633L405.826 158.133C406.186 158.19 406.546 158.248 406.905 158.308L431.82 251.289C431.507 251.404 431.193 251.519 430.879 251.633Z" fill="#BEBFBD"/>
<path d="M408.576 158.6L433.267 250.746C433.579 250.627 433.891 250.507 434.203 250.386L409.663 158.802C409.301 158.733 408.939 158.666 408.576 158.6Z" fill="#BEBFBD"/>
<path d="M435.644 249.819L411.345 159.137C411.711 159.212 412.075 159.289 412.44 159.368L436.575 249.444C436.265 249.57 435.955 249.695 435.644 249.819Z" fill="#BEBFBD"/>
<path d="M414.134 159.747L438.01 248.854C438.32 248.725 438.629 248.594 438.938 248.463L415.236 160.007C414.869 159.919 414.502 159.832 414.134 159.747Z" fill="#BEBFBD"/>
<path d="M440.366 247.849L416.942 160.432C417.313 160.527 417.683 160.624 418.053 160.723L441.289 247.442C440.982 247.579 440.674 247.714 440.366 247.849Z" fill="#BEBFBD"/>
<path d="M419.772 161.196L442.711 246.803C443.018 246.664 443.324 246.523 443.63 246.381L420.891 161.519C420.519 161.409 420.146 161.302 419.772 161.196Z" fill="#BEBFBD"/>
<path d="M445.045 245.718L422.624 162.042C423 162.158 423.376 162.277 423.751 162.397L445.96 245.28C445.655 245.427 445.35 245.573 445.045 245.718Z" fill="#BEBFBD"/>
<path d="M425.498 162.973L447.368 244.591C447.672 244.441 447.976 244.289 448.279 244.137L426.635 163.363C426.257 163.231 425.878 163.101 425.498 162.973Z" fill="#BEBFBD"/>
<path d="M449.68 243.424L428.397 163.993C428.78 164.134 429.162 164.276 429.544 164.42L450.586 242.953C450.285 243.111 449.983 243.268 449.68 243.424Z" fill="#BEBFBD"/>
<path d="M431.321 165.108L451.981 242.214C452.282 242.053 452.583 241.89 452.883 241.727L432.478 165.574C432.093 165.417 431.707 165.262 431.321 165.108Z" fill="#BEBFBD"/>
<path d="M454.271 240.962L434.271 166.323C434.662 166.49 435.051 166.659 435.439 166.83L455.168 240.458C454.87 240.627 454.571 240.795 454.271 240.962Z" fill="#BEBFBD"/>
<path d="M437.25 167.644L456.549 239.668C456.847 239.495 457.145 239.321 457.442 239.147L438.43 168.194C438.038 168.009 437.645 167.825 437.25 167.644Z" fill="#BEBFBD"/>
<path d="M458.816 238.33L440.26 169.078C440.658 169.275 441.056 169.474 441.452 169.675L459.704 237.791C459.408 237.972 459.112 238.151 458.816 238.33Z" fill="#BEBFBD"/>
<path d="M443.301 170.633L461.07 236.947C461.365 236.763 461.66 236.578 461.954 236.391L444.507 171.28C444.106 171.062 443.704 170.847 443.301 170.633Z" fill="#BEBFBD"/>
<path d="M463.313 235.52L446.378 172.319C446.786 172.551 447.193 172.785 447.598 173.021L464.191 234.946C463.899 235.138 463.606 235.33 463.313 235.52Z" fill="#BEBFBD"/>
<path d="M449.493 174.148L465.543 234.047C465.835 233.851 466.126 233.653 466.417 233.455L450.729 174.909C450.319 174.653 449.907 174.399 449.493 174.148Z" fill="#BEBFBD"/>
<path d="M467.761 232.528L452.65 176.132C453.07 176.405 453.488 176.681 453.904 176.959L468.63 231.917C468.341 232.122 468.052 232.325 467.761 232.528Z" fill="#BEBFBD"/>
<path d="M455.853 178.289L469.966 230.961C470.255 230.752 470.543 230.542 470.83 230.331L457.126 179.189C456.704 178.886 456.279 178.586 455.853 178.289Z" fill="#BEBFBD"/>
<path d="M472.159 229.346L459.108 180.639C459.542 180.963 459.973 181.29 460.403 181.621L473.017 228.697C472.732 228.914 472.446 229.13 472.159 229.346Z" fill="#BEBFBD"/>
<path d="M462.421 183.206L474.338 227.681C474.623 227.459 474.907 227.236 475.191 227.012L463.741 184.283C463.304 183.921 462.863 183.562 462.421 183.206Z" fill="#BEBFBD"/>
<path d="M476.503 225.965L465.801 186.025C466.254 186.417 466.704 186.812 467.151 187.211L477.351 225.277C477.069 225.507 476.787 225.737 476.503 225.965Z" fill="#BEBFBD"/>
<path d="M469.26 189.137L478.655 224.198C478.936 223.963 479.217 223.726 479.497 223.489L470.645 190.453C470.187 190.011 469.725 189.572 469.26 189.137Z" fill="#BEBFBD"/>
<path d="M480.792 222.378L472.813 192.601C473.293 193.089 473.769 193.581 474.241 194.077L481.628 221.647C481.351 221.892 481.072 222.135 480.792 222.378Z" fill="#BEBFBD"/>
<path d="M476.483 196.501L482.915 220.503C483.192 220.253 483.469 220.002 483.745 219.75L477.965 198.18C477.476 197.615 476.982 197.056 476.483 196.501Z" fill="#BEBFBD"/>
<path d="M485.022 218.572L480.304 200.964C480.829 201.608 481.347 202.258 481.859 202.914L485.847 217.797C485.573 218.056 485.298 218.314 485.022 218.572Z" fill="#BEBFBD"/>
<path d="M484.332 206.199C484.894 206.974 485.448 207.756 485.993 208.546L487.933 215.784C487.661 216.051 487.388 216.317 487.114 216.583L484.332 206.199Z" fill="#BEBFBD"/>
<path d="M489.608 214.112C489.469 214.253 489.33 214.393 489.19 214.534L488.674 212.607C488.989 213.106 489.3 213.607 489.608 214.112Z" fill="#BEBFBD"/>
<circle cx="246" cy="147" r="119.5" fill="#EAE5E2" stroke="#080708"/>
<path d="M105.159 166.237C115.78 147.841 139.303 141.538 157.699 152.159L191.893 171.901C176.726 167.431 159.653 171.18 147.686 183.147C153.001 188.463 156.695 194.786 158.768 201.502C145.943 204.071 134.639 212.225 128.269 223.991L119.237 218.777C100.841 208.156 94.5384 184.633 105.159 166.237Z" fill="#080708"/>
<path d="M147.833 131.358C205.332 115.951 239.532 57.1401 224.221 0L16 55.7927C31.3107 112.933 90.3343 146.764 147.833 131.358Z" fill="#080708"/>
<circle cx="281.692" cy="123.692" r="7.69231" fill="#080708"/>
<circle cx="281.692" cy="184.692" r="7.69231" fill="#080708"/>
<path d="M246 220.077C256.196 237.737 281.164 242.41 301.768 230.515C322.371 218.619 330.808 194.66 320.612 177" stroke="#080708"/>
<path d="M375.408 177.862C381.891 176.752 387.857 173.62 392.451 168.912C397.045 164.204 400.031 158.164 400.982 151.655C401.932 145.146 400.798 138.504 397.742 132.679C394.686 126.855 389.864 122.147 383.969 119.23C378.073 116.314 371.405 115.338 364.921 116.443C358.437 117.548 352.469 120.677 347.872 125.381C343.275 130.086 340.285 136.125 339.33 142.633C338.376 149.141 339.506 155.784 342.558 161.611" stroke="#080708"/>
<path d="M429.653 138.645C422.303 123.651 411.855 110.208 398.869 99.3414C402.133 90.9458 401.508 81.9847 397.859 74.4595C400.897 72.7609 403.777 70.6526 406.418 68.1337C418.173 80.4581 420.414 98.4528 413.454 113.285C420.264 113.008 427.521 111.046 434.413 107.281C439.573 116.726 437.307 128.68 429.653 138.645Z" fill="#BEBFBD"/>
<rect x="113.661" y="48.839" width="35.3846" height="6.92307" rx="3.46154" transform="rotate(-75 113.661 48.839)" fill="#BEBFBD"/>
<rect x="100" y="45.179" width="35.3846" height="6.92307" rx="3.46154" transform="rotate(-75 100 45.179)" fill="#BEBFBD"/>
<rect x="329.804" y="48.0214" width="21.5385" height="15.3846" rx="4" transform="rotate(125.845 329.804 48.0214)" stroke="#080708"/>
<path d="M323.638 56.557L319.533 62.2388C318.239 64.0296 315.739 64.4325 313.948 63.1389L307.962 58.8145C306.172 57.5209 305.769 55.0205 307.062 53.2298L311.167 47.5479L323.638 56.557Z" fill="#080708" stroke="#080708"/>
<path d="M367.404 97.4684C364.937 91.1346 357.802 87.9999 351.468 90.467C345.135 92.934 342 100.069 344.467 106.402" stroke="#080708"/>
<path d="M347.452 0.26585C340.156 5.73579 335.353 14.3802 335.131 24.2041C342.244 24.3647 348.738 26.9263 353.857 31.0971C349.451 39.8351 349.278 50.5231 354.334 59.7551C361.362 55.9062 369.234 55.0876 376.447 56.86C378.983 44.4743 388.717 35.0811 400.68 32.6208L347.452 0.26585Z" fill="#BEBFBD"/>
<path d="M131.096 198.529C113.913 188.018 91.1564 190.198 76.2852 205.069C81.6009 210.385 85.2951 216.708 87.3677 223.424C71.2538 226.652 57.5415 238.695 53 255.644C60.3384 257.61 66.7571 261.296 71.9388 266.151C82.1914 236.701 103.596 212.475 131.096 198.529Z" fill="#BEBFBD"/>
</svg>
