<svg width="134" height="127" viewBox="0 0 134 127" fill="none" xmlns="http://www.w3.org/2000/svg">
<rect x="101.908" y="2.94385" width="9.4525" height="6.75178" rx="3.37589" transform="rotate(30 101.908 2.94385)" fill="#EAE5E2" stroke="#080708"/>
<path d="M105.91 5.25391L107.171 5.98177C108.786 6.91399 109.339 8.97866 108.407 10.5933V10.5933C107.475 12.208 105.41 12.7612 103.795 11.829L102.535 11.1011L105.91 5.25391Z" fill="#080708" stroke="#080708"/>
<path d="M97.7233 107.515C104.376 114.167 113.831 115.497 118.843 110.486C112.19 103.833 110.86 94.3779 115.872 89.3664L97.7233 107.515Z" fill="#EAE5E2" stroke="#080708"/>
<path d="M107.304 100.133C115.979 105.142 126.977 102.333 131.869 93.8593C123.194 88.851 120.128 77.9219 125.02 69.4486L107.304 100.133Z" fill="#EAE5E2" stroke="#080708"/>
<path fill-rule="evenodd" clip-rule="evenodd" d="M26.0528 15.772C17.9795 11.1109 7.65621 13.877 2.99507 21.9504C-1.66606 30.0237 1.10006 40.347 9.17338 45.0081L21.3843 52.0581C26.2317 41.197 34.6486 32.2787 45.144 26.7943L26.0528 15.772Z" fill="#080708"/>
<path d="M2.99507 21.9504L2.56206 21.7004L2.56206 21.7004L2.99507 21.9504ZM26.0528 15.772L25.8028 16.2051L25.8028 16.2051L26.0528 15.772ZM9.17338 45.0081L8.92338 45.4411L8.92338 45.4411L9.17338 45.0081ZM21.3843 52.0581L21.1343 52.4911L21.6148 52.7685L21.8409 52.2619L21.3843 52.0581ZM45.144 26.7943L45.3755 27.2375L46.1818 26.8162L45.394 26.3613L45.144 26.7943ZM3.42809 22.2004C7.95115 14.3662 17.9687 11.682 25.8028 16.2051L26.3028 15.339C17.9904 10.5398 7.36126 13.3879 2.56206 21.7004L3.42809 22.2004ZM9.42338 44.5751C1.5892 40.0521 -1.09498 30.0345 3.42809 22.2004L2.56206 21.7004C-2.23714 30.0128 0.610912 40.6419 8.92338 45.4411L9.42338 44.5751ZM21.6343 51.6251L9.42338 44.5751L8.92338 45.4411L21.1343 52.4911L21.6343 51.6251ZM21.8409 52.2619C26.6422 41.504 34.9796 32.6699 45.3755 27.2375L44.9124 26.3512C34.3176 31.8875 25.8212 40.8899 20.9277 51.8543L21.8409 52.2619ZM25.8028 16.2051L44.894 27.2273L45.394 26.3613L26.3028 15.339L25.8028 16.2051Z" fill="#080708"/>
<path fill-rule="evenodd" clip-rule="evenodd" d="M21.6584 29.3714C29.306 21.7238 41.7051 21.7239 49.3527 29.3714L33.3804 45.3438L25.2864 75.551C28.0856 65.1042 21.886 54.3662 11.4392 51.567C13.4323 44.1286 19.4503 38.8434 26.5221 37.4268C25.6125 34.4794 23.9913 31.7043 21.6584 29.3714Z" fill="#EAE5E2"/>
<path d="M49.3527 29.3714L49.7063 29.725L50.0598 29.3714L49.7063 29.0179L49.3527 29.3714ZM21.6584 29.3714L21.3048 29.0179L20.9513 29.3714L21.3048 29.725L21.6584 29.3714ZM33.3804 45.3438L33.0268 44.9902L32.9321 45.085L32.8974 45.2144L33.3804 45.3438ZM11.4392 51.567L10.9562 51.4375L10.8268 51.9205L11.3098 52.0499L11.4392 51.567ZM26.5221 37.4268L26.6203 37.9171L27.1631 37.8083L26.9999 37.2794L26.5221 37.4268ZM49.7063 29.0179C41.8634 21.175 29.1477 21.175 21.3048 29.0179L22.0119 29.725C29.4642 22.2727 41.5468 22.2727 48.9992 29.725L49.7063 29.0179ZM33.7339 45.6973L49.7063 29.725L48.9992 29.0179L33.0268 44.9902L33.7339 45.6973ZM25.7693 75.6804L33.8633 45.4732L32.8974 45.2144L24.8034 75.4215L25.7693 75.6804ZM11.3098 52.0499C21.4898 54.7777 27.5311 65.2415 24.8034 75.4215L25.7693 75.6804C28.64 64.9668 22.2821 53.9547 11.5686 51.084L11.3098 52.0499ZM26.4239 36.9365C19.1728 38.3891 13.0004 43.8085 10.9562 51.4375L11.9222 51.6964C13.8642 44.4486 19.7277 39.2978 26.6203 37.9171L26.4239 36.9365ZM21.3048 29.725C23.5788 31.9989 25.1582 34.7027 26.0443 37.5742L26.9999 37.2794C26.0668 34.256 24.4038 31.4097 22.0119 29.0179L21.3048 29.725Z" fill="#080708"/>
<circle cx="69.5" cy="73.4998" r="52.6639" fill="#EAE5E2" stroke="#080708"/>
<path fill-rule="evenodd" clip-rule="evenodd" d="M95.5443 90.2048L95.5443 119.283C95.6906 119.2 95.8365 119.116 95.9819 119.031V85.7781C95.7624 87.2366 95.6156 88.7129 95.5443 90.2048ZM96.6571 82.2691L96.6571 118.631C96.8035 118.543 96.9493 118.454 97.0947 118.364V80.559C96.9377 81.1257 96.7917 81.6958 96.6571 82.2691ZM97.698 78.5636L97.7699 78.5636V117.941C97.9163 117.847 98.0622 117.753 98.2075 117.659L98.2075 78.5636H98.8827L98.8827 117.211C99.0291 117.113 99.175 117.014 99.3203 116.913V78.5636H99.9955V116.441C100.142 116.337 100.288 116.232 100.433 116.126V78.5636L101.108 78.5636L101.108 115.627C101.255 115.517 101.401 115.406 101.546 115.295V78.5636L102.221 78.5636L102.221 114.768C102.368 114.651 102.513 114.534 102.659 114.416V78.5636H103.334V113.859C103.48 113.736 103.626 113.612 103.771 113.488L103.771 78.5636L104.447 78.5636L104.447 112.899C104.593 112.769 104.739 112.638 104.884 112.506V78.5636L105.559 78.5636L105.559 111.882C105.706 111.744 105.852 111.606 105.997 111.466V89.0139C105.749 86.9153 105.622 84.7799 105.622 82.6147C105.622 73.2265 108.017 64.3977 112.23 56.7061C105.438 62.9018 100.39 70.3511 97.698 78.5636ZM106.672 93.2677L106.672 110.805C106.819 110.659 106.965 110.512 107.11 110.364L107.11 95.2582C106.952 94.5993 106.806 93.9357 106.672 93.2677ZM107.785 97.7974V109.663C107.932 109.507 108.078 109.351 108.223 109.194L108.223 99.2206C108.07 98.749 107.925 98.2746 107.785 97.7974ZM108.898 101.182V108.448C109.045 108.282 109.191 108.116 109.335 107.948L109.335 102.336C109.185 101.954 109.039 101.569 108.898 101.182ZM110.011 103.977L110.011 107.153C110.048 107.107 110.086 107.062 110.123 107.017L110.084 106.963C110.362 106.627 110.636 106.287 110.906 105.944C110.595 105.295 110.296 104.639 110.011 103.977ZM94.8691 119.662L94.8691 91.7961C94.7237 91.6918 94.5779 91.5881 94.4315 91.4849L94.4315 119.9C94.5778 119.821 94.7237 119.742 94.8691 119.662ZM93.7564 120.257V91.0151C93.6109 90.9152 93.465 90.8158 93.3187 90.717V120.482C93.465 120.408 93.6109 120.333 93.7564 120.257ZM92.6436 120.819L92.6436 90.2668C92.4981 90.171 92.3522 90.0758 92.2059 89.9811V121.031C92.3522 120.961 92.4981 120.89 92.6436 120.819ZM91.5308 121.348L91.5308 89.5497C91.3853 89.458 91.2394 89.3668 91.0932 89.2761L91.0932 121.548C91.2394 121.482 91.3853 121.415 91.5308 121.348ZM90.418 121.846V88.8628C90.2725 88.7749 90.1266 88.6876 89.9804 88.6007L89.9804 122.033C90.1266 121.971 90.2724 121.909 90.418 121.846ZM89.3052 122.313L89.3052 88.2049C89.1597 88.1207 89.0138 88.0371 88.8676 87.9539V122.488C89.0138 122.43 89.1596 122.372 89.3052 122.313ZM88.1924 122.75V87.575C88.0469 87.4944 87.901 87.4143 87.7548 87.3347V122.914C87.901 122.86 88.0468 122.805 88.1924 122.75ZM87.0796 123.158V86.9721C86.9341 86.895 86.7882 86.8184 86.642 86.7423L86.642 123.311C86.7881 123.261 86.934 123.21 87.0796 123.158ZM85.9668 123.538V86.3955C85.8213 86.3217 85.6754 86.2485 85.5292 86.1757L85.5292 123.68C85.6753 123.633 85.8212 123.586 85.9668 123.538ZM84.854 123.89V85.8443C84.7084 85.7738 84.5626 85.7039 84.4164 85.6344V124.021C84.5625 123.978 84.7084 123.935 84.854 123.89ZM83.7412 124.216L83.7412 85.3179C83.5956 85.2506 83.4498 85.1838 83.3036 85.1175L83.3036 124.336C83.4497 124.297 83.5956 124.256 83.7412 124.216ZM82.6284 124.514V84.8155C82.4828 84.7514 82.337 84.6877 82.1908 84.6245L82.1908 124.624C82.3369 124.588 82.4828 124.552 82.6284 124.514ZM81.5156 124.787V84.3367C81.37 84.2756 81.2242 84.2149 81.078 84.1547V124.887C81.2241 124.854 81.37 124.821 81.5156 124.787ZM80.4028 125.034L80.4028 83.8808C80.2572 83.8226 80.1114 83.7649 79.9652 83.7077V125.124C80.1113 125.094 80.2572 125.064 80.4028 125.034ZM79.29 125.255V83.4473C79.1444 83.3921 78.9985 83.3373 78.8524 83.2829V125.336C78.9985 125.31 79.1444 125.283 79.29 125.255ZM78.1772 125.452V83.0358C78.0316 82.9834 77.8857 82.9314 77.7396 82.8799V125.523C77.8857 125.5 78.0316 125.476 78.1772 125.452ZM77.0645 125.624L77.0645 82.6458C76.9188 82.5961 76.7729 82.5469 76.6268 82.4982L76.6268 125.686C76.7729 125.666 76.9188 125.645 77.0645 125.624ZM75.9517 125.772L75.9517 82.2769C75.806 82.2299 75.6601 82.1835 75.514 82.1375V125.824C75.6601 125.807 75.806 125.79 75.9517 125.772ZM74.8389 125.896L74.8389 81.9286C74.6932 81.8844 74.5473 81.8406 74.4013 81.7973V125.939C74.5473 125.925 74.6932 125.911 74.8389 125.896ZM73.7261 125.997V81.6008C73.5804 81.5592 73.4345 81.5181 73.2885 81.4774L73.2885 126.03C73.4345 126.019 73.5804 126.008 73.7261 125.997ZM72.6133 126.073L72.6133 81.293C72.4676 81.254 72.3217 81.2155 72.1757 81.1774L72.1757 126.097C72.3217 126.09 72.4676 126.082 72.6133 126.073ZM71.5005 126.126L71.5005 81.0049C71.3548 80.9685 71.2089 80.9325 71.0629 80.897V126.141C71.2089 126.137 71.3548 126.132 71.5005 126.126ZM70.3877 126.156V80.7363C70.242 80.7024 70.0961 80.669 69.9501 80.636L69.9501 126.162C70.0961 126.161 70.242 126.159 70.3877 126.156ZM69.2749 126.163V80.4869C69.1292 80.4555 68.9833 80.4245 68.8373 80.394V126.16C68.983 126.161 69.1289 126.163 69.2749 126.163ZM68.1621 126.147V80.2564C68.0164 80.2275 67.8705 80.199 67.7245 80.1709L67.7245 126.134C67.8702 126.139 68.0161 126.143 68.1621 126.147ZM67.0493 126.108L67.0493 80.0447C66.9036 80.0182 66.7577 79.9921 66.6117 79.9665L66.6117 126.086C66.7574 126.094 66.9033 126.101 67.0493 126.108ZM65.9365 126.045V79.8515C65.7908 79.8274 65.6449 79.8037 65.4989 79.7805L65.4989 126.014C65.6446 126.025 65.7905 126.035 65.9365 126.045ZM64.8237 125.959V79.6766C64.678 79.6549 64.5321 79.6336 64.3861 79.6128V125.919C64.5318 125.933 64.6777 125.946 64.8237 125.959ZM63.7109 125.849L63.7109 79.5199C63.5652 79.5005 63.4193 79.4816 63.2733 79.4632V125.799C63.419 125.817 63.5649 125.833 63.7109 125.849ZM62.5981 125.715L62.5981 79.3812C62.4524 79.3642 62.3065 79.3476 62.1605 79.3315L62.1605 125.656C62.3062 125.677 62.4521 125.696 62.5981 125.715ZM61.4853 125.558L61.4853 79.2603C61.3396 79.2456 61.1937 79.2314 61.0477 79.2176V125.489C61.1934 125.513 61.3393 125.535 61.4853 125.558ZM60.3726 125.376V79.1571C60.2268 79.1447 60.0809 79.1328 59.9349 79.1214L59.9349 125.297C60.0806 125.324 60.2265 125.35 60.3726 125.376ZM59.2598 125.169L59.2598 79.0715C59.114 79.0615 58.9681 79.0518 58.8221 79.0427L58.8221 125.081C58.9678 125.111 59.1137 125.14 59.2598 125.169ZM58.147 124.937V79.0034C58.0012 78.9956 57.8553 78.9883 57.7094 78.9814L57.7094 124.839C57.855 124.872 58.0009 124.905 58.147 124.937ZM57.0342 124.68L57.0342 78.9527C56.8884 78.9471 56.7425 78.9421 56.5966 78.9374L56.5966 124.571C56.7422 124.608 56.8881 124.644 57.0342 124.68ZM55.9214 124.397L55.9214 78.9192C55.7756 78.9159 55.6297 78.9131 55.4838 78.9107V124.278C55.6294 124.318 55.7753 124.358 55.9214 124.397ZM54.8086 124.087L54.8086 78.9029C54.6628 78.9019 54.517 78.9014 54.371 78.9012V123.958C54.5166 124.002 54.6625 124.045 54.8086 124.087ZM53.6958 123.751L53.6958 78.9038C53.5498 78.905 53.4039 78.9067 53.2582 78.9088V123.612C53.4038 123.659 53.5496 123.705 53.6958 123.751ZM52.583 123.388V78.9218C52.437 78.9253 52.2911 78.9292 52.1454 78.9336L52.1454 123.237C52.291 123.288 52.4368 123.338 52.583 123.388ZM51.4702 122.996L51.4702 78.957C51.3242 78.9628 51.1783 78.9689 51.0326 78.9756V122.835C51.1782 122.889 51.324 122.943 51.4702 122.996ZM50.3574 122.577L50.3574 79.0095C50.2114 79.0175 50.0655 79.026 49.9198 79.0349V122.404C50.0653 122.462 50.2112 122.52 50.3574 122.577ZM49.2446 122.128L49.2446 79.0794C49.0986 79.0897 48.9527 79.1004 48.807 79.1116L48.807 121.943C48.9525 122.005 49.0984 122.067 49.2446 122.128ZM48.1318 121.648V79.1667C47.9858 79.1793 47.8399 79.1924 47.6942 79.2059V121.451C47.8397 121.518 47.9856 121.583 48.1318 121.648ZM47.019 121.138L47.019 79.2717C46.873 79.2866 46.7271 79.302 46.5814 79.3178L46.5814 120.929C46.7269 120.999 46.8728 121.069 47.019 121.138ZM45.9062 120.596L45.9062 79.3944C45.7602 79.4116 45.6143 79.4293 45.4686 79.4475L45.4686 120.374C45.6141 120.448 45.76 120.522 45.9062 120.596ZM44.7934 120.02L44.7934 79.5349C44.6474 79.5545 44.5015 79.5746 44.3558 79.5951V119.785C44.5013 119.864 44.6472 119.943 44.7934 120.02ZM43.6807 119.411L43.6807 79.6935C43.5346 79.7155 43.3888 79.7379 43.243 79.7608V119.162C43.3885 119.245 43.5343 119.328 43.6807 119.411ZM42.5679 118.766V79.8702C42.4218 79.8946 42.276 79.9194 42.1302 79.9447V118.502C42.2757 118.591 42.4215 118.678 42.5679 118.766ZM41.4551 118.083L41.4551 80.0653C41.309 80.0921 41.1632 80.1193 41.0174 80.147L41.0174 117.804C41.1628 117.898 41.3087 117.991 41.4551 118.083ZM40.3423 117.362V80.2789C40.1962 80.3081 40.0504 80.3379 39.9047 80.368L39.9047 117.068C40.05 117.166 40.1959 117.265 40.3423 117.362ZM39.2295 116.6L39.2295 80.5113C39.0834 80.543 38.9376 80.5752 38.7919 80.6078L38.7919 116.289C38.9372 116.393 39.0831 116.497 39.2295 116.6ZM38.1167 115.795V80.7626C37.9706 80.7968 37.8248 80.8315 37.6791 80.8667L37.6791 115.467C37.8244 115.577 37.9702 115.687 38.1167 115.795ZM37.0039 114.945L37.0039 81.0332C36.8578 81.07 36.712 81.1072 36.5663 81.1449V114.598C36.7115 114.714 36.8574 114.83 37.0039 114.945ZM35.8911 114.047L35.8911 81.3232C35.745 81.3626 35.5992 81.4024 35.4535 81.4427V113.68C35.5987 113.803 35.7446 113.925 35.8911 114.047ZM34.7783 113.097V81.633C34.6322 81.675 34.4864 81.7175 34.3407 81.7604V112.709C34.4858 112.839 34.6317 112.969 34.7783 113.097ZM33.6655 112.093L33.6655 81.9629C33.5194 82.0076 33.3735 82.0527 33.2279 82.0982L33.2279 111.681C33.373 111.819 33.5189 111.956 33.6655 112.093ZM32.5527 111.028V82.3132C32.4066 82.3606 32.2607 82.4084 32.1151 82.4566V110.592C32.2601 110.739 32.406 110.884 32.5527 111.028ZM31.4399 109.899L31.4399 82.6843C31.2938 82.7344 31.1479 82.7849 31.0023 82.8359L31.0023 109.436C31.1473 109.592 31.2931 109.746 31.4399 109.899ZM30.3271 108.7L30.3271 83.0764C30.181 83.1293 30.0351 83.1827 29.8895 83.2365L29.8895 108.207C30.0344 108.372 30.1802 108.536 30.3271 108.7ZM29.2143 107.421L29.2143 83.4902C29.0682 83.5459 28.9223 83.6022 28.7767 83.6589L28.7767 106.895C28.9215 107.072 29.0673 107.247 29.2143 107.421ZM28.1015 106.056L28.1015 83.9259C27.9554 83.9846 27.8095 84.0437 27.6639 84.1034V105.492C27.8086 105.681 27.9544 105.869 28.1015 106.056ZM26.9887 104.591L26.9887 84.3841C26.8426 84.4458 26.6967 84.5079 26.5511 84.5705L26.5511 103.985C26.6956 104.188 26.8415 104.39 26.9887 104.591ZM25.876 103.012L25.876 84.8653C25.7298 84.93 25.5839 84.9952 25.4383 85.0609L25.4383 102.356C25.5826 102.576 25.7285 102.795 25.876 103.012ZM24.7632 101.3V85.37C24.617 85.4379 24.4711 85.5062 24.3255 85.5751V100.585C24.4696 100.824 24.6154 101.063 24.7632 101.3ZM23.6504 99.428L23.6504 85.8989C23.5042 85.97 23.3583 86.0416 23.2127 86.1137V98.6401C23.3564 98.9041 23.5023 99.1667 23.6504 99.428ZM22.5376 97.3578V86.4526C22.3914 86.527 22.2455 86.6019 22.1 86.6773V96.4778C22.2432 96.7727 22.389 97.0661 22.5376 97.3578ZM21.4248 95.032V87.0319C21.2786 87.1097 21.1327 87.188 20.9872 87.2668L20.9872 94.0285C21.1297 94.3648 21.2755 94.6993 21.4248 95.032ZM20.312 92.3552C20.1615 91.9629 20.0156 91.5684 19.8744 91.1718L19.8744 87.883C20.0199 87.8006 20.1658 87.7188 20.312 87.6374V92.3552ZM19.1992 88.2701C19.124 88.3138 19.049 88.3576 18.974 88.4016C19.0473 88.6504 19.1223 88.8985 19.1992 89.1458V88.2701Z" fill="#BEBFBD"/>
<circle cx="36.0787" cy="67.4233" r="3.37589" fill="#080708"/>
<path d="M59.7098 71.1368C59.7098 68.1537 57.2915 65.7354 54.3084 65.7354C51.3253 65.7354 48.907 68.1537 48.907 71.1368" stroke="#080708"/>
<path d="M36.0787 84.3026C36.0787 93.2519 44.5427 100.507 54.9837 100.507C65.4246 100.507 73.8887 93.2519 73.8887 84.3026" stroke="#080708"/>
<circle cx="73.8886" cy="67.4233" r="3.37589" fill="#080708"/>
<rect x="29.6646" y="55.27" width="15.5291" height="3.0383" rx="1.51915" fill="#BEBFBD"/>
<rect x="67.137" y="55.27" width="15.5291" height="3.0383" rx="1.51915" fill="#BEBFBD"/>
<path d="M112.119 104.444C118.437 95.7568 122.164 85.0636 122.164 73.4999C122.164 72.7409 122.148 71.9856 122.116 71.2344L45.1439 26.7944C34.6485 32.2788 26.2316 41.1971 21.3843 52.0583" stroke="#080708"/>
<path fill-rule="evenodd" clip-rule="evenodd" d="M100.558 51.2188C93.1004 51.2188 87.0547 57.2645 87.0547 64.7223C90.1769 64.7223 93.0515 65.7819 95.3388 67.5611C93.4922 71.4386 93.5223 76.1297 95.832 80.1302C102.291 76.4013 110.549 78.6142 114.278 85.0729L109.394 76.6138C110.19 76.6706 110.74 76.7067 110.855 76.7067C111.12 76.7067 112.775 74.5301 114.387 72.4086C115.853 70.4798 117.285 68.5966 117.607 68.4358C118.147 68.1657 112.093 61.9091 108.998 58.8145L100.558 57.5357V51.2188Z" fill="#EAE5E2"/>
<path d="M87.0547 64.7223H86.5547V65.2223H87.0547V64.7223ZM100.558 51.2188H101.058V50.7188H100.558V51.2188ZM95.3388 67.5611L95.7902 67.7761L95.963 67.4132L95.6458 67.1665L95.3388 67.5611ZM95.832 80.1302L95.399 80.3802L95.649 80.8133L96.082 80.5633L95.832 80.1302ZM109.394 76.6138L109.43 76.1151L108.49 76.0479L108.961 76.8638L109.394 76.6138ZM114.387 72.4086L113.989 72.106L113.989 72.106L114.387 72.4086ZM117.607 68.4358L117.83 68.883L117.83 68.883L117.607 68.4358ZM108.998 58.8145L109.352 58.4609L109.235 58.3448L109.073 58.3201L108.998 58.8145ZM100.558 57.5357H100.058V57.9657L100.483 58.0301L100.558 57.5357ZM87.5547 64.7223C87.5547 57.5406 93.3766 51.7188 100.558 51.7188V50.7188C92.8243 50.7188 86.5547 56.9884 86.5547 64.7223H87.5547ZM95.6458 67.1665C93.2739 65.3214 90.2919 64.2223 87.0547 64.2223V65.2223C90.0618 65.2223 92.8292 66.2424 95.0318 67.9558L95.6458 67.1665ZM96.265 79.8802C94.041 76.0282 94.0114 71.5114 95.7902 67.7761L94.8873 67.3461C92.9731 71.3659 93.0035 76.2312 95.399 80.3802L96.265 79.8802ZM114.711 84.8229C110.844 78.1251 102.28 75.8302 95.582 79.6972L96.082 80.5633C102.301 76.9724 110.254 79.1034 113.845 85.3229L114.711 84.8229ZM108.961 76.8638L113.845 85.3229L114.711 84.8229L109.827 76.3638L108.961 76.8638ZM109.359 77.1125C110.139 77.1683 110.717 77.2067 110.855 77.2067V76.2067C110.763 76.2067 110.24 76.173 109.43 76.1151L109.359 77.1125ZM110.855 77.2067C111.016 77.2067 111.138 77.1348 111.18 77.109C111.24 77.0724 111.296 77.0283 111.343 76.9876C111.439 76.9051 111.547 76.7952 111.66 76.6715C111.89 76.4216 112.18 76.0726 112.506 75.6659C113.159 74.8505 113.98 73.7702 114.785 72.7112L113.989 72.106C113.181 73.1686 112.369 74.2374 111.725 75.0406C111.403 75.4432 111.129 75.771 110.923 75.9955C110.819 76.109 110.742 76.1857 110.69 76.2305C110.663 76.2535 110.655 76.2582 110.661 76.2545C110.664 76.2524 110.68 76.2431 110.705 76.2333C110.728 76.2245 110.782 76.2067 110.855 76.2067V77.2067ZM114.785 72.7112C115.519 71.7453 116.24 70.7971 116.818 70.0702C117.107 69.7062 117.355 69.4035 117.549 69.184C117.646 69.0738 117.725 68.9902 117.784 68.9323C117.858 68.8612 117.866 68.8649 117.83 68.883L117.383 67.9886C117.266 68.0469 117.16 68.1446 117.088 68.2148C117.002 68.2982 116.904 68.4032 116.799 68.5223C116.588 68.7614 116.327 69.0802 116.035 69.4482C115.449 70.1853 114.721 71.1431 113.989 72.106L114.785 72.7112ZM117.83 68.883C117.998 68.7993 118.094 68.6496 118.127 68.4989C118.154 68.3721 118.134 68.261 118.118 68.1954C118.084 68.0618 118.015 67.9288 117.949 67.8175C117.81 67.5824 117.587 67.2809 117.314 66.9408C116.763 66.2538 115.951 65.3394 115.033 64.3451C113.194 62.3537 110.901 60.0107 109.352 58.4609L108.644 59.1681C110.189 60.7129 112.471 63.0455 114.298 65.0235C115.213 66.0141 116.006 66.9078 116.535 67.5666C116.802 67.8994 116.987 68.1552 117.088 68.3261C117.142 68.4177 117.151 68.4498 117.148 68.439C117.147 68.4349 117.131 68.3746 117.149 68.2876C117.173 68.1765 117.249 68.0554 117.383 67.9886L117.83 68.883ZM109.073 58.3201L100.633 57.0414L100.483 58.0301L108.923 59.3089L109.073 58.3201ZM100.058 51.2188V57.5357H101.058V51.2188H100.058Z" fill="#080708"/>
<path d="M104.729 7.03791C82.1047 -6.02428 53.2411 1.61303 40.2603 24.0963L122.19 71.3987C135.171 48.9154 127.353 20.1001 104.729 7.03791Z" fill="#080708" stroke="#080708"/>
<circle cx="118.957" cy="81.0957" r="13.6724" transform="rotate(95.2923 118.957 81.0957)" fill="#EAE5E2"/>
<path d="M117.696 94.7098C120.57 94.976 123.455 94.3257 125.937 92.8519C128.419 91.3781 130.371 89.1565 131.513 86.5053C132.656 83.8541 132.929 80.9095 132.295 78.0933C131.661 75.277 130.152 72.7337 127.984 70.8276C125.817 68.9215 123.101 67.7506 120.227 67.4825C117.352 67.2143 114.467 67.8628 111.984 69.3351C109.501 70.8073 107.547 73.0276 106.404 75.6781C105.26 78.3285 104.984 81.2729 105.616 84.0896" stroke="#080708"/>
<path d="M109.335 39.0519C101.06 29.4829 89.6176 23.2123 77.0994 21.3868C64.5811 19.5613 51.8241 22.3029 41.1612 29.1103C30.4982 35.9176 22.642 46.3358 19.0292 58.4596C15.4164 70.5834 16.2885 83.6025 21.4859 95.1362C26.6834 106.67 35.8588 115.947 47.3344 121.272C58.81 126.596 71.8187 127.612 83.9816 124.133C96.1446 120.654 106.649 112.914 113.574 102.327" stroke="#080708"/>
</svg>
