<svg width="256" height="256" viewBox="0 0 256 256" fill="none" xmlns="http://www.w3.org/2000/svg">
<rect width="256" height="256" fill="#F5EEEB"/>
<ellipse cx="123.5" cy="170.23" rx="37.5" ry="10" fill="#080708"/>
<path d="M109.022 87.4976C109.03 77.2215 114.367 67.23 123.906 61.7224C133.446 56.2149 144.767 56.589 153.67 61.7196C153.662 71.9957 148.325 81.9872 138.786 87.4948C129.247 93.0023 117.925 92.6282 109.022 87.4976Z" fill="#C64677" stroke="#080708" stroke-width="1.5"/>
<path d="M124.662 77.391C125.466 82.85 124.493 87.156 121.599 88.8265C118.707 90.4965 114.492 89.1877 110.168 85.7645C109.364 80.3055 110.338 75.9995 113.231 74.329C116.124 72.6589 120.338 73.9677 124.662 77.391Z" fill="#080708"/>
<path d="M110.748 62.1749L97.7768 62.1749C94.8513 74.5658 102.292 87.1183 114.673 90.436C107.017 82.7796 105.708 71.1793 110.748 62.1749Z" fill="#C64677" stroke="#080708" stroke-width="1.5"/>
<path d="M59.8108 102.437C62.4788 92.5137 70.2195 84.2439 80.8592 81.393C91.499 78.5421 102.338 81.8336 109.61 89.0937C106.942 99.0174 99.2012 107.287 88.5615 110.138C77.9217 112.989 67.0832 109.698 59.8108 102.437Z" fill="#C64677" stroke="#080708" stroke-width="1.5"/>
<path d="M117.59 91.7696C113.102 100.955 104.814 108.222 94.1638 111.075C83.5139 113.929 72.7022 111.78 64.2234 106.069C68.7108 96.8838 76.9996 89.617 87.6495 86.7634C98.2993 83.9097 109.111 86.0586 117.59 91.7696Z" fill="#080708"/>
<path d="M109.95 89.1056C112.999 81.9529 118.308 75.6926 125.56 71.5056C143.352 61.2333 166.103 67.3293 176.375 85.1213C194.865 117.147 170.67 165.732 158.31 172.868C145.978 179.988 92.016 176.68 73.4098 144.851C73.3685 144.781 73.3274 144.71 73.2866 144.639C63.0144 126.847 69.1103 104.097 86.9023 93.8247C94.1546 89.6376 102.231 88.17 109.95 89.1056Z" fill="#F5EEEB" stroke="#080708" stroke-width="1.5"/>
<path d="M141.433 135.668C143.016 129.759 143.118 123.551 141.728 117.593C140.339 111.635 137.502 106.112 133.469 101.513C129.435 96.9138 124.33 93.3802 118.605 91.2254C112.879 89.0705 106.711 88.3609 100.646 89.1594C94.5807 89.9579 88.8062 92.2398 83.8337 95.803C78.8612 99.3663 74.8442 104.101 72.1385 109.587C69.4329 115.074 68.122 121.143 68.3222 127.257C68.5224 133.371 70.2273 139.342 73.286 144.64" stroke="#080708" stroke-width="1.5"/>
<path d="M96.1531 150.767C92.5947 152.821 88.0446 151.602 85.9902 148.044C83.9357 144.485 85.1549 139.935 88.7133 137.881" stroke="#080708" stroke-width="1.5"/>
<path d="M88.7136 137.88L182.138 83.9419" stroke="#080708" stroke-width="1.5"/>
<path d="M122.241 155.034L135.127 147.594L138.847 154.037C140.901 157.595 139.682 162.145 136.124 164.2C132.565 166.254 128.015 165.035 125.961 161.477L122.241 155.034Z" fill="#F5EEEB" stroke="#080708" stroke-width="1.5"/>
<path d="M135.127 147.594L148.013 140.154L151.733 146.597C153.788 150.155 152.568 154.705 149.01 156.76C145.452 158.814 140.902 157.595 138.847 154.037L135.127 147.594Z" fill="#F5EEEB" stroke="#080708" stroke-width="1.5"/>
<path d="M148.013 140.154L160.9 132.714L164.619 139.157C166.674 142.715 165.455 147.265 161.896 149.32C158.338 151.374 153.788 150.155 151.733 146.597L148.013 140.154Z" fill="#F5EEEB" stroke="#080708" stroke-width="1.5"/>
<circle cx="157.976" cy="97.8919" r="11.1597" transform="rotate(-30 157.976 97.8919)" fill="#F5EEEB" stroke="#080708" stroke-width="1.5"/>
<circle cx="119.318" cy="120.211" r="11.1597" transform="rotate(-30 119.318 120.211)" fill="#F5EEEB" stroke="#080708" stroke-width="1.5"/>
</svg>
