<svg width="480" height="480" viewBox="0 0 480 480" fill="none" xmlns="http://www.w3.org/2000/svg" preserveAspectRatio="xMidYMid slice">
<g clip-path="url(#clip0_74_6984)">
<path d="M-2.86359 403.965L-59.4321 460.533L-25.491 494.474L-21.1277 490.111C-21.6604 488.996 -21.4649 487.62 -20.5413 486.696C-19.6176 485.772 -18.2416 485.577 -17.1264 486.11L-14.0566 483.04C-14.5893 481.925 -14.3938 480.549 -13.4702 479.625C-12.5466 478.701 -11.1705 478.506 -10.0554 479.039L-5.69201 474.675C-10.3783 469.989 -10.3783 462.391 -5.69201 457.705C-1.00572 453.018 6.59226 453.018 11.2785 457.705L15.6419 453.341C15.1092 452.226 15.3047 450.85 16.2283 449.927C17.1519 449.003 18.528 448.807 19.6431 449.34L22.713 446.27C22.1803 445.155 22.3757 443.779 23.2994 442.855C24.223 441.932 25.5991 441.736 26.7142 442.269L31.0775 437.906L-2.86359 403.965Z" fill="#F5EEEB" stroke="#080708" stroke-width="2"/>
<path d="M56.5334 344.568L-0.0351562 401.136L33.906 435.077L38.2693 430.714C37.7366 429.599 37.9321 428.223 38.8557 427.299C39.7794 426.375 41.1554 426.18 42.2705 426.713L45.3404 423.643C44.8077 422.528 45.0031 421.152 45.9268 420.228C46.8504 419.304 48.2265 419.109 49.3416 419.642L53.705 415.278C49.0187 410.592 49.0187 402.994 53.705 398.308C58.3913 393.621 65.9892 393.621 70.6755 398.308L75.0389 393.944C74.5062 392.829 74.7016 391.453 75.6253 390.53C76.5489 389.606 77.925 389.41 79.0401 389.943L82.1099 386.873C81.5772 385.758 81.7727 384.382 82.6963 383.459C83.62 382.535 84.996 382.339 86.1112 382.872L90.4745 378.509L56.5334 344.568Z" fill="#F5EEEB" stroke="#080708" stroke-width="2"/>
<path d="M2.91393 307.677L-0.155914 310.747C0.376787 311.862 0.181322 313.238 -0.742313 314.162C-1.66595 315.086 -3.04201 315.281 -4.15714 314.748L-8.52049 319.112C-3.8342 323.798 -3.83419 331.396 -8.52049 336.082C-13.2068 340.769 -20.8048 340.769 -25.491 336.082L-29.8544 340.446C-29.3217 341.561 -29.5172 342.937 -30.4408 343.861C-31.3644 344.784 -32.7405 344.98 -33.8556 344.447L-36.9255 347.517C-36.3928 348.632 -36.5882 350.008 -37.5119 350.932C-38.4355 351.855 -39.8116 352.051 -40.9267 351.518L-45.29 355.881L-0.0352058 401.136L56.5333 344.568L11.2785 299.313L6.91515 303.676C7.44786 304.791 7.25239 306.167 6.32876 307.091C5.40512 308.015 4.02906 308.21 2.91393 307.677Z" fill="#F5EEEB" stroke="#080708" stroke-width="2"/>
<path d="M37.8052 387.487L49.8052 366.702" stroke="#080708" stroke-width="2"/>
<circle cx="12.6926" cy="370.023" r="5" transform="rotate(-45 12.6926 370.023)" fill="#080708"/>
<circle cx="36.7342" cy="345.982" r="5" transform="rotate(-45 36.7342 345.982)" fill="#080708"/>
<path d="M33.9055 203.146L-22.6631 259.715L11.278 293.656L15.6414 289.293C15.1087 288.178 15.3042 286.801 16.2278 285.878C17.1514 284.954 18.5275 284.759 19.6426 285.291L22.7125 282.222C22.1798 281.106 22.3752 279.73 23.2989 278.807C24.2225 277.883 25.5986 277.688 26.7137 278.22L31.077 273.857C26.3907 269.171 26.3907 261.573 31.077 256.886C35.7633 252.2 43.3613 252.2 48.0476 256.886L52.4109 252.523C51.8782 251.408 52.0737 250.032 52.9973 249.108C53.921 248.185 55.297 247.989 56.4122 248.522L59.482 245.452C58.9493 244.337 59.1448 242.961 60.0684 242.037C60.992 241.114 62.3681 240.918 63.4832 241.451L67.8466 237.087L33.9055 203.146Z" fill="#F5EEEB" stroke="#080708" stroke-width="2"/>
<path d="M-19.714 166.256L-22.7838 169.326C-22.2511 170.441 -22.4466 171.817 -23.3702 172.741C-24.2939 173.664 -25.6699 173.86 -26.7851 173.327L-31.1484 177.691C-26.4621 182.377 -26.4621 189.975 -31.1484 194.661C-35.8347 199.347 -43.4327 199.347 -48.119 194.661L-52.4823 199.024C-51.9496 200.14 -52.1451 201.516 -53.0687 202.439C-53.9924 203.363 -55.3684 203.558 -56.4836 203.026L-59.5534 206.096C-59.0207 207.211 -59.2162 208.587 -60.1398 209.51C-61.0634 210.434 -62.4395 210.629 -63.5546 210.097L-67.918 214.46L-22.6631 259.715L33.9054 203.146L-11.3494 157.892L-15.7128 162.255C-15.1801 163.37 -15.3755 164.746 -16.2992 165.67C-17.2228 166.593 -18.5989 166.789 -19.714 166.256Z" fill="#F5EEEB" stroke="#080708" stroke-width="2"/>
<path d="M15.1772 246.066L27.1772 225.281" stroke="#080708" stroke-width="2"/>
<circle cx="14.1062" cy="204.561" r="5" transform="rotate(-45 14.1062 204.561)" fill="#080708"/>
<path d="M115.93 285.171L59.3613 341.739L93.3025 375.68L97.6658 371.317C97.1331 370.202 97.3286 368.826 98.2522 367.902C99.1758 366.979 100.552 366.783 101.667 367.316L104.737 364.246C104.204 363.131 104.4 361.755 105.323 360.831C106.247 359.908 107.623 359.712 108.738 360.245L113.101 355.881C108.415 351.195 108.415 343.597 113.101 338.911C117.788 334.225 125.386 334.225 130.072 338.911L134.435 334.547C133.903 333.432 134.098 332.056 135.022 331.133C135.945 330.209 137.321 330.014 138.437 330.546L141.506 327.476C140.974 326.361 141.169 324.985 142.093 324.062C143.016 323.138 144.393 322.942 145.508 323.475L149.871 319.112L115.93 285.171Z" fill="#F5EEEB" stroke="#080708" stroke-width="2"/>
<path d="M62.3104 248.28L59.2406 251.35C59.7733 252.465 59.5778 253.842 58.6542 254.765C57.7305 255.689 56.3545 255.884 55.2393 255.352L50.876 259.715C55.5623 264.401 55.5623 271.999 50.876 276.685C46.1897 281.372 38.5917 281.372 33.9054 276.685L29.5421 281.049C30.0748 282.164 29.8793 283.54 28.9557 284.464C28.0321 285.387 26.656 285.583 25.5409 285.05L22.471 288.12C23.0037 289.235 22.8083 290.611 21.8846 291.535C20.961 292.458 19.5849 292.654 18.4698 292.121L14.1064 296.484L59.3613 341.739L115.93 285.171L70.675 239.916L66.3116 244.279C66.8443 245.394 66.6489 246.77 65.7252 247.694C64.8016 248.618 63.4255 248.813 62.3104 248.28Z" fill="#F5EEEB" stroke="#080708" stroke-width="2"/>
<path d="M97.2017 328.09L109.202 307.305" stroke="#080708" stroke-width="2"/>
<circle cx="72.0891" cy="310.627" r="5" transform="rotate(-45 72.0891 310.627)" fill="#080708"/>
<circle cx="96.1306" cy="286.585" r="5" transform="rotate(-45 96.1306 286.585)" fill="#080708"/>
<path d="M11.2785 61.7249L-45.29 118.293L-11.3489 152.235L-6.98557 147.871C-7.51827 146.756 -7.3228 145.38 -6.39917 144.456C-5.47553 143.533 -4.09947 143.337 -2.98434 143.87L0.0855014 140.8C-0.447201 139.685 -0.251735 138.309 0.671901 137.385C1.59554 136.462 2.9716 136.266 4.08673 136.799L8.45008 132.436C3.76378 127.749 3.76378 120.151 8.45008 115.465C13.1364 110.779 20.7343 110.779 25.4206 115.465L29.784 111.102C29.2513 109.987 29.4468 108.61 30.3704 107.687C31.294 106.763 32.6701 106.568 33.7852 107.1L36.8551 104.031C36.3224 102.915 36.5178 101.539 37.4415 100.616C38.3651 99.6922 39.7412 99.4967 40.8563 100.029L45.2196 95.666L11.2785 61.7249Z" fill="#F5EEEB" stroke="#080708" stroke-width="2"/>
<path d="M-42.341 24.8347L-45.4108 27.9045C-44.8781 29.0196 -45.0736 30.3957 -45.9972 31.3193C-46.9208 32.243 -48.2969 32.4384 -49.412 31.9057L-53.7754 36.2691C-49.0891 40.9554 -49.0891 48.5534 -53.7754 53.2396C-58.4617 57.9259 -66.0596 57.9259 -70.7459 53.2396L-75.1093 57.603C-74.5766 58.7181 -74.772 60.0942 -75.6957 61.0178C-76.6193 61.9415 -77.9954 62.1369 -79.1105 61.6042L-82.1803 64.6741C-81.6476 65.7892 -81.8431 67.1653 -82.7667 68.0889C-83.6904 69.0125 -85.0664 69.208 -86.1816 68.6753L-90.5449 73.0386L-45.2901 118.293L11.2785 61.7249L-33.9764 16.4701L-38.3397 20.8334C-37.807 21.9486 -38.0025 23.3246 -38.9261 24.2483C-39.8498 25.1719 -41.2258 25.3674 -42.341 24.8347Z" fill="#F5EEEB" stroke="#080708" stroke-width="2"/>
<path d="M-7.44971 104.644L4.55029 83.8596" stroke="#080708" stroke-width="2"/>
<path d="M93.3029 143.749L36.7344 200.318L70.6755 234.259L75.0388 229.896C74.5061 228.78 74.7016 227.404 75.6252 226.481C76.5489 225.557 77.9249 225.362 79.0401 225.894L82.1099 222.825C81.5772 221.709 81.7727 220.333 82.6963 219.41C83.62 218.486 84.996 218.291 86.1111 218.823L90.4745 214.46C85.7882 209.774 85.7882 202.176 90.4745 197.489C95.1608 192.803 102.759 192.803 107.445 197.489L111.808 193.126C111.276 192.011 111.471 190.635 112.395 189.711C113.318 188.788 114.694 188.592 115.81 189.125L118.879 186.055C118.347 184.94 118.542 183.564 119.466 182.64C120.39 181.717 121.766 181.521 122.881 182.054L127.244 177.69L93.3029 143.749Z" fill="#F5EEEB" stroke="#080708" stroke-width="2"/>
<path d="M39.6835 106.859L36.6136 109.929C37.1463 111.044 36.9509 112.42 36.0272 113.344C35.1036 114.267 33.7275 114.463 32.6124 113.93L28.249 118.293C32.9353 122.98 32.9353 130.578 28.249 135.264C23.5628 139.95 15.9648 139.95 11.2785 135.264L6.91513 139.627C7.44784 140.742 7.25237 142.119 6.32873 143.042C5.4051 143.966 4.02904 144.161 2.91391 143.629L-0.155934 146.698C0.376769 147.814 0.181303 149.19 -0.742333 150.113C-1.66597 151.037 -3.04203 151.232 -4.15716 150.7L-8.52051 155.063L36.7343 200.318L93.3029 143.749L48.048 98.4944L43.6847 102.858C44.2174 103.973 44.0219 105.349 43.0983 106.273C42.1746 107.196 40.7986 107.392 39.6835 106.859Z" fill="#F5EEEB" stroke="#080708" stroke-width="2"/>
<path d="M74.5747 186.669L86.5747 165.884" stroke="#080708" stroke-width="2"/>
<circle cx="49.4622" cy="169.205" r="5" transform="rotate(-45 49.4622 169.205)" fill="#080708"/>
<circle cx="73.5037" cy="145.164" r="5" transform="rotate(-45 73.5037 145.164)" fill="#080708"/>
<path d="M175.327 225.774L118.759 282.342L152.7 316.283L157.063 311.92C156.531 310.805 156.726 309.429 157.65 308.505C158.573 307.582 159.949 307.386 161.064 307.919L164.134 304.849C163.602 303.734 163.797 302.358 164.721 301.434C165.644 300.51 167.02 300.315 168.136 300.848L172.499 296.484C167.813 291.798 167.813 284.2 172.499 279.514C177.185 274.828 184.783 274.828 189.469 279.514L193.833 275.15C193.3 274.035 193.496 272.659 194.419 271.736C195.343 270.812 196.719 270.617 197.834 271.149L200.904 268.079C200.371 266.964 200.567 265.588 201.49 264.665C202.414 263.741 203.79 263.545 204.905 264.078L209.268 259.715L175.327 225.774Z" fill="#F5EEEB" stroke="#080708" stroke-width="2"/>
<path d="M121.708 188.883L118.638 191.953C119.171 193.068 118.975 194.444 118.052 195.368C117.128 196.292 115.752 196.487 114.637 195.955L110.273 200.318C114.96 205.004 114.96 212.602 110.273 217.288C105.587 221.975 97.9892 221.975 93.3029 217.288L88.9395 221.652C89.4723 222.767 89.2768 224.143 88.3531 225.067C87.4295 225.99 86.0534 226.186 84.9383 225.653L81.8685 228.723C82.4012 229.838 82.2057 231.214 81.2821 232.138C80.3584 233.061 78.9824 233.257 77.8673 232.724L73.5039 237.087L118.759 282.342L175.327 225.774L130.072 180.519L125.709 184.882C126.242 185.997 126.046 187.373 125.123 188.297C124.199 189.221 122.823 189.416 121.708 188.883Z" fill="#F5EEEB" stroke="#080708" stroke-width="2"/>
<path d="M156.599 268.693L168.599 247.908" stroke="#080708" stroke-width="2"/>
<circle cx="131.487" cy="251.23" r="5" transform="rotate(-45 131.487 251.23)" fill="#080708"/>
<circle cx="155.528" cy="227.188" r="5" transform="rotate(-45 155.528 227.188)" fill="#080708"/>
<path d="M70.6755 2.32794L14.1069 58.8965L48.0481 92.8376L52.4114 88.4743C51.8787 87.3591 52.0742 85.9831 52.9978 85.0594C53.9214 84.1358 55.2975 83.9403 56.4126 84.473L59.4825 81.4032C58.9498 80.2881 59.1452 78.912 60.0689 77.9884C60.9925 77.0647 62.3686 76.8693 63.4837 77.402L67.847 73.0386C63.1608 68.3523 63.1608 60.7543 67.847 56.0681C72.5333 51.3818 80.1313 51.3818 84.8176 56.0681L89.181 51.7047C88.6483 50.5896 88.8437 49.2135 89.7674 48.2899C90.691 47.3662 92.0671 47.1708 93.1822 47.7035L96.252 44.6336C95.7193 43.5185 95.9148 42.1425 96.8384 41.2188C97.7621 40.2952 99.1381 40.0997 100.253 40.6324L104.617 36.2691L70.6755 2.32794Z" fill="#F5EEEB" stroke="#080708" stroke-width="2"/>
<path d="M17.056 -34.5623L13.9862 -31.4925C14.5189 -30.3773 14.3234 -29.0013 13.3998 -28.0776C12.4761 -27.154 11.1001 -26.9585 9.98495 -27.4912L5.6216 -23.1279C10.3079 -18.4416 10.3079 -10.8436 5.6216 -6.15733C0.93531 -1.47103 -6.66267 -1.47104 -11.349 -6.15733L-15.7123 -1.79398C-15.1796 -0.678851 -15.3751 0.697211 -16.2987 1.62085C-17.2223 2.54448 -18.5984 2.73995 -19.7135 2.20725L-22.7834 5.27709C-22.2507 6.39222 -22.4461 7.76828 -23.3698 8.69192C-24.2934 9.61555 -25.6695 9.81102 -26.7846 9.27831L-31.1479 13.6417L14.1069 58.8965L70.6754 2.32795L25.4206 -42.9269L21.0572 -38.5635C21.5899 -37.4484 21.3945 -36.0723 20.4708 -35.1487C19.5472 -34.2251 18.1711 -34.0296 17.056 -34.5623Z" fill="#F5EEEB" stroke="#080708" stroke-width="2"/>
<path d="M51.9473 45.2472L63.9473 24.4626" stroke="#080708" stroke-width="2"/>
<circle cx="26.8347" cy="27.7838" r="5" transform="rotate(-45 26.8347 27.7838)" fill="#080708"/>
<circle cx="50.8762" cy="3.74219" r="5" transform="rotate(-45 50.8762 3.74219)" fill="#080708"/>
<path d="M152.7 84.3524L96.1313 140.921L130.072 174.862L134.436 170.499C133.903 169.384 134.099 168.007 135.022 167.084C135.946 166.16 137.322 165.965 138.437 166.497L141.507 163.428C140.974 162.312 141.17 160.936 142.093 160.013C143.017 159.089 144.393 158.894 145.508 159.426L149.871 155.063C145.185 150.377 145.185 142.779 149.871 138.092C154.558 133.406 162.156 133.406 166.842 138.092L171.205 133.729C170.673 132.614 170.868 131.238 171.792 130.314C172.715 129.391 174.091 129.195 175.207 129.728L178.276 126.658C177.744 125.543 177.939 124.167 178.863 123.243C179.786 122.32 181.163 122.124 182.278 122.657L186.641 118.293L152.7 84.3524Z" fill="#F5EEEB" stroke="#080708" stroke-width="2"/>
<path d="M99.0804 47.4621L96.0106 50.532C96.5433 51.6471 96.3478 53.0231 95.4242 53.9468C94.5006 54.8704 93.1245 55.0659 92.0094 54.5332L87.646 58.8965C92.3323 63.5828 92.3323 71.1808 87.646 75.8671C82.9597 80.5534 75.3617 80.5534 70.6755 75.8671L66.3121 80.2304C66.8448 81.3456 66.6493 82.7216 65.7257 83.6453C64.8021 84.5689 63.426 84.7644 62.3109 84.2317L59.241 87.3015C59.7737 88.4166 59.5783 89.7927 58.6546 90.7163C57.731 91.64 56.3549 91.8354 55.2398 91.3027L50.8765 95.6661L96.1313 140.921L152.7 84.3524L107.445 39.0975L103.082 43.4609C103.614 44.576 103.419 45.9521 102.495 46.8757C101.572 47.7993 100.196 47.9948 99.0804 47.4621Z" fill="#F5EEEB" stroke="#080708" stroke-width="2"/>
<path d="M133.972 127.272L145.972 106.487" stroke="#080708" stroke-width="2"/>
<circle cx="108.859" cy="109.808" r="5" transform="rotate(-45 108.859 109.808)" fill="#080708"/>
<circle cx="132.901" cy="85.7666" r="5" transform="rotate(-45 132.901 85.7666)" fill="#080708"/>
<path d="M246.662 214.141L166.966 221.113L171.847 276.9L177.994 276.362C178.303 275.166 179.337 274.237 180.639 274.123C181.94 274.01 183.12 274.744 183.631 275.869L187.956 275.491C188.265 274.294 189.299 273.366 190.601 273.252C191.902 273.138 193.082 273.873 193.593 274.998L199.741 274.46C199.163 267.858 204.047 262.037 210.649 261.46C217.251 260.882 223.072 265.766 223.649 272.368L229.797 271.83C230.105 270.634 231.14 269.705 232.441 269.591C233.742 269.478 234.922 270.212 235.434 271.337L239.759 270.959C240.067 269.762 241.101 268.834 242.403 268.72C243.704 268.606 244.884 269.341 245.396 270.466L251.543 269.928L246.662 214.141Z" fill="#080708"/>
<path d="M167.578 219.723L228.862 168.3L192.866 125.401L188.138 129.368C188.572 130.525 188.257 131.879 187.257 132.718C186.256 133.558 184.868 133.633 183.804 133.005L180.478 135.796C180.911 136.953 180.597 138.306 179.596 139.146C178.596 139.986 177.208 140.06 176.143 139.433L171.416 143.399C175.676 148.476 175.014 156.045 169.937 160.305C164.86 164.565 157.291 163.903 153.031 158.826L148.304 162.793C148.737 163.95 148.423 165.304 147.422 166.143C146.422 166.983 145.034 167.057 143.97 166.43L140.644 169.221C141.077 170.378 140.762 171.731 139.762 172.571C138.761 173.41 137.374 173.485 136.309 172.858L131.582 176.824L167.578 219.723Z" fill="var(--highlight)" stroke="#080708" stroke-width="2"/>
<circle cx="178.866" cy="188.059" r="5" transform="rotate(-40 178.866 188.059)" fill="#080708"/>
<circle cx="204.911" cy="166.204" r="5" transform="rotate(-40 204.911 166.204)" fill="#080708"/>
<path d="M235.23 173.771L233.545 178.403" stroke="#080708" stroke-width="2" stroke-linecap="square"/>
<path d="M245.428 183.116L240.961 185.198" stroke="#080708" stroke-width="2" stroke-linecap="square"/>
<path d="M246.031 196.934L241.4 195.248" stroke="#080708" stroke-width="2" stroke-linecap="square"/>
<path d="M246.363 205.83L167.579 219.722L177.303 274.872L183.38 273.8C183.583 272.581 184.533 271.566 185.819 271.339C187.105 271.112 188.345 271.741 188.953 272.817L193.228 272.064C193.431 270.844 194.381 269.829 195.667 269.603C196.953 269.376 198.193 270.005 198.801 271.081L204.878 270.009C203.727 263.483 208.085 257.259 214.612 256.108C221.138 254.957 227.362 259.315 228.513 265.842L234.59 264.77C234.793 263.551 235.743 262.536 237.029 262.309C238.315 262.083 239.555 262.712 240.163 263.788L244.438 263.034C244.641 261.815 245.591 260.8 246.877 260.573C248.163 260.346 249.403 260.975 250.011 262.051L256.088 260.98L246.363 205.83Z" fill="var(--highlight)" stroke="#080708" stroke-width="2"/>
<path d="M226.433 219.499C227.584 226.026 223.226 232.25 216.699 233.4C210.173 234.551 203.949 230.193 202.798 223.666" stroke="#080708" stroke-width="2"/>
<path d="M293.862 256.647L371.136 277.352L385.63 223.261L379.67 221.664C378.97 222.682 377.681 223.201 376.419 222.863C375.158 222.525 374.3 221.431 374.204 220.199L370.011 219.075C369.311 220.094 368.022 220.613 366.76 220.275C365.498 219.937 364.641 218.843 364.545 217.611L358.664 216.035C358.642 216.126 358.619 216.217 358.595 216.308C356.879 222.709 350.299 226.508 343.898 224.793C337.496 223.078 333.697 216.498 335.412 210.096C335.437 210.005 335.462 209.915 335.488 209.825L329.441 208.205C328.742 209.224 327.452 209.742 326.191 209.404C324.929 209.066 324.072 207.972 323.975 206.74L319.782 205.617C319.083 206.636 317.794 207.154 316.532 206.816C315.27 206.478 314.413 205.384 314.317 204.152L308.356 202.555L293.862 256.647Z" fill="var(--highlight)" stroke="#080708" stroke-width="2"/>
<circle cx="337.169" cy="234.823" r="5" transform="rotate(30 337.169 234.823)" fill="#080708"/>
<circle cx="356.222" cy="245.823" r="5" transform="rotate(30 356.222 245.823)" fill="#080708"/>
<path d="M349.563 254.868C347.354 258.695 342.462 260.006 338.635 257.796C334.809 255.587 333.498 250.695 335.707 246.868" stroke="#080708" stroke-width="2"/>
<path d="M350.253 309.916L304.367 244.384L258.494 276.504L262.033 281.559C263.224 281.228 264.545 281.66 265.294 282.73C266.044 283.8 265.997 285.189 265.279 286.194L267.769 289.751C268.96 289.42 270.281 289.851 271.03 290.921C271.779 291.991 271.733 293.38 271.015 294.386L274.507 299.373C274.582 299.318 274.658 299.263 274.735 299.209C280.164 295.408 287.647 296.727 291.448 302.156C295.249 307.585 293.93 315.067 288.501 318.869C288.424 318.923 288.347 318.975 288.269 319.027L291.859 324.155C293.05 323.824 294.371 324.256 295.12 325.326C295.87 326.396 295.823 327.785 295.105 328.79L297.595 332.347C298.786 332.016 300.107 332.447 300.856 333.517C301.605 334.587 301.559 335.976 300.841 336.982L304.38 342.037L350.253 309.916Z" fill="var(--highlight)" stroke="#080708" stroke-width="2"/>
<ellipse cx="307.347" cy="277.521" rx="5" ry="5" transform="rotate(55 307.347 277.521)" fill="#080708"/>
<ellipse cx="319.965" cy="295.542" rx="5" ry="5" transform="rotate(55 319.965 295.542)" fill="#080708"/>
<path d="M309.752 299.829C306.133 302.364 301.144 301.484 298.61 297.865C296.076 294.246 296.955 289.257 300.575 286.723" stroke="#080708" stroke-width="2"/>
<path d="M381.208 309.662L367.316 388.447L422.465 398.171L423.537 392.094C422.461 391.486 421.832 390.247 422.058 388.96C422.285 387.674 423.3 386.725 424.519 386.521L425.273 382.246C424.197 381.638 423.568 380.399 423.795 379.112C424.022 377.826 425.037 376.877 426.256 376.673L427.313 370.678C427.221 370.664 427.128 370.648 427.036 370.632C420.509 369.481 416.151 363.257 417.302 356.731C418.452 350.204 424.676 345.846 431.203 346.997C431.296 347.013 431.388 347.03 431.479 347.049L432.567 340.884C431.491 340.276 430.861 339.037 431.088 337.75C431.315 336.464 432.33 335.515 433.549 335.311L434.303 331.036C433.227 330.428 432.598 329.189 432.825 327.902C433.051 326.616 434.067 325.667 435.286 325.463L436.357 319.386L381.208 309.662Z" fill="var(--highlight)" stroke="#080708" stroke-width="2"/>
<ellipse cx="388.64" cy="362.908" rx="5" ry="5" transform="rotate(-80 388.64 362.908)" fill="#080708"/>
<ellipse cx="392.46" cy="341.243" rx="5" ry="5" transform="rotate(-80 392.46 341.243)" fill="#080708"/>
<path d="M402.714 345.433C407.065 346.2 409.97 350.35 409.203 354.701C408.436 359.052 404.287 361.957 399.936 361.19" stroke="#080708" stroke-width="2"/>
<path d="M447.134 402.841L395.711 464.125L438.61 500.121L442.576 495.394C441.948 494.329 442.023 492.941 442.863 491.941C443.702 490.94 445.056 490.625 446.214 491.059L449.004 487.733C448.376 486.669 448.451 485.281 449.291 484.28C450.13 483.28 451.484 482.965 452.641 483.398L456.555 478.735C456.482 478.676 456.409 478.617 456.337 478.557C451.26 474.296 450.598 466.727 454.858 461.651C459.118 456.574 466.687 455.911 471.764 460.171C471.836 460.232 471.907 460.293 471.977 460.355L476.001 455.559C475.373 454.495 475.448 453.107 476.288 452.106C477.127 451.106 478.481 450.791 479.638 451.225L482.429 447.899C481.801 446.834 481.876 445.447 482.716 444.446C483.555 443.445 484.909 443.131 486.066 443.564L490.033 438.837L447.134 402.841Z" fill="var(--highlight)" stroke="#080708" stroke-width="2"/>
<ellipse cx="426.947" cy="452.67" rx="5" ry="5" transform="rotate(-50 426.947 452.67)" fill="#080708"/>
<ellipse cx="441.089" cy="435.817" rx="5" ry="5" transform="rotate(-50 441.089 435.817)" fill="#080708"/>
<path d="M447.873 444.573C451.258 447.413 451.7 452.459 448.86 455.843C446.02 459.228 440.973 459.669 437.589 456.829" stroke="#080708" stroke-width="2"/>
</g>
<defs>
<clipPath id="clip0_74_6984">
<rect width="480" height="480" fill="white"/>
</clipPath>
</defs>
</svg>
