<svg width="898" height="365" viewBox="0 0 898 365" fill="none" xmlns="http://www.w3.org/2000/svg">
<g clip-path="url(#clip0_325_6376)">
<rect x="730.292" y="40.4639" width="170" height="300" rx="24" transform="rotate(10 730.292 40.4639)" fill="#F5EEEB" stroke="#080708"/>
<rect x="730.292" y="40.4639" width="150" height="300" rx="24" transform="rotate(10 730.292 40.4639)" fill="#F5EEEB" stroke="#080708"/>
<rect x="738.404" y="52.0483" width="130" height="280" rx="16" transform="rotate(10 738.404 52.0483)" fill="#080708" stroke="#080708"/>
<rect x="740.295" y="323.501" width="32" height="2" rx="1" transform="rotate(10 740.295 323.501)" fill="#F5EEEB"/>
<circle cx="799.985" cy="77.1228" r="4" transform="rotate(10 799.985 77.1228)" fill="#080708" stroke="#F5EEEB"/>
<path d="M872.816 182.369C870.097 181.889 868.281 179.296 868.76 176.576L873.275 150.971C873.755 148.252 876.348 146.436 879.067 146.916L883.992 147.784L877.74 183.237L872.816 182.369Z" fill="#080708" stroke="#080708"/>
<rect x="873.801" y="182.542" width="36" height="8" rx="4" transform="rotate(-80 873.801 182.542)" fill="#F5EEEB" stroke="#080708"/>
<path d="M712.347 130.719C711.259 130.527 710.533 129.49 710.725 128.402L716.281 96.8881C716.473 95.8003 717.511 95.074 718.598 95.2658L720.568 95.6131L714.317 131.066L712.347 130.719Z" fill="#080708" stroke="#080708"/>
<path d="M704.359 176.02C703.271 175.828 702.545 174.791 702.737 173.703L708.294 142.189C708.485 141.101 709.523 140.375 710.611 140.567L712.58 140.914L706.329 176.367L704.359 176.02Z" fill="#080708" stroke="#080708"/>
<path d="M621.836 66.8627C614.372 72.0874 612.558 82.3725 617.785 89.8351L635.545 115.19L607.312 110.212L607.32 110.169L513.271 93.5854C504.297 92.003 495.739 97.9953 494.156 106.97C492.574 115.942 498.563 124.497 507.534 126.083L487.844 122.611C478.87 121.029 470.312 127.021 468.73 135.995C467.147 144.969 473.14 153.527 482.114 155.11L498.856 158.062C489.881 156.479 481.324 162.472 479.741 171.446C478.159 180.42 484.151 188.978 493.125 190.56L517.745 194.902C508.771 193.319 500.213 199.311 498.631 208.286C497.049 217.26 503.041 225.818 512.015 227.4L631.669 248.499C648.422 251.453 664.812 247.809 678.172 239.436L768.555 255.373C793.03 259.689 816.37 243.346 820.686 218.871C825.001 194.396 808.659 171.056 784.183 166.74L701.16 152.101C700.11 150.166 698.964 148.285 697.729 146.466L697.734 146.463L697.302 145.846C697.226 145.737 697.149 145.627 697.072 145.518L644.816 70.9147C639.589 63.4521 629.3 61.638 621.836 66.8627Z" fill="#F5EEEB" stroke="#080708"/>
<path d="M497.378 157.802L595.859 175.166" stroke="#080708"/>
<path d="M516.269 194.641L590.129 207.665" stroke="#080708"/>
<path d="M519.851 128.255L601.59 142.668" stroke="#080708"/>
<g clip-path="url(#clip1_325_6376)">
<path d="M734.783 148.461C734.747 147.488 735.97 147.043 736.568 147.812L747.002 161.225C747.27 161.569 747.726 161.702 748.133 161.554L763.997 155.78C764.906 155.449 765.711 156.483 765.171 157.289L755.755 171.354C755.514 171.714 755.532 172.191 755.799 172.535L766.233 185.949C766.831 186.717 766.105 187.802 765.173 187.531L748.92 182.81C748.504 182.689 748.058 182.851 747.817 183.211L738.401 197.276C737.862 198.082 736.608 197.718 736.572 196.744L735.943 179.762C735.927 179.327 735.634 178.95 735.217 178.829L718.964 174.107C718.032 173.837 717.984 172.527 718.893 172.196L734.757 166.422C735.164 166.274 735.428 165.879 735.412 165.444L734.783 148.461Z" fill="#C64677" stroke="#080708"/>
<path d="M744.33 171.915L735.438 147.483" stroke="#080708" stroke-linejoin="round"/>
<path d="M744.33 171.915L764.818 155.908" stroke="#080708" stroke-linejoin="round"/>
<path d="M744.33 171.915L765.885 186.454" stroke="#080708" stroke-linejoin="round"/>
<path d="M744.33 171.915L737.164 196.908" stroke="#080708" stroke-linejoin="round"/>
<path d="M744.33 171.915L718.346 172.823" stroke="#080708" stroke-linejoin="round"/>
<path d="M744.33 171.915L747.638 160.38" stroke="#080708" stroke-linejoin="round"/>
<path d="M744.33 171.915L756.323 171.496" stroke="#080708" stroke-linejoin="round"/>
<path d="M744.33 171.915L748.435 183.191" stroke="#080708" stroke-linejoin="round"/>
<path d="M744.33 171.915L734.874 179.303" stroke="#080708" stroke-linejoin="round"/>
<path d="M744.33 171.915L734.381 165.205" stroke="#080708" stroke-linejoin="round"/>
<path d="M747.061 161.876L744.629 171.274L743.817 170.506L736.635 150.772L736.421 148.722L747.061 161.876Z" fill="#080708"/>
<path d="M761.199 158.326L745.099 171.103L747.021 172L755.864 171.442L763.293 159.692L764.488 157.129L761.199 158.326Z" fill="#080708"/>
<path d="M744.672 172.855L748.264 182.722L764.199 187.032L764.796 185.75L745.783 172.983L744.672 172.855Z" fill="#080708"/>
<path d="M735.66 178.795L736.861 193.789L737.673 194.558L743.306 174.948L743.262 173.368L742.323 173.71L735.66 178.795Z" fill="#080708"/>
<path d="M735.315 166.151L721.391 171.751L722.203 172.52L741.169 172.002L742.579 171.489L735.315 166.151Z" fill="#080708"/>
</g>
<path d="M773.412 207.112C774.114 203.153 776.85 199.665 780.9 198.19C784.951 196.716 789.289 197.63 792.371 200.212C791.67 204.172 788.934 207.66 784.883 209.134C780.833 210.608 776.495 209.695 773.412 207.112Z" fill="#C64677" stroke="#080708"/>
<path fill-rule="evenodd" clip-rule="evenodd" d="M780.127 204.28C780.066 206.439 779.398 208.032 778.169 208.479C776.941 208.927 775.406 208.136 773.972 206.523C774.033 204.364 774.701 202.771 775.929 202.324C777.158 201.876 778.693 202.667 780.127 204.28Z" fill="#080708"/>
<path d="M775.798 197.471L770.799 196.589C768.83 201.166 770.844 206.509 775.391 208.629C772.96 205.158 773.244 200.598 775.798 197.471Z" fill="#C64677" stroke="#080708"/>
<path d="M753.432 209.526C755.134 205.883 758.679 203.222 762.974 202.846C767.268 202.471 771.221 204.476 773.531 207.768C771.828 211.411 768.283 214.072 763.989 214.448C759.694 214.824 755.741 212.819 753.432 209.526Z" fill="#C64677" stroke="#080708"/>
<path fill-rule="evenodd" clip-rule="evenodd" d="M776.424 209.341C774.07 212.576 770.382 214.814 766.084 215.19C761.785 215.566 757.765 214.003 754.885 211.226C757.239 207.991 760.927 205.753 765.225 205.377C769.524 205.001 773.544 206.564 776.424 209.341Z" fill="#080708"/>
<path d="M773.661 207.795C775.322 205.246 777.794 203.194 780.873 202.073C788.428 199.323 796.782 203.219 799.532 210.774C804.481 224.373 791.855 241.453 786.607 243.363C781.37 245.269 760.798 240.327 755.79 226.796C755.779 226.766 755.768 226.736 755.757 226.706C753.007 219.151 756.903 210.798 764.458 208.048C767.537 206.927 770.75 206.91 773.661 207.795Z" fill="#F5EEEB" stroke="#080708"/>
<path d="M782.63 227.88C783.642 225.71 784.103 223.324 783.972 220.934C783.842 218.543 783.124 216.222 781.882 214.175C780.64 212.129 778.912 210.42 776.852 209.2C774.792 207.981 772.463 207.288 770.071 207.184C767.68 207.079 765.299 207.566 763.141 208.602C760.982 209.637 759.112 211.189 757.697 213.119C756.281 215.05 755.363 217.3 755.025 219.67C754.687 222.04 754.938 224.457 755.757 226.706" stroke="#080708"/>
<path d="M764.153 230.622C762.642 231.172 760.972 230.393 760.422 228.882C759.872 227.371 760.651 225.7 762.162 225.15" stroke="#080708"/>
<path d="M762.162 225.15L801.833 210.711" stroke="#080708"/>
<path d="M773.917 234.039L779.389 232.047L780.385 234.783C780.935 236.294 780.156 237.965 778.645 238.515V238.515C777.134 239.065 775.463 238.286 774.913 236.775L773.917 234.039Z" fill="#F5EEEB" stroke="#080708"/>
<path d="M779.39 232.047L784.861 230.056L785.857 232.792C786.407 234.303 785.628 235.973 784.117 236.523V236.523C782.606 237.073 780.935 236.294 780.385 234.783L779.39 232.047Z" fill="#F5EEEB" stroke="#080708"/>
<path d="M784.861 230.056L790.333 228.064L791.329 230.8C791.879 232.311 791.1 233.982 789.589 234.532V234.532C788.078 235.082 786.407 234.303 785.857 232.792L784.861 230.056Z" fill="#F5EEEB" stroke="#080708"/>
<circle cx="791.573" cy="214.445" r="4.36724" transform="rotate(-20 791.573 214.445)" fill="#F5EEEB" stroke="#080708"/>
<circle cx="775.157" cy="220.42" r="4.36724" transform="rotate(-20 775.157 220.42)" fill="#F5EEEB" stroke="#080708"/>
<path d="M636.103 115.244C631.292 118.589 627.322 122.991 624.5 128.11C621.679 133.228 620.081 138.925 619.832 144.761C619.582 150.597 620.686 156.414 623.06 161.764C625.434 167.113 629.013 171.851 633.52 175.612C638.027 179.372 643.342 182.053 649.054 183.448C654.765 184.843 660.72 184.914 666.458 183.656" stroke="#080708"/>
<mask id="mask0_325_6376" style="mask-type:alpha" maskUnits="userSpaceOnUse" x="469" y="93" width="140" height="148">
<path fill-rule="evenodd" clip-rule="evenodd" d="M495.142 107.143C493.559 116.115 499.548 124.671 508.519 126.257L488.829 122.785C479.855 121.202 471.297 127.195 469.715 136.169C468.133 145.143 474.125 153.701 483.099 155.283L499.841 158.235C490.867 156.653 482.309 162.645 480.726 171.62C479.144 180.594 485.136 189.152 494.11 190.734L518.731 195.075C509.756 193.493 501.199 199.485 499.616 208.459C498.034 217.434 504.026 225.992 513 227.574L585.384 240.337L591.114 207.838L596.844 175.34L602.575 142.841L608.305 110.342L514.256 93.7591C505.282 92.1767 496.724 98.1689 495.142 107.143Z" fill="#359D72"/>
</mask>
<g mask="url(#mask0_325_6376)">
<path fill-rule="evenodd" clip-rule="evenodd" d="M489.948 44.7941L439.233 153.551L515.363 189.051L532.938 151.362C532.334 151.155 531.735 150.915 531.144 150.639C522.134 146.437 518.236 135.728 522.437 126.718C526.638 117.708 537.348 113.81 546.358 118.012C546.949 118.287 547.519 118.591 548.065 118.921L566.077 80.294L489.948 44.7941Z" fill="#080708"/>
</g>
<path d="M435.831 145.182L425.373 25.6382L341.692 32.9592L342.499 42.1804C344.294 42.6436 345.686 44.1949 345.857 46.1466C346.028 48.0982 344.926 49.8677 343.239 50.6356L343.806 57.1233C345.601 57.5865 346.993 59.1378 347.164 61.0895C347.335 63.0412 346.233 64.8107 344.546 65.5785L345.353 74.7995C355.256 73.9334 363.986 81.2591 364.853 91.1623C365.719 101.065 358.393 109.796 348.49 110.663L349.297 119.884C351.092 120.347 352.484 121.898 352.655 123.85C352.826 125.801 351.724 127.571 350.037 128.339L350.604 134.826C352.399 135.29 353.792 136.841 353.962 138.793C354.133 140.744 353.031 142.514 351.344 143.282L352.151 152.503L435.831 145.182Z" fill="#F5EEEB" stroke="#080708"/>
<circle cx="406.637" cy="104.069" r="7.5" transform="rotate(-95 406.637 104.069)" fill="#080708"/>
<circle cx="402.192" cy="53.2635" r="7.5" transform="rotate(-95 402.192 53.2635)" fill="#080708"/>
<path d="M437.575 22.52L441.816 28.5759" stroke="#080708" stroke-linecap="square"/>
<path d="M457.831 18.0303L456.547 25.3108" stroke="#080708" stroke-linecap="square"/>
<path d="M475.328 29.1777L469.272 33.4181" stroke="#080708" stroke-linecap="square"/>
<path d="M486.546 36.4229L435.831 145.18L511.961 180.68L515.873 172.291C514.55 170.992 514.12 168.952 514.948 167.177C515.776 165.401 517.615 164.42 519.46 164.598L522.212 158.696C520.889 157.398 520.459 155.358 521.287 153.582C522.115 151.806 523.954 150.825 525.799 151.004L529.711 142.615C520.701 138.414 516.804 127.704 521.005 118.694C525.206 109.684 535.916 105.786 544.925 109.988L548.837 101.599C547.514 100.3 547.084 98.2605 547.912 96.4847C548.74 94.709 550.579 93.7275 552.424 93.9063L555.177 88.0043C553.854 86.7058 553.423 84.6659 554.251 82.8901C555.079 81.1144 556.919 80.1329 558.764 80.3117L562.675 71.9228L486.546 36.4229Z" fill="#F5EEEB" stroke="#080708"/>
<path d="M486.193 72.6715C495.203 76.8728 499.101 87.5825 494.9 96.5922C490.698 105.602 479.989 109.5 470.979 105.299" stroke="#080708"/>
<mask id="mask1_325_6376" style="mask-type:alpha" maskUnits="userSpaceOnUse" x="341" y="25" width="95" height="128">
<rect x="425.433" y="25.2949" width="120" height="84" transform="rotate(85 425.433 25.2949)" fill="#359D72"/>
</mask>
<g mask="url(#mask1_325_6376)">
<path d="M381.78 142.495C390.755 144.078 399.313 138.086 400.895 129.111V129.111C402.477 120.137 396.485 111.579 387.511 109.997L273.766 89.9404L268.035 122.439L381.78 142.495Z" fill="#080708"/>
<path d="M366.83 106.35C375.804 107.933 384.362 101.94 385.944 92.966V92.966C387.527 83.9917 381.534 75.4339 372.56 73.8515L258.815 53.7951L253.084 86.2938L366.83 106.35Z" fill="#080708"/>
<path d="M361.508 165.322C370.483 166.904 379.041 160.912 380.623 151.938V151.938C382.205 142.964 376.213 134.406 367.239 132.823L270.235 115.719L264.505 148.218L361.508 165.322Z" fill="#080708" stroke="#080708"/>
</g>
<path d="M275 29.3927C281.83 24.0561 283.643 13.771 279.051 6.42032C274.458 -0.930359 265.198 -2.56309 258.369 2.77352L190.092 56.1237C190.029 56.1727 189.966 56.2219 189.903 56.2712L189.792 56.3583L189.227 56.7992L189.231 56.8045C187.598 58.1178 186.022 59.5184 184.509 61.0013L31.7904 34.073L16.162 122.706L175.504 150.802C184.042 163.037 196.67 171.796 211.747 174.455L323.917 194.233C332.891 195.816 341.449 189.824 343.031 180.849C344.614 171.875 338.622 163.317 329.647 161.735L354.267 166.076C363.242 167.658 371.8 161.666 373.382 152.692C374.964 143.718 368.972 135.16 359.998 133.577L376.74 136.529C385.714 138.112 394.272 132.119 395.854 123.145C397.436 114.171 391.444 105.613 382.47 104.031L362.774 100.558C371.748 102.14 380.306 96.1478 381.888 87.1736C383.471 78.1993 377.478 69.6415 368.504 68.0591L251.795 47.5246L275 29.3927Z" fill="#F5EEEB" stroke="#080708"/>
<ellipse cx="24.4685" cy="78.4764" rx="22.5" ry="45" transform="rotate(10 24.4685 78.4764)" fill="#080708" stroke="#080708"/>
<path d="M87.7059 137.352C98.7085 139.292 111.282 120.142 115.789 94.5785C120.297 69.0155 115.031 46.7198 104.029 44.7798L132.362 49.7758C143.365 51.7158 148.63 74.0115 144.123 99.5745C139.615 125.138 127.042 144.288 116.039 142.348L87.7059 137.352Z" fill="#080708"/>
<path fill-rule="evenodd" clip-rule="evenodd" d="M110.328 50.3654C108.46 47.747 106.274 46.1913 103.855 45.7648L104.202 43.7952L132.536 48.7911C135.618 49.3346 138.216 51.2935 140.289 54.2C142.359 57.1014 143.949 61.0022 145.032 65.5869C147.198 74.7599 147.379 86.8657 145.107 99.7483C142.836 112.631 138.526 123.945 133.352 131.824C130.767 135.762 127.939 138.883 125.001 140.902C122.059 142.924 118.948 143.876 115.865 143.333L87.5319 138.337L87.8792 136.367C90.2984 136.794 92.8845 136.079 95.5351 134.258C98.1908 132.433 100.85 129.533 103.347 125.73C108.338 118.128 112.568 107.085 114.804 94.4051C117.04 81.7247 116.842 69.9011 114.752 61.0506C113.706 56.6235 112.199 52.9889 110.328 50.3654ZM93.9517 137.438L116.213 141.363C118.632 141.79 121.218 141.075 123.869 139.254C126.524 137.428 129.184 134.529 131.681 130.726C136.672 123.124 140.902 112.081 143.138 99.4011C145.374 86.7206 145.176 74.8971 143.085 66.0465C142.04 61.6195 140.532 57.9848 138.661 55.3614C136.793 52.7429 134.608 51.1873 132.188 50.7608L109.927 46.8355C110.651 47.5293 111.327 48.3231 111.956 49.204C114.025 52.1054 115.616 56.0062 116.698 60.5909C118.865 69.764 119.045 81.8697 116.774 94.7524C114.502 107.635 110.192 118.949 105.019 126.828C102.433 130.766 99.605 133.887 96.6679 135.906C95.7762 136.519 94.8689 137.033 93.9517 137.438Z" fill="#080708"/>
<path d="M109.873 60.2275C110.572 58.4605 112.417 57.4286 114.288 57.7585L143.128 62.8439C145 63.1738 146.38 64.7745 146.432 66.6738L146.767 78.918C146.836 81.4485 144.567 83.4061 142.074 82.9665L108.397 77.0283C105.904 76.5887 104.441 73.973 105.371 71.6187L109.873 60.2275Z" fill="#C64677" stroke="#080708"/>
<path d="M98.655 123.85C98.7069 125.749 100.088 127.35 101.959 127.68L130.799 132.765C132.671 133.095 134.516 132.063 135.214 130.296L139.716 118.905C140.647 116.551 139.184 113.935 136.691 113.496L103.013 107.557C100.52 107.118 98.2511 109.075 98.3203 111.606L98.655 123.85Z" fill="#C64677" stroke="#080708"/>
<circle cx="122.267" cy="96.1253" r="31" transform="rotate(10 122.267 96.1253)" fill="#C64677" stroke="#080708"/>
<circle cx="122.457" cy="95.7544" r="27" transform="rotate(10 122.457 95.7544)" fill="#F5EEEB" stroke="#080708"/>
<path d="M116.131 84.2224C115.754 83.1844 116.289 82.0368 117.327 81.659V81.659C118.365 81.2812 119.512 81.8164 119.89 82.8543L124.336 95.0703L120.578 96.4384L116.131 84.2224Z" fill="#080708"/>
<path d="M126.451 73.104L125.757 77.0432" stroke="#080708" stroke-linecap="round" stroke-linejoin="round"/>
<path d="M137.241 78.1355L134.67 81.1997" stroke="#080708" stroke-linecap="round" stroke-linejoin="round"/>
<path d="M144.07 87.8879L140.311 89.256" stroke="#080708" stroke-linecap="round" stroke-linejoin="round"/>
<path d="M145.108 99.7485L141.169 99.0539" stroke="#080708" stroke-linecap="round" stroke-linejoin="round"/>
<path d="M140.076 110.539L137.012 107.967" stroke="#080708" stroke-linecap="round" stroke-linejoin="round"/>
<path d="M130.323 117.367L128.955 113.608" stroke="#080708" stroke-linecap="round" stroke-linejoin="round"/>
<path d="M118.463 118.405L119.157 114.466" stroke="#080708" stroke-linecap="round" stroke-linejoin="round"/>
<path d="M107.673 113.373L110.244 110.309" stroke="#080708" stroke-linecap="round" stroke-linejoin="round"/>
<path d="M100.844 103.621L104.603 102.253" stroke="#080708" stroke-linecap="round" stroke-linejoin="round"/>
<path d="M99.8062 91.7603L103.745 92.4548" stroke="#080708" stroke-linecap="round" stroke-linejoin="round"/>
<path d="M104.838 80.9702L107.903 83.5414" stroke="#080708" stroke-linecap="round" stroke-linejoin="round"/>
<path d="M114.591 74.1416L115.959 77.9004" stroke="#080708" stroke-linecap="round" stroke-linejoin="round"/>
<rect x="141.543" y="81.1692" width="2" height="24" rx="1" transform="rotate(55 141.543 81.1692)" fill="#080708"/>
<circle cx="122.457" cy="95.7544" r="3" transform="rotate(10 122.457 95.7544)" fill="#F5EEEB" stroke="#080708"/>
<path d="M121.936 98.7088C123.568 98.9965 125.124 97.907 125.411 96.2753L119.502 95.2334C119.215 96.8651 120.304 98.4211 121.936 98.7088Z" fill="#080708"/>
<path d="M101.712 46.4022C101.904 45.3144 102.941 44.5881 104.029 44.7799V44.7799L103.681 46.7495L101.712 46.4022V46.4022Z" fill="#080708"/>
<path d="M100.727 46.2286C101.015 44.5969 102.571 43.5074 104.202 43.7951L104.029 44.7799L103.682 46.7495L100.727 46.2286Z" fill="#080708"/>
<path d="M100.727 46.2286C101.015 44.5969 102.571 43.5074 104.202 43.7951L104.029 44.7799L103.682 46.7495L100.727 46.2286Z" fill="#080708"/>
<path d="M85.0986 134.861C84.8109 136.493 85.9004 138.049 87.5321 138.337L88.0531 135.382L85.0986 134.861Z" fill="#080708"/>
<path d="M693.274 232.257L688.988 224.732L697.648 224.782L695.922 227.733L695.147 229.056L693.274 232.257Z" fill="#080708"/>
<path d="M718.859 200.397L716.253 202.61L714.699 194.09L722.855 197.005L720.028 199.405L718.859 200.397Z" fill="#080708"/>
<path d="M718.571 198.44C723.291 205.629 722.976 215.34 717.164 222.267C711.29 229.267 701.641 231.231 693.693 227.681" stroke="#080708" stroke-linecap="square"/>
<circle cx="689.587" cy="199.126" r="4" transform="rotate(-50 689.587 199.126)" fill="#C64677" stroke="#080708"/>
<path d="M692.651 201.698L717.164 222.267" stroke="#080708"/>
<path d="M693.391 210.15L701.104 200.958" stroke="#080708" stroke-linecap="round"/>
<path d="M269.709 84.1482L364.251 100.818" stroke="#080708"/>
<path d="M263.979 116.647L362.46 134.012" stroke="#080708"/>
<path d="M258.249 149.146L332.11 162.169" stroke="#080708"/>
</g>
<defs>
<clipPath id="clip0_325_6376">
<rect width="898" height="365" fill="white"/>
</clipPath>
<clipPath id="clip1_325_6376">
<rect width="53" height="41" fill="white" transform="translate(720.345 154.469) rotate(10)"/>
</clipPath>
</defs>
</svg>
