<svg width="2000" height="2025" viewBox="0 0 2000 2025" fill="none" xmlns="http://www.w3.org/2000/svg">
<g clip-path="url(#clip0_325_10587)">
<path d="M0 125C0 55.9644 55.9644 0 125 0C153.14 0 179.108 9.29862 200 24.9908C220.892 9.29862 246.86 0 275 0C344.036 0 400 55.9644 400 125" stroke="#080708"/>
<path d="M400 125C400 55.9644 455.964 0 525 0C553.14 0 579.108 9.29862 600 24.9908C620.892 9.29862 646.86 0 675 0C744.036 0 800 55.9644 800 125" stroke="#080708"/>
<path d="M800 125C800 55.9644 855.964 0 925 0C953.14 0 979.108 9.29862 1000 24.9908C1020.89 9.29862 1046.86 0 1075 0C1144.04 0 1200 55.9644 1200 125" stroke="#080708"/>
<path d="M1200 125C1200 55.9644 1255.96 0 1325 0C1353.14 0 1379.11 9.29862 1400 24.9908C1420.89 9.29862 1446.86 0 1475 0C1544.04 0 1600 55.9644 1600 125" stroke="#080708"/>
<path d="M1600 125C1600 55.9644 1655.96 0 1725 0C1753.14 0 1779.11 9.29862 1800 24.9908C1820.89 9.29862 1846.86 0 1875 0C1944.04 0 2000 55.9644 2000 125" stroke="#080708"/>
<path d="M0 325C0 255.964 55.9644 200 125 200C153.14 200 179.108 209.299 200 224.991C220.892 209.299 246.86 200 275 200C344.036 200 400 255.964 400 325" stroke="#080708"/>
<path d="M400 325C400 255.964 455.964 200 525 200C553.14 200 579.108 209.299 600 224.991C620.892 209.299 646.86 200 675 200C744.036 200 800 255.964 800 325" stroke="#080708"/>
<path d="M800 325C800 255.964 855.964 200 925 200C953.14 200 979.108 209.299 1000 224.991C1020.89 209.299 1046.86 200 1075 200C1144.04 200 1200 255.964 1200 325" stroke="#080708"/>
<path d="M1200 325C1200 255.964 1255.96 200 1325 200C1353.14 200 1379.11 209.299 1400 224.991C1420.89 209.299 1446.86 200 1475 200C1544.04 200 1600 255.964 1600 325" stroke="#080708"/>
<path d="M1600 325C1600 255.964 1655.96 200 1725 200C1753.14 200 1779.11 209.299 1800 224.991C1820.89 209.299 1846.86 200 1875 200C1944.04 200 2000 255.964 2000 325" stroke="#080708"/>
<path d="M0 525C0 455.964 55.9644 400 125 400C153.14 400 179.108 409.299 200 424.991C220.892 409.299 246.86 400 275 400C344.036 400 400 455.964 400 525" stroke="#080708"/>
<path d="M400 525C400 455.964 455.964 400 525 400C553.14 400 579.108 409.299 600 424.991C620.892 409.299 646.86 400 675 400C744.036 400 800 455.964 800 525" stroke="#080708"/>
<path d="M800 525C800 455.964 855.964 400 925 400C953.14 400 979.108 409.299 1000 424.991C1020.89 409.299 1046.86 400 1075 400C1144.04 400 1200 455.964 1200 525" stroke="#080708"/>
<path d="M1200 525C1200 455.964 1255.96 400 1325 400C1353.14 400 1379.11 409.299 1400 424.991C1420.89 409.299 1446.86 400 1475 400C1544.04 400 1600 455.964 1600 525" stroke="#080708"/>
<path d="M1600 525C1600 455.964 1655.96 400 1725 400C1753.14 400 1779.11 409.299 1800 424.991C1820.89 409.299 1846.86 400 1875 400C1944.04 400 2000 455.964 2000 525" stroke="#080708"/>
<path d="M0 725C0 655.964 55.9644 600 125 600C153.14 600 179.108 609.299 200 624.991C220.892 609.299 246.86 600 275 600C344.036 600 400 655.964 400 725" stroke="#080708"/>
<path d="M400 725C400 655.964 455.964 600 525 600C553.14 600 579.108 609.299 600 624.991C620.892 609.299 646.86 600 675 600C744.036 600 800 655.964 800 725" stroke="#080708"/>
<path d="M800 725C800 655.964 855.964 600 925 600C953.14 600 979.108 609.299 1000 624.991C1020.89 609.299 1046.86 600 1075 600C1144.04 600 1200 655.964 1200 725" stroke="#080708"/>
<path d="M1200 725C1200 655.964 1255.96 600 1325 600C1353.14 600 1379.11 609.299 1400 624.991C1420.89 609.299 1446.86 600 1475 600C1544.04 600 1600 655.964 1600 725" stroke="#080708"/>
<path d="M1600 725C1600 655.964 1655.96 600 1725 600C1753.14 600 1779.11 609.299 1800 624.991C1820.89 609.299 1846.86 600 1875 600C1944.04 600 2000 655.964 2000 725" stroke="#080708"/>
<path d="M0 925C0 855.964 55.9644 800 125 800C153.14 800 179.108 809.299 200 824.991C220.892 809.299 246.86 800 275 800C344.036 800 400 855.964 400 925" stroke="#080708"/>
<path d="M400 925C400 855.964 455.964 800 525 800C553.14 800 579.108 809.299 600 824.991C620.892 809.299 646.86 800 675 800C744.036 800 800 855.964 800 925" stroke="#080708"/>
<path d="M800 925C800 855.964 855.964 800 925 800C953.14 800 979.108 809.299 1000 824.991C1020.89 809.299 1046.86 800 1075 800C1144.04 800 1200 855.964 1200 925" stroke="#080708"/>
<path d="M1200 925C1200 855.964 1255.96 800 1325 800C1353.14 800 1379.11 809.299 1400 824.991C1420.89 809.299 1446.86 800 1475 800C1544.04 800 1600 855.964 1600 925" stroke="#080708"/>
<path d="M1600 925C1600 855.964 1655.96 800 1725 800C1753.14 800 1779.11 809.299 1800 824.991C1820.89 809.299 1846.86 800 1875 800C1944.04 800 2000 855.964 2000 925" stroke="#080708"/>
<path d="M0 1125C0 1055.96 55.9644 1000 125 1000C153.14 1000 179.108 1009.3 200 1024.99C220.892 1009.3 246.86 1000 275 1000C344.036 1000 400 1055.96 400 1125" stroke="#080708"/>
<path d="M400 1125C400 1055.96 455.964 1000 525 1000C553.14 1000 579.108 1009.3 600 1024.99C620.892 1009.3 646.86 1000 675 1000C744.036 1000 800 1055.96 800 1125" stroke="#080708"/>
<path d="M800 1125C800 1055.96 855.964 1000 925 1000C953.14 1000 979.108 1009.3 1000 1024.99C1020.89 1009.3 1046.86 1000 1075 1000C1144.04 1000 1200 1055.96 1200 1125" stroke="#080708"/>
<path d="M1200 1125C1200 1055.96 1255.96 1000 1325 1000C1353.14 1000 1379.11 1009.3 1400 1024.99C1420.89 1009.3 1446.86 1000 1475 1000C1544.04 1000 1600 1055.96 1600 1125" stroke="#080708"/>
<path d="M1600 1125C1600 1055.96 1655.96 1000 1725 1000C1753.14 1000 1779.11 1009.3 1800 1024.99C1820.89 1009.3 1846.86 1000 1875 1000C1944.04 1000 2000 1055.96 2000 1125" stroke="#080708"/>
<path d="M0 1325C0 1255.96 55.9644 1200 125 1200C153.14 1200 179.108 1209.3 200 1224.99C220.892 1209.3 246.86 1200 275 1200C344.036 1200 400 1255.96 400 1325" stroke="#080708"/>
<path d="M400 1325C400 1255.96 455.964 1200 525 1200C553.14 1200 579.108 1209.3 600 1224.99C620.892 1209.3 646.86 1200 675 1200C744.036 1200 800 1255.96 800 1325" stroke="#080708"/>
<path d="M800 1325C800 1255.96 855.964 1200 925 1200C953.14 1200 979.108 1209.3 1000 1224.99C1020.89 1209.3 1046.86 1200 1075 1200C1144.04 1200 1200 1255.96 1200 1325" stroke="#080708"/>
<path d="M1200 1325C1200 1255.96 1255.96 1200 1325 1200C1353.14 1200 1379.11 1209.3 1400 1224.99C1420.89 1209.3 1446.86 1200 1475 1200C1544.04 1200 1600 1255.96 1600 1325" stroke="#080708"/>
<path d="M1600 1325C1600 1255.96 1655.96 1200 1725 1200C1753.14 1200 1779.11 1209.3 1800 1224.99C1820.89 1209.3 1846.86 1200 1875 1200C1944.04 1200 2000 1255.96 2000 1325" stroke="#080708"/>
<path d="M0 1525C0 1455.96 55.9644 1400 125 1400C153.14 1400 179.108 1409.3 200 1424.99C220.892 1409.3 246.86 1400 275 1400C344.036 1400 400 1455.96 400 1525" stroke="#080708"/>
<path d="M400 1525C400 1455.96 455.964 1400 525 1400C553.14 1400 579.108 1409.3 600 1424.99C620.892 1409.3 646.86 1400 675 1400C744.036 1400 800 1455.96 800 1525" stroke="#080708"/>
<path d="M800 1525C800 1455.96 855.964 1400 925 1400C953.14 1400 979.108 1409.3 1000 1424.99C1020.89 1409.3 1046.86 1400 1075 1400C1144.04 1400 1200 1455.96 1200 1525" stroke="#080708"/>
<path d="M1200 1525C1200 1455.96 1255.96 1400 1325 1400C1353.14 1400 1379.11 1409.3 1400 1424.99C1420.89 1409.3 1446.86 1400 1475 1400C1544.04 1400 1600 1455.96 1600 1525" stroke="#080708"/>
<path d="M1600 1525C1600 1455.96 1655.96 1400 1725 1400C1753.14 1400 1779.11 1409.3 1800 1424.99C1820.89 1409.3 1846.86 1400 1875 1400C1944.04 1400 2000 1455.96 2000 1525" stroke="#080708"/>
<path d="M0 1725C0 1655.96 55.9644 1600 125 1600C153.14 1600 179.108 1609.3 200 1624.99C220.892 1609.3 246.86 1600 275 1600C344.036 1600 400 1655.96 400 1725" stroke="#080708"/>
<path d="M400 1725C400 1655.96 455.964 1600 525 1600C553.14 1600 579.108 1609.3 600 1624.99C620.892 1609.3 646.86 1600 675 1600C744.036 1600 800 1655.96 800 1725" stroke="#080708"/>
<path d="M800 1725C800 1655.96 855.964 1600 925 1600C953.14 1600 979.108 1609.3 1000 1624.99C1020.89 1609.3 1046.86 1600 1075 1600C1144.04 1600 1200 1655.96 1200 1725" stroke="#080708"/>
<path d="M1200 1725C1200 1655.96 1255.96 1600 1325 1600C1353.14 1600 1379.11 1609.3 1400 1624.99C1420.89 1609.3 1446.86 1600 1475 1600C1544.04 1600 1600 1655.96 1600 1725" stroke="#080708"/>
<path d="M1600 1725C1600 1655.96 1655.96 1600 1725 1600C1753.14 1600 1779.11 1609.3 1800 1624.99C1820.89 1609.3 1846.86 1600 1875 1600C1944.04 1600 2000 1655.96 2000 1725" stroke="#080708"/>
<path d="M0 1925C0 1855.96 55.9644 1800 125 1800C153.14 1800 179.108 1809.3 200 1824.99C220.892 1809.3 246.86 1800 275 1800C344.036 1800 400 1855.96 400 1925" stroke="#080708"/>
<path d="M400 1925C400 1855.96 455.964 1800 525 1800C553.14 1800 579.108 1809.3 600 1824.99C620.892 1809.3 646.86 1800 675 1800C744.036 1800 800 1855.96 800 1925" stroke="#080708"/>
<path d="M800 1925C800 1855.96 855.964 1800 925 1800C953.14 1800 979.108 1809.3 1000 1824.99C1020.89 1809.3 1046.86 1800 1075 1800C1144.04 1800 1200 1855.96 1200 1925" stroke="#080708"/>
<path d="M1200 1925C1200 1855.96 1255.96 1800 1325 1800C1353.14 1800 1379.11 1809.3 1400 1824.99C1420.89 1809.3 1446.86 1800 1475 1800C1544.04 1800 1600 1855.96 1600 1925" stroke="#080708"/>
<path d="M1600 1925C1600 1855.96 1655.96 1800 1725 1800C1753.14 1800 1779.11 1809.3 1800 1824.99C1820.89 1809.3 1846.86 1800 1875 1800C1944.04 1800 2000 1855.96 2000 1925" stroke="#080708"/>
<path d="M200 225C200 155.964 255.964 100 325 100C353.14 100 379.108 109.299 400 124.991C420.892 109.299 446.86 100 475 100C544.036 100 600 155.964 600 225" stroke="#080708"/>
<path d="M-200 225C-200 155.964 -144.036 100 -75 100C-46.8599 100 -20.8915 109.299 0 124.991C20.8915 109.299 46.8599 100 75 100C144.036 100 200 155.964 200 225" stroke="#080708"/>
<path d="M600 225C600 155.964 655.964 100 725 100C753.14 100 779.108 109.299 800 124.991C820.892 109.299 846.86 100 875 100C944.036 100 1000 155.964 1000 225" stroke="#080708"/>
<path d="M1000 225C1000 155.964 1055.96 100 1125 100C1153.14 100 1179.11 109.299 1200 124.991C1220.89 109.299 1246.86 100 1275 100C1344.04 100 1400 155.964 1400 225" stroke="#080708"/>
<path d="M1400 225C1400 155.964 1455.96 100 1525 100C1553.14 100 1579.11 109.299 1600 124.991C1620.89 109.299 1646.86 100 1675 100C1744.04 100 1800 155.964 1800 225" stroke="#080708"/>
<path d="M1800 225C1800 155.964 1855.96 100 1925 100C1953.14 100 1979.11 109.299 2000 124.991C2020.89 109.299 2046.86 100 2075 100C2144.04 100 2200 155.964 2200 225" stroke="#080708"/>
<path d="M200 425C200 355.964 255.964 300 325 300C353.14 300 379.108 309.299 400 324.991C420.892 309.299 446.86 300 475 300C544.036 300 600 355.964 600 425" stroke="#080708"/>
<path d="M-200 425C-200 355.964 -144.036 300 -75 300C-46.8599 300 -20.8915 309.299 0 324.991C20.8915 309.299 46.8599 300 75 300C144.036 300 200 355.964 200 425" stroke="#080708"/>
<path d="M600 425C600 355.964 655.964 300 725 300C753.14 300 779.108 309.299 800 324.991C820.892 309.299 846.86 300 875 300C944.036 300 1000 355.964 1000 425" stroke="#080708"/>
<path d="M1000 425C1000 355.964 1055.96 300 1125 300C1153.14 300 1179.11 309.299 1200 324.991C1220.89 309.299 1246.86 300 1275 300C1344.04 300 1400 355.964 1400 425" stroke="#080708"/>
<path d="M1400 425C1400 355.964 1455.96 300 1525 300C1553.14 300 1579.11 309.299 1600 324.991C1620.89 309.299 1646.86 300 1675 300C1744.04 300 1800 355.964 1800 425" stroke="#080708"/>
<path d="M1800 425C1800 355.964 1855.96 300 1925 300C1953.14 300 1979.11 309.299 2000 324.991C2020.89 309.299 2046.86 300 2075 300C2144.04 300 2200 355.964 2200 425" stroke="#080708"/>
<path d="M200 625C200 555.964 255.964 500 325 500C353.14 500 379.108 509.299 400 524.991C420.892 509.299 446.86 500 475 500C544.036 500 600 555.964 600 625" stroke="#080708"/>
<path d="M-200 625C-200 555.964 -144.036 500 -75 500C-46.8599 500 -20.8915 509.299 0 524.991C20.8915 509.299 46.8599 500 75 500C144.036 500 200 555.964 200 625" stroke="#080708"/>
<path d="M600 625C600 555.964 655.964 500 725 500C753.14 500 779.108 509.299 800 524.991C820.892 509.299 846.86 500 875 500C944.036 500 1000 555.964 1000 625" stroke="#080708"/>
<path d="M1000 625C1000 555.964 1055.96 500 1125 500C1153.14 500 1179.11 509.299 1200 524.991C1220.89 509.299 1246.86 500 1275 500C1344.04 500 1400 555.964 1400 625" stroke="#080708"/>
<path d="M1400 625C1400 555.964 1455.96 500 1525 500C1553.14 500 1579.11 509.299 1600 524.991C1620.89 509.299 1646.86 500 1675 500C1744.04 500 1800 555.964 1800 625" stroke="#080708"/>
<path d="M1800 625C1800 555.964 1855.96 500 1925 500C1953.14 500 1979.11 509.299 2000 524.991C2020.89 509.299 2046.86 500 2075 500C2144.04 500 2200 555.964 2200 625" stroke="#080708"/>
<path d="M200 825C200 755.964 255.964 700 325 700C353.14 700 379.108 709.299 400 724.991C420.892 709.299 446.86 700 475 700C544.036 700 600 755.964 600 825" stroke="#080708"/>
<path d="M-200 825C-200 755.964 -144.036 700 -75 700C-46.8599 700 -20.8915 709.299 0 724.991C20.8915 709.299 46.8599 700 75 700C144.036 700 200 755.964 200 825" stroke="#080708"/>
<path d="M600 825C600 755.964 655.964 700 725 700C753.14 700 779.108 709.299 800 724.991C820.892 709.299 846.86 700 875 700C944.036 700 1000 755.964 1000 825" stroke="#080708"/>
<path d="M1000 825C1000 755.964 1055.96 700 1125 700C1153.14 700 1179.11 709.299 1200 724.991C1220.89 709.299 1246.86 700 1275 700C1344.04 700 1400 755.964 1400 825" stroke="#080708"/>
<path d="M1400 825C1400 755.964 1455.96 700 1525 700C1553.14 700 1579.11 709.299 1600 724.991C1620.89 709.299 1646.86 700 1675 700C1744.04 700 1800 755.964 1800 825" stroke="#080708"/>
<path d="M1800 825C1800 755.964 1855.96 700 1925 700C1953.14 700 1979.11 709.299 2000 724.991C2020.89 709.299 2046.86 700 2075 700C2144.04 700 2200 755.964 2200 825" stroke="#080708"/>
<path d="M200 1025C200 955.964 255.964 900 325 900C353.14 900 379.108 909.299 400 924.991C420.892 909.299 446.86 900 475 900C544.036 900 600 955.964 600 1025" stroke="#080708"/>
<path d="M-200 1025C-200 955.964 -144.036 900 -75 900C-46.8599 900 -20.8915 909.299 0 924.991C20.8915 909.299 46.8599 900 75 900C144.036 900 200 955.964 200 1025" stroke="#080708"/>
<path d="M600 1025C600 955.964 655.964 900 725 900C753.14 900 779.108 909.299 800 924.991C820.892 909.299 846.86 900 875 900C944.036 900 1000 955.964 1000 1025" stroke="#080708"/>
<path d="M1000 1025C1000 955.964 1055.96 900 1125 900C1153.14 900 1179.11 909.299 1200 924.991C1220.89 909.299 1246.86 900 1275 900C1344.04 900 1400 955.964 1400 1025" stroke="#080708"/>
<path d="M1400 1025C1400 955.964 1455.96 900 1525 900C1553.14 900 1579.11 909.299 1600 924.991C1620.89 909.299 1646.86 900 1675 900C1744.04 900 1800 955.964 1800 1025" stroke="#080708"/>
<path d="M1800 1025C1800 955.964 1855.96 900 1925 900C1953.14 900 1979.11 909.299 2000 924.991C2020.89 909.299 2046.86 900 2075 900C2144.04 900 2200 955.964 2200 1025" stroke="#080708"/>
<path d="M200 1225C200 1155.96 255.964 1100 325 1100C353.14 1100 379.108 1109.3 400 1124.99C420.892 1109.3 446.86 1100 475 1100C544.036 1100 600 1155.96 600 1225" stroke="#080708"/>
<path d="M-200 1225C-200 1155.96 -144.036 1100 -75 1100C-46.8599 1100 -20.8915 1109.3 0 1124.99C20.8915 1109.3 46.8599 1100 75 1100C144.036 1100 200 1155.96 200 1225" stroke="#080708"/>
<path d="M600 1225C600 1155.96 655.964 1100 725 1100C753.14 1100 779.108 1109.3 800 1124.99C820.892 1109.3 846.86 1100 875 1100C944.036 1100 1000 1155.96 1000 1225" stroke="#080708"/>
<path d="M1000 1225C1000 1155.96 1055.96 1100 1125 1100C1153.14 1100 1179.11 1109.3 1200 1124.99C1220.89 1109.3 1246.86 1100 1275 1100C1344.04 1100 1400 1155.96 1400 1225" stroke="#080708"/>
<path d="M1400 1225C1400 1155.96 1455.96 1100 1525 1100C1553.14 1100 1579.11 1109.3 1600 1124.99C1620.89 1109.3 1646.86 1100 1675 1100C1744.04 1100 1800 1155.96 1800 1225" stroke="#080708"/>
<path d="M1800 1225C1800 1155.96 1855.96 1100 1925 1100C1953.14 1100 1979.11 1109.3 2000 1124.99C2020.89 1109.3 2046.86 1100 2075 1100C2144.04 1100 2200 1155.96 2200 1225" stroke="#080708"/>
<path d="M200 1425C200 1355.96 255.964 1300 325 1300C353.14 1300 379.108 1309.3 400 1324.99C420.892 1309.3 446.86 1300 475 1300C544.036 1300 600 1355.96 600 1425" stroke="#080708"/>
<path d="M-200 1425C-200 1355.96 -144.036 1300 -75 1300C-46.8599 1300 -20.8915 1309.3 0 1324.99C20.8915 1309.3 46.8599 1300 75 1300C144.036 1300 200 1355.96 200 1425" stroke="#080708"/>
<path d="M600 1425C600 1355.96 655.964 1300 725 1300C753.14 1300 779.108 1309.3 800 1324.99C820.892 1309.3 846.86 1300 875 1300C944.036 1300 1000 1355.96 1000 1425" stroke="#080708"/>
<path d="M1000 1425C1000 1355.96 1055.96 1300 1125 1300C1153.14 1300 1179.11 1309.3 1200 1324.99C1220.89 1309.3 1246.86 1300 1275 1300C1344.04 1300 1400 1355.96 1400 1425" stroke="#080708"/>
<path d="M1400 1425C1400 1355.96 1455.96 1300 1525 1300C1553.14 1300 1579.11 1309.3 1600 1324.99C1620.89 1309.3 1646.86 1300 1675 1300C1744.04 1300 1800 1355.96 1800 1425" stroke="#080708"/>
<path d="M1800 1425C1800 1355.96 1855.96 1300 1925 1300C1953.14 1300 1979.11 1309.3 2000 1324.99C2020.89 1309.3 2046.86 1300 2075 1300C2144.04 1300 2200 1355.96 2200 1425" stroke="#080708"/>
<path d="M200 1625C200 1555.96 255.964 1500 325 1500C353.14 1500 379.108 1509.3 400 1524.99C420.892 1509.3 446.86 1500 475 1500C544.036 1500 600 1555.96 600 1625" stroke="#080708"/>
<path d="M-200 1625C-200 1555.96 -144.036 1500 -75 1500C-46.8599 1500 -20.8915 1509.3 0 1524.99C20.8915 1509.3 46.8599 1500 75 1500C144.036 1500 200 1555.96 200 1625" stroke="#080708"/>
<path d="M600 1625C600 1555.96 655.964 1500 725 1500C753.14 1500 779.108 1509.3 800 1524.99C820.892 1509.3 846.86 1500 875 1500C944.036 1500 1000 1555.96 1000 1625" stroke="#080708"/>
<path d="M1000 1625C1000 1555.96 1055.96 1500 1125 1500C1153.14 1500 1179.11 1509.3 1200 1524.99C1220.89 1509.3 1246.86 1500 1275 1500C1344.04 1500 1400 1555.96 1400 1625" stroke="#080708"/>
<path d="M1400 1625C1400 1555.96 1455.96 1500 1525 1500C1553.14 1500 1579.11 1509.3 1600 1524.99C1620.89 1509.3 1646.86 1500 1675 1500C1744.04 1500 1800 1555.96 1800 1625" stroke="#080708"/>
<path d="M1800 1625C1800 1555.96 1855.96 1500 1925 1500C1953.14 1500 1979.11 1509.3 2000 1524.99C2020.89 1509.3 2046.86 1500 2075 1500C2144.04 1500 2200 1555.96 2200 1625" stroke="#080708"/>
<path d="M200 1825C200 1755.96 255.964 1700 325 1700C353.14 1700 379.108 1709.3 400 1724.99C420.892 1709.3 446.86 1700 475 1700C544.036 1700 600 1755.96 600 1825" stroke="#080708"/>
<path d="M-200 1825C-200 1755.96 -144.036 1700 -75 1700C-46.8599 1700 -20.8915 1709.3 0 1724.99C20.8915 1709.3 46.8599 1700 75 1700C144.036 1700 200 1755.96 200 1825" stroke="#080708"/>
<path d="M600 1825C600 1755.96 655.964 1700 725 1700C753.14 1700 779.108 1709.3 800 1724.99C820.892 1709.3 846.86 1700 875 1700C944.036 1700 1000 1755.96 1000 1825" stroke="#080708"/>
<path d="M1000 1825C1000 1755.96 1055.96 1700 1125 1700C1153.14 1700 1179.11 1709.3 1200 1724.99C1220.89 1709.3 1246.86 1700 1275 1700C1344.04 1700 1400 1755.96 1400 1825" stroke="#080708"/>
<path d="M1400 1825C1400 1755.96 1455.96 1700 1525 1700C1553.14 1700 1579.11 1709.3 1600 1724.99C1620.89 1709.3 1646.86 1700 1675 1700C1744.04 1700 1800 1755.96 1800 1825" stroke="#080708"/>
<path d="M1800 1825C1800 1755.96 1855.96 1700 1925 1700C1953.14 1700 1979.11 1709.3 2000 1724.99C2020.89 1709.3 2046.86 1700 2075 1700C2144.04 1700 2200 1755.96 2200 1825" stroke="#080708"/>
<path d="M200 2025C200 1955.96 255.964 1900 325 1900C353.14 1900 379.108 1909.3 400 1924.99C420.892 1909.3 446.86 1900 475 1900C544.036 1900 600 1955.96 600 2025" stroke="#080708"/>
<path d="M-200 2025C-200 1955.96 -144.036 1900 -75 1900C-46.8599 1900 -20.8915 1909.3 0 1924.99C20.8915 1909.3 46.8599 1900 75 1900C144.036 1900 200 1955.96 200 2025" stroke="#080708"/>
<path d="M600 2025C600 1955.96 655.964 1900 725 1900C753.14 1900 779.108 1909.3 800 1924.99C820.892 1909.3 846.86 1900 875 1900C944.036 1900 1000 1955.96 1000 2025" stroke="#080708"/>
<path d="M1000 2025C1000 1955.96 1055.96 1900 1125 1900C1153.14 1900 1179.11 1909.3 1200 1924.99C1220.89 1909.3 1246.86 1900 1275 1900C1344.04 1900 1400 1955.96 1400 2025" stroke="#080708"/>
<path d="M1400 2025C1400 1955.96 1455.96 1900 1525 1900C1553.14 1900 1579.11 1909.3 1600 1924.99C1620.89 1909.3 1646.86 1900 1675 1900C1744.04 1900 1800 1955.96 1800 2025" stroke="#080708"/>
<path d="M1800 2025C1800 1955.96 1855.96 1900 1925 1900C1953.14 1900 1979.11 1909.3 2000 1924.99C2020.89 1909.3 2046.86 1900 2075 1900C2144.04 1900 2200 1955.96 2200 2025" stroke="#080708"/>
</g>
<defs>
<clipPath id="clip0_325_10587">
<rect width="2000" height="2025" fill="white"/>
</clipPath>
</defs>
</svg>
