<svg width="800" height="100" viewBox="0 0 800 100" fill="none" xmlns="http://www.w3.org/2000/svg" preserveAspectRatio="xMidYMid slice">
<g clip-path="url(#clip0_74_7116)">
<path d="M316.353 -12.3126L277.716 -1.95984L283.928 21.2224L286.908 20.4238C286.956 19.8078 287.385 19.2608 288.016 19.0918C288.647 18.9227 289.291 19.1821 289.641 19.6916L291.738 19.1297C291.786 18.5137 292.215 17.9667 292.845 17.7977C293.476 17.6286 294.121 17.888 294.471 18.3975L297.451 17.5989C296.593 14.3981 298.493 11.1081 301.694 10.2504C304.894 9.39279 308.184 11.2923 309.042 14.4931L312.022 13.6945C312.07 13.0785 312.499 12.5315 313.13 12.3625C313.761 12.1934 314.405 12.4528 314.755 12.9623L316.852 12.4004C316.9 11.7844 317.329 11.2374 317.96 11.0684C318.59 10.8993 319.235 11.1587 319.585 11.6682L322.565 10.8696L316.353 -12.3126Z" fill="var(--highlight)" stroke="#080708" stroke-width="2"/>
<path d="M308.247 -3.92895C309.105 -0.728152 307.205 2.56187 304.004 3.41952C300.803 4.27717 297.513 2.37768 296.656 -0.82312" stroke="#080708" stroke-width="2"/>
<path d="M127.884 -9.61475L88.4917 -2.66882L92.6593 20.9666L95.6977 20.4308C95.7994 19.8213 96.2741 19.3138 96.9172 19.2003C97.5604 19.0869 98.1801 19.4015 98.484 19.9395L100.622 19.5626C100.723 18.9531 101.198 18.4455 101.841 18.3321C102.484 18.2187 103.104 18.5333 103.408 19.0713L106.447 18.5355C105.871 15.2721 108.05 12.1602 111.314 11.5848C114.577 11.0093 117.689 13.1883 118.264 16.4517L121.303 15.9159C121.404 15.3064 121.879 14.7989 122.522 14.6855C123.165 14.5721 123.785 14.8867 124.089 15.4246L126.227 15.0477C126.328 14.4382 126.803 13.9307 127.446 13.8172C128.089 13.7038 128.709 14.0184 129.013 14.5564L132.052 14.0206L127.884 -9.61475Z" fill="var(--highlight)" stroke="#080708" stroke-width="2"/>
<path d="M119.078 -1.9694C119.653 1.29397 117.474 4.40592 114.211 4.98134C110.948 5.55676 107.836 3.37775 107.26 0.11438" stroke="#080708" stroke-width="2"/>
<path d="M138.477 50.4585L99.0845 57.4044L103.252 81.0398L106.291 80.504C106.392 79.8945 106.867 79.387 107.51 79.2736C108.153 79.1602 108.773 79.4748 109.077 80.0127L111.215 79.6358C111.316 79.0263 111.791 78.5188 112.434 78.4053C113.077 78.2919 113.697 78.6065 114.001 79.1445L117.039 78.6087C116.464 75.3454 118.643 72.2334 121.906 71.658C125.17 71.0826 128.282 73.2616 128.857 76.525L131.896 75.9892C131.997 75.3797 132.472 74.8721 133.115 74.7587C133.758 74.6453 134.378 74.9599 134.682 75.4979L136.82 75.1209C136.921 74.5114 137.396 74.0039 138.039 73.8905C138.682 73.7771 139.302 74.0917 139.606 74.6296L142.644 74.0939L138.477 50.4585Z" fill="var(--highlight)" stroke="#080708" stroke-width="2"/>
<path d="M127.095 19.9718L124.958 20.3487C124.856 20.9582 124.381 21.4658 123.738 21.5792C123.095 21.6926 122.475 21.378 122.171 20.84L119.133 21.3758C119.708 24.6391 117.529 27.7511 114.266 28.3265C111.003 28.9019 107.891 26.7229 107.315 23.4596L104.277 23.9953C104.175 24.6048 103.7 25.1124 103.057 25.2258C102.414 25.3392 101.794 25.0246 101.49 24.4866L99.3526 24.8636C99.251 25.4731 98.7763 25.9806 98.1331 26.094C97.4899 26.2074 96.8703 25.8928 96.5663 25.3549L93.5278 25.8906L99.0846 57.4045L138.477 50.4585L132.92 18.9447L129.882 19.4805C129.78 20.09 129.305 20.5975 128.662 20.7109C128.019 20.8243 127.399 20.5098 127.095 19.9718Z" fill="var(--highlight)" stroke="#080708" stroke-width="2"/>
<path d="M129.671 58.1038C130.246 61.3672 128.067 64.4792 124.804 65.0546C121.54 65.63 118.428 63.451 117.853 60.1876" stroke="#080708" stroke-width="2"/>
<circle cx="113.22" cy="48.3117" r="2.5" transform="rotate(-10 113.22 48.3117)" fill="#080708"/>
<circle cx="129.962" cy="45.3597" r="2.5" transform="rotate(-10 129.962 45.3597)" fill="#080708"/>
<path d="M137.688 80.0451L135.55 80.4221C135.448 81.0316 134.974 81.5391 134.33 81.6525C133.687 81.7659 133.068 81.4514 132.764 80.9134L129.725 81.4491C130.301 84.7125 128.122 87.8245 124.858 88.3999C121.595 88.9753 118.483 86.7963 117.907 83.5329L114.869 84.0687C114.767 84.6782 114.293 85.1857 113.649 85.2991C113.006 85.4126 112.387 85.098 112.083 84.56L109.945 84.9369C109.843 85.5464 109.369 86.054 108.725 86.1674C108.082 86.2808 107.463 85.9662 107.159 85.4282L104.12 85.964L109.677 117.478L149.069 110.532L143.512 79.0181L140.474 79.5538C140.372 80.1633 139.898 80.6709 139.254 80.7843C138.611 80.8977 137.992 80.5831 137.688 80.0451Z" fill="var(--highlight)" stroke="#080708" stroke-width="2"/>
<path d="M39.2512 6.01355L-0.141113 12.9595L4.02644 36.5949L7.06492 36.0591C7.16655 35.4496 7.64124 34.942 8.28443 34.8286C8.92762 34.7152 9.54728 35.0298 9.85123 35.5678L11.989 35.1909C12.0906 34.5814 12.5653 34.0738 13.2085 33.9604C13.8517 33.847 14.4713 34.1616 14.7753 34.6996L17.8138 34.1638C17.2383 30.9004 19.4173 27.7885 22.6807 27.213C25.9441 26.6376 29.056 28.8166 29.6314 32.08L32.6699 31.5442C32.7716 30.9347 33.2462 30.4272 33.8894 30.3138C34.5326 30.2004 35.1523 30.515 35.4562 31.0529L37.594 30.676C37.6956 30.0665 38.1703 29.559 38.8135 29.4455C39.4567 29.3321 40.0763 29.6467 40.3803 30.1847L43.4188 29.6489L39.2512 6.01355Z" fill="var(--highlight)" stroke="#080708" stroke-width="2"/>
<path d="M27.8698 -24.4732L25.732 -24.0962C25.6304 -23.4867 25.1557 -22.9792 24.5125 -22.8658C23.8693 -22.7524 23.2497 -23.067 22.9457 -23.6049L19.9072 -23.0692C20.4827 -19.8058 18.3037 -16.6939 15.0403 -16.1184C11.7769 -15.543 8.66497 -17.722 8.08956 -20.9854L5.05108 -20.4496C4.94945 -19.8401 4.47476 -19.3326 3.83157 -19.2192C3.18838 -19.1058 2.56872 -19.4203 2.26476 -19.9583L0.127037 -19.5814C0.0254134 -18.9719 -0.449283 -18.4643 -1.09247 -18.3509C-1.73566 -18.2375 -2.35532 -18.5521 -2.65927 -19.0901L-5.69775 -18.5543L-0.141012 12.9595L39.2513 6.0136L33.6946 -25.5002L30.6561 -24.9645C30.5545 -24.355 30.0798 -23.8474 29.4366 -23.734C28.7934 -23.6206 28.1737 -23.9352 27.8698 -24.4732Z" fill="var(--highlight)" stroke="#080708" stroke-width="2"/>
<path d="M30.4451 13.6589C31.0206 16.9223 28.8415 20.0342 25.5782 20.6096C22.3148 21.1851 19.2029 19.006 18.6274 15.7427" stroke="#080708" stroke-width="2"/>
<circle cx="13.9948" cy="3.86677" r="2.5" transform="rotate(-10 13.9948 3.86677)" fill="#080708"/>
<circle cx="30.7365" cy="0.91474" r="2.5" transform="rotate(-10 30.7365 0.91474)" fill="#080708"/>
<path d="M49.844 66.0868L10.4517 73.0327L14.6192 96.6681L17.6577 96.1323C17.7593 95.5228 18.234 95.0153 18.8772 94.9019C19.5204 94.7885 20.1401 95.103 20.444 95.641L22.5817 95.2641C22.6834 94.6546 23.1581 94.147 23.8012 94.0336C24.4444 93.9202 25.0641 94.2348 25.368 94.7728L28.4065 94.237C27.8311 90.9737 30.0101 87.8617 33.2735 87.2863C36.5368 86.7109 39.6488 88.8899 40.2242 92.1532L43.2627 91.6175C43.3643 91.008 43.839 90.5004 44.4822 90.387C45.1254 90.2736 45.7451 90.5882 46.049 91.1262L48.1867 90.7492C48.2884 90.1397 48.7631 89.6322 49.4062 89.5188C50.0494 89.4054 50.6691 89.72 50.973 90.2579L54.0115 89.7222L49.844 66.0868Z" fill="var(--highlight)" stroke="#080708" stroke-width="2"/>
<path d="M38.4625 35.6001L36.3248 35.977C36.2232 36.5865 35.7485 37.094 35.1053 37.2075C34.4621 37.3209 33.8425 37.0063 33.5385 36.4683L30.5 37.0041C31.0754 40.2674 28.8964 43.3794 25.6331 43.9548C22.3697 44.5302 19.2577 42.3512 18.6823 39.0878L15.6438 39.6236C15.5422 40.2331 15.0675 40.7407 14.4243 40.8541C13.7812 40.9675 13.1615 40.6529 12.8575 40.1149L10.7198 40.4919C10.6182 41.1014 10.1435 41.6089 9.5003 41.7223C8.85712 41.8357 8.23746 41.5211 7.9335 40.9832L4.89502 41.5189L10.4518 73.0328L49.8441 66.0868L44.2873 34.573L41.2489 35.1088C41.1472 35.7183 40.6725 36.2258 40.0293 36.3392C39.3862 36.4526 38.7665 36.138 38.4625 35.6001Z" fill="var(--highlight)" stroke="#080708" stroke-width="2"/>
<path d="M41.0379 73.7321C41.6133 76.9955 39.4343 80.1075 36.171 80.6829C32.9076 81.2583 29.7956 79.0793 29.2202 75.8159" stroke="#080708" stroke-width="2"/>
<circle cx="24.5875" cy="63.94" r="2.5" transform="rotate(-10 24.5875 63.94)" fill="#080708"/>
<circle cx="41.3292" cy="60.988" r="2.5" transform="rotate(-10 41.3292 60.988)" fill="#080708"/>
<path d="M49.0548 95.6734L46.9171 96.0504C46.8155 96.6599 46.3408 97.1674 45.6976 97.2808C45.0544 97.3942 44.4347 97.0797 44.1308 96.5417L41.0923 97.0774C41.6677 100.341 39.4887 103.453 36.2253 104.028C32.962 104.604 29.85 102.425 29.2746 99.1612L26.2361 99.697C26.1345 100.306 25.6598 100.814 25.0166 100.927C24.3734 101.041 23.7538 100.726 23.4498 100.188L21.3121 100.565C21.2105 101.175 20.7358 101.682 20.0926 101.796C19.4494 101.909 18.8297 101.595 18.5258 101.057L15.4873 101.592L21.044 133.106L60.4364 126.16L54.8796 94.6464L51.8411 95.1821C51.7395 95.7916 51.2648 96.2992 50.6216 96.4126C49.9784 96.526 49.3588 96.2114 49.0548 95.6734Z" fill="var(--highlight)" stroke="#080708" stroke-width="2"/>
<path d="M216.517 -25.243L177.125 -18.2971L181.292 5.33827L184.331 4.8025C184.432 4.193 184.907 3.68545 185.55 3.57204C186.193 3.45863 186.813 3.77321 187.117 4.3112L189.255 3.93426C189.356 3.32476 189.831 2.81721 190.474 2.7038C191.117 2.59039 191.737 2.90497 192.041 3.44296L195.079 2.90719C194.504 -0.356173 196.683 -3.46812 199.946 -4.04354C203.21 -4.61896 206.322 -2.43995 206.897 0.823415L209.936 0.287649C210.037 -0.321853 210.512 -0.829398 211.155 -0.942809C211.798 -1.05622 212.418 -0.74164 212.722 -0.203652L214.86 -0.580592C214.961 -1.19009 215.436 -1.69764 216.079 -1.81105C216.722 -1.92446 217.342 -1.60988 217.646 -1.07189L220.684 -1.60766L216.517 -25.243Z" fill="var(--highlight)" stroke="#080708" stroke-width="2"/>
<path d="M227.11 34.8302L187.717 41.7761L191.885 65.4115L194.923 64.8757C195.025 64.2662 195.5 63.7587 196.143 63.6453C196.786 63.5319 197.406 63.8465 197.71 64.3844L199.847 64.0075C199.949 63.398 200.424 62.8905 201.067 62.777C201.71 62.6636 202.33 62.9782 202.634 63.5162L205.672 62.9804C205.097 59.7171 207.276 56.6051 210.539 56.0297C213.802 55.4543 216.914 57.6333 217.49 60.8967L220.528 60.3609C220.63 59.7514 221.105 59.2438 221.748 59.1304C222.391 59.017 223.011 59.3316 223.315 59.8696L225.452 59.4927C225.554 58.8831 226.029 58.3756 226.672 58.2622C227.315 58.1488 227.935 58.4634 228.239 59.0013L231.277 58.4656L227.11 34.8302Z" fill="var(--highlight)" stroke="#080708" stroke-width="2"/>
<path d="M215.728 4.34347L213.59 4.72041C213.489 5.32991 213.014 5.83746 212.371 5.95087C211.728 6.06428 211.108 5.7497 210.804 5.21171L207.766 5.74748C208.341 9.01084 206.162 12.1228 202.899 12.6982C199.635 13.2736 196.523 11.0946 195.948 7.83125L192.909 8.36702C192.808 8.97652 192.333 9.48407 191.69 9.59748C191.047 9.71089 190.427 9.39631 190.123 8.85832L187.985 9.23526C187.884 9.84476 187.409 10.3523 186.766 10.4657C186.123 10.5791 185.503 10.2646 185.199 9.72656L182.161 10.2623L187.717 41.7762L227.11 34.8303L221.553 3.3164L218.514 3.85217C218.413 4.46167 217.938 4.96922 217.295 5.08263C216.652 5.19604 216.032 4.88146 215.728 4.34347Z" fill="var(--highlight)" stroke="#080708" stroke-width="2"/>
<path d="M218.304 42.4755C218.879 45.7389 216.7 48.8509 213.437 49.4263C210.173 50.0017 207.061 47.8227 206.486 44.5593" stroke="#080708" stroke-width="2"/>
<circle cx="201.853" cy="32.6834" r="2.5" transform="rotate(-10 201.853 32.6834)" fill="#080708"/>
<circle cx="218.595" cy="29.7314" r="2.5" transform="rotate(-10 218.595 29.7314)" fill="#080708"/>
<path d="M237.702 94.9036L198.31 101.849L202.477 125.485L205.516 124.949C205.617 124.34 206.092 123.832 206.735 123.719C207.378 123.605 207.998 123.92 208.302 124.458L210.44 124.081C210.541 123.471 211.016 122.964 211.659 122.85C212.302 122.737 212.922 123.052 213.226 123.59L216.264 123.054C215.689 119.79 217.868 116.678 221.131 116.103C224.395 115.528 227.507 117.707 228.082 120.97L231.121 120.434C231.222 119.825 231.697 119.317 232.34 119.204C232.983 119.09 233.603 119.405 233.907 119.943L236.045 119.566C236.146 118.957 236.621 118.449 237.264 118.336C237.907 118.222 238.527 118.537 238.831 119.075L241.869 118.539L237.702 94.9036Z" fill="var(--highlight)" stroke="#080708" stroke-width="2"/>
<path d="M226.32 64.4168L224.183 64.7938C224.081 65.4033 223.606 65.9108 222.963 66.0242C222.32 66.1376 221.7 65.8231 221.396 65.2851L218.358 65.8208C218.933 69.0842 216.754 72.1962 213.491 72.7716C210.228 73.347 207.116 71.168 206.54 67.9046L203.502 68.4404C203.4 69.0499 202.925 69.5574 202.282 69.6708C201.639 69.7843 201.019 69.4697 200.715 68.9317L198.578 69.3086C198.476 69.9181 198.001 70.4257 197.358 70.5391C196.715 70.6525 196.095 70.3379 195.791 69.7999L192.753 70.3357L198.31 101.85L237.702 94.9036L232.145 63.3898L229.107 63.9255C229.005 64.535 228.53 65.0426 227.887 65.156C227.244 65.2694 226.624 64.9548 226.32 64.4168Z" fill="var(--highlight)" stroke="#080708" stroke-width="2"/>
<circle cx="212.445" cy="92.7568" r="2.5" transform="rotate(-10 212.445 92.7568)" fill="#080708"/>
<circle cx="229.187" cy="89.8048" r="2.5" transform="rotate(-10 229.187 89.8048)" fill="#080708"/>
<path d="M177.41 12.1152L138.018 19.0612L142.186 42.6965L145.224 42.1608C145.326 41.5513 145.8 41.0437 146.444 40.9303C147.087 40.8169 147.706 41.1315 148.01 41.6695L150.148 41.2925C150.25 40.683 150.724 40.1755 151.368 40.0621C152.011 39.9487 152.63 40.2632 152.934 40.8012L155.973 40.2655C155.398 37.0021 157.577 33.8902 160.84 33.3147C164.103 32.7393 167.215 34.9183 167.791 38.1817L170.829 37.6459C170.931 37.0364 171.405 36.5289 172.049 36.4155C172.692 36.3021 173.311 36.6166 173.615 37.1546L175.753 36.7777C175.855 36.1682 176.329 35.6606 176.973 35.5472C177.616 35.4338 178.235 35.7484 178.539 36.2864L181.578 35.7506L177.41 12.1152Z" fill="var(--highlight)" stroke="#080708" stroke-width="2"/>
<path d="M166.029 -18.3715L163.891 -17.9946C163.79 -17.3851 163.315 -16.8775 162.672 -16.7641C162.029 -16.6507 161.409 -16.9653 161.105 -17.5033L158.066 -16.9675C158.642 -13.7041 156.463 -10.5922 153.199 -10.0168C149.936 -9.44133 146.824 -11.6203 146.249 -14.8837L143.21 -14.3479C143.109 -13.7384 142.634 -13.2309 141.991 -13.1175C141.348 -13.0041 140.728 -13.3187 140.424 -13.8566L138.286 -13.4797C138.185 -12.8702 137.71 -12.3627 137.067 -12.2492C136.424 -12.1358 135.804 -12.4504 135.5 -12.9884L132.461 -12.4526L138.018 19.0612L177.41 12.1153L171.854 -19.3986L168.815 -18.8628C168.714 -18.2533 168.239 -17.7458 167.596 -17.6323C166.953 -17.5189 166.333 -17.8335 166.029 -18.3715Z" fill="var(--highlight)" stroke="#080708" stroke-width="2"/>
<path d="M168.604 19.7606C169.18 23.0239 167.001 26.1359 163.737 26.7113C160.474 27.2867 157.362 25.1077 156.787 21.8444" stroke="#080708" stroke-width="2"/>
<circle cx="152.154" cy="9.96845" r="2.5" transform="rotate(-10 152.154 9.96845)" fill="#080708"/>
<circle cx="168.896" cy="7.01642" r="2.5" transform="rotate(-10 168.896 7.01642)" fill="#080708"/>
<path d="M188.003 72.1886L148.61 79.1345L152.778 102.77L155.816 102.234C155.918 101.625 156.393 101.117 157.036 101.004C157.679 100.89 158.299 101.205 158.603 101.743L160.74 101.366C160.842 100.756 161.317 100.249 161.96 100.135C162.603 100.022 163.223 100.337 163.527 100.875L166.565 100.339C165.99 97.0755 168.169 93.9635 171.432 93.3881C174.696 92.8127 177.807 94.9917 178.383 98.2551L181.421 97.7193C181.523 97.1098 181.998 96.6022 182.641 96.4888C183.284 96.3754 183.904 96.69 184.208 97.228L186.345 96.851C186.447 96.2415 186.922 95.734 187.565 95.6206C188.208 95.5072 188.828 95.8218 189.132 96.3597L192.17 95.824L188.003 72.1886Z" fill="var(--highlight)" stroke="#080708" stroke-width="2"/>
<path d="M176.621 41.7019L174.484 42.0788C174.382 42.6883 173.907 43.1959 173.264 43.3093C172.621 43.4227 172.001 43.1081 171.697 42.5701L168.659 43.1059C169.234 46.3692 167.055 49.4812 163.792 50.0566C160.528 50.632 157.416 48.453 156.841 45.1897L153.803 45.7254C153.701 46.3349 153.226 46.8425 152.583 46.9559C151.94 47.0693 151.32 46.7547 151.016 46.2167L148.879 46.5937C148.777 47.2032 148.302 47.7107 147.659 47.8241C147.016 47.9375 146.396 47.6229 146.092 47.085L143.054 47.6207L148.61 79.1346L188.003 72.1886L182.446 40.6748L179.408 41.2106C179.306 41.8201 178.831 42.3276 178.188 42.441C177.545 42.5544 176.925 42.2399 176.621 41.7019Z" fill="var(--highlight)" stroke="#080708" stroke-width="2"/>
<path d="M179.197 79.8339C179.772 83.0973 177.593 86.2093 174.33 86.7847C171.066 87.3601 167.954 85.1811 167.379 81.9177" stroke="#080708" stroke-width="2"/>
<circle cx="162.746" cy="70.0418" r="2.5" transform="rotate(-10 162.746 70.0418)" fill="#080708"/>
<circle cx="179.488" cy="67.0898" r="2.5" transform="rotate(-10 179.488 67.0898)" fill="#080708"/>
<path d="M187.214 101.775L185.076 102.152C184.975 102.762 184.5 103.269 183.857 103.383C183.214 103.496 182.594 103.181 182.29 102.643L179.251 103.179C179.827 106.442 177.648 109.554 174.385 110.13C171.121 110.705 168.009 108.526 167.434 105.263L164.395 105.799C164.294 106.408 163.819 106.916 163.176 107.029C162.533 107.143 161.913 106.828 161.609 106.29L159.471 106.667C159.37 107.276 158.895 107.784 158.252 107.897C157.609 108.011 156.989 107.696 156.685 107.158L153.646 107.694L159.203 139.208L198.596 132.262L193.039 100.748L190 101.284C189.899 101.893 189.424 102.401 188.781 102.514C188.138 102.628 187.518 102.313 187.214 101.775Z" fill="var(--highlight)" stroke="#080708" stroke-width="2"/>
<path d="M88.7776 27.7436L49.3853 34.6896L53.5528 58.325L56.5913 57.7892C56.6929 57.1797 57.1676 56.6721 57.8108 56.5587C58.454 56.4453 59.0736 56.7599 59.3776 57.2979L61.5153 56.921C61.617 56.3115 62.0916 55.8039 62.7348 55.6905C63.378 55.5771 63.9977 55.8917 64.3016 56.4297L67.3401 55.8939C66.7647 52.6305 68.9437 49.5186 72.2071 48.9432C75.4704 48.3677 78.5824 50.5467 79.1578 53.8101L82.1963 53.2743C82.2979 52.6648 82.7726 52.1573 83.4158 52.0439C84.059 51.9305 84.6786 52.2451 84.9826 52.783L87.1203 52.4061C87.222 51.7966 87.6967 51.2891 88.3398 51.1756C88.983 51.0622 89.6027 51.3768 89.9066 51.9148L92.9451 51.379L88.7776 27.7436Z" fill="var(--highlight)" stroke="#080708" stroke-width="2"/>
<path d="M77.3961 -2.74308L75.2584 -2.36614C75.1568 -1.75664 74.6821 -1.24909 74.0389 -1.13568C73.3957 -1.02227 72.7761 -1.33685 72.4721 -1.87484L69.4336 -1.33907C70.009 1.92429 67.83 5.03624 64.5667 5.61166C61.3033 6.18708 58.1913 4.00807 57.6159 0.744707L54.5774 1.28047C54.4758 1.88998 54.0011 2.39752 53.3579 2.51093C52.7147 2.62434 52.0951 2.30976 51.7911 1.77177L49.6534 2.14871C49.5518 2.75822 49.0771 3.26576 48.4339 3.37917C47.7907 3.49258 47.171 3.178 46.8671 2.64002L43.8286 3.17578L49.3854 34.6896L88.7777 27.7437L83.2209 -3.77015L80.1824 -3.23438C80.0808 -2.62488 79.6061 -2.11733 78.9629 -2.00392C78.3197 -1.89051 77.7001 -2.20509 77.3961 -2.74308Z" fill="var(--highlight)" stroke="#080708" stroke-width="2"/>
<path d="M79.9715 35.389C80.5469 38.6524 78.3679 41.7643 75.1045 42.3397C71.8412 42.9152 68.7292 40.7361 68.1538 37.4728" stroke="#080708" stroke-width="2"/>
<circle cx="63.5211" cy="25.5969" r="2.5" transform="rotate(-10 63.5211 25.5969)" fill="#080708"/>
<circle cx="80.2628" cy="22.6448" r="2.5" transform="rotate(-10 80.2628 22.6448)" fill="#080708"/>
<path d="M99.3699 87.817L59.9775 94.7629L64.1451 118.398L67.1836 117.863C67.2852 117.253 67.7599 116.746 68.4031 116.632C69.0463 116.519 69.6659 116.833 69.9699 117.371L72.1076 116.994C72.2092 116.385 72.6839 115.877 73.3271 115.764C73.9703 115.65 74.59 115.965 74.8939 116.503L77.9324 115.967C77.357 112.704 79.536 109.592 82.7994 109.017C86.0627 108.441 89.1747 110.62 89.7501 113.883L92.7886 113.348C92.8902 112.738 93.3649 112.231 94.0081 112.117C94.6513 112.004 95.2709 112.318 95.5749 112.856L97.7126 112.479C97.8142 111.87 98.2889 111.362 98.9321 111.249C99.5753 111.136 100.195 111.45 100.499 111.988L103.537 111.452L99.3699 87.817Z" fill="var(--highlight)" stroke="#080708" stroke-width="2"/>
<path d="M87.9884 57.3303L85.8507 57.7072C85.7491 58.3167 85.2744 58.8243 84.6312 58.9377C83.988 59.0511 83.3683 58.7365 83.0644 58.1985L80.0259 58.7343C80.6013 61.9977 78.4223 65.1096 75.1589 65.685C71.8956 66.2604 68.7836 64.0814 68.2082 60.8181L65.1697 61.3538C65.0681 61.9633 64.5934 62.4709 63.9502 62.5843C63.307 62.6977 62.6874 62.3831 62.3834 61.8451L60.2457 62.2221C60.1441 62.8316 59.6694 63.3391 59.0262 63.4525C58.383 63.5659 57.7633 63.2514 57.4594 62.7134L54.4209 63.2491L59.9776 94.763L99.37 87.8171L93.8132 56.3032L90.7747 56.839C90.6731 57.4485 90.1984 57.956 89.5552 58.0694C88.912 58.1829 88.2924 57.8683 87.9884 57.3303Z" fill="var(--highlight)" stroke="#080708" stroke-width="2"/>
<path d="M90.5638 95.4624C91.1392 98.7257 88.9602 101.838 85.6968 102.413C82.4335 102.989 79.3215 100.81 78.7461 97.5461" stroke="#080708" stroke-width="2"/>
<circle cx="74.1134" cy="85.6702" r="2.5" transform="rotate(-10 74.1134 85.6702)" fill="#080708"/>
<circle cx="90.8551" cy="82.7182" r="2.5" transform="rotate(-10 90.8551 82.7182)" fill="#080708"/>
<path d="M0.144753 43.3719L-39.2476 50.3179L-35.08 73.9533L-32.0415 73.4175C-31.9399 72.808 -31.4652 72.3004 -30.822 72.187C-30.1788 72.0736 -29.5592 72.3882 -29.2552 72.9262L-27.1175 72.5493C-27.0159 71.9397 -26.5412 71.4322 -25.898 71.3188C-25.2548 71.2054 -24.6351 71.52 -24.3312 72.0579L-21.2927 71.5222C-21.8681 68.2588 -19.6891 65.1469 -16.4257 64.5714C-13.1624 63.996 -10.0504 66.175 -9.475 69.4384L-6.43652 68.9026C-6.3349 68.2931 -5.8602 67.7856 -5.21701 67.6722C-4.57383 67.5588 -3.95417 67.8734 -3.65021 68.4113L-1.51248 68.0344C-1.41086 67.4249 -0.936162 66.9174 -0.292974 66.8039C0.350214 66.6905 0.969873 67.0051 1.27383 67.5431L4.31231 67.0073L0.144753 43.3719Z" fill="var(--highlight)" stroke="#080708" stroke-width="2"/>
<path d="M-11.2367 12.8852L-13.3744 13.2622C-13.476 13.8717 -13.9507 14.3792 -14.5939 14.4926C-15.2371 14.606 -15.8568 14.2914 -16.1607 13.7535L-19.1992 14.2892C-18.6238 17.5526 -20.8028 20.6645 -24.0662 21.24C-27.3295 21.8154 -30.4415 19.6364 -31.0169 16.373L-34.0554 16.9088C-34.157 17.5183 -34.6317 18.0258 -35.2749 18.1392C-35.9181 18.2526 -36.5377 17.9381 -36.8417 17.4001L-38.9794 17.777C-39.081 18.3865 -39.5557 18.8941 -40.1989 19.0075C-40.8421 19.1209 -41.4618 18.8063 -41.7657 18.2683L-44.8042 18.8041L-39.2475 50.3179L0.144854 43.372L-5.41189 11.8582L-8.45037 12.3939C-8.55199 13.0034 -9.02669 13.511 -9.66987 13.6244C-10.3131 13.7378 -10.9327 13.4232 -11.2367 12.8852Z" fill="var(--highlight)" stroke="#080708" stroke-width="2"/>
<path d="M-0.644392 72.9586L-2.78212 73.3355C-2.88375 73.945 -3.35844 74.4526 -4.00163 74.566C-4.64481 74.6794 -5.26447 74.3648 -5.56843 73.8268L-8.60691 74.3626C-8.03149 77.626 -10.2105 80.7379 -13.4739 81.3133C-16.7372 81.8887 -19.8492 79.7097 -20.4246 76.4464L-23.4631 76.9821C-23.5647 77.5916 -24.0394 78.0992 -24.6826 78.2126C-25.3258 78.326 -25.9454 78.0114 -26.2494 77.4734L-28.3871 77.8504C-28.4887 78.4599 -28.9634 78.9674 -29.6066 79.0808C-30.2498 79.1942 -30.8695 78.8797 -31.1734 78.3417L-34.2119 78.8774L-28.6552 110.391L10.7371 103.445L5.1804 71.9315L2.14192 72.4673C2.04029 73.0768 1.5656 73.5843 0.922411 73.6977C0.279222 73.8112 -0.340436 73.4966 -0.644392 72.9586Z" fill="var(--highlight)" stroke="#080708" stroke-width="2"/>
<circle cx="2.22231" cy="98.3465" r="2.5" transform="rotate(-10 2.22231 98.3465)" fill="#080708"/>
<path d="M266.043 -3.51307L226.65 3.43286L230.818 27.0682L233.856 26.5325C233.958 25.923 234.433 25.4154 235.076 25.302C235.719 25.1886 236.339 25.5032 236.643 26.0412L238.78 25.6642C238.882 25.0547 239.357 24.5472 240 24.4338C240.643 24.3204 241.263 24.635 241.567 25.1729L244.605 24.6372C244.03 21.3738 246.209 18.2619 249.472 17.6864C252.736 17.111 255.848 19.29 256.423 22.5534L259.461 22.0176C259.563 21.4081 260.038 20.9006 260.681 20.7872C261.324 20.6738 261.944 20.9883 262.248 21.5263L264.385 21.1494C264.487 20.5399 264.962 20.0323 265.605 19.9189C266.248 19.8055 266.868 20.1201 267.172 20.6581L270.21 20.1223L266.043 -3.51307Z" fill="var(--highlight)" stroke="#080708" stroke-width="2"/>
<path d="M254.661 -33.9998L252.524 -33.6229C252.422 -33.0134 251.947 -32.5058 251.304 -32.3924C250.661 -32.279 250.041 -32.5936 249.737 -33.1316L246.699 -32.5958C247.274 -29.3324 245.095 -26.2205 241.832 -25.645C238.568 -25.0696 235.456 -27.2486 234.881 -30.512L231.843 -29.9762C231.741 -29.3667 231.266 -28.8592 230.623 -28.7458C229.98 -28.6324 229.36 -28.947 229.056 -29.4849L226.919 -29.108C226.817 -28.4985 226.342 -27.991 225.699 -27.8775C225.056 -27.7641 224.436 -28.0787 224.132 -28.6167L221.094 -28.0809L226.65 3.43292L266.043 -3.51301L260.486 -35.0269L257.448 -34.4911C257.346 -33.8816 256.871 -33.374 256.228 -33.2606C255.585 -33.1472 254.965 -33.4618 254.661 -33.9998Z" fill="var(--highlight)" stroke="#080708" stroke-width="2"/>
<path d="M257.237 4.13229C257.812 7.39565 255.633 10.5076 252.37 11.083C249.106 11.6584 245.994 9.47943 245.419 6.21606" stroke="#080708" stroke-width="2"/>
<path d="M276.635 56.5603L237.243 63.5062L241.41 87.1416L244.449 86.6058C244.55 85.9963 245.025 85.4888 245.668 85.3754C246.311 85.262 246.931 85.5766 247.235 86.1145L249.373 85.7376C249.474 85.1281 249.949 84.6206 250.592 84.5071C251.235 84.3937 251.855 84.7083 252.159 85.2463L255.198 84.7105C254.622 81.4472 256.801 78.3352 260.064 77.7598C263.328 77.1844 266.44 79.3634 267.015 82.6268L270.054 82.091C270.155 81.4815 270.63 80.9739 271.273 80.8605C271.916 80.7471 272.536 81.0617 272.84 81.5997L274.978 81.2228C275.079 80.6133 275.554 80.1057 276.197 79.9923C276.84 79.8789 277.46 80.1935 277.764 80.7315L280.803 80.1957L276.635 56.5603Z" fill="var(--highlight)" stroke="#080708" stroke-width="2"/>
<path d="M265.254 26.0736L263.116 26.4505C263.014 27.06 262.54 27.5676 261.896 27.681C261.253 27.7944 260.633 27.4798 260.33 26.9418L257.291 27.4776C257.866 30.7409 255.687 33.8529 252.424 34.4283C249.161 35.0037 246.049 32.8247 245.473 29.5614L242.435 30.0971C242.333 30.7066 241.859 31.2142 241.215 31.3276C240.572 31.441 239.953 31.1264 239.649 30.5884L237.511 30.9654C237.409 31.5749 236.935 32.0824 236.291 32.1958C235.648 32.3092 235.028 31.9947 234.725 31.4567L231.686 31.9924L237.243 63.5063L276.635 56.5604L271.078 25.0465L268.04 25.5823C267.938 26.1918 267.464 26.6993 266.82 26.8127C266.177 26.9261 265.558 26.6116 265.254 26.0736Z" fill="var(--highlight)" stroke="#080708" stroke-width="2"/>
<path d="M267.829 64.2057C268.404 67.469 266.225 70.581 262.962 71.1564C259.699 71.7318 256.587 69.5528 256.011 66.2894" stroke="#080708" stroke-width="2"/>
<circle cx="251.379" cy="54.4135" r="2.5" transform="rotate(-10 251.379 54.4135)" fill="#080708"/>
<circle cx="268.12" cy="51.4615" r="2.5" transform="rotate(-10 268.12 51.4615)" fill="#080708"/>
<path d="M275.846 86.1468L273.709 86.5238C273.607 87.1333 273.132 87.6408 272.489 87.7542C271.846 87.8676 271.226 87.553 270.922 87.0151L267.884 87.5508C268.459 90.8142 266.28 93.9261 263.017 94.5016C259.753 95.077 256.642 92.898 256.066 89.6346L253.028 90.1704C252.926 90.7799 252.451 91.2874 251.808 91.4008C251.165 91.5142 250.545 91.1997 250.241 90.6617L248.104 91.0386C248.002 91.6481 247.527 92.1557 246.884 92.2691C246.241 92.3825 245.621 92.0679 245.317 91.5299L242.279 92.0657L247.836 123.58L287.228 116.634L281.671 85.1197L278.633 85.6555C278.531 86.265 278.056 86.7726 277.413 86.886C276.77 86.9994 276.15 86.6848 275.846 86.1468Z" fill="var(--highlight)" stroke="#080708" stroke-width="2"/>
<path d="M357.641 34.7128L323 54.7128L335 75.4974L337.672 73.9547C337.559 73.3472 337.832 72.7079 338.397 72.3814C338.963 72.0548 339.653 72.1385 340.122 72.5401L342.002 71.4547C341.889 70.8472 342.162 70.2079 342.727 69.8814C343.293 69.5548 343.983 69.6385 344.452 70.0401L347.124 68.4974C345.468 65.6276 346.451 61.9581 349.321 60.3012C352.19 58.6444 355.86 59.6276 357.517 62.4974L360.189 60.9547C360.076 60.3472 360.348 59.7079 360.914 59.3814C361.479 59.0548 362.169 59.1385 362.639 59.5401L364.519 58.4547C364.406 57.8472 364.678 57.2079 365.244 56.8814C365.81 56.5548 366.499 56.6385 366.969 57.0401L369.641 55.4974L357.641 34.7128Z" fill="var(--highlight)" stroke="#080708" stroke-width="2"/>
<path d="M336.519 9.95732L334.639 11.0427C334.752 11.6502 334.479 12.2895 333.914 12.616C333.348 12.9426 332.658 12.8589 332.189 12.4573L329.517 14C331.174 16.8698 330.19 20.5393 327.321 22.1962C324.451 23.853 320.781 22.8698 319.124 20L316.452 21.5427C316.565 22.1502 316.293 22.7895 315.727 23.116C315.162 23.4426 314.472 23.3589 314.002 22.9573L312.122 24.0427C312.235 24.6502 311.963 25.2895 311.397 25.616C310.832 25.9426 310.142 25.8589 309.672 25.4573L307 27L323 54.7128L357.641 34.7128L341.641 7L338.969 8.54268C339.082 9.15018 338.81 9.78947 338.244 10.116C337.678 10.4426 336.988 10.3589 336.519 9.95732Z" fill="var(--highlight)" stroke="#080708" stroke-width="2"/>
<path d="M351.981 44.9089C353.638 47.7787 352.654 51.4482 349.785 53.1051C346.915 54.7619 343.245 53.7787 341.588 50.9089" stroke="#080708" stroke-width="2"/>
<circle cx="333.173" cy="41.3336" r="2.5" transform="rotate(-30 333.173 41.3336)" fill="#080708"/>
<circle cx="347.896" cy="32.8336" r="2.5" transform="rotate(-30 347.896 32.8336)" fill="#080708"/>
<path d="M386.247 55.3987L424.884 45.0459L417.637 18L414.657 18.7986C414.609 19.4145 414.18 19.9614 413.549 20.1305C412.918 20.2995 412.274 20.0402 411.924 19.5308L409.827 20.0927C409.779 20.7086 409.35 21.2555 408.719 21.4246C408.089 21.5936 407.444 21.3343 407.094 20.8249L404.114 21.6235C404.972 24.8242 403.072 28.1141 399.871 28.9718C396.671 29.8294 393.381 27.93 392.523 24.7293L389.543 25.5279C389.494 26.1438 389.066 26.6907 388.435 26.8597C387.804 27.0288 387.16 26.7695 386.81 26.2601L384.713 26.822C384.665 27.4379 384.236 27.9848 383.605 28.1538C382.975 28.3229 382.33 28.0636 381.98 27.5542L379 28.3528L386.247 55.3987Z" fill="var(--highlight)" stroke="#080708" stroke-width="2"/>
<circle cx="398.053" cy="43.4355" r="2.5" transform="rotate(-15 398.053 43.4355)" fill="#080708"/>
<circle cx="414.473" cy="39.0356" r="2.5" transform="rotate(-15 414.473 39.0356)" fill="#080708"/>
<path d="M426.614 48.8712L424.871 50.6137" stroke="#080708" stroke-width="2" stroke-linecap="square"/>
<path d="M429.26 55.2605H426.796" stroke="#080708" stroke-width="2" stroke-linecap="square"/>
<path d="M426.614 61.6498L424.871 59.9073" stroke="#080708" stroke-width="2" stroke-linecap="square"/>
<path d="M424.884 65.7516L386.247 55.3988L379 82.4447L381.981 83.2433C382.33 82.7338 382.975 82.4744 383.606 82.6435C384.237 82.8125 384.665 83.3595 384.714 83.9755L386.81 84.5374C387.16 84.0279 387.805 83.7685 388.436 83.9376C389.066 84.1066 389.495 84.6536 389.543 85.2696L392.523 86.0682C393.381 82.8674 396.671 80.9679 399.872 81.8256C403.073 82.6832 404.972 85.9732 404.115 89.174L407.095 89.9726C407.444 89.4631 408.089 89.2037 408.72 89.3728C409.351 89.5418 409.78 90.0888 409.828 90.7048L411.924 91.2667C412.274 90.7572 412.919 90.4978 413.55 90.6669C414.181 90.8359 414.609 91.3829 414.657 91.9989L417.638 92.7975L424.884 65.7516Z" fill="var(--highlight)" stroke="#080708" stroke-width="2"/>
<path d="M412.965 67.734C412.107 70.9348 408.817 72.8343 405.616 71.9766C402.415 71.119 400.516 67.829 401.374 64.6282" stroke="#080708" stroke-width="2"/>
<path d="M448.582 70.6375L488.582 70.6374L488.582 42.6375L485.497 42.6375C485.291 43.22 484.735 43.6375 484.082 43.6375C483.429 43.6375 482.873 43.22 482.668 42.6375L480.497 42.6375C480.291 43.22 479.735 43.6375 479.082 43.6375C478.429 43.6375 477.873 43.22 477.668 42.6375L474.624 42.6375C474.625 42.6842 474.625 42.7311 474.625 42.7781C474.625 46.0918 471.939 48.7781 468.625 48.7781C465.311 48.7781 462.625 46.0918 462.625 42.7781C462.625 42.7311 462.626 42.6842 462.627 42.6375L459.497 42.6375C459.291 43.22 458.735 43.6374 458.082 43.6374C457.429 43.6374 456.873 43.22 456.667 42.6375L454.497 42.6375C454.291 43.22 453.735 43.6375 453.082 43.6375C452.429 43.6375 451.873 43.22 451.668 42.6375L448.582 42.6375L448.582 70.6375Z" fill="var(--highlight)" stroke="#080708" stroke-width="2"/>
<circle cx="466.674" cy="54.4929" r="2.5" transform="rotate(15 466.674 54.4929)" fill="#080708"/>
<circle cx="477.299" cy="57.3399" r="2.5" transform="rotate(15 477.299 57.3399)" fill="#080708"/>
<path d="M475.253 62.5702C474.682 64.7041 472.488 65.9704 470.354 65.3986C468.22 64.8268 466.954 62.6335 467.526 60.4996" stroke="#080708" stroke-width="2"/>
<path d="M482.71 89.067L452.068 63.3555L434.07 84.8048L436.434 86.788C436.966 86.4741 437.66 86.5115 438.16 86.9313C438.661 87.3511 438.818 88.028 438.601 88.6066L440.264 90.0019C440.796 89.688 441.49 89.7254 441.99 90.1452C442.491 90.565 442.648 91.2419 442.431 91.8206L444.763 93.7772C444.792 93.7407 444.822 93.7045 444.852 93.6685C446.982 91.13 450.767 90.7989 453.305 92.9289C455.844 95.0589 456.175 98.8435 454.045 101.382C454.015 101.418 453.984 101.453 453.953 101.489L456.351 103.5C456.883 103.187 457.577 103.224 458.077 103.644C458.578 104.064 458.735 104.74 458.518 105.319L460.181 106.714C460.713 106.4 461.407 106.438 461.908 106.858C462.408 107.278 462.565 107.954 462.348 108.533L464.712 110.516L482.71 89.067Z" fill="var(--highlight)" stroke="#080708" stroke-width="2"/>
<circle cx="457.796" cy="78.9737" r="2.5" transform="rotate(40 457.796 78.9737)" fill="#080708"/>
<circle cx="466.222" cy="86.0444" r="2.5" transform="rotate(40 466.222 86.0444)" fill="#080708"/>
<path d="M461.844 89.4367C460.424 91.129 457.901 91.3498 456.209 89.9298C454.517 88.5098 454.296 85.9867 455.716 84.2944" stroke="#080708" stroke-width="2"/>
</g>
<defs>
<clipPath id="clip0_74_7116">
<rect width="800" height="100" fill="white"/>
</clipPath>
</defs>
</svg>
