<svg width="127" height="150" viewBox="0 0 127 150" fill="none" xmlns="http://www.w3.org/2000/svg">
<g clip-path="url(#clip0_324_6648)">
<ellipse cx="65.5" cy="114.23" rx="37.5" ry="10" fill="#080708"/>
<path d="M51.0217 31.4976C51.0303 21.2215 56.3669 11.23 65.9063 5.7224C75.4456 0.214853 86.7668 0.588979 95.6704 5.71957C95.6618 15.9957 90.3253 25.9872 80.7859 31.4948C71.2465 37.0023 59.9254 36.6282 51.0217 31.4976Z" fill="#D4425F" stroke="#080708" stroke-width="1.5"/>
<path d="M66.6625 21.391C67.4661 26.85 66.4927 31.156 63.5993 32.8265C60.7067 34.4965 56.4925 33.1877 52.1679 29.7645C51.3643 24.3055 52.3377 19.9995 55.2311 18.329C58.1237 16.6589 62.3379 17.9677 66.6625 21.391Z" fill="#080708"/>
<path d="M52.7478 6.1749H39.7768C36.8513 18.5658 44.2918 31.1183 56.6733 34.436C49.0169 26.7796 47.7085 15.1793 52.7478 6.1749Z" fill="#D4425F" stroke="#080708" stroke-width="1.5"/>
<path d="M1.81079 46.4374C4.47876 36.5137 12.2195 28.2439 22.8592 25.393C33.499 22.5421 44.3375 25.8336 51.6099 33.0937C48.9419 43.0174 41.2012 51.2872 30.5615 54.1381C19.9217 56.989 9.08316 53.6975 1.81079 46.4374Z" fill="#D4425F" stroke="#080708" stroke-width="1.5"/>
<path d="M59.5899 35.7696C55.1025 44.9548 46.8137 52.2217 36.1638 55.0753C25.5139 57.9289 14.7022 55.78 6.22339 50.0691C10.7108 40.8838 18.9996 33.617 29.6495 30.7634C40.2993 27.9097 51.1111 30.0586 59.5899 35.7696Z" fill="#080708"/>
<path d="M51.9497 33.1056C54.999 25.9529 60.308 19.6926 67.5602 15.5055C85.3522 5.23335 108.103 11.3293 118.375 29.1213C136.865 61.1469 112.67 109.732 100.31 116.868C87.9778 123.988 34.016 120.68 15.4098 88.8513C15.3685 88.7808 15.3274 88.7102 15.2866 88.6394C5.01435 70.8474 11.1103 48.0969 28.9023 37.8247C36.1546 33.6376 44.2307 32.17 51.9497 33.1056Z" fill="#F5EEEB" stroke="#080708" stroke-width="1.5"/>
<path d="M83.4326 79.6679C85.0159 73.7589 85.1175 67.5507 83.7284 61.5931C82.3393 55.6355 79.5024 50.1124 75.4689 45.5131C71.4354 40.9138 66.3299 37.3802 60.6046 35.2254C54.8792 33.0705 48.7109 32.3609 42.6458 33.1594C36.5807 33.9579 30.8062 36.2398 25.8337 39.803C20.8612 43.3663 16.8442 48.1009 14.1385 53.5874C11.4329 59.0739 10.122 65.1431 10.3222 71.2572C10.5224 77.3713 12.2273 83.3417 15.286 88.6395" stroke="#080708" stroke-width="1.5"/>
<path d="M38.1531 94.7668C34.5947 96.8212 30.0446 95.602 27.9902 92.0436C25.9357 88.4852 27.1549 83.9351 30.7133 81.8807" stroke="#080708" stroke-width="1.5"/>
<path d="M30.7136 81.8804L124.138 27.9419" stroke="#080708" stroke-width="1.5"/>
<path d="M64.2407 99.0335L77.1268 91.5938L80.8467 98.0368C82.9011 101.595 81.682 106.145 78.1236 108.2C74.5652 110.254 70.0151 109.035 67.9606 105.477L64.2407 99.0335Z" fill="#F5EEEB" stroke="#080708" stroke-width="1.5"/>
<path d="M77.1272 91.5936L90.0133 84.1538L93.7332 90.5969C95.7876 94.1552 94.5684 98.7054 91.01 100.76C87.4516 102.814 82.9015 101.595 80.8471 98.0366L77.1272 91.5936Z" fill="#F5EEEB" stroke="#080708" stroke-width="1.5"/>
<path d="M90.0134 84.1537L102.9 76.7139L106.619 83.1569C108.674 86.7153 107.455 91.2654 103.896 93.3199C100.338 95.3743 95.7878 94.1551 93.7333 90.5967L90.0134 84.1537Z" fill="#F5EEEB" stroke="#080708" stroke-width="1.5"/>
<circle cx="99.9756" cy="41.8919" r="11.1597" transform="rotate(-30 99.9756 41.8919)" fill="#F5EEEB" stroke="#080708" stroke-width="1.5"/>
<circle cx="61.3176" cy="64.2107" r="11.1597" transform="rotate(-30 61.3176 64.2107)" fill="#F5EEEB" stroke="#080708" stroke-width="1.5"/>
</g>
<defs>
<clipPath id="clip0_324_6648">
<rect width="127" height="150" fill="white"/>
</clipPath>
</defs>
</svg>
