<svg width="896" height="365" viewBox="0 0 896 365" fill="none" xmlns="http://www.w3.org/2000/svg">
<g clip-path="url(#clip0_325_6376)">
<rect x="730.938" y="42.2505" width="170" height="300" rx="24" transform="rotate(10 730.938 42.2505)" fill="#F5EEEB" stroke="#080708" stroke-width="1.5"/>
<rect x="730.938" y="42.2505" width="150" height="300" rx="24" transform="rotate(10 730.938 42.2505)" fill="#F5EEEB" stroke="#080708" stroke-width="1.5"/>
<rect x="739.05" y="53.835" width="130" height="280" rx="16" transform="rotate(10 739.05 53.835)" fill="#080708" stroke="#080708" stroke-width="1.5"/>
<rect x="740.941" y="325.288" width="32" height="2" rx="1" transform="rotate(10 740.941 325.288)" fill="#F5EEEB"/>
<circle cx="800.631" cy="78.9095" r="4" transform="rotate(10 800.631 78.9095)" fill="#080708" stroke="#F5EEEB" stroke-width="1.5"/>
<path d="M873.462 184.155C870.742 183.676 868.926 181.083 869.406 178.363L873.921 152.758C874.4 150.039 876.993 148.223 879.713 148.702L884.637 149.571L878.386 185.024L873.462 184.155Z" fill="#080708" stroke="#080708" stroke-width="1.5"/>
<rect x="874.447" y="184.329" width="36" height="8" rx="4" transform="rotate(-80 874.447 184.329)" fill="#F5EEEB" stroke="#080708" stroke-width="1.5"/>
<path d="M712.993 132.505C711.905 132.314 711.178 131.276 711.37 130.189L716.927 98.6747C717.119 97.587 718.156 96.8606 719.244 97.0524L721.214 97.3997L714.962 132.853L712.993 132.505Z" fill="#080708" stroke="#080708" stroke-width="1.5"/>
<path d="M705.005 177.807C703.917 177.615 703.191 176.577 703.382 175.49L708.939 143.976C709.131 142.888 710.168 142.162 711.256 142.353L713.226 142.701L706.974 178.154L705.005 177.807Z" fill="#080708" stroke="#080708" stroke-width="1.5"/>
<path d="M622.482 68.6493C615.017 73.874 613.204 84.1591 618.431 91.6217L636.191 116.977L607.958 111.999L607.966 111.955L513.916 95.372C504.942 93.7896 496.384 99.7819 494.802 108.756C493.22 117.728 499.209 126.284 508.179 127.87L488.49 124.398C479.516 122.815 470.958 128.808 469.375 137.782C467.793 146.756 473.785 155.314 482.759 156.896L499.501 159.848C490.527 158.266 481.969 164.258 480.387 173.233C478.804 182.207 484.797 190.765 493.771 192.347L518.391 196.688C509.417 195.106 500.859 201.098 499.276 210.072C497.694 219.047 503.686 227.604 512.661 229.187L632.315 250.285C649.068 253.239 665.457 249.596 678.817 241.223L769.201 257.16C793.676 261.475 817.016 245.133 821.331 220.657C825.647 196.182 809.304 172.843 784.829 168.527L701.805 153.888C700.755 151.953 699.61 150.072 698.374 148.253L698.38 148.249L697.948 147.633C697.871 147.523 697.795 147.414 697.718 147.305L645.462 72.7013C640.234 65.2387 629.946 63.4246 622.482 68.6493Z" fill="#F5EEEB" stroke="#080708" stroke-width="1.5"/>
<path d="M498.024 159.588L596.505 176.953" stroke="#080708" stroke-width="1.5"/>
<path d="M516.914 196.428L590.775 209.452" stroke="#080708" stroke-width="1.5"/>
<path d="M520.496 130.042L602.235 144.454" stroke="#080708" stroke-width="1.5"/>
<g clip-path="url(#clip1_325_6376)">
<path d="M735.428 150.248C735.392 149.275 736.616 148.829 737.214 149.598L747.648 163.012C747.915 163.356 748.371 163.488 748.778 163.34L764.642 157.566C765.552 157.235 766.356 158.27 765.817 159.076L756.401 173.14C756.159 173.501 756.177 173.978 756.445 174.321L766.879 187.735C767.477 188.504 766.751 189.589 765.819 189.318L749.566 184.596C749.149 184.475 748.704 184.638 748.462 184.998L739.047 199.062C738.507 199.868 737.254 199.504 737.218 198.531L736.588 181.549C736.572 181.113 736.279 180.737 735.863 180.616L719.609 175.894C718.678 175.623 718.629 174.314 719.538 173.983L735.403 168.209C735.809 168.061 736.074 167.666 736.058 167.23L735.428 150.248Z" fill="#C64677" stroke="#080708" stroke-width="1.5"/>
<path d="M744.976 173.702L736.083 149.27" stroke="#080708" stroke-width="1.5" stroke-linejoin="round"/>
<path d="M744.976 173.702L765.464 157.695" stroke="#080708" stroke-width="1.5" stroke-linejoin="round"/>
<path d="M744.976 173.702L766.531 188.241" stroke="#080708" stroke-width="1.5" stroke-linejoin="round"/>
<path d="M744.976 173.702L737.809 198.695" stroke="#080708" stroke-width="1.5" stroke-linejoin="round"/>
<path d="M744.975 173.702L718.991 174.609" stroke="#080708" stroke-width="1.5" stroke-linejoin="round"/>
<path d="M744.976 173.702L748.283 162.167" stroke="#080708" stroke-width="1.5" stroke-linejoin="round"/>
<path d="M744.976 173.702L756.968 173.283" stroke="#080708" stroke-width="1.5" stroke-linejoin="round"/>
<path d="M744.976 173.702L749.08 184.978" stroke="#080708" stroke-width="1.5" stroke-linejoin="round"/>
<path d="M744.976 173.702L735.52 181.09" stroke="#080708" stroke-width="1.5" stroke-linejoin="round"/>
<path d="M744.975 173.702L735.027 166.991" stroke="#080708" stroke-width="1.5" stroke-linejoin="round"/>
<path d="M747.707 163.662L745.275 173.061L744.463 172.292L737.28 152.559L737.066 150.508L747.707 163.662Z" fill="#080708"/>
<path d="M761.845 160.113L745.744 172.89L747.667 173.786L756.509 173.229L763.939 161.479L765.134 158.916L761.845 160.113Z" fill="#080708"/>
<path d="M745.318 174.642L748.909 184.508L764.844 188.818L765.442 187.536L746.429 174.769L745.318 174.642Z" fill="#080708"/>
<path d="M736.306 180.582L737.506 195.576L738.318 196.344L743.951 176.735L743.908 175.155L742.968 175.497L736.306 180.582Z" fill="#080708"/>
<path d="M735.961 167.938L722.036 173.538L722.848 174.306L741.815 173.788L743.224 173.275L735.961 167.938Z" fill="#080708"/>
</g>
<path d="M774.058 208.899C774.759 204.939 777.495 201.451 781.546 199.977C785.596 198.503 789.934 199.416 793.017 201.999C792.315 205.958 789.58 209.446 785.529 210.921C781.478 212.395 777.14 211.481 774.058 208.899Z" fill="#C64677" stroke="#080708" stroke-width="1.5"/>
<path fill-rule="evenodd" clip-rule="evenodd" d="M780.772 206.067C780.711 208.226 780.043 209.819 778.815 210.266C777.586 210.713 776.051 209.922 774.617 208.309C774.678 206.151 775.346 204.557 776.575 204.11C777.803 203.663 779.338 204.454 780.772 206.067Z" fill="#080708"/>
<path d="M776.444 199.257L771.445 198.376C769.475 202.952 771.49 208.296 776.036 210.416C773.606 206.945 773.89 202.385 776.444 199.257Z" fill="#C64677" stroke="#080708" stroke-width="1.5"/>
<path d="M754.077 211.313C755.78 207.67 759.325 205.009 763.619 204.633C767.913 204.257 771.867 206.262 774.176 209.554C772.474 213.198 768.928 215.859 764.634 216.234C760.34 216.61 756.387 214.605 754.077 211.313Z" fill="#C64677" stroke="#080708" stroke-width="1.5"/>
<path fill-rule="evenodd" clip-rule="evenodd" d="M777.07 211.128C774.716 214.363 771.028 216.6 766.729 216.976C762.431 217.352 758.41 215.79 755.531 213.012C757.884 209.777 761.573 207.54 765.871 207.164C770.169 206.788 774.19 208.351 777.07 211.128Z" fill="#080708"/>
<path d="M774.306 209.582C775.968 207.033 778.439 204.981 781.519 203.86C789.074 201.11 797.427 205.005 800.177 212.56C805.127 226.159 792.5 243.24 787.252 245.15C782.016 247.056 761.444 242.114 756.436 228.583C756.425 228.553 756.414 228.523 756.403 228.493C753.653 220.938 757.548 212.584 765.103 209.835C768.183 208.714 771.395 208.697 774.306 209.582Z" fill="#F5EEEB" stroke="#080708" stroke-width="1.5"/>
<path d="M783.275 229.666C784.287 227.497 784.748 225.111 784.618 222.72C784.487 220.33 783.769 218.009 782.527 215.962C781.285 213.915 779.558 212.207 777.498 210.987C775.438 209.768 773.109 209.075 770.717 208.97C768.325 208.866 765.945 209.353 763.786 210.388C761.628 211.424 759.758 212.975 758.342 214.906C756.926 216.837 756.009 219.087 755.67 221.457C755.332 223.827 755.583 226.243 756.402 228.493" stroke="#080708" stroke-width="1.5"/>
<path d="M764.799 232.408C763.288 232.958 761.617 232.179 761.067 230.668C760.517 229.157 761.296 227.487 762.807 226.937" stroke="#080708" stroke-width="1.5"/>
<path d="M762.808 226.937L802.478 212.498" stroke="#080708" stroke-width="1.5"/>
<path d="M774.563 235.826L780.035 233.834L781.031 236.57C781.581 238.081 780.801 239.752 779.29 240.302C777.779 240.852 776.109 240.073 775.559 238.562L774.563 235.826Z" fill="#F5EEEB" stroke="#080708" stroke-width="1.5"/>
<path d="M780.035 233.834L785.507 231.842L786.503 234.578C787.053 236.089 786.274 237.76 784.763 238.31C783.252 238.86 781.581 238.081 781.031 236.57L780.035 233.834Z" fill="#F5EEEB" stroke="#080708" stroke-width="1.5"/>
<path d="M785.507 231.843L790.979 229.851L791.974 232.587C792.524 234.098 791.745 235.769 790.234 236.319C788.723 236.869 787.053 236.089 786.503 234.578L785.507 231.843Z" fill="#F5EEEB" stroke="#080708" stroke-width="1.5"/>
<circle cx="792.218" cy="216.232" r="4.36724" transform="rotate(-20 792.218 216.232)" fill="#F5EEEB" stroke="#080708" stroke-width="1.5"/>
<circle cx="775.803" cy="222.207" r="4.36724" transform="rotate(-20 775.803 222.207)" fill="#F5EEEB" stroke="#080708" stroke-width="1.5"/>
<path d="M636.749 117.031C631.937 120.376 627.967 124.778 625.146 129.896C622.324 135.014 620.727 140.712 620.477 146.548C620.227 152.383 621.332 158.201 623.706 163.55C626.079 168.9 629.658 173.638 634.166 177.398C638.673 181.158 643.988 183.839 649.699 185.234C655.411 186.629 661.366 186.701 667.103 185.443" stroke="#080708" stroke-width="1.5"/>
<mask id="mask0_325_6376" style="mask-type:alpha" maskUnits="userSpaceOnUse" x="470" y="95" width="139" height="148">
<path fill-rule="evenodd" clip-rule="evenodd" d="M495.787 108.93C494.205 117.902 500.194 126.458 509.165 128.043L489.475 124.571C480.501 122.989 471.943 128.981 470.36 137.956C468.778 146.93 474.77 155.488 483.745 157.07L500.486 160.022C491.512 158.44 482.954 164.432 481.372 173.406C479.789 182.38 485.782 190.938 494.756 192.521L519.376 196.862C510.402 195.28 501.844 201.272 500.262 210.246C498.679 219.22 504.671 227.778 513.646 229.361L586.029 242.124L591.76 209.625L597.49 177.126L603.22 144.628L608.951 112.129L514.902 95.5457C505.927 93.9633 497.369 99.9556 495.787 108.93Z" fill="#359D72"/>
</mask>
<g mask="url(#mask0_325_6376)">
<path fill-rule="evenodd" clip-rule="evenodd" d="M490.593 46.5807L439.879 155.338L516.009 190.838L533.583 153.149C532.979 152.942 532.381 152.701 531.789 152.425C522.779 148.224 518.881 137.514 523.083 128.505C527.284 119.495 537.994 115.597 547.003 119.798C547.595 120.074 548.164 120.378 548.711 120.708L566.723 82.0806L490.593 46.5807Z" fill="#080708"/>
</g>
<path d="M436.477 146.968L426.018 27.4248L342.338 34.7459L343.144 43.967C344.939 44.4302 346.332 45.9815 346.502 47.9332C346.673 49.8849 345.571 51.6544 343.884 52.4222L344.452 58.9099C346.247 59.3732 347.639 60.9244 347.81 62.8761C347.98 64.8278 346.879 66.5973 345.192 67.3651L345.998 76.5861C355.901 75.72 364.632 83.0458 365.498 92.9489C366.364 102.852 359.039 111.582 349.136 112.449L349.943 121.67C351.737 122.133 353.13 123.685 353.301 125.636C353.471 127.588 352.369 129.358 350.682 130.125L351.25 136.613C353.045 137.076 354.437 138.628 354.608 140.579C354.779 142.531 353.677 144.3 351.99 145.068L352.796 154.289L436.477 146.968Z" fill="#F5EEEB" stroke="#080708" stroke-width="1.5"/>
<circle cx="407.283" cy="105.856" r="7.5" transform="rotate(-95 407.283 105.856)" fill="#080708"/>
<circle cx="402.837" cy="55.0502" r="7.5" transform="rotate(-95 402.837 55.0502)" fill="#080708"/>
<path d="M438.221 24.3066L442.461 30.3625" stroke="#080708" stroke-width="1.5" stroke-linecap="square"/>
<path d="M458.476 19.8169L457.192 27.0974" stroke="#080708" stroke-width="1.5" stroke-linecap="square"/>
<path d="M475.974 30.9644L469.918 35.2047" stroke="#080708" stroke-width="1.5" stroke-linecap="square"/>
<path d="M487.191 38.2095L436.477 146.966L512.607 182.466L516.519 174.078C515.196 172.779 514.765 170.739 515.593 168.963C516.421 167.188 518.261 166.206 520.106 166.385L522.858 160.483C521.535 159.184 521.104 157.145 521.932 155.369C522.761 153.593 524.6 152.612 526.445 152.79L530.357 144.401C521.347 140.2 517.449 129.49 521.65 120.481C525.852 111.471 536.561 107.573 545.571 111.774L549.483 103.386C548.16 102.087 547.729 100.047 548.557 98.2714C549.385 96.4956 551.225 95.5141 553.07 95.6929L555.822 89.7909C554.499 88.4924 554.069 86.4525 554.897 84.6767C555.725 82.901 557.564 81.9195 559.409 82.0983L563.321 73.7094L487.191 38.2095Z" fill="#F5EEEB" stroke="#080708" stroke-width="1.5"/>
<path d="M486.839 74.4581C495.848 78.6594 499.746 89.3691 495.545 98.3788C491.344 107.389 480.634 111.287 471.625 107.085" stroke="#080708" stroke-width="1.5"/>
<mask id="mask1_325_6376" style="mask-type:alpha" maskUnits="userSpaceOnUse" x="342" y="27" width="95" height="127">
<rect x="426.079" y="27.0815" width="120" height="84" transform="rotate(85 426.079 27.0815)" fill="#359D72"/>
</mask>
<g mask="url(#mask1_325_6376)">
<path d="M382.426 144.282C391.4 145.864 399.958 139.872 401.54 130.898C403.123 121.924 397.131 113.366 388.156 111.783L274.411 91.727L268.681 124.226L382.426 144.282Z" fill="#080708"/>
<path d="M367.475 108.137C376.45 109.719 385.007 103.727 386.59 94.7526C388.172 85.7784 382.18 77.2205 373.206 75.6381L259.46 55.5817L253.73 88.0804L367.475 108.137Z" fill="#080708"/>
<path d="M362.154 167.109C371.128 168.691 379.686 162.699 381.269 153.725C382.851 144.75 376.859 136.192 367.884 134.61L270.881 117.506L265.15 150.004L362.154 167.109Z" fill="#080708" stroke="#080708" stroke-width="1.5"/>
</g>
<path d="M275.646 31.1793C282.475 25.8427 284.289 15.5576 279.696 8.20694C275.104 0.856262 265.844 -0.776472 259.014 4.56015L190.737 57.9103C190.674 57.9594 190.611 58.0085 190.548 58.0578L190.437 58.1449L189.873 58.5858L189.876 58.5911C188.244 59.9044 186.668 61.3051 185.154 62.7879L32.4359 35.8596L16.8075 124.492L176.149 152.589C184.687 164.823 197.315 173.583 212.393 176.242L324.562 196.02C333.537 197.602 342.094 191.61 343.677 182.636C345.259 173.662 339.267 165.104 330.293 163.521L354.913 167.863C363.887 169.445 372.445 163.453 374.027 154.478C375.61 145.504 369.618 136.946 360.643 135.364L377.385 138.316C386.359 139.898 394.917 133.906 396.5 124.932C398.082 115.958 392.09 107.4 383.115 105.817L363.419 102.344C372.394 103.927 380.951 97.9345 382.534 88.9602C384.116 79.9859 378.124 71.4281 369.15 69.8457L252.441 49.3112L275.646 31.1793Z" fill="#F5EEEB" stroke="#080708" stroke-width="1.5"/>
<ellipse cx="25.114" cy="80.263" rx="22.5" ry="45" transform="rotate(10 25.114 80.263)" fill="#080708" stroke="#080708" stroke-width="1.5"/>
<path d="M88.3514 139.138C99.354 141.078 111.927 121.928 116.435 96.3652C120.942 70.8021 115.677 48.5065 104.674 46.5664L133.008 51.5624C144.011 53.5024 149.276 75.7981 144.768 101.361C140.261 126.924 127.688 146.074 116.685 144.134L88.3514 139.138Z" fill="#080708"/>
<path fill-rule="evenodd" clip-rule="evenodd" d="M110.973 52.152C109.105 49.5336 106.919 47.978 104.5 47.5514L104.848 45.5818L133.181 50.5778C136.263 51.1212 138.862 53.0801 140.935 55.9866C143.004 58.888 144.595 62.7888 145.677 67.3735C147.844 76.5465 148.024 88.6523 145.753 101.535C143.481 114.418 139.171 125.731 133.998 133.61C131.412 137.548 128.584 140.67 125.647 142.689C122.705 144.711 119.593 145.663 116.511 145.119L88.1774 140.123L88.5247 138.154C90.9439 138.58 93.53 137.866 96.1806 136.044C98.8363 134.219 101.496 131.319 103.993 127.517C108.984 119.915 113.214 108.872 115.45 96.1917C117.686 83.5113 117.488 71.6877 115.397 62.8372C114.352 58.4101 112.844 54.7755 110.973 52.152ZM94.5972 139.224L116.858 143.15C119.277 143.576 121.864 142.862 124.514 141.04C127.17 139.215 129.83 136.315 132.326 132.513C137.317 124.911 141.547 113.868 143.783 101.188C146.019 88.5073 145.821 76.6837 143.731 67.8332C142.685 63.4061 141.178 59.7714 139.307 57.148C137.439 54.5296 135.253 52.9739 132.834 52.5474L110.573 48.6221C111.296 49.3159 111.973 50.1097 112.601 50.9906C114.671 53.8921 116.261 57.7928 117.344 62.3775C119.51 71.5506 119.691 83.6564 117.419 96.539C115.148 109.422 110.837 120.736 105.664 128.614C103.079 132.552 100.251 135.674 97.3134 137.693C96.4217 138.305 95.5144 138.82 94.5972 139.224Z" fill="#080708"/>
<path d="M110.519 62.0141C111.217 60.2471 113.062 59.2152 114.934 59.5452L143.774 64.6305C145.645 64.9604 147.026 66.5611 147.078 68.4604L147.413 80.7046C147.482 83.2351 145.213 85.1927 142.72 84.7531L109.042 78.8149C106.549 78.3753 105.086 75.7596 106.017 73.4054L110.519 62.0141Z" fill="#C64677" stroke="#080708" stroke-width="1.5"/>
<path d="M99.3005 125.637C99.3524 127.536 100.733 129.137 102.604 129.467L131.445 134.552C133.316 134.882 135.161 133.85 135.859 132.083L140.362 120.692C141.292 118.337 139.829 115.722 137.336 115.282L103.659 109.344C101.166 108.904 98.8966 110.862 98.9658 113.392L99.3005 125.637Z" fill="#C64677" stroke="#080708" stroke-width="1.5"/>
<circle cx="122.912" cy="97.9119" r="31" transform="rotate(10 122.912 97.9119)" fill="#C64677" stroke="#080708" stroke-width="1.5"/>
<circle cx="123.102" cy="97.541" r="27" transform="rotate(10 123.102 97.541)" fill="#F5EEEB" stroke="#080708" stroke-width="1.5"/>
<path d="M116.777 86.009C116.399 84.9711 116.934 83.8234 117.972 83.4456C119.01 83.0678 120.158 83.603 120.536 84.6409L124.982 96.8569L121.223 98.225L116.777 86.009Z" fill="#080708"/>
<path d="M127.097 74.8906L126.402 78.8299" stroke="#080708" stroke-width="1.5" stroke-linecap="round" stroke-linejoin="round"/>
<path d="M137.887 79.9221L135.316 82.9863" stroke="#080708" stroke-width="1.5" stroke-linecap="round" stroke-linejoin="round"/>
<path d="M144.715 89.6746L140.957 91.0426" stroke="#080708" stroke-width="1.5" stroke-linecap="round" stroke-linejoin="round"/>
<path d="M145.753 101.535L141.814 100.841" stroke="#080708" stroke-width="1.5" stroke-linecap="round" stroke-linejoin="round"/>
<path d="M140.721 112.325L137.657 109.754" stroke="#080708" stroke-width="1.5" stroke-linecap="round" stroke-linejoin="round"/>
<path d="M130.969 119.154L129.601 115.395" stroke="#080708" stroke-width="1.5" stroke-linecap="round" stroke-linejoin="round"/>
<path d="M119.108 120.191L119.803 116.252" stroke="#080708" stroke-width="1.5" stroke-linecap="round" stroke-linejoin="round"/>
<path d="M108.318 115.16L110.89 112.095" stroke="#080708" stroke-width="1.5" stroke-linecap="round" stroke-linejoin="round"/>
<path d="M101.49 105.407L105.249 104.039" stroke="#080708" stroke-width="1.5" stroke-linecap="round" stroke-linejoin="round"/>
<path d="M100.452 93.5469L104.391 94.2415" stroke="#080708" stroke-width="1.5" stroke-linecap="round" stroke-linejoin="round"/>
<path d="M105.484 82.7568L108.548 85.328" stroke="#080708" stroke-width="1.5" stroke-linecap="round" stroke-linejoin="round"/>
<path d="M115.236 75.9282L116.604 79.687" stroke="#080708" stroke-width="1.5" stroke-linecap="round" stroke-linejoin="round"/>
<rect x="142.189" y="82.9558" width="2" height="24" rx="1" transform="rotate(55 142.189 82.9558)" fill="#080708"/>
<circle cx="123.102" cy="97.541" r="3" transform="rotate(10 123.102 97.541)" fill="#F5EEEB" stroke="#080708" stroke-width="1.5"/>
<path d="M122.581 100.495C124.213 100.783 125.769 99.6936 126.057 98.0619L120.148 97.02C119.86 98.6517 120.95 100.208 122.581 100.495Z" fill="#080708"/>
<path d="M102.357 48.1889C102.549 47.1011 103.586 46.3747 104.674 46.5665L104.327 48.5362L102.357 48.1889Z" fill="#080708"/>
<path d="M101.373 48.0152C101.66 46.3835 103.216 45.294 104.848 45.5817L104.674 46.5665L104.327 48.5362L101.373 48.0152Z" fill="#080708"/>
<path d="M101.373 48.0152C101.66 46.3835 103.216 45.294 104.848 45.5817L104.674 46.5665L104.327 48.5362L101.373 48.0152Z" fill="#080708"/>
<path d="M85.7441 136.648C85.4564 138.28 86.5459 139.836 88.1776 140.123L88.6986 137.169L85.7441 136.648Z" fill="#080708"/>
<path d="M693.92 234.044L689.633 226.519L698.294 226.569L696.567 229.52L695.793 230.843L693.92 234.044Z" fill="#080708"/>
<path d="M719.504 202.184L716.898 204.397L715.345 195.877L723.5 198.791L720.673 201.191L719.504 202.184Z" fill="#080708"/>
<path d="M719.217 200.226C723.936 207.416 723.622 217.126 717.81 224.053C711.936 231.054 702.287 233.018 694.338 229.467" stroke="#080708" stroke-width="1.5" stroke-linecap="square"/>
<circle cx="690.232" cy="200.913" r="4" transform="rotate(-50 690.232 200.913)" fill="#C64677" stroke="#080708" stroke-width="1.5"/>
<path d="M693.296 203.484L717.81 224.053" stroke="#080708" stroke-width="1.5"/>
<path d="M694.036 211.937L701.75 202.744" stroke="#080708" stroke-width="1.5" stroke-linecap="round"/>
<path d="M270.355 85.9348L364.897 102.605" stroke="#080708" stroke-width="1.5"/>
<path d="M264.625 118.433L363.105 135.798" stroke="#080708" stroke-width="1.5"/>
<path d="M258.895 150.932L332.755 163.956" stroke="#080708" stroke-width="1.5"/>
</g>
<defs>
<clipPath id="clip0_325_6376">
<rect width="896" height="365" fill="white"/>
</clipPath>
<clipPath id="clip1_325_6376">
<rect width="53" height="41" fill="white" transform="translate(720.99 156.255) rotate(10)"/>
</clipPath>
</defs>
</svg>
