<svg width="887" height="302" viewBox="0 0 887 302" fill="none" xmlns="http://www.w3.org/2000/svg">
<g clip-path="url(#clip0_491_14344)">
<rect x="712" y="1" width="170" height="300" rx="24" fill="#F5EEEB" stroke="#080708" stroke-width="1.5"/>
<rect x="712" y="1" width="150" height="300" rx="24" fill="#F5EEEB" stroke="#080708" stroke-width="1.5"/>
<rect x="722" y="11" width="130" height="280" rx="16" fill="#080708" stroke="#080708" stroke-width="1.5"/>
<rect x="771" y="278" width="32" height="2" rx="1" fill="#F5EEEB"/>
<circle cx="787" cy="25" r="4" fill="#080708" stroke="#F5EEEB" stroke-width="1.5"/>
<path d="M877 116C874.239 116 872 113.761 872 111L872 85C872 82.2386 874.239 80 877 80L882 80L882 116L877 116Z" fill="#080708" stroke="#080708" stroke-width="1.5"/>
<rect x="878" y="116" width="36" height="8" rx="4" transform="rotate(-90 878 116)" fill="#F5EEEB" stroke="#080708" stroke-width="1.5"/>
<path d="M710 93C708.895 93 708 92.1046 708 91L708 59C708 57.8954 708.895 57 710 57L712 57L712 93L710 93Z" fill="#080708" stroke="#080708" stroke-width="1.5"/>
<path d="M710 139C708.895 139 708 138.105 708 137L708 105C708 103.895 708.895 103 710 103L712 103L712 139L710 139Z" fill="#080708" stroke="#080708" stroke-width="1.5"/>
<path d="M609.775 45.8311C603.332 52.2726 603.332 62.7164 609.775 69.1579L631.669 91.0438H603V91L507.5 91C498.387 91 491 98.3873 491 107.5C491 116.61 498.384 123.996 507.493 124H487.5C478.387 124 471 131.387 471 140.5C471 149.613 478.387 157 487.5 157H504.5C495.387 157 488 164.387 488 173.5C488 182.613 495.387 190 504.5 190H529.5C520.387 190 513 197.387 513 206.5C513 215.613 520.387 223 529.5 223L651 223C668.011 223 683.52 216.566 695.222 206L787 206C811.853 206 832 185.853 832 161C832 136.147 811.853 116 787 116L702.695 116C701.325 114.277 699.871 112.624 698.338 111.047L698.343 111.042L697.81 110.51C697.716 110.415 697.622 110.321 697.527 110.227L633.11 45.8311C626.666 39.3896 616.219 39.3896 609.775 45.8311Z" fill="#F5EEEB" stroke="#080708" stroke-width="1.5"/>
<path d="M503 157H603" stroke="#080708" stroke-width="1.5"/>
<path d="M528 190L603 190" stroke="#080708" stroke-width="1.5"/>
<path d="M520 124L603 124" stroke="#080708" stroke-width="1.5"/>
<g clip-path="url(#clip1_491_14344)">
<path d="M735.176 106.577C734.971 105.625 736.098 104.974 736.821 105.627L749.426 117.025C749.749 117.318 750.221 117.369 750.596 117.152L765.217 108.711C766.055 108.227 767.027 109.106 766.635 109.994L759.805 125.48C759.63 125.877 759.73 126.343 760.053 126.635L772.658 138.034C773.38 138.687 772.853 139.881 771.889 139.776L755.063 137.949C754.632 137.902 754.221 138.139 754.046 138.536L747.216 154.021C746.824 154.909 745.526 154.768 745.322 153.816L741.753 137.201C741.662 136.775 741.308 136.455 740.877 136.408L724.05 134.58C723.086 134.476 722.811 133.194 723.649 132.711L738.269 124.269C738.644 124.053 738.836 123.618 738.744 123.192L735.176 106.577Z" fill="#F5EEEB" stroke="#080708" stroke-width="1.5"/>
<path d="M748.65 128.017L735.65 105.5" stroke="#080708" stroke-width="1.5" stroke-linejoin="round"/>
<path d="M748.651 128.017L766.048 108.695" stroke="#080708" stroke-width="1.5" stroke-linejoin="round"/>
<path d="M748.651 128.016L772.403 138.592" stroke="#080708" stroke-width="1.5" stroke-linejoin="round"/>
<path d="M748.651 128.017L745.933 153.874" stroke="#080708" stroke-width="1.5" stroke-linejoin="round"/>
<path d="M748.651 128.017L723.219 133.422" stroke="#080708" stroke-width="1.5" stroke-linejoin="round"/>
<path d="M748.65 128.017L749.905 116.083" stroke="#080708" stroke-width="1.5" stroke-linejoin="round"/>
<path d="M748.65 128.017L760.388 125.522" stroke="#080708" stroke-width="1.5" stroke-linejoin="round"/>
<path d="M748.65 128.017L754.65 138.409" stroke="#080708" stroke-width="1.5" stroke-linejoin="round"/>
<path d="M748.651 128.017L740.621 136.934" stroke="#080708" stroke-width="1.5" stroke-linejoin="round"/>
<path d="M748.651 128.017L737.688 123.136" stroke="#080708" stroke-width="1.5" stroke-linejoin="round"/>
<path d="M749.597 117.655L748.833 127.334L747.9 126.718L737.4 108.531L736.833 106.549L749.597 117.655Z" fill="#080708"/>
<path d="M762.904 111.704L749.267 127.084L751.316 127.633L759.927 125.548L765.203 112.687L765.935 109.954L762.904 111.704Z" fill="#080708"/>
<path d="M749.15 128.883L754.4 137.976L770.842 139.453L771.208 138.087L750.266 128.816L749.15 128.883Z" fill="#080708"/>
<path d="M741.307 136.298L745.093 150.855L746.026 151.471L748.169 131.182L747.852 129.633L746.986 130.133L741.307 136.298Z" fill="#080708"/>
<path d="M738.772 123.905L726.031 131.838L726.964 132.454L745.553 128.651L746.852 127.901L738.772 123.905Z" fill="#080708"/>
</g>
<path d="M783.403 157.629C783.407 153.608 785.495 149.698 789.228 147.542C792.961 145.387 797.392 145.533 800.876 147.541C800.873 151.563 798.784 155.473 795.051 157.628C791.318 159.784 786.888 159.637 783.403 157.629Z" fill="#F5EEEB" stroke="#080708" stroke-width="1.5"/>
<path fill-rule="evenodd" clip-rule="evenodd" d="M789.524 153.674C789.838 155.811 789.457 157.496 788.325 158.149C787.193 158.803 785.544 158.291 783.852 156.951C783.537 154.815 783.918 153.13 785.05 152.476C786.182 151.822 787.832 152.335 789.524 153.674Z" fill="#080708"/>
<path d="M784.078 147.719H779.002C777.857 152.569 780.769 157.481 785.615 158.779C782.618 155.783 782.106 151.243 784.078 147.719Z" fill="#F5EEEB" stroke="#080708" stroke-width="1.5"/>
<path d="M764.145 163.476C765.189 159.592 768.218 156.356 772.382 155.24C776.546 154.125 780.787 155.413 783.633 158.254C782.589 162.138 779.56 165.374 775.396 166.489C771.233 167.605 766.991 166.317 764.145 163.476Z" fill="#F5EEEB" stroke="#080708" stroke-width="1.5"/>
<path fill-rule="evenodd" clip-rule="evenodd" d="M786.756 159.301C785 162.896 781.756 165.739 777.589 166.856C773.421 167.973 769.19 167.132 765.872 164.897C767.628 161.302 770.871 158.459 775.039 157.342C779.207 156.225 783.438 157.066 786.756 159.301Z" fill="#080708"/>
<path d="M783.766 158.259C784.96 155.46 787.037 153.01 789.875 151.371C796.838 147.351 805.741 149.737 809.761 156.699C816.997 169.232 807.529 188.246 802.692 191.038C797.866 193.824 776.748 192.53 769.467 180.074C769.451 180.047 769.435 180.019 769.419 179.991C765.399 173.029 767.784 164.125 774.747 160.105C777.585 158.467 780.746 157.893 783.766 158.259Z" fill="#F5EEEB" stroke="#080708" stroke-width="1.5"/>
<path d="M796.087 176.48C796.707 174.168 796.746 171.738 796.203 169.407C795.659 167.076 794.549 164.914 792.97 163.114C791.392 161.314 789.394 159.932 787.153 159.088C784.913 158.245 782.499 157.967 780.125 158.28C777.752 158.592 775.492 159.485 773.546 160.88C771.6 162.274 770.028 164.127 768.969 166.274C767.91 168.421 767.398 170.796 767.476 173.189C767.554 175.582 768.221 177.918 769.418 179.991" stroke="#080708" stroke-width="1.5"/>
<path d="M778.367 182.389C776.974 183.193 775.194 182.716 774.39 181.323C773.586 179.931 774.063 178.15 775.456 177.346" stroke="#080708" stroke-width="1.5"/>
<path d="M775.456 177.346L812.016 156.238" stroke="#080708" stroke-width="1.5"/>
<path d="M788.577 184.059L793.62 181.147L795.075 183.669C795.879 185.061 795.402 186.842 794.01 187.646C792.617 188.45 790.836 187.973 790.032 186.58L788.577 184.059Z" fill="#F5EEEB" stroke="#080708" stroke-width="1.5"/>
<path d="M793.619 181.147L798.662 178.236L800.118 180.757C800.922 182.15 800.445 183.931 799.052 184.735C797.66 185.539 795.879 185.061 795.075 183.669L793.619 181.147Z" fill="#F5EEEB" stroke="#080708" stroke-width="1.5"/>
<path d="M798.662 178.236L803.705 175.324L805.161 177.846C805.965 179.238 805.488 181.019 804.095 181.823C802.702 182.627 800.922 182.15 800.118 180.757L798.662 178.236Z" fill="#F5EEEB" stroke="#080708" stroke-width="1.5"/>
<circle cx="802.561" cy="161.697" r="4.36724" transform="rotate(-30 802.561 161.697)" fill="#F5EEEB" stroke="#080708" stroke-width="1.5"/>
<circle cx="787.433" cy="170.431" r="4.36724" transform="rotate(-30 787.433 170.431)" fill="#F5EEEB" stroke="#080708" stroke-width="1.5"/>
<path d="M632.227 91C628.07 95.1298 624.924 100.154 623.034 105.685C621.144 111.215 620.561 117.103 621.328 122.894C622.095 128.684 624.193 134.222 627.46 139.078C630.726 143.934 635.074 147.979 640.166 150.899C645.257 153.819 650.957 155.536 656.824 155.918C662.691 156.3 668.568 155.337 674 153.102" stroke="#080708" stroke-width="1.5"/>
<mask id="mask0_491_14344" style="mask-type:alpha" maskUnits="userSpaceOnUse" x="472" y="91" width="132" height="132">
<path fill-rule="evenodd" clip-rule="evenodd" d="M492 107.5C492 116.61 499.384 123.996 508.493 124H488.5C479.387 124 472 131.387 472 140.5C472 149.613 479.387 157 488.5 157H505.5C496.387 157 489 164.387 489 173.5C489 182.613 496.387 190 505.5 190H530.5C521.387 190 514 197.387 514 206.5C514 215.613 521.387 223 530.5 223H604V190V157V124V91L508.5 91C499.387 91 492 98.3873 492 107.5Z" fill="#359D72"/>
</mask>
<g mask="url(#mask0_491_14344)">
<path fill-rule="evenodd" clip-rule="evenodd" d="M476.058 47L445 162.911L526.138 184.652L536.901 144.484C536.27 144.385 535.639 144.252 535.008 144.083C525.406 141.51 519.707 131.64 522.28 122.038C524.853 112.435 534.723 106.737 544.326 109.31C544.956 109.479 545.57 109.679 546.165 109.909L557.196 68.7408L476.058 47Z" fill="#080708"/>
</g>
<path d="M440.197 155.259L409.138 39.3483L328 61.0891L330.396 70.0301C332.244 70.1746 333.885 71.4605 334.392 73.3529C334.899 75.2453 334.121 77.1793 332.593 78.2284L334.278 84.519C336.126 84.6635 337.767 85.9494 338.274 87.8418C338.781 89.7342 338.003 91.6681 336.475 92.7173L338.871 101.658C348.473 99.0855 358.343 104.784 360.916 114.386C363.489 123.988 357.79 133.858 348.188 136.431L350.584 145.372C352.432 145.517 354.073 146.803 354.58 148.695C355.087 150.588 354.309 152.521 352.781 153.571L354.466 159.861C356.314 160.006 357.955 161.292 358.462 163.184C358.969 165.076 358.191 167.01 356.663 168.059L359.059 177L440.197 155.259Z" fill="#F5EEEB" stroke="#080708" stroke-width="1.5"/>
<circle cx="404.307" cy="119.841" r="7.5" transform="rotate(-105 404.307 119.841)" fill="#080708"/>
<circle cx="391.107" cy="70.5791" r="7.5" transform="rotate(-105 391.107 70.5791)" fill="#080708"/>
<path d="M420.614 34.1582L425.841 39.3857" stroke="#080708" stroke-width="1.5" stroke-linecap="square"/>
<path d="M439.781 26.2192L439.781 33.6121" stroke="#080708" stroke-width="1.5" stroke-linecap="square"/>
<path d="M458.949 34.1592L453.722 39.3867" stroke="#080708" stroke-width="1.5" stroke-linecap="square"/>
<path d="M471.255 39.3466L440.196 155.258L521.334 176.999L523.73 168.058C522.201 167.009 521.423 165.075 521.93 163.182C522.437 161.29 524.078 160.004 525.927 159.859L527.612 153.569C526.084 152.52 525.306 150.586 525.813 148.693C526.32 146.801 527.961 145.515 529.809 145.37L532.204 136.43C522.602 133.857 516.904 123.987 519.477 114.384C522.049 104.782 531.92 99.0834 541.522 101.656L543.918 92.7157C542.389 91.6666 541.611 89.7324 542.118 87.8399C542.625 85.9473 544.266 84.6613 546.114 84.517L547.8 78.2268C546.272 77.1777 545.493 75.2436 546 73.351C546.508 71.4584 548.149 70.1725 549.997 70.0281L552.392 61.0874L471.255 39.3466Z" fill="#F5EEEB" stroke="#080708" stroke-width="1.5"/>
<path d="M477.202 75.1055C486.804 77.6785 492.503 87.5485 489.93 97.1509C487.357 106.753 477.487 112.452 467.884 109.879" stroke="#080708" stroke-width="1.5"/>
<mask id="mask1_491_14344" style="mask-type:alpha" maskUnits="userSpaceOnUse" x="328" y="39" width="113" height="138">
<rect x="409.138" y="39" width="120" height="84" transform="rotate(75 409.138 39)" fill="#359D72"/>
</mask>
<g mask="url(#mask1_491_14344)">
<path d="M386.5 162C395.613 162 403 154.613 403 145.5C403 136.387 395.613 129 386.5 129L271 129L271 162L386.5 162Z" fill="#080708"/>
<path d="M365.5 129C374.613 129 382 121.613 382 112.5C382 103.387 374.613 96 365.5 96L250 96L250 129L365.5 129Z" fill="#080708"/>
<path d="M370.5 188C379.613 188 387 180.613 387 171.5C387 162.387 379.613 155 370.5 155L272 155L272 188L370.5 188Z" fill="#080708" stroke="#080708" stroke-width="1.5"/>
</g>
<path d="M261.702 69.1579C267.501 62.7164 267.501 52.2726 261.702 45.8311C255.903 39.3896 246.5 39.3896 240.701 45.8311L182.726 110.227C182.672 110.286 182.618 110.346 182.565 110.405L182.471 110.51L181.991 111.042L181.996 111.047C180.616 112.624 179.307 114.277 178.074 116L23 116V206L184.8 206C195.332 216.566 209.29 223 224.6 223H338.5C347.613 223 355 215.613 355 206.5C355 197.387 347.613 190 338.5 190H363.5C372.613 190 380 182.613 380 173.5C380 164.387 372.613 157 363.5 157H380.5C389.613 157 397 149.613 397 140.5C397 131.387 389.613 124 380.5 124H360.5C369.613 124 377 116.613 377 107.5C377 98.3873 369.613 91 360.5 91L241.998 91.0438L261.702 69.1579Z" fill="#F5EEEB" stroke="#080708" stroke-width="1.5"/>
<ellipse cx="23.5" cy="161" rx="22.5" ry="45" fill="#F5EEEB" stroke="#080708" stroke-width="1.5"/>
<path d="M96 208C107.172 208 116.229 186.957 116.229 161C116.229 135.043 107.172 114 96 114H124.771C135.943 114 145 135.043 145 161C145 186.957 135.943 208 124.771 208H96Z" fill="#080708"/>
<path fill-rule="evenodd" clip-rule="evenodd" d="M103.173 118.407C100.879 116.152 98.4565 115 96 115V113H124.771C127.9 113 130.799 114.478 133.346 116.98C135.888 119.478 138.131 123.044 139.993 127.371C143.72 136.028 146 147.919 146 161C146 174.081 143.72 185.972 139.993 194.629C138.131 198.956 135.888 202.522 133.346 205.02C130.799 207.522 127.9 209 124.771 209H96V207C98.4565 207 100.879 205.848 103.173 203.593C105.472 201.335 107.587 198.017 109.386 193.839C112.981 185.486 115.229 173.876 115.229 161C115.229 148.124 112.981 136.514 109.386 128.161C107.587 123.983 105.472 120.665 103.173 118.407ZM102.166 207H124.771C127.227 207 129.65 205.848 131.944 203.593C134.242 201.335 136.358 198.017 138.156 193.839C141.752 185.486 144 173.876 144 161C144 148.124 141.752 136.514 138.156 128.161C136.358 123.983 134.242 120.665 131.944 118.407C129.65 116.152 127.227 115 124.771 115H102.166C102.999 115.558 103.803 116.222 104.575 116.98C107.117 119.478 109.36 123.044 111.223 127.371C114.949 136.028 117.229 147.919 117.229 161C117.229 174.081 114.949 185.972 111.223 194.629C109.36 198.956 107.117 202.522 104.575 205.02C103.803 205.778 102.999 206.442 102.166 207Z" fill="#080708"/>
<path d="M104.439 128.198C104.819 126.337 106.457 125 108.357 125H137.643C139.543 125 141.181 126.337 141.561 128.198L144.017 140.198C144.525 142.678 142.63 145 140.098 145H105.902C103.37 145 101.475 142.678 101.983 140.198L104.439 128.198Z" fill="#F5EEEB" stroke="#080708" stroke-width="1.5"/>
<path d="M104.439 192.802C104.819 194.663 106.457 196 108.357 196H137.643C139.543 196 141.181 194.663 141.561 192.802L144.017 180.802C144.525 178.322 142.63 176 140.098 176H105.902C103.37 176 101.475 178.322 101.983 180.802L104.439 192.802Z" fill="#F5EEEB" stroke="#080708" stroke-width="1.5"/>
<mask id="mask2_491_14344" style="mask-type:alpha" maskUnits="userSpaceOnUse" x="101" y="176" width="44" height="20">
<path d="M104.439 192.802C104.819 194.663 106.457 196 108.357 196H137.643C139.543 196 141.181 194.663 141.561 192.802L144.017 180.802C144.525 178.322 142.63 176 140.098 176H105.902C103.37 176 101.475 178.322 101.983 180.802L104.439 192.802Z" fill="#359D72"/>
</mask>
<g mask="url(#mask2_491_14344)">
<circle cx="123" cy="164" r="28" fill="#080708"/>
</g>
<circle cx="123" cy="161" r="31" fill="#F5EEEB" stroke="#080708" stroke-width="1.5"/>
<circle cx="123" cy="161" r="27" fill="#F5EEEB" stroke="#080708" stroke-width="1.5"/>
<path d="M114.768 150.742C114.216 149.785 114.544 148.562 115.5 148.01C116.457 147.457 117.68 147.785 118.232 148.742L124.732 160L121.268 162L114.768 150.742Z" fill="#080708"/>
<path d="M123 138V142" stroke="#080708" stroke-width="1.5" stroke-linecap="round" stroke-linejoin="round"/>
<path d="M134.5 141.082L132.5 144.546" stroke="#080708" stroke-width="1.5" stroke-linecap="round" stroke-linejoin="round"/>
<path d="M142.918 149.5L139.454 151.5" stroke="#080708" stroke-width="1.5" stroke-linecap="round" stroke-linejoin="round"/>
<path d="M146 161H142" stroke="#080708" stroke-width="1.5" stroke-linecap="round" stroke-linejoin="round"/>
<path d="M142.918 172.5L139.454 170.5" stroke="#080708" stroke-width="1.5" stroke-linecap="round" stroke-linejoin="round"/>
<path d="M134.5 180.918L132.5 177.454" stroke="#080708" stroke-width="1.5" stroke-linecap="round" stroke-linejoin="round"/>
<path d="M123 184V180" stroke="#080708" stroke-width="1.5" stroke-linecap="round" stroke-linejoin="round"/>
<path d="M111.5 180.918L113.5 177.454" stroke="#080708" stroke-width="1.5" stroke-linecap="round" stroke-linejoin="round"/>
<path d="M103.082 172.5L106.546 170.5" stroke="#080708" stroke-width="1.5" stroke-linecap="round" stroke-linejoin="round"/>
<path d="M100 161H104" stroke="#080708" stroke-width="1.5" stroke-linecap="round" stroke-linejoin="round"/>
<path d="M103.082 149.5L106.546 151.5" stroke="#080708" stroke-width="1.5" stroke-linecap="round" stroke-linejoin="round"/>
<path d="M111.5 141.082L113.5 144.546" stroke="#080708" stroke-width="1.5" stroke-linecap="round" stroke-linejoin="round"/>
<rect x="139.264" y="143.322" width="2" height="24" rx="1" transform="rotate(45 139.264 143.322)" fill="#080708"/>
<circle cx="123" cy="161" r="3" fill="#F5EEEB" stroke="#080708" stroke-width="1.5"/>
<path d="M123 164C124.657 164 126 162.657 126 161H120C120 162.657 121.343 164 123 164Z" fill="#080708"/>
<path d="M94 116C94 114.895 94.8954 114 96 114V116H94Z" fill="#080708"/>
<path d="M93 116C93 114.343 94.3431 113 96 113V114V116H93Z" fill="#080708"/>
<path d="M93 116C93 114.343 94.3431 113 96 113V114V116H93Z" fill="#080708"/>
<path d="M93 206C93 207.657 94.3431 209 96 209V206H93Z" fill="#080708"/>
<path d="M708.849 196.307L703.321 189.641L711.858 188.187L710.67 191.392L710.137 192.83L708.849 196.307Z" fill="#080708"/>
<path d="M728.512 160.489L726.33 163.121L723.321 155L731.858 156.454L729.491 159.309L728.512 160.489Z" fill="#080708"/>
<path d="M727.889 158.611C733.785 164.872 735.162 174.49 730.641 182.321C726.072 190.235 716.911 193.844 708.466 191.728" stroke="#080708" stroke-width="1.5" stroke-linecap="square"/>
<circle cx="699.464" cy="164.321" r="4" transform="rotate(-60 699.464 164.321)" fill="#F5EEEB" stroke="#080708" stroke-width="1.5"/>
<path d="M702.928 166.321L730.641 182.321" stroke="#080708" stroke-width="1.5"/>
<path d="M705.125 174.517L711.125 164.124" stroke="#080708" stroke-width="1.5" stroke-linecap="round"/>
<path d="M266 124H362" stroke="#080708" stroke-width="1.5"/>
<path d="M266 157H366" stroke="#080708" stroke-width="1.5"/>
<path d="M266 190H341" stroke="#080708" stroke-width="1.5"/>
</g>
<defs>
<clipPath id="clip0_491_14344">
<rect width="887" height="302" fill="white"/>
</clipPath>
<clipPath id="clip1_491_14344">
<rect width="53" height="41" fill="white" transform="translate(722 115)"/>
</clipPath>
</defs>
</svg>
