<svg width="800" height="100" viewBox="0 0 800 100" fill="none" xmlns="http://www.w3.org/2000/svg" preserveAspectRatio="xMidYMid slice">
<g clip-path="url(#clip0_76_54752)">
<rect x="-25.1575" y="61.1749" width="35" height="50.4" transform="rotate(-30 -25.1575 61.1749)" fill="var(--highlight)" stroke="#080708" stroke-width="2"/>
<path d="M-25.1575 61.1749L9.26636 70.3988L0.0425234 104.823L-25.1575 61.1749Z" fill="var(--highlight)" stroke="#080708" stroke-width="2" stroke-linejoin="bevel"/>
<path d="M5.15341 43.6749L-4.07043 78.0988L30.3534 87.3226L5.15341 43.6749Z" fill="var(--highlight)" stroke="#080708" stroke-width="2" stroke-linejoin="bevel"/>
<rect x="7.33994" y="61.1749" width="35" height="50.4" transform="rotate(-30 7.33994 61.1749)" fill="var(--highlight)" stroke="#080708" stroke-width="2"/>
<path d="M7.33994 61.1749L41.7638 70.3988L32.5399 104.823L7.33994 61.1749Z" fill="var(--highlight)" stroke="#080708" stroke-width="2" stroke-linejoin="bevel"/>
<path d="M37.6508 43.6749L28.427 78.0988L62.8508 87.3226L37.6508 43.6749Z" fill="var(--highlight)" stroke="#080708" stroke-width="2" stroke-linejoin="bevel"/>
<rect x="39.8374" y="61.1749" width="35" height="50.4" transform="rotate(-30 39.8374 61.1749)" fill="var(--highlight)" stroke="#080708" stroke-width="2"/>
<path d="M39.8374 61.1749L74.2612 70.3988L65.0374 104.823L39.8374 61.1749Z" fill="var(--highlight)" stroke="#080708" stroke-width="2" stroke-linejoin="bevel"/>
<path d="M70.1483 43.6749L60.9244 78.0988L95.3483 87.3226L70.1483 43.6749Z" fill="var(--highlight)" stroke="#080708" stroke-width="2" stroke-linejoin="bevel"/>
<rect x="72.3348" y="61.1749" width="35" height="50.4" transform="rotate(-30 72.3348 61.1749)" fill="var(--highlight)" stroke="#080708" stroke-width="2"/>
<path d="M72.3348 61.1749L106.759 70.3988L97.5348 104.823L72.3348 61.1749Z" fill="var(--highlight)" stroke="#080708" stroke-width="2" stroke-linejoin="bevel"/>
<path d="M102.646 43.6749L93.4218 78.0988L127.846 87.3226L102.646 43.6749Z" fill="var(--highlight)" stroke="#080708" stroke-width="2" stroke-linejoin="bevel"/>
<rect x="104.832" y="61.1749" width="35" height="50.4" transform="rotate(-30 104.832 61.1749)" fill="var(--highlight)" stroke="#080708" stroke-width="2"/>
<path d="M104.832 61.1749L139.256 70.3988L130.032 104.823L104.832 61.1749Z" fill="var(--highlight)" stroke="#080708" stroke-width="2" stroke-linejoin="bevel"/>
<path d="M135.143 43.6749L125.919 78.0988L160.343 87.3226L135.143 43.6749Z" fill="var(--highlight)" stroke="#080708" stroke-width="2" stroke-linejoin="bevel"/>
<rect x="137.33" y="61.1749" width="35" height="50.4" transform="rotate(-30 137.33 61.1749)" fill="var(--highlight)" stroke="#080708" stroke-width="2"/>
<path d="M137.33 61.1749L171.753 70.3988L162.53 104.823L137.33 61.1749Z" fill="var(--highlight)" stroke="#080708" stroke-width="2" stroke-linejoin="bevel"/>
<path d="M167.641 43.6749L158.417 78.0988L192.841 87.3226L167.641 43.6749Z" fill="var(--highlight)" stroke="#080708" stroke-width="2" stroke-linejoin="bevel"/>
<rect x="169.827" y="61.1749" width="35" height="50.4" transform="rotate(-30 169.827 61.1749)" fill="var(--highlight)" stroke="#080708" stroke-width="2"/>
<path d="M169.827 61.1749L204.251 70.3988L195.027 104.823L169.827 61.1749Z" fill="var(--highlight)" stroke="#080708" stroke-width="2" stroke-linejoin="bevel"/>
<path d="M200.138 43.6749L190.914 78.0988L225.338 87.3226L200.138 43.6749Z" fill="var(--highlight)" stroke="#080708" stroke-width="2" stroke-linejoin="bevel"/>
<rect x="202.324" y="61.1749" width="35" height="50.4" transform="rotate(-30 202.324 61.1749)" fill="var(--highlight)" stroke="#080708" stroke-width="2"/>
<path d="M202.324 61.1749L236.748 70.3988L227.524 104.823L202.324 61.1749Z" fill="var(--highlight)" stroke="#080708" stroke-width="2" stroke-linejoin="bevel"/>
<path d="M232.635 43.6749L223.412 78.0988L257.835 87.3226L232.635 43.6749Z" fill="var(--highlight)" stroke="#080708" stroke-width="2" stroke-linejoin="bevel"/>
<rect x="234.822" y="61.1749" width="35" height="50.4" transform="rotate(-30 234.822 61.1749)" fill="var(--highlight)" stroke="#080708" stroke-width="2"/>
<path d="M234.822 61.1749L269.246 70.3988L260.022 104.823L234.822 61.1749Z" fill="var(--highlight)" stroke="#080708" stroke-width="2" stroke-linejoin="bevel"/>
<path d="M265.133 43.6749L255.909 78.0988L290.333 87.3226L265.133 43.6749Z" fill="var(--highlight)" stroke="#080708" stroke-width="2" stroke-linejoin="bevel"/>
<rect x="267.319" y="61.1749" width="35" height="50.4" transform="rotate(-30 267.319 61.1749)" fill="var(--highlight)" stroke="#080708" stroke-width="2"/>
<path d="M267.319 61.1749L301.743 70.3988L292.519 104.823L267.319 61.1749Z" fill="var(--highlight)" stroke="#080708" stroke-width="2" stroke-linejoin="bevel"/>
<path d="M297.63 43.6749L288.406 78.0988L322.83 87.3226L297.63 43.6749Z" fill="var(--highlight)" stroke="#080708" stroke-width="2" stroke-linejoin="bevel"/>
<rect x="299.817" y="61.1749" width="35" height="50.4" transform="rotate(-30 299.817 61.1749)" fill="#080708" stroke="#080708" stroke-width="2"/>
<rect x="311.291" y="64.2495" width="33.6" height="33.6" transform="rotate(-30 311.291 64.2495)" fill="var(--highlight)" stroke="#080708" stroke-width="2"/>
<path d="M323.722 67.5804L299.817 61.1749L330.128 43.6749L323.722 67.5804Z" fill="var(--highlight)" stroke="#080708" stroke-width="2" stroke-linejoin="bevel"/>
<path d="M331.422 80.9171L325.017 104.823L355.328 87.3225L331.422 80.9171Z" fill="var(--highlight)" stroke="#080708" stroke-width="2" stroke-linejoin="bevel"/>
<path d="M323.722 67.5804L299.817 61.1749L325.017 104.823L331.422 80.9172L323.722 67.5804Z" fill="var(--highlight)" stroke="#080708" stroke-width="2" stroke-linejoin="bevel"/>
<path d="M494.405 34.1132L543.902 16.2941L526.083 65.7915L494.405 34.1132Z" fill="var(--highlight)" stroke="#080708" stroke-width="2"/>
<path d="M510.244 49.9523L543.902 16.294" stroke="#080708" stroke-width="2"/>
<path d="M510.244 49.9522L513.214 62.8216L518.163 57.8718L510.244 49.9522Z" fill="#080708" stroke="#080708" stroke-width="2"/>
</g>
<defs>
<clipPath id="clip0_76_54752">
<rect width="800" height="100" fill="white"/>
</clipPath>
</defs>
</svg>
