<svg width="480" height="480" viewBox="0 0 480 480" fill="none" xmlns="http://www.w3.org/2000/svg" preserveAspectRatio="xMidYMid slice">
<g clip-path="url(#clip0_76_57234)">
<path d="M264.701 136.129L383.835 94.8663L339.694 212.965L264.701 136.129Z" fill="var(--highlight)" stroke="#080708" stroke-width="2"/>
<path d="M302.197 174.547L383.835 94.8663" stroke="#080708" stroke-width="2"/>
<path d="M302.197 174.547L308.94 205.473L320.946 193.756L302.197 174.547Z" fill="#080708" stroke="#080708" stroke-width="2"/>
<path d="M284.504 20.5829L330.128 81.4376L254.157 77.8044L284.504 20.5829Z" fill="var(--highlight)" stroke="#080708" stroke-width="2"/>
<path d="M269.33 49.1936L330.128 81.4376" stroke="#080708" stroke-width="2"/>
<path d="M269.33 49.1937L252.803 58.7573L261.743 63.4991L269.33 49.1937Z" fill="#080708" stroke="#080708" stroke-width="2"/>
<path d="M65.9531 240.074L-14.3836 209.486L60.3919 167.08L65.9531 240.074Z" fill="var(--highlight)" stroke="#080708" stroke-width="2"/>
<path d="M63.1726 203.577L-14.3835 209.486" stroke="#080708" stroke-width="2"/>
<path d="M63.1726 203.577L73.1876 184.46L61.7823 185.329L63.1726 203.577Z" fill="#080708" stroke="#080708" stroke-width="2"/>
<path d="M385.009 258.884L455.92 247.002L419.878 309.215L385.009 258.884Z" fill="var(--highlight)" stroke="#080708" stroke-width="2"/>
<path d="M402.444 284.05L455.92 247.002" stroke="#080708" stroke-width="2"/>
<path d="M402.444 284.05L403.297 302.081L411.161 296.632L402.444 284.05Z" fill="#080708" stroke="#080708" stroke-width="2"/>
<rect x="494.306" y="107.437" width="85.21" height="122.702" transform="rotate(72.8817 494.306 107.437)" fill="#080708" stroke="#080708" stroke-width="2"/>
<rect x="480.781" y="133.001" width="81.8016" height="81.8016" transform="rotate(72.8817 480.781 133.001)" fill="#F5EEEB" stroke="#080708" stroke-width="2"/>
<path d="M466.129 160.695L494.306 107.437L519.387 188.872L466.129 160.695Z" fill="#F5EEEB" stroke="#080708" stroke-width="2" stroke-linejoin="bevel"/>
<path d="M430.297 171.731L377.039 143.554L402.12 224.989L430.297 171.731Z" fill="#F5EEEB" stroke="#080708" stroke-width="2" stroke-linejoin="bevel"/>
<path d="M466.129 160.695L494.306 107.437L377.039 143.554L430.297 171.731L466.129 160.695Z" fill="#F5EEEB" stroke="#080708" stroke-width="2" stroke-linejoin="bevel"/>
<rect x="123.144" y="233.682" width="89.8553" height="129.392" transform="rotate(-45 123.144 233.682)" fill="#080708" stroke="#080708" stroke-width="2"/>
<rect x="153.642" y="233.682" width="86.2611" height="86.2611" transform="rotate(-45 153.642 233.682)" fill="#F5EEEB" stroke="#080708" stroke-width="2"/>
<path d="M186.682 233.682H123.144L186.682 170.144V233.682Z" fill="#F5EEEB" stroke="#080708" stroke-width="2" stroke-linejoin="bevel"/>
<path d="M214.638 261.638L214.638 325.175L278.175 261.638L214.638 261.638Z" fill="#F5EEEB" stroke="#080708" stroke-width="2" stroke-linejoin="bevel"/>
<path d="M186.682 233.682L123.144 233.682L214.638 325.175L214.638 261.638L186.682 233.682Z" fill="#F5EEEB" stroke="#080708" stroke-width="2" stroke-linejoin="bevel"/>
<rect x="62.2231" y="370.668" width="101.415" height="146.038" transform="rotate(-22.3649 62.2231 370.668)" fill="#080708" stroke="#080708" stroke-width="2"/>
<rect x="93.9932" y="383.916" width="97.3584" height="97.3584" transform="rotate(-22.3649 93.9932 383.916)" fill="#F5EEEB" stroke="#080708" stroke-width="2"/>
<path d="M128.411 398.267L62.2231 370.668L156.01 332.079L128.411 398.267Z" fill="#F5EEEB" stroke="#080708" stroke-width="2" stroke-linejoin="bevel"/>
<path d="M145.39 439.533L117.791 505.721L211.577 467.132L145.39 439.533Z" fill="#F5EEEB" stroke="#080708" stroke-width="2" stroke-linejoin="bevel"/>
<path d="M128.411 398.267L62.2231 370.668L117.791 505.721L145.39 439.533L128.411 398.267Z" fill="#F5EEEB" stroke="#080708" stroke-width="2" stroke-linejoin="bevel"/>
<rect x="205.95" y="369.981" width="66.6468" height="95.9714" transform="rotate(60 205.95 369.981)" fill="#F5EEEB" stroke="#080708" stroke-width="2"/>
<path d="M205.95 369.981L188.386 435.531L122.836 417.967L205.95 369.981Z" fill="#F5EEEB" stroke="#080708" stroke-width="2" stroke-linejoin="bevel"/>
<path d="M239.273 427.699L173.724 410.135L156.16 475.685L239.273 427.699Z" fill="#F5EEEB" stroke="#080708" stroke-width="2" stroke-linejoin="bevel"/>
<rect x="341.556" y="356.514" width="93.3562" height="134.433" transform="rotate(117.903 341.556 356.514)" fill="#F5EEEB" stroke="#080708" stroke-width="2"/>
<path d="M341.556 356.514L250.698 384.46L222.752 293.602L341.556 356.514Z" fill="#F5EEEB" stroke="#080708" stroke-width="2" stroke-linejoin="bevel"/>
<path d="M297.867 439.017L269.921 348.159L179.064 376.105L297.867 439.017Z" fill="#F5EEEB" stroke="#080708" stroke-width="2" stroke-linejoin="bevel"/>
<rect x="216.515" y="196.471" width="104.136" height="149.956" transform="rotate(-30 216.515 196.471)" fill="#080708" stroke="#080708" stroke-width="2"/>
<rect x="250.656" y="205.619" width="99.9705" height="99.9705" transform="rotate(-30 250.656 205.619)" fill="#F5EEEB" stroke="#080708" stroke-width="2"/>
<path d="M287.642 215.529L216.515 196.471L306.7 144.403L287.642 215.529Z" fill="#F5EEEB" stroke="#080708" stroke-width="2" stroke-linejoin="bevel"/>
<path d="M310.551 255.21L291.493 326.337L381.678 274.269L310.551 255.21Z" fill="#F5EEEB" stroke="#080708" stroke-width="2" stroke-linejoin="bevel"/>
<path d="M287.642 215.529L216.515 196.471L291.493 326.337L310.551 255.21L287.642 215.529Z" fill="#F5EEEB" stroke="#080708" stroke-width="2" stroke-linejoin="bevel"/>
<path d="M313.224 380.119L447.705 331.706L399.292 466.186L313.224 380.119Z" fill="var(--highlight)" stroke="#080708" stroke-width="2"/>
<path d="M356.258 423.153L447.705 331.706" stroke="#080708" stroke-width="2"/>
<path d="M356.258 423.153L364.327 458.117L377.775 444.669L356.258 423.153Z" fill="#080708" stroke="#080708" stroke-width="2"/>
</g>
<defs>
<clipPath id="clip0_76_57234">
<rect width="480" height="480" fill="white"/>
</clipPath>
</defs>
</svg>
