<svg width="70" height="33" viewBox="0 0 70 33" fill="none" xmlns="http://www.w3.org/2000/svg">
<g clip-path="url(#clip0_483_15160)">
<path d="M38.2749 18.905L62.2743 2.22569L59.8293 31.3495L38.2749 18.905Z" fill="var(--bg)" stroke="#7895FF" stroke-width="1.5"/>
<path d="M49.052 25.1272L62.2742 2.22564" stroke="#7895FF" stroke-width="1.5"/>
<path d="M49.0521 25.1272L52.4963 31.6062L54.4407 28.2384L49.0521 25.1272Z" fill="#7895FF" stroke="#7895FF" stroke-width="1.5"/>
</g>
<g clip-path="url(#clip1_483_15160)">
<path d="M20.2749 18.905L44.2743 2.22569L41.8293 31.3495L20.2749 18.905Z" fill="var(--bg)" stroke="#7895FF" stroke-width="1.5"/>
<path d="M31.052 25.1272L44.2742 2.22564" stroke="#7895FF" stroke-width="1.5"/>
<path d="M31.0521 25.1272L34.4963 31.6062L36.4407 28.2384L31.0521 25.1272Z" fill="#7895FF" stroke="#7895FF" stroke-width="1.5"/>
</g>
<g clip-path="url(#clip2_483_15160)">
<path d="M3.2749 18.905L27.2743 2.22569L24.8293 31.3495L3.2749 18.905Z" fill="var(--bg)" stroke="#7895FF" stroke-width="1.5"/>
<path d="M14.052 25.1272L27.2742 2.22564" stroke="#7895FF" stroke-width="1.5"/>
<path d="M14.0521 25.1272L17.4963 31.6062L19.4407 28.2384L14.0521 25.1272Z" fill="#7895FF" stroke="#7895FF" stroke-width="1.5"/>
</g>
<defs>
<clipPath id="clip0_483_15160">
<rect width="35" height="33" fill="white" transform="translate(35)"/>
</clipPath>
<clipPath id="clip1_483_15160">
<rect width="35" height="33" fill="white" transform="translate(17)"/>
</clipPath>
<clipPath id="clip2_483_15160">
<rect width="35" height="33" fill="white"/>
</clipPath>
</defs>
</svg>
