<svg width="762" height="516" viewBox="0 0 762 516" fill="none" xmlns="http://www.w3.org/2000/svg">
<g clip-path="url(#clip0_410_4718)">
<path d="M41 189.85H721L761 411.85H1L41 189.85Z" fill="#F5EEEB" stroke="#080708"/>
<rect x="42" y="376.85" width="678" height="10" rx="5" fill="#080708" stroke="#080708"/>
<rect x="1" y="411.85" width="760" height="15" fill="#F5EEEB" stroke="#080708"/>
<rect x="352" y="426.85" width="50" height="90" fill="#F5EEEB" stroke="#080708"/>
<rect x="352" y="426.85" width="50" height="25" fill="#080708"/>
<ellipse cx="381" cy="283.85" rx="90" ry="30" fill="#080708"/>
<path d="M418.161 44.8032L418.161 44.8032L418.155 44.8115C413.541 50.5608 407.232 55.5821 400.483 59.1647C393.731 62.7491 386.572 64.8757 380.263 64.8757C378.998 64.8757 377.727 64.7236 376.839 64.5733C376.662 63.676 376.384 61.7694 376.384 59.8655C376.384 45.2795 383.83 30.8496 391.827 21.709L391.83 21.7052C401.91 9.9533 418.56 1.06145 432.607 0.368345C432.905 1.89449 433.047 3.73209 433.047 5.55931C433.047 19.9671 426.884 34.3986 418.161 44.8032ZM428.631 69C436.611 69 465.062 69.7316 483.957 96.5506C483.871 96.6074 483.774 96.6714 483.666 96.7425C478.956 99.8417 453.586 116.535 453.586 150.783C453.586 172.022 462.866 186.41 472.282 195.525C480.754 203.727 489.344 207.669 491.406 208.518C491.245 209.1 490.893 210.273 490.329 211.938C489.565 214.196 488.419 217.33 486.856 221.057C483.73 228.512 478.935 238.328 472.179 248.234C466.128 256.988 459.978 265.683 452.955 272.194C445.94 278.696 438.096 282.981 428.659 282.981C419.504 282.981 413.64 280.41 407.483 277.711C407.258 277.612 407.032 277.513 406.805 277.413C400.374 274.599 393.518 271.762 382.326 271.762C371.416 271.762 364.016 274.692 357.18 277.596C356.832 277.744 356.486 277.891 356.141 278.038C349.707 280.782 343.683 283.35 335.455 283.35C326.841 283.35 319.498 279.388 312.527 272.904C305.547 266.412 298.985 257.438 291.932 247.491C275.657 224.221 262.5 188.05 262.5 153.737C262.5 98.7666 298.017 69.7385 332.856 69.7385C342.089 69.7385 350.572 72.7858 358.26 75.866C359.145 76.2207 360.021 76.5762 360.886 76.9276C363.766 78.0968 366.532 79.2196 369.159 80.1126C372.577 81.2746 375.81 82.0653 378.822 82.0653C381.699 82.0653 384.944 81.2253 388.489 79.9963C390.905 79.1586 393.491 78.1284 396.218 77.0424C397.491 76.5354 398.794 76.0162 400.125 75.4987C408.517 72.2361 418.106 69 428.631 69Z" fill="#F5EEEB" stroke="#080708"/>
<ellipse cx="377" cy="451.85" rx="25" ry="10" fill="#080708"/>
</g>
<defs>
<clipPath id="clip0_410_4718">
<rect width="762" height="516" fill="white"/>
</clipPath>
</defs>
</svg>
