<svg width="88" height="37" viewBox="0 0 88 37" fill="none" xmlns="http://www.w3.org/2000/svg">
<circle cx="17.5" cy="17.5" r="17.5" transform="matrix(1 0 0.00309592 0.999995 51.2168 1)" stroke="var(--page)" stroke-width="1.5"/>
<path d="M56.179 6.30807C53.1277 9.45948 51.2563 13.7596 51.271 18.4999C51.2856 23.2402 53.1837 27.5404 56.2545 30.6918C53.0846 33.9657 48.6414 35.9998 43.7167 35.9998C34.0518 35.9998 26.1925 28.1649 26.1626 18.4999C26.1326 8.83498 33.9434 1 43.6084 1C48.533 1 52.9888 3.03415 56.179 6.30807Z" stroke="var(--page)" stroke-width="1.5"/>
<path d="M31.0706 6.30807C28.0193 9.45948 26.1479 13.7596 26.1626 18.4999C26.1772 23.2402 28.0753 27.5404 31.1461 30.6918C27.9762 33.9657 23.533 35.9998 18.6083 35.9998C8.94336 35.9998 1.08408 28.1649 1.05416 18.4999C1.02424 8.83498 8.835 1 18.5 1C23.4246 1 27.8804 3.03415 31.0706 6.30807Z" stroke="var(--page)" stroke-width="1.5"/>
</svg>
