<svg width="762" height="576" viewBox="0 0 762 576" fill="none" xmlns="http://www.w3.org/2000/svg">
<g clip-path="url(#clip0_341_10388)">
<path d="M41 190H721L761 412H1L41 190Z" fill="#7895FF" stroke="#080708" stroke-width="1.5"/>
<rect x="42" y="377" width="678" height="10" rx="5" fill="#080708" stroke="#080708" stroke-width="1.5"/>
<rect x="1" y="412" width="760" height="15" fill="#7895FF" stroke="#080708" stroke-width="1.5"/>
<rect x="352" y="427" width="50" height="150" fill="#7895FF" stroke="#080708" stroke-width="1.5"/>
<ellipse cx="381" cy="284" rx="90" ry="30" fill="#080708"/>
<path d="M417.97 44.7923L417.965 44.7984L417.96 44.8047C413.369 50.5245 407.088 55.5249 400.366 59.0936C393.639 62.6648 386.52 64.7753 380.263 64.7753C379.094 64.7753 377.917 64.6435 377.052 64.5046C376.878 63.5663 376.634 61.789 376.634 60.0152C376.634 45.5067 384.045 31.1329 392.015 22.0232L392.02 22.0176C402.01 10.3698 418.48 1.54874 432.402 0.779075C432.669 2.24152 432.797 3.9769 432.797 5.70897C432.797 20.0495 426.661 34.4257 417.97 44.7923ZM428.631 69.3997C436.574 69.3997 464.784 70.1276 483.604 96.634C483.578 96.651 483.551 96.6685 483.524 96.6865C478.844 99.763 453.336 116.53 453.336 150.933C453.336 172.253 462.655 186.703 472.108 195.855C480.345 203.829 488.695 207.793 491.106 208.813C491.064 208.96 491.014 209.131 490.955 209.325C490.76 209.975 490.474 210.881 490.092 212.008C489.33 214.26 488.186 217.389 486.626 221.11C483.504 228.553 478.717 238.354 471.973 248.242C465.92 257 459.784 265.671 452.785 272.16C445.798 278.636 438.012 282.881 428.659 282.881C419.557 282.881 413.735 280.328 407.579 277.629C407.355 277.531 407.13 277.433 406.905 277.334C400.463 274.515 393.569 271.662 382.326 271.662C371.365 271.662 363.927 274.608 357.082 277.516C356.737 277.662 356.393 277.809 356.051 277.954C349.612 280.7 343.631 283.25 335.455 283.25C326.927 283.25 319.642 279.33 312.697 272.871C305.739 266.4 299.192 257.447 292.137 247.497C275.889 224.265 262.75 188.144 262.75 153.887C262.75 99.0386 298.17 70.1381 332.856 70.1381C342.037 70.1381 350.48 73.1683 358.167 76.2477C359.049 76.6013 359.923 76.9561 360.787 77.307C363.668 78.4768 366.444 79.6034 369.078 80.499C372.506 81.6641 375.769 82.465 378.822 82.465C381.742 82.465 385.02 81.6133 388.571 80.3821C390.992 79.5426 393.588 78.5088 396.317 77.4216C397.589 76.915 398.89 76.3969 400.216 75.8813C408.603 72.6207 418.155 69.3997 428.631 69.3997Z" fill="#F5EEEB" stroke="#080708" stroke-width="1.5"/>
<path d="M402 427H352V452C352 457.523 363.193 462 377 462C390.807 462 402 457.523 402 452V427Z" fill="#080708"/>
</g>
<defs>
<clipPath id="clip0_341_10388">
<rect width="762" height="576" fill="white"/>
</clipPath>
</defs>
</svg>
