<svg width="1980" height="1890" viewBox="0 0 1980 1890" fill="none" xmlns="http://www.w3.org/2000/svg">
<g clip-path="url(#clip0_340_7127)">
<g opacity="0.15">
<path d="M-30 90L220 0L190 90" stroke="#080708"/>
<path d="M190 90L440 0L410 90" stroke="#080708"/>
<path d="M410 90L660 0L630 90" stroke="#080708"/>
<path d="M630 90L880 0L850 90" stroke="#080708"/>
<path d="M850 90L1100 0L1070 90" stroke="#080708"/>
<path d="M1070 90L1320 0L1290 90" stroke="#080708"/>
<path d="M1290 90L1540 0L1510 90" stroke="#080708"/>
<path d="M1510 90L1760 0L1730 90" stroke="#080708"/>
<path d="M1730 90L1980 0L1950 90" stroke="#080708"/>
<path d="M1950 90L2200 0L2170 90" stroke="#080708"/>
</g>
<g opacity="0.15">
<path d="M-30 330L220 240L190 330" stroke="#080708"/>
<path d="M190 330L440 240L410 330" stroke="#080708"/>
<path d="M410 330L660 240L630 330" stroke="#080708"/>
<path d="M630 330L880 240L850 330" stroke="#080708"/>
<path d="M850 330L1100 240L1070 330" stroke="#080708"/>
<path d="M1070 330L1320 240L1290 330" stroke="#080708"/>
<path d="M1290 330L1540 240L1510 330" stroke="#080708"/>
<path d="M1510 330L1760 240L1730 330" stroke="#080708"/>
<path d="M1730 330L1980 240L1950 330" stroke="#080708"/>
<path d="M1950 330L2200 240L2170 330" stroke="#080708"/>
</g>
<g opacity="0.15">
<path d="M-30 570L220 480L190 570" stroke="#080708"/>
<path d="M190 570L440 480L410 570" stroke="#080708"/>
<path d="M410 570L660 480L630 570" stroke="#080708"/>
<path d="M630 570L880 480L850 570" stroke="#080708"/>
<path d="M850 570L1100 480L1070 570" stroke="#080708"/>
<path d="M1070 570L1320 480L1290 570" stroke="#080708"/>
<path d="M1290 570L1540 480L1510 570" stroke="#080708"/>
<path d="M1510 570L1760 480L1730 570" stroke="#080708"/>
<path d="M1730 570L1980 480L1950 570" stroke="#080708"/>
<path d="M1950 570L2200 480L2170 570" stroke="#080708"/>
</g>
<g opacity="0.15">
<path d="M-30 810L220 720L190 810" stroke="#080708"/>
<path d="M190 810L440 720L410 810" stroke="#080708"/>
<path d="M410 810L660 720L630 810" stroke="#080708"/>
<path d="M630 810L880 720L850 810" stroke="#080708"/>
<path d="M850 810L1100 720L1070 810" stroke="#080708"/>
<path d="M1070 810L1320 720L1290 810" stroke="#080708"/>
<path d="M1290 810L1540 720L1510 810" stroke="#080708"/>
<path d="M1510 810L1760 720L1730 810" stroke="#080708"/>
<path d="M1730 810L1980 720L1950 810" stroke="#080708"/>
<path d="M1950 810L2200 720L2170 810" stroke="#080708"/>
</g>
<g opacity="0.15">
<path d="M-30 1050L220 960L190 1050" stroke="#080708"/>
<path d="M190 1050L440 960L410 1050" stroke="#080708"/>
<path d="M410 1050L660 960L630 1050" stroke="#080708"/>
<path d="M630 1050L880 960L850 1050" stroke="#080708"/>
<path d="M850 1050L1100 960L1070 1050" stroke="#080708"/>
<path d="M1070 1050L1320 960L1290 1050" stroke="#080708"/>
<path d="M1290 1050L1540 960L1510 1050" stroke="#080708"/>
<path d="M1510 1050L1760 960L1730 1050" stroke="#080708"/>
<path d="M1730 1050L1980 960L1950 1050" stroke="#080708"/>
<path d="M1950 1050L2200 960L2170 1050" stroke="#080708"/>
</g>
<g opacity="0.15">
<path d="M-30 1290L220 1200L190 1290" stroke="#080708"/>
<path d="M190 1290L440 1200L410 1290" stroke="#080708"/>
<path d="M410 1290L660 1200L630 1290" stroke="#080708"/>
<path d="M630 1290L880 1200L850 1290" stroke="#080708"/>
<path d="M850 1290L1100 1200L1070 1290" stroke="#080708"/>
<path d="M1070 1290L1320 1200L1290 1290" stroke="#080708"/>
<path d="M1290 1290L1540 1200L1510 1290" stroke="#080708"/>
<path d="M1510 1290L1760 1200L1730 1290" stroke="#080708"/>
<path d="M1730 1290L1980 1200L1950 1290" stroke="#080708"/>
<path d="M1950 1290L2200 1200L2170 1290" stroke="#080708"/>
</g>
<g opacity="0.15">
<path d="M-30 1530L220 1440L190 1530" stroke="#080708"/>
<path d="M190 1530L440 1440L410 1530" stroke="#080708"/>
<path d="M410 1530L660 1440L630 1530" stroke="#080708"/>
<path d="M630 1530L880 1440L850 1530" stroke="#080708"/>
<path d="M850 1530L1100 1440L1070 1530" stroke="#080708"/>
<path d="M1070 1530L1320 1440L1290 1530" stroke="#080708"/>
<path d="M1290 1530L1540 1440L1510 1530" stroke="#080708"/>
<path d="M1510 1530L1760 1440L1730 1530" stroke="#080708"/>
<path d="M1730 1530L1980 1440L1950 1530" stroke="#080708"/>
<path d="M1950 1530L2200 1440L2170 1530" stroke="#080708"/>
</g>
<g opacity="0.15">
<path d="M-30 1770L220 1680L190 1770" stroke="#080708"/>
<path d="M190 1770L440 1680L410 1770" stroke="#080708"/>
<path d="M410 1770L660 1680L630 1770" stroke="#080708"/>
<path d="M630 1770L880 1680L850 1770" stroke="#080708"/>
<path d="M850 1770L1100 1680L1070 1770" stroke="#080708"/>
<path d="M1070 1770L1320 1680L1290 1770" stroke="#080708"/>
<path d="M1290 1770L1540 1680L1510 1770" stroke="#080708"/>
<path d="M1510 1770L1760 1680L1730 1770" stroke="#080708"/>
<path d="M1730 1770L1980 1680L1950 1770" stroke="#080708"/>
<path d="M1950 1770L2200 1680L2170 1770" stroke="#080708"/>
</g>
<g opacity="0.15">
<path d="M-125 210L125 120L95 210" stroke="#080708"/>
<path d="M95 210L345 120L315 210" stroke="#080708"/>
<path d="M315 210L565 120L535 210" stroke="#080708"/>
<path d="M535 210L785 120L755 210" stroke="#080708"/>
<path d="M755 210L1005 120L975 210" stroke="#080708"/>
<path d="M975 210L1225 120L1195 210" stroke="#080708"/>
<path d="M1195 210L1445 120L1415 210" stroke="#080708"/>
<path d="M1415 210L1665 120L1635 210" stroke="#080708"/>
<path d="M1635 210L1885 120L1855 210" stroke="#080708"/>
<path d="M1855 210L2105 120L2075 210" stroke="#080708"/>
</g>
<g opacity="0.15">
<path d="M-125 450L125 360L95 450" stroke="#080708"/>
<path d="M95 450L345 360L315 450" stroke="#080708"/>
<path d="M315 450L565 360L535 450" stroke="#080708"/>
<path d="M535 450L785 360L755 450" stroke="#080708"/>
<path d="M755 450L1005 360L975 450" stroke="#080708"/>
<path d="M975 450L1225 360L1195 450" stroke="#080708"/>
<path d="M1195 450L1445 360L1415 450" stroke="#080708"/>
<path d="M1415 450L1665 360L1635 450" stroke="#080708"/>
<path d="M1635 450L1885 360L1855 450" stroke="#080708"/>
<path d="M1855 450L2105 360L2075 450" stroke="#080708"/>
</g>
<g opacity="0.15">
<path d="M-125 690L125 600L95 690" stroke="#080708"/>
<path d="M95 690L345 600L315 690" stroke="#080708"/>
<path d="M315 690L565 600L535 690" stroke="#080708"/>
<path d="M535 690L785 600L755 690" stroke="#080708"/>
<path d="M755 690L1005 600L975 690" stroke="#080708"/>
<path d="M975 690L1225 600L1195 690" stroke="#080708"/>
<path d="M1195 690L1445 600L1415 690" stroke="#080708"/>
<path d="M1415 690L1665 600L1635 690" stroke="#080708"/>
<path d="M1635 690L1885 600L1855 690" stroke="#080708"/>
<path d="M1855 690L2105 600L2075 690" stroke="#080708"/>
</g>
<g opacity="0.15">
<path d="M-125 930L125 840L95 930" stroke="#080708"/>
<path d="M95 930L345 840L315 930" stroke="#080708"/>
<path d="M315 930L565 840L535 930" stroke="#080708"/>
<path d="M535 930L785 840L755 930" stroke="#080708"/>
<path d="M755 930L1005 840L975 930" stroke="#080708"/>
<path d="M975 930L1225 840L1195 930" stroke="#080708"/>
<path d="M1195 930L1445 840L1415 930" stroke="#080708"/>
<path d="M1415 930L1665 840L1635 930" stroke="#080708"/>
<path d="M1635 930L1885 840L1855 930" stroke="#080708"/>
<path d="M1855 930L2105 840L2075 930" stroke="#080708"/>
</g>
<g opacity="0.15">
<path d="M-125 1170L125 1080L95 1170" stroke="#080708"/>
<path d="M95 1170L345 1080L315 1170" stroke="#080708"/>
<path d="M315 1170L565 1080L535 1170" stroke="#080708"/>
<path d="M535 1170L785 1080L755 1170" stroke="#080708"/>
<path d="M755 1170L1005 1080L975 1170" stroke="#080708"/>
<path d="M975 1170L1225 1080L1195 1170" stroke="#080708"/>
<path d="M1195 1170L1445 1080L1415 1170" stroke="#080708"/>
<path d="M1415 1170L1665 1080L1635 1170" stroke="#080708"/>
<path d="M1635 1170L1885 1080L1855 1170" stroke="#080708"/>
<path d="M1855 1170L2105 1080L2075 1170" stroke="#080708"/>
</g>
<g opacity="0.15">
<path d="M-125 1410L125 1320L95 1410" stroke="#080708"/>
<path d="M95 1410L345 1320L315 1410" stroke="#080708"/>
<path d="M315 1410L565 1320L535 1410" stroke="#080708"/>
<path d="M535 1410L785 1320L755 1410" stroke="#080708"/>
<path d="M755 1410L1005 1320L975 1410" stroke="#080708"/>
<path d="M975 1410L1225 1320L1195 1410" stroke="#080708"/>
<path d="M1195 1410L1445 1320L1415 1410" stroke="#080708"/>
<path d="M1415 1410L1665 1320L1635 1410" stroke="#080708"/>
<path d="M1635 1410L1885 1320L1855 1410" stroke="#080708"/>
<path d="M1855 1410L2105 1320L2075 1410" stroke="#080708"/>
</g>
<g opacity="0.15">
<path d="M-125 1650L125 1560L95 1650" stroke="#080708"/>
<path d="M95 1650L345 1560L315 1650" stroke="#080708"/>
<path d="M315 1650L565 1560L535 1650" stroke="#080708"/>
<path d="M535 1650L785 1560L755 1650" stroke="#080708"/>
<path d="M755 1650L1005 1560L975 1650" stroke="#080708"/>
<path d="M975 1650L1225 1560L1195 1650" stroke="#080708"/>
<path d="M1195 1650L1445 1560L1415 1650" stroke="#080708"/>
<path d="M1415 1650L1665 1560L1635 1650" stroke="#080708"/>
<path d="M1635 1650L1885 1560L1855 1650" stroke="#080708"/>
<path d="M1855 1650L2105 1560L2075 1650" stroke="#080708"/>
</g>
<g opacity="0.15">
<path d="M-125 1890L125 1800L95 1890" stroke="#080708"/>
<path d="M95 1890L345 1800L315 1890" stroke="#080708"/>
<path d="M315 1890L565 1800L535 1890" stroke="#080708"/>
<path d="M535 1890L785 1800L755 1890" stroke="#080708"/>
<path d="M755 1890L1005 1800L975 1890" stroke="#080708"/>
<path d="M975 1890L1225 1800L1195 1890" stroke="#080708"/>
<path d="M1195 1890L1445 1800L1415 1890" stroke="#080708"/>
<path d="M1415 1890L1665 1800L1635 1890" stroke="#080708"/>
<path d="M1635 1890L1885 1800L1855 1890" stroke="#080708"/>
<path d="M1855 1890L2105 1800L2075 1890" stroke="#080708"/>
</g>
</g>
<defs>
<clipPath id="clip0_340_7127">
<rect width="1980" height="1890" fill="white"/>
</clipPath>
</defs>
</svg>
