<svg width="882" height="345" viewBox="0 0 882 345" fill="none" xmlns="http://www.w3.org/2000/svg">
<g clip-path="url(#clip0_484_3592)">
<rect x="489" y="1" width="392" height="293" rx="8" fill="#F5EEEB" stroke="#080708"/>
<rect x="509" y="21" width="352" height="243" fill="#F5EEEB" stroke="#080708"/>
<rect x="651" y="294" width="68" height="41" fill="#F5EEEB" stroke="#080708"/>
<rect x="577" y="335" width="216" height="10" fill="#F5EEEB" stroke="#080708"/>
<rect x="651" y="294" width="68" height="8" fill="#080708"/>
<rect x="1" y="1" width="232" height="293" fill="#F5EEEB" stroke="#080708"/>
<rect x="11" y="11" width="212" height="193" fill="#F5EEEB" stroke="#080708"/>
<path d="M62 133H271L266 138H62V133Z" fill="#F5EEEB"/>
<path d="M11.0771 29.5L51.8824 138H266L271 133" stroke="#080708"/>
<path d="M225.118 11H11L56.8824 133H271L225.118 11Z" fill="#F5EEEB" stroke="#080708" stroke-linejoin="bevel"/>
<rect x="11" y="214" width="212" height="70" fill="#F5EEEB" stroke="#080708"/>
<path d="M53 138L58 133" stroke="#080708"/>
<path d="M642 185.214C595.556 254.312 496.995 301 375.381 301C285.537 301 183.851 236.057 148 146" stroke="#080708" stroke-linecap="square"/>
<path d="M97 203C97 200.791 98.7909 199 101 199H133C135.209 199 137 200.791 137 203V204H97V203Z" fill="#F5EEEB" stroke="#080708"/>
<path d="M123 204L111 204L111 200C111 196.686 113.686 194 117 194V194C120.314 194 123 196.686 123 200L123 204Z" fill="#F5EEEB" stroke="#080708"/>
<rect x="5" y="294" width="224" height="5" fill="#080708"/>
<path d="M613.84 124.56L734.048 81.2853L690.773 201.493L613.84 124.56Z" fill="#F5EEEB" stroke="#080708"/>
<path d="M652.306 163.027L734.048 81.2853" stroke="#080708"/>
<path d="M652.306 163.027L659.519 194.281L671.539 182.26L652.306 163.027Z" fill="#080708" stroke="#080708"/>
<rect x="793.8" y="190.5" width="35" height="50.4" transform="rotate(-90 793.8 190.5)" fill="#F5EEEB" stroke="#080708"/>
<path d="M793.8 190.5L819 165.3L844.2 190.5L793.8 190.5Z" fill="#F5EEEB" stroke="#080708" stroke-linejoin="bevel"/>
<path d="M793.8 155.5L819 180.7L844.2 155.5L793.8 155.5Z" fill="#F5EEEB" stroke="#080708" stroke-linejoin="bevel"/>
<rect x="793.8" y="140.5" width="35" height="50.4" transform="rotate(-90 793.8 140.5)" fill="#F5EEEB" stroke="#080708"/>
<path d="M793.8 140.5L819 115.3L844.2 140.5L793.8 140.5Z" fill="#F5EEEB" stroke="#080708" stroke-linejoin="bevel"/>
<path d="M793.8 105.5L819 130.7L844.2 105.5L793.8 105.5Z" fill="#F5EEEB" stroke="#080708" stroke-linejoin="bevel"/>
<rect x="793.8" y="247.5" width="35" height="50.4" transform="rotate(-90 793.8 247.5)" fill="#080708" stroke="#080708"/>
<rect x="802.2" y="239.1" width="33.6" height="33.6" transform="rotate(-90 802.2 239.1)" fill="#F5EEEB" stroke="#080708"/>
<path d="M811.3 230L793.8 247.5L793.8 212.5L811.3 230Z" fill="#F5EEEB" stroke="#080708" stroke-linejoin="bevel"/>
<path d="M826.7 230L844.2 247.5L844.2 212.5L826.7 230Z" fill="#F5EEEB" stroke="#080708" stroke-linejoin="bevel"/>
<path d="M811.3 230L793.8 247.5L844.2 247.5L826.7 230L811.3 230Z" fill="#F5EEEB" stroke="#080708" stroke-linejoin="bevel"/>
</g>
<defs>
<clipPath id="clip0_484_3592">
<rect width="882" height="345" fill="white"/>
</clipPath>
</defs>
</svg>
