<svg width="2001" height="1805" viewBox="0 0 2001 1805" fill="none" xmlns="http://www.w3.org/2000/svg">
<path fill-rule="evenodd" clip-rule="evenodd" d="M250.58 0.206482L250.29 0L250 0.206482L125.29 89L0.580005 0.206482L0 1.02109L125 90.0211L125.29 90.2276L125.58 90.0211L250.29 1.22758L375 90.0211L375.29 90.2276L375.58 90.0211L500.29 1.22757L625 90.0211L625.29 90.2276L625.58 90.0211L750.29 1.22758L875 90.0211L875.29 90.2276L875.58 90.0211L1000.29 1.22756L1125 90.0211L1125.29 90.2276L1125.58 90.0211L1250.29 1.22758L1375 90.0211L1375.29 90.2276L1375.58 90.0211L1500.29 1.22757L1625 90.0211L1625.29 90.2276L1625.58 90.0211L1750.29 1.22758L1875 90.0211L1875.29 90.2276L1875.58 90.0211L2000.58 1.02109L2000 0.206482L1875.29 89L1750.58 0.206482L1750.29 0L1750 0.206482L1625.29 89L1500.58 0.206482L1500.29 0L1500 0.206482L1375.29 89L1250.58 0.206482L1250.29 0L1250 0.206482L1125.29 89L1000.58 0.206482L1000.29 0.61381L1000 0.206482L875.29 89L750.58 0.206482L750.29 0L750 0.206482L625.29 89L500.58 0.206482L500.29 0L500 0.206482L375.29 89L250.58 0.206482Z" fill="#080708"/>
<path fill-rule="evenodd" clip-rule="evenodd" d="M250.58 90.434L250.29 90.2275L250 90.434L125.29 179.228L0.580005 90.434L0 91.2486L125 180.249L125.29 180.455L125.58 180.249L250.29 91.4551L375 180.249L375.29 180.455L375.58 180.249L500.29 91.4551L625 180.249L625.29 180.455L625.58 180.249L750.29 91.4551L875 180.249L875.29 180.455L875.58 180.249L1000.29 91.4551L1125 180.249L1125.29 180.455L1125.58 180.249L1250.29 91.4551L1375 180.249L1375.29 180.455L1375.58 180.249L1500.29 91.4551L1625 180.249L1625.29 180.455L1625.58 180.249L1750.29 91.4551L1875 180.249L1875.29 180.455L1875.58 180.249L2000.58 91.2486L2000 90.434L1875.29 179.228L1750.58 90.434L1750.29 90.2275L1750 90.434L1625.29 179.228L1500.58 90.434L1500.29 90.2275L1500 90.434L1375.29 179.228L1250.58 90.434L1250.29 90.2275L1250 90.434L1125.29 179.228L1000.58 90.434L1000.29 90.8413L1000 90.434L875.29 179.228L750.58 90.434L750.29 90.2275L750 90.434L625.29 179.228L500.58 90.434L500.29 90.2275L500 90.434L375.29 179.228L250.58 90.434Z" fill="#080708"/>
<path fill-rule="evenodd" clip-rule="evenodd" d="M250.58 180.662L250.29 180.455L250 180.662L125.29 269.455L0.580005 180.662L0 181.476L125 270.476L125.29 270.683L125.58 270.476L250.29 181.683L375 270.476L375.29 270.683L375.58 270.476L500.29 181.683L625 270.476L625.29 270.683L625.58 270.476L750.29 181.683L875 270.476L875.29 270.683L875.58 270.476L1000.29 181.683L1125 270.476L1125.29 270.683L1125.58 270.476L1250.29 181.683L1375 270.476L1375.29 270.683L1375.58 270.476L1500.29 181.683L1625 270.476L1625.29 270.683L1625.58 270.476L1750.29 181.683L1875 270.476L1875.29 270.683L1875.58 270.476L2000.58 181.476L2000 180.662L1875.29 269.455L1750.58 180.662L1750.29 180.455L1750 180.662L1625.29 269.455L1500.58 180.662L1500.29 180.455L1500 180.662L1375.29 269.455L1250.58 180.662L1250.29 180.455L1250 180.662L1125.29 269.455L1000.58 180.662L1000.29 181.069L1000 180.662L875.29 269.455L750.58 180.662L750.29 180.455L750 180.662L625.29 269.455L500.58 180.662L500.29 180.455L500 180.662L375.29 269.455L250.58 180.662Z" fill="#080708"/>
<path fill-rule="evenodd" clip-rule="evenodd" d="M250.58 270.889L250.29 270.683L250 270.889L125.29 359.683L0.580005 270.889L0 271.704L125 360.704L125.29 360.91L125.58 360.704L250.29 271.91L375 360.704L375.29 360.91L375.58 360.704L500.29 271.91L625 360.704L625.29 360.91L625.58 360.704L750.29 271.91L875 360.704L875.29 360.91L875.58 360.704L1000.29 271.91L1125 360.704L1125.29 360.91L1125.58 360.704L1250.29 271.91L1375 360.704L1375.29 360.91L1375.58 360.704L1500.29 271.91L1625 360.704L1625.29 360.91L1625.58 360.704L1750.29 271.91L1875 360.704L1875.29 360.91L1875.58 360.704L2000.58 271.704L2000 270.889L1875.29 359.683L1750.58 270.889L1750.29 270.683L1750 270.889L1625.29 359.683L1500.58 270.889L1500.29 270.683L1500 270.889L1375.29 359.683L1250.58 270.889L1250.29 270.683L1250 270.889L1125.29 359.683L1000.58 270.889L1000.29 271.296L1000 270.889L875.29 359.683L750.58 270.889L750.29 270.683L750 270.889L625.29 359.683L500.58 270.889L500.29 270.683L500 270.889L375.29 359.683L250.58 270.889Z" fill="#080708"/>
<path fill-rule="evenodd" clip-rule="evenodd" d="M250.58 361.117L250.29 360.91L250 361.117L125.29 449.91L0.580005 361.117L0 361.931L125 450.931L125.29 451.138L125.58 450.931L250.29 362.138L375 450.931L375.29 451.138L375.58 450.931L500.29 362.138L625 450.931L625.29 451.138L625.58 450.931L750.29 362.138L875 450.931L875.29 451.138L875.58 450.931L1000.29 362.138L1125 450.931L1125.29 451.138L1125.58 450.931L1250.29 362.138L1375 450.931L1375.29 451.138L1375.58 450.931L1500.29 362.138L1625 450.931L1625.29 451.138L1625.58 450.931L1750.29 362.138L1875 450.931L1875.29 451.138L1875.58 450.931L2000.58 361.931L2000 361.117L1875.29 449.91L1750.58 361.117L1750.29 360.91L1750 361.117L1625.29 449.91L1500.58 361.117L1500.29 360.91L1500 361.117L1375.29 449.91L1250.58 361.117L1250.29 360.91L1250 361.117L1125.29 449.91L1000.58 361.117L1000.29 361.524L1000 361.117L875.29 449.91L750.58 361.117L750.29 360.91L750 361.117L625.29 449.91L500.58 361.117L500.29 360.91L500 361.117L375.29 449.91L250.58 361.117Z" fill="#080708"/>
<path fill-rule="evenodd" clip-rule="evenodd" d="M250.58 451.344L250.29 451.138L250 451.344L125.29 540.138L0.580005 451.344L0 452.159L125 541.159L125.29 541.365L125.58 541.159L250.29 452.365L375 541.159L375.29 541.365L375.58 541.159L500.29 452.365L625 541.159L625.29 541.365L625.58 541.159L750.29 452.365L875 541.159L875.29 541.365L875.58 541.159L1000.29 452.365L1125 541.159L1125.29 541.365L1125.58 541.159L1250.29 452.365L1375 541.159L1375.29 541.365L1375.58 541.159L1500.29 452.365L1625 541.159L1625.29 541.365L1625.58 541.159L1750.29 452.365L1875 541.159L1875.29 541.365L1875.58 541.159L2000.58 452.159L2000 451.344L1875.29 540.138L1750.58 451.344L1750.29 451.138L1750 451.344L1625.29 540.138L1500.58 451.344L1500.29 451.138L1500 451.344L1375.29 540.138L1250.58 451.344L1250.29 451.138L1250 451.344L1125.29 540.138L1000.58 451.344L1000.29 451.752L1000 451.344L875.29 540.138L750.58 451.344L750.29 451.138L750 451.344L625.29 540.138L500.58 451.344L500.29 451.138L500 451.344L375.29 540.138L250.58 451.344Z" fill="#080708"/>
<path fill-rule="evenodd" clip-rule="evenodd" d="M250.58 541.572L250.29 541.365L250 541.572L125.29 630.365L0.580005 541.572L0 542.386L125 631.386L125.29 631.593L125.58 631.386L250.29 542.593L375 631.386L375.29 631.593L375.58 631.386L500.29 542.593L625 631.386L625.29 631.593L625.58 631.386L750.29 542.593L875 631.386L875.29 631.593L875.58 631.386L1000.29 542.593L1125 631.386L1125.29 631.593L1125.58 631.386L1250.29 542.593L1375 631.386L1375.29 631.593L1375.58 631.386L1500.29 542.593L1625 631.386L1625.29 631.593L1625.58 631.386L1750.29 542.593L1875 631.386L1875.29 631.593L1875.58 631.386L2000.58 542.386L2000 541.572L1875.29 630.365L1750.58 541.572L1750.29 541.365L1750 541.572L1625.29 630.365L1500.58 541.572L1500.29 541.365L1500 541.572L1375.29 630.365L1250.58 541.572L1250.29 541.365L1250 541.572L1125.29 630.365L1000.58 541.572L1000.29 541.979L1000 541.572L875.29 630.365L750.58 541.572L750.29 541.365L750 541.572L625.29 630.365L500.58 541.572L500.29 541.365L500 541.572L375.29 630.365L250.58 541.572Z" fill="#080708"/>
<path fill-rule="evenodd" clip-rule="evenodd" d="M250.58 631.799L250.29 631.593L250 631.799L125.29 720.593L0.580005 631.799L0 632.614L125 721.614L125.29 721.82L125.58 721.614L250.29 632.82L375 721.614L375.29 721.82L375.58 721.614L500.29 632.82L625 721.614L625.29 721.82L625.58 721.614L750.29 632.82L875 721.614L875.29 721.82L875.58 721.614L1000.29 632.82L1125 721.614L1125.29 721.82L1125.58 721.614L1250.29 632.82L1375 721.614L1375.29 721.82L1375.58 721.614L1500.29 632.82L1625 721.614L1625.29 721.82L1625.58 721.614L1750.29 632.82L1875 721.614L1875.29 721.82L1875.58 721.614L2000.58 632.614L2000 631.799L1875.29 720.593L1750.58 631.799L1750.29 631.593L1750 631.799L1625.29 720.593L1500.58 631.799L1500.29 631.593L1500 631.799L1375.29 720.593L1250.58 631.799L1250.29 631.593L1250 631.799L1125.29 720.593L1000.58 631.799L1000.29 632.207L1000 631.799L875.29 720.593L750.58 631.799L750.29 631.593L750 631.799L625.29 720.593L500.58 631.799L500.29 631.593L500 631.799L375.29 720.593L250.58 631.799Z" fill="#080708"/>
<path fill-rule="evenodd" clip-rule="evenodd" d="M250.58 722.027L250.29 721.82L250 722.027L125.29 810.82L0.580005 722.027L0 722.841L125 811.841L125.29 812.048L125.58 811.841L250.29 723.048L375 811.841L375.29 812.048L375.58 811.841L500.29 723.048L625 811.841L625.29 812.048L625.58 811.841L750.29 723.048L875 811.841L875.29 812.048L875.58 811.841L1000.29 723.048L1125 811.841L1125.29 812.048L1125.58 811.841L1250.29 723.048L1375 811.841L1375.29 812.048L1375.58 811.841L1500.29 723.048L1625 811.841L1625.29 812.048L1625.58 811.841L1750.29 723.048L1875 811.841L1875.29 812.048L1875.58 811.841L2000.58 722.841L2000 722.027L1875.29 810.82L1750.58 722.027L1750.29 721.82L1750 722.027L1625.29 810.82L1500.58 722.027L1500.29 721.82L1500 722.027L1375.29 810.82L1250.58 722.027L1250.29 721.82L1250 722.027L1125.29 810.82L1000.58 722.027L1000.29 722.434L1000 722.027L875.29 810.82L750.58 722.027L750.29 721.82L750 722.027L625.29 810.82L500.58 722.027L500.29 721.82L500 722.027L375.29 810.82L250.58 722.027Z" fill="#080708"/>
<path fill-rule="evenodd" clip-rule="evenodd" d="M250.58 812.254L250.29 812.048L250 812.254L125.29 901.048L0.580005 812.254L0 813.069L125 902.069L125.29 902.275L125.58 902.069L250.29 813.275L375 902.069L375.29 902.275L375.58 902.069L500.29 813.275L625 902.069L625.29 902.275L625.58 902.069L750.29 813.275L875 902.069L875.29 902.275L875.58 902.069L1000.29 813.275L1125 902.069L1125.29 902.275L1125.58 902.069L1250.29 813.275L1375 902.069L1375.29 902.275L1375.58 902.069L1500.29 813.275L1625 902.069L1625.29 902.275L1625.58 902.069L1750.29 813.275L1875 902.069L1875.29 902.275L1875.58 902.069L2000.58 813.069L2000 812.254L1875.29 901.048L1750.58 812.254L1750.29 812.048L1750 812.254L1625.29 901.048L1500.58 812.254L1500.29 812.048L1500 812.254L1375.29 901.048L1250.58 812.254L1250.29 812.048L1250 812.254L1125.29 901.048L1000.58 812.254L1000.29 812.662L1000 812.254L875.29 901.048L750.58 812.254L750.29 812.048L750 812.254L625.29 901.048L500.58 812.254L500.29 812.048L500 812.254L375.29 901.048L250.58 812.254Z" fill="#080708"/>
<path fill-rule="evenodd" clip-rule="evenodd" d="M250.58 902.482L250.29 902.275L250 902.482L125.29 991.275L0.580005 902.482L0 903.296L125 992.296L125.29 992.503L125.58 992.296L250.29 903.503L375 992.296L375.29 992.503L375.58 992.296L500.29 903.503L625 992.296L625.29 992.503L625.58 992.296L750.29 903.503L875 992.296L875.29 992.503L875.58 992.296L1000.29 903.503L1125 992.296L1125.29 992.503L1125.58 992.296L1250.29 903.503L1375 992.296L1375.29 992.503L1375.58 992.296L1500.29 903.503L1625 992.296L1625.29 992.503L1625.58 992.296L1750.29 903.503L1875 992.296L1875.29 992.503L1875.58 992.296L2000.58 903.296L2000 902.482L1875.29 991.275L1750.58 902.482L1750.29 902.275L1750 902.482L1625.29 991.275L1500.58 902.482L1500.29 902.275L1500 902.482L1375.29 991.275L1250.58 902.482L1250.29 902.275L1250 902.482L1125.29 991.275L1000.58 902.482L1000.29 902.889L1000 902.482L875.29 991.275L750.58 902.482L750.29 902.275L750 902.482L625.29 991.275L500.58 902.482L500.29 902.275L500 902.482L375.29 991.275L250.58 902.482Z" fill="#080708"/>
<path fill-rule="evenodd" clip-rule="evenodd" d="M250.58 992.709L250.29 992.503L250 992.709L125.29 1081.5L0.580005 992.709L0 993.524L125 1082.52L125.29 1082.73L125.58 1082.52L250.29 993.731L375 1082.52L375.29 1082.73L375.58 1082.52L500.29 993.73L625 1082.52L625.29 1082.73L625.58 1082.52L750.29 993.731L875 1082.52L875.29 1082.73L875.58 1082.52L1000.29 993.73L1125 1082.52L1125.29 1082.73L1125.58 1082.52L1250.29 993.731L1375 1082.52L1375.29 1082.73L1375.58 1082.52L1500.29 993.73L1625 1082.52L1625.29 1082.73L1625.58 1082.52L1750.29 993.731L1875 1082.52L1875.29 1082.73L1875.58 1082.52L2000.58 993.524L2000 992.709L1875.29 1081.5L1750.58 992.709L1750.29 992.503L1750 992.709L1625.29 1081.5L1500.58 992.709L1500.29 992.503L1500 992.709L1375.29 1081.5L1250.58 992.709L1250.29 992.503L1250 992.709L1125.29 1081.5L1000.58 992.709L1000.29 993.117L1000 992.709L875.29 1081.5L750.58 992.709L750.29 992.503L750 992.709L625.29 1081.5L500.58 992.709L500.29 992.503L500 992.709L375.29 1081.5L250.58 992.709Z" fill="#080708"/>
<path fill-rule="evenodd" clip-rule="evenodd" d="M250.58 1082.94L250.29 1082.73L250 1082.94L125.29 1171.73L0.580005 1082.94L0 1083.75L125 1172.75L125.29 1172.96L125.58 1172.75L250.29 1083.96L375 1172.75L375.29 1172.96L375.58 1172.75L500.29 1083.96L625 1172.75L625.29 1172.96L625.58 1172.75L750.29 1083.96L875 1172.75L875.29 1172.96L875.58 1172.75L1000.29 1083.96L1125 1172.75L1125.29 1172.96L1125.58 1172.75L1250.29 1083.96L1375 1172.75L1375.29 1172.96L1375.58 1172.75L1500.29 1083.96L1625 1172.75L1625.29 1172.96L1625.58 1172.75L1750.29 1083.96L1875 1172.75L1875.29 1172.96L1875.58 1172.75L2000.58 1083.75L2000 1082.94L1875.29 1171.73L1750.58 1082.94L1750.29 1082.73L1750 1082.94L1625.29 1171.73L1500.58 1082.94L1500.29 1082.73L1500 1082.94L1375.29 1171.73L1250.58 1082.94L1250.29 1082.73L1250 1082.94L1125.29 1171.73L1000.58 1082.94L1000.29 1083.34L1000 1082.94L875.29 1171.73L750.58 1082.94L750.29 1082.73L750 1082.94L625.29 1171.73L500.58 1082.94L500.29 1082.73L500 1082.94L375.29 1171.73L250.58 1082.94Z" fill="#080708"/>
<path fill-rule="evenodd" clip-rule="evenodd" d="M250.58 1173.16L250.29 1172.96L250 1173.16L125.29 1261.96L0.580005 1173.16L0 1173.98L125 1262.98L125.29 1263.19L125.58 1262.98L250.29 1174.19L375 1262.98L375.29 1263.19L375.58 1262.98L500.29 1174.19L625 1262.98L625.29 1263.19L625.58 1262.98L750.29 1174.19L875 1262.98L875.29 1263.19L875.58 1262.98L1000.29 1174.19L1125 1262.98L1125.29 1263.19L1125.58 1262.98L1250.29 1174.19L1375 1262.98L1375.29 1263.19L1375.58 1262.98L1500.29 1174.19L1625 1262.98L1625.29 1263.19L1625.58 1262.98L1750.29 1174.19L1875 1262.98L1875.29 1263.19L1875.58 1262.98L2000.58 1173.98L2000 1173.16L1875.29 1261.96L1750.58 1173.16L1750.29 1172.96L1750 1173.16L1625.29 1261.96L1500.58 1173.16L1500.29 1172.96L1500 1173.16L1375.29 1261.96L1250.58 1173.16L1250.29 1172.96L1250 1173.16L1125.29 1261.96L1000.58 1173.16L1000.29 1173.57L1000 1173.16L875.29 1261.96L750.58 1173.16L750.29 1172.96L750 1173.16L625.29 1261.96L500.58 1173.16L500.29 1172.96L500 1173.16L375.29 1261.96L250.58 1173.16Z" fill="#080708"/>
<path fill-rule="evenodd" clip-rule="evenodd" d="M250.58 1263.39L250.29 1263.19L250 1263.39L125.29 1352.19L0.580005 1263.39L0 1264.21L125 1353.21L125.29 1353.41L125.58 1353.21L250.29 1264.41L375 1353.21L375.29 1353.41L375.58 1353.21L500.29 1264.41L625 1353.21L625.29 1353.41L625.58 1353.21L750.29 1264.41L875 1353.21L875.29 1353.41L875.58 1353.21L1000.29 1264.41L1125 1353.21L1125.29 1353.41L1125.58 1353.21L1250.29 1264.41L1375 1353.21L1375.29 1353.41L1375.58 1353.21L1500.29 1264.41L1625 1353.21L1625.29 1353.41L1625.58 1353.21L1750.29 1264.41L1875 1353.21L1875.29 1353.41L1875.58 1353.21L2000.58 1264.21L2000 1263.39L1875.29 1352.19L1750.58 1263.39L1750.29 1263.19L1750 1263.39L1625.29 1352.19L1500.58 1263.39L1500.29 1263.19L1500 1263.39L1375.29 1352.19L1250.58 1263.39L1250.29 1263.19L1250 1263.39L1125.29 1352.19L1000.58 1263.39L1000.29 1263.8L1000 1263.39L875.29 1352.19L750.58 1263.39L750.29 1263.19L750 1263.39L625.29 1352.19L500.58 1263.39L500.29 1263.19L500 1263.39L375.29 1352.19L250.58 1263.39Z" fill="#080708"/>
<path fill-rule="evenodd" clip-rule="evenodd" d="M250.58 1353.62L250.29 1353.41L250 1353.62L125.29 1442.41L0.580005 1353.62L0 1354.43L125 1443.43L125.29 1443.64L125.58 1443.43L250.29 1354.64L375 1443.43L375.29 1443.64L375.58 1443.43L500.29 1354.64L625 1443.43L625.29 1443.64L625.58 1443.43L750.29 1354.64L875 1443.43L875.29 1443.64L875.58 1443.43L1000.29 1354.64L1125 1443.43L1125.29 1443.64L1125.58 1443.43L1250.29 1354.64L1375 1443.43L1375.29 1443.64L1375.58 1443.43L1500.29 1354.64L1625 1443.43L1625.29 1443.64L1625.58 1443.43L1750.29 1354.64L1875 1443.43L1875.29 1443.64L1875.58 1443.43L2000.58 1354.43L2000 1353.62L1875.29 1442.41L1750.58 1353.62L1750.29 1353.41L1750 1353.62L1625.29 1442.41L1500.58 1353.62L1500.29 1353.41L1500 1353.62L1375.29 1442.41L1250.58 1353.62L1250.29 1353.41L1250 1353.62L1125.29 1442.41L1000.58 1353.62L1000.29 1354.03L1000 1353.62L875.29 1442.41L750.58 1353.62L750.29 1353.41L750 1353.62L625.29 1442.41L500.58 1353.62L500.29 1353.41L500 1353.62L375.29 1442.41L250.58 1353.62Z" fill="#080708"/>
<path fill-rule="evenodd" clip-rule="evenodd" d="M250.58 1443.85L250.29 1443.64L250 1443.85L125.29 1532.64L0.580005 1443.85L0 1444.66L125 1533.66L125.29 1533.87L125.58 1533.66L250.29 1444.87L375 1533.66L375.29 1533.87L375.58 1533.66L500.29 1444.87L625 1533.66L625.29 1533.87L625.58 1533.66L750.29 1444.87L875 1533.66L875.29 1533.87L875.58 1533.66L1000.29 1444.87L1125 1533.66L1125.29 1533.87L1125.58 1533.66L1250.29 1444.87L1375 1533.66L1375.29 1533.87L1375.58 1533.66L1500.29 1444.87L1625 1533.66L1625.29 1533.87L1625.58 1533.66L1750.29 1444.87L1875 1533.66L1875.29 1533.87L1875.58 1533.66L2000.58 1444.66L2000 1443.85L1875.29 1532.64L1750.58 1443.85L1750.29 1443.64L1750 1443.85L1625.29 1532.64L1500.58 1443.85L1500.29 1443.64L1500 1443.85L1375.29 1532.64L1250.58 1443.85L1250.29 1443.64L1250 1443.85L1125.29 1532.64L1000.58 1443.85L1000.29 1444.25L1000 1443.85L875.29 1532.64L750.58 1443.85L750.29 1443.64L750 1443.85L625.29 1532.64L500.58 1443.85L500.29 1443.64L500 1443.85L375.29 1532.64L250.58 1443.85Z" fill="#080708"/>
<path fill-rule="evenodd" clip-rule="evenodd" d="M250.58 1534.07L250.29 1533.87L250 1534.07L125.29 1622.87L0.580005 1534.07L0 1534.89L125 1623.89L125.29 1624.1L125.58 1623.89L250.29 1535.1L375 1623.89L375.29 1624.1L375.58 1623.89L500.29 1535.1L625 1623.89L625.29 1624.1L625.58 1623.89L750.29 1535.1L875 1623.89L875.29 1624.1L875.58 1623.89L1000.29 1535.1L1125 1623.89L1125.29 1624.1L1125.58 1623.89L1250.29 1535.1L1375 1623.89L1375.29 1624.1L1375.58 1623.89L1500.29 1535.1L1625 1623.89L1625.29 1624.1L1625.58 1623.89L1750.29 1535.1L1875 1623.89L1875.29 1624.1L1875.58 1623.89L2000.58 1534.89L2000 1534.07L1875.29 1622.87L1750.58 1534.07L1750.29 1533.87L1750 1534.07L1625.29 1622.87L1500.58 1534.07L1500.29 1533.87L1500 1534.07L1375.29 1622.87L1250.58 1534.07L1250.29 1533.87L1250 1534.07L1125.29 1622.87L1000.58 1534.07L1000.29 1534.48L1000 1534.07L875.29 1622.87L750.58 1534.07L750.29 1533.87L750 1534.07L625.29 1622.87L500.58 1534.07L500.29 1533.87L500 1534.07L375.29 1622.87L250.58 1534.07Z" fill="#080708"/>
<path fill-rule="evenodd" clip-rule="evenodd" d="M250.58 1624.3L250.29 1624.1L250 1624.3L125.29 1713.1L0.580005 1624.3L0 1625.12L125 1714.12L125.29 1714.32L125.58 1714.12L250.29 1625.32L375 1714.12L375.29 1714.32L375.58 1714.12L500.29 1625.32L625 1714.12L625.29 1714.32L625.58 1714.12L750.29 1625.32L875 1714.12L875.29 1714.32L875.58 1714.12L1000.29 1625.32L1125 1714.12L1125.29 1714.32L1125.58 1714.12L1250.29 1625.32L1375 1714.12L1375.29 1714.32L1375.58 1714.12L1500.29 1625.32L1625 1714.12L1625.29 1714.32L1625.58 1714.12L1750.29 1625.32L1875 1714.12L1875.29 1714.32L1875.58 1714.12L2000.58 1625.12L2000 1624.3L1875.29 1713.1L1750.58 1624.3L1750.29 1624.1L1750 1624.3L1625.29 1713.1L1500.58 1624.3L1500.29 1624.1L1500 1624.3L1375.29 1713.1L1250.58 1624.3L1250.29 1624.1L1250 1624.3L1125.29 1713.1L1000.58 1624.3L1000.29 1624.71L1000 1624.3L875.29 1713.1L750.58 1624.3L750.29 1624.1L750 1624.3L625.29 1713.1L500.58 1624.3L500.29 1624.1L500 1624.3L375.29 1713.1L250.58 1624.3Z" fill="#080708"/>
<path fill-rule="evenodd" clip-rule="evenodd" d="M250.58 1714.53L250.29 1714.32L250 1714.53L125.29 1803.32L0.580005 1714.53L0 1715.34L125 1804.34L125.29 1804.55L125.58 1804.34L250.29 1715.55L375 1804.34L375.29 1804.55L375.58 1804.34L500.29 1715.55L625 1804.34L625.29 1804.55L625.58 1804.34L750.29 1715.55L875 1804.34L875.29 1804.55L875.58 1804.34L1000.29 1715.55L1125 1804.34L1125.29 1804.55L1125.58 1804.34L1250.29 1715.55L1375 1804.34L1375.29 1804.55L1375.58 1804.34L1500.29 1715.55L1625 1804.34L1625.29 1804.55L1625.58 1804.34L1750.29 1715.55L1875 1804.34L1875.29 1804.55L1875.58 1804.34L2000.58 1715.34L2000 1714.53L1875.29 1803.32L1750.58 1714.53L1750.29 1714.32L1750 1714.53L1625.29 1803.32L1500.58 1714.53L1500.29 1714.32L1500 1714.53L1375.29 1803.32L1250.58 1714.53L1250.29 1714.32L1250 1714.53L1125.29 1803.32L1000.58 1714.53L1000.29 1714.94L1000 1714.53L875.29 1803.32L750.58 1714.53L750.29 1714.32L750 1714.53L625.29 1803.32L500.58 1714.53L500.29 1714.32L500 1714.53L375.29 1803.32L250.58 1714.53Z" fill="#080708"/>
</svg>
