<svg width="437" height="63" viewBox="0 0 437 63" fill="none" xmlns="http://www.w3.org/2000/svg" preserveAspectRatio="xMidYMid slice">
<g clip-path="url(#clip0_121_2510)">
<path d="M45.3996 45.7918C45.3996 58.163 35.3708 68.1918 22.9996 68.1918C10.6284 68.1918 0.599609 58.163 0.599609 45.7918C0.599609 27.0206 10.6284 10.5918 22.9996 10.5918C35.3708 10.5918 45.3996 27.0206 45.3996 45.7918Z" fill="var(--page)" stroke="#080708"/>
<path d="M79.3996 45.7918C79.3996 58.163 69.3708 68.1918 56.9996 68.1918C44.6284 68.1918 34.5996 58.163 34.5996 45.7918C34.5996 27.0206 44.6284 10.5918 56.9996 10.5918C69.3708 10.5918 79.3996 27.0206 79.3996 45.7918Z" fill="var(--page)" stroke="#080708"/>
<path d="M113.4 45.7918C113.4 58.163 103.371 68.1918 90.9996 68.1918C78.6284 68.1918 68.5996 58.163 68.5996 45.7918C68.5996 27.0206 78.6284 10.5918 90.9996 10.5918C103.371 10.5918 113.4 27.0206 113.4 45.7918Z" fill="var(--page)" stroke="#080708"/>
<path d="M147.4 45.7918C147.4 58.163 137.371 68.1918 125 68.1918C112.628 68.1918 102.6 58.163 102.6 45.7918C102.6 27.0206 112.628 10.5918 125 10.5918C137.371 10.5918 147.4 27.0206 147.4 45.7918Z" fill="var(--page)" stroke="#080708"/>
<path d="M181.4 45.7918C181.4 58.163 171.371 68.1918 159 68.1918C146.628 68.1918 136.6 58.163 136.6 45.7918C136.6 27.0206 146.628 10.5918 159 10.5918C171.371 10.5918 181.4 27.0206 181.4 45.7918Z" fill="var(--page)" stroke="#080708"/>
<path d="M215.4 45.7918C215.4 58.163 205.371 68.1918 193 68.1918C180.628 68.1918 170.6 58.163 170.6 45.7918C170.6 27.0206 180.628 10.5918 193 10.5918C205.371 10.5918 215.4 27.0206 215.4 45.7918Z" fill="var(--page)" stroke="#080708"/>
<path d="M249.4 45.7918C249.4 58.163 239.371 68.1918 227 68.1918C214.628 68.1918 204.6 58.163 204.6 45.7918C204.6 27.0206 214.628 10.5918 227 10.5918C239.371 10.5918 249.4 27.0206 249.4 45.7918Z" fill="var(--page)" stroke="#080708"/>
<path d="M283.4 45.7918C283.4 58.163 273.371 68.1918 261 68.1918C248.628 68.1918 238.6 58.163 238.6 45.7918C238.6 27.0206 248.628 10.5918 261 10.5918C273.371 10.5918 283.4 27.0206 283.4 45.7918Z" fill="var(--page)" stroke="#080708"/>
<path d="M316.122 39.6672C319.324 51.6169 312.233 63.8996 300.283 67.1015C288.333 70.3034 276.051 63.2119 272.849 51.2623C267.99 33.1307 273.425 14.6661 285.375 11.4642C297.325 8.26227 311.264 21.5356 316.122 39.6672Z" fill="var(--page)" stroke="#080708"/>
<path d="M298.915 43.4497L303.692 45.2395" stroke="#080708"/>
<path d="M301.137 48.6518L305.511 43.3387L311.955 45.753L316.329 40.4399" stroke="#080708"/>
<path d="M326.376 34.2425C325.947 32.6421 326.897 30.9971 328.497 30.5683L356.702 23.0108C358.303 22.5819 359.948 23.5317 360.377 25.1321L368.297 54.6894L334.296 63.7998L326.376 34.2425Z" fill="#080708" stroke="#080708"/>
<path d="M345.721 50.8L348.205 60.0729" stroke="#080708" stroke-linecap="square"/>
<path d="M351.902 49.1436L354.387 58.4164" stroke="#080708" stroke-linecap="square"/>
<ellipse cx="337.262" cy="43.9564" rx="4.8" ry="4.8" transform="rotate(-15 337.262 43.9564)" fill="var(--page)" stroke="#080708"/>
<ellipse cx="355.807" cy="38.9869" rx="4.8" ry="4.8" transform="rotate(-15 355.807 38.9869)" fill="var(--page)" stroke="#080708"/>
<path d="M367.39 32.9358L369.371 40.3317" stroke="#080708" stroke-linecap="square"/>
<path d="M362.762 37.1233L368.171 35.6739" stroke="#080708"/>
<path d="M348 68.192C360.371 68.192 370.4 58.1632 370.4 45.792L364.8 49.792L359.2 45.792L353.6 49.792L348 45.792L342.4 49.792L336.8 45.792L331.2 49.792L325.6 45.792C325.6 58.1632 335.628 68.192 348 68.192Z" fill="var(--page)" stroke="#080708"/>
<path d="M334.167 9.41591C345.527 4.7635 360.078 14.0367 366.182 28.9412L362.341 34.2232L355.899 33.1532L352.057 38.4352L345.615 37.3651L341.773 42.6472L335.331 41.5771L331.489 46.8591L325.047 45.7891C318.942 30.8845 322.808 14.0683 334.167 9.41591Z" fill="var(--page)" stroke="#080708"/>
<path d="M399.779 17.534C400.208 15.9336 401.853 14.9839 403.453 15.4127L431.658 22.9702C433.259 23.399 434.209 25.044 433.78 26.6444L425.86 56.2018L391.859 47.0913L399.779 17.534Z" fill="var(--page)" stroke="#080708"/>
<rect x="402.278" y="39.1165" width="19.2" height="11.2" transform="rotate(15 402.278 39.1165)" stroke="#080708"/>
<path d="M408.46 40.7727L405.561 51.5911" stroke="#080708" stroke-linecap="square"/>
<path d="M414.642 42.4292L411.743 53.2476" stroke="#080708" stroke-linecap="square"/>
<path d="M404.718 67.1015C416.668 70.3034 428.95 63.212 432.152 51.2623L425.708 53.6766L421.334 48.3636L414.89 50.7779L410.516 45.4648L404.071 47.8791L399.697 42.566L393.253 44.9803L388.879 39.6672C385.677 51.6169 392.768 63.8996 404.718 67.1015Z" fill="var(--page)" stroke="#080708"/>
<ellipse cx="404.556" cy="30.6163" rx="4.8" ry="4.8" transform="rotate(15 404.556 30.6163)" stroke="#080708"/>
<ellipse cx="423.101" cy="35.5856" rx="4.8" ry="4.8" transform="rotate(15 423.101 35.5856)" stroke="#080708"/>
<ellipse cx="420.247" cy="9.14599" rx="3.2" ry="3.2" transform="rotate(15 420.247 9.14599)" fill="#080708" stroke="#080708"/>
<path d="M392.192 27.3032L396.829 28.5456" stroke="#080708"/>
<path d="M393.435 22.667L390.95 31.9399" stroke="#080708" stroke-linecap="square"/>
<path d="M419.419 12.2368L417.555 19.1915" stroke="#080708" stroke-linecap="square"/>
<path d="M422.525 0.645772L421.903 2.96399M427.868 4.74596L425.79 5.94596M428.747 11.4235L426.429 10.8024M424.647 16.7672L423.447 14.6887M412.626 13.546L414.705 12.346M411.747 6.86832L414.065 7.48949M415.847 1.5247L417.047 3.60316" stroke="#080708" stroke-linecap="square"/>
<path d="M436.708 34.262L434.223 43.5348" stroke="#080708" stroke-linecap="square"/>
<path d="M430.829 37.656L435.466 38.8983" stroke="#080708"/>
</g>
<defs>
<clipPath id="clip0_121_2510">
<rect width="437" height="63" fill="white"/>
</clipPath>
</defs>
</svg>
