<svg width="556" height="556" viewBox="0 0 556 556" fill="none" xmlns="http://www.w3.org/2000/svg">
<path d="M199.387 128.384C199.899 126.808 201.592 125.946 203.168 126.458L427.617 199.386C429.193 199.898 430.055 201.591 429.543 203.166L359.087 420.007L128.932 345.225L199.387 128.384Z" fill="#F5EEEB" stroke="#080708"/>
<rect x="203.334" y="294.221" width="132" height="77" transform="rotate(18 203.334 294.221)" stroke="#080708"/>
<path d="M245.18 307.817L221.385 381.049" stroke="#080708" stroke-linecap="square"/>
<path d="M287.027 321.414L263.233 394.645" stroke="#080708" stroke-linecap="square"/>
<path d="M210.017 487.232C290.906 513.515 377.786 469.247 404.068 388.358L358.954 402.615L330.837 364.564L285.723 378.821L257.605 340.77L212.492 355.027L184.374 316.975L139.26 331.232L111.143 293.181C84.8601 374.07 129.128 460.95 210.017 487.232Z" fill="#F5EEEB" stroke="#080708"/>
<circle cx="222.029" cy="236.682" r="33" transform="rotate(18 222.029 236.682)" stroke="#080708"/>
<circle cx="347.568" cy="277.472" r="33" transform="rotate(18 347.568 277.472)" stroke="#080708"/>
<circle cx="337.486" cy="94.9216" r="22" transform="rotate(18 337.486 94.9216)" fill="#F5EEEB" stroke="#080708"/>
<path d="M138.336 209.488L169.721 219.686" stroke="#080708"/>
<path d="M148.533 178.103L128.138 240.873" stroke="#080708" stroke-linecap="square"/>
<path d="M330.688 115.845L315.391 162.922" stroke="#080708" stroke-linecap="square"/>
<path d="M356.181 37.3827L351.083 53.0751M391.393 67.4555L376.692 74.9464M395.025 113.617L379.332 108.518M364.952 148.829L357.461 134.127M283.581 122.389L298.283 114.898M279.947 76.2261L295.639 81.3249M310.02 41.0144L317.511 55.716" stroke="#080708" stroke-linecap="square"/>
<path d="M441.459 273.28L421.064 336.05" stroke="#080708" stroke-linecap="square"/>
<path d="M399.877 294.468L431.262 304.665" stroke="#080708"/>
</svg>
