<svg width="4800" height="4523" viewBox="0 0 4800 4523" fill="none" xmlns="http://www.w3.org/2000/svg">
<g opacity="0.15">
<path fill-rule="evenodd" clip-rule="evenodd" d="M242.211 971.621L241.878 971.497L241.651 971.772L144.172 1089.82L0.729894 1036.33L0.38049 1037.26L144.156 1090.88L144.49 1091L144.716 1090.73L242.195 972.683L385.638 1026.17L385.971 1026.3L386.198 1026.02L483.677 907.978L627.119 961.469L627.453 961.593L627.679 961.319L725.158 843.273L868.6 896.764L868.934 896.888L869.161 896.614L966.64 778.568L1110.08 832.059L1110.42 832.184L1110.64 831.909L1208.12 713.864L1351.56 767.354L1351.9 767.479L1352.12 767.204L1449.6 649.159L1593.04 702.65L1593.38 702.774L1593.61 702.5L1691.08 584.454L1834.53 637.945L1834.86 638.069L1835.09 637.795L1932.79 519.475L1932.02 518.838L1834.54 636.884L1691.1 583.393L1690.77 583.268L1690.54 583.543L1593.06 701.588L1449.62 648.098L1449.28 647.973L1449.06 648.248L1351.58 766.293L1208.14 712.802L1207.8 712.678L1207.58 712.952L1110.1 830.998L966.656 777.507L966.481 777.976L966.095 777.657L868.616 895.703L725.174 842.212L724.841 842.088L724.614 842.362L627.135 960.407L483.693 906.917L483.359 906.792L483.133 907.067L385.653 1025.11L242.211 971.621Z" fill="#080708"/>
<path fill-rule="evenodd" clip-rule="evenodd" d="M265.564 1058.77L265.23 1058.65L265.004 1058.92L167.524 1176.97L24.0824 1123.48L23.733 1124.42L167.509 1178.03L167.842 1178.16L168.069 1177.88L265.548 1059.84L408.99 1113.33L409.324 1113.45L409.55 1113.18L507.029 995.131L650.472 1048.62L650.805 1048.75L651.032 1048.47L748.511 930.426L891.953 983.917L892.287 984.041L892.513 983.767L989.992 865.722L1133.43 919.212L1133.77 919.337L1133.99 919.062L1231.47 801.017L1374.92 854.507L1375.25 854.632L1375.48 854.357L1472.96 736.312L1616.4 789.803L1616.73 789.927L1616.96 789.653L1714.44 671.607L1857.88 725.098L1858.21 725.222L1858.44 724.948L1956.14 606.628L1955.37 605.991L1857.89 724.037L1714.45 670.546L1714.12 670.422L1713.89 670.696L1616.41 788.741L1472.97 735.251L1472.64 735.126L1472.41 735.401L1374.93 853.446L1231.49 799.955L1231.16 799.831L1230.93 800.106L1133.45 918.151L990.008 864.66L989.834 865.129L989.448 864.81L891.969 982.856L748.527 929.365L748.193 929.241L747.966 929.515L650.487 1047.56L507.045 994.07L506.712 993.945L506.485 994.22L409.006 1112.27L265.564 1058.77Z" fill="#080708"/>
<path fill-rule="evenodd" clip-rule="evenodd" d="M288.916 1145.93L288.583 1145.8L288.356 1146.08L190.877 1264.12L47.435 1210.63L47.0856 1211.57L190.861 1265.18L191.195 1265.31L191.421 1265.03L288.901 1146.99L432.343 1200.48L432.676 1200.6L432.903 1200.33L530.382 1082.28L673.824 1135.77L674.158 1135.9L674.384 1135.62L771.863 1017.58L915.306 1071.07L915.639 1071.19L915.866 1070.92L1013.34 952.875L1156.79 1006.37L1157.12 1006.49L1157.35 1006.22L1254.83 888.17L1398.27 941.661L1398.6 941.785L1398.83 941.51L1496.31 823.465L1639.75 876.956L1640.08 877.08L1640.31 876.806L1737.79 758.76L1881.23 812.251L1881.56 812.375L1881.79 812.101L1979.5 693.781L1978.73 693.144L1881.25 811.19L1737.81 757.699L1737.47 757.575L1737.24 757.849L1639.77 875.894L1496.32 822.404L1495.99 822.279L1495.76 822.554L1398.28 940.599L1254.84 887.109L1254.51 886.984L1254.28 887.259L1156.8 1005.3L1013.36 951.813L1013.19 952.282L1012.8 951.963L915.321 1070.01L771.879 1016.52L771.546 1016.39L771.319 1016.67L673.84 1134.71L530.398 1081.22L530.064 1081.1L529.838 1081.37L432.358 1199.42L288.916 1145.93Z" fill="#080708"/>
<path fill-rule="evenodd" clip-rule="evenodd" d="M312.269 1233.08L311.935 1232.96L311.709 1233.23L214.23 1351.28L70.7875 1297.79L70.4381 1298.72L214.214 1352.34L214.547 1352.46L214.774 1352.19L312.253 1234.14L455.695 1287.63L456.029 1287.76L456.255 1287.48L553.735 1169.44L697.177 1222.93L697.51 1223.05L697.737 1222.78L795.216 1104.73L938.658 1158.22L938.992 1158.35L939.218 1158.07L1036.7 1040.03L1180.14 1093.52L1180.47 1093.64L1180.7 1093.37L1278.18 975.323L1421.62 1028.81L1421.95 1028.94L1422.18 1028.66L1519.66 910.618L1663.1 964.109L1663.44 964.233L1663.66 963.959L1761.14 845.914L1904.58 899.404L1904.92 899.529L1905.14 899.254L2002.85 780.934L2002.08 780.298L1904.6 898.343L1761.16 844.852L1760.82 844.728L1760.6 845.002L1663.12 963.048L1519.68 909.557L1519.34 909.433L1519.12 909.707L1421.64 1027.75L1278.19 974.262L1277.86 974.137L1277.63 974.412L1180.16 1092.46L1036.71 1038.97L1036.54 1039.44L1036.15 1039.12L938.674 1157.16L795.232 1103.67L794.898 1103.55L794.672 1103.82L697.192 1221.87L553.75 1168.38L553.417 1168.25L553.19 1168.53L455.711 1286.57L312.269 1233.08Z" fill="#080708"/>
<path fill-rule="evenodd" clip-rule="evenodd" d="M335.622 1320.23L335.288 1320.11L335.061 1320.38L237.582 1438.43L94.1401 1384.94L93.7906 1385.88L237.566 1439.49L237.9 1439.61L238.126 1439.34L335.606 1321.3L479.048 1374.79L479.381 1374.91L479.608 1374.64L577.087 1256.59L720.529 1310.08L720.863 1310.21L721.089 1309.93L818.569 1191.89L962.011 1245.38L962.344 1245.5L962.571 1245.23L1060.05 1127.18L1203.49 1180.67L1203.83 1180.8L1204.05 1180.52L1301.53 1062.48L1444.97 1115.97L1445.31 1116.09L1445.53 1115.82L1543.01 997.771L1686.45 1051.26L1686.79 1051.39L1687.02 1051.11L1784.49 933.067L1927.94 986.557L1928.27 986.682L1928.5 986.407L2026.2 868.087L2025.43 867.451L1927.95 985.496L1784.51 932.005L1784.18 931.881L1783.95 932.155L1686.47 1050.2L1543.03 996.71L1542.7 996.586L1542.47 996.86L1444.99 1114.91L1301.55 1061.41L1301.21 1061.29L1300.99 1061.56L1203.51 1179.61L1060.07 1126.12L1059.89 1126.59L1059.51 1126.27L962.026 1244.31L818.584 1190.82L818.251 1190.7L818.024 1190.97L720.545 1309.02L577.103 1255.53L576.769 1255.4L576.543 1255.68L479.064 1373.72L335.622 1320.23Z" fill="#080708"/>
<path fill-rule="evenodd" clip-rule="evenodd" d="M358.974 1407.39L358.64 1407.26L358.414 1407.54L260.935 1525.58L117.493 1472.09L117.143 1473.03L260.919 1526.64L261.252 1526.77L261.479 1526.49L358.958 1408.45L502.4 1461.94L502.734 1462.06L502.96 1461.79L600.44 1343.74L743.882 1397.23L744.215 1397.36L744.442 1397.08L841.921 1279.04L985.363 1332.53L985.697 1332.65L985.923 1332.38L1083.4 1214.33L1226.84 1267.82L1227.18 1267.95L1227.4 1267.67L1324.88 1149.63L1468.33 1203.12L1468.66 1203.24L1468.89 1202.97L1566.37 1084.92L1709.81 1138.42L1710.14 1138.54L1710.37 1138.27L1807.85 1020.22L1951.29 1073.71L1951.62 1073.83L1951.85 1073.56L2049.56 955.241L2048.78 954.604L1951.3 1072.65L1807.86 1019.16L1807.53 1019.03L1807.3 1019.31L1709.82 1137.35L1566.38 1083.86L1566.05 1083.74L1565.82 1084.01L1468.34 1202.06L1324.9 1148.57L1324.57 1148.44L1324.34 1148.72L1226.86 1266.76L1083.42 1213.27L1083.24 1213.74L1082.86 1213.42L985.379 1331.47L841.937 1277.98L841.603 1277.85L841.377 1278.13L743.898 1396.17L600.455 1342.68L600.122 1342.56L599.895 1342.83L502.416 1460.88L358.974 1407.39Z" fill="#080708"/>
<path fill-rule="evenodd" clip-rule="evenodd" d="M382.327 1494.54L381.993 1494.42L381.766 1494.69L284.287 1612.74L140.845 1559.24L140.496 1560.18L284.271 1613.8L284.605 1613.92L284.832 1613.65L382.311 1495.6L525.753 1549.09L526.086 1549.22L526.313 1548.94L623.792 1430.9L767.234 1484.39L767.568 1484.51L767.795 1484.24L865.274 1366.19L1008.72 1419.68L1009.05 1419.81L1009.28 1419.53L1106.76 1301.49L1250.2 1354.98L1250.53 1355.1L1250.76 1354.83L1348.24 1236.78L1491.68 1290.27L1492.01 1290.4L1492.24 1290.12L1589.72 1172.08L1733.16 1225.57L1733.49 1225.69L1733.72 1225.42L1831.2 1107.37L1974.64 1160.86L1974.97 1160.99L1975.2 1160.71L2072.91 1042.39L2072.14 1041.76L1974.66 1159.8L1831.22 1106.31L1830.88 1106.19L1830.65 1106.46L1733.18 1224.51L1589.73 1171.02L1589.4 1170.89L1589.17 1171.17L1491.69 1289.21L1348.25 1235.72L1347.92 1235.6L1347.69 1235.87L1250.21 1353.92L1106.77 1300.43L1106.6 1300.89L1106.21 1300.58L1008.73 1418.62L865.289 1365.13L864.956 1365.01L864.729 1365.28L767.25 1483.33L623.808 1429.84L623.474 1429.71L623.248 1429.99L525.769 1548.03L382.327 1494.54Z" fill="#080708"/>
<path fill-rule="evenodd" clip-rule="evenodd" d="M405.679 1581.69L405.346 1581.57L405.119 1581.84L307.64 1699.89L164.198 1646.4L163.848 1647.33L307.624 1700.95L307.957 1701.07L308.184 1700.8L405.663 1582.75L549.105 1636.25L549.439 1636.37L549.666 1636.1L647.145 1518.05L790.587 1571.54L790.92 1571.66L791.147 1571.39L888.626 1453.35L1032.07 1506.84L1032.4 1506.96L1032.63 1506.69L1130.11 1388.64L1273.55 1442.13L1273.88 1442.26L1274.11 1441.98L1371.59 1323.94L1515.03 1377.43L1515.36 1377.55L1515.59 1377.28L1613.07 1259.23L1756.51 1312.72L1756.85 1312.85L1757.07 1312.57L1854.55 1194.53L1997.99 1248.02L1998.33 1248.14L1998.55 1247.87L2096.26 1129.55L2095.49 1128.91L1998.01 1246.96L1854.57 1193.46L1854.23 1193.34L1854.01 1193.61L1756.53 1311.66L1613.09 1258.17L1612.75 1258.05L1612.53 1258.32L1515.05 1376.36L1371.6 1322.87L1371.27 1322.75L1371.04 1323.02L1273.57 1441.07L1130.12 1387.58L1129.95 1388.05L1129.56 1387.73L1032.08 1505.77L888.642 1452.28L888.308 1452.16L888.082 1452.43L790.603 1570.48L647.161 1516.99L646.827 1516.86L646.6 1517.14L549.121 1635.18L405.679 1581.69Z" fill="#080708"/>
<path fill-rule="evenodd" clip-rule="evenodd" d="M429.033 1668.85L428.699 1668.72L428.472 1669L330.993 1787.04L187.551 1733.55L187.202 1734.49L330.977 1788.1L331.311 1788.23L331.538 1787.95L429.017 1669.91L572.459 1723.4L572.792 1723.52L573.019 1723.25L670.498 1605.2L813.94 1658.69L814.274 1658.82L814.501 1658.54L911.98 1540.5L1055.42 1593.99L1055.76 1594.11L1055.98 1593.84L1153.46 1475.79L1296.9 1529.28L1297.24 1529.41L1297.46 1529.13L1394.94 1411.09L1538.38 1464.58L1538.72 1464.7L1538.94 1464.43L1636.42 1346.38L1779.87 1399.87L1780.2 1400L1780.43 1399.72L1877.91 1281.68L2021.35 1335.17L2021.68 1335.29L2021.91 1335.02L2119.61 1216.7L2118.84 1216.06L2021.36 1334.11L1877.92 1280.62L1877.59 1280.49L1877.36 1280.77L1779.88 1398.81L1636.44 1345.32L1636.11 1345.2L1635.88 1345.47L1538.4 1463.52L1394.96 1410.03L1394.62 1409.9L1394.4 1410.18L1296.92 1528.22L1153.48 1474.73L1153.3 1475.2L1152.92 1474.88L1055.44 1592.93L911.995 1539.44L911.662 1539.31L911.435 1539.59L813.956 1657.63L670.514 1604.14L670.181 1604.02L669.954 1604.29L572.475 1722.34L429.033 1668.85Z" fill="#080708"/>
<path fill-rule="evenodd" clip-rule="evenodd" d="M452.385 1756L452.052 1755.87L451.825 1756.15L354.346 1874.19L210.904 1820.7L210.554 1821.64L354.33 1875.26L354.663 1875.38L354.89 1875.11L452.369 1757.06L595.811 1810.55L596.145 1810.68L596.372 1810.4L693.851 1692.36L837.293 1745.85L837.626 1745.97L837.853 1745.7L935.332 1627.65L1078.77 1681.14L1079.11 1681.27L1079.33 1680.99L1176.81 1562.95L1320.26 1616.44L1320.59 1616.56L1320.82 1616.29L1418.3 1498.24L1561.74 1551.73L1562.07 1551.86L1562.3 1551.58L1659.78 1433.54L1803.22 1487.03L1803.55 1487.15L1803.78 1486.88L1901.26 1368.83L2044.7 1422.32L2045.03 1422.45L2045.26 1422.17L2142.97 1303.85L2142.2 1303.22L2044.72 1421.26L1901.27 1367.77L1900.94 1367.65L1900.71 1367.92L1803.23 1485.97L1659.79 1432.48L1659.46 1432.35L1659.23 1432.63L1561.75 1550.67L1418.31 1497.18L1417.98 1497.06L1417.75 1497.33L1320.27 1615.38L1176.83 1561.89L1176.65 1562.35L1176.27 1562.04L1078.79 1680.08L935.348 1626.59L935.014 1626.47L934.788 1626.74L837.309 1744.79L693.867 1691.29L693.533 1691.17L693.306 1691.44L595.827 1809.49L452.385 1756Z" fill="#080708"/>
<path fill-rule="evenodd" clip-rule="evenodd" d="M475.738 1843.15L475.404 1843.03L475.177 1843.3L377.698 1961.35L234.256 1907.86L233.907 1908.79L377.682 1962.41L378.016 1962.53L378.243 1962.26L475.722 1844.21L619.164 1897.7L619.497 1897.83L619.724 1897.55L717.203 1779.51L860.645 1833L860.979 1833.12L861.206 1832.85L958.685 1714.8L1102.13 1768.3L1102.46 1768.42L1102.69 1768.15L1200.17 1650.1L1343.61 1703.59L1343.94 1703.71L1344.17 1703.44L1441.65 1585.4L1585.09 1638.89L1585.42 1639.01L1585.65 1638.74L1683.13 1520.69L1826.57 1574.18L1826.9 1574.31L1827.13 1574.03L1924.61 1455.99L2068.05 1509.48L2068.39 1509.6L2068.61 1509.33L2166.32 1391.01L2165.55 1390.37L2068.07 1508.41L1924.63 1454.92L1924.29 1454.8L1924.07 1455.07L1826.59 1573.12L1683.14 1519.63L1682.81 1519.5L1682.58 1519.78L1585.11 1637.82L1441.66 1584.33L1441.33 1584.21L1441.1 1584.48L1343.62 1702.53L1200.18 1649.04L1200.01 1649.51L1199.62 1649.19L1102.14 1767.23L958.701 1713.74L958.367 1713.62L958.14 1713.89L860.661 1831.94L717.219 1778.45L716.886 1778.32L716.659 1778.6L619.18 1896.64L475.738 1843.15Z" fill="#080708"/>
<path fill-rule="evenodd" clip-rule="evenodd" d="M499.09 1930.31L498.757 1930.18L498.53 1930.46L401.051 2048.5L257.609 1995.01L257.259 1995.95L401.035 2049.56L401.369 2049.69L401.595 2049.41L499.074 1931.37L642.516 1984.86L642.85 1984.98L643.077 1984.71L740.556 1866.66L883.998 1920.15L884.332 1920.28L884.558 1920L982.037 1801.96L1125.48 1855.45L1125.81 1855.57L1126.04 1855.3L1223.52 1737.25L1366.96 1790.74L1367.29 1790.87L1367.52 1790.59L1465 1672.55L1608.44 1726.04L1608.78 1726.16L1609 1725.89L1706.48 1607.84L1849.92 1661.33L1850.26 1661.46L1850.48 1661.18L1947.96 1543.14L2091.41 1596.63L2091.74 1596.75L2091.97 1596.48L2189.67 1478.16L2188.9 1477.52L2091.42 1595.57L1947.98 1542.08L1947.65 1541.95L1947.42 1542.23L1849.94 1660.27L1706.5 1606.78L1706.16 1606.66L1705.94 1606.93L1608.46 1724.98L1465.02 1671.49L1464.68 1671.36L1464.46 1671.64L1366.98 1789.68L1223.53 1736.19L1223.36 1736.66L1222.97 1736.34L1125.5 1854.39L982.053 1800.9L981.72 1800.77L981.493 1801.05L884.014 1919.09L740.572 1865.6L740.238 1865.48L740.011 1865.75L642.532 1983.8L499.09 1930.31Z" fill="#080708"/>
<path fill-rule="evenodd" clip-rule="evenodd" d="M522.443 2017.46L522.109 2017.33L521.883 2017.61L424.403 2135.65L280.961 2082.16L280.612 2083.1L424.388 2136.72L424.721 2136.84L424.948 2136.57L522.427 2018.52L665.869 2072.01L666.202 2072.14L666.429 2071.86L763.908 1953.82L907.35 2007.31L907.684 2007.43L907.911 2007.16L1005.39 1889.11L1148.83 1942.6L1149.17 1942.73L1149.39 1942.45L1246.87 1824.41L1390.31 1877.9L1390.65 1878.02L1390.87 1877.75L1488.35 1759.7L1631.79 1813.19L1632.13 1813.32L1632.36 1813.04L1729.83 1695L1873.28 1748.49L1873.61 1748.61L1873.84 1748.34L1971.32 1630.29L2114.76 1683.78L2115.09 1683.91L2115.32 1683.63L2213.02 1565.31L2212.25 1564.68L2114.77 1682.72L1971.33 1629.23L1971 1629.11L1970.77 1629.38L1873.29 1747.43L1729.85 1693.94L1729.52 1693.81L1729.29 1694.09L1631.81 1812.13L1488.37 1758.64L1488.03 1758.52L1487.81 1758.79L1390.33 1876.84L1246.89 1823.34L1246.71 1823.81L1246.33 1823.49L1148.85 1941.54L1005.41 1888.05L1005.07 1887.92L1004.85 1888.2L907.366 2006.24L763.924 1952.75L763.591 1952.63L763.364 1952.9L665.885 2070.95L522.443 2017.46Z" fill="#080708"/>
<path fill-rule="evenodd" clip-rule="evenodd" d="M545.795 2104.61L545.462 2104.49L545.235 2104.76L447.756 2222.81L304.314 2169.32L303.964 2170.25L447.74 2223.87L448.074 2223.99L448.3 2223.72L545.779 2105.67L689.221 2159.16L689.555 2159.29L689.782 2159.01L787.261 2040.97L930.703 2094.46L931.037 2094.58L931.263 2094.31L1028.74 1976.26L1172.18 2029.75L1172.52 2029.88L1172.74 2029.6L1270.22 1911.56L1413.67 1965.05L1414 1965.17L1414.23 1964.9L1511.71 1846.85L1655.15 1900.34L1655.48 1900.47L1655.71 1900.19L1753.19 1782.15L1896.63 1835.64L1896.96 1835.76L1897.19 1835.49L1994.67 1717.44L2138.11 1770.94L2138.44 1771.06L2138.67 1770.78L2236.38 1652.47L2235.61 1651.83L2138.13 1769.87L1994.68 1716.38L1994.35 1716.26L1994.12 1716.53L1896.64 1834.58L1753.2 1781.09L1752.87 1780.96L1752.64 1781.24L1655.16 1899.28L1511.72 1845.79L1511.39 1845.67L1511.16 1845.94L1413.68 1963.99L1270.24 1910.5L1270.06 1910.97L1269.68 1910.65L1172.2 2028.69L1028.76 1975.2L1028.42 1975.08L1028.2 1975.35L930.719 2093.4L787.277 2039.91L786.943 2039.78L786.717 2040.06L689.237 2158.1L545.795 2104.61Z" fill="#080708"/>
<path fill-rule="evenodd" clip-rule="evenodd" d="M569.148 2191.76L568.814 2191.64L568.588 2191.92L471.108 2309.96L327.666 2256.47L327.317 2257.41L471.093 2311.02L471.426 2311.15L471.653 2310.87L569.132 2192.83L712.574 2246.32L712.908 2246.44L713.134 2246.17L810.613 2128.12L954.056 2181.61L954.389 2181.74L954.616 2181.46L1052.09 2063.42L1195.54 2116.91L1195.87 2117.03L1196.1 2116.76L1293.58 1998.71L1437.02 2052.2L1437.35 2052.33L1437.58 2052.05L1535.06 1934.01L1678.5 1987.5L1678.83 1987.62L1679.06 1987.35L1776.54 1869.3L1919.98 1922.79L1920.31 1922.92L1920.54 1922.64L2018.02 1804.6L2161.46 1858.09L2161.8 1858.21L2162.02 1857.94L2259.73 1739.62L2258.96 1738.98L2161.48 1857.03L2018.04 1803.54L2017.7 1803.41L2017.48 1803.69L1920 1921.73L1776.56 1868.24L1776.22 1868.12L1775.99 1868.39L1678.52 1986.44L1535.07 1932.95L1534.74 1932.82L1534.51 1933.1L1437.03 2051.14L1293.59 1997.65L1293.42 1998.12L1293.03 1997.8L1195.55 2115.85L1052.11 2062.36L1051.78 2062.23L1051.55 2062.51L954.071 2180.55L810.629 2127.06L810.296 2126.94L810.069 2127.21L712.59 2245.26L569.148 2191.76Z" fill="#080708"/>
<path fill-rule="evenodd" clip-rule="evenodd" d="M592.5 2278.92L592.167 2278.79L591.94 2279.07L494.461 2397.11L351.019 2343.62L350.67 2344.56L494.445 2398.18L494.779 2398.3L495.005 2398.02L592.485 2279.98L735.927 2333.47L736.26 2333.59L736.487 2333.32L833.966 2215.27L977.408 2268.77L977.742 2268.89L977.968 2268.62L1075.45 2150.57L1218.89 2204.06L1219.22 2204.19L1219.45 2203.91L1316.93 2085.87L1460.37 2139.36L1460.7 2139.48L1460.93 2139.21L1558.41 2021.16L1701.85 2074.65L1702.19 2074.78L1702.41 2074.5L1799.89 1956.46L1943.33 2009.95L1943.67 2010.07L1943.89 2009.8L2041.37 1891.75L2184.82 1945.24L2185.15 1945.37L2185.38 1945.09L2283.08 1826.77L2282.31 1826.14L2184.83 1944.18L2041.39 1890.69L2041.06 1890.57L2040.83 1890.84L1943.35 2008.89L1799.91 1955.39L1799.57 1955.27L1799.35 1955.54L1701.87 2073.59L1558.43 2020.1L1558.09 2019.97L1557.87 2020.25L1460.39 2138.29L1316.94 2084.8L1316.77 2085.27L1316.38 2084.95L1218.91 2203L1075.46 2149.51L1075.13 2149.38L1074.9 2149.66L977.424 2267.7L833.982 2214.21L833.648 2214.09L833.422 2214.36L735.942 2332.41L592.5 2278.92Z" fill="#080708"/>
<path fill-rule="evenodd" clip-rule="evenodd" d="M615.853 2366.07L615.519 2365.95L615.293 2366.22L517.814 2484.27L374.371 2430.78L374.022 2431.71L517.798 2485.33L518.131 2485.45L518.358 2485.18L615.837 2367.13L759.279 2420.62L759.613 2420.75L759.839 2420.47L857.319 2302.43L1000.76 2355.92L1001.09 2356.04L1001.32 2355.77L1098.8 2237.72L1242.24 2291.21L1242.58 2291.34L1242.8 2291.06L1340.28 2173.02L1483.72 2226.51L1484.06 2226.63L1484.28 2226.36L1581.76 2108.31L1725.2 2161.8L1725.54 2161.93L1725.77 2161.65L1823.24 2043.61L1966.69 2097.1L1967.02 2097.22L1967.25 2096.95L2064.73 1978.9L2208.17 2032.39L2208.5 2032.52L2208.73 2032.24L2306.43 1913.92L2305.66 1913.29L2208.18 2031.33L2064.74 1977.84L2064.41 1977.72L2064.18 1977.99L1966.7 2096.04L1823.26 2042.55L1822.93 2042.42L1822.7 2042.7L1725.22 2160.74L1581.78 2107.25L1581.45 2107.13L1581.22 2107.4L1483.74 2225.45L1340.3 2171.96L1340.12 2172.43L1339.74 2172.11L1242.26 2290.15L1098.82 2236.66L1098.48 2236.54L1098.26 2236.81L1000.78 2354.86L857.334 2301.37L857.001 2301.24L856.774 2301.52L759.295 2419.56L615.853 2366.07Z" fill="#080708"/>
<path fill-rule="evenodd" clip-rule="evenodd" d="M639.205 2453.22L638.872 2453.1L638.645 2453.37L541.166 2571.42L397.724 2517.93L397.375 2518.87L541.15 2572.48L541.484 2572.61L541.71 2572.33L639.19 2454.29L782.632 2507.78L782.965 2507.9L783.192 2507.63L880.671 2389.58L1024.11 2443.07L1024.45 2443.2L1024.67 2442.92L1122.15 2324.88L1265.59 2378.37L1265.93 2378.49L1266.15 2378.22L1363.63 2260.17L1507.08 2313.66L1507.41 2313.79L1507.64 2313.51L1605.12 2195.47L1748.56 2248.96L1748.89 2249.08L1749.12 2248.81L1846.6 2130.76L1990.04 2184.25L1990.37 2184.38L1990.6 2184.1L2088.08 2066.06L2231.52 2119.55L2231.85 2119.67L2232.08 2119.4L2329.79 2001.08L2329.02 2000.44L2231.54 2118.49L2088.09 2065L2087.76 2064.87L2087.53 2065.15L1990.05 2183.19L1846.61 2129.7L1846.28 2129.58L1846.05 2129.85L1748.57 2247.9L1605.13 2194.41L1604.8 2194.28L1604.57 2194.56L1507.09 2312.6L1363.65 2259.11L1363.48 2259.58L1363.09 2259.26L1265.61 2377.31L1122.17 2323.81L1121.83 2323.69L1121.61 2323.97L1024.13 2442.01L880.687 2388.52L880.353 2388.4L880.127 2388.67L782.647 2506.72L639.205 2453.22Z" fill="#080708"/>
<path fill-rule="evenodd" clip-rule="evenodd" d="M662.558 2540.38L662.224 2540.25L661.998 2540.53L564.519 2658.57L421.077 2605.08L420.727 2606.02L564.503 2659.63L564.836 2659.76L565.063 2659.48L662.542 2541.44L805.984 2594.93L806.318 2595.05L806.544 2594.78L904.024 2476.73L1047.47 2530.22L1047.8 2530.35L1048.03 2530.07L1145.51 2412.03L1288.95 2465.52L1289.28 2465.64L1289.51 2465.37L1386.99 2347.32L1530.43 2400.81L1530.76 2400.94L1530.99 2400.66L1628.47 2282.62L1771.91 2336.11L1772.24 2336.23L1772.47 2335.96L1869.95 2217.91L2013.39 2271.41L2013.73 2271.53L2013.95 2271.26L2111.43 2153.21L2254.87 2206.7L2255.21 2206.83L2255.43 2206.55L2353.14 2088.23L2352.37 2087.59L2254.89 2205.64L2111.45 2152.15L2111.11 2152.02L2110.89 2152.3L2013.41 2270.34L1869.97 2216.85L1869.63 2216.73L1869.41 2217L1771.93 2335.05L1628.48 2281.56L1628.15 2281.43L1627.92 2281.71L1530.44 2399.75L1387 2346.26L1386.83 2346.73L1386.44 2346.41L1288.96 2464.46L1145.52 2410.97L1145.19 2410.84L1144.96 2411.12L1047.48 2529.16L904.039 2475.67L903.706 2475.55L903.479 2475.82L806 2593.87L662.558 2540.38Z" fill="#080708"/>
<path fill-rule="evenodd" clip-rule="evenodd" d="M685.911 2627.53L685.577 2627.41L685.35 2627.68L587.871 2745.73L444.429 2692.24L444.08 2693.17L587.855 2746.79L588.189 2746.91L588.416 2746.64L685.895 2628.59L829.337 2682.08L829.67 2682.21L829.897 2681.93L927.376 2563.89L1070.82 2617.38L1071.15 2617.5L1071.38 2617.23L1168.86 2499.18L1312.3 2552.67L1312.63 2552.8L1312.86 2552.52L1410.34 2434.48L1553.78 2487.97L1554.11 2488.09L1554.34 2487.82L1651.82 2369.77L1795.26 2423.26L1795.6 2423.39L1795.82 2423.11L1893.3 2305.07L2036.74 2358.56L2037.08 2358.68L2037.3 2358.41L2134.78 2240.36L2278.23 2293.85L2278.56 2293.98L2278.79 2293.7L2376.49 2175.38L2375.72 2174.75L2278.24 2292.79L2134.8 2239.3L2134.47 2239.18L2134.24 2239.45L2036.76 2357.5L1893.32 2304.01L1892.98 2303.88L1892.76 2304.16L1795.28 2422.2L1651.84 2368.71L1651.5 2368.59L1651.28 2368.86L1553.8 2486.91L1410.35 2433.42L1410.18 2433.88L1409.79 2433.57L1312.32 2551.61L1168.87 2498.12L1168.54 2498L1168.31 2498.27L1070.83 2616.32L927.392 2562.83L927.058 2562.7L926.832 2562.98L829.353 2681.02L685.911 2627.53Z" fill="#080708"/>
<path fill-rule="evenodd" clip-rule="evenodd" d="M709.263 2714.68L708.93 2714.56L708.703 2714.83L611.224 2832.88L467.782 2779.39L467.432 2780.33L611.208 2833.94L611.541 2834.06L611.768 2833.79L709.247 2715.74L852.689 2769.24L853.023 2769.36L853.249 2769.09L950.729 2651.04L1094.17 2704.53L1094.5 2704.66L1094.73 2704.38L1192.21 2586.34L1335.65 2639.83L1335.99 2639.95L1336.21 2639.68L1433.69 2521.63L1577.13 2575.12L1577.47 2575.25L1577.69 2574.97L1675.17 2456.93L1818.62 2510.42L1818.95 2510.54L1819.18 2510.27L1916.65 2392.22L2060.1 2445.71L2060.43 2445.84L2060.66 2445.56L2158.14 2327.52L2301.58 2381.01L2301.91 2381.13L2302.14 2380.86L2399.84 2262.54L2399.07 2261.9L2301.59 2379.95L2158.15 2326.45L2157.82 2326.33L2157.59 2326.61L2060.11 2444.65L1916.67 2391.16L1916.34 2391.04L1916.11 2391.31L1818.63 2509.36L1675.19 2455.86L1674.86 2455.74L1674.63 2456.01L1577.15 2574.06L1433.71 2520.57L1433.53 2521.04L1433.15 2520.72L1335.67 2638.76L1192.23 2585.27L1191.89 2585.15L1191.67 2585.42L1094.19 2703.47L950.745 2649.98L950.411 2649.85L950.184 2650.13L852.705 2768.17L709.263 2714.68Z" fill="#080708"/>
<path fill-rule="evenodd" clip-rule="evenodd" d="M732.616 2801.84L732.282 2801.71L732.055 2801.99L634.576 2920.03L491.134 2866.54L490.785 2867.48L634.56 2921.09L634.894 2921.22L635.121 2920.94L732.6 2802.9L876.042 2856.39L876.375 2856.51L876.602 2856.24L974.081 2738.19L1117.52 2791.68L1117.86 2791.81L1118.08 2791.53L1215.56 2673.49L1359 2726.98L1359.34 2727.1L1359.57 2726.83L1457.04 2608.78L1600.49 2662.27L1600.82 2662.4L1601.05 2662.12L1698.53 2544.08L1841.97 2597.57L1842.3 2597.69L1842.53 2597.42L1940.01 2479.37L2083.45 2532.86L2083.78 2532.99L2084.01 2532.71L2181.49 2414.67L2324.93 2468.16L2325.26 2468.28L2325.49 2468.01L2423.2 2349.69L2422.43 2349.05L2324.95 2467.1L2181.5 2413.61L2181.17 2413.48L2180.94 2413.76L2083.46 2531.8L1940.02 2478.31L1939.69 2478.19L1939.46 2478.46L1841.98 2596.51L1698.54 2543.02L1698.21 2542.89L1697.98 2543.17L1600.5 2661.21L1457.06 2607.72L1456.89 2608.19L1456.5 2607.87L1359.02 2725.92L1215.58 2672.43L1215.24 2672.3L1215.02 2672.58L1117.54 2790.62L974.097 2737.13L973.764 2737.01L973.537 2737.28L876.058 2855.33L732.616 2801.84Z" fill="#080708"/>
<path fill-rule="evenodd" clip-rule="evenodd" d="M755.968 2888.99L755.635 2888.87L755.408 2889.14L657.929 3007.18L514.487 2953.69L514.137 2954.63L657.913 3008.25L658.246 3008.37L658.473 3008.1L755.952 2890.05L899.394 2943.54L899.728 2943.67L899.955 2943.39L997.434 2825.35L1140.88 2878.84L1141.21 2878.96L1141.44 2878.69L1238.92 2760.64L1382.36 2814.13L1382.69 2814.26L1382.92 2813.98L1480.4 2695.94L1623.84 2749.43L1624.17 2749.55L1624.4 2749.28L1721.88 2631.23L1865.32 2684.72L1865.65 2684.85L1865.88 2684.57L1963.36 2566.53L2106.8 2620.02L2107.14 2620.14L2107.36 2619.87L2204.84 2501.82L2348.28 2555.31L2348.62 2555.44L2348.84 2555.16L2446.55 2436.84L2445.78 2436.21L2348.3 2554.25L2204.86 2500.76L2204.52 2500.64L2204.3 2500.91L2106.82 2618.96L1963.38 2565.47L1963.04 2565.34L1962.82 2565.62L1865.34 2683.66L1721.89 2630.17L1721.56 2630.05L1721.33 2630.32L1623.85 2748.37L1480.41 2694.88L1480.24 2695.34L1479.85 2695.03L1382.37 2813.07L1238.93 2759.58L1238.6 2759.46L1238.37 2759.73L1140.89 2877.78L997.45 2824.28L997.116 2824.16L996.889 2824.43L899.41 2942.48L755.968 2888.99Z" fill="#080708"/>
<path fill-rule="evenodd" clip-rule="evenodd" d="M779.321 2976.14L778.987 2976.02L778.76 2976.29L681.281 3094.34L537.839 3040.85L537.49 3041.78L681.265 3095.4L681.599 3095.52L681.826 3095.25L779.305 2977.2L922.747 3030.69L923.08 3030.82L923.307 3030.54L1020.79 2912.5L1164.23 2965.99L1164.56 2966.11L1164.79 2965.84L1262.27 2847.79L1405.71 2901.29L1406.04 2901.41L1406.27 2901.14L1503.75 2783.09L1647.19 2836.58L1647.52 2836.71L1647.75 2836.43L1745.23 2718.39L1888.67 2771.88L1889.01 2772L1889.23 2771.73L1986.71 2653.68L2130.15 2707.17L2130.49 2707.3L2130.71 2707.02L2228.19 2588.98L2371.64 2642.47L2371.97 2642.59L2372.2 2642.32L2469.9 2524L2469.13 2523.36L2371.65 2641.4L2228.21 2587.91L2227.88 2587.79L2227.65 2588.06L2130.17 2706.11L1986.73 2652.62L1986.39 2652.49L1986.17 2652.77L1888.69 2770.81L1745.25 2717.32L1744.91 2717.2L1744.69 2717.47L1647.21 2835.52L1503.77 2782.03L1503.59 2782.5L1503.2 2782.18L1405.73 2900.22L1262.28 2846.73L1261.95 2846.61L1261.72 2846.88L1164.24 2964.93L1020.8 2911.44L1020.47 2911.31L1020.24 2911.59L922.763 3029.63L779.321 2976.14Z" fill="#080708"/>
<path fill-rule="evenodd" clip-rule="evenodd" d="M802.673 3063.3L802.34 3063.17L802.113 3063.45L704.634 3181.49L561.192 3128L560.842 3128.94L704.618 3182.55L704.952 3182.68L705.178 3182.4L802.657 3064.36L946.099 3117.85L946.433 3117.97L946.66 3117.7L1044.14 2999.65L1187.58 3053.14L1187.91 3053.27L1188.14 3052.99L1285.62 2934.95L1429.06 2988.44L1429.4 2988.56L1429.62 2988.29L1527.1 2870.24L1670.54 2923.73L1670.88 2923.86L1671.1 2923.58L1768.58 2805.54L1912.03 2859.03L1912.36 2859.15L1912.59 2858.88L2010.06 2740.83L2153.51 2794.32L2153.84 2794.45L2154.07 2794.17L2251.55 2676.13L2394.99 2729.62L2395.32 2729.74L2395.55 2729.47L2493.25 2611.15L2492.48 2610.51L2395 2728.56L2251.56 2675.07L2251.23 2674.94L2251 2675.22L2153.52 2793.26L2010.08 2739.77L2009.75 2739.65L2009.52 2739.92L1912.04 2857.97L1768.6 2804.48L1768.27 2804.35L1768.04 2804.63L1670.56 2922.67L1527.12 2869.18L1526.94 2869.65L1526.56 2869.33L1429.08 2987.38L1285.64 2933.89L1285.3 2933.76L1285.08 2934.04L1187.6 3052.08L1044.15 2998.59L1043.82 2998.47L1043.59 2998.74L946.115 3116.79L802.673 3063.3Z" fill="#080708"/>
<path fill-rule="evenodd" clip-rule="evenodd" d="M826.026 3150.45L825.692 3150.32L825.466 3150.6L727.986 3268.64L584.544 3215.15L584.195 3216.09L727.971 3269.71L728.304 3269.83L728.531 3269.56L826.01 3151.51L969.452 3205L969.785 3205.13L970.012 3204.85L1067.49 3086.81L1210.93 3140.3L1211.27 3140.42L1211.49 3140.15L1308.97 3022.1L1452.41 3075.59L1452.75 3075.72L1452.98 3075.44L1550.45 2957.4L1693.9 3010.89L1694.23 3011.01L1694.46 3010.74L1791.94 2892.69L1935.38 2946.18L1935.71 2946.31L1935.94 2946.03L2033.42 2827.99L2176.86 2881.48L2177.19 2881.6L2177.42 2881.33L2274.9 2763.28L2418.34 2816.77L2418.67 2816.9L2418.9 2816.62L2516.61 2698.3L2515.84 2697.67L2418.36 2815.71L2274.91 2762.22L2274.58 2762.1L2274.35 2762.37L2176.88 2880.42L2033.43 2826.93L2033.1 2826.8L2032.87 2827.08L1935.39 2945.12L1791.95 2891.63L1791.62 2891.51L1791.39 2891.78L1693.91 3009.83L1550.47 2956.33L1550.3 2956.8L1549.91 2956.48L1452.43 3074.53L1308.99 3021.04L1308.66 3020.92L1308.43 3021.19L1210.95 3139.23L1067.51 3085.74L1067.17 3085.62L1066.95 3085.89L969.468 3203.94L826.026 3150.45Z" fill="#080708"/>
<path fill-rule="evenodd" clip-rule="evenodd" d="M849.378 3237.6L849.045 3237.48L848.818 3237.75L751.339 3355.8L607.897 3302.31L607.547 3303.24L751.323 3356.86L751.657 3356.98L751.883 3356.71L849.362 3238.66L992.804 3292.15L993.138 3292.28L993.365 3292L1090.84 3173.96L1234.29 3227.45L1234.62 3227.57L1234.85 3227.3L1332.33 3109.25L1475.77 3162.74L1476.1 3162.87L1476.33 3162.59L1573.81 3044.55L1717.25 3098.04L1717.58 3098.16L1717.81 3097.89L1815.29 2979.84L1958.73 3033.33L1959.06 3033.46L1959.29 3033.18L2056.77 2915.14L2200.21 2968.63L2200.55 2968.75L2200.77 2968.48L2298.25 2850.43L2441.69 2903.93L2442.03 2904.05L2442.25 2903.78L2539.96 2785.46L2539.19 2784.82L2441.71 2902.86L2298.27 2849.37L2297.93 2849.25L2297.71 2849.52L2200.23 2967.57L2056.79 2914.08L2056.45 2913.95L2056.23 2914.23L1958.75 3032.27L1815.3 2978.78L1814.97 2978.66L1814.74 2978.93L1717.26 3096.98L1573.82 3043.49L1573.65 3043.96L1573.26 3043.64L1475.78 3161.68L1332.34 3108.19L1332.01 3108.07L1331.78 3108.34L1234.3 3226.39L1090.86 3172.9L1090.53 3172.77L1090.3 3173.05L992.82 3291.09L849.378 3237.6Z" fill="#080708"/>
<path fill-rule="evenodd" clip-rule="evenodd" d="M872.731 3324.76L872.397 3324.63L872.171 3324.91L774.691 3442.95L631.249 3389.46L630.9 3390.4L774.676 3444.01L775.009 3444.14L775.236 3443.86L872.715 3325.82L1016.16 3379.31L1016.49 3379.43L1016.72 3379.16L1114.2 3261.11L1257.64 3314.6L1257.97 3314.73L1258.2 3314.45L1355.68 3196.41L1499.12 3249.9L1499.45 3250.02L1499.68 3249.75L1597.16 3131.7L1740.6 3185.19L1740.93 3185.32L1741.16 3185.04L1838.64 3067L1982.08 3120.49L1982.42 3120.61L1982.64 3120.34L2080.12 3002.29L2223.56 3055.78L2223.9 3055.91L2224.12 3055.63L2321.6 2937.59L2465.05 2991.08L2465.38 2991.2L2465.61 2990.93L2563.31 2872.61L2562.54 2871.97L2465.06 2990.02L2321.62 2936.53L2321.29 2936.4L2321.06 2936.68L2223.58 3054.72L2080.14 3001.23L2079.8 3001.11L2079.58 3001.38L1982.1 3119.43L1838.66 3065.94L1838.32 3065.81L1838.1 3066.09L1740.62 3184.13L1597.18 3130.64L1597 3131.11L1596.61 3130.79L1499.14 3248.84L1355.69 3195.35L1355.36 3195.22L1355.13 3195.5L1257.65 3313.54L1114.21 3260.05L1113.88 3259.93L1113.65 3260.2L1016.17 3378.25L872.731 3324.76Z" fill="#080708"/>
<path fill-rule="evenodd" clip-rule="evenodd" d="M896.084 3411.91L895.751 3411.78L895.524 3412.06L798.045 3530.1L654.603 3476.61L654.254 3477.55L798.029 3531.17L798.363 3531.29L798.589 3531.02L896.069 3412.97L1039.51 3466.46L1039.84 3466.58L1040.07 3466.31L1137.55 3348.27L1280.99 3401.76L1281.33 3401.88L1281.55 3401.61L1379.03 3283.56L1522.47 3337.05L1522.81 3337.18L1523.03 3336.9L1620.51 3218.86L1763.95 3272.35L1764.29 3272.47L1764.52 3272.2L1861.99 3154.15L2005.44 3207.64L2005.77 3207.77L2006 3207.49L2103.48 3089.45L2246.92 3142.94L2247.25 3143.06L2247.48 3142.79L2344.96 3024.74L2488.4 3078.23L2488.73 3078.36L2488.96 3078.08L2586.67 2959.76L2585.89 2959.13L2488.42 3077.17L2344.97 3023.68L2344.64 3023.56L2344.41 3023.83L2246.93 3141.88L2103.49 3088.38L2103.16 3088.26L2102.93 3088.53L2005.45 3206.58L1862.01 3153.09L1861.68 3152.97L1861.45 3153.24L1763.97 3271.28L1620.53 3217.79L1620.35 3218.26L1619.97 3217.94L1522.49 3335.99L1379.05 3282.5L1378.71 3282.37L1378.49 3282.65L1281.01 3400.69L1137.57 3347.2L1137.23 3347.08L1137.01 3347.35L1039.53 3465.4L896.084 3411.91Z" fill="#080708"/>
<path fill-rule="evenodd" clip-rule="evenodd" d="M919.437 3499.06L919.103 3498.94L918.877 3499.21L821.398 3617.26L677.955 3563.77L677.606 3564.7L821.382 3618.32L821.715 3618.44L821.942 3618.17L919.421 3500.12L1062.86 3553.61L1063.2 3553.74L1063.42 3553.46L1160.9 3435.42L1304.34 3488.91L1304.68 3489.03L1304.9 3488.76L1402.38 3370.71L1545.83 3424.2L1546.16 3424.33L1546.39 3424.05L1643.87 3306.01L1787.31 3359.5L1787.64 3359.62L1787.87 3359.35L1885.35 3241.3L2028.79 3294.79L2029.12 3294.92L2029.35 3294.64L2126.83 3176.6L2270.27 3230.09L2270.6 3230.21L2270.83 3229.94L2368.31 3111.89L2511.75 3165.38L2512.09 3165.51L2512.31 3165.23L2610.02 3046.91L2609.25 3046.28L2511.77 3164.32L2368.33 3110.83L2367.99 3110.71L2367.77 3110.98L2270.29 3229.03L2126.84 3175.54L2126.51 3175.41L2126.28 3175.69L2028.8 3293.73L1885.36 3240.24L1885.03 3240.12L1884.8 3240.39L1787.32 3358.44L1643.88 3304.95L1643.71 3305.42L1643.32 3305.1L1545.84 3423.14L1402.4 3369.65L1402.07 3369.53L1401.84 3369.8L1304.36 3487.85L1160.92 3434.36L1160.58 3434.23L1160.36 3434.51L1062.88 3552.55L919.437 3499.06Z" fill="#080708"/>
<path fill-rule="evenodd" clip-rule="evenodd" d="M942.789 3586.21L942.456 3586.09L942.229 3586.36L844.75 3704.41L701.308 3650.92L700.959 3651.86L844.734 3705.47L845.068 3705.6L845.294 3705.32L942.774 3587.28L1086.22 3640.77L1086.55 3640.89L1086.78 3640.62L1184.26 3522.57L1327.7 3576.06L1328.03 3576.19L1328.26 3575.91L1425.74 3457.87L1569.18 3511.36L1569.51 3511.48L1569.74 3511.21L1667.22 3393.16L1810.66 3446.65L1810.99 3446.78L1811.22 3446.5L1908.7 3328.46L2052.14 3381.95L2052.47 3382.07L2052.7 3381.8L2150.18 3263.75L2293.62 3317.24L2293.96 3317.37L2294.18 3317.09L2391.66 3199.05L2535.1 3252.54L2535.44 3252.66L2535.66 3252.39L2633.37 3134.07L2632.6 3133.43L2535.12 3251.48L2391.68 3197.99L2391.34 3197.86L2391.12 3198.14L2293.64 3316.18L2150.2 3262.69L2149.86 3262.57L2149.64 3262.84L2052.16 3380.89L1908.72 3327.4L1908.38 3327.27L1908.16 3327.55L1810.68 3445.59L1667.23 3392.1L1667.06 3392.57L1666.67 3392.25L1569.19 3510.3L1425.75 3456.81L1425.42 3456.68L1425.19 3456.96L1327.71 3575L1184.27 3521.51L1183.94 3521.39L1183.71 3521.66L1086.23 3639.71L942.789 3586.21Z" fill="#080708"/>
<path fill-rule="evenodd" clip-rule="evenodd" d="M966.142 3673.37L965.808 3673.24L965.582 3673.52L868.103 3791.56L724.661 3738.07L724.311 3739.01L868.087 3792.62L868.42 3792.75L868.647 3792.47L966.126 3674.43L1109.57 3727.92L1109.9 3728.04L1110.13 3727.77L1207.61 3609.72L1351.05 3663.21L1351.38 3663.34L1351.61 3663.06L1449.09 3545.02L1592.53 3598.51L1592.86 3598.63L1593.09 3598.36L1690.57 3480.31L1834.01 3533.81L1834.35 3533.93L1834.57 3533.66L1932.05 3415.61L2075.49 3469.1L2075.83 3469.22L2076.05 3468.95L2173.53 3350.91L2316.98 3404.4L2317.31 3404.52L2317.54 3404.25L2415.01 3286.2L2558.46 3339.69L2558.79 3339.82L2559.02 3339.54L2656.72 3221.22L2655.95 3220.58L2558.47 3338.63L2415.03 3285.14L2414.7 3285.01L2414.47 3285.29L2316.99 3403.33L2173.55 3349.84L2173.22 3349.72L2172.99 3349.99L2075.51 3468.04L1932.07 3414.55L1931.73 3414.42L1931.51 3414.7L1834.03 3532.74L1690.59 3479.25L1690.41 3479.72L1690.03 3479.4L1592.55 3597.45L1449.1 3543.96L1448.77 3543.83L1448.54 3544.11L1351.07 3662.15L1207.62 3608.66L1207.29 3608.54L1207.06 3608.81L1109.58 3726.86L966.142 3673.37Z" fill="#080708"/>
<path fill-rule="evenodd" clip-rule="evenodd" d="M989.495 3760.52L989.161 3760.4L988.934 3760.67L891.455 3878.72L748.013 3825.23L747.664 3826.16L891.439 3879.78L891.773 3879.9L892 3879.63L989.479 3761.58L1132.92 3815.07L1133.25 3815.2L1133.48 3814.92L1230.96 3696.88L1374.4 3750.37L1374.74 3750.49L1374.96 3750.22L1472.44 3632.17L1615.88 3685.66L1616.22 3685.79L1616.44 3685.51L1713.92 3567.47L1857.37 3620.96L1857.7 3621.08L1857.93 3620.81L1955.4 3502.76L2098.85 3556.25L2099.18 3556.38L2099.41 3556.1L2196.89 3438.06L2340.33 3491.55L2340.66 3491.67L2340.89 3491.4L2438.37 3373.35L2581.81 3426.84L2582.14 3426.97L2582.37 3426.69L2680.08 3308.37L2679.3 3307.74L2581.83 3425.78L2438.38 3372.29L2438.05 3372.17L2437.82 3372.44L2340.34 3490.49L2196.9 3437L2196.57 3436.87L2196.34 3437.15L2098.86 3555.19L1955.42 3501.7L1955.09 3501.58L1954.86 3501.85L1857.38 3619.9L1713.94 3566.41L1713.76 3566.88L1713.38 3566.56L1615.9 3684.6L1472.46 3631.11L1472.12 3630.99L1471.9 3631.26L1374.42 3749.31L1230.98 3695.82L1230.64 3695.69L1230.42 3695.97L1132.94 3814.01L989.495 3760.52Z" fill="#080708"/>
<path fill-rule="evenodd" clip-rule="evenodd" d="M1012.85 3847.67L1012.51 3847.55L1012.29 3847.82L914.808 3965.87L771.366 3912.38L771.016 3913.32L914.792 3966.93L915.125 3967.05L915.352 3966.78L1012.83 3848.74L1156.27 3902.23L1156.61 3902.35L1156.83 3902.08L1254.31 3784.03L1397.75 3837.52L1398.09 3837.65L1398.32 3837.37L1495.79 3719.33L1639.24 3772.82L1639.57 3772.94L1639.8 3772.67L1737.28 3654.62L1880.72 3708.11L1881.05 3708.24L1881.28 3707.96L1978.76 3589.92L2122.2 3643.41L2122.53 3643.53L2122.76 3643.26L2220.24 3525.21L2363.68 3578.7L2364.01 3578.83L2364.24 3578.55L2461.72 3460.51L2605.16 3514L2605.5 3514.12L2605.72 3513.85L2703.43 3395.53L2702.66 3394.89L2605.18 3512.94L2461.74 3459.45L2461.4 3459.32L2461.18 3459.6L2363.7 3577.64L2220.25 3524.15L2219.92 3524.03L2219.69 3524.3L2122.21 3642.35L1978.77 3588.85L1978.44 3588.73L1978.21 3589L1880.73 3707.05L1737.29 3653.56L1737.12 3654.03L1736.73 3653.71L1639.25 3771.75L1495.81 3718.26L1495.48 3718.14L1495.25 3718.41L1397.77 3836.46L1254.33 3782.97L1253.99 3782.84L1253.77 3783.12L1156.29 3901.16L1012.85 3847.67Z" fill="#080708"/>
<path fill-rule="evenodd" clip-rule="evenodd" d="M1036.2 3934.83L1035.87 3934.7L1035.64 3934.98L938.16 4053.02L794.718 3999.53L794.369 4000.47L938.144 4054.08L938.478 4054.21L938.705 4053.93L1036.18 3935.89L1179.63 3989.38L1179.96 3989.5L1180.19 3989.23L1277.67 3871.18L1421.11 3924.67L1421.44 3924.8L1421.67 3924.52L1519.15 3806.48L1662.59 3859.97L1662.92 3860.09L1663.15 3859.82L1760.63 3741.77L1904.07 3795.26L1904.4 3795.39L1904.63 3795.11L2002.11 3677.07L2145.55 3730.56L2145.89 3730.68L2146.11 3730.41L2243.59 3612.36L2387.03 3665.86L2387.37 3665.98L2387.59 3665.71L2485.07 3547.66L2628.51 3601.15L2628.85 3601.27L2629.07 3601L2726.78 3482.68L2726.01 3482.04L2628.53 3600.09L2485.09 3546.6L2484.75 3546.47L2484.53 3546.75L2387.05 3664.79L2243.61 3611.3L2243.27 3611.18L2243.05 3611.45L2145.57 3729.5L2002.13 3676.01L2001.79 3675.88L2001.57 3676.16L1904.09 3794.2L1760.64 3740.71L1760.47 3741.18L1760.08 3740.86L1662.6 3858.91L1519.16 3805.42L1518.83 3805.29L1518.6 3805.57L1421.12 3923.61L1277.68 3870.12L1277.35 3870L1277.12 3870.27L1179.64 3988.32L1036.2 3934.83Z" fill="#080708"/>
<path fill-rule="evenodd" clip-rule="evenodd" d="M1059.55 4021.98L1059.22 4021.86L1058.99 4022.13L961.513 4140.18L818.071 4086.69L817.721 4087.62L961.497 4141.24L961.83 4141.36L962.057 4141.09L1059.54 4023.04L1202.98 4076.53L1203.31 4076.66L1203.54 4076.38L1301.02 3958.34L1444.46 4011.83L1444.79 4011.95L1445.02 4011.68L1542.5 3893.63L1685.94 3947.12L1686.27 3947.25L1686.5 3946.97L1783.98 3828.93L1927.42 3882.42L1927.76 3882.54L1927.98 3882.27L2025.46 3764.22L2168.9 3817.71L2169.24 3817.84L2169.46 3817.56L2266.94 3699.52L2410.39 3753.01L2410.72 3753.13L2410.95 3752.86L2508.42 3634.81L2651.87 3688.3L2652.2 3688.43L2652.43 3688.15L2750.13 3569.83L2749.36 3569.2L2651.88 3687.24L2508.44 3633.75L2508.11 3633.63L2507.88 3633.9L2410.4 3751.95L2266.96 3698.46L2266.63 3698.33L2266.4 3698.61L2168.92 3816.65L2025.48 3763.16L2025.14 3763.04L2024.92 3763.31L1927.44 3881.36L1784 3827.87L1783.82 3828.33L1783.44 3828.02L1685.96 3946.06L1542.52 3892.57L1542.18 3892.45L1541.95 3892.72L1444.48 4010.77L1301.03 3957.28L1300.7 3957.15L1300.47 3957.43L1202.99 4075.47L1059.55 4021.98Z" fill="#080708"/>
<path fill-rule="evenodd" clip-rule="evenodd" d="M1082.9 4109.13L1082.57 4109.01L1082.34 4109.28L984.865 4227.33L841.423 4173.84L841.074 4174.77L984.849 4228.39L985.183 4228.51L985.41 4228.24L1082.89 4110.19L1226.33 4163.69L1226.66 4163.81L1226.89 4163.54L1324.37 4045.49L1467.81 4098.98L1468.15 4099.1L1468.37 4098.83L1565.85 3980.78L1709.29 4034.28L1709.63 4034.4L1709.85 4034.13L1807.33 3916.08L1950.78 3969.57L1951.11 3969.7L1951.34 3969.42L2048.81 3851.38L2192.26 3904.87L2192.59 3904.99L2192.82 3904.72L2290.3 3786.67L2433.74 3840.16L2434.07 3840.29L2434.3 3840.01L2531.78 3721.97L2675.22 3775.46L2675.55 3775.58L2675.78 3775.31L2773.49 3656.99L2772.71 3656.35L2675.24 3774.4L2531.79 3720.9L2531.46 3720.78L2531.23 3721.05L2433.75 3839.1L2290.31 3785.61L2289.98 3785.48L2289.75 3785.76L2192.27 3903.8L2048.83 3850.31L2048.5 3850.19L2048.27 3850.46L1950.79 3968.51L1807.35 3915.02L1807.17 3915.49L1806.79 3915.17L1709.31 4033.21L1565.87 3979.72L1565.53 3979.6L1565.31 3979.87L1467.83 4097.92L1324.39 4044.43L1324.05 4044.3L1323.83 4044.58L1226.35 4162.62L1082.9 4109.13Z" fill="#080708"/>
<path fill-rule="evenodd" clip-rule="evenodd" d="M1106.26 4196.29L1105.92 4196.16L1105.7 4196.44L1008.22 4314.48L864.776 4260.99L864.426 4261.93L1008.2 4315.54L1008.54 4315.67L1008.76 4315.39L1106.24 4197.35L1249.68 4250.84L1250.02 4250.96L1250.24 4250.69L1347.72 4132.64L1491.16 4186.13L1491.5 4186.26L1491.73 4185.98L1589.2 4067.94L1732.65 4121.43L1732.98 4121.55L1733.21 4121.28L1830.69 4003.23L1974.13 4056.72L1974.46 4056.85L1974.69 4056.57L2072.17 3938.53L2215.61 3992.02L2215.94 3992.14L2216.17 3991.87L2313.65 3873.82L2457.09 3927.31L2457.42 3927.44L2457.65 3927.16L2555.13 3809.12L2698.57 3862.61L2698.91 3862.73L2699.13 3862.46L2796.84 3744.14L2796.07 3743.5L2698.59 3861.55L2555.15 3808.06L2554.81 3807.93L2554.59 3808.21L2457.11 3926.25L2313.66 3872.76L2313.33 3872.64L2313.1 3872.91L2215.63 3990.96L2072.18 3937.47L2071.85 3937.34L2071.62 3937.62L1974.14 4055.66L1830.7 4002.17L1830.53 4002.64L1830.14 4002.32L1732.66 4120.37L1589.22 4066.88L1588.89 4066.75L1588.66 4067.03L1491.18 4185.07L1347.74 4131.58L1347.41 4131.46L1347.18 4131.73L1249.7 4249.78L1106.26 4196.29Z" fill="#080708"/>
<path fill-rule="evenodd" clip-rule="evenodd" d="M1129.61 4283.44L1129.28 4283.31L1129.05 4283.59L1031.57 4401.63L888.128 4348.14L887.779 4349.08L1031.55 4402.7L1031.89 4402.82L1032.11 4402.55L1129.59 4284.5L1273.04 4337.99L1273.37 4338.12L1273.6 4337.84L1371.08 4219.8L1514.52 4273.29L1514.85 4273.41L1515.08 4273.14L1612.56 4155.09L1756 4208.58L1756.33 4208.71L1756.56 4208.43L1854.04 4090.39L1997.48 4143.88L1997.81 4144L1998.04 4143.73L2095.52 4025.68L2238.96 4079.17L2239.3 4079.3L2239.52 4079.02L2337 3960.98L2480.44 4014.47L2480.78 4014.59L2481 4014.32L2578.48 3896.27L2721.92 3949.76L2722.26 3949.89L2722.48 3949.61L2820.19 3831.29L2819.42 3830.66L2721.94 3948.7L2578.5 3895.21L2578.16 3895.09L2577.94 3895.36L2480.46 4013.41L2337.02 3959.92L2336.68 3959.79L2336.46 3960.07L2238.98 4078.11L2095.54 4024.62L2095.2 4024.5L2094.98 4024.77L1997.5 4142.82L1854.05 4089.33L1853.88 4089.79L1853.49 4089.48L1756.01 4207.52L1612.57 4154.03L1612.24 4153.91L1612.01 4154.18L1514.53 4272.23L1371.09 4218.73L1370.76 4218.61L1370.53 4218.88L1273.05 4336.93L1129.61 4283.44Z" fill="#080708"/>
<path fill-rule="evenodd" clip-rule="evenodd" d="M1152.96 4370.59L1152.63 4370.47L1152.4 4370.74L1054.92 4488.79L911.481 4435.3L911.131 4436.23L1054.91 4489.85L1055.24 4489.97L1055.47 4489.7L1152.95 4371.65L1296.39 4425.14L1296.72 4425.27L1296.95 4424.99L1394.43 4306.95L1537.87 4360.44L1538.2 4360.56L1538.43 4360.29L1635.91 4242.24L1779.35 4295.74L1779.68 4295.86L1779.91 4295.58L1877.39 4177.54L2020.83 4231.03L2021.17 4231.15L2021.39 4230.88L2118.87 4112.83L2262.31 4166.33L2262.65 4166.45L2262.87 4166.18L2360.35 4048.13L2503.8 4101.62L2504.13 4101.75L2504.36 4101.47L2601.84 3983.43L2745.28 4036.92L2745.61 4037.04L2745.84 4036.77L2843.54 3918.45L2842.77 3917.81L2745.29 4035.85L2601.85 3982.36L2601.52 3982.24L2601.29 3982.51L2503.81 4100.56L2360.37 4047.07L2360.04 4046.94L2359.81 4047.22L2262.33 4165.26L2118.89 4111.77L2118.55 4111.65L2118.33 4111.92L2020.85 4229.97L1877.41 4176.48L1877.23 4176.95L1876.85 4176.63L1779.37 4294.67L1635.93 4241.18L1635.59 4241.06L1635.36 4241.33L1537.89 4359.38L1394.44 4305.89L1394.11 4305.76L1393.88 4306.04L1296.4 4424.08L1152.96 4370.59Z" fill="#080708"/>
<path fill-rule="evenodd" clip-rule="evenodd" d="M2174.62 453.833L2174.29 453.709L2174.06 453.983L2076.58 572.028L1933.14 518.538L1932.79 519.475L2076.57 573.09L2076.9 573.214L2077.13 572.94L2174.61 454.894L2318.05 508.385L2318.38 508.51L2318.61 508.235L2416.09 390.19L2559.53 443.68L2559.86 443.805L2560.09 443.53L2657.57 325.485L2801.01 378.976L2801.35 379.1L2801.57 378.825L2899.05 260.78L3042.49 314.271L3042.83 314.395L3043.05 314.121L3140.53 196.075L3283.98 249.566L3284.31 249.69L3284.54 249.416L3382.01 131.371L3525.46 184.861L3525.79 184.986L3526.02 184.711L3623.5 66.6659L3766.94 120.157L3767.27 120.281L3767.5 120.006L3865.2 1.68664L3864.43 1.04988L3766.95 119.095L3623.51 65.6045L3623.18 65.4802L3622.95 65.7547L3525.47 183.8L3382.03 130.309L3381.7 130.185L3381.47 130.459L3283.99 248.505L3140.55 195.014L3140.22 194.89L3139.99 195.164L3042.51 313.209L2899.07 259.719L2898.89 260.187L2898.51 259.869L2801.03 377.914L2657.59 324.424L2657.25 324.299L2657.03 324.574L2559.55 442.619L2416.1 389.128L2415.77 389.004L2415.54 389.278L2318.07 507.324L2174.62 453.833Z" fill="#080708"/>
<path fill-rule="evenodd" clip-rule="evenodd" d="M2197.98 540.986L2197.64 540.862L2197.42 541.136L2099.94 659.182L1956.49 605.691L1956.15 606.628L2099.92 660.243L2100.25 660.367L2100.48 660.093L2197.96 542.048L2341.4 595.538L2341.74 595.663L2341.96 595.388L2439.44 477.343L2582.88 530.833L2583.22 530.958L2583.44 530.683L2680.92 412.638L2824.37 466.129L2824.7 466.253L2824.93 465.979L2922.4 347.933L3065.85 401.424L3066.18 401.548L3066.41 401.274L3163.89 283.229L3307.33 336.719L3307.66 336.844L3307.89 336.569L3405.37 218.524L3548.81 272.014L3549.14 272.139L3549.37 271.864L3646.85 153.819L3790.29 207.31L3790.62 207.434L3790.85 207.159L3888.56 88.8397L3887.79 88.203L3790.31 206.248L3646.86 152.758L3646.53 152.633L3646.3 152.908L3548.83 270.953L3405.38 217.462L3405.05 217.338L3404.82 217.612L3307.34 335.658L3163.9 282.167L3163.57 282.043L3163.34 282.317L3065.86 400.363L2922.42 346.872L2922.25 347.34L2921.86 347.022L2824.38 465.067L2680.94 411.577L2680.61 411.452L2680.38 411.727L2582.9 529.772L2439.46 476.281L2439.12 476.157L2438.9 476.432L2341.42 594.477L2197.98 540.986Z" fill="#080708"/>
<path fill-rule="evenodd" clip-rule="evenodd" d="M2221.33 628.139L2220.99 628.015L2220.77 628.289L2123.29 746.335L1979.85 692.844L1979.5 693.781L2123.27 747.396L2123.61 747.52L2123.83 747.246L2221.31 629.201L2364.75 682.691L2365.09 682.816L2365.31 682.541L2462.79 564.496L2606.24 617.986L2606.57 618.111L2606.8 617.836L2704.28 499.791L2847.72 553.282L2848.05 553.406L2848.28 553.132L2945.76 435.086L3089.2 488.577L3089.53 488.701L3089.76 488.427L3187.24 370.382L3330.68 423.872L3331.01 423.997L3331.24 423.722L3428.72 305.677L3572.16 359.167L3572.5 359.292L3572.72 359.017L3670.2 240.972L3813.64 294.463L3813.98 294.587L3814.2 294.313L3911.91 175.993L3911.14 175.356L3813.66 293.401L3670.22 239.911L3669.88 239.786L3669.66 240.061L3572.18 358.106L3428.74 304.615L3428.4 304.491L3428.18 304.766L3330.7 422.811L3187.25 369.32L3186.92 369.196L3186.69 369.47L3089.21 487.516L2945.77 434.025L2945.6 434.493L2945.21 434.175L2847.73 552.22L2704.29 498.73L2703.96 498.605L2703.73 498.88L2606.25 616.925L2462.81 563.434L2462.48 563.31L2462.25 563.585L2364.77 681.63L2221.33 628.139Z" fill="#080708"/>
<path fill-rule="evenodd" clip-rule="evenodd" d="M2244.68 715.292L2244.35 715.168L2244.12 715.442L2146.64 833.488L2003.2 779.997L2002.85 780.934L2146.63 834.549L2146.96 834.673L2147.19 834.399L2244.67 716.354L2388.11 769.844L2388.44 769.969L2388.67 769.694L2486.15 651.649L2629.59 705.14L2629.92 705.264L2630.15 704.989L2727.63 586.944L2871.07 640.435L2871.4 640.559L2871.63 640.285L2969.11 522.239L3112.55 575.73L3112.89 575.854L3113.11 575.58L3210.59 457.535L3354.03 511.025L3354.37 511.15L3354.59 510.875L3452.07 392.83L3595.51 446.321L3595.85 446.445L3596.07 446.17L3693.55 328.125L3837 381.616L3837.33 381.74L3837.56 381.466L3935.26 263.146L3934.49 262.509L3837.01 380.554L3693.57 327.064L3693.24 326.939L3693.01 327.214L3595.53 445.259L3452.09 391.769L3451.75 391.644L3451.53 391.919L3354.05 509.964L3210.61 456.473L3210.27 456.349L3210.05 456.623L3112.57 574.669L2969.13 521.178L2968.95 521.647L2968.57 521.328L2871.09 639.373L2727.64 585.883L2727.31 585.758L2727.08 586.033L2629.6 704.078L2486.16 650.588L2485.83 650.463L2485.6 650.738L2388.12 768.783L2244.68 715.292Z" fill="#080708"/>
<path fill-rule="evenodd" clip-rule="evenodd" d="M2268.03 802.446L2267.7 802.321L2267.47 802.596L2169.99 920.641L2026.55 867.15L2026.2 868.087L2169.98 921.702L2170.31 921.827L2170.54 921.552L2268.02 803.507L2411.46 856.998L2411.79 857.122L2412.02 856.848L2509.5 738.802L2652.94 792.293L2653.27 792.417L2653.5 792.143L2750.98 674.097L2894.42 727.588L2894.76 727.713L2894.98 727.438L2992.46 609.393L3135.9 662.883L3136.24 663.008L3136.46 662.733L3233.94 544.688L3377.39 598.179L3377.72 598.303L3377.95 598.028L3475.42 479.983L3618.87 533.474L3619.2 533.598L3619.43 533.324L3716.91 415.278L3860.35 468.769L3860.68 468.893L3860.91 468.619L3958.61 350.299L3957.84 349.662L3860.36 467.708L3716.92 414.217L3716.59 414.093L3716.36 414.367L3618.88 532.412L3475.44 478.922L3475.11 478.797L3474.88 479.072L3377.4 597.117L3233.96 543.627L3233.63 543.502L3233.4 543.777L3135.92 661.822L2992.48 608.331L2992.3 608.8L2991.92 608.481L2894.44 726.527L2751 673.036L2750.66 672.912L2750.44 673.186L2652.96 791.232L2509.52 737.741L2509.18 737.617L2508.95 737.891L2411.48 855.936L2268.03 802.446Z" fill="#080708"/>
<path fill-rule="evenodd" clip-rule="evenodd" d="M2291.39 889.599L2291.05 889.474L2290.83 889.749L2193.35 1007.79L2049.9 954.303L2049.56 955.24L2193.33 1008.86L2193.66 1008.98L2193.89 1008.71L2291.37 890.66L2434.81 944.151L2435.15 944.275L2435.37 944.001L2532.85 825.955L2676.29 879.446L2676.63 879.57L2676.85 879.296L2774.33 761.251L2917.78 814.741L2918.11 814.866L2918.34 814.591L3015.81 696.546L3159.26 750.036L3159.59 750.161L3159.82 749.886L3257.3 631.841L3400.74 685.332L3401.07 685.456L3401.3 685.182L3498.78 567.136L3642.22 620.627L3642.55 620.751L3642.78 620.477L3740.26 502.432L3883.7 555.922L3884.03 556.047L3884.26 555.772L3981.97 437.452L3981.2 436.816L3883.72 554.861L3740.27 501.37L3739.94 501.246L3739.71 501.52L3642.24 619.566L3498.79 566.075L3498.46 565.951L3498.23 566.225L3400.75 684.27L3257.31 630.78L3256.98 630.655L3256.75 630.93L3159.27 748.975L3015.83 695.484L3015.66 695.953L3015.27 695.635L2917.79 813.68L2774.35 760.189L2774.02 760.065L2773.79 760.339L2676.31 878.385L2532.87 824.894L2532.53 824.77L2532.31 825.044L2434.83 943.089L2291.39 889.599Z" fill="#080708"/>
<path fill-rule="evenodd" clip-rule="evenodd" d="M2314.74 976.752L2314.41 976.627L2314.18 976.902L2216.7 1094.95L2073.26 1041.46L2072.91 1042.39L2216.68 1096.01L2217.02 1096.13L2217.24 1095.86L2314.72 977.813L2458.16 1031.3L2458.5 1031.43L2458.73 1031.15L2556.2 913.108L2699.65 966.599L2699.98 966.723L2700.21 966.449L2797.69 848.404L2941.13 901.894L2941.46 902.019L2941.69 901.744L3039.17 783.699L3182.61 837.19L3182.94 837.314L3183.17 837.039L3280.65 718.994L3424.09 772.485L3424.42 772.609L3424.65 772.335L3522.13 654.289L3665.57 707.78L3665.91 707.904L3666.13 707.63L3763.61 589.585L3907.05 643.075L3907.39 643.2L3907.61 642.925L4005.32 524.605L4004.55 523.969L3907.07 642.014L3763.63 588.523L3763.29 588.399L3763.07 588.673L3665.59 706.719L3522.15 653.228L3521.81 653.104L3521.59 653.378L3424.11 771.423L3280.66 717.933L3280.33 717.808L3280.1 718.083L3182.63 836.128L3039.18 782.638L3039.01 783.106L3038.62 782.788L2941.14 900.833L2797.7 847.342L2797.37 847.218L2797.14 847.492L2699.66 965.538L2556.22 912.047L2555.89 911.923L2555.66 912.197L2458.18 1030.24L2314.74 976.752Z" fill="#080708"/>
<path fill-rule="evenodd" clip-rule="evenodd" d="M2338.09 1063.9L2337.76 1063.78L2337.53 1064.05L2240.05 1182.1L2096.61 1128.61L2096.26 1129.55L2240.04 1183.16L2240.37 1183.29L2240.6 1183.01L2338.08 1064.97L2481.52 1118.46L2481.85 1118.58L2482.08 1118.31L2579.56 1000.26L2723 1053.75L2723.33 1053.88L2723.56 1053.6L2821.04 935.557L2964.48 989.047L2964.81 989.172L2965.04 988.897L3062.52 870.852L3205.96 924.343L3206.3 924.467L3206.52 924.192L3304 806.147L3447.44 859.638L3447.78 859.762L3448 859.488L3545.48 741.442L3688.92 794.933L3689.26 795.057L3689.48 794.783L3786.96 676.738L3930.41 730.228L3930.74 730.353L3930.97 730.078L4028.67 611.758L4027.9 611.122L3930.42 729.167L3786.98 675.676L3786.65 675.552L3786.42 675.826L3688.94 793.872L3545.5 740.381L3545.16 740.257L3544.94 740.531L3447.46 858.576L3304.02 805.086L3303.68 804.961L3303.46 805.236L3205.98 923.281L3062.54 869.791L3062.36 870.259L3061.98 869.941L2964.5 987.986L2821.05 934.495L2820.72 934.371L2820.49 934.645L2723.01 1052.69L2579.57 999.2L2579.24 999.076L2579.01 999.35L2481.53 1117.4L2338.09 1063.9Z" fill="#080708"/>
<path fill-rule="evenodd" clip-rule="evenodd" d="M2361.44 1151.06L2361.11 1150.93L2360.88 1151.21L2263.41 1269.25L2119.96 1215.76L2119.61 1216.7L2263.39 1270.31L2263.72 1270.44L2263.95 1270.16L2361.43 1152.12L2504.87 1205.61L2505.2 1205.73L2505.43 1205.46L2602.91 1087.41L2746.35 1140.91L2746.69 1141.03L2746.91 1140.76L2844.39 1022.71L2987.83 1076.2L2988.17 1076.32L2988.39 1076.05L3085.87 958.005L3229.32 1011.5L3229.65 1011.62L3229.88 1011.35L3327.35 893.3L3470.8 946.791L3471.13 946.915L3471.36 946.641L3568.84 828.596L3712.28 882.086L3712.61 882.211L3712.84 881.936L3810.32 763.891L3953.76 817.381L3954.09 817.506L3954.32 817.231L4052.03 698.911L4051.25 698.275L3953.78 816.32L3810.33 762.829L3810 762.705L3809.77 762.98L3712.29 881.025L3568.85 827.534L3568.52 827.41L3568.29 827.684L3470.81 945.73L3327.37 892.239L3327.04 892.115L3326.81 892.389L3229.33 1010.43L3085.89 956.944L3085.71 957.412L3085.33 957.094L2987.85 1075.14L2844.41 1021.65L2844.07 1021.52L2843.85 1021.8L2746.37 1139.84L2602.93 1086.35L2602.59 1086.23L2602.37 1086.5L2504.89 1204.55L2361.44 1151.06Z" fill="#080708"/>
<path fill-rule="evenodd" clip-rule="evenodd" d="M2384.8 1238.21L2384.46 1238.09L2384.24 1238.36L2286.76 1356.41L2143.32 1302.92L2142.97 1303.85L2286.74 1357.47L2287.08 1357.59L2287.3 1357.32L2384.78 1239.27L2528.22 1292.76L2528.56 1292.89L2528.78 1292.61L2626.26 1174.57L2769.7 1228.06L2770.04 1228.18L2770.27 1227.91L2867.74 1109.86L3011.19 1163.35L3011.52 1163.48L3011.75 1163.2L3109.23 1045.16L3252.67 1098.65L3253 1098.77L3253.23 1098.5L3350.71 980.454L3494.15 1033.94L3494.48 1034.07L3494.71 1033.79L3592.19 915.749L3735.63 969.239L3735.96 969.364L3736.19 969.089L3833.67 851.044L3977.11 904.535L3977.45 904.659L3977.67 904.385L4075.38 786.065L4074.61 785.428L3977.13 903.473L3833.69 849.983L3833.35 849.858L3833.13 850.133L3735.65 968.178L3592.2 914.687L3591.87 914.563L3591.64 914.838L3494.17 1032.88L3350.72 979.392L3350.39 979.268L3350.16 979.542L3252.68 1097.59L3109.24 1044.1L3109.07 1044.57L3108.68 1044.25L3011.2 1162.29L2867.76 1108.8L2867.43 1108.68L2867.2 1108.95L2769.72 1227L2626.28 1173.51L2625.95 1173.38L2625.72 1173.66L2528.24 1291.7L2384.8 1238.21Z" fill="#080708"/>
<path fill-rule="evenodd" clip-rule="evenodd" d="M2408.15 1325.36L2407.82 1325.24L2407.59 1325.51L2310.11 1443.56L2166.67 1390.07L2166.32 1391.01L2310.09 1444.62L2310.43 1444.75L2310.65 1444.47L2408.13 1326.43L2551.58 1379.92L2551.91 1380.04L2552.14 1379.77L2649.62 1261.72L2793.06 1315.21L2793.39 1315.34L2793.62 1315.06L2891.1 1197.02L3034.54 1250.51L3034.87 1250.63L3035.1 1250.36L3132.58 1132.31L3276.02 1185.8L3276.35 1185.93L3276.58 1185.65L3374.06 1067.61L3517.5 1121.1L3517.84 1121.22L3518.06 1120.95L3615.54 1002.9L3758.98 1056.39L3759.32 1056.52L3759.54 1056.24L3857.02 938.197L4000.46 991.688L4000.8 991.812L4001.02 991.537L4098.73 873.218L4097.96 872.581L4000.48 990.626L3857.04 937.136L3856.7 937.011L3856.48 937.286L3759 1055.33L3615.56 1001.84L3615.22 1001.72L3615 1001.99L3517.52 1120.04L3374.08 1066.55L3373.74 1066.42L3373.52 1066.7L3276.04 1184.74L3132.59 1131.25L3132.42 1131.72L3132.03 1131.4L3034.55 1249.45L2891.11 1195.95L2890.78 1195.83L2890.55 1196.1L2793.07 1314.15L2649.63 1260.66L2649.3 1260.53L2649.07 1260.81L2551.59 1378.85L2408.15 1325.36Z" fill="#080708"/>
<path fill-rule="evenodd" clip-rule="evenodd" d="M2431.5 1412.52L2431.17 1412.39L2430.94 1412.67L2333.46 1530.71L2190.02 1477.22L2189.67 1478.16L2333.45 1531.77L2333.78 1531.9L2334.01 1531.62L2431.49 1413.58L2574.93 1467.07L2575.26 1467.19L2575.49 1466.92L2672.97 1348.87L2816.41 1402.36L2816.74 1402.49L2816.97 1402.21L2914.45 1284.17L3057.89 1337.66L3058.23 1337.78L3058.45 1337.51L3155.93 1219.46L3299.37 1272.96L3299.71 1273.08L3299.93 1272.81L3397.41 1154.76L3540.85 1208.25L3541.19 1208.37L3541.41 1208.1L3638.89 1090.05L3782.34 1143.55L3782.67 1143.67L3782.9 1143.4L3880.38 1025.35L4023.82 1078.84L4024.15 1078.97L4024.38 1078.69L4122.08 960.371L4121.31 959.734L4023.83 1077.78L3880.39 1024.29L3880.06 1024.16L3879.83 1024.44L3782.35 1142.48L3638.91 1088.99L3638.58 1088.87L3638.35 1089.14L3540.87 1207.19L3397.43 1153.7L3397.09 1153.57L3396.87 1153.85L3299.39 1271.89L3155.95 1218.4L3155.77 1218.87L3155.39 1218.55L3057.91 1336.6L2914.47 1283.11L2914.13 1282.98L2913.9 1283.26L2816.43 1401.3L2672.98 1347.81L2672.65 1347.69L2672.42 1347.96L2574.94 1466.01L2431.5 1412.52Z" fill="#080708"/>
<path fill-rule="evenodd" clip-rule="evenodd" d="M2454.85 1499.67L2454.52 1499.55L2454.29 1499.82L2356.82 1617.87L2213.37 1564.38L2213.02 1565.31L2356.8 1618.93L2357.13 1619.05L2357.36 1618.78L2454.84 1500.73L2598.28 1554.22L2598.61 1554.35L2598.84 1554.07L2696.32 1436.03L2839.76 1489.52L2840.1 1489.64L2840.32 1489.37L2937.8 1371.32L3081.24 1424.81L3081.58 1424.94L3081.8 1424.66L3179.28 1306.62L3322.73 1360.11L3323.06 1360.23L3323.29 1359.96L3420.76 1241.91L3564.21 1295.4L3564.54 1295.53L3564.77 1295.25L3662.25 1177.21L3805.69 1230.7L3806.02 1230.82L3806.25 1230.55L3903.73 1112.5L4047.17 1165.99L4047.5 1166.12L4047.73 1165.84L4145.44 1047.52L4144.66 1046.89L4047.19 1164.93L3903.74 1111.44L3903.41 1111.32L3903.18 1111.59L3805.7 1229.64L3662.26 1176.15L3661.93 1176.02L3661.7 1176.3L3564.22 1294.34L3420.78 1240.85L3420.45 1240.73L3420.22 1241L3322.74 1359.05L3179.3 1305.56L3179.12 1306.02L3178.74 1305.71L3081.26 1423.75L2937.82 1370.26L2937.48 1370.14L2937.26 1370.41L2839.78 1488.46L2696.34 1434.97L2696 1434.84L2695.78 1435.12L2598.3 1553.16L2454.85 1499.67Z" fill="#080708"/>
<path fill-rule="evenodd" clip-rule="evenodd" d="M2478.21 1586.82L2477.87 1586.7L2477.65 1586.97L2380.17 1705.02L2236.73 1651.53L2236.38 1652.47L2380.15 1706.08L2380.49 1706.2L2380.71 1705.93L2478.19 1587.88L2621.63 1641.38L2621.97 1641.5L2622.19 1641.23L2719.67 1523.18L2863.12 1576.67L2863.45 1576.8L2863.68 1576.52L2961.15 1458.48L3104.6 1511.97L3104.93 1512.09L3105.16 1511.82L3202.64 1393.77L3346.08 1447.26L3346.41 1447.39L3346.64 1447.11L3444.12 1329.07L3587.56 1382.56L3587.89 1382.68L3588.12 1382.41L3685.6 1264.36L3829.04 1317.85L3829.37 1317.98L3829.6 1317.7L3927.08 1199.66L4070.52 1253.15L4070.86 1253.27L4071.08 1253L4168.79 1134.68L4168.02 1134.04L4070.54 1252.09L3927.1 1198.6L3926.76 1198.47L3926.54 1198.75L3829.06 1316.79L3685.61 1263.3L3685.28 1263.18L3685.05 1263.45L3587.58 1381.5L3444.13 1328L3443.8 1327.88L3443.57 1328.15L3346.09 1446.2L3202.65 1392.71L3202.48 1393.18L3202.09 1392.86L3104.61 1510.9L2961.17 1457.41L2960.84 1457.29L2960.61 1457.56L2863.13 1575.61L2719.69 1522.12L2719.36 1521.99L2719.13 1522.27L2621.65 1640.31L2478.21 1586.82Z" fill="#080708"/>
<path fill-rule="evenodd" clip-rule="evenodd" d="M2501.56 1673.98L2501.23 1673.85L2501 1674.13L2403.52 1792.17L2260.08 1738.68L2259.73 1739.62L2403.5 1793.23L2403.84 1793.36L2404.06 1793.08L2501.54 1675.04L2644.99 1728.53L2645.32 1728.65L2645.55 1728.38L2743.03 1610.33L2886.47 1663.82L2886.8 1663.95L2887.03 1663.67L2984.51 1545.63L3127.95 1599.12L3128.28 1599.24L3128.51 1598.97L3225.99 1480.92L3369.43 1534.41L3369.76 1534.54L3369.99 1534.26L3467.47 1416.22L3610.91 1469.71L3611.25 1469.83L3611.47 1469.56L3708.95 1351.51L3852.39 1405L3852.73 1405.13L3852.95 1404.85L3950.43 1286.81L4093.87 1340.3L4094.21 1340.42L4094.44 1340.15L4192.14 1221.83L4191.37 1221.19L4093.89 1339.24L3950.45 1285.75L3950.12 1285.62L3949.89 1285.9L3852.41 1403.94L3708.97 1350.45L3708.63 1350.33L3708.41 1350.6L3610.93 1468.65L3467.49 1415.16L3467.15 1415.03L3466.93 1415.31L3369.45 1533.35L3226 1479.86L3225.83 1480.33L3225.44 1480.01L3127.96 1598.06L2984.52 1544.57L2984.19 1544.44L2983.96 1544.72L2886.48 1662.76L2743.04 1609.27L2742.71 1609.15L2742.48 1609.42L2645 1727.47L2501.56 1673.98Z" fill="#080708"/>
<path fill-rule="evenodd" clip-rule="evenodd" d="M2524.91 1761.13L2524.58 1761.01L2524.35 1761.28L2426.87 1879.33L2283.43 1825.83L2283.08 1826.77L2426.86 1880.39L2427.19 1880.51L2427.42 1880.24L2524.9 1762.19L2668.34 1815.68L2668.67 1815.81L2668.9 1815.53L2766.38 1697.49L2909.82 1750.98L2910.15 1751.1L2910.38 1750.83L3007.86 1632.78L3151.3 1686.27L3151.64 1686.4L3151.86 1686.12L3249.34 1568.08L3392.78 1621.57L3393.12 1621.69L3393.34 1621.42L3490.82 1503.37L3634.26 1556.86L3634.6 1556.99L3634.82 1556.71L3732.3 1438.67L3875.75 1492.16L3876.08 1492.28L3876.31 1492.01L3973.79 1373.96L4117.23 1427.45L4117.56 1427.58L4117.79 1427.3L4215.49 1308.98L4214.72 1308.35L4117.24 1426.39L3973.8 1372.9L3973.47 1372.78L3973.24 1373.05L3875.76 1491.1L3732.32 1437.61L3731.99 1437.48L3731.76 1437.76L3634.28 1555.8L3490.84 1502.31L3490.5 1502.19L3490.28 1502.46L3392.8 1620.51L3249.36 1567.02L3249.18 1567.48L3248.8 1567.17L3151.32 1685.21L3007.88 1631.72L3007.54 1631.6L3007.32 1631.87L2909.84 1749.92L2766.39 1696.42L2766.06 1696.3L2765.83 1696.58L2668.35 1814.62L2524.91 1761.13Z" fill="#080708"/>
<path fill-rule="evenodd" clip-rule="evenodd" d="M2548.27 1848.28L2547.93 1848.16L2547.7 1848.43L2450.23 1966.48L2306.78 1912.99L2306.43 1913.92L2450.21 1967.54L2450.54 1967.66L2450.77 1967.39L2548.25 1849.34L2691.69 1902.84L2692.02 1902.96L2692.25 1902.68L2789.73 1784.64L2933.17 1838.13L2933.51 1838.25L2933.73 1837.98L3031.21 1719.93L3174.65 1773.43L3174.99 1773.55L3175.21 1773.28L3272.69 1655.23L3416.14 1708.72L3416.47 1708.85L3416.7 1708.57L3514.17 1590.53L3657.62 1644.02L3657.95 1644.14L3658.18 1643.87L3755.66 1525.82L3899.1 1579.31L3899.43 1579.44L3899.66 1579.16L3997.14 1461.12L4140.58 1514.61L4140.91 1514.73L4141.14 1514.46L4238.85 1396.14L4238.07 1395.5L4140.6 1513.55L3997.15 1460.05L3996.82 1459.93L3996.59 1460.2L3899.11 1578.25L3755.67 1524.76L3755.34 1524.63L3755.11 1524.91L3657.63 1642.95L3514.19 1589.46L3513.86 1589.34L3513.63 1589.61L3416.15 1707.66L3272.71 1654.17L3272.53 1654.64L3272.15 1654.32L3174.67 1772.36L3031.23 1718.87L3030.89 1718.75L3030.67 1719.02L2933.19 1837.07L2789.75 1783.58L2789.41 1783.45L2789.19 1783.73L2691.71 1901.77L2548.27 1848.28Z" fill="#080708"/>
<path fill-rule="evenodd" clip-rule="evenodd" d="M2571.62 1935.44L2571.28 1935.31L2571.06 1935.59L2473.58 2053.63L2330.14 2000.14L2329.79 2001.08L2473.56 2054.69L2473.9 2054.82L2474.12 2054.54L2571.6 1936.5L2715.04 1989.99L2715.38 1990.11L2715.6 1989.84L2813.08 1871.79L2956.53 1925.28L2956.86 1925.41L2957.09 1925.13L3054.56 1807.09L3198.01 1860.58L3198.34 1860.7L3198.57 1860.43L3296.05 1742.38L3439.49 1795.87L3439.82 1796L3440.05 1795.72L3537.53 1677.68L3680.97 1731.17L3681.3 1731.29L3681.53 1731.02L3779.01 1612.97L3922.45 1666.46L3922.78 1666.59L3923.01 1666.31L4020.49 1548.27L4163.93 1601.76L4164.27 1601.88L4164.49 1601.61L4262.2 1483.29L4261.43 1482.65L4163.95 1600.7L4020.51 1547.21L4020.17 1547.08L4019.95 1547.36L3922.47 1665.4L3779.02 1611.91L3778.69 1611.79L3778.46 1612.06L3680.99 1730.11L3537.54 1676.62L3537.21 1676.49L3536.98 1676.77L3439.5 1794.81L3296.06 1741.32L3295.89 1741.79L3295.5 1741.47L3198.02 1859.52L3054.58 1806.03L3054.25 1805.9L3054.02 1806.18L2956.54 1924.22L2813.1 1870.73L2812.77 1870.61L2812.54 1870.88L2715.06 1988.93L2571.62 1935.44Z" fill="#080708"/>
<path fill-rule="evenodd" clip-rule="evenodd" d="M2594.97 2022.59L2594.64 2022.46L2594.41 2022.74L2496.93 2140.78L2353.49 2087.29L2353.14 2088.23L2496.91 2141.85L2497.25 2141.97L2497.48 2141.7L2594.95 2023.65L2738.4 2077.14L2738.73 2077.27L2738.96 2076.99L2836.44 1958.95L2979.88 2012.44L2980.21 2012.56L2980.44 2012.29L3077.92 1894.24L3221.36 1947.73L3221.69 1947.86L3221.92 1947.58L3319.4 1829.54L3462.84 1883.03L3463.17 1883.15L3463.4 1882.88L3560.88 1764.83L3704.32 1818.32L3704.66 1818.45L3704.88 1818.17L3802.36 1700.13L3945.8 1753.62L3946.14 1753.74L3946.36 1753.47L4043.84 1635.42L4187.29 1688.91L4187.62 1689.04L4187.85 1688.76L4285.55 1570.44L4284.78 1569.81L4187.3 1687.85L4043.86 1634.36L4043.53 1634.24L4043.3 1634.51L3945.82 1752.56L3802.38 1699.07L3802.04 1698.94L3801.82 1699.22L3704.34 1817.26L3560.9 1763.77L3560.56 1763.65L3560.34 1763.92L3462.86 1881.97L3319.41 1828.47L3319.24 1828.94L3318.85 1828.63L3221.38 1946.67L3077.93 1893.18L3077.6 1893.06L3077.37 1893.33L2979.89 2011.38L2836.45 1957.88L2836.12 1957.76L2835.89 1958.03L2738.41 2076.08L2594.97 2022.59Z" fill="#080708"/>
<path fill-rule="evenodd" clip-rule="evenodd" d="M2618.32 2109.74L2617.99 2109.62L2617.76 2109.89L2520.28 2227.94L2376.84 2174.45L2376.49 2175.38L2520.27 2229L2520.6 2229.12L2520.83 2228.85L2618.31 2110.8L2761.75 2164.29L2762.08 2164.42L2762.31 2164.14L2859.79 2046.1L3003.23 2099.59L3003.56 2099.71L3003.79 2099.44L3101.27 1981.39L3244.71 2034.88L3245.05 2035.01L3245.27 2034.73L3342.75 1916.69L3486.19 1970.18L3486.53 1970.3L3486.75 1970.03L3584.23 1851.98L3727.67 1905.48L3728.01 1905.6L3728.23 1905.32L3825.71 1787.28L3969.16 1840.77L3969.49 1840.89L3969.72 1840.62L4067.2 1722.57L4210.64 1776.07L4210.97 1776.19L4211.2 1775.92L4308.9 1657.6L4308.13 1656.96L4210.65 1775L4067.21 1721.51L4066.88 1721.39L4066.65 1721.66L3969.17 1839.71L3825.73 1786.22L3825.4 1786.09L3825.17 1786.37L3727.69 1904.41L3584.25 1850.92L3583.91 1850.8L3583.69 1851.07L3486.21 1969.12L3342.77 1915.63L3342.59 1916.1L3342.21 1915.78L3244.73 2033.82L3101.29 1980.33L3100.95 1980.21L3100.73 1980.48L3003.25 2098.53L2859.8 2045.04L2859.47 2044.91L2859.24 2045.19L2761.76 2163.23L2618.32 2109.74Z" fill="#080708"/>
<path fill-rule="evenodd" clip-rule="evenodd" d="M2641.68 2196.9L2641.34 2196.77L2641.11 2197.05L2543.64 2315.09L2400.19 2261.6L2399.84 2262.54L2543.62 2316.15L2543.95 2316.28L2544.18 2316L2641.66 2197.96L2785.1 2251.45L2785.43 2251.57L2785.66 2251.3L2883.14 2133.25L3026.58 2186.74L3026.92 2186.87L3027.14 2186.59L3124.62 2068.55L3268.06 2122.04L3268.4 2122.16L3268.62 2121.89L3366.1 2003.84L3509.55 2057.33L3509.88 2057.46L3510.11 2057.18L3607.59 1939.14L3751.03 1992.63L3751.36 1992.75L3751.59 1992.48L3849.07 1874.43L3992.51 1927.92L3992.84 1928.05L3993.07 1927.77L4090.55 1809.73L4233.99 1863.22L4234.32 1863.34L4234.55 1863.07L4332.26 1744.75L4331.49 1744.11L4234.01 1862.16L4090.56 1808.67L4090.23 1808.54L4090 1808.82L3992.52 1926.86L3849.08 1873.37L3848.75 1873.25L3848.52 1873.52L3751.04 1991.57L3607.6 1938.08L3607.27 1937.95L3607.04 1938.23L3509.56 2056.27L3366.12 2002.78L3365.94 2003.25L3365.56 2002.93L3268.08 2120.98L3124.64 2067.49L3124.3 2067.36L3124.08 2067.64L3026.6 2185.68L2883.16 2132.19L2882.82 2132.07L2882.6 2132.34L2785.12 2250.39L2641.68 2196.9Z" fill="#080708"/>
<path fill-rule="evenodd" clip-rule="evenodd" d="M2665.03 2284.05L2664.69 2283.92L2664.47 2284.2L2566.99 2402.24L2423.55 2348.75L2423.2 2349.69L2566.97 2403.31L2567.31 2403.43L2567.53 2403.16L2665.01 2285.11L2808.45 2338.6L2808.79 2338.73L2809.01 2338.45L2906.49 2220.41L3049.94 2273.9L3050.27 2274.02L3050.5 2273.75L3147.97 2155.7L3291.42 2209.19L3291.75 2209.32L3291.98 2209.04L3389.46 2091L3532.9 2144.49L3533.23 2144.61L3533.46 2144.34L3630.94 2026.29L3774.38 2079.78L3774.71 2079.91L3774.94 2079.63L3872.42 1961.59L4015.86 2015.08L4016.19 2015.2L4016.42 2014.93L4113.9 1896.88L4257.34 1950.37L4257.68 1950.5L4257.9 1950.22L4355.61 1831.9L4354.84 1831.27L4257.36 1949.31L4113.92 1895.82L4113.58 1895.7L4113.36 1895.97L4015.88 2014.02L3872.43 1960.52L3872.1 1960.4L3871.87 1960.67L3774.4 2078.72L3630.95 2025.23L3630.62 2025.11L3630.39 2025.38L3532.91 2143.43L3389.47 2089.93L3389.3 2090.4L3388.91 2090.08L3291.43 2208.13L3147.99 2154.64L3147.66 2154.51L3147.43 2154.79L3049.95 2272.83L2906.51 2219.34L2906.18 2219.22L2905.95 2219.49L2808.47 2337.54L2665.03 2284.05Z" fill="#080708"/>
<path fill-rule="evenodd" clip-rule="evenodd" d="M2688.38 2371.2L2688.05 2371.08L2687.82 2371.35L2590.34 2489.4L2446.9 2435.91L2446.55 2436.84L2590.33 2490.46L2590.66 2490.58L2590.89 2490.31L2688.36 2372.26L2831.81 2425.75L2832.14 2425.88L2832.37 2425.6L2929.85 2307.56L3073.29 2361.05L3073.62 2361.17L3073.85 2360.9L3171.33 2242.85L3314.77 2296.34L3315.1 2296.47L3315.33 2296.19L3412.81 2178.15L3556.25 2231.64L3556.58 2231.76L3556.81 2231.49L3654.29 2113.44L3797.73 2166.93L3798.07 2167.06L3798.29 2166.78L3895.77 2048.74L4039.21 2102.23L4039.55 2102.35L4039.77 2102.08L4137.25 1984.03L4280.7 2037.52L4281.03 2037.65L4281.26 2037.37L4378.96 1919.06L4378.19 1918.42L4280.71 2036.46L4137.27 1982.97L4136.94 1982.85L4136.71 1983.12L4039.23 2101.17L3895.79 2047.68L3895.45 2047.55L3895.23 2047.83L3797.75 2165.87L3654.31 2112.38L3653.97 2112.26L3653.75 2112.53L3556.27 2230.58L3412.82 2177.09L3412.65 2177.56L3412.26 2177.24L3314.79 2295.28L3171.34 2241.79L3171.01 2241.67L3170.78 2241.94L3073.3 2359.99L2929.86 2306.5L2929.53 2306.37L2929.3 2306.65L2831.82 2424.69L2688.38 2371.2Z" fill="#080708"/>
<path fill-rule="evenodd" clip-rule="evenodd" d="M2711.73 2458.35L2711.4 2458.23L2711.17 2458.5L2613.69 2576.55L2470.25 2523.06L2469.9 2524L2613.68 2577.61L2614.01 2577.74L2614.24 2577.46L2711.72 2459.42L2855.16 2512.91L2855.49 2513.03L2855.72 2512.76L2953.2 2394.71L3096.64 2448.2L3096.97 2448.33L3097.2 2448.05L3194.68 2330.01L3338.12 2383.5L3338.46 2383.62L3338.68 2383.35L3436.16 2265.3L3579.6 2318.79L3579.94 2318.92L3580.16 2318.64L3677.64 2200.6L3821.08 2254.09L3821.42 2254.21L3821.65 2253.94L3919.12 2135.89L4062.57 2189.38L4062.9 2189.51L4063.13 2189.23L4160.61 2071.19L4304.05 2124.68L4304.38 2124.8L4304.61 2124.53L4402.31 2006.21L4401.54 2005.57L4304.06 2123.62L4160.62 2070.13L4160.29 2070L4160.06 2070.28L4062.58 2188.32L3919.14 2134.83L3918.81 2134.71L3918.58 2134.98L3821.1 2253.03L3677.66 2199.54L3677.32 2199.41L3677.1 2199.69L3579.62 2317.73L3436.18 2264.24L3436 2264.71L3435.62 2264.39L3338.14 2382.44L3194.7 2328.95L3194.36 2328.82L3194.14 2329.1L3096.66 2447.14L2953.21 2393.65L2952.88 2393.53L2952.65 2393.8L2855.17 2511.85L2711.73 2458.35Z" fill="#080708"/>
<path fill-rule="evenodd" clip-rule="evenodd" d="M2735.09 2545.51L2734.75 2545.38L2734.53 2545.66L2637.05 2663.7L2493.6 2610.21L2493.25 2611.15L2637.03 2664.76L2637.36 2664.89L2637.59 2664.61L2735.07 2546.57L2878.51 2600.06L2878.85 2600.18L2879.07 2599.91L2976.55 2481.86L3119.99 2535.35L3120.33 2535.48L3120.55 2535.2L3218.03 2417.16L3361.47 2470.65L3361.81 2470.77L3362.03 2470.5L3459.51 2352.45L3602.96 2405.95L3603.29 2406.07L3603.52 2405.8L3701 2287.75L3844.44 2341.24L3844.77 2341.37L3845 2341.09L3942.48 2223.05L4085.92 2276.54L4086.25 2276.66L4086.48 2276.39L4183.96 2158.34L4327.4 2211.83L4327.73 2211.96L4327.96 2211.68L4425.67 2093.36L4424.9 2092.72L4327.42 2210.77L4183.97 2157.28L4183.64 2157.15L4183.41 2157.43L4085.93 2275.47L3942.49 2221.98L3942.16 2221.86L3941.93 2222.13L3844.45 2340.18L3701.01 2286.69L3700.68 2286.56L3700.45 2286.84L3602.97 2404.88L3459.53 2351.39L3459.36 2351.86L3458.97 2351.54L3361.49 2469.59L3218.05 2416.1L3217.71 2415.97L3217.49 2416.25L3120.01 2534.29L2976.57 2480.8L2976.23 2480.68L2976.01 2480.95L2878.53 2599L2735.09 2545.51Z" fill="#080708"/>
<path fill-rule="evenodd" clip-rule="evenodd" d="M2758.44 2632.66L2758.1 2632.54L2757.88 2632.81L2660.4 2750.86L2516.96 2697.37L2516.61 2698.3L2660.38 2751.92L2660.72 2752.04L2660.94 2751.77L2758.42 2633.72L2901.86 2687.21L2902.2 2687.34L2902.42 2687.06L2999.9 2569.02L3143.35 2622.51L3143.68 2622.63L3143.91 2622.36L3241.38 2504.31L3384.83 2557.8L3385.16 2557.93L3385.39 2557.65L3482.87 2439.61L3626.31 2493.1L3626.64 2493.22L3626.87 2492.95L3724.35 2374.9L3867.79 2428.39L3868.12 2428.52L3868.35 2428.24L3965.83 2310.2L4109.27 2363.69L4109.6 2363.81L4109.83 2363.54L4207.31 2245.49L4350.75 2298.98L4351.09 2299.11L4351.31 2298.83L4449.02 2180.51L4448.25 2179.88L4350.77 2297.92L4207.33 2244.43L4206.99 2244.31L4206.77 2244.58L4109.29 2362.63L3965.85 2309.14L3965.51 2309.01L3965.28 2309.29L3867.81 2427.33L3724.36 2373.84L3724.03 2373.72L3723.8 2373.99L3626.32 2492.04L3482.88 2438.55L3482.71 2439.02L3482.32 2438.7L3384.84 2556.74L3241.4 2503.25L3241.07 2503.13L3240.84 2503.4L3143.36 2621.45L2999.92 2567.96L2999.59 2567.83L2999.36 2568.11L2901.88 2686.15L2758.44 2632.66Z" fill="#080708"/>
<path fill-rule="evenodd" clip-rule="evenodd" d="M2781.79 2719.81L2781.46 2719.69L2781.23 2719.96L2683.75 2838.01L2540.31 2784.52L2539.96 2785.46L2683.74 2839.07L2684.07 2839.19L2684.3 2838.92L2781.77 2720.88L2925.22 2774.37L2925.55 2774.49L2925.78 2774.22L3023.26 2656.17L3166.7 2709.66L3167.03 2709.79L3167.26 2709.51L3264.74 2591.47L3408.18 2644.96L3408.51 2645.08L3408.74 2644.81L3506.22 2526.76L3649.66 2580.25L3649.99 2580.38L3650.22 2580.1L3747.7 2462.06L3891.14 2515.55L3891.48 2515.67L3891.7 2515.4L3989.18 2397.35L4132.62 2450.84L4132.96 2450.97L4133.18 2450.69L4230.66 2332.65L4374.11 2386.14L4374.44 2386.26L4374.67 2385.99L4472.37 2267.67L4471.6 2267.03L4374.12 2385.08L4230.68 2331.59L4230.35 2331.46L4230.12 2331.74L4132.64 2449.78L3989.2 2396.29L3988.86 2396.17L3988.64 2396.44L3891.16 2514.49L3747.72 2460.99L3747.38 2460.87L3747.16 2461.14L3649.68 2579.19L3506.23 2525.7L3506.06 2526.17L3505.67 2525.85L3408.2 2643.89L3264.75 2590.4L3264.42 2590.28L3264.19 2590.55L3166.71 2708.6L3023.27 2655.11L3022.94 2654.98L3022.71 2655.26L2925.23 2773.3L2781.79 2719.81Z" fill="#080708"/>
<path fill-rule="evenodd" clip-rule="evenodd" d="M2805.14 2806.97L2804.81 2806.84L2804.58 2807.12L2707.1 2925.16L2563.66 2871.67L2563.31 2872.61L2707.09 2926.22L2707.42 2926.35L2707.65 2926.07L2805.13 2808.03L2948.57 2861.52L2948.9 2861.64L2949.13 2861.37L3046.61 2743.32L3190.05 2796.81L3190.38 2796.94L3190.61 2796.66L3288.09 2678.62L3431.53 2732.11L3431.87 2732.23L3432.09 2731.96L3529.57 2613.91L3673.01 2667.4L3673.35 2667.53L3673.57 2667.25L3771.05 2549.21L3914.49 2602.7L3914.83 2602.82L3915.06 2602.55L4012.53 2484.5L4155.98 2538L4156.31 2538.12L4156.54 2537.85L4254.02 2419.8L4397.46 2473.29L4397.79 2473.41L4398.02 2473.14L4495.72 2354.82L4494.95 2354.18L4397.47 2472.23L4254.03 2418.74L4253.7 2418.61L4253.47 2418.89L4155.99 2536.93L4012.55 2483.44L4012.22 2483.32L4011.99 2483.59L3914.51 2601.64L3771.07 2548.15L3770.74 2548.02L3770.51 2548.3L3673.03 2666.34L3529.59 2612.85L3529.41 2613.32L3529.03 2613L3431.55 2731.05L3288.11 2677.56L3287.77 2677.43L3287.55 2677.71L3190.07 2795.75L3046.62 2742.26L3046.29 2742.14L3046.06 2742.41L2948.58 2860.46L2805.14 2806.97Z" fill="#080708"/>
<path fill-rule="evenodd" clip-rule="evenodd" d="M2828.5 2894.12L2828.16 2894L2827.94 2894.27L2730.46 3012.32L2587.02 2958.83L2586.67 2959.76L2730.44 3013.38L2730.77 3013.5L2731 3013.23L2828.48 2895.18L2971.92 2948.67L2972.26 2948.8L2972.48 2948.52L3069.96 2830.48L3213.4 2883.97L3213.74 2884.09L3213.96 2883.82L3311.44 2765.77L3454.89 2819.26L3455.22 2819.39L3455.45 2819.11L3552.92 2701.07L3696.37 2754.56L3696.7 2754.68L3696.93 2754.41L3794.41 2636.36L3937.85 2689.85L3938.18 2689.98L3938.41 2689.7L4035.89 2571.66L4179.33 2625.15L4179.66 2625.27L4179.89 2625L4277.37 2506.95L4420.81 2560.44L4421.14 2560.57L4421.37 2560.29L4519.08 2441.97L4518.31 2441.34L4420.83 2559.38L4277.39 2505.89L4277.05 2505.77L4276.82 2506.04L4179.35 2624.09L4035.9 2570.6L4035.57 2570.47L4035.34 2570.75L3937.86 2688.79L3794.42 2635.3L3794.09 2635.18L3793.86 2635.45L3696.38 2753.5L3552.94 2700.01L3552.77 2700.47L3552.38 2700.16L3454.9 2818.2L3311.46 2764.71L3311.13 2764.59L3310.9 2764.86L3213.42 2882.91L3069.98 2829.42L3069.64 2829.29L3069.42 2829.57L2971.94 2947.61L2828.5 2894.12Z" fill="#080708"/>
<path fill-rule="evenodd" clip-rule="evenodd" d="M2851.85 2981.27L2851.52 2981.15L2851.29 2981.42L2753.81 3099.47L2610.37 3045.98L2610.02 3046.92L2753.79 3100.53L2754.13 3100.65L2754.35 3100.38L2851.83 2982.33L2995.28 3035.83L2995.61 3035.95L2995.84 3035.68L3093.31 2917.63L3236.76 2971.12L3237.09 2971.24L3237.32 2970.97L3334.8 2852.93L3478.24 2906.42L3478.57 2906.54L3478.8 2906.27L3576.28 2788.22L3719.72 2841.71L3720.05 2841.84L3720.28 2841.56L3817.76 2723.52L3961.2 2777.01L3961.53 2777.13L3961.76 2776.86L4059.24 2658.81L4202.68 2712.3L4203.02 2712.43L4203.24 2712.15L4300.72 2594.11L4444.16 2647.6L4444.5 2647.72L4444.72 2647.45L4542.43 2529.13L4541.66 2528.49L4444.18 2646.54L4300.74 2593.04L4300.4 2592.92L4300.18 2593.19L4202.7 2711.24L4059.26 2657.75L4058.92 2657.63L4058.7 2657.9L3961.22 2775.94L3817.77 2722.45L3817.44 2722.33L3817.21 2722.6L3719.74 2840.65L3576.29 2787.16L3576.12 2787.63L3575.73 2787.31L3478.25 2905.35L3334.81 2851.86L3334.48 2851.74L3334.25 2852.01L3236.77 2970.06L3093.33 2916.57L3093 2916.44L3092.77 2916.72L2995.29 3034.76L2851.85 2981.27Z" fill="#080708"/>
<path fill-rule="evenodd" clip-rule="evenodd" d="M2875.2 3068.43L2874.87 3068.3L2874.64 3068.58L2777.16 3186.62L2633.72 3133.13L2633.37 3134.07L2777.15 3187.68L2777.48 3187.81L2777.71 3187.53L2875.19 3069.49L3018.63 3122.98L3018.96 3123.1L3019.19 3122.83L3116.67 3004.78L3260.11 3058.27L3260.44 3058.4L3260.67 3058.12L3358.15 2940.08L3501.59 2993.57L3501.92 2993.69L3502.15 2993.42L3599.63 2875.37L3743.07 2928.86L3743.41 2928.99L3743.63 2928.71L3841.11 2810.67L3984.55 2864.16L3984.89 2864.28L3985.11 2864.01L4082.59 2745.96L4226.04 2799.45L4226.37 2799.58L4226.6 2799.3L4324.07 2681.26L4467.52 2734.75L4467.85 2734.87L4468.08 2734.6L4565.78 2616.28L4565.01 2615.64L4467.53 2733.69L4324.09 2680.2L4323.76 2680.07L4323.53 2680.35L4226.05 2798.39L4082.61 2744.9L4082.28 2744.78L4082.05 2745.05L3984.57 2863.1L3841.13 2809.61L3840.79 2809.48L3840.57 2809.76L3743.09 2927.8L3599.65 2874.31L3599.47 2874.78L3599.09 2874.46L3501.61 2992.51L3358.16 2939.02L3357.83 2938.89L3357.6 2939.17L3260.13 3057.21L3116.68 3003.72L3116.35 3003.6L3116.12 3003.87L3018.64 3121.92L2875.2 3068.43Z" fill="#080708"/>
<path fill-rule="evenodd" clip-rule="evenodd" d="M2898.55 3155.58L2898.22 3155.46L2897.99 3155.73L2800.51 3273.77L2657.07 3220.28L2656.72 3221.22L2800.5 3274.84L2800.83 3274.96L2801.06 3274.69L2898.54 3156.64L3041.98 3210.13L3042.31 3210.26L3042.54 3209.98L3140.02 3091.94L3283.46 3145.43L3283.8 3145.55L3284.02 3145.28L3381.5 3027.23L3524.94 3080.72L3525.28 3080.85L3525.5 3080.57L3622.98 2962.53L3766.42 3016.02L3766.76 3016.14L3766.98 3015.87L3864.46 2897.82L4007.91 2951.31L4008.24 2951.44L4008.47 2951.16L4105.95 2833.12L4249.39 2886.61L4249.72 2886.73L4249.95 2886.46L4347.43 2768.41L4490.87 2821.9L4491.2 2822.03L4491.43 2821.75L4589.14 2703.43L4588.36 2702.8L4490.88 2820.84L4347.44 2767.35L4347.11 2767.23L4346.88 2767.5L4249.4 2885.55L4105.96 2832.06L4105.63 2831.93L4105.4 2832.21L4007.92 2950.25L3864.48 2896.76L3864.15 2896.64L3863.92 2896.91L3766.44 3014.96L3623 2961.47L3622.82 2961.93L3622.44 2961.62L3524.96 3079.66L3381.52 3026.17L3381.18 3026.05L3380.96 3026.32L3283.48 3144.37L3140.04 3090.87L3139.7 3090.75L3139.48 3091.02L3042 3209.07L2898.55 3155.58Z" fill="#080708"/>
<path fill-rule="evenodd" clip-rule="evenodd" d="M2921.91 3242.73L2921.57 3242.61L2921.35 3242.88L2823.87 3360.93L2680.43 3307.44L2680.08 3308.37L2823.85 3361.99L2824.18 3362.11L2824.41 3361.84L2921.89 3243.79L3065.33 3297.28L3065.67 3297.41L3065.89 3297.13L3163.37 3179.09L3306.81 3232.58L3307.15 3232.7L3307.37 3232.43L3404.85 3114.38L3548.3 3167.88L3548.63 3168L3548.86 3167.73L3646.34 3049.68L3789.78 3103.17L3790.11 3103.29L3790.34 3103.02L3887.82 2984.98L4031.26 3038.47L4031.59 3038.59L4031.82 3038.32L4129.3 2920.27L4272.74 2973.76L4273.07 2973.89L4273.3 2973.61L4370.78 2855.57L4514.22 2909.06L4514.56 2909.18L4514.78 2908.91L4612.49 2790.59L4611.72 2789.95L4514.24 2907.99L4370.8 2854.5L4370.46 2854.38L4370.24 2854.65L4272.76 2972.7L4129.31 2919.21L4128.98 2919.08L4128.75 2919.36L4031.27 3037.4L3887.83 2983.91L3887.5 2983.79L3887.27 2984.06L3789.79 3102.11L3646.35 3048.62L3646.18 3049.09L3645.79 3048.77L3548.31 3166.81L3404.87 3113.32L3404.54 3113.2L3404.31 3113.47L3306.83 3231.52L3163.39 3178.03L3163.05 3177.9L3162.83 3178.18L3065.35 3296.22L2921.91 3242.73Z" fill="#080708"/>
<path fill-rule="evenodd" clip-rule="evenodd" d="M2945.26 3329.89L2944.93 3329.76L2944.7 3330.04L2847.22 3448.08L2703.78 3394.59L2703.43 3395.53L2847.2 3449.14L2847.54 3449.27L2847.76 3448.99L2945.24 3330.95L3088.69 3384.44L3089.02 3384.56L3089.25 3384.29L3186.72 3266.24L3330.17 3319.73L3330.5 3319.86L3330.73 3319.58L3428.21 3201.54L3571.65 3255.03L3571.98 3255.15L3572.21 3254.88L3669.69 3136.83L3813.13 3190.32L3813.46 3190.45L3813.69 3190.17L3911.17 3072.13L4054.61 3125.62L4054.94 3125.74L4055.17 3125.47L4152.65 3007.42L4296.09 3060.91L4296.43 3061.04L4296.65 3060.76L4394.13 2942.72L4537.57 2996.21L4537.91 2996.33L4538.13 2996.06L4635.84 2877.74L4635.07 2877.1L4537.59 2995.15L4394.15 2941.66L4393.81 2941.53L4393.59 2941.81L4296.11 3059.85L4152.67 3006.36L4152.33 3006.24L4152.11 3006.51L4054.63 3124.56L3911.18 3071.07L3910.85 3070.94L3910.62 3071.22L3813.15 3189.26L3669.7 3135.77L3669.53 3136.24L3669.14 3135.92L3571.66 3253.97L3428.22 3200.48L3427.89 3200.35L3427.66 3200.63L3330.18 3318.67L3186.74 3265.18L3186.41 3265.06L3186.18 3265.33L3088.7 3383.38L2945.26 3329.89Z" fill="#080708"/>
<path fill-rule="evenodd" clip-rule="evenodd" d="M2968.61 3417.04L2968.28 3416.91L2968.05 3417.19L2870.57 3535.23L2727.13 3481.74L2726.78 3482.68L2870.56 3536.3L2870.89 3536.42L2871.12 3536.15L2968.6 3418.1L3112.04 3471.59L3112.37 3471.72L3112.6 3471.44L3210.08 3353.4L3353.52 3406.89L3353.85 3407.01L3354.08 3406.74L3451.56 3288.69L3595 3342.18L3595.33 3342.31L3595.56 3342.03L3693.04 3223.99L3836.48 3277.48L3836.82 3277.6L3837.04 3277.33L3934.52 3159.28L4077.96 3212.77L4078.3 3212.9L4078.52 3212.62L4176 3094.58L4319.45 3148.07L4319.78 3148.19L4320.01 3147.92L4417.48 3029.87L4560.93 3083.36L4561.26 3083.49L4561.49 3083.21L4659.19 2964.89L4658.42 2964.26L4560.94 3082.3L4417.5 3028.81L4417.17 3028.69L4416.94 3028.96L4319.46 3147.01L4176.02 3093.52L4175.69 3093.39L4175.46 3093.67L4077.98 3211.71L3934.54 3158.22L3934.2 3158.1L3933.98 3158.37L3836.5 3276.42L3693.06 3222.92L3692.88 3223.39L3692.5 3223.07L3595.02 3341.12L3451.57 3287.63L3451.24 3287.51L3451.01 3287.78L3353.54 3405.82L3210.09 3352.33L3209.76 3352.21L3209.53 3352.48L3112.05 3470.53L2968.61 3417.04Z" fill="#080708"/>
<path fill-rule="evenodd" clip-rule="evenodd" d="M2991.96 3504.19L2991.63 3504.07L2991.4 3504.34L2893.92 3622.39L2750.48 3568.9L2750.13 3569.83L2893.91 3623.45L2894.24 3623.57L2894.47 3623.3L2991.95 3505.25L3135.39 3558.74L3135.72 3558.87L3135.95 3558.59L3233.43 3440.55L3376.87 3494.04L3377.21 3494.16L3377.43 3493.89L3474.91 3375.84L3618.35 3429.33L3618.69 3429.46L3618.91 3429.18L3716.39 3311.14L3859.83 3364.63L3860.17 3364.75L3860.4 3364.48L3957.87 3246.43L4101.32 3299.93L4101.65 3300.05L4101.88 3299.78L4199.36 3181.73L4342.8 3235.22L4343.13 3235.34L4343.36 3235.07L4440.84 3117.03L4584.28 3170.52L4584.61 3170.64L4584.84 3170.37L4682.55 3052.05L4681.77 3051.41L4584.29 3169.45L4440.85 3115.96L4440.52 3115.84L4440.29 3116.11L4342.81 3234.16L4199.37 3180.67L4199.04 3180.54L4198.81 3180.82L4101.33 3298.86L3957.89 3245.37L3957.56 3245.25L3957.33 3245.52L3859.85 3363.57L3716.41 3310.08L3716.23 3310.55L3715.85 3310.23L3618.37 3428.27L3474.93 3374.78L3474.59 3374.66L3474.37 3374.93L3376.89 3492.98L3233.45 3439.49L3233.11 3439.36L3232.89 3439.64L3135.41 3557.68L2991.96 3504.19Z" fill="#080708"/>
<path fill-rule="evenodd" clip-rule="evenodd" d="M3015.32 3591.35L3014.98 3591.22L3014.76 3591.5L2917.28 3709.54L2773.84 3656.05L2773.49 3656.99L2917.26 3710.6L2917.6 3710.73L2917.82 3710.45L3015.3 3592.41L3158.74 3645.9L3159.08 3646.02L3159.3 3645.75L3256.78 3527.7L3400.22 3581.19L3400.56 3581.32L3400.78 3581.04L3498.26 3463L3641.71 3516.49L3642.04 3516.61L3642.27 3516.34L3739.75 3398.29L3883.19 3451.78L3883.52 3451.91L3883.75 3451.63L3981.23 3333.59L4124.67 3387.08L4125 3387.2L4125.23 3386.93L4222.71 3268.88L4366.15 3322.37L4366.48 3322.5L4366.71 3322.22L4464.19 3204.18L4607.63 3257.67L4607.97 3257.79L4608.19 3257.52L4705.9 3139.2L4705.13 3138.56L4607.65 3256.61L4464.21 3203.12L4463.87 3202.99L4463.65 3203.27L4366.17 3321.31L4222.72 3267.82L4222.39 3267.7L4222.16 3267.97L4124.68 3386.02L3981.24 3332.53L3980.91 3332.4L3980.68 3332.68L3883.2 3450.72L3739.76 3397.23L3739.59 3397.7L3739.2 3397.38L3641.72 3515.43L3498.28 3461.94L3497.95 3461.81L3497.72 3462.09L3400.24 3580.13L3256.8 3526.64L3256.46 3526.52L3256.24 3526.79L3158.76 3644.84L3015.32 3591.35Z" fill="#080708"/>
<path fill-rule="evenodd" clip-rule="evenodd" d="M3038.67 3678.5L3038.34 3678.37L3038.11 3678.65L2940.63 3796.69L2797.19 3743.2L2796.84 3744.14L2940.61 3797.76L2940.95 3797.88L2941.17 3797.61L3038.65 3679.56L3182.1 3733.05L3182.43 3733.17L3182.66 3732.9L3280.13 3614.85L3423.58 3668.35L3423.91 3668.47L3424.14 3668.2L3521.62 3550.15L3665.06 3603.64L3665.39 3603.77L3665.62 3603.49L3763.1 3485.45L3906.54 3538.94L3906.87 3539.06L3907.1 3538.79L4004.58 3420.74L4148.02 3474.23L4148.35 3474.36L4148.58 3474.08L4246.06 3356.04L4389.5 3409.53L4389.84 3409.65L4390.06 3409.38L4487.54 3291.33L4630.98 3344.82L4631.32 3344.95L4631.54 3344.67L4729.25 3226.35L4728.48 3225.72L4631 3343.76L4487.56 3290.27L4487.22 3290.15L4487 3290.42L4389.52 3408.47L4246.08 3354.97L4245.74 3354.85L4245.52 3355.12L4148.04 3473.17L4004.6 3419.68L4004.26 3419.55L4004.03 3419.83L3906.56 3537.87L3763.11 3484.38L3762.94 3484.85L3762.55 3484.53L3665.07 3602.58L3521.63 3549.09L3521.3 3548.96L3521.07 3549.24L3423.59 3667.28L3280.15 3613.79L3279.82 3613.67L3279.59 3613.94L3182.11 3731.99L3038.67 3678.5Z" fill="#080708"/>
<path fill-rule="evenodd" clip-rule="evenodd" d="M3062.02 3765.65L3061.69 3765.53L3061.46 3765.8L2963.98 3883.85L2820.54 3830.36L2820.19 3831.29L2963.97 3884.91L2964.3 3885.03L2964.53 3884.76L3062.01 3766.71L3205.45 3820.2L3205.78 3820.33L3206.01 3820.05L3303.49 3702.01L3446.93 3755.5L3447.26 3755.62L3447.49 3755.35L3544.97 3637.3L3688.41 3690.79L3688.74 3690.92L3688.97 3690.64L3786.45 3572.6L3929.89 3626.09L3930.23 3626.21L3930.45 3625.94L4027.93 3507.89L4171.37 3561.38L4171.71 3561.51L4171.93 3561.23L4269.41 3443.19L4412.86 3496.68L4413.19 3496.8L4413.42 3496.53L4510.89 3378.48L4654.34 3431.97L4654.67 3432.1L4654.9 3431.82L4752.6 3313.5L4751.83 3312.87L4654.35 3430.91L4510.91 3377.42L4510.58 3377.3L4510.35 3377.57L4412.87 3495.62L4269.43 3442.13L4269.1 3442L4268.87 3442.28L4171.39 3560.32L4027.95 3506.83L4027.61 3506.71L4027.39 3506.98L3929.91 3625.03L3786.47 3571.54L3786.29 3572.01L3785.91 3571.69L3688.43 3689.73L3544.98 3636.24L3544.65 3636.12L3544.42 3636.39L3446.95 3754.44L3303.5 3700.95L3303.17 3700.82L3302.94 3701.1L3205.46 3819.14L3062.02 3765.65Z" fill="#080708"/>
<path fill-rule="evenodd" clip-rule="evenodd" d="M3085.37 3852.8L3085.04 3852.68L3084.81 3852.95L2987.34 3971L2843.89 3917.51L2843.54 3918.45L2987.32 3972.06L2987.65 3972.19L2987.88 3971.91L3085.36 3853.87L3228.8 3907.36L3229.13 3907.48L3229.36 3907.21L3326.84 3789.16L3470.28 3842.65L3470.62 3842.78L3470.84 3842.5L3568.32 3724.46L3711.76 3777.95L3712.1 3778.07L3712.32 3777.8L3809.8 3659.75L3953.25 3713.24L3953.58 3713.37L3953.81 3713.09L4051.28 3595.05L4194.73 3648.54L4195.06 3648.66L4195.29 3648.39L4292.77 3530.34L4436.21 3583.83L4436.54 3583.96L4436.77 3583.68L4534.25 3465.64L4677.69 3519.13L4678.02 3519.25L4678.25 3518.98L4775.96 3400.66L4775.18 3400.02L4677.71 3518.07L4534.26 3464.58L4533.93 3464.45L4533.7 3464.73L4436.22 3582.77L4292.78 3529.28L4292.45 3529.16L4292.22 3529.43L4194.74 3647.48L4051.3 3593.99L4050.97 3593.86L4050.74 3594.14L3953.26 3712.18L3809.82 3658.69L3809.64 3659.16L3809.26 3658.84L3711.78 3776.89L3568.34 3723.4L3568 3723.27L3567.78 3723.55L3470.3 3841.59L3326.86 3788.1L3326.52 3787.98L3326.3 3788.25L3228.82 3906.3L3085.37 3852.8Z" fill="#080708"/>
</g>
</svg>
