<svg width="800" height="100" viewBox="0 0 800 100" fill="none" xmlns="http://www.w3.org/2000/svg" preserveAspectRatio="xMidYMid slice">
<g clip-path="url(#clip0_76_56854)">
<path d="M32.4001 85.6C32.4001 97.9712 22.3713 108 10.0001 108C-2.37108 108 -12.3999 97.9712 -12.3999 85.6C-12.3999 66.8288 -2.37108 50.4 10.0001 50.4C22.3713 50.4 32.4001 66.8288 32.4001 85.6Z" fill="var(--highlight)" stroke="#080708" stroke-width="2"/>
<path d="M66.4001 85.6C66.4001 97.9712 56.3713 108 44.0001 108C31.6289 108 21.6001 97.9712 21.6001 85.6C21.6001 66.8288 31.6289 50.4 44.0001 50.4C56.3713 50.4 66.4001 66.8288 66.4001 85.6Z" fill="var(--highlight)" stroke="#080708" stroke-width="2"/>
<path d="M100.4 85.6C100.4 97.9712 90.3713 108 78.0001 108C65.6289 108 55.6001 97.9712 55.6001 85.6C55.6001 66.8288 65.6289 50.4 78.0001 50.4C90.3713 50.4 100.4 66.8288 100.4 85.6Z" fill="var(--highlight)" stroke="#080708" stroke-width="2"/>
<path d="M134.4 85.6C134.4 97.9712 124.371 108 112 108C99.6289 108 89.6001 97.9712 89.6001 85.6C89.6001 66.8288 99.6289 50.4 112 50.4C124.371 50.4 134.4 66.8288 134.4 85.6Z" fill="var(--highlight)" stroke="#080708" stroke-width="2"/>
<path d="M168.4 85.6C168.4 97.9712 158.371 108 146 108C133.629 108 123.6 97.9712 123.6 85.6C123.6 66.8288 133.629 50.4 146 50.4C158.371 50.4 168.4 66.8288 168.4 85.6Z" fill="var(--highlight)" stroke="#080708" stroke-width="2"/>
<path d="M202.4 85.6C202.4 97.9712 192.371 108 180 108C167.629 108 157.6 97.9712 157.6 85.6C157.6 66.8288 167.629 50.4 180 50.4C192.371 50.4 202.4 66.8288 202.4 85.6Z" fill="var(--highlight)" stroke="#080708" stroke-width="2"/>
<path d="M236.4 85.6C236.4 97.9712 226.371 108 214 108C201.629 108 191.6 97.9712 191.6 85.6C191.6 66.8288 201.629 50.4 214 50.4C226.371 50.4 236.4 66.8288 236.4 85.6Z" fill="var(--highlight)" stroke="#080708" stroke-width="2"/>
<path d="M270.4 85.6C270.4 97.9712 260.371 108 248 108C235.629 108 225.6 97.9712 225.6 85.6C225.6 66.8288 235.629 50.4 248 50.4C260.371 50.4 270.4 66.8288 270.4 85.6Z" fill="var(--highlight)" stroke="#080708" stroke-width="2"/>
<path d="M303.121 79.4753C306.323 91.425 299.232 103.708 287.282 106.91C275.333 110.111 263.05 103.02 259.848 91.0704C254.99 72.9388 260.425 54.4742 272.374 51.2723C284.324 48.0704 298.263 61.3438 303.121 79.4753Z" fill="var(--highlight)" stroke="#080708" stroke-width="2"/>
<path d="M285.914 83.2577L290.691 85.0475" stroke="#080708" stroke-width="2"/>
<path d="M288.136 88.4599L292.51 83.1468L298.955 85.5611L303.329 80.248" stroke="#080708" stroke-width="2"/>
<path d="M313.377 74.0505C312.948 72.4501 313.897 70.8051 315.498 70.3763L343.703 62.8187C345.303 62.3899 346.948 63.3397 347.377 64.9401L355.297 94.4974L321.296 103.608L313.377 74.0505Z" fill="#080708"/>
<path d="M312.6 71.1527L346.601 62.0423L312.6 71.1527ZM355.297 94.4974L321.296 103.608L355.297 94.4974ZM321.296 103.608L312.6 71.1527L321.296 103.608ZM343.703 62.8187C345.837 62.247 348.03 63.5133 348.602 65.6472L356.263 94.2386L354.331 94.7562L346.411 65.1989C345.982 63.5985 344.77 62.5329 343.703 62.8187Z" fill="#080708"/>
<path d="M332.721 90.6079L335.206 99.8808" stroke="#080708" stroke-width="2" stroke-linecap="square"/>
<path d="M338.903 88.9515L341.387 98.2244" stroke="#080708" stroke-width="2" stroke-linecap="square"/>
<ellipse cx="324.262" cy="83.7644" rx="4.8" ry="4.8" transform="rotate(-15 324.262 83.7644)" fill="var(--highlight)" stroke="#080708" stroke-width="2"/>
<ellipse cx="342.807" cy="78.7949" rx="4.8" ry="4.8" transform="rotate(-15 342.807 78.7949)" fill="var(--highlight)" stroke="#080708" stroke-width="2"/>
<path d="M354.39 72.7438L356.372 80.1396" stroke="#080708" stroke-width="2" stroke-linecap="square"/>
<path d="M349.762 76.9313L355.171 75.4819" stroke="#080708" stroke-width="2"/>
<path d="M335 108C347.371 108 357.4 97.9712 357.4 85.6L351.8 89.6L346.2 85.6L340.6 89.6L335 85.6L329.4 89.6L323.8 85.6L318.2 89.6L312.6 85.6C312.6 97.9712 322.629 108 335 108Z" fill="var(--highlight)" stroke="#080708" stroke-width="2"/>
<path d="M321.168 49.2239C332.527 44.5715 347.079 53.8446 353.183 68.7492L349.342 74.0312L342.899 72.9611L339.058 78.2432L332.615 77.1731L328.774 82.4551L322.331 81.3851L318.49 86.6671L312.047 85.597C305.943 70.6925 309.809 53.8763 321.168 49.2239Z" fill="var(--highlight)" stroke="#080708" stroke-width="2"/>
<path d="M386.778 57.3422C387.207 55.7418 388.852 54.7921 390.452 55.2209L418.657 62.7784C420.258 63.2073 421.208 64.8523 420.779 66.4527L412.859 96.01L378.858 86.8996L386.778 57.3422Z" fill="var(--highlight)" stroke="#080708" stroke-width="2"/>
<rect x="389.278" y="78.9244" width="19.2" height="11.2" transform="rotate(15 389.278 78.9244)" stroke="#080708" stroke-width="2"/>
<path d="M395.459 80.5809L392.561 91.3993" stroke="#080708" stroke-width="2" stroke-linecap="square"/>
<path d="M401.642 82.2373L398.743 93.0557" stroke="#080708" stroke-width="2" stroke-linecap="square"/>
<path d="M391.718 106.91C403.667 110.111 415.95 103.02 419.152 91.0703L412.707 93.4846L408.334 88.1715L401.889 90.5859L397.515 85.2728L391.071 87.6871L386.697 82.374L380.252 84.7883L375.878 79.4752C372.677 91.4249 379.768 103.708 391.718 106.91Z" fill="var(--highlight)" stroke="#080708" stroke-width="2"/>
<ellipse cx="391.555" cy="70.4243" rx="4.8" ry="4.8" transform="rotate(15 391.555 70.4243)" stroke="#080708" stroke-width="2"/>
<ellipse cx="410.101" cy="75.3937" rx="4.8" ry="4.8" transform="rotate(15 410.101 75.3937)" stroke="#080708" stroke-width="2"/>
<ellipse cx="407.247" cy="48.954" rx="3.2" ry="3.2" transform="rotate(15 407.247 48.954)" fill="#080708" stroke="#080708" stroke-width="2"/>
<path d="M379.191 67.1115L383.828 68.3538" stroke="#080708" stroke-width="2"/>
<path d="M380.434 62.475L377.949 71.7479" stroke="#080708" stroke-width="2" stroke-linecap="square"/>
<path d="M406.418 52.0449L404.555 58.9996" stroke="#080708" stroke-width="2" stroke-linecap="square"/>
<path d="M409.525 40.4539L408.903 42.7721M414.868 44.5541L412.79 45.7541M415.747 51.2316L413.429 50.6105M411.647 56.5753L410.447 54.4968M399.626 53.3541L401.705 52.1541M398.747 46.6764L401.065 47.2976M402.847 41.3328L404.047 43.4113" stroke="#080708" stroke-width="2" stroke-linecap="square"/>
<path d="M423.707 74.0701L421.222 83.343" stroke="#080708" stroke-width="2" stroke-linecap="square"/>
<path d="M417.829 77.4642L422.465 78.7066" stroke="#080708" stroke-width="2"/>
</g>
<defs>
<clipPath id="clip0_76_56854">
<rect width="800" height="100" fill="white"/>
</clipPath>
</defs>
</svg>
