<svg width="142" height="188" viewBox="0 0 142 188" fill="none" xmlns="http://www.w3.org/2000/svg">
<g clip-path="url(#clip0_324_6651)">
<ellipse cx="48" cy="176" rx="40" ry="12" fill="#080708"/>
<path d="M39.5515 39.859C40.0635 38.2833 41.7559 37.4209 43.3317 37.9329L129.884 66.0556C131.46 66.5676 132.323 68.2601 131.811 69.8358L104.123 155.048L11.8643 125.071L39.5515 39.859Z" fill="#F5EEEB" stroke="#080708" stroke-width="1.5"/>
<rect x="41.6895" y="104.625" width="52.9129" height="30.8658" transform="rotate(18 41.6895 104.625)" stroke="#080708" stroke-width="1.5"/>
<path d="M58.4648 110.076L48.9268 139.431" stroke="#080708" stroke-width="1.5" stroke-linecap="square"/>
<path d="M75.2384 115.526L65.7003 144.882" stroke="#080708" stroke-width="1.5" stroke-linecap="square"/>
<path d="M44.3688 181.995C76.7936 192.531 111.62 174.786 122.155 142.361L104.071 148.076L92.8001 132.823L74.7161 138.538L63.4449 123.285L45.3609 129L34.0898 113.747L16.0057 119.462L4.73462 104.209C-5.80084 136.634 11.944 171.46 44.3688 181.995Z" fill="#F5EEEB" stroke="#080708" stroke-width="1.5"/>
<ellipse cx="49.1844" cy="81.5611" rx="13.2282" ry="13.2282" transform="rotate(18 49.1844 81.5611)" stroke="#080708" stroke-width="1.5"/>
<ellipse cx="99.5067" cy="97.9117" rx="13.2282" ry="13.2282" transform="rotate(18 99.5067 97.9117)" stroke="#080708" stroke-width="1.5"/>
<path d="M15.6348 70.6602L28.2155 74.7479" stroke="#080708" stroke-width="1.5"/>
<path d="M19.7228 58.0796L11.5473 83.2412" stroke="#080708" stroke-width="1.5" stroke-linecap="square"/>
<path d="M92.7402 33.123L86.6086 51.9942" stroke="#080708" stroke-width="1.5" stroke-linecap="square"/>
<path d="M102.959 1.67095L100.916 7.96135M117.074 13.7258L111.181 16.7285M118.53 32.2299L112.24 30.1861M106.475 46.3448L103.472 40.4516M73.8572 35.746L79.7504 32.7433M72.4004 17.2416L78.6908 19.2854M84.4553 3.12673L87.458 9.01995" stroke="#080708" stroke-width="1.5" stroke-linecap="square"/>
<path d="M137.143 96.2314L128.967 121.393" stroke="#080708" stroke-width="1.5" stroke-linecap="square"/>
<path d="M120.475 104.725L133.055 108.812" stroke="#080708" stroke-width="1.5"/>
<ellipse cx="95.4648" cy="24.7354" rx="8.81881" ry="8.81881" transform="rotate(18 95.4648 24.7354)" fill="#F76239" stroke="#080708" stroke-width="1.5"/>
</g>
<defs>
<clipPath id="clip0_324_6651">
<rect width="142" height="188" fill="white"/>
</clipPath>
</defs>
</svg>
