<svg width="1942" height="31" viewBox="0 0 1942 31" fill="none" xmlns="http://www.w3.org/2000/svg">
<path d="M728.09 0.10083L687.689 28.8743L647.578 0.307407L646.998 1.12194L687.689 30.1019L728.09 1.32852L768.491 30.1019L808.892 1.32852L849.293 30.1019L889.694 1.32853L930.095 30.1019L970.499 1.32593L1010.9 30.1021L1051.3 1.32867L1091.71 30.1021L1132.11 1.32867L1172.51 30.1021L1212.91 1.32868L1253.31 30.1021L1294 1.1221L1293.42 0.307559L1253.31 28.8744L1212.91 0.100982L1172.51 28.8744L1132.11 0.100982L1091.71 28.8744L1051.3 0.100982L1010.9 28.8744L970.793 0.307559L970.499 0.720022L970.205 0.307407L930.095 28.8743L889.694 0.10083L849.293 28.8743L808.892 0.10083L768.491 28.8743L728.09 0.10083Z" fill="#080708"/>
<path d="M1375.09 0.100982L1334.69 28.8744L1294.58 0.307559L1294 1.1221L1334.69 30.1021L1375.09 1.32867L1415.49 30.1021L1455.89 1.32867L1496.29 30.1021L1536.7 1.32868L1577.1 30.1021L1617.5 1.32603L1657.91 30.1021L1698.31 1.32867L1738.71 30.1021L1779.11 1.32867L1819.51 30.1021L1859.91 1.32868L1900.31 30.1021L1941 1.1221L1940.42 0.307559L1900.31 28.8744L1859.91 0.100982L1819.51 28.8744L1779.11 0.100982L1738.71 28.8744L1698.31 0.100982L1657.91 28.8744L1617.79 0.307559L1617.5 0.720055L1617.21 0.307559L1577.1 28.8744L1536.7 0.100982L1496.29 28.8744L1455.89 0.100982L1415.49 28.8744L1375.09 0.100982Z" fill="#080708"/>
<path d="M81.0919 0.100982L40.691 28.8744L0.580111 0.307559L0 1.1221L40.691 30.1021L81.0919 1.32867L121.493 30.1021L161.894 1.32867L202.295 30.1021L242.696 1.32868L283.097 30.1021L323.501 1.32603L363.906 30.1021L404.307 1.32867L444.708 30.1021L485.109 1.32867L525.51 30.1021L565.91 1.32868L606.311 30.1021L647.002 1.1221L646.422 0.307559L606.311 28.8744L565.91 0.100982L525.51 28.8744L485.109 0.100982L444.708 28.8744L404.307 0.100982L363.906 28.8744L323.795 0.307559L323.501 0.720055L323.207 0.307559L283.097 28.8744L242.696 0.100982L202.295 28.8744L161.894 0.100982L121.493 28.8744L81.0919 0.100982Z" fill="#080708"/>
</svg>
