<svg width="880" height="631" viewBox="0 0 880 631" fill="none" xmlns="http://www.w3.org/2000/svg">
<path d="M5 55.5H875C877.485 55.5 879.5 57.5147 879.5 60V550C879.5 552.485 877.485 554.5 875 554.5H5C2.51471 554.5 0.5 552.485 0.5 550V60C0.5 57.5147 2.51472 55.5 5 55.5Z" fill="#F5EEEB" stroke="#F76239"/>
<path d="M440 555V630" stroke="#F76239" stroke-linecap="square"/>
<path d="M350 630H530" stroke="#F76239" stroke-linecap="square"/>
<path d="M380 55H500V55C500 66.0457 491.046 75 480 75H400C388.954 75 380 66.0457 380 55V55Z" fill="#F76239"/>
<circle cx="440" cy="65" r="5" fill="#F5EEEB"/>
<rect x="45" y="100" width="790" height="410" rx="15" fill="#F5EEEB"/>
<rect x="45" y="100" width="790" height="410" rx="15" stroke="#F76239"/>
<path d="M45 100L835 100L45 100ZM835 130.5H45V129.5H835V130.5ZM45 130V100V130ZM835 100V130V100Z" fill="#F76239"/>
<circle cx="65" cy="115" r="4.5" fill="#F76239" stroke="#F76239"/>
<circle cx="80" cy="115" r="4.5" fill="#F76239" stroke="#F76239"/>
<circle cx="95" cy="115" r="4.5" fill="#F76239" stroke="#F76239"/>
<rect x="695.5" y="110.5" width="59" height="9" rx="4.5" fill="#F76239" stroke="#F76239"/>
<rect x="760.5" y="110.5" width="59" height="9" rx="4.5" fill="#F76239" stroke="#F76239"/>
<path d="M75 175C75 166.716 81.7157 160 90 160H790C798.284 160 805 166.716 805 175V466C805 474.284 798.284 481 790 481H90C81.7157 481 75 474.284 75 466V175Z" fill="#F5EEEB"/>
<path d="M75 175C75 166.716 81.7157 160 90 160H790C798.284 160 805 166.716 805 175V466C805 474.284 798.284 481 790 481H90C81.7157 481 75 474.284 75 466V175Z" stroke="#F76239"/>
<path d="M75 160H805H75ZM805 190.5H75V189.5H805V190.5ZM75 190V160V190ZM805 160V190V160Z" fill="#F76239"/>
<circle cx="95" cy="175" r="4.5" fill="#F76239" stroke="#F76239"/>
<circle cx="110" cy="175" r="4.5" fill="#F76239" stroke="#F76239"/>
<circle cx="125" cy="175" r="4.5" fill="#F76239" stroke="#F76239"/>
<rect x="665.5" y="170.5" width="59" height="9" rx="4.5" fill="#F76239" stroke="#F76239"/>
<rect x="730.5" y="170.5" width="59" height="9" rx="4.5" fill="#F76239" stroke="#F76239"/>
<rect x="289" y="225" width="313" height="231" fill="#080708"/>
<rect x="284" y="220" width="313" height="231" fill="#F5EEEB" stroke="#080708"/>
<rect x="284" y="220" width="313" height="20" fill="#080708" stroke="#080708"/>
<rect x="284.5" y="220.5" width="19" height="19" fill="#F5EEEB" stroke="#080708"/>
<rect x="289" y="228" width="10" height="4" rx="2" fill="#080708"/>
<rect x="557" y="220" width="20" height="20" fill="#F5EEEB" stroke="#080708"/>
<circle cx="567" cy="230" r="2" fill="#080708"/>
<rect x="577" y="220" width="20" height="20" fill="#F5EEEB" stroke="#080708"/>
<circle cx="587" cy="230" r="2" fill="#080708"/>
<path d="M371.471 234L371.991 227.02H373.381L374.271 231.15L374.481 232.51L374.701 231.15L375.571 227.02H376.941L377.471 234H376.421L376.191 229.63L376.151 228.09L375.851 229.63L374.901 234H374.001L373.061 229.63L372.781 228.07L372.721 229.63L372.501 234H371.471ZM379.045 234V227.02H384.055V227.92H380.105V229.93H382.825V230.83H380.105V233.1H384.095V234H379.045ZM387.939 234V227.92H385.689V227.02H391.249V227.92H388.999V234H387.939ZM393.593 232.24V231.34H397.463V232.24H393.593ZM394.713 227.02H396.233L398.393 234H397.303L395.893 229.38L395.473 227.85L395.053 229.39L393.623 234H392.553L394.713 227.02ZM400.797 231.45V230.55H402.617C403.063 230.55 403.423 230.427 403.697 230.18C403.97 229.933 404.107 229.61 404.107 229.21C404.107 228.823 403.98 228.513 403.727 228.28C403.473 228.04 403.137 227.92 402.717 227.92H400.797V227.02H402.717C403.223 227.02 403.663 227.11 404.037 227.29C404.41 227.47 404.7 227.723 404.907 228.05C405.113 228.377 405.217 228.763 405.217 229.21C405.217 229.657 405.11 230.05 404.897 230.39C404.683 230.723 404.38 230.983 403.987 231.17C403.6 231.357 403.147 231.45 402.627 231.45H400.797ZM400.037 234V227.02H401.097V234H400.037ZM411.02 234V227.02H412.08V234H411.02ZM406.89 234V227.02H407.95V234H406.89ZM407.8 230.83V229.93H411.16V230.83H407.8ZM416.494 234.12C415.901 234.12 415.384 233.973 414.944 233.68C414.504 233.38 414.161 232.96 413.914 232.42C413.674 231.88 413.554 231.243 413.554 230.51C413.554 229.77 413.674 229.13 413.914 228.59C414.161 228.05 414.504 227.633 414.944 227.34C415.384 227.047 415.901 226.9 416.494 226.9C417.088 226.9 417.604 227.047 418.044 227.34C418.484 227.633 418.824 228.05 419.064 228.59C419.311 229.13 419.434 229.77 419.434 230.51C419.434 231.243 419.311 231.88 419.064 232.42C418.824 232.96 418.484 233.38 418.044 233.68C417.604 233.973 417.088 234.12 416.494 234.12ZM416.494 233.22C416.861 233.22 417.181 233.11 417.454 232.89C417.728 232.67 417.941 232.357 418.094 231.95C418.248 231.543 418.324 231.063 418.324 230.51C418.324 229.95 418.248 229.47 418.094 229.07C417.941 228.663 417.728 228.35 417.454 228.13C417.181 227.91 416.861 227.8 416.494 227.8C416.134 227.8 415.814 227.91 415.534 228.13C415.261 228.35 415.048 228.663 414.894 229.07C414.741 229.477 414.664 229.957 414.664 230.51C414.664 231.063 414.741 231.543 414.894 231.95C415.048 232.357 415.261 232.67 415.534 232.89C415.814 233.11 416.134 233.22 416.494 233.22ZM421.848 231.08V230.18H423.618C423.912 230.18 424.168 230.133 424.388 230.04C424.615 229.94 424.792 229.8 424.918 229.62C425.052 229.44 425.118 229.233 425.118 229C425.118 228.773 425.062 228.58 424.948 228.42C424.835 228.26 424.682 228.137 424.488 228.05C424.295 227.963 424.078 227.92 423.838 227.92H421.848V227.02H423.838C424.298 227.02 424.708 227.1 425.068 227.26C425.428 227.413 425.712 227.637 425.918 227.93C426.125 228.223 426.228 228.58 426.228 229C426.228 229.267 426.165 229.523 426.038 229.77C425.918 230.017 425.742 230.24 425.508 230.44C425.282 230.633 425.005 230.79 424.678 230.91C424.352 231.023 423.982 231.08 423.568 231.08H421.848ZM421.088 234V227.02H422.148V234H421.088ZM425.098 234C425.058 233.687 424.972 233.377 424.838 233.07C424.712 232.763 424.538 232.47 424.318 232.19C424.098 231.91 423.825 231.65 423.498 231.41C423.178 231.17 422.805 230.953 422.378 230.76L423.558 230.5C423.998 230.72 424.375 230.967 424.688 231.24C425.008 231.507 425.272 231.79 425.478 232.09C425.692 232.39 425.852 232.7 425.958 233.02C426.072 233.34 426.145 233.667 426.178 234H425.098ZM429.962 234V227.02H431.022V234H429.962ZM428.212 227.02H432.762V227.92H428.212V227.02ZM428.212 233.1H432.762V234H428.212V233.1ZM437.616 234.12C437.003 234.12 436.469 233.967 436.016 233.66C435.569 233.347 435.223 232.92 434.976 232.38C434.736 231.833 434.616 231.207 434.616 230.5C434.616 229.767 434.743 229.13 434.996 228.59C435.249 228.05 435.603 227.633 436.056 227.34C436.516 227.047 437.049 226.9 437.656 226.9C438.143 226.9 438.583 226.997 438.976 227.19C439.376 227.377 439.699 227.65 439.946 228.01C440.199 228.363 440.346 228.787 440.386 229.28H439.226C439.173 228.833 439.006 228.477 438.726 228.21C438.446 227.937 438.086 227.8 437.646 227.8C437.266 227.8 436.929 227.91 436.636 228.13C436.349 228.343 436.126 228.653 435.966 229.06C435.806 229.467 435.726 229.95 435.726 230.51C435.726 231.07 435.806 231.553 435.966 231.96C436.133 232.367 436.359 232.68 436.646 232.9C436.933 233.113 437.256 233.22 437.616 233.22C437.929 233.22 438.203 233.157 438.436 233.03C438.669 232.897 438.856 232.713 438.996 232.48C439.143 232.247 439.229 231.973 439.256 231.66H440.426C440.379 232.153 440.236 232.587 439.996 232.96C439.756 233.327 439.433 233.613 439.026 233.82C438.626 234.02 438.156 234.12 437.616 234.12ZM442.62 232.24V231.34H446.49V232.24H442.62ZM443.74 227.02H445.26L447.42 234H446.33L444.92 229.38L444.5 227.85L444.08 229.39L442.65 234H441.58L443.74 227.02ZM449.354 234V227.02H450.414V233.1H454.074V234H449.354ZM456.098 234.88V234H460.928V234.88H456.098ZM463.092 234V227.02H468.102V227.92H464.152V229.93H466.872V230.83H464.152V233.1H468.142V234H463.092ZM472.656 234.12C472.036 234.12 471.496 233.97 471.036 233.67C470.576 233.37 470.216 232.95 469.956 232.41C469.702 231.87 469.576 231.237 469.576 230.51C469.576 229.79 469.706 229.16 469.966 228.62C470.226 228.08 470.589 227.66 471.056 227.36C471.522 227.053 472.066 226.9 472.686 226.9C473.166 226.9 473.596 226.993 473.976 227.18C474.362 227.367 474.676 227.637 474.916 227.99C475.156 228.343 475.296 228.77 475.336 229.27H474.166C474.112 228.823 473.952 228.467 473.686 228.2C473.426 227.933 473.086 227.8 472.666 227.8C472.292 227.8 471.956 227.91 471.656 228.13C471.362 228.343 471.129 228.653 470.956 229.06C470.782 229.46 470.696 229.943 470.696 230.51C470.696 231.09 470.782 231.583 470.956 231.99C471.136 232.39 471.379 232.697 471.686 232.91C471.999 233.117 472.349 233.22 472.736 233.22C473.076 233.22 473.376 233.16 473.636 233.04C473.896 232.913 474.112 232.753 474.286 232.56V231.18L473.066 231.22L473.106 230.31H475.336V232.87C475.062 233.263 474.692 233.57 474.226 233.79C473.766 234.01 473.242 234.12 472.656 234.12ZM479.66 234.12C479.04 234.12 478.5 233.97 478.04 233.67C477.58 233.37 477.22 232.95 476.96 232.41C476.706 231.87 476.58 231.237 476.58 230.51C476.58 229.79 476.71 229.16 476.97 228.62C477.23 228.08 477.593 227.66 478.06 227.36C478.526 227.053 479.07 226.9 479.69 226.9C480.17 226.9 480.6 226.993 480.98 227.18C481.366 227.367 481.68 227.637 481.92 227.99C482.16 228.343 482.3 228.77 482.34 229.27H481.17C481.116 228.823 480.956 228.467 480.69 228.2C480.43 227.933 480.09 227.8 479.67 227.8C479.296 227.8 478.96 227.91 478.66 228.13C478.366 228.343 478.133 228.653 477.96 229.06C477.786 229.46 477.7 229.943 477.7 230.51C477.7 231.09 477.786 231.583 477.96 231.99C478.14 232.39 478.383 232.697 478.69 232.91C479.003 233.117 479.353 233.22 479.74 233.22C480.08 233.22 480.38 233.16 480.64 233.04C480.9 232.913 481.116 232.753 481.29 232.56V231.18L480.07 231.22L480.11 230.31H482.34V232.87C482.066 233.263 481.696 233.57 481.23 233.79C480.77 234.01 480.246 234.12 479.66 234.12ZM485.903 234V232.76H487.143V234H485.903ZM491.107 234V227.02H496.117V227.92H492.167V229.93H494.887V230.83H492.167V233.1H496.157V234H491.107ZM497.681 234L499.801 230.44L497.751 227.02H498.961L499.941 228.65L500.541 229.71L501.141 228.64L502.121 227.02H503.311L501.261 230.4L503.401 234H502.211L501.141 232.21L500.541 231.14L499.941 232.21L498.861 234H497.681ZM505.115 234V227.02H510.125V227.92H506.175V229.93H508.895V230.83H506.175V233.1H510.165V234H505.115Z" fill="#F5EEEB"/>
<rect x="743" y="550.622" width="51.2436" height="51.2436" transform="rotate(-30 743 550.622)" fill="#F5EEEB" stroke="#F76239"/>
<path d="M758.937 561.144L788.522 544.063" stroke="#F76239"/>
<path d="M763.207 568.541L792.793 551.459" stroke="#F76239"/>
<path d="M767.478 575.937L782.27 567.396" stroke="#F76239"/>
<rect x="745" y="205" width="45" height="45" rx="10" fill="#F5EEEB" stroke="#F76239"/>
<rect x="745" y="260" width="45" height="45" rx="10" fill="#F5EEEB" stroke="#F76239"/>
<rect x="745" y="315" width="45" height="45" rx="10" fill="#F5EEEB" stroke="#F76239"/>
<path d="M38.1344 504.03C33.6419 487.298 43.5916 470.1 60.3577 465.617C77.1238 461.134 94.3572 471.063 98.8497 487.795L111.051 533.237L50.3358 549.472L38.1344 504.03Z" fill="#F5EEEB" stroke="#F76239"/>
<rect x="30" y="535.909" width="176" height="31.3636" rx="3" fill="#F5EEEB" stroke="#F76239"/>
<path d="M45.7139 567.273H190.285L177.714 630H58.2853L45.7139 567.273Z" fill="#F5EEEB" stroke="#F76239"/>
<path d="M86.5713 457.5C86.5713 440.178 100.642 426.136 118 426.136C135.357 426.136 149.428 440.178 149.428 457.5V535.909H86.5713V457.5Z" fill="#F5EEEB" stroke="#F76239"/>
<path d="M124.286 488.864C124.286 471.542 138.357 457.5 155.715 457.5C173.072 457.5 187.143 471.542 187.143 488.864V535.909H124.286V488.864Z" fill="#F5EEEB" stroke="#F76239"/>
<path d="M180.857 506.114L198.143 498.273" stroke="#F76239"/>
<path d="M132.143 487.295L116.428 474.75M168.285 468.477L180.857 454.364M132.143 512.386L116.428 507.682M180.857 523.364H193.428M108.571 437.114L95.9997 423M136.857 433.977L146.285 426.136M92.8569 460.636L80.2854 451.227M108.571 454.364L116.428 448.091M44.1426 487.295L33.1426 477.886M66.1426 468.477V454.364M47.2854 512.386L33.1426 523.364M66.1426 507.682L77.1426 498.273M108.571 495.136L102.285 487.295M157.285 498.273L168.285 490.432" stroke="#F76239"/>
<path d="M190.285 567.273H45.7139L48.8567 582.955H187.142L190.285 567.273Z" fill="#F76239" stroke="#F76239"/>
<ellipse cx="448.5" cy="377.5" rx="25.5" ry="12.5" fill="#080708"/>
<path d="M468 354C468 369.464 455.464 382 440 382C424.536 382 412 369.464 412 354C412 330.536 424.536 310 440 310C455.464 310 468 330.536 468 354Z" fill="#F5EEEB" stroke="#080708"/>
<path d="M446 353L451.189 356.707" stroke="#080708"/>
<path d="M447 360L454 355L461 360L468 355" stroke="#080708"/>
<path d="M476.133 369.455L472.044 365.567" stroke="#080708" stroke-linecap="square"/>
<path d="M482.343 355.2L476.561 355.2" stroke="#080708" stroke-linecap="square"/>
<path d="M476.133 340.944L472.044 344.832" stroke="#080708" stroke-linecap="square"/>
<path d="M488.017 417.068L475.823 402.57L470.249 417.274L460 379.023L496.207 394.375L481.021 398.444L493.12 412.797L488.017 417.068Z" fill="#F5EEEB" stroke="#080708"/>
</svg>
